<?xml version="1.0" encoding="UTF-8" standalone="no"?>
<!-- Created with Inkscape (http://www.inkscape.org/) -->

<svg
   width="210mm"
   height="297mm"
   viewBox="0 0 210 297"
   version="1.1"
   id="svg5"
   inkscape:version="1.2.2 (b0a8486541, 2022-12-01)"
   sodipodi:docname="ESP32-S3-wroom.svg"
   xmlns:inkscape="http://www.inkscape.org/namespaces/inkscape"
   xmlns:sodipodi="http://sodipodi.sourceforge.net/DTD/sodipodi-0.dtd"
   xmlns="http://www.w3.org/2000/svg"
   xmlns:svg="http://www.w3.org/2000/svg">
  <sodipodi:namedview
     id="namedview7"
     pagecolor="#ffffff"
     bordercolor="#666666"
     borderopacity="1.0"
     inkscape:showpageshadow="2"
     inkscape:pageopacity="0.0"
     inkscape:pagecheckerboard="0"
     inkscape:deskcolor="#d1d1d1"
     inkscape:document-units="mm"
     showgrid="false"
     inkscape:zoom="8"
     inkscape:cx="337.75"
     inkscape:cy="272.75"
     inkscape:window-width="1920"
     inkscape:window-height="1048"
     inkscape:window-x="0"
     inkscape:window-y="0"
     inkscape:window-maximized="1"
     inkscape:current-layer="layer1" />
  <defs
     id="defs2" />
  <g
     inkscape:label="Lager 1"
     inkscape:groupmode="layer"
     id="layer1">
    <rect
       style="fill:none;stroke:#000000;stroke-width:0.3;stroke-linecap:round;stroke-linejoin:round;stroke-dasharray:none;stroke-opacity:1"
       id="rect234"
       width="12"
       height="16.208073"
       x="82.535988"
       y="61.846375" />
    <path
       style="fill:none;stroke:#000000;stroke-width:0.5;stroke-linecap:square;stroke-linejoin:miter;stroke-dasharray:none;stroke-opacity:1"
       d="m 91.159545,66.240407 v -3.61684"
       id="path1649"
       sodipodi:nodetypes="cc" />
    <path
       style="fill:none;stroke:#000000;stroke-width:0.5;stroke-linecap:square;stroke-linejoin:miter;stroke-dasharray:none;stroke-opacity:1"
       d="m 92.709489,66.240407 v -3.61684"
       id="path1649-0"
       sodipodi:nodetypes="cc" />
    <path
       style="fill:none;stroke:#000000;stroke-width:0.5;stroke-linecap:square;stroke-linejoin:miter;stroke-dasharray:none;stroke-opacity:1"
       d="M 91.159545,62.623567 H 89.609602"
       id="path1653" />
    <path
       style="fill:none;stroke:#000000;stroke-width:0.5;stroke-linecap:square;stroke-linejoin:miter;stroke-dasharray:none;stroke-opacity:1"
       d="m 89.609602,62.623567 v 1.653646"
       id="path1655" />
    <path
       style="fill:none;stroke:#000000;stroke-width:0.5;stroke-linecap:square;stroke-linejoin:miter;stroke-dasharray:none;stroke-opacity:1"
       d="M 89.609602,64.277213 H 88.059658"
       id="path1653-3" />
    <path
       style="fill:none;stroke:#000000;stroke-width:0.5;stroke-linecap:square;stroke-linejoin:miter;stroke-dasharray:none;stroke-opacity:1"
       d="M 88.059658,64.277213 V 62.623567"
       id="path1655-6" />
    <path
       style="fill:none;stroke:#000000;stroke-width:0.5;stroke-linecap:square;stroke-linejoin:miter;stroke-dasharray:none;stroke-opacity:1"
       d="M 88.059658,62.623567 H 86.509714"
       id="path1653-7" />
    <path
       style="fill:none;stroke:#000000;stroke-width:0.5;stroke-linecap:square;stroke-linejoin:miter;stroke-dasharray:none;stroke-opacity:1"
       d="m 86.509714,62.623567 v 1.653646"
       id="path1655-5" />
    <path
       style="fill:none;stroke:#000000;stroke-width:0.5;stroke-linecap:square;stroke-linejoin:miter;stroke-dasharray:none;stroke-opacity:1"
       d="M 86.509714,64.277213 H 84.959771"
       id="path1653-35" />
    <path
       style="fill:none;stroke:#000000;stroke-width:0.5;stroke-linecap:square;stroke-linejoin:miter;stroke-dasharray:none;stroke-opacity:1"
       d="M 84.959771,64.277213 V 62.623567"
       id="path1655-62" />
    <path
       style="fill:none;stroke:#000000;stroke-width:0.5;stroke-linecap:square;stroke-linejoin:miter;stroke-dasharray:none;stroke-opacity:1"
       d="M 84.959771,62.623567 H 83.409828"
       id="path1653-9" />
    <path
       style="fill:none;stroke:#000000;stroke-width:0.5;stroke-linecap:square;stroke-linejoin:miter;stroke-dasharray:none;stroke-opacity:1"
       d="m 83.409828,62.706109 v 2.199629"
       id="path1655-1" />
    <path
       style="fill:none;stroke:#000000;stroke-width:0.5;stroke-linecap:square;stroke-linejoin:miter;stroke-dasharray:none;stroke-opacity:1"
       d="m 91.159545,62.623567 h 1.549944"
       id="path1653-2" />
    <rect
       style="fill:none;stroke:#000000;stroke-width:0.3;stroke-linecap:round;stroke-linejoin:round;stroke-dasharray:none;stroke-opacity:1"
       id="rect1988"
       width="10.975563"
       height="11.123501"
       x="83.048203"
       y="66.446854" />
    <g
       aria-label="ESP32-S3-WROOM"
       id="text371"
       style="font-size:1.05833px;line-height:1.25;stroke-width:0.264583">
      <path
         d="m 84.403202,67.767029 h -0.434974 v -0.755648 h 0.434974 v 0.131233 h -0.275166 v 0.166158 h 0.256116 v 0.131233 h -0.256116 v 0.194733 h 0.275166 z"
         style="font-weight:bold;-inkscape-font-specification:'sans-serif Bold'"
         id="path333" />
      <path
         d="m 85.006449,67.557479 q 0,0.100542 -0.07303,0.160867 -0.07197,0.05927 -0.205316,0.05927 -0.119591,0 -0.213782,-0.04551 v -0.149225 q 0.05397,0.02328 0.111124,0.04339 0.05821,0.01905 0.115358,0.01905 0.05927,0 0.08361,-0.02222 0.0254,-0.02328 0.0254,-0.05821 0,-0.02857 -0.02011,-0.04868 -0.01905,-0.02011 -0.05186,-0.03704 -0.03281,-0.01799 -0.07514,-0.0381 -0.02646,-0.0127 -0.05715,-0.02963 -0.03069,-0.01799 -0.05927,-0.04339 -0.02752,-0.02646 -0.04551,-0.0635 -0.01799,-0.03704 -0.01799,-0.0889 0,-0.1016 0.06879,-0.157691 0.06879,-0.05715 0.187324,-0.05715 0.05927,0 0.112183,0.01376 0.05397,0.01376 0.112183,0.03916 l -0.05186,0.124883 q -0.05186,-0.02117 -0.09313,-0.03281 -0.04127,-0.01164 -0.08467,-0.01164 -0.04551,0 -0.06985,0.02117 -0.02434,0.02117 -0.02434,0.05503 0,0.04022 0.03598,0.0635 0.03598,0.02328 0.106892,0.05715 0.05821,0.02752 0.09842,0.05715 0.04127,0.02963 0.0635,0.06985 0.02223,0.04022 0.02223,0.09948 z"
         style="font-weight:bold;-inkscape-font-specification:'sans-serif Bold'"
         id="path335" />
      <path
         d="m 85.385332,67.011381 q 0.146049,0 0.212724,0.0635 0.06773,0.06244 0.06773,0.172508 0,0.06562 -0.02752,0.123824 -0.02752,0.05715 -0.09207,0.09208 -0.0635,0.03493 -0.173566,0.03493 h -0.06879 v 0.268816 h -0.159807 v -0.755648 z m -0.0085,0.131233 h -0.07303 v 0.224366 h 0.05292 q 0.06773,0 0.106891,-0.02646 0.04022,-0.02752 0.04022,-0.08784 0,-0.110066 -0.127,-0.110066 z"
         style="font-weight:bold;-inkscape-font-specification:'sans-serif Bold'"
         id="path337" />
      <path
         d="m 86.254221,67.180714 q 0,0.07832 -0.04762,0.124883 -0.04657,0.04657 -0.115358,0.0635 v 0.0032 q 0.09102,0.01058 0.137583,0.05503 0.04763,0.04445 0.04763,0.119591 0,0.06562 -0.03281,0.118533 -0.03175,0.05186 -0.09948,0.08255 -0.06668,0.02963 -0.172508,0.02963 -0.122766,0 -0.218016,-0.04127 v -0.135466 q 0.04868,0.02434 0.1016,0.03704 0.05397,0.0127 0.09948,0.0127 0.08572,0 0.119591,-0.02963 0.03493,-0.02963 0.03493,-0.08361 0,-0.03175 -0.01587,-0.05292 -0.01588,-0.02222 -0.05609,-0.03281 -0.03916,-0.01164 -0.110066,-0.01164 h -0.05715 v -0.122766 h 0.05821 q 0.06985,0 0.105833,-0.0127 0.03704,-0.01376 0.04974,-0.03598 0.01376,-0.02328 0.01376,-0.05292 0,-0.04022 -0.0254,-0.06244 -0.02434,-0.02328 -0.08255,-0.02328 -0.05397,0 -0.09419,0.01905 -0.03916,0.01799 -0.06668,0.03598 l -0.07408,-0.110066 q 0.04445,-0.03175 0.103717,-0.05292 0.06032,-0.02117 0.142874,-0.02117 0.116417,0 0.18415,0.04762 0.06879,0.04657 0.06879,0.132291 z"
         style="font-weight:bold;-inkscape-font-specification:'sans-serif Bold'"
         id="path339" />
      <path
         d="m 86.88922,67.767029 h -0.528107 v -0.111125 l 0.189441,-0.191558 q 0.05715,-0.05927 0.09207,-0.09842 0.03493,-0.04022 0.0508,-0.07197 0.01588,-0.03281 0.01588,-0.06985 0,-0.04551 -0.0254,-0.06773 -0.02434,-0.02223 -0.06668,-0.02223 -0.04339,0 -0.08467,0.02011 -0.04127,0.02011 -0.08678,0.05715 l -0.08678,-0.102658 q 0.03281,-0.02858 0.06879,-0.05292 0.03704,-0.02434 0.08467,-0.03916 0.04868,-0.01587 0.116417,-0.01587 0.07408,0 0.126999,0.02752 0.05397,0.02646 0.08255,0.07303 0.02963,0.04551 0.02963,0.103717 0,0.06244 -0.0254,0.114299 -0.02434,0.05186 -0.07197,0.102658 -0.04657,0.0508 -0.113241,0.112183 l -0.09737,0.09102 v 0.0074 h 0.329141 z"
         style="font-weight:bold;-inkscape-font-specification:'sans-serif Bold'"
         id="path341" />
      <path
         d="m 86.955895,67.547954 v -0.129116 h 0.277283 v 0.129116 z"
         style="font-weight:bold;-inkscape-font-specification:'sans-serif Bold'"
         id="path343" />
      <path
         d="m 87.805735,67.557479 q 0,0.100542 -0.07303,0.160867 -0.07197,0.05927 -0.205316,0.05927 -0.119592,0 -0.213783,-0.04551 v -0.149225 q 0.05398,0.02328 0.111125,0.04339 0.05821,0.01905 0.115358,0.01905 0.05927,0 0.08361,-0.02222 0.0254,-0.02328 0.0254,-0.05821 0,-0.02857 -0.02011,-0.04868 -0.01905,-0.02011 -0.05186,-0.03704 -0.03281,-0.01799 -0.07514,-0.0381 -0.02646,-0.0127 -0.05715,-0.02963 -0.03069,-0.01799 -0.05927,-0.04339 -0.02752,-0.02646 -0.04551,-0.0635 -0.01799,-0.03704 -0.01799,-0.0889 0,-0.1016 0.06879,-0.157691 0.06879,-0.05715 0.187325,-0.05715 0.05927,0 0.112183,0.01376 0.05397,0.01376 0.112183,0.03916 l -0.05186,0.124883 q -0.05186,-0.02117 -0.09313,-0.03281 -0.04127,-0.01164 -0.08467,-0.01164 -0.04551,0 -0.06985,0.02117 -0.02434,0.02117 -0.02434,0.05503 0,0.04022 0.03598,0.0635 0.03598,0.02328 0.106891,0.05715 0.05821,0.02752 0.09843,0.05715 0.04127,0.02963 0.0635,0.06985 0.02222,0.04022 0.02222,0.09948 z"
         style="font-weight:bold;-inkscape-font-specification:'sans-serif Bold'"
         id="path345" />
      <path
         d="m 88.388875,67.180714 q 0,0.07832 -0.04762,0.124883 -0.04657,0.04657 -0.115358,0.0635 v 0.0032 q 0.09102,0.01058 0.137583,0.05503 0.04763,0.04445 0.04763,0.119591 0,0.06562 -0.03281,0.118533 -0.03175,0.05186 -0.09948,0.08255 -0.06667,0.02963 -0.172508,0.02963 -0.122766,0 -0.218016,-0.04127 v -0.135466 q 0.04868,0.02434 0.1016,0.03704 0.05397,0.0127 0.09948,0.0127 0.08572,0 0.119591,-0.02963 0.03493,-0.02963 0.03493,-0.08361 0,-0.03175 -0.01587,-0.05292 -0.01587,-0.02222 -0.05609,-0.03281 -0.03916,-0.01164 -0.110066,-0.01164 h -0.05715 v -0.122766 h 0.05821 q 0.06985,0 0.105833,-0.0127 0.03704,-0.01376 0.04974,-0.03598 0.01376,-0.02328 0.01376,-0.05292 0,-0.04022 -0.0254,-0.06244 -0.02434,-0.02328 -0.08255,-0.02328 -0.05397,0 -0.09419,0.01905 -0.03916,0.01799 -0.06668,0.03598 l -0.07408,-0.110066 q 0.04445,-0.03175 0.103717,-0.05292 0.06033,-0.02117 0.142874,-0.02117 0.116417,0 0.18415,0.04762 0.06879,0.04657 0.06879,0.132291 z"
         style="font-weight:bold;-inkscape-font-specification:'sans-serif Bold'"
         id="path347" />
      <path
         d="m 88.485184,67.547954 v -0.129116 h 0.277282 v 0.129116 z"
         style="font-weight:bold;-inkscape-font-specification:'sans-serif Bold'"
         id="path349" />
      <path
         d="m 89.817622,67.011381 -0.192616,0.755648 h -0.182033 l -0.102658,-0.396874 q -0.0032,-0.01164 -0.0085,-0.03493 -0.0042,-0.02328 -0.01058,-0.0508 -0.0053,-0.02752 -0.0095,-0.05186 -0.0042,-0.0254 -0.0063,-0.03916 -0.0011,0.01376 -0.0063,0.03916 -0.0042,0.02434 -0.0095,0.05186 -0.0053,0.02646 -0.01058,0.0508 -0.0053,0.02328 -0.0085,0.03598 l -0.1016,0.395816 h -0.182032 l -0.192616,-0.755648 h 0.157691 l 0.09631,0.412749 q 0.0063,0.02434 0.01376,0.06138 0.0074,0.03704 0.01376,0.07408 0.0063,0.03704 0.0095,0.06244 0.0032,-0.02646 0.0095,-0.06244 0.0064,-0.03704 0.0127,-0.07091 0.0074,-0.03493 0.0127,-0.05397 l 0.110067,-0.423332 h 0.151341 l 0.110066,0.423332 q 0.0053,0.01799 0.01164,0.05292 0.0074,0.03493 0.01376,0.07197 0.0063,0.03704 0.0095,0.06244 0.0032,-0.02646 0.0095,-0.06244 0.0063,-0.03704 0.01376,-0.07408 0.0085,-0.03704 0.01376,-0.06138 l 0.09631,-0.412749 z"
         style="font-weight:bold;-inkscape-font-specification:'sans-serif Bold'"
         id="path351" />
      <path
         d="m 90.133005,67.011381 q 0.154516,0 0.227541,0.05609 0.07408,0.05609 0.07408,0.170391 0,0.05186 -0.02011,0.09102 -0.01905,0.0381 -0.05186,0.06562 -0.03175,0.02646 -0.06879,0.04339 l 0.22225,0.329141 h -0.1778 l -0.179916,-0.289983 h -0.08572 v 0.289983 h -0.159808 v -0.755648 z m -0.01164,0.131233 h -0.04868 v 0.204258 h 0.05186 q 0.07937,0 0.113242,-0.02646 0.03493,-0.02646 0.03493,-0.07832 0,-0.05397 -0.03704,-0.0762 -0.03598,-0.02328 -0.1143,-0.02328 z"
         style="font-weight:bold;-inkscape-font-specification:'sans-serif Bold'"
         id="path353" />
      <path
         d="m 91.297168,67.388147 q 0,0.117474 -0.03916,0.205316 -0.0381,0.08678 -0.117475,0.135466 -0.07937,0.04868 -0.203199,0.04868 -0.122766,0 -0.2032,-0.04868 -0.07937,-0.04868 -0.118533,-0.136525 -0.0381,-0.08784 -0.0381,-0.205316 0,-0.117474 0.0381,-0.204257 0.03916,-0.08678 0.118533,-0.134408 0.08043,-0.04868 0.204258,-0.04868 0.122766,0 0.202141,0.04868 0.07937,0.04762 0.117475,0.135466 0.03916,0.08678 0.03916,0.204258 z m -0.55139,0 q 0,0.118533 0.04551,0.187324 0.04551,0.06773 0.14605,0.06773 0.102658,0 0.147108,-0.06773 0.04445,-0.06879 0.04445,-0.187324 0,-0.119592 -0.04445,-0.187325 -0.04445,-0.06773 -0.14605,-0.06773 -0.1016,0 -0.147108,0.06773 -0.04551,0.06773 -0.04551,0.187325 z"
         style="font-weight:bold;-inkscape-font-specification:'sans-serif Bold'"
         id="path355" />
      <path
         d="m 92.139598,67.388147 q 0,0.117474 -0.03916,0.205316 -0.0381,0.08678 -0.117475,0.135466 -0.07937,0.04868 -0.203199,0.04868 -0.122766,0 -0.203199,-0.04868 -0.07937,-0.04868 -0.118533,-0.136525 -0.0381,-0.08784 -0.0381,-0.205316 0,-0.117474 0.0381,-0.204257 0.03916,-0.08678 0.118533,-0.134408 0.08043,-0.04868 0.204257,-0.04868 0.122767,0 0.202141,0.04868 0.07938,0.04762 0.117475,0.135466 0.03916,0.08678 0.03916,0.204258 z m -0.55139,0 q 0,0.118533 0.04551,0.187324 0.04551,0.06773 0.14605,0.06773 0.102658,0 0.147108,-0.06773 0.04445,-0.06879 0.04445,-0.187324 0,-0.119592 -0.04445,-0.187325 -0.04445,-0.06773 -0.14605,-0.06773 -0.101599,0 -0.147108,0.06773 -0.04551,0.06773 -0.04551,0.187325 z"
         style="font-weight:bold;-inkscape-font-specification:'sans-serif Bold'"
         id="path357" />
      <path
         d="m 92.615847,67.767029 -0.182033,-0.592665 h -0.0042 q 0.0011,0.02117 0.0032,0.0635 0.0021,0.04233 0.0042,0.09102 0.0021,0.04762 0.0021,0.08678 v 0.351366 h -0.142874 v -0.755648 h 0.218016 l 0.178858,0.577848 h 0.0032 l 0.189441,-0.577848 h 0.218016 v 0.755648 h -0.149225 v -0.357716 q 0,-0.03598 0.0011,-0.08255 0.0021,-0.04657 0.0032,-0.08784 0.0021,-0.04233 0.0032,-0.0635 h -0.0042 l -0.194733,0.591607 z"
         style="font-weight:bold;-inkscape-font-specification:'sans-serif Bold'"
         id="path359" />
    </g>
    <g
       aria-label="ESP32-S2-SOLO"
       id="text371-3"
       style="font-size:1.05833px;line-height:1.25;stroke-width:0.264583">
      <path
         d="m 85.166255,69.351921 h -0.434973 v -0.755648 h 0.434973 v 0.131233 H 84.89109 v 0.166158 h 0.256116 v 0.131233 H 84.89109 v 0.194733 h 0.275165 z"
         style="font-weight:bold;-inkscape-font-specification:'sans-serif Bold'"
         id="path306" />
      <path
         d="m 85.769503,69.142372 q 0,0.100541 -0.07303,0.160866 -0.07197,0.05927 -0.205316,0.05927 -0.119591,0 -0.213782,-0.04551 v -0.149224 q 0.05397,0.02328 0.111124,0.04339 0.05821,0.01905 0.115358,0.01905 0.05927,0 0.08361,-0.02223 0.0254,-0.02328 0.0254,-0.05821 0,-0.02858 -0.02011,-0.04868 -0.01905,-0.02011 -0.05186,-0.03704 -0.03281,-0.01799 -0.07514,-0.0381 -0.02646,-0.0127 -0.05715,-0.02963 -0.03069,-0.01799 -0.05927,-0.04339 -0.02752,-0.02646 -0.04551,-0.0635 -0.01799,-0.03704 -0.01799,-0.0889 0,-0.1016 0.06879,-0.157691 0.06879,-0.05715 0.187324,-0.05715 0.05927,0 0.112183,0.01376 0.05397,0.01376 0.112183,0.03916 l -0.05186,0.124883 q -0.05186,-0.02117 -0.09313,-0.03281 -0.04127,-0.01164 -0.08467,-0.01164 -0.04551,0 -0.06985,0.02117 -0.02434,0.02117 -0.02434,0.05503 0,0.04022 0.03598,0.0635 0.03598,0.02328 0.106892,0.05715 0.05821,0.02752 0.09842,0.05715 0.04127,0.02963 0.0635,0.06985 0.02223,0.04022 0.02223,0.09948 z"
         style="font-weight:bold;-inkscape-font-specification:'sans-serif Bold'"
         id="path308" />
      <path
         d="m 86.148386,68.596273 q 0.146049,0 0.212724,0.0635 0.06773,0.06244 0.06773,0.172508 0,0.06562 -0.02752,0.123825 -0.02752,0.05715 -0.09207,0.09207 -0.0635,0.03493 -0.173566,0.03493 h -0.06879 v 0.268816 h -0.159807 v -0.755648 z m -0.0085,0.131233 h -0.07303 v 0.224366 h 0.05292 q 0.06773,0 0.106891,-0.02646 0.04022,-0.02752 0.04022,-0.08784 0,-0.110067 -0.127,-0.110067 z"
         style="font-weight:bold;-inkscape-font-specification:'sans-serif Bold'"
         id="path310" />
      <path
         d="m 87.017275,68.765606 q 0,0.07832 -0.04762,0.124883 -0.04657,0.04657 -0.115358,0.0635 v 0.0032 q 0.09102,0.01058 0.137583,0.05503 0.04763,0.04445 0.04763,0.119591 0,0.06562 -0.03281,0.118533 -0.03175,0.05186 -0.09948,0.08255 -0.06667,0.02963 -0.172508,0.02963 -0.122766,0 -0.218016,-0.04127 v -0.135467 q 0.04868,0.02434 0.1016,0.03704 0.05397,0.0127 0.09948,0.0127 0.08572,0 0.119591,-0.02963 0.03492,-0.02963 0.03492,-0.08361 0,-0.03175 -0.01587,-0.05292 -0.01587,-0.02222 -0.05609,-0.03281 -0.03916,-0.01164 -0.110066,-0.01164 h -0.05715 v -0.122766 h 0.05821 q 0.06985,0 0.105833,-0.0127 0.03704,-0.01376 0.04974,-0.03598 0.01376,-0.02328 0.01376,-0.05292 0,-0.04022 -0.0254,-0.06244 -0.02434,-0.02328 -0.08255,-0.02328 -0.05397,0 -0.09419,0.01905 -0.03916,0.01799 -0.06668,0.03598 l -0.07408,-0.110067 q 0.04445,-0.03175 0.103717,-0.05292 0.06032,-0.02117 0.142874,-0.02117 0.116416,0 0.18415,0.04762 0.06879,0.04657 0.06879,0.132291 z"
         style="font-weight:bold;-inkscape-font-specification:'sans-serif Bold'"
         id="path312" />
      <path
         d="m 87.652274,69.351921 h -0.528107 v -0.111125 l 0.189441,-0.191557 q 0.05715,-0.05927 0.09207,-0.09843 0.03493,-0.04022 0.0508,-0.07197 0.01587,-0.03281 0.01587,-0.06985 0,-0.04551 -0.0254,-0.06773 -0.02434,-0.02222 -0.06667,-0.02222 -0.04339,0 -0.08467,0.02011 -0.04127,0.02011 -0.08678,0.05715 L 87.12205,68.69364 q 0.03281,-0.02858 0.06879,-0.05292 0.03704,-0.02434 0.08467,-0.03916 0.04868,-0.01587 0.116417,-0.01587 0.07408,0 0.126999,0.02752 0.05398,0.02646 0.08255,0.07302 0.02963,0.04551 0.02963,0.103717 0,0.06244 -0.0254,0.114299 -0.02434,0.05186 -0.07197,0.102658 -0.04657,0.0508 -0.113242,0.112183 l -0.09737,0.09102 v 0.0074 h 0.329141 z"
         style="font-weight:bold;-inkscape-font-specification:'sans-serif Bold'"
         id="path314" />
      <path
         d="M 87.718949,69.132847 V 69.00373 h 0.277282 v 0.129117 z"
         style="font-weight:bold;-inkscape-font-specification:'sans-serif Bold'"
         id="path316" />
      <path
         d="m 88.568788,69.142372 q 0,0.100541 -0.07302,0.160866 -0.07197,0.05927 -0.205316,0.05927 -0.119592,0 -0.213783,-0.04551 v -0.149224 q 0.05397,0.02328 0.111125,0.04339 0.05821,0.01905 0.115358,0.01905 0.05927,0 0.08361,-0.02223 0.0254,-0.02328 0.0254,-0.05821 0,-0.02858 -0.02011,-0.04868 -0.01905,-0.02011 -0.05186,-0.03704 -0.03281,-0.01799 -0.07514,-0.0381 -0.02646,-0.0127 -0.05715,-0.02963 -0.03069,-0.01799 -0.05927,-0.04339 -0.02752,-0.02646 -0.04551,-0.0635 -0.01799,-0.03704 -0.01799,-0.0889 0,-0.1016 0.06879,-0.157691 0.06879,-0.05715 0.187324,-0.05715 0.05927,0 0.112183,0.01376 0.05398,0.01376 0.112183,0.03916 l -0.05186,0.124883 q -0.05186,-0.02117 -0.09313,-0.03281 -0.04127,-0.01164 -0.08467,-0.01164 -0.04551,0 -0.06985,0.02117 -0.02434,0.02117 -0.02434,0.05503 0,0.04022 0.03598,0.0635 0.03598,0.02328 0.106891,0.05715 0.05821,0.02752 0.09842,0.05715 0.04127,0.02963 0.0635,0.06985 0.02222,0.04022 0.02222,0.09948 z"
         style="font-weight:bold;-inkscape-font-specification:'sans-serif Bold'"
         id="path318" />
      <path
         d="m 89.181562,69.351921 h -0.528106 v -0.111125 l 0.189441,-0.191557 q 0.05715,-0.05927 0.09207,-0.09843 0.03493,-0.04022 0.0508,-0.07197 0.01587,-0.03281 0.01587,-0.06985 0,-0.04551 -0.0254,-0.06773 -0.02434,-0.02222 -0.06668,-0.02222 -0.04339,0 -0.08467,0.02011 -0.04127,0.02011 -0.08678,0.05715 l -0.08678,-0.102658 q 0.03281,-0.02858 0.06879,-0.05292 0.03704,-0.02434 0.08467,-0.03916 0.04868,-0.01587 0.116416,-0.01587 0.07408,0 0.127,0.02752 0.05397,0.02646 0.08255,0.07302 0.02963,0.04551 0.02963,0.103717 0,0.06244 -0.0254,0.114299 -0.02434,0.05186 -0.07197,0.102658 -0.04657,0.0508 -0.113241,0.112183 l -0.09737,0.09102 v 0.0074 h 0.32914 z"
         style="font-weight:bold;-inkscape-font-specification:'sans-serif Bold'"
         id="path320" />
      <path
         d="M 89.248238,69.132847 V 69.00373 h 0.277282 v 0.129117 z"
         style="font-weight:bold;-inkscape-font-specification:'sans-serif Bold'"
         id="path322" />
      <path
         d="m 90.098077,69.142372 q 0,0.100541 -0.07303,0.160866 -0.07197,0.05927 -0.205316,0.05927 -0.119591,0 -0.213782,-0.04551 v -0.149224 q 0.05398,0.02328 0.111124,0.04339 0.05821,0.01905 0.115358,0.01905 0.05927,0 0.08361,-0.02223 0.0254,-0.02328 0.0254,-0.05821 0,-0.02858 -0.02011,-0.04868 -0.01905,-0.02011 -0.05186,-0.03704 -0.03281,-0.01799 -0.07514,-0.0381 -0.02646,-0.0127 -0.05715,-0.02963 -0.03069,-0.01799 -0.05927,-0.04339 -0.02752,-0.02646 -0.04551,-0.0635 -0.01799,-0.03704 -0.01799,-0.0889 0,-0.1016 0.06879,-0.157691 0.06879,-0.05715 0.187324,-0.05715 0.05927,0 0.112183,0.01376 0.05397,0.01376 0.112183,0.03916 l -0.05186,0.124883 q -0.05186,-0.02117 -0.09313,-0.03281 -0.04127,-0.01164 -0.08467,-0.01164 -0.04551,0 -0.06985,0.02117 -0.02434,0.02117 -0.02434,0.05503 0,0.04022 0.03598,0.0635 0.03598,0.02328 0.106892,0.05715 0.05821,0.02752 0.09842,0.05715 0.04127,0.02963 0.0635,0.06985 0.02223,0.04022 0.02223,0.09948 z"
         style="font-weight:bold;-inkscape-font-specification:'sans-serif Bold'"
         id="path324" />
      <path
         d="m 90.921458,68.973039 q 0,0.117475 -0.03916,0.205316 -0.0381,0.08678 -0.117474,0.135466 -0.07937,0.04868 -0.2032,0.04868 -0.122766,0 -0.203199,-0.04868 -0.07938,-0.04868 -0.118533,-0.136524 -0.0381,-0.08784 -0.0381,-0.205316 0,-0.117475 0.0381,-0.204258 0.03916,-0.08678 0.118533,-0.134408 0.08043,-0.04868 0.204258,-0.04868 0.122766,0 0.202141,0.04868 0.07937,0.04763 0.117474,0.135466 0.03916,0.08678 0.03916,0.204258 z m -0.551389,0 q 0,0.118533 0.04551,0.187324 0.04551,0.06773 0.146049,0.06773 0.102658,0 0.147108,-0.06773 0.04445,-0.06879 0.04445,-0.187324 0,-0.119591 -0.04445,-0.187325 -0.04445,-0.06773 -0.146049,-0.06773 -0.1016,0 -0.147108,0.06773 -0.04551,0.06773 -0.04551,0.187325 z"
         style="font-weight:bold;-inkscape-font-specification:'sans-serif Bold'"
         id="path326" />
      <path
         d="m 91.078091,69.351921 v -0.755648 h 0.159808 v 0.623357 h 0.306916 v 0.132291 z"
         style="font-weight:bold;-inkscape-font-specification:'sans-serif Bold'"
         id="path328" />
      <path
         d="m 92.340679,68.973039 q 0,0.117475 -0.03916,0.205316 -0.0381,0.08678 -0.117475,0.135466 -0.07937,0.04868 -0.203199,0.04868 -0.122767,0 -0.2032,-0.04868 -0.07937,-0.04868 -0.118533,-0.136524 -0.0381,-0.08784 -0.0381,-0.205316 0,-0.117475 0.0381,-0.204258 0.03916,-0.08678 0.118533,-0.134408 0.08043,-0.04868 0.204258,-0.04868 0.122766,0 0.202141,0.04868 0.07937,0.04763 0.117475,0.135466 0.03916,0.08678 0.03916,0.204258 z m -0.55139,0 q 0,0.118533 0.04551,0.187324 0.04551,0.06773 0.14605,0.06773 0.102658,0 0.147108,-0.06773 0.04445,-0.06879 0.04445,-0.187324 0,-0.119591 -0.04445,-0.187325 -0.04445,-0.06773 -0.14605,-0.06773 -0.1016,0 -0.147108,0.06773 -0.04551,0.06773 -0.04551,0.187325 z"
         style="font-weight:bold;-inkscape-font-specification:'sans-serif Bold'"
         id="path330" />
    </g>
  </g>
</svg>
