<?xml version="1.0" encoding="UTF-8" standalone="no"?>
<!-- Created with Inkscape (http://www.inkscape.org/) -->

<svg
   width="210mm"
   height="297mm"
   viewBox="0 0 210 297"
   version="1.1"
   id="svg5"
   inkscape:version="1.2.2 (b0a8486541, 2022-12-01)"
   sodipodi:docname="ESP32-C3-wroom.svg"
   xmlns:inkscape="http://www.inkscape.org/namespaces/inkscape"
   xmlns:sodipodi="http://sodipodi.sourceforge.net/DTD/sodipodi-0.dtd"
   xmlns="http://www.w3.org/2000/svg"
   xmlns:svg="http://www.w3.org/2000/svg">
  <sodipodi:namedview
     id="namedview7"
     pagecolor="#ffffff"
     bordercolor="#666666"
     borderopacity="1.0"
     inkscape:showpageshadow="2"
     inkscape:pageopacity="0.0"
     inkscape:pagecheckerboard="0"
     inkscape:deskcolor="#d1d1d1"
     inkscape:document-units="mm"
     showgrid="false"
     inkscape:zoom="8"
     inkscape:cx="320.125"
     inkscape:cy="257"
     inkscape:window-width="1920"
     inkscape:window-height="1048"
     inkscape:window-x="0"
     inkscape:window-y="0"
     inkscape:window-maximized="1"
     inkscape:current-layer="layer1" />
  <defs
     id="defs2" />
  <g
     inkscape:label="Lager 1"
     inkscape:groupmode="layer"
     id="layer1">
    <rect
       style="fill:none;stroke:#000000;stroke-width:0.3;stroke-linecap:round;stroke-linejoin:round;stroke-dasharray:none;stroke-opacity:1"
       id="rect234"
       width="12"
       height="13"
       x="82.535988"
       y="61.846375" />
    <path
       style="fill:none;stroke:#000000;stroke-width:0.5;stroke-linecap:square;stroke-linejoin:miter;stroke-dasharray:none;stroke-opacity:1"
       d="m 91.159545,66.240407 v -3.61684"
       id="path1649"
       sodipodi:nodetypes="cc" />
    <path
       style="fill:none;stroke:#000000;stroke-width:0.5;stroke-linecap:square;stroke-linejoin:miter;stroke-dasharray:none;stroke-opacity:1"
       d="m 92.709489,66.240407 v -3.61684"
       id="path1649-0"
       sodipodi:nodetypes="cc" />
    <path
       style="fill:none;stroke:#000000;stroke-width:0.5;stroke-linecap:square;stroke-linejoin:miter;stroke-dasharray:none;stroke-opacity:1"
       d="M 91.159545,62.623567 H 89.609602"
       id="path1653" />
    <path
       style="fill:none;stroke:#000000;stroke-width:0.5;stroke-linecap:square;stroke-linejoin:miter;stroke-dasharray:none;stroke-opacity:1"
       d="m 89.609602,62.623567 v 1.653646"
       id="path1655" />
    <path
       style="fill:none;stroke:#000000;stroke-width:0.5;stroke-linecap:square;stroke-linejoin:miter;stroke-dasharray:none;stroke-opacity:1"
       d="M 89.609602,64.277213 H 88.059658"
       id="path1653-3" />
    <path
       style="fill:none;stroke:#000000;stroke-width:0.5;stroke-linecap:square;stroke-linejoin:miter;stroke-dasharray:none;stroke-opacity:1"
       d="M 88.059658,64.277213 V 62.623567"
       id="path1655-6" />
    <path
       style="fill:none;stroke:#000000;stroke-width:0.5;stroke-linecap:square;stroke-linejoin:miter;stroke-dasharray:none;stroke-opacity:1"
       d="M 88.059658,62.623567 H 86.509714"
       id="path1653-7" />
    <path
       style="fill:none;stroke:#000000;stroke-width:0.5;stroke-linecap:square;stroke-linejoin:miter;stroke-dasharray:none;stroke-opacity:1"
       d="m 86.509714,62.623567 v 1.653646"
       id="path1655-5" />
    <path
       style="fill:none;stroke:#000000;stroke-width:0.5;stroke-linecap:square;stroke-linejoin:miter;stroke-dasharray:none;stroke-opacity:1"
       d="M 86.509714,64.277213 H 84.959771"
       id="path1653-35" />
    <path
       style="fill:none;stroke:#000000;stroke-width:0.5;stroke-linecap:square;stroke-linejoin:miter;stroke-dasharray:none;stroke-opacity:1"
       d="M 84.959771,64.277213 V 62.623567"
       id="path1655-62" />
    <path
       style="fill:none;stroke:#000000;stroke-width:0.5;stroke-linecap:square;stroke-linejoin:miter;stroke-dasharray:none;stroke-opacity:1"
       d="M 84.959771,62.623567 H 83.409828"
       id="path1653-9" />
    <path
       style="fill:none;stroke:#000000;stroke-width:0.5;stroke-linecap:square;stroke-linejoin:miter;stroke-dasharray:none;stroke-opacity:1"
       d="m 83.409828,62.706109 v 2.199629"
       id="path1655-1" />
    <path
       style="fill:none;stroke:#000000;stroke-width:0.5;stroke-linecap:square;stroke-linejoin:miter;stroke-dasharray:none;stroke-opacity:1"
       d="m 91.159545,62.623567 h 1.549944"
       id="path1653-2" />
    <rect
       style="fill:none;stroke:#000000;stroke-width:0.3;stroke-linecap:round;stroke-linejoin:round;stroke-dasharray:none;stroke-opacity:1"
       id="rect1988"
       width="10.975566"
       height="7.8823547"
       x="83.048203"
       y="66.446854" />
    <g
       aria-label="ESP32-C3-WROOM"
       id="text2063"
       style="font-weight:bold;font-size:1.05833px;line-height:1.25;font-family:Ubuntu;-inkscape-font-specification:'Ubuntu Bold';stroke-width:0.264583">
      <path
         d="m 83.932517,67.70565 v -0.733422 h 0.479423 v 0.121708 h -0.334432 v 0.168274 h 0.297391 v 0.119591 h -0.297391 v 0.202141 h 0.359832 v 0.121708 z"
         id="path304" />
      <path
         d="m 84.752722,67.720467 q -0.09419,0 -0.153458,-0.01905 -0.05821,-0.02011 -0.08573,-0.03598 l 0.04233,-0.115358 q 0.02963,0.01693 0.07832,0.03175 0.04868,0.01482 0.118533,0.01482 0.07408,0 0.103716,-0.02328 0.02963,-0.02434 0.02963,-0.06456 0,-0.03175 -0.01799,-0.05186 -0.01693,-0.02117 -0.05186,-0.0381 -0.03493,-0.01693 -0.08784,-0.03493 -0.0508,-0.01905 -0.09737,-0.04339 -0.04551,-0.0254 -0.07408,-0.06562 -0.02858,-0.04022 -0.02858,-0.105833 0,-0.06668 0.03175,-0.1143 0.03281,-0.04762 0.09102,-0.07302 0.05927,-0.02646 0.1397,-0.02646 0.07091,0 0.123824,0.01588 0.05397,0.01587 0.08784,0.03493 l -0.04339,0.1143 q -0.03069,-0.01693 -0.06985,-0.02858 -0.03916,-0.0127 -0.09102,-0.0127 -0.06138,0 -0.09208,0.01905 -0.02963,0.01905 -0.02963,0.06033 0,0.02963 0.01799,0.04868 0.01799,0.01905 0.04868,0.03387 0.03069,0.01376 0.06879,0.02752 0.07303,0.02646 0.121708,0.05503 0.04974,0.02858 0.07514,0.07197 0.02646,0.04233 0.02646,0.113241 0,0.06667 -0.03175,0.1143 -0.03175,0.04762 -0.09525,0.07302 -0.06244,0.02434 -0.155574,0.02434 z"
         id="path306" />
      <path
         d="m 85.163355,67.70565 v -0.721781 q 0.0508,-0.01058 0.109008,-0.01482 0.05821,-0.0053 0.103716,-0.0053 0.161925,0 0.246591,0.05821 0.08572,0.05821 0.08572,0.18415 0,0.08678 -0.03916,0.141816 -0.03916,0.05397 -0.115358,0.07937 -0.07514,0.02434 -0.183092,0.02434 h -0.06244 v 0.253999 z m 0.144991,-0.377824 h 0.06033 q 0.06138,0 0.103716,-0.01058 0.04339,-0.01058 0.06456,-0.03704 0.02222,-0.02646 0.02222,-0.07514 0,-0.04657 -0.02222,-0.07197 -0.02223,-0.0254 -0.06244,-0.03493 -0.03916,-0.01058 -0.08996,-0.01058 -0.02223,0 -0.04233,0.0021 -0.02011,0.0011 -0.03387,0.0021 z"
         id="path308" />
      <path
         d="m 85.987793,67.721525 q -0.04022,0 -0.08149,-0.0074 -0.04022,-0.0063 -0.07408,-0.01588 -0.03281,-0.0095 -0.04974,-0.01799 l 0.02752,-0.115358 q 0.02434,0.01058 0.06668,0.02434 0.04339,0.01376 0.106891,0.01376 0.05186,0 0.08572,-0.01376 0.03387,-0.01376 0.04868,-0.03916 0.01587,-0.02646 0.01587,-0.06033 0,-0.04445 -0.02328,-0.06879 -0.02328,-0.0254 -0.06244,-0.03598 -0.0381,-0.01058 -0.08572,-0.01058 h -0.04974 v -0.111125 h 0.06033 q 0.03281,0 0.06244,-0.0085 0.03069,-0.0095 0.04974,-0.03069 0.01905,-0.02222 0.01905,-0.06138 0,-0.03175 -0.01587,-0.0508 -0.01482,-0.02011 -0.03916,-0.02963 -0.02434,-0.0095 -0.05186,-0.0095 -0.04763,0 -0.08467,0.01482 -0.03704,0.01376 -0.06667,0.03281 l -0.04974,-0.1016 q 0.03069,-0.02011 0.08361,-0.04127 0.05397,-0.02223 0.121707,-0.02223 0.08361,0 0.136525,0.02646 0.05398,0.02646 0.07937,0.07197 0.0254,0.04551 0.0254,0.103716 0,0.04762 -0.02646,0.0889 -0.02646,0.04022 -0.06985,0.06138 0.0381,0.01376 0.06667,0.03916 0.02963,0.0254 0.04551,0.06138 0.01588,0.03598 0.01588,0.08361 0,0.06562 -0.03069,0.118533 -0.03069,0.05186 -0.09419,0.08149 -0.06244,0.02963 -0.161925,0.02963 z"
         id="path310" />
      <path
         d="m 86.405833,67.70565 q -0.0011,-0.0095 -0.0011,-0.02434 0,-0.01587 0,-0.02434 0,-0.06773 0.02858,-0.120649 0.02857,-0.05292 0.07091,-0.09737 0.04339,-0.04445 0.08678,-0.08678 0.03492,-0.03281 0.06244,-0.06138 0.02858,-0.02963 0.04551,-0.05821 0.01693,-0.02858 0.01693,-0.06138 0,-0.05292 -0.02963,-0.07408 -0.02963,-0.02222 -0.07303,-0.02222 -0.03916,0 -0.07197,0.01376 -0.03175,0.01376 -0.05397,0.03175 -0.02223,0.01799 -0.03175,0.02752 l -0.06879,-0.09631 q 0.02646,-0.0254 0.06138,-0.04657 0.03598,-0.02223 0.07832,-0.03598 0.04339,-0.01376 0.09102,-0.01376 0.124883,0 0.182032,0.05609 0.05821,0.05503 0.05821,0.151341 0,0.05292 -0.02646,0.1016 -0.02646,0.04763 -0.06773,0.09102 -0.04022,0.04233 -0.08255,0.08255 -0.02328,0.02222 -0.0508,0.0508 -0.02752,0.02858 -0.04868,0.05609 -0.02011,0.02646 -0.02328,0.04445 h 0.321733 v 0.116416 z"
         id="path312" />
      <path
         d="m 86.967805,67.454826 v -0.125941 h 0.292099 v 0.125941 z"
         id="path314" />
      <path
         d="m 87.717633,67.720467 q -0.113242,0 -0.193675,-0.04445 -0.08043,-0.04445 -0.122766,-0.130175 -0.04233,-0.08572 -0.04233,-0.207432 0,-0.09102 0.02752,-0.161925 0.02858,-0.07197 0.07832,-0.120649 0.04974,-0.04974 0.116416,-0.07514 0.06668,-0.0254 0.143933,-0.0254 0.06138,0 0.106891,0.01058 0.04551,0.01058 0.07408,0.02328 0.02963,0.0127 0.04127,0.02117 l -0.04233,0.117475 q -0.03175,-0.01799 -0.0762,-0.03069 -0.04445,-0.01376 -0.101599,-0.01376 -0.06033,0 -0.110067,0.02752 -0.04868,0.02646 -0.07832,0.08255 -0.02963,0.05609 -0.02963,0.142874 0,0.07408 0.02223,0.132291 0.02328,0.05715 0.07197,0.09102 0.04974,0.03281 0.127,0.03281 0.07302,0 0.116416,-0.01376 0.04339,-0.01376 0.06985,-0.02752 l 0.04022,0.117475 q -0.03069,0.01799 -0.09313,0.03493 -0.06138,0.01693 -0.146049,0.01693 z"
         id="path316" />
      <path
         d="m 88.220339,67.721525 q -0.04022,0 -0.08149,-0.0074 -0.04022,-0.0063 -0.07408,-0.01588 -0.03281,-0.0095 -0.04974,-0.01799 l 0.02752,-0.115358 q 0.02434,0.01058 0.06668,0.02434 0.04339,0.01376 0.106891,0.01376 0.05186,0 0.08573,-0.01376 0.03387,-0.01376 0.04868,-0.03916 0.01587,-0.02646 0.01587,-0.06033 0,-0.04445 -0.02328,-0.06879 -0.02328,-0.0254 -0.06244,-0.03598 -0.0381,-0.01058 -0.08572,-0.01058 h -0.04974 v -0.111125 h 0.06033 q 0.03281,0 0.06244,-0.0085 0.03069,-0.0095 0.04974,-0.03069 0.01905,-0.02222 0.01905,-0.06138 0,-0.03175 -0.01587,-0.0508 -0.01482,-0.02011 -0.03916,-0.02963 -0.02434,-0.0095 -0.05186,-0.0095 -0.04762,0 -0.08467,0.01482 -0.03704,0.01376 -0.06667,0.03281 l -0.04974,-0.1016 q 0.03069,-0.02011 0.08361,-0.04127 0.05397,-0.02223 0.121708,-0.02223 0.08361,0 0.136524,0.02646 0.05398,0.02646 0.07937,0.07197 0.0254,0.04551 0.0254,0.103716 0,0.04762 -0.02646,0.0889 -0.02646,0.04022 -0.06985,0.06138 0.0381,0.01376 0.06668,0.03916 0.02963,0.0254 0.04551,0.06138 0.01588,0.03598 0.01588,0.08361 0,0.06562 -0.03069,0.118533 -0.03069,0.05186 -0.09419,0.08149 -0.06244,0.02963 -0.161925,0.02963 z"
         id="path318" />
      <path
         d="m 88.603454,67.454826 v -0.125941 h 0.292099 v 0.125941 z"
         id="path320" />
      <path
         d="m 89.132619,67.70565 q -0.02223,-0.06667 -0.04339,-0.136524 -0.02011,-0.07091 -0.04022,-0.143933 -0.01905,-0.07302 -0.03704,-0.148166 -0.01693,-0.07514 -0.03387,-0.151342 -0.01588,-0.0762 -0.03069,-0.153457 h 0.155574 q 0.01482,0.09102 0.03387,0.188382 0.01905,0.09737 0.03916,0.189441 0.02117,0.09102 0.04233,0.166158 0.01905,-0.05292 0.0381,-0.112183 0.02011,-0.06033 0.03916,-0.120649 0.01905,-0.06138 0.03598,-0.119592 0.01693,-0.05927 0.03175,-0.111124 h 0.122766 q 0.02117,0.06985 0.04551,0.151341 0.02434,0.08149 0.0508,0.162983 0.02646,0.08043 0.0508,0.149224 0.02011,-0.07408 0.03916,-0.165099 0.02011,-0.09208 0.0381,-0.189441 0.01905,-0.09737 0.03493,-0.189441 h 0.149224 q -0.01587,0.07726 -0.03281,0.153457 -0.01587,0.0762 -0.03387,0.151342 -0.01693,0.07514 -0.03704,0.148166 -0.01905,0.07303 -0.04022,0.142874 -0.02011,0.06985 -0.04233,0.137583 h -0.135466 q -0.02646,-0.07091 -0.05292,-0.144991 -0.0254,-0.07514 -0.0508,-0.153458 -0.02434,-0.07832 -0.04974,-0.158749 -0.02434,0.08043 -0.04974,0.158749 -0.02434,0.07832 -0.04974,0.153458 -0.0254,0.07408 -0.05186,0.144991 z"
         id="path322" />
      <path
         d="m 90.00574,67.70565 v -0.721781 q 0.0508,-0.01058 0.106892,-0.01482 0.05609,-0.0053 0.101599,-0.0053 0.161925,0 0.246591,0.05927 0.08573,0.05821 0.08573,0.178858 0,0.07832 -0.03704,0.127 -0.03704,0.04762 -0.104774,0.07408 0.02117,0.02646 0.04551,0.06138 0.0254,0.03493 0.04974,0.07514 0.0254,0.04022 0.04868,0.08255 0.02328,0.04233 0.04233,0.08361 h -0.160866 q -0.02752,-0.0508 -0.05821,-0.100541 -0.02963,-0.0508 -0.05927,-0.09631 -0.02963,-0.04551 -0.05715,-0.07832 -0.0042,0 -0.0085,0.0011 -0.0032,0 -0.0063,0 h -0.08996 v 0.274107 z m 0.144992,-0.389465 h 0.05821 q 0.0635,0 0.104774,-0.0095 0.04233,-0.01058 0.06244,-0.03598 0.02117,-0.0254 0.02117,-0.06985 0,-0.04233 -0.02117,-0.06668 -0.02011,-0.0254 -0.06032,-0.03598 -0.03916,-0.01058 -0.09208,-0.01058 -0.02328,0 -0.04127,0.0021 -0.01799,0.0011 -0.03175,0.0021 z"
         id="path324" />
      <path
         d="m 91.014329,67.720467 q -0.09843,0 -0.180974,-0.04339 -0.08149,-0.04339 -0.130175,-0.128058 -0.04868,-0.08572 -0.04868,-0.210607 0,-0.09419 0.02857,-0.1651 0.02858,-0.07197 0.07937,-0.120649 0.0508,-0.04868 0.115357,-0.07303 0.06456,-0.02434 0.136525,-0.02434 0.09948,0 0.180975,0.04339 0.08255,0.04339 0.131232,0.129116 0.04868,0.08467 0.04868,0.210608 0,0.124883 -0.04868,0.210607 -0.04762,0.08467 -0.129116,0.128058 -0.08149,0.04339 -0.183091,0.04339 z m 0,-0.127 q 0.06667,0 0.113241,-0.03175 0.04762,-0.03175 0.07303,-0.0889 0.0254,-0.05715 0.0254,-0.134408 0,-0.07832 -0.0254,-0.135466 -0.0254,-0.05715 -0.07303,-0.0889 -0.04657,-0.03175 -0.113241,-0.03175 -0.06562,0 -0.113241,0.03281 -0.04657,0.03175 -0.07197,0.0889 -0.0254,0.05715 -0.0254,0.134408 0,0.07726 0.0254,0.134408 0.0254,0.05715 0.07197,0.0889 0.04762,0.03175 0.113241,0.03175 z"
         id="path326" />
      <path
         d="m 91.847236,67.720467 q -0.09842,0 -0.180975,-0.04339 -0.08149,-0.04339 -0.130174,-0.128058 -0.04868,-0.08572 -0.04868,-0.210607 0,-0.09419 0.02857,-0.1651 0.02857,-0.07197 0.07937,-0.120649 0.0508,-0.04868 0.115358,-0.07303 0.06456,-0.02434 0.136525,-0.02434 0.09948,0 0.180974,0.04339 0.08255,0.04339 0.131233,0.129116 0.04868,0.08467 0.04868,0.210608 0,0.124883 -0.04868,0.210607 -0.04762,0.08467 -0.129116,0.128058 -0.08149,0.04339 -0.183091,0.04339 z m 0,-0.127 q 0.06668,0 0.113241,-0.03175 0.04762,-0.03175 0.07303,-0.0889 0.0254,-0.05715 0.0254,-0.134408 0,-0.07832 -0.0254,-0.135466 -0.0254,-0.05715 -0.07303,-0.0889 -0.04657,-0.03175 -0.113241,-0.03175 -0.06562,0 -0.113242,0.03281 -0.04657,0.03175 -0.07197,0.0889 -0.0254,0.05715 -0.0254,0.134408 0,0.07726 0.0254,0.134408 0.0254,0.05715 0.07197,0.0889 0.04763,0.03175 0.113242,0.03175 z"
         id="path328" />
      <path
         d="m 92.330893,67.70565 q 0.0042,-0.08996 0.0095,-0.187324 0.0063,-0.09737 0.0127,-0.194733 0.0074,-0.09737 0.01588,-0.187324 0.0085,-0.08996 0.01905,-0.164041 h 0.136525 q 0.02222,0.03916 0.04868,0.09419 0.02646,0.05503 0.05503,0.118533 0.02963,0.0635 0.05821,0.128058 0.02858,0.06456 0.05186,0.119591 0.02434,-0.05503 0.05186,-0.119591 0.02857,-0.06456 0.05715,-0.128058 0.02963,-0.0635 0.05609,-0.118533 0.02752,-0.05503 0.04868,-0.09419 h 0.130174 q 0.01058,0.07408 0.01905,0.164041 0.0085,0.08996 0.01482,0.187324 0.0074,0.09737 0.0127,0.194733 0.0063,0.09737 0.01058,0.187324 h -0.140758 q -0.0032,-0.08149 -0.0074,-0.167216 -0.0032,-0.08572 -0.0085,-0.173566 -0.0042,-0.0889 -0.01164,-0.173566 -0.01376,0.03175 -0.03281,0.07408 -0.01905,0.04233 -0.04127,0.09102 -0.02117,0.04762 -0.04233,0.09525 -0.02011,0.04657 -0.0381,0.08784 -0.01799,0.04127 -0.02963,0.06985 h -0.103716 q -0.0127,-0.02858 -0.03069,-0.06985 -0.01693,-0.04127 -0.0381,-0.08784 -0.02117,-0.04762 -0.04233,-0.09525 -0.02117,-0.04868 -0.04022,-0.09102 -0.01905,-0.04233 -0.03281,-0.07408 -0.0074,0.08467 -0.0127,0.173566 -0.0053,0.08784 -0.0085,0.173566 -0.0032,0.08573 -0.0064,0.167216 z"
         id="path330" />
    </g>
  </g>
</svg>
