M48
; DRILL file {KiCad 8.0.5-8.0.5-0~ubuntu24.04.1} date 2024-09-24T16:48:20+0200
; FORMAT={-:-/ absolute / inch / decimal}
; #@! TF.CreationDate,2024-09-24T16:48:20+02:00
; #@! TF.GenerationSoftware,Kicad,Pcbnew,8.0.5-8.0.5-0~ubuntu24.04.1
; #@! TF.FileFunction,Plated,1,2,PTH
FMAT,2
INCH
; #@! TA.AperFunction,Plated,PTH,ViaDrill
T1C0.0118
; #@! TA.AperFunction,Plated,PTH,ComponentDrill
T2C0.0236
; #@! TA.AperFunction,Plated,PTH,ComponentDrill
T3C0.0256
; #@! TA.AperFunction,Plated,PTH,ComponentDrill
T4C0.0394
%
G90
G05
T1
X5.4626Y-3.9488
X5.4971Y-3.9232
X5.5098Y-4.8819
X5.5236Y-3.7933
X5.5492Y-4.8031
X5.814Y-4.878
X5.8395Y-4.9666
X6.098Y-4.65
X6.1043Y-4.874
X6.1703Y-4.1811
X6.2348Y-4.1811
T2
X5.3957Y-3.2004
X5.3957Y-3.2504
X5.3957Y-3.3004
X5.3957Y-3.3504
X5.3957Y-3.4004
X5.3957Y-3.4504
X5.3957Y-3.5004
X5.3957Y-3.5504
X5.3957Y-3.6004
X5.3957Y-3.6504
X5.3957Y-3.7004
X5.3957Y-3.7504
X5.3957Y-3.8004
X5.3957Y-3.8504
X5.5547Y-3.9902
X5.6047Y-3.9902
X5.6547Y-3.9902
X5.7047Y-3.9902
X5.7547Y-3.9902
X5.8047Y-3.9902
X5.8547Y-3.9902
X5.9047Y-3.9902
X5.9547Y-3.9902
X6.0047Y-3.9902
X6.0547Y-3.9902
X6.1047Y-3.9902
X6.2638Y-3.2004
X6.2638Y-3.2504
X6.2638Y-3.3004
X6.2638Y-3.3504
X6.2638Y-3.4004
X6.2638Y-3.4504
X6.2638Y-3.5004
X6.2638Y-3.5504
X6.2638Y-3.6004
X6.2638Y-3.6504
X6.2638Y-3.7004
X6.2638Y-3.7504
X6.2638Y-3.8004
X6.2638Y-3.8504
T4
X5.28Y-3.22
X5.28Y-3.32
X5.28Y-3.42
X5.28Y-3.52
X5.28Y-3.62
X5.28Y-3.72
X5.28Y-3.82
X5.28Y-3.92
X5.28Y-4.02
X5.28Y-4.12
X5.28Y-4.22
X5.28Y-4.32
X5.28Y-4.42
X5.28Y-4.52
X5.28Y-4.62
X5.28Y-4.72
X5.28Y-4.82
X5.28Y-4.92
X5.28Y-5.02
X5.28Y-5.12
X6.38Y-3.22
X6.38Y-3.32
X6.38Y-3.42
X6.38Y-3.52
X6.38Y-3.62
X6.38Y-3.72
X6.38Y-3.82
X6.38Y-3.92
X6.38Y-4.02
X6.38Y-4.12
X6.38Y-4.22
X6.38Y-4.32
X6.38Y-4.42
X6.38Y-4.52
X6.38Y-4.62
X6.38Y-4.72
X6.38Y-4.82
X6.38Y-4.92
X6.38Y-5.02
X6.38Y-5.12
T2
G00X5.6599Y-4.9272
M15
G01X5.6599Y-4.9705
M16
G05
G00X5.6599Y-5.0984
M15
G01X5.6599Y-5.1299
M16
G05
G00X6.0001Y-4.9272
M15
G01X6.0001Y-4.9705
M16
G05
G00X6.0001Y-5.0984
M15
G01X6.0001Y-5.1299
M16
G05
T3
G00X5.436Y-3.2004
M15
G01X5.4774Y-3.2004
M16
G05
G00X5.436Y-3.2504
M15
G01X5.4774Y-3.2504
M16
G05
G00X5.436Y-3.3004
M15
G01X5.4774Y-3.3004
M16
G05
G00X5.436Y-3.3504
M15
G01X5.4774Y-3.3504
M16
G05
G00X5.436Y-3.4004
M15
G01X5.4774Y-3.4004
M16
G05
G00X5.436Y-3.4504
M15
G01X5.4774Y-3.4504
M16
G05
G00X5.436Y-3.5004
M15
G01X5.4774Y-3.5004
M16
G05
G00X5.436Y-3.5504
M15
G01X5.4774Y-3.5504
M16
G05
G00X5.436Y-3.6004
M15
G01X5.4774Y-3.6004
M16
G05
G00X5.436Y-3.6504
M15
G01X5.4774Y-3.6504
M16
G05
G00X5.436Y-3.7004
M15
G01X5.4774Y-3.7004
M16
G05
G00X5.436Y-3.7504
M15
G01X5.4774Y-3.7504
M16
G05
G00X5.436Y-3.8004
M15
G01X5.4774Y-3.8004
M16
G05
G00X5.436Y-3.8504
M15
G01X5.4774Y-3.8504
M16
G05
G00X5.5547Y-3.9498
M15
G01X5.5547Y-3.9085
M16
G05
G00X5.6047Y-3.9498
M15
G01X5.6047Y-3.9085
M16
G05
G00X5.6547Y-3.9498
M15
G01X5.6547Y-3.9085
M16
G05
G00X5.7047Y-3.9498
M15
G01X5.7047Y-3.9085
M16
G05
G00X5.7547Y-3.9498
M15
G01X5.7547Y-3.9085
M16
G05
G00X5.8047Y-3.9498
M15
G01X5.8047Y-3.9085
M16
G05
G00X5.8547Y-3.9498
M15
G01X5.8547Y-3.9085
M16
G05
G00X5.9047Y-3.9498
M15
G01X5.9047Y-3.9085
M16
G05
G00X5.9547Y-3.9498
M15
G01X5.9547Y-3.9085
M16
G05
G00X6.0047Y-3.9498
M15
G01X6.0047Y-3.9085
M16
G05
G00X6.0547Y-3.9498
M15
G01X6.0547Y-3.9085
M16
G05
G00X6.1047Y-3.9498
M15
G01X6.1047Y-3.9085
M16
G05
G00X6.2234Y-3.2004
M15
G01X6.1821Y-3.2004
M16
G05
G00X6.2234Y-3.2504
M15
G01X6.1821Y-3.2504
M16
G05
G00X6.2234Y-3.3004
M15
G01X6.1821Y-3.3004
M16
G05
G00X6.2234Y-3.3504
M15
G01X6.1821Y-3.3504
M16
G05
G00X6.2234Y-3.4004
M15
G01X6.1821Y-3.4004
M16
G05
G00X6.2234Y-3.4504
M15
G01X6.1821Y-3.4504
M16
G05
G00X6.2234Y-3.5004
M15
G01X6.1821Y-3.5004
M16
G05
G00X6.2234Y-3.5504
M15
G01X6.1821Y-3.5504
M16
G05
G00X6.2234Y-3.6004
M15
G01X6.1821Y-3.6004
M16
G05
G00X6.2234Y-3.6504
M15
G01X6.1821Y-3.6504
M16
G05
G00X6.2234Y-3.7004
M15
G01X6.1821Y-3.7004
M16
G05
G00X6.2234Y-3.7504
M15
G01X6.1821Y-3.7504
M16
G05
G00X6.2234Y-3.8004
M15
G01X6.1821Y-3.8004
M16
G05
G00X6.2234Y-3.8504
M15
G01X6.1821Y-3.8504
M16
G05
M30
