G04 #@! TF.GenerationSoftware,KiCad,Pcbnew,8.0.5-8.0.5-0~ubuntu24.04.1*
G04 #@! TF.CreationDate,2024-09-24T16:48:19+02:00*
G04 #@! TF.ProjectId,ESP32-S2_S3-WROOM_flexypin,45535033-322d-4533-925f-53332d57524f,rev?*
G04 #@! TF.SameCoordinates,Original*
G04 #@! TF.FileFunction,Paste,Top*
G04 #@! TF.FilePolarity,Positive*
%FSLAX46Y46*%
G04 Gerber Fmt 4.6, Leading zero omitted, Abs format (unit mm)*
G04 Created by KiCad (PCBNEW 8.0.5-8.0.5-0~ubuntu24.04.1) date 2024-09-24 16:48:19*
%MOMM*%
%LPD*%
G01*
G04 APERTURE LIST*
%ADD10R,0.600000X1.240000*%
%ADD11R,0.300000X1.240000*%
G04 #@! TA.AperFunction,Profile*
%ADD12C,0.100000*%
G04 #@! TD*
G04 APERTURE END LIST*
G36*
G01*
X154140000Y-119070000D02*
X154140000Y-118730000D01*
G75*
G02*
X154280000Y-118590000I140000J0D01*
G01*
X154560000Y-118590000D01*
G75*
G02*
X154700000Y-118730000I0J-140000D01*
G01*
X154700000Y-119070000D01*
G75*
G02*
X154560000Y-119210000I-140000J0D01*
G01*
X154280000Y-119210000D01*
G75*
G02*
X154140000Y-119070000I0J140000D01*
G01*
G37*
G36*
G01*
X155100000Y-119070000D02*
X155100000Y-118730000D01*
G75*
G02*
X155240000Y-118590000I140000J0D01*
G01*
X155520000Y-118590000D01*
G75*
G02*
X155660000Y-118730000I0J-140000D01*
G01*
X155660000Y-119070000D01*
G75*
G02*
X155520000Y-119210000I-140000J0D01*
G01*
X155240000Y-119210000D01*
G75*
G02*
X155100000Y-119070000I0J140000D01*
G01*
G37*
G36*
G01*
X140765000Y-122720000D02*
X141135000Y-122720000D01*
G75*
G02*
X141270000Y-122855000I0J-135000D01*
G01*
X141270000Y-123125000D01*
G75*
G02*
X141135000Y-123260000I-135000J0D01*
G01*
X140765000Y-123260000D01*
G75*
G02*
X140630000Y-123125000I0J135000D01*
G01*
X140630000Y-122855000D01*
G75*
G02*
X140765000Y-122720000I135000J0D01*
G01*
G37*
G36*
G01*
X140765000Y-123740000D02*
X141135000Y-123740000D01*
G75*
G02*
X141270000Y-123875000I0J-135000D01*
G01*
X141270000Y-124145000D01*
G75*
G02*
X141135000Y-124280000I-135000J0D01*
G01*
X140765000Y-124280000D01*
G75*
G02*
X140630000Y-124145000I0J135000D01*
G01*
X140630000Y-123875000D01*
G75*
G02*
X140765000Y-123740000I135000J0D01*
G01*
G37*
G36*
G01*
X154350000Y-124700000D02*
X155950000Y-124700000D01*
G75*
G02*
X156150000Y-124900000I0J-200000D01*
G01*
X156150000Y-125300000D01*
G75*
G02*
X155950000Y-125500000I-200000J0D01*
G01*
X154350000Y-125500000D01*
G75*
G02*
X154150000Y-125300000I0J200000D01*
G01*
X154150000Y-124900000D01*
G75*
G02*
X154350000Y-124700000I200000J0D01*
G01*
G37*
G36*
G01*
X154350000Y-128900000D02*
X155950000Y-128900000D01*
G75*
G02*
X156150000Y-129100000I0J-200000D01*
G01*
X156150000Y-129500000D01*
G75*
G02*
X155950000Y-129700000I-200000J0D01*
G01*
X154350000Y-129700000D01*
G75*
G02*
X154150000Y-129500000I0J200000D01*
G01*
X154150000Y-129100000D01*
G75*
G02*
X154350000Y-128900000I200000J0D01*
G01*
G37*
G36*
G01*
X150887500Y-120100000D02*
X151112500Y-120100000D01*
G75*
G02*
X151225000Y-120212500I0J-112500D01*
G01*
X151225000Y-120587500D01*
G75*
G02*
X151112500Y-120700000I-112500J0D01*
G01*
X150887500Y-120700000D01*
G75*
G02*
X150775000Y-120587500I0J112500D01*
G01*
X150775000Y-120212500D01*
G75*
G02*
X150887500Y-120100000I112500J0D01*
G01*
G37*
G36*
G01*
X150887500Y-122200000D02*
X151112500Y-122200000D01*
G75*
G02*
X151225000Y-122312500I0J-112500D01*
G01*
X151225000Y-122687500D01*
G75*
G02*
X151112500Y-122800000I-112500J0D01*
G01*
X150887500Y-122800000D01*
G75*
G02*
X150775000Y-122687500I0J112500D01*
G01*
X150775000Y-122312500D01*
G75*
G02*
X150887500Y-122200000I112500J0D01*
G01*
G37*
G36*
G01*
X146290000Y-123115000D02*
X146290000Y-123485000D01*
G75*
G02*
X146155000Y-123620000I-135000J0D01*
G01*
X145885000Y-123620000D01*
G75*
G02*
X145750000Y-123485000I0J135000D01*
G01*
X145750000Y-123115000D01*
G75*
G02*
X145885000Y-122980000I135000J0D01*
G01*
X146155000Y-122980000D01*
G75*
G02*
X146290000Y-123115000I0J-135000D01*
G01*
G37*
G36*
G01*
X145270000Y-123115000D02*
X145270000Y-123485000D01*
G75*
G02*
X145135000Y-123620000I-135000J0D01*
G01*
X144865000Y-123620000D01*
G75*
G02*
X144730000Y-123485000I0J135000D01*
G01*
X144730000Y-123115000D01*
G75*
G02*
X144865000Y-122980000I135000J0D01*
G01*
X145135000Y-122980000D01*
G75*
G02*
X145270000Y-123115000I0J-135000D01*
G01*
G37*
D10*
X144882000Y-125100000D03*
X145682000Y-125100000D03*
D11*
X146832000Y-125100000D03*
X147832000Y-125100000D03*
X148332000Y-125100000D03*
X149332000Y-125100000D03*
D10*
X150482000Y-125100000D03*
X151282000Y-125100000D03*
X151282000Y-125100000D03*
X150482000Y-125100000D03*
D11*
X149832000Y-125100000D03*
X148832000Y-125100000D03*
X147332000Y-125100000D03*
X146332000Y-125100000D03*
D10*
X145682000Y-125100000D03*
X144882000Y-125100000D03*
G36*
G01*
X149685000Y-123580000D02*
X149315000Y-123580000D01*
G75*
G02*
X149180000Y-123445000I0J135000D01*
G01*
X149180000Y-123175000D01*
G75*
G02*
X149315000Y-123040000I135000J0D01*
G01*
X149685000Y-123040000D01*
G75*
G02*
X149820000Y-123175000I0J-135000D01*
G01*
X149820000Y-123445000D01*
G75*
G02*
X149685000Y-123580000I-135000J0D01*
G01*
G37*
G36*
G01*
X149685000Y-122560000D02*
X149315000Y-122560000D01*
G75*
G02*
X149180000Y-122425000I0J135000D01*
G01*
X149180000Y-122155000D01*
G75*
G02*
X149315000Y-122020000I135000J0D01*
G01*
X149685000Y-122020000D01*
G75*
G02*
X149820000Y-122155000I0J-135000D01*
G01*
X149820000Y-122425000D01*
G75*
G02*
X149685000Y-122560000I-135000J0D01*
G01*
G37*
G36*
G01*
X142922500Y-119780000D02*
X142577500Y-119780000D01*
G75*
G02*
X142430000Y-119632500I0J147500D01*
G01*
X142430000Y-119337500D01*
G75*
G02*
X142577500Y-119190000I147500J0D01*
G01*
X142922500Y-119190000D01*
G75*
G02*
X143070000Y-119337500I0J-147500D01*
G01*
X143070000Y-119632500D01*
G75*
G02*
X142922500Y-119780000I-147500J0D01*
G01*
G37*
G36*
G01*
X142922500Y-118810000D02*
X142577500Y-118810000D01*
G75*
G02*
X142430000Y-118662500I0J147500D01*
G01*
X142430000Y-118367500D01*
G75*
G02*
X142577500Y-118220000I147500J0D01*
G01*
X142922500Y-118220000D01*
G75*
G02*
X143070000Y-118367500I0J-147500D01*
G01*
X143070000Y-118662500D01*
G75*
G02*
X142922500Y-118810000I-147500J0D01*
G01*
G37*
G36*
G01*
X140150000Y-124700000D02*
X141750000Y-124700000D01*
G75*
G02*
X141950000Y-124900000I0J-200000D01*
G01*
X141950000Y-125300000D01*
G75*
G02*
X141750000Y-125500000I-200000J0D01*
G01*
X140150000Y-125500000D01*
G75*
G02*
X139950000Y-125300000I0J200000D01*
G01*
X139950000Y-124900000D01*
G75*
G02*
X140150000Y-124700000I200000J0D01*
G01*
G37*
G36*
G01*
X140150000Y-128900000D02*
X141750000Y-128900000D01*
G75*
G02*
X141950000Y-129100000I0J-200000D01*
G01*
X141950000Y-129500000D01*
G75*
G02*
X141750000Y-129700000I-200000J0D01*
G01*
X140150000Y-129700000D01*
G75*
G02*
X139950000Y-129500000I0J200000D01*
G01*
X139950000Y-129100000D01*
G75*
G02*
X140150000Y-128900000I200000J0D01*
G01*
G37*
G36*
G01*
X152200000Y-120650000D02*
X152200000Y-120350000D01*
G75*
G02*
X152350000Y-120200000I150000J0D01*
G01*
X153375000Y-120200000D01*
G75*
G02*
X153525000Y-120350000I0J-150000D01*
G01*
X153525000Y-120650000D01*
G75*
G02*
X153375000Y-120800000I-150000J0D01*
G01*
X152350000Y-120800000D01*
G75*
G02*
X152200000Y-120650000I0J150000D01*
G01*
G37*
G36*
G01*
X152200000Y-121600000D02*
X152200000Y-121300000D01*
G75*
G02*
X152350000Y-121150000I150000J0D01*
G01*
X153375000Y-121150000D01*
G75*
G02*
X153525000Y-121300000I0J-150000D01*
G01*
X153525000Y-121600000D01*
G75*
G02*
X153375000Y-121750000I-150000J0D01*
G01*
X152350000Y-121750000D01*
G75*
G02*
X152200000Y-121600000I0J150000D01*
G01*
G37*
G36*
G01*
X152200000Y-122550000D02*
X152200000Y-122250000D01*
G75*
G02*
X152350000Y-122100000I150000J0D01*
G01*
X153375000Y-122100000D01*
G75*
G02*
X153525000Y-122250000I0J-150000D01*
G01*
X153525000Y-122550000D01*
G75*
G02*
X153375000Y-122700000I-150000J0D01*
G01*
X152350000Y-122700000D01*
G75*
G02*
X152200000Y-122550000I0J150000D01*
G01*
G37*
G36*
G01*
X154475000Y-122550000D02*
X154475000Y-122250000D01*
G75*
G02*
X154625000Y-122100000I150000J0D01*
G01*
X155650000Y-122100000D01*
G75*
G02*
X155800000Y-122250000I0J-150000D01*
G01*
X155800000Y-122550000D01*
G75*
G02*
X155650000Y-122700000I-150000J0D01*
G01*
X154625000Y-122700000D01*
G75*
G02*
X154475000Y-122550000I0J150000D01*
G01*
G37*
G36*
G01*
X154475000Y-120650000D02*
X154475000Y-120350000D01*
G75*
G02*
X154625000Y-120200000I150000J0D01*
G01*
X155650000Y-120200000D01*
G75*
G02*
X155800000Y-120350000I0J-150000D01*
G01*
X155800000Y-120650000D01*
G75*
G02*
X155650000Y-120800000I-150000J0D01*
G01*
X154625000Y-120800000D01*
G75*
G02*
X154475000Y-120650000I0J150000D01*
G01*
G37*
G36*
G01*
X153760000Y-118730000D02*
X153760000Y-119070000D01*
G75*
G02*
X153620000Y-119210000I-140000J0D01*
G01*
X153340000Y-119210000D01*
G75*
G02*
X153200000Y-119070000I0J140000D01*
G01*
X153200000Y-118730000D01*
G75*
G02*
X153340000Y-118590000I140000J0D01*
G01*
X153620000Y-118590000D01*
G75*
G02*
X153760000Y-118730000I0J-140000D01*
G01*
G37*
G36*
G01*
X152800000Y-118730000D02*
X152800000Y-119070000D01*
G75*
G02*
X152660000Y-119210000I-140000J0D01*
G01*
X152380000Y-119210000D01*
G75*
G02*
X152240000Y-119070000I0J140000D01*
G01*
X152240000Y-118730000D01*
G75*
G02*
X152380000Y-118590000I140000J0D01*
G01*
X152660000Y-118590000D01*
G75*
G02*
X152800000Y-118730000I0J-140000D01*
G01*
G37*
G36*
G01*
X141315000Y-118220000D02*
X141685000Y-118220000D01*
G75*
G02*
X141820000Y-118355000I0J-135000D01*
G01*
X141820000Y-118625000D01*
G75*
G02*
X141685000Y-118760000I-135000J0D01*
G01*
X141315000Y-118760000D01*
G75*
G02*
X141180000Y-118625000I0J135000D01*
G01*
X141180000Y-118355000D01*
G75*
G02*
X141315000Y-118220000I135000J0D01*
G01*
G37*
G36*
G01*
X141315000Y-119240000D02*
X141685000Y-119240000D01*
G75*
G02*
X141820000Y-119375000I0J-135000D01*
G01*
X141820000Y-119645000D01*
G75*
G02*
X141685000Y-119780000I-135000J0D01*
G01*
X141315000Y-119780000D01*
G75*
G02*
X141180000Y-119645000I0J135000D01*
G01*
X141180000Y-119375000D01*
G75*
G02*
X141315000Y-119240000I135000J0D01*
G01*
G37*
D12*
X132588000Y-80100000D02*
X163576000Y-80100000D01*
X163576000Y-131580000D02*
X132588000Y-131580000D01*
X163576000Y-80100000D02*
X163576000Y-131580000D01*
X132588000Y-131580000D02*
X132588000Y-80100000D01*
M02*
