G04 #@! TF.GenerationSoftware,KiCad,Pcbnew,8.0.5-8.0.5-0~ubuntu24.04.1*
G04 #@! TF.CreationDate,2024-09-24T16:48:19+02:00*
G04 #@! TF.ProjectId,ESP32-S2_S3-WROOM_flexypin,45535033-322d-4533-925f-53332d57524f,rev?*
G04 #@! TF.SameCoordinates,Original*
G04 #@! TF.FileFunction,Soldermask,Top*
G04 #@! TF.FilePolarity,Negative*
%FSLAX46Y46*%
G04 Gerber Fmt 4.6, Leading zero omitted, Abs format (unit mm)*
G04 Created by KiCad (PCBNEW 8.0.5-8.0.5-0~ubuntu24.04.1) date 2024-09-24 16:48:19*
%MOMM*%
%LPD*%
G01*
G04 APERTURE LIST*
%ADD10C,0.000000*%
%ADD11R,1.700000X1.700000*%
%ADD12O,1.700000X1.700000*%
%ADD13O,0.950000X2.000000*%
%ADD14R,0.900000X1.300000*%
%ADD15O,2.000000X0.950000*%
%ADD16R,1.300000X0.900000*%
%ADD17C,0.650000*%
%ADD18R,0.600000X1.240000*%
%ADD19R,0.300000X1.240000*%
%ADD20O,1.000000X2.100000*%
%ADD21O,1.000000X1.800000*%
G04 #@! TA.AperFunction,Profile*
%ADD22C,0.100000*%
G04 #@! TD*
G04 APERTURE END LIST*
D10*
G36*
X148109695Y-128266577D02*
G01*
X148133861Y-128269360D01*
X148146028Y-128271165D01*
X148158235Y-128273275D01*
X148170467Y-128275714D01*
X148182713Y-128278502D01*
X148194959Y-128281663D01*
X148207193Y-128285219D01*
X148219402Y-128289192D01*
X148231572Y-128293604D01*
X148243690Y-128298478D01*
X148255745Y-128303837D01*
X148267722Y-128309701D01*
X148279609Y-128316094D01*
X148287986Y-128320990D01*
X148296255Y-128326186D01*
X148304411Y-128331680D01*
X148312451Y-128337469D01*
X148320367Y-128343550D01*
X148328157Y-128349921D01*
X148335813Y-128356580D01*
X148343332Y-128363523D01*
X148350708Y-128370747D01*
X148357937Y-128378252D01*
X148365012Y-128386033D01*
X148371930Y-128394089D01*
X148378684Y-128402416D01*
X148385271Y-128411013D01*
X148391684Y-128419876D01*
X148397919Y-128429003D01*
X148425640Y-128424369D01*
X148453284Y-128421451D01*
X148480772Y-128420227D01*
X148508023Y-128420675D01*
X148534957Y-128422771D01*
X148561494Y-128426494D01*
X148587552Y-128431821D01*
X148613052Y-128438730D01*
X148637913Y-128447198D01*
X148662056Y-128457203D01*
X148685398Y-128468723D01*
X148707861Y-128481734D01*
X148729364Y-128496215D01*
X148749826Y-128512143D01*
X148769167Y-128529496D01*
X148787306Y-128548251D01*
X148802972Y-128567033D01*
X148817185Y-128586953D01*
X148829910Y-128607947D01*
X148841112Y-128629949D01*
X148850757Y-128652895D01*
X148858808Y-128676721D01*
X148865232Y-128701362D01*
X148869993Y-128726754D01*
X148873057Y-128752832D01*
X148874387Y-128779532D01*
X148873951Y-128806789D01*
X148871711Y-128834539D01*
X148867634Y-128862717D01*
X148861684Y-128891258D01*
X148853827Y-128920099D01*
X148844027Y-128949175D01*
X148915159Y-128960583D01*
X148984012Y-128973361D01*
X149017477Y-128980389D01*
X149050243Y-128987909D01*
X149082266Y-128995971D01*
X149113504Y-129004626D01*
X149143913Y-129013922D01*
X149173450Y-129023910D01*
X149202072Y-129034639D01*
X149229736Y-129046160D01*
X149256398Y-129058523D01*
X149282015Y-129071776D01*
X149306545Y-129085971D01*
X149329943Y-129101156D01*
X149343412Y-129110850D01*
X149356457Y-129121120D01*
X149369033Y-129131954D01*
X149381093Y-129143339D01*
X149392589Y-129155262D01*
X149403475Y-129167711D01*
X149413704Y-129180673D01*
X149423230Y-129194134D01*
X149432006Y-129208083D01*
X149439985Y-129222505D01*
X149447121Y-129237389D01*
X149453366Y-129252721D01*
X149458675Y-129268488D01*
X149463000Y-129284679D01*
X149466294Y-129301280D01*
X149468512Y-129318277D01*
X149469668Y-129335514D01*
X149469818Y-129352846D01*
X149468976Y-129370279D01*
X149467153Y-129387820D01*
X149464364Y-129405475D01*
X149460620Y-129423250D01*
X149455936Y-129441153D01*
X149450324Y-129459190D01*
X149443797Y-129477367D01*
X149436368Y-129495691D01*
X149428050Y-129514168D01*
X149418856Y-129532805D01*
X149408799Y-129551608D01*
X149397892Y-129570584D01*
X149386148Y-129589740D01*
X149373580Y-129609082D01*
X149372920Y-129610057D01*
X149372246Y-129611023D01*
X149371559Y-129611979D01*
X149370858Y-129612926D01*
X149370145Y-129613862D01*
X149369418Y-129614789D01*
X149368678Y-129615706D01*
X149367926Y-129616612D01*
X149346979Y-129640552D01*
X149325761Y-129663000D01*
X149304291Y-129683966D01*
X149282591Y-129703460D01*
X149260682Y-129721495D01*
X149238584Y-129738081D01*
X149216317Y-129753228D01*
X149193903Y-129766948D01*
X149171362Y-129779252D01*
X149148714Y-129790150D01*
X149125981Y-129799653D01*
X149103183Y-129807773D01*
X149080341Y-129814520D01*
X149057475Y-129819905D01*
X149034606Y-129823939D01*
X149011755Y-129826633D01*
X148989041Y-129828031D01*
X148966578Y-129828205D01*
X148944376Y-129827211D01*
X148922444Y-129825105D01*
X148900794Y-129821941D01*
X148879434Y-129817775D01*
X148858375Y-129812663D01*
X148837627Y-129806659D01*
X148817201Y-129799819D01*
X148797106Y-129792198D01*
X148777352Y-129783851D01*
X148757950Y-129774835D01*
X148738909Y-129765203D01*
X148720240Y-129755012D01*
X148701953Y-129744317D01*
X148684058Y-129733172D01*
X148675828Y-129727814D01*
X148667668Y-129722349D01*
X148659575Y-129716785D01*
X148651547Y-129711130D01*
X148643581Y-129705392D01*
X148635676Y-129699579D01*
X148620035Y-129687760D01*
X148627333Y-129721203D01*
X148633222Y-129753815D01*
X148637716Y-129785590D01*
X148640832Y-129816519D01*
X148642585Y-129846593D01*
X148642989Y-129875804D01*
X148642061Y-129904145D01*
X148639816Y-129931606D01*
X148636268Y-129958180D01*
X148631434Y-129983858D01*
X148625329Y-130008632D01*
X148617968Y-130032494D01*
X148609366Y-130055436D01*
X148599539Y-130077449D01*
X148588503Y-130098524D01*
X148576271Y-130118655D01*
X148564897Y-130134976D01*
X148552682Y-130150401D01*
X148539677Y-130164914D01*
X148525930Y-130178502D01*
X148511492Y-130191151D01*
X148496412Y-130202846D01*
X148480738Y-130213574D01*
X148464521Y-130223321D01*
X148447810Y-130232072D01*
X148430653Y-130239813D01*
X148413102Y-130246531D01*
X148395204Y-130252211D01*
X148377010Y-130256839D01*
X148358569Y-130260401D01*
X148339930Y-130262884D01*
X148321142Y-130264272D01*
X148305932Y-130264604D01*
X148290693Y-130264258D01*
X148275438Y-130263242D01*
X148260179Y-130261566D01*
X148244928Y-130259238D01*
X148229697Y-130256268D01*
X148214498Y-130252665D01*
X148199343Y-130248437D01*
X148184243Y-130243594D01*
X148169212Y-130238145D01*
X148154261Y-130232098D01*
X148139402Y-130225464D01*
X148124647Y-130218250D01*
X148110007Y-130210467D01*
X148095496Y-130202122D01*
X148081125Y-130193225D01*
X148066765Y-130202120D01*
X148052265Y-130210464D01*
X148037637Y-130218247D01*
X148022894Y-130225460D01*
X148008048Y-130232094D01*
X147993110Y-130238141D01*
X147978093Y-130243591D01*
X147963008Y-130248434D01*
X147947867Y-130252663D01*
X147932683Y-130256267D01*
X147917468Y-130259238D01*
X147902233Y-130261566D01*
X147886990Y-130263243D01*
X147871752Y-130264259D01*
X147856530Y-130264605D01*
X147841337Y-130264272D01*
X147822570Y-130262882D01*
X147803953Y-130260394D01*
X147785534Y-130256825D01*
X147767364Y-130252188D01*
X147749491Y-130246497D01*
X147731965Y-130239767D01*
X147714837Y-130232013D01*
X147698155Y-130223248D01*
X147681968Y-130213487D01*
X147666328Y-130202744D01*
X147651282Y-130191034D01*
X147636881Y-130178372D01*
X147623175Y-130164770D01*
X147610212Y-130150244D01*
X147598042Y-130134809D01*
X147586715Y-130118477D01*
X147574548Y-130098349D01*
X147563574Y-130077279D01*
X147553808Y-130055275D01*
X147545266Y-130032346D01*
X147537962Y-130008498D01*
X147531911Y-129983742D01*
X147527129Y-129958084D01*
X147523632Y-129931533D01*
X147521433Y-129904096D01*
X147520548Y-129875783D01*
X147520554Y-129875449D01*
X147691765Y-129875449D01*
X147692156Y-129892037D01*
X147693121Y-129907904D01*
X147696662Y-129937465D01*
X147702167Y-129964123D01*
X147705587Y-129976361D01*
X147709417Y-129987869D01*
X147713628Y-129998647D01*
X147718193Y-130008694D01*
X147723085Y-130018008D01*
X147728276Y-130026588D01*
X147734005Y-130034945D01*
X147739957Y-130042715D01*
X147746138Y-130049907D01*
X147752549Y-130056533D01*
X147759195Y-130062602D01*
X147766080Y-130068125D01*
X147773206Y-130073113D01*
X147780579Y-130077577D01*
X147788201Y-130081526D01*
X147796075Y-130084972D01*
X147804207Y-130087924D01*
X147812599Y-130090394D01*
X147821254Y-130092392D01*
X147830178Y-130093928D01*
X147839372Y-130095013D01*
X147848842Y-130095657D01*
X147858598Y-130095819D01*
X147868637Y-130095440D01*
X147878936Y-130094507D01*
X147889476Y-130093005D01*
X147900235Y-130090919D01*
X147911192Y-130088236D01*
X147922326Y-130084941D01*
X147933617Y-130081019D01*
X147945042Y-130076458D01*
X147956582Y-130071241D01*
X147968215Y-130065356D01*
X147979920Y-130058788D01*
X147991676Y-130051522D01*
X148003462Y-130043544D01*
X148015258Y-130034840D01*
X148027042Y-130025396D01*
X148029924Y-130024060D01*
X148032851Y-130022836D01*
X148035820Y-130021722D01*
X148038827Y-130020722D01*
X148041870Y-130019835D01*
X148044946Y-130019062D01*
X148048050Y-130018406D01*
X148051180Y-130017866D01*
X148052934Y-130016957D01*
X148054707Y-130016090D01*
X148056498Y-130015265D01*
X148058307Y-130014483D01*
X148060132Y-130013744D01*
X148061974Y-130013048D01*
X148063831Y-130012395D01*
X148065702Y-130011786D01*
X148067587Y-130011220D01*
X148069485Y-130010699D01*
X148071395Y-130010222D01*
X148073316Y-130009789D01*
X148075248Y-130009402D01*
X148077190Y-130009059D01*
X148079141Y-130008761D01*
X148081100Y-130008509D01*
X148083061Y-130008761D01*
X148085013Y-130009058D01*
X148086957Y-130009400D01*
X148088890Y-130009788D01*
X148090813Y-130010220D01*
X148092725Y-130010697D01*
X148094625Y-130011218D01*
X148096511Y-130011784D01*
X148098384Y-130012393D01*
X148100242Y-130013046D01*
X148102085Y-130013742D01*
X148103912Y-130014481D01*
X148105723Y-130015264D01*
X148107515Y-130016089D01*
X148109290Y-130016956D01*
X148111045Y-130017866D01*
X148114175Y-130018406D01*
X148117280Y-130019062D01*
X148120355Y-130019835D01*
X148123398Y-130020722D01*
X148126406Y-130021722D01*
X148129375Y-130022836D01*
X148132302Y-130024060D01*
X148135184Y-130025396D01*
X148146962Y-130034836D01*
X148158756Y-130043537D01*
X148170544Y-130051512D01*
X148182304Y-130058777D01*
X148194016Y-130065346D01*
X148205659Y-130071231D01*
X148217211Y-130076449D01*
X148228653Y-130081012D01*
X148239962Y-130084934D01*
X148251118Y-130088231D01*
X148262100Y-130090916D01*
X148272887Y-130093003D01*
X148283457Y-130094507D01*
X148293791Y-130095441D01*
X148303866Y-130095819D01*
X148313662Y-130095657D01*
X148323174Y-130095011D01*
X148332413Y-130093922D01*
X148341382Y-130092380D01*
X148350084Y-130090375D01*
X148358524Y-130087896D01*
X148366703Y-130084934D01*
X148370696Y-130083268D01*
X148374626Y-130081477D01*
X148378492Y-130079560D01*
X148382295Y-130077516D01*
X148386036Y-130075344D01*
X148389715Y-130073041D01*
X148393332Y-130070607D01*
X148396888Y-130068040D01*
X148400384Y-130065340D01*
X148403818Y-130062504D01*
X148407193Y-130059532D01*
X148410509Y-130056423D01*
X148413765Y-130053174D01*
X148416963Y-130049786D01*
X148423183Y-130042582D01*
X148429174Y-130034802D01*
X148434938Y-130026435D01*
X148439095Y-130019711D01*
X148443077Y-130012535D01*
X148446870Y-130004907D01*
X148450461Y-129996826D01*
X148453835Y-129988294D01*
X148456978Y-129979311D01*
X148459877Y-129969877D01*
X148462516Y-129959991D01*
X148464884Y-129949656D01*
X148466964Y-129938870D01*
X148468744Y-129927634D01*
X148470209Y-129915949D01*
X148471346Y-129903814D01*
X148472139Y-129891231D01*
X148472576Y-129878198D01*
X148472642Y-129864717D01*
X148471965Y-129843199D01*
X148470285Y-129820600D01*
X148467559Y-129796926D01*
X148463744Y-129772182D01*
X148458797Y-129746373D01*
X148452675Y-129719505D01*
X148445335Y-129691584D01*
X148436735Y-129662613D01*
X148426830Y-129632599D01*
X148415579Y-129601548D01*
X148402939Y-129569463D01*
X148388866Y-129536351D01*
X148373317Y-129502217D01*
X148356250Y-129467066D01*
X148337622Y-129430904D01*
X148317390Y-129393735D01*
X148290204Y-129400066D01*
X148262547Y-129405966D01*
X148234341Y-129411314D01*
X148205508Y-129415990D01*
X148175969Y-129419870D01*
X148145647Y-129422835D01*
X148114463Y-129424763D01*
X148082341Y-129425531D01*
X148081960Y-129425480D01*
X148081771Y-129425506D01*
X148081582Y-129425532D01*
X148065401Y-129425300D01*
X148049465Y-129424763D01*
X148018288Y-129422835D01*
X147987973Y-129419869D01*
X147958442Y-129415988D01*
X147929616Y-129411312D01*
X147901416Y-129405964D01*
X147873766Y-129400064D01*
X147846585Y-129393735D01*
X147829750Y-129424532D01*
X147814036Y-129454628D01*
X147799416Y-129484024D01*
X147785864Y-129512719D01*
X147773351Y-129540710D01*
X147761850Y-129567997D01*
X147751334Y-129594579D01*
X147741776Y-129620455D01*
X147733147Y-129645623D01*
X147725421Y-129670082D01*
X147718570Y-129693832D01*
X147712567Y-129716870D01*
X147707384Y-129739197D01*
X147702993Y-129760810D01*
X147699369Y-129781709D01*
X147696482Y-129801893D01*
X147694305Y-129821359D01*
X147692812Y-129840108D01*
X147691974Y-129858139D01*
X147691765Y-129875449D01*
X147520554Y-129875449D01*
X147520993Y-129846600D01*
X147522782Y-129816557D01*
X147525931Y-129785661D01*
X147530455Y-129753920D01*
X147536368Y-129721343D01*
X147543687Y-129687938D01*
X147528110Y-129699707D01*
X147520239Y-129705498D01*
X147512310Y-129711214D01*
X147504319Y-129716848D01*
X147496263Y-129722391D01*
X147488138Y-129727835D01*
X147479942Y-129733172D01*
X147462047Y-129744316D01*
X147443760Y-129755012D01*
X147425091Y-129765203D01*
X147406051Y-129774834D01*
X147386649Y-129783851D01*
X147366895Y-129792198D01*
X147346800Y-129799818D01*
X147326373Y-129806659D01*
X147305626Y-129812663D01*
X147284567Y-129817775D01*
X147263207Y-129821941D01*
X147241556Y-129825105D01*
X147219624Y-129827211D01*
X147197422Y-129828205D01*
X147174959Y-129828031D01*
X147152245Y-129826633D01*
X147129394Y-129823939D01*
X147106526Y-129819905D01*
X147083660Y-129814520D01*
X147060817Y-129807773D01*
X147038019Y-129799653D01*
X147015286Y-129790150D01*
X146992639Y-129779251D01*
X146970098Y-129766948D01*
X146947684Y-129753228D01*
X146925417Y-129738080D01*
X146903319Y-129721495D01*
X146881409Y-129703460D01*
X146859709Y-129683965D01*
X146838240Y-129663000D01*
X146817021Y-129640552D01*
X146796074Y-129616612D01*
X146795322Y-129615706D01*
X146794582Y-129614789D01*
X146793856Y-129613862D01*
X146793142Y-129612926D01*
X146792442Y-129611979D01*
X146791755Y-129611023D01*
X146791081Y-129610057D01*
X146790420Y-129609081D01*
X146777852Y-129589740D01*
X146766108Y-129570584D01*
X146755201Y-129551608D01*
X146745144Y-129532804D01*
X146735951Y-129514167D01*
X146727633Y-129495690D01*
X146720204Y-129477366D01*
X146713676Y-129459189D01*
X146708064Y-129441153D01*
X146703380Y-129423250D01*
X146699637Y-129405474D01*
X146696847Y-129387819D01*
X146695025Y-129370279D01*
X146694182Y-129352846D01*
X146694280Y-129341512D01*
X146863031Y-129341512D01*
X146863037Y-129349022D01*
X146863521Y-129357062D01*
X146864514Y-129365636D01*
X146866051Y-129374745D01*
X146868164Y-129384393D01*
X146870886Y-129394581D01*
X146874249Y-129405313D01*
X146878288Y-129416591D01*
X146883033Y-129428417D01*
X146888519Y-129440793D01*
X146894778Y-129453724D01*
X146901843Y-129467210D01*
X146909747Y-129481255D01*
X146918523Y-129495861D01*
X146928203Y-129511031D01*
X146944820Y-129529872D01*
X146961181Y-129547168D01*
X146977291Y-129562977D01*
X146993158Y-129577353D01*
X147008789Y-129590354D01*
X147024192Y-129602034D01*
X147039373Y-129612449D01*
X147054338Y-129621656D01*
X147069097Y-129629711D01*
X147083654Y-129636670D01*
X147098018Y-129642587D01*
X147112195Y-129647520D01*
X147126193Y-129651525D01*
X147140018Y-129654656D01*
X147153678Y-129656971D01*
X147167180Y-129658525D01*
X147180787Y-129659354D01*
X147194440Y-129659440D01*
X147208137Y-129658797D01*
X147221874Y-129657442D01*
X147235648Y-129655389D01*
X147249457Y-129652653D01*
X147263298Y-129649250D01*
X147277168Y-129645196D01*
X147291063Y-129640505D01*
X147304982Y-129635193D01*
X147318920Y-129629275D01*
X147332876Y-129622766D01*
X147346846Y-129615682D01*
X147360828Y-129608037D01*
X147374818Y-129599848D01*
X147388814Y-129591130D01*
X147409619Y-129577238D01*
X147429948Y-129562614D01*
X147449805Y-129547335D01*
X147469196Y-129531480D01*
X147488127Y-129515125D01*
X147506603Y-129498350D01*
X147524631Y-129481232D01*
X147542215Y-129463848D01*
X147576075Y-129428598D01*
X147608230Y-129393223D01*
X147638723Y-129358346D01*
X147667600Y-129324591D01*
X147667554Y-129324565D01*
X148496375Y-129324565D01*
X148525254Y-129358322D01*
X148555749Y-129393202D01*
X148587906Y-129428580D01*
X148621769Y-129463834D01*
X148639355Y-129481219D01*
X148657384Y-129498340D01*
X148675863Y-129515117D01*
X148694796Y-129531473D01*
X148714189Y-129547331D01*
X148734048Y-129562611D01*
X148754379Y-129577237D01*
X148775186Y-129591130D01*
X148789182Y-129599848D01*
X148803172Y-129608037D01*
X148817154Y-129615682D01*
X148831124Y-129622766D01*
X148845080Y-129629275D01*
X148859019Y-129635193D01*
X148872937Y-129640505D01*
X148886833Y-129645196D01*
X148900702Y-129649251D01*
X148914543Y-129652653D01*
X148928352Y-129655389D01*
X148942127Y-129657442D01*
X148955863Y-129658797D01*
X148969560Y-129659440D01*
X148983213Y-129659354D01*
X148996820Y-129658525D01*
X149010322Y-129656971D01*
X149023982Y-129654656D01*
X149037807Y-129651525D01*
X149051805Y-129647521D01*
X149065982Y-129642587D01*
X149080346Y-129636670D01*
X149094903Y-129629711D01*
X149109662Y-129621657D01*
X149124627Y-129612449D01*
X149139808Y-129602034D01*
X149155211Y-129590354D01*
X149170842Y-129577354D01*
X149186709Y-129562977D01*
X149202819Y-129547168D01*
X149219180Y-129529872D01*
X149235797Y-129511031D01*
X149245477Y-129495861D01*
X149254253Y-129481255D01*
X149262157Y-129467210D01*
X149269222Y-129453724D01*
X149275481Y-129440794D01*
X149280967Y-129428417D01*
X149285713Y-129416591D01*
X149289751Y-129405313D01*
X149293115Y-129394582D01*
X149295836Y-129384393D01*
X149297949Y-129374746D01*
X149299486Y-129365636D01*
X149300480Y-129357063D01*
X149300963Y-129349022D01*
X149300969Y-129341512D01*
X149300531Y-129334530D01*
X149299709Y-129327802D01*
X149298555Y-129321292D01*
X149297044Y-129314977D01*
X149295152Y-129308835D01*
X149292858Y-129302842D01*
X149290136Y-129296975D01*
X149286964Y-129291212D01*
X149283319Y-129285530D01*
X149279177Y-129279905D01*
X149274514Y-129274314D01*
X149269308Y-129268735D01*
X149263534Y-129263144D01*
X149257170Y-129257519D01*
X149250192Y-129251837D01*
X149242577Y-129246074D01*
X149234301Y-129240207D01*
X149217212Y-129229389D01*
X149197952Y-129218911D01*
X149176622Y-129208771D01*
X149153321Y-129198968D01*
X149128147Y-129189502D01*
X149101199Y-129180372D01*
X149042381Y-129163114D01*
X148977658Y-129147187D01*
X148907824Y-129132583D01*
X148833671Y-129119296D01*
X148755992Y-129107318D01*
X148741507Y-129125678D01*
X148726703Y-129143291D01*
X148711598Y-129160181D01*
X148696211Y-129176369D01*
X148680561Y-129191881D01*
X148664666Y-129206740D01*
X148648546Y-129220968D01*
X148632218Y-129234591D01*
X148615702Y-129247630D01*
X148599015Y-129260111D01*
X148582178Y-129272055D01*
X148565208Y-129283488D01*
X148548124Y-129294431D01*
X148530945Y-129304910D01*
X148513689Y-129314947D01*
X148496375Y-129324565D01*
X147667554Y-129324565D01*
X147650284Y-129314972D01*
X147633025Y-129304935D01*
X147615841Y-129294457D01*
X147598753Y-129283514D01*
X147581777Y-129272083D01*
X147564934Y-129260139D01*
X147548242Y-129247659D01*
X147531720Y-129234620D01*
X147515386Y-129220998D01*
X147499260Y-129206770D01*
X147483359Y-129191911D01*
X147467704Y-129176399D01*
X147452312Y-129160210D01*
X147437203Y-129143320D01*
X147422395Y-129125705D01*
X147407907Y-129107343D01*
X147330245Y-129119321D01*
X147256108Y-129132606D01*
X147220609Y-129139741D01*
X147186289Y-129147206D01*
X147153246Y-129155002D01*
X147121580Y-129163130D01*
X147091390Y-129171590D01*
X147062775Y-129180384D01*
X147035833Y-129189512D01*
X147010664Y-129198976D01*
X146987367Y-129208777D01*
X146966042Y-129218915D01*
X146946786Y-129229391D01*
X146929699Y-129240207D01*
X146921423Y-129246073D01*
X146913808Y-129251836D01*
X146906830Y-129257519D01*
X146900466Y-129263144D01*
X146894693Y-129268735D01*
X146889486Y-129274314D01*
X146884824Y-129279904D01*
X146880681Y-129285529D01*
X146877036Y-129291212D01*
X146873864Y-129296975D01*
X146871143Y-129302841D01*
X146868848Y-129308834D01*
X146866957Y-129314977D01*
X146865446Y-129321291D01*
X146864291Y-129327801D01*
X146863470Y-129334530D01*
X146863031Y-129341512D01*
X146694280Y-129341512D01*
X146694332Y-129335514D01*
X146695488Y-129318277D01*
X146696460Y-129309730D01*
X146697706Y-129301280D01*
X146699221Y-129292929D01*
X146701000Y-129284679D01*
X146703037Y-129276532D01*
X146705325Y-129268489D01*
X146707860Y-129260551D01*
X146710634Y-129252721D01*
X146716879Y-129237389D01*
X146724015Y-129222505D01*
X146731994Y-129208083D01*
X146740770Y-129194134D01*
X146750296Y-129180673D01*
X146760526Y-129167711D01*
X146771412Y-129155263D01*
X146782908Y-129143339D01*
X146794967Y-129131954D01*
X146807543Y-129121120D01*
X146820589Y-129110850D01*
X146834057Y-129101156D01*
X146857453Y-129085972D01*
X146881981Y-129071779D01*
X146907596Y-129058528D01*
X146934255Y-129046167D01*
X146957227Y-129036601D01*
X147569270Y-129036601D01*
X147583394Y-129052106D01*
X147597825Y-129066860D01*
X147612562Y-129080905D01*
X147627606Y-129094281D01*
X147642957Y-129107028D01*
X147658613Y-129119186D01*
X147674575Y-129130795D01*
X147690843Y-129141896D01*
X147707416Y-129152529D01*
X147724294Y-129162734D01*
X147741477Y-129172551D01*
X147758965Y-129182021D01*
X147794853Y-129200081D01*
X147831955Y-129217235D01*
X147861823Y-129225407D01*
X147891789Y-129232884D01*
X147922001Y-129239551D01*
X147952608Y-129245295D01*
X147983759Y-129250000D01*
X148015602Y-129253552D01*
X148031830Y-129254860D01*
X148048287Y-129255836D01*
X148064991Y-129256468D01*
X148081962Y-129256739D01*
X148098931Y-129256468D01*
X148115635Y-129255836D01*
X148132091Y-129254860D01*
X148148319Y-129253552D01*
X148164337Y-129251927D01*
X148180163Y-129250000D01*
X148211316Y-129245295D01*
X148241924Y-129239551D01*
X148272137Y-129232884D01*
X148302102Y-129225407D01*
X148331969Y-129217235D01*
X148369073Y-129200081D01*
X148387169Y-129191185D01*
X148404961Y-129182022D01*
X148422449Y-129172551D01*
X148439632Y-129162734D01*
X148456510Y-129152529D01*
X148473083Y-129141896D01*
X148489351Y-129130795D01*
X148505313Y-129119186D01*
X148520969Y-129107028D01*
X148536319Y-129094281D01*
X148551363Y-129080905D01*
X148566100Y-129066860D01*
X148580530Y-129052106D01*
X148594654Y-129036601D01*
X148565368Y-129017404D01*
X148536045Y-128998780D01*
X148506673Y-128980821D01*
X148477244Y-128963619D01*
X148447747Y-128947265D01*
X148418171Y-128931853D01*
X148388507Y-128917474D01*
X148358744Y-128904219D01*
X148346853Y-128915639D01*
X148334360Y-128926753D01*
X148321244Y-128937506D01*
X148307481Y-128947842D01*
X148293046Y-128957708D01*
X148277918Y-128967048D01*
X148262071Y-128975806D01*
X148245483Y-128983928D01*
X148228131Y-128991360D01*
X148209990Y-128998045D01*
X148191038Y-129003929D01*
X148171251Y-129008957D01*
X148150605Y-129013075D01*
X148129077Y-129016226D01*
X148106643Y-129018356D01*
X148083280Y-129019410D01*
X148082392Y-129019288D01*
X148081948Y-129019223D01*
X148081505Y-129019156D01*
X148081068Y-129019223D01*
X148080631Y-129019288D01*
X148080194Y-129019350D01*
X148079756Y-129019410D01*
X148056255Y-129018354D01*
X148033720Y-129016215D01*
X148012125Y-129013050D01*
X147991443Y-129008915D01*
X147971650Y-129003867D01*
X147952717Y-128997962D01*
X147934621Y-128991258D01*
X147917334Y-128983810D01*
X147900830Y-128975675D01*
X147885084Y-128966911D01*
X147870069Y-128957574D01*
X147855759Y-128947720D01*
X147842129Y-128937405D01*
X147829152Y-128926688D01*
X147816802Y-128915624D01*
X147805053Y-128904270D01*
X147775304Y-128917522D01*
X147745655Y-128931898D01*
X147716095Y-128947305D01*
X147686613Y-128963652D01*
X147657200Y-128980847D01*
X147627845Y-128998798D01*
X147598539Y-129017413D01*
X147569270Y-129036601D01*
X146957227Y-129036601D01*
X146961916Y-129034648D01*
X146990535Y-129023921D01*
X147020069Y-129013935D01*
X147050475Y-129004641D01*
X147081709Y-128995989D01*
X147113729Y-128987928D01*
X147179952Y-128973383D01*
X147248799Y-128960607D01*
X147319923Y-128949200D01*
X147310120Y-128920123D01*
X147302261Y-128891280D01*
X147296310Y-128862737D01*
X147292232Y-128834557D01*
X147289992Y-128806806D01*
X147289670Y-128786706D01*
X147453019Y-128786706D01*
X147453608Y-128802659D01*
X147455447Y-128819286D01*
X147458597Y-128836600D01*
X147463121Y-128854616D01*
X147469083Y-128873348D01*
X147476545Y-128892809D01*
X147514960Y-128867792D01*
X147550822Y-128845520D01*
X148026661Y-128845520D01*
X148038809Y-128847216D01*
X148045110Y-128847993D01*
X148051649Y-128848701D01*
X148058491Y-128849323D01*
X148065700Y-128849844D01*
X148073342Y-128850247D01*
X148081480Y-128850516D01*
X148089465Y-128850247D01*
X148096977Y-128849842D01*
X148104077Y-128849316D01*
X148110830Y-128848686D01*
X148117297Y-128847971D01*
X148123542Y-128847185D01*
X148135615Y-128845470D01*
X148121761Y-128843467D01*
X148107914Y-128841378D01*
X148101075Y-128840395D01*
X148094334Y-128839503D01*
X148087724Y-128838739D01*
X148081278Y-128838142D01*
X148074772Y-128838744D01*
X148068115Y-128839512D01*
X148061338Y-128840408D01*
X148054468Y-128841396D01*
X148040572Y-128843497D01*
X148026661Y-128845520D01*
X147550822Y-128845520D01*
X147553838Y-128843647D01*
X147593222Y-128820500D01*
X147633154Y-128798474D01*
X147673678Y-128777693D01*
X147714835Y-128758282D01*
X147756668Y-128740365D01*
X147777852Y-128732006D01*
X147799221Y-128724067D01*
X147813404Y-128719184D01*
X147827876Y-128714610D01*
X147842596Y-128710318D01*
X147857522Y-128706279D01*
X147872614Y-128702467D01*
X147887829Y-128698855D01*
X147918469Y-128692119D01*
X147909726Y-128684841D01*
X147900893Y-128677785D01*
X147891990Y-128670958D01*
X147883036Y-128664370D01*
X147874050Y-128658028D01*
X147865052Y-128651940D01*
X147856061Y-128646115D01*
X147847095Y-128640562D01*
X147838176Y-128635288D01*
X147829321Y-128630303D01*
X147820550Y-128625613D01*
X147811882Y-128621228D01*
X147803337Y-128617155D01*
X147794935Y-128613404D01*
X147786693Y-128609982D01*
X147778632Y-128606898D01*
X147768296Y-128603323D01*
X147757978Y-128600158D01*
X147747687Y-128597396D01*
X147737431Y-128595030D01*
X147727221Y-128593054D01*
X147717065Y-128591460D01*
X147706972Y-128590242D01*
X147696952Y-128589391D01*
X147687013Y-128588902D01*
X147677166Y-128588767D01*
X147667418Y-128588979D01*
X147657780Y-128589531D01*
X147648260Y-128590417D01*
X147638868Y-128591628D01*
X147629612Y-128593159D01*
X147620503Y-128595001D01*
X147602757Y-128599594D01*
X147585705Y-128605351D01*
X147569420Y-128612215D01*
X147553974Y-128620131D01*
X147539441Y-128629042D01*
X147532540Y-128633854D01*
X147525894Y-128638892D01*
X147519514Y-128644152D01*
X147513407Y-128649625D01*
X147507584Y-128655305D01*
X147502053Y-128661185D01*
X147493596Y-128671163D01*
X147485761Y-128681676D01*
X147478612Y-128692737D01*
X147472211Y-128704362D01*
X147466620Y-128716563D01*
X147461903Y-128729355D01*
X147458122Y-128742751D01*
X147455339Y-128756766D01*
X147453617Y-128771413D01*
X147453019Y-128786706D01*
X147289670Y-128786706D01*
X147289555Y-128779547D01*
X147290886Y-128752845D01*
X147293949Y-128726766D01*
X147298711Y-128701372D01*
X147305136Y-128676729D01*
X147313188Y-128652902D01*
X147322834Y-128629954D01*
X147334037Y-128607950D01*
X147346763Y-128586956D01*
X147360977Y-128567034D01*
X147376643Y-128548251D01*
X147394790Y-128529488D01*
X147414138Y-128512129D01*
X147434608Y-128496196D01*
X147456119Y-128481710D01*
X147478590Y-128468696D01*
X147501942Y-128457174D01*
X147526094Y-128447169D01*
X147550965Y-128438701D01*
X147552245Y-128438354D01*
X147981608Y-128525224D01*
X147989121Y-128530533D01*
X147998748Y-128537612D01*
X148008309Y-128544928D01*
X148017796Y-128552486D01*
X148027200Y-128560286D01*
X148036511Y-128568330D01*
X148045720Y-128576622D01*
X148054818Y-128585162D01*
X148063796Y-128593954D01*
X148072644Y-128602999D01*
X148081353Y-128612299D01*
X148090146Y-128602956D01*
X148099080Y-128593872D01*
X148108145Y-128585045D01*
X148117332Y-128576472D01*
X148126631Y-128568152D01*
X148136033Y-128560082D01*
X148139556Y-128557180D01*
X148385292Y-128606898D01*
X148377216Y-128609987D01*
X148368953Y-128613413D01*
X148360522Y-128617168D01*
X148351943Y-128621243D01*
X148343237Y-128625631D01*
X148334423Y-128630323D01*
X148325521Y-128635309D01*
X148316550Y-128640582D01*
X148307532Y-128646134D01*
X148298485Y-128651954D01*
X148289429Y-128658037D01*
X148280385Y-128664371D01*
X148271372Y-128670951D01*
X148262411Y-128677765D01*
X148253520Y-128684807D01*
X148244720Y-128692068D01*
X148275581Y-128698802D01*
X148290907Y-128702416D01*
X148306104Y-128706232D01*
X148321128Y-128710277D01*
X148335937Y-128714580D01*
X148350485Y-128719167D01*
X148364729Y-128724067D01*
X148386097Y-128732007D01*
X148407280Y-128740367D01*
X148428284Y-128749132D01*
X148449112Y-128758287D01*
X148490267Y-128777701D01*
X148530789Y-128798485D01*
X148570720Y-128820515D01*
X148610105Y-128843666D01*
X148648985Y-128867814D01*
X148687405Y-128892834D01*
X148690470Y-128885252D01*
X148693328Y-128877769D01*
X148695978Y-128870386D01*
X148698422Y-128863103D01*
X148700660Y-128855923D01*
X148702691Y-128848844D01*
X148704516Y-128841870D01*
X148706136Y-128834999D01*
X148707550Y-128828233D01*
X148708759Y-128821573D01*
X148709764Y-128815019D01*
X148710563Y-128808573D01*
X148711158Y-128802236D01*
X148711550Y-128796007D01*
X148711737Y-128789889D01*
X148711721Y-128783881D01*
X148711722Y-128783881D01*
X148711312Y-128774490D01*
X148710470Y-128765345D01*
X148709210Y-128756444D01*
X148707549Y-128747782D01*
X148705502Y-128739356D01*
X148703084Y-128731162D01*
X148700310Y-128723196D01*
X148697197Y-128715455D01*
X148693759Y-128707936D01*
X148690011Y-128700634D01*
X148685970Y-128693546D01*
X148681651Y-128686668D01*
X148677068Y-128679996D01*
X148672238Y-128673528D01*
X148667177Y-128667258D01*
X148661898Y-128661185D01*
X148650543Y-128649625D01*
X148638056Y-128638892D01*
X148624509Y-128629042D01*
X148609976Y-128620131D01*
X148594530Y-128612215D01*
X148578244Y-128605351D01*
X148561191Y-128599594D01*
X148543445Y-128595001D01*
X148525079Y-128591628D01*
X148506166Y-128589531D01*
X148486779Y-128588767D01*
X148466992Y-128589391D01*
X148446878Y-128591460D01*
X148426510Y-128595030D01*
X148405961Y-128600158D01*
X148385305Y-128606898D01*
X148139558Y-128557178D01*
X148139556Y-128557180D01*
X147981608Y-128525224D01*
X147981604Y-128525221D01*
X147822099Y-128492950D01*
X147930513Y-128492950D01*
X147940336Y-128498643D01*
X147950149Y-128504561D01*
X147959944Y-128510707D01*
X147969710Y-128517083D01*
X147979439Y-128523691D01*
X147981604Y-128525221D01*
X148139558Y-128557178D01*
X148145528Y-128552260D01*
X148155106Y-128544683D01*
X148164758Y-128537350D01*
X148174473Y-128530258D01*
X148184243Y-128523405D01*
X148194057Y-128516788D01*
X148213779Y-128504257D01*
X148233564Y-128492646D01*
X148229197Y-128488333D01*
X148224793Y-128484163D01*
X148220337Y-128480154D01*
X148215816Y-128476324D01*
X148213528Y-128474482D01*
X148211218Y-128472691D01*
X148208885Y-128470954D01*
X148206528Y-128469274D01*
X148204145Y-128467651D01*
X148201735Y-128466090D01*
X148199295Y-128464591D01*
X148196823Y-128463157D01*
X148190996Y-128460031D01*
X148184973Y-128457102D01*
X148178758Y-128454364D01*
X148172354Y-128451813D01*
X148165761Y-128449443D01*
X148158984Y-128447252D01*
X148152025Y-128445233D01*
X148144886Y-128443382D01*
X148137569Y-128441693D01*
X148130078Y-128440164D01*
X148122415Y-128438788D01*
X148114583Y-128437561D01*
X148098419Y-128435535D01*
X148081607Y-128434049D01*
X148064874Y-128435875D01*
X148056741Y-128436959D01*
X148048768Y-128438165D01*
X148040958Y-128439499D01*
X148033315Y-128440965D01*
X148025842Y-128442570D01*
X148018541Y-128444318D01*
X148011417Y-128446216D01*
X148004471Y-128448269D01*
X147997709Y-128450482D01*
X147991132Y-128452861D01*
X147984744Y-128455411D01*
X147978548Y-128458139D01*
X147972548Y-128461048D01*
X147966746Y-128464146D01*
X147964303Y-128465555D01*
X147961892Y-128467028D01*
X147959512Y-128468560D01*
X147957159Y-128470151D01*
X147954833Y-128471797D01*
X147952533Y-128473497D01*
X147950255Y-128475249D01*
X147947999Y-128477049D01*
X147943544Y-128480789D01*
X147939153Y-128484697D01*
X147934814Y-128488757D01*
X147930513Y-128492950D01*
X147822099Y-128492950D01*
X147552248Y-128438353D01*
X147552245Y-128438354D01*
X146694182Y-128264749D01*
X147552248Y-128438353D01*
X147576475Y-128431794D01*
X147602543Y-128426470D01*
X147629090Y-128422751D01*
X147656035Y-128420660D01*
X147683297Y-128420220D01*
X147710796Y-128421453D01*
X147738451Y-128424382D01*
X147766183Y-128429028D01*
X147772434Y-128419926D01*
X147778863Y-128411092D01*
X147785462Y-128402529D01*
X147792227Y-128394239D01*
X147799152Y-128386225D01*
X147806231Y-128378488D01*
X147813459Y-128371032D01*
X147820830Y-128363858D01*
X147828338Y-128356968D01*
X147835977Y-128350366D01*
X147843743Y-128344053D01*
X147851629Y-128338031D01*
X147859630Y-128332303D01*
X147867740Y-128326871D01*
X147875953Y-128321738D01*
X147884264Y-128316906D01*
X147896044Y-128310597D01*
X147907894Y-128304809D01*
X147919802Y-128299515D01*
X147931754Y-128294693D01*
X147943737Y-128290319D01*
X147955738Y-128286368D01*
X147967744Y-128282817D01*
X147979741Y-128279642D01*
X147991717Y-128276819D01*
X148003659Y-128274324D01*
X148015553Y-128272133D01*
X148027386Y-128270222D01*
X148050818Y-128267144D01*
X148073848Y-128264901D01*
X148075364Y-128265340D01*
X148076871Y-128265808D01*
X148078369Y-128266304D01*
X148079858Y-128266828D01*
X148081339Y-128266266D01*
X148082830Y-128265732D01*
X148084331Y-128265226D01*
X148085841Y-128264749D01*
X148109695Y-128266577D01*
G37*
G36*
X148097724Y-128816764D02*
G01*
X148111986Y-128818130D01*
X148126219Y-128819788D01*
X148140426Y-128821689D01*
X148168770Y-128826021D01*
X148197041Y-128830733D01*
X148198068Y-128831032D01*
X148199130Y-128831277D01*
X148200217Y-128831479D01*
X148201324Y-128831650D01*
X148205813Y-128832267D01*
X148206917Y-128832464D01*
X148208000Y-128832702D01*
X148209056Y-128832993D01*
X148210077Y-128833349D01*
X148210572Y-128833555D01*
X148211057Y-128833781D01*
X148211529Y-128834030D01*
X148211989Y-128834302D01*
X148212435Y-128834600D01*
X148212866Y-128834924D01*
X148213282Y-128835276D01*
X148213682Y-128835658D01*
X148213683Y-128835658D01*
X148213753Y-128835942D01*
X148213814Y-128836225D01*
X148213866Y-128836508D01*
X148213905Y-128836790D01*
X148213931Y-128837069D01*
X148213942Y-128837346D01*
X148213936Y-128837620D01*
X148213913Y-128837890D01*
X148213870Y-128838155D01*
X148213841Y-128838286D01*
X148213806Y-128838416D01*
X148213766Y-128838544D01*
X148213720Y-128838671D01*
X148213668Y-128838796D01*
X148213610Y-128838919D01*
X148213545Y-128839041D01*
X148213474Y-128839161D01*
X148213396Y-128839280D01*
X148213311Y-128839396D01*
X148213219Y-128839510D01*
X148213120Y-128839623D01*
X148213013Y-128839733D01*
X148212898Y-128839841D01*
X148210172Y-128841593D01*
X148207407Y-128843282D01*
X148204604Y-128844910D01*
X148201765Y-128846477D01*
X148195992Y-128849437D01*
X148190103Y-128852176D01*
X148184117Y-128854707D01*
X148178052Y-128857041D01*
X148171925Y-128859194D01*
X148165754Y-128861176D01*
X148157014Y-128863527D01*
X148148210Y-128865610D01*
X148139348Y-128867427D01*
X148130436Y-128868978D01*
X148121482Y-128870265D01*
X148112493Y-128871288D01*
X148103477Y-128872049D01*
X148094443Y-128872549D01*
X148085396Y-128872788D01*
X148076346Y-128872769D01*
X148067300Y-128872491D01*
X148058265Y-128871956D01*
X148049250Y-128871165D01*
X148040262Y-128870120D01*
X148031308Y-128868820D01*
X148022397Y-128867268D01*
X148017930Y-128866466D01*
X148013485Y-128865563D01*
X148009063Y-128864562D01*
X148004667Y-128863463D01*
X148000298Y-128862267D01*
X147995958Y-128860974D01*
X147991648Y-128859586D01*
X147987369Y-128858103D01*
X147983125Y-128856527D01*
X147978915Y-128854857D01*
X147974743Y-128853096D01*
X147970609Y-128851243D01*
X147966515Y-128849300D01*
X147962463Y-128847268D01*
X147958455Y-128845147D01*
X147954492Y-128842938D01*
X147954138Y-128842817D01*
X147953789Y-128842672D01*
X147953444Y-128842504D01*
X147953107Y-128842313D01*
X147952778Y-128842102D01*
X147952458Y-128841873D01*
X147952150Y-128841625D01*
X147951854Y-128841362D01*
X147951572Y-128841084D01*
X147951305Y-128840792D01*
X147951056Y-128840489D01*
X147950824Y-128840175D01*
X147950612Y-128839853D01*
X147950421Y-128839523D01*
X147950252Y-128839187D01*
X147950108Y-128838846D01*
X147949988Y-128838502D01*
X147949895Y-128838157D01*
X147949831Y-128837811D01*
X147949796Y-128837466D01*
X147949792Y-128837124D01*
X147949820Y-128836785D01*
X147949882Y-128836453D01*
X147949979Y-128836127D01*
X147950113Y-128835809D01*
X147950285Y-128835501D01*
X147950497Y-128835205D01*
X147950749Y-128834921D01*
X147951044Y-128834651D01*
X147951382Y-128834396D01*
X147951766Y-128834159D01*
X147952196Y-128833940D01*
X147959297Y-128832266D01*
X147966439Y-128830756D01*
X147973613Y-128829379D01*
X147980810Y-128828106D01*
X148009672Y-128823447D01*
X148028048Y-128820930D01*
X148046458Y-128818550D01*
X148055680Y-128817531D01*
X148064915Y-128816691D01*
X148074165Y-128816077D01*
X148083431Y-128815739D01*
X148097724Y-128816764D01*
G37*
G36*
X148088217Y-128411630D02*
G01*
X148092875Y-128411875D01*
X148097532Y-128412312D01*
X148102187Y-128412957D01*
X148110756Y-128413983D01*
X148119329Y-128415196D01*
X148127890Y-128416611D01*
X148136424Y-128418239D01*
X148144914Y-128420094D01*
X148153347Y-128422189D01*
X148161706Y-128424536D01*
X148169975Y-128427149D01*
X148178139Y-128430041D01*
X148186184Y-128433224D01*
X148194092Y-128436712D01*
X148201849Y-128440518D01*
X148209439Y-128444654D01*
X148216847Y-128449133D01*
X148224057Y-128453969D01*
X148231053Y-128459174D01*
X148240727Y-128467700D01*
X148245506Y-128472059D01*
X148250181Y-128476526D01*
X148252465Y-128478811D01*
X148254704Y-128481135D01*
X148256893Y-128483503D01*
X148259025Y-128485919D01*
X148261095Y-128488386D01*
X148263096Y-128490909D01*
X148265023Y-128493493D01*
X148266868Y-128496140D01*
X148266923Y-128496491D01*
X148266959Y-128496825D01*
X148266977Y-128497145D01*
X148266976Y-128497451D01*
X148266968Y-128497599D01*
X148266955Y-128497744D01*
X148266938Y-128497887D01*
X148266915Y-128498027D01*
X148266887Y-128498164D01*
X148266854Y-128498299D01*
X148266816Y-128498431D01*
X148266773Y-128498562D01*
X148266724Y-128498690D01*
X148266670Y-128498817D01*
X148266610Y-128498942D01*
X148266545Y-128499065D01*
X148266475Y-128499188D01*
X148266398Y-128499309D01*
X148266316Y-128499428D01*
X148266229Y-128499547D01*
X148266135Y-128499665D01*
X148266036Y-128499783D01*
X148265819Y-128500016D01*
X148265579Y-128500249D01*
X148265313Y-128500482D01*
X148254127Y-128506431D01*
X148243068Y-128512633D01*
X148232137Y-128519077D01*
X148221340Y-128525751D01*
X148210679Y-128532644D01*
X148200157Y-128539745D01*
X148189778Y-128547043D01*
X148179545Y-128554526D01*
X148173517Y-128558993D01*
X148167564Y-128563549D01*
X148155868Y-128572918D01*
X148144442Y-128582606D01*
X148133270Y-128592588D01*
X148122336Y-128602838D01*
X148111626Y-128613331D01*
X148101122Y-128624039D01*
X148090810Y-128634939D01*
X148090473Y-128635222D01*
X148090140Y-128635532D01*
X148089811Y-128635868D01*
X148089484Y-128636226D01*
X148088837Y-128636995D01*
X148088195Y-128637815D01*
X148086901Y-128639507D01*
X148086240Y-128640330D01*
X148085563Y-128641106D01*
X148085216Y-128641467D01*
X148084864Y-128641808D01*
X148084505Y-128642124D01*
X148084139Y-128642413D01*
X148083764Y-128642671D01*
X148083382Y-128642895D01*
X148082990Y-128643083D01*
X148082588Y-128643230D01*
X148082175Y-128643335D01*
X148081752Y-128643394D01*
X148081317Y-128643404D01*
X148080869Y-128643361D01*
X148080409Y-128643263D01*
X148079935Y-128643107D01*
X148079446Y-128642889D01*
X148078942Y-128642607D01*
X148069690Y-128632328D01*
X148060223Y-128622253D01*
X148050544Y-128612386D01*
X148040657Y-128602734D01*
X148030567Y-128593299D01*
X148020277Y-128584087D01*
X148009792Y-128575102D01*
X147999115Y-128566349D01*
X147988250Y-128557833D01*
X147977202Y-128549558D01*
X147965974Y-128541528D01*
X147954570Y-128533749D01*
X147942995Y-128526225D01*
X147931251Y-128518960D01*
X147919345Y-128511960D01*
X147907278Y-128505228D01*
X147906956Y-128504967D01*
X147906610Y-128504716D01*
X147906243Y-128504475D01*
X147905857Y-128504243D01*
X147905037Y-128503798D01*
X147904171Y-128503371D01*
X147902375Y-128502533D01*
X147901486Y-128502101D01*
X147900628Y-128501649D01*
X147900217Y-128501411D01*
X147899822Y-128501165D01*
X147899444Y-128500908D01*
X147899086Y-128500639D01*
X147898750Y-128500358D01*
X147898440Y-128500063D01*
X147898157Y-128499753D01*
X147897905Y-128499426D01*
X147897684Y-128499081D01*
X147897499Y-128498718D01*
X147897350Y-128498334D01*
X147897242Y-128497929D01*
X147897175Y-128497501D01*
X147897153Y-128497049D01*
X147897179Y-128496572D01*
X147897253Y-128496068D01*
X147898097Y-128494810D01*
X147898977Y-128493572D01*
X147899889Y-128492353D01*
X147900831Y-128491149D01*
X147901800Y-128489961D01*
X147902791Y-128488787D01*
X147904829Y-128486473D01*
X147906919Y-128484195D01*
X147909034Y-128481942D01*
X147913235Y-128477462D01*
X147919073Y-128471669D01*
X147925161Y-128466185D01*
X147931484Y-128461003D01*
X147938026Y-128456119D01*
X147944772Y-128451527D01*
X147951706Y-128447223D01*
X147958813Y-128443201D01*
X147966078Y-128439457D01*
X147973486Y-128435985D01*
X147981022Y-128432779D01*
X147988669Y-128429836D01*
X147996413Y-128427150D01*
X148004238Y-128424715D01*
X148012130Y-128422527D01*
X148020073Y-128420581D01*
X148028051Y-128418871D01*
X148046423Y-128415516D01*
X148055671Y-128413996D01*
X148064949Y-128412748D01*
X148069596Y-128412264D01*
X148074248Y-128411895D01*
X148078903Y-128411656D01*
X148083559Y-128411562D01*
X148088217Y-128411630D01*
G37*
D11*
X162052000Y-81788000D03*
D12*
X162052000Y-84328000D03*
X162052000Y-86868000D03*
X162052000Y-89408000D03*
X162052000Y-91948000D03*
X162052000Y-94488000D03*
X162052000Y-97028000D03*
X162052000Y-99568000D03*
X162052000Y-102108000D03*
X162052000Y-104648000D03*
X162052000Y-107188000D03*
X162052000Y-109728000D03*
X162052000Y-112268000D03*
X162052000Y-114808000D03*
X162052000Y-117348000D03*
X162052000Y-119888000D03*
X162052000Y-122428000D03*
X162052000Y-124968000D03*
X162052000Y-127508000D03*
X162052000Y-130048000D03*
D13*
X141090000Y-99800000D03*
X142360000Y-99800000D03*
X143630000Y-99800000D03*
X144900000Y-99800000D03*
X146170000Y-99800000D03*
X147440000Y-99800000D03*
X148710000Y-99800000D03*
X149980000Y-99800000D03*
X151250000Y-99800000D03*
X152520000Y-99800000D03*
X153790000Y-99800000D03*
X155060000Y-99800000D03*
D14*
X141090000Y-101650000D03*
X142360000Y-101650000D03*
X143630000Y-101650000D03*
X144900000Y-101650000D03*
X146170000Y-101650000D03*
X147440000Y-101650000D03*
X148710000Y-101650000D03*
X149980000Y-101650000D03*
X151250000Y-101650000D03*
X152520000Y-101650000D03*
X153790000Y-101650000D03*
X155060000Y-101650000D03*
G36*
G01*
X154140000Y-119070000D02*
X154140000Y-118730000D01*
G75*
G02*
X154280000Y-118590000I140000J0D01*
G01*
X154560000Y-118590000D01*
G75*
G02*
X154700000Y-118730000I0J-140000D01*
G01*
X154700000Y-119070000D01*
G75*
G02*
X154560000Y-119210000I-140000J0D01*
G01*
X154280000Y-119210000D01*
G75*
G02*
X154140000Y-119070000I0J140000D01*
G01*
G37*
G36*
G01*
X155100000Y-119070000D02*
X155100000Y-118730000D01*
G75*
G02*
X155240000Y-118590000I140000J0D01*
G01*
X155520000Y-118590000D01*
G75*
G02*
X155660000Y-118730000I0J-140000D01*
G01*
X155660000Y-119070000D01*
G75*
G02*
X155520000Y-119210000I-140000J0D01*
G01*
X155240000Y-119210000D01*
G75*
G02*
X155100000Y-119070000I0J140000D01*
G01*
G37*
D15*
X138600000Y-81290000D03*
X138600000Y-83830000D03*
X138600000Y-85100000D03*
X138600000Y-86370000D03*
X138600000Y-87640000D03*
X138600000Y-88910000D03*
X138600000Y-90180000D03*
X138600000Y-91450000D03*
X138600000Y-92720000D03*
X138600000Y-95260000D03*
X138600000Y-97800000D03*
D16*
X136750000Y-81290000D03*
X136750000Y-82560000D03*
D15*
X138600000Y-82560000D03*
D16*
X136750000Y-83830000D03*
X136750000Y-85100000D03*
X136750000Y-86370000D03*
X136750000Y-87640000D03*
X136750000Y-88910000D03*
X136750000Y-90180000D03*
X136750000Y-91450000D03*
X136750000Y-92720000D03*
X136750000Y-93990000D03*
D15*
X138600000Y-93990000D03*
D16*
X136750000Y-95260000D03*
X136750000Y-96530000D03*
D15*
X138600000Y-96530000D03*
D16*
X136750000Y-97800000D03*
D11*
X134112000Y-81788000D03*
D12*
X134112000Y-84328000D03*
X134112000Y-86868000D03*
X134112000Y-89408000D03*
X134112000Y-91948000D03*
X134112000Y-94488000D03*
X134112000Y-97028000D03*
X134112000Y-99568000D03*
X134112000Y-102108000D03*
X134112000Y-104648000D03*
X134112000Y-107188000D03*
X134112000Y-109728000D03*
X134112000Y-112268000D03*
X134112000Y-114808000D03*
X134112000Y-117348000D03*
X134112000Y-119888000D03*
X134112000Y-122428000D03*
X134112000Y-124968000D03*
X134112000Y-127508000D03*
X134112000Y-130048000D03*
G36*
G01*
X140765000Y-122720000D02*
X141135000Y-122720000D01*
G75*
G02*
X141270000Y-122855000I0J-135000D01*
G01*
X141270000Y-123125000D01*
G75*
G02*
X141135000Y-123260000I-135000J0D01*
G01*
X140765000Y-123260000D01*
G75*
G02*
X140630000Y-123125000I0J135000D01*
G01*
X140630000Y-122855000D01*
G75*
G02*
X140765000Y-122720000I135000J0D01*
G01*
G37*
G36*
G01*
X140765000Y-123740000D02*
X141135000Y-123740000D01*
G75*
G02*
X141270000Y-123875000I0J-135000D01*
G01*
X141270000Y-124145000D01*
G75*
G02*
X141135000Y-124280000I-135000J0D01*
G01*
X140765000Y-124280000D01*
G75*
G02*
X140630000Y-124145000I0J135000D01*
G01*
X140630000Y-123875000D01*
G75*
G02*
X140765000Y-123740000I135000J0D01*
G01*
G37*
G36*
G01*
X154350000Y-124700000D02*
X155950000Y-124700000D01*
G75*
G02*
X156150000Y-124900000I0J-200000D01*
G01*
X156150000Y-125300000D01*
G75*
G02*
X155950000Y-125500000I-200000J0D01*
G01*
X154350000Y-125500000D01*
G75*
G02*
X154150000Y-125300000I0J200000D01*
G01*
X154150000Y-124900000D01*
G75*
G02*
X154350000Y-124700000I200000J0D01*
G01*
G37*
G36*
G01*
X154350000Y-128900000D02*
X155950000Y-128900000D01*
G75*
G02*
X156150000Y-129100000I0J-200000D01*
G01*
X156150000Y-129500000D01*
G75*
G02*
X155950000Y-129700000I-200000J0D01*
G01*
X154350000Y-129700000D01*
G75*
G02*
X154150000Y-129500000I0J200000D01*
G01*
X154150000Y-129100000D01*
G75*
G02*
X154350000Y-128900000I200000J0D01*
G01*
G37*
G36*
G01*
X150887500Y-120100000D02*
X151112500Y-120100000D01*
G75*
G02*
X151225000Y-120212500I0J-112500D01*
G01*
X151225000Y-120587500D01*
G75*
G02*
X151112500Y-120700000I-112500J0D01*
G01*
X150887500Y-120700000D01*
G75*
G02*
X150775000Y-120587500I0J112500D01*
G01*
X150775000Y-120212500D01*
G75*
G02*
X150887500Y-120100000I112500J0D01*
G01*
G37*
G36*
G01*
X150887500Y-122200000D02*
X151112500Y-122200000D01*
G75*
G02*
X151225000Y-122312500I0J-112500D01*
G01*
X151225000Y-122687500D01*
G75*
G02*
X151112500Y-122800000I-112500J0D01*
G01*
X150887500Y-122800000D01*
G75*
G02*
X150775000Y-122687500I0J112500D01*
G01*
X150775000Y-122312500D01*
G75*
G02*
X150887500Y-122200000I112500J0D01*
G01*
G37*
G36*
G01*
X146290000Y-123115000D02*
X146290000Y-123485000D01*
G75*
G02*
X146155000Y-123620000I-135000J0D01*
G01*
X145885000Y-123620000D01*
G75*
G02*
X145750000Y-123485000I0J135000D01*
G01*
X145750000Y-123115000D01*
G75*
G02*
X145885000Y-122980000I135000J0D01*
G01*
X146155000Y-122980000D01*
G75*
G02*
X146290000Y-123115000I0J-135000D01*
G01*
G37*
G36*
G01*
X145270000Y-123115000D02*
X145270000Y-123485000D01*
G75*
G02*
X145135000Y-123620000I-135000J0D01*
G01*
X144865000Y-123620000D01*
G75*
G02*
X144730000Y-123485000I0J135000D01*
G01*
X144730000Y-123115000D01*
G75*
G02*
X144865000Y-122980000I135000J0D01*
G01*
X145135000Y-122980000D01*
G75*
G02*
X145270000Y-123115000I0J-135000D01*
G01*
G37*
D17*
X145192000Y-126220000D03*
X150972000Y-126220000D03*
D18*
X144882000Y-125100000D03*
X145682000Y-125100000D03*
D19*
X146832000Y-125100000D03*
X147832000Y-125100000D03*
X148332000Y-125100000D03*
X149332000Y-125100000D03*
D18*
X150482000Y-125100000D03*
X151282000Y-125100000D03*
X151282000Y-125100000D03*
X150482000Y-125100000D03*
D19*
X149832000Y-125100000D03*
X148832000Y-125100000D03*
X147332000Y-125100000D03*
X146332000Y-125100000D03*
D18*
X145682000Y-125100000D03*
X144882000Y-125100000D03*
D20*
X143762000Y-125700000D03*
D21*
X143762000Y-129900000D03*
D20*
X152402000Y-125700000D03*
D21*
X152402000Y-129900000D03*
D15*
X157550000Y-97800000D03*
X157550000Y-95260000D03*
X157550000Y-92720000D03*
X157550000Y-91450000D03*
X157550000Y-90180000D03*
X157550000Y-88910000D03*
X157550000Y-87640000D03*
X157550000Y-86370000D03*
X157550000Y-85100000D03*
X157550000Y-83830000D03*
X157550000Y-82560000D03*
X157550000Y-81290000D03*
D16*
X159400000Y-97800000D03*
X159400000Y-96530000D03*
D15*
X157550000Y-96530000D03*
D16*
X159400000Y-95260000D03*
X159400000Y-93990000D03*
D15*
X157550000Y-93990000D03*
D16*
X159400000Y-92720000D03*
X159400000Y-91450000D03*
X159400000Y-90180000D03*
X159400000Y-88910000D03*
X159400000Y-87640000D03*
X159400000Y-86370000D03*
X159400000Y-85100000D03*
X159400000Y-83830000D03*
X159400000Y-82560000D03*
X159400000Y-81290000D03*
G36*
G01*
X149685000Y-123580000D02*
X149315000Y-123580000D01*
G75*
G02*
X149180000Y-123445000I0J135000D01*
G01*
X149180000Y-123175000D01*
G75*
G02*
X149315000Y-123040000I135000J0D01*
G01*
X149685000Y-123040000D01*
G75*
G02*
X149820000Y-123175000I0J-135000D01*
G01*
X149820000Y-123445000D01*
G75*
G02*
X149685000Y-123580000I-135000J0D01*
G01*
G37*
G36*
G01*
X149685000Y-122560000D02*
X149315000Y-122560000D01*
G75*
G02*
X149180000Y-122425000I0J135000D01*
G01*
X149180000Y-122155000D01*
G75*
G02*
X149315000Y-122020000I135000J0D01*
G01*
X149685000Y-122020000D01*
G75*
G02*
X149820000Y-122155000I0J-135000D01*
G01*
X149820000Y-122425000D01*
G75*
G02*
X149685000Y-122560000I-135000J0D01*
G01*
G37*
G36*
G01*
X142922500Y-119780000D02*
X142577500Y-119780000D01*
G75*
G02*
X142430000Y-119632500I0J147500D01*
G01*
X142430000Y-119337500D01*
G75*
G02*
X142577500Y-119190000I147500J0D01*
G01*
X142922500Y-119190000D01*
G75*
G02*
X143070000Y-119337500I0J-147500D01*
G01*
X143070000Y-119632500D01*
G75*
G02*
X142922500Y-119780000I-147500J0D01*
G01*
G37*
G36*
G01*
X142922500Y-118810000D02*
X142577500Y-118810000D01*
G75*
G02*
X142430000Y-118662500I0J147500D01*
G01*
X142430000Y-118367500D01*
G75*
G02*
X142577500Y-118220000I147500J0D01*
G01*
X142922500Y-118220000D01*
G75*
G02*
X143070000Y-118367500I0J-147500D01*
G01*
X143070000Y-118662500D01*
G75*
G02*
X142922500Y-118810000I-147500J0D01*
G01*
G37*
G36*
G01*
X140150000Y-124700000D02*
X141750000Y-124700000D01*
G75*
G02*
X141950000Y-124900000I0J-200000D01*
G01*
X141950000Y-125300000D01*
G75*
G02*
X141750000Y-125500000I-200000J0D01*
G01*
X140150000Y-125500000D01*
G75*
G02*
X139950000Y-125300000I0J200000D01*
G01*
X139950000Y-124900000D01*
G75*
G02*
X140150000Y-124700000I200000J0D01*
G01*
G37*
G36*
G01*
X140150000Y-128900000D02*
X141750000Y-128900000D01*
G75*
G02*
X141950000Y-129100000I0J-200000D01*
G01*
X141950000Y-129500000D01*
G75*
G02*
X141750000Y-129700000I-200000J0D01*
G01*
X140150000Y-129700000D01*
G75*
G02*
X139950000Y-129500000I0J200000D01*
G01*
X139950000Y-129100000D01*
G75*
G02*
X140150000Y-128900000I200000J0D01*
G01*
G37*
G36*
G01*
X152200000Y-120650000D02*
X152200000Y-120350000D01*
G75*
G02*
X152350000Y-120200000I150000J0D01*
G01*
X153375000Y-120200000D01*
G75*
G02*
X153525000Y-120350000I0J-150000D01*
G01*
X153525000Y-120650000D01*
G75*
G02*
X153375000Y-120800000I-150000J0D01*
G01*
X152350000Y-120800000D01*
G75*
G02*
X152200000Y-120650000I0J150000D01*
G01*
G37*
G36*
G01*
X152200000Y-121600000D02*
X152200000Y-121300000D01*
G75*
G02*
X152350000Y-121150000I150000J0D01*
G01*
X153375000Y-121150000D01*
G75*
G02*
X153525000Y-121300000I0J-150000D01*
G01*
X153525000Y-121600000D01*
G75*
G02*
X153375000Y-121750000I-150000J0D01*
G01*
X152350000Y-121750000D01*
G75*
G02*
X152200000Y-121600000I0J150000D01*
G01*
G37*
G36*
G01*
X152200000Y-122550000D02*
X152200000Y-122250000D01*
G75*
G02*
X152350000Y-122100000I150000J0D01*
G01*
X153375000Y-122100000D01*
G75*
G02*
X153525000Y-122250000I0J-150000D01*
G01*
X153525000Y-122550000D01*
G75*
G02*
X153375000Y-122700000I-150000J0D01*
G01*
X152350000Y-122700000D01*
G75*
G02*
X152200000Y-122550000I0J150000D01*
G01*
G37*
G36*
G01*
X154475000Y-122550000D02*
X154475000Y-122250000D01*
G75*
G02*
X154625000Y-122100000I150000J0D01*
G01*
X155650000Y-122100000D01*
G75*
G02*
X155800000Y-122250000I0J-150000D01*
G01*
X155800000Y-122550000D01*
G75*
G02*
X155650000Y-122700000I-150000J0D01*
G01*
X154625000Y-122700000D01*
G75*
G02*
X154475000Y-122550000I0J150000D01*
G01*
G37*
G36*
G01*
X154475000Y-120650000D02*
X154475000Y-120350000D01*
G75*
G02*
X154625000Y-120200000I150000J0D01*
G01*
X155650000Y-120200000D01*
G75*
G02*
X155800000Y-120350000I0J-150000D01*
G01*
X155800000Y-120650000D01*
G75*
G02*
X155650000Y-120800000I-150000J0D01*
G01*
X154625000Y-120800000D01*
G75*
G02*
X154475000Y-120650000I0J150000D01*
G01*
G37*
G36*
G01*
X153760000Y-118730000D02*
X153760000Y-119070000D01*
G75*
G02*
X153620000Y-119210000I-140000J0D01*
G01*
X153340000Y-119210000D01*
G75*
G02*
X153200000Y-119070000I0J140000D01*
G01*
X153200000Y-118730000D01*
G75*
G02*
X153340000Y-118590000I140000J0D01*
G01*
X153620000Y-118590000D01*
G75*
G02*
X153760000Y-118730000I0J-140000D01*
G01*
G37*
G36*
G01*
X152800000Y-118730000D02*
X152800000Y-119070000D01*
G75*
G02*
X152660000Y-119210000I-140000J0D01*
G01*
X152380000Y-119210000D01*
G75*
G02*
X152240000Y-119070000I0J140000D01*
G01*
X152240000Y-118730000D01*
G75*
G02*
X152380000Y-118590000I140000J0D01*
G01*
X152660000Y-118590000D01*
G75*
G02*
X152800000Y-118730000I0J-140000D01*
G01*
G37*
G36*
G01*
X141315000Y-118220000D02*
X141685000Y-118220000D01*
G75*
G02*
X141820000Y-118355000I0J-135000D01*
G01*
X141820000Y-118625000D01*
G75*
G02*
X141685000Y-118760000I-135000J0D01*
G01*
X141315000Y-118760000D01*
G75*
G02*
X141180000Y-118625000I0J135000D01*
G01*
X141180000Y-118355000D01*
G75*
G02*
X141315000Y-118220000I135000J0D01*
G01*
G37*
G36*
G01*
X141315000Y-119240000D02*
X141685000Y-119240000D01*
G75*
G02*
X141820000Y-119375000I0J-135000D01*
G01*
X141820000Y-119645000D01*
G75*
G02*
X141685000Y-119780000I-135000J0D01*
G01*
X141315000Y-119780000D01*
G75*
G02*
X141180000Y-119645000I0J135000D01*
G01*
X141180000Y-119375000D01*
G75*
G02*
X141315000Y-119240000I135000J0D01*
G01*
G37*
D22*
X132588000Y-80100000D02*
X163576000Y-80100000D01*
X163576000Y-131580000D02*
X132588000Y-131580000D01*
X163576000Y-80100000D02*
X163576000Y-131580000D01*
X132588000Y-131580000D02*
X132588000Y-80100000D01*
M02*
