%TF.GenerationSoftware,KiCad,Pcbnew,8.0.5-8.0.5-0~ubuntu24.04.1*%
%TF.CreationDate,2024-09-24T16:48:20+02:00*%
%TF.ProjectId,ESP32-S2_S3-WROOM_flexypin,45535033-322d-4533-925f-53332d57524f,rev?*%
%TF.SameCoordinates,Original*%
%TF.FileFunction,Drillmap*%
%TF.FilePolarity,Positive*%
%FSLAX45Y45*%
G04 Gerber Fmt 4.5, Leading zero omitted, Abs format (unit mm)*
G04 Created by KiCad (PCBNEW 8.0.5-8.0.5-0~ubuntu24.04.1) date 2024-09-24 16:48:20*
%MOMM*%
%LPD*%
G01*
G04 APERTURE LIST*
%ADD10C,0.100000*%
%ADD11C,0.200000*%
G04 APERTURE END LIST*
D10*
X13258800Y-8010000D02*
X16357600Y-8010000D01*
X16357600Y-13158000D02*
X13258800Y-13158000D01*
X16357600Y-8010000D02*
X16357600Y-13158000D01*
X13258800Y-13158000D02*
X13258800Y-8010000D01*
D11*
D10*
X13860000Y-10015000D02*
X13890000Y-10045000D01*
X13890000Y-10015000D02*
X13860000Y-10045000D01*
X13947710Y-9950000D02*
X13977710Y-9980000D01*
X13977710Y-9950000D02*
X13947710Y-9980000D01*
X13980000Y-12385000D02*
X14010000Y-12415000D01*
X14010000Y-12385000D02*
X13980000Y-12415000D01*
X14015000Y-9620000D02*
X14045000Y-9650000D01*
X14045000Y-9620000D02*
X14015000Y-9650000D01*
X14080000Y-12185000D02*
X14110000Y-12215000D01*
X14110000Y-12185000D02*
X14080000Y-12215000D01*
X14752556Y-12375000D02*
X14782556Y-12405000D01*
X14782556Y-12375000D02*
X14752556Y-12405000D01*
X14817240Y-12600201D02*
X14847240Y-12630201D01*
X14847240Y-12600201D02*
X14817240Y-12630201D01*
X15474038Y-11795962D02*
X15504038Y-11825962D01*
X15504038Y-11795962D02*
X15474038Y-11825962D01*
X15490000Y-12365000D02*
X15520000Y-12395000D01*
X15520000Y-12365000D02*
X15490000Y-12395000D01*
X15657450Y-10605000D02*
X15687450Y-10635000D01*
X15687450Y-10605000D02*
X15657450Y-10635000D01*
X15821400Y-10605000D02*
X15851400Y-10635000D01*
X15851400Y-10605000D02*
X15821400Y-10635000D01*
X13735000Y-8129000D02*
G75*
G02*
X13675000Y-8129000I-30000J0D01*
G01*
X13675000Y-8129000D02*
G75*
G02*
X13735000Y-8129000I30000J0D01*
G01*
X13735000Y-8256000D02*
G75*
G02*
X13675000Y-8256000I-30000J0D01*
G01*
X13675000Y-8256000D02*
G75*
G02*
X13735000Y-8256000I30000J0D01*
G01*
X13735000Y-8383000D02*
G75*
G02*
X13675000Y-8383000I-30000J0D01*
G01*
X13675000Y-8383000D02*
G75*
G02*
X13735000Y-8383000I30000J0D01*
G01*
X13735000Y-8510000D02*
G75*
G02*
X13675000Y-8510000I-30000J0D01*
G01*
X13675000Y-8510000D02*
G75*
G02*
X13735000Y-8510000I30000J0D01*
G01*
X13735000Y-8637000D02*
G75*
G02*
X13675000Y-8637000I-30000J0D01*
G01*
X13675000Y-8637000D02*
G75*
G02*
X13735000Y-8637000I30000J0D01*
G01*
X13735000Y-8764000D02*
G75*
G02*
X13675000Y-8764000I-30000J0D01*
G01*
X13675000Y-8764000D02*
G75*
G02*
X13735000Y-8764000I30000J0D01*
G01*
X13735000Y-8891000D02*
G75*
G02*
X13675000Y-8891000I-30000J0D01*
G01*
X13675000Y-8891000D02*
G75*
G02*
X13735000Y-8891000I30000J0D01*
G01*
X13735000Y-9018000D02*
G75*
G02*
X13675000Y-9018000I-30000J0D01*
G01*
X13675000Y-9018000D02*
G75*
G02*
X13735000Y-9018000I30000J0D01*
G01*
X13735000Y-9145000D02*
G75*
G02*
X13675000Y-9145000I-30000J0D01*
G01*
X13675000Y-9145000D02*
G75*
G02*
X13735000Y-9145000I30000J0D01*
G01*
X13735000Y-9272000D02*
G75*
G02*
X13675000Y-9272000I-30000J0D01*
G01*
X13675000Y-9272000D02*
G75*
G02*
X13735000Y-9272000I30000J0D01*
G01*
X13735000Y-9399000D02*
G75*
G02*
X13675000Y-9399000I-30000J0D01*
G01*
X13675000Y-9399000D02*
G75*
G02*
X13735000Y-9399000I30000J0D01*
G01*
X13735000Y-9526000D02*
G75*
G02*
X13675000Y-9526000I-30000J0D01*
G01*
X13675000Y-9526000D02*
G75*
G02*
X13735000Y-9526000I30000J0D01*
G01*
X13735000Y-9653000D02*
G75*
G02*
X13675000Y-9653000I-30000J0D01*
G01*
X13675000Y-9653000D02*
G75*
G02*
X13735000Y-9653000I30000J0D01*
G01*
X13735000Y-9780000D02*
G75*
G02*
X13675000Y-9780000I-30000J0D01*
G01*
X13675000Y-9780000D02*
G75*
G02*
X13735000Y-9780000I30000J0D01*
G01*
X14139000Y-10135000D02*
G75*
G02*
X14079000Y-10135000I-30000J0D01*
G01*
X14079000Y-10135000D02*
G75*
G02*
X14139000Y-10135000I30000J0D01*
G01*
X14266000Y-10135000D02*
G75*
G02*
X14206000Y-10135000I-30000J0D01*
G01*
X14206000Y-10135000D02*
G75*
G02*
X14266000Y-10135000I30000J0D01*
G01*
X14393000Y-10135000D02*
G75*
G02*
X14333000Y-10135000I-30000J0D01*
G01*
X14333000Y-10135000D02*
G75*
G02*
X14393000Y-10135000I30000J0D01*
G01*
X14406200Y-12570000D02*
G75*
G02*
X14346200Y-12570000I-30000J0D01*
G01*
X14346200Y-12570000D02*
G75*
G02*
X14406200Y-12570000I30000J0D01*
G01*
X14346200Y-12515000D02*
X14346200Y-12625000D01*
X14406200Y-12625000D02*
G75*
G02*
X14346200Y-12625000I-30000J0D01*
G01*
X14406200Y-12625000D02*
X14406200Y-12515000D01*
X14406200Y-12515000D02*
G75*
G03*
X14346200Y-12515000I-30000J0D01*
G01*
X14406200Y-12990000D02*
G75*
G02*
X14346200Y-12990000I-30000J0D01*
G01*
X14346200Y-12990000D02*
G75*
G02*
X14406200Y-12990000I30000J0D01*
G01*
X14346200Y-12950000D02*
X14346200Y-13030000D01*
X14406200Y-13030000D02*
G75*
G02*
X14346200Y-13030000I-30000J0D01*
G01*
X14406200Y-13030000D02*
X14406200Y-12950000D01*
X14406200Y-12950000D02*
G75*
G03*
X14346200Y-12950000I-30000J0D01*
G01*
X14520000Y-10135000D02*
G75*
G02*
X14460000Y-10135000I-30000J0D01*
G01*
X14460000Y-10135000D02*
G75*
G02*
X14520000Y-10135000I30000J0D01*
G01*
X14647000Y-10135000D02*
G75*
G02*
X14587000Y-10135000I-30000J0D01*
G01*
X14587000Y-10135000D02*
G75*
G02*
X14647000Y-10135000I30000J0D01*
G01*
X14774000Y-10135000D02*
G75*
G02*
X14714000Y-10135000I-30000J0D01*
G01*
X14714000Y-10135000D02*
G75*
G02*
X14774000Y-10135000I30000J0D01*
G01*
X14901000Y-10135000D02*
G75*
G02*
X14841000Y-10135000I-30000J0D01*
G01*
X14841000Y-10135000D02*
G75*
G02*
X14901000Y-10135000I30000J0D01*
G01*
X15028000Y-10135000D02*
G75*
G02*
X14968000Y-10135000I-30000J0D01*
G01*
X14968000Y-10135000D02*
G75*
G02*
X15028000Y-10135000I30000J0D01*
G01*
X15155000Y-10135000D02*
G75*
G02*
X15095000Y-10135000I-30000J0D01*
G01*
X15095000Y-10135000D02*
G75*
G02*
X15155000Y-10135000I30000J0D01*
G01*
X15270200Y-12570000D02*
G75*
G02*
X15210200Y-12570000I-30000J0D01*
G01*
X15210200Y-12570000D02*
G75*
G02*
X15270200Y-12570000I30000J0D01*
G01*
X15210200Y-12515000D02*
X15210200Y-12625000D01*
X15270200Y-12625000D02*
G75*
G02*
X15210200Y-12625000I-30000J0D01*
G01*
X15270200Y-12625000D02*
X15270200Y-12515000D01*
X15270200Y-12515000D02*
G75*
G03*
X15210200Y-12515000I-30000J0D01*
G01*
X15270200Y-12990000D02*
G75*
G02*
X15210200Y-12990000I-30000J0D01*
G01*
X15210200Y-12990000D02*
G75*
G02*
X15270200Y-12990000I30000J0D01*
G01*
X15210200Y-12950000D02*
X15210200Y-13030000D01*
X15270200Y-13030000D02*
G75*
G02*
X15210200Y-13030000I-30000J0D01*
G01*
X15270200Y-13030000D02*
X15270200Y-12950000D01*
X15270200Y-12950000D02*
G75*
G03*
X15210200Y-12950000I-30000J0D01*
G01*
X15282000Y-10135000D02*
G75*
G02*
X15222000Y-10135000I-30000J0D01*
G01*
X15222000Y-10135000D02*
G75*
G02*
X15282000Y-10135000I30000J0D01*
G01*
X15409000Y-10135000D02*
G75*
G02*
X15349000Y-10135000I-30000J0D01*
G01*
X15349000Y-10135000D02*
G75*
G02*
X15409000Y-10135000I30000J0D01*
G01*
X15536000Y-10135000D02*
G75*
G02*
X15476000Y-10135000I-30000J0D01*
G01*
X15476000Y-10135000D02*
G75*
G02*
X15536000Y-10135000I30000J0D01*
G01*
X15940000Y-8129000D02*
G75*
G02*
X15880000Y-8129000I-30000J0D01*
G01*
X15880000Y-8129000D02*
G75*
G02*
X15940000Y-8129000I30000J0D01*
G01*
X15940000Y-8256000D02*
G75*
G02*
X15880000Y-8256000I-30000J0D01*
G01*
X15880000Y-8256000D02*
G75*
G02*
X15940000Y-8256000I30000J0D01*
G01*
X15940000Y-8383000D02*
G75*
G02*
X15880000Y-8383000I-30000J0D01*
G01*
X15880000Y-8383000D02*
G75*
G02*
X15940000Y-8383000I30000J0D01*
G01*
X15940000Y-8510000D02*
G75*
G02*
X15880000Y-8510000I-30000J0D01*
G01*
X15880000Y-8510000D02*
G75*
G02*
X15940000Y-8510000I30000J0D01*
G01*
X15940000Y-8637000D02*
G75*
G02*
X15880000Y-8637000I-30000J0D01*
G01*
X15880000Y-8637000D02*
G75*
G02*
X15940000Y-8637000I30000J0D01*
G01*
X15940000Y-8764000D02*
G75*
G02*
X15880000Y-8764000I-30000J0D01*
G01*
X15880000Y-8764000D02*
G75*
G02*
X15940000Y-8764000I30000J0D01*
G01*
X15940000Y-8891000D02*
G75*
G02*
X15880000Y-8891000I-30000J0D01*
G01*
X15880000Y-8891000D02*
G75*
G02*
X15940000Y-8891000I30000J0D01*
G01*
X15940000Y-9018000D02*
G75*
G02*
X15880000Y-9018000I-30000J0D01*
G01*
X15880000Y-9018000D02*
G75*
G02*
X15940000Y-9018000I30000J0D01*
G01*
X15940000Y-9145000D02*
G75*
G02*
X15880000Y-9145000I-30000J0D01*
G01*
X15880000Y-9145000D02*
G75*
G02*
X15940000Y-9145000I30000J0D01*
G01*
X15940000Y-9272000D02*
G75*
G02*
X15880000Y-9272000I-30000J0D01*
G01*
X15880000Y-9272000D02*
G75*
G02*
X15940000Y-9272000I30000J0D01*
G01*
X15940000Y-9399000D02*
G75*
G02*
X15880000Y-9399000I-30000J0D01*
G01*
X15880000Y-9399000D02*
G75*
G02*
X15940000Y-9399000I30000J0D01*
G01*
X15940000Y-9526000D02*
G75*
G02*
X15880000Y-9526000I-30000J0D01*
G01*
X15880000Y-9526000D02*
G75*
G02*
X15940000Y-9526000I30000J0D01*
G01*
X15940000Y-9653000D02*
G75*
G02*
X15880000Y-9653000I-30000J0D01*
G01*
X15880000Y-9653000D02*
G75*
G02*
X15940000Y-9653000I30000J0D01*
G01*
X15940000Y-9780000D02*
G75*
G02*
X15880000Y-9780000I-30000J0D01*
G01*
X15880000Y-9780000D02*
G75*
G02*
X15940000Y-9780000I30000J0D01*
G01*
X13860000Y-8096500D02*
X13860000Y-8161500D01*
X13827500Y-8129000D02*
X13892500Y-8129000D01*
X13807500Y-8161500D02*
X13912500Y-8161500D01*
X13912500Y-8096500D02*
G75*
G02*
X13912500Y-8161500I0J-32500D01*
G01*
X13912500Y-8096500D02*
X13807500Y-8096500D01*
X13807500Y-8096500D02*
G75*
G03*
X13807500Y-8161500I0J-32500D01*
G01*
X13860000Y-8223500D02*
X13860000Y-8288500D01*
X13827500Y-8256000D02*
X13892500Y-8256000D01*
X13807500Y-8288500D02*
X13912500Y-8288500D01*
X13912500Y-8223500D02*
G75*
G02*
X13912500Y-8288500I0J-32500D01*
G01*
X13912500Y-8223500D02*
X13807500Y-8223500D01*
X13807500Y-8223500D02*
G75*
G03*
X13807500Y-8288500I0J-32500D01*
G01*
X13860000Y-8350500D02*
X13860000Y-8415500D01*
X13827500Y-8383000D02*
X13892500Y-8383000D01*
X13807500Y-8415500D02*
X13912500Y-8415500D01*
X13912500Y-8350500D02*
G75*
G02*
X13912500Y-8415500I0J-32500D01*
G01*
X13912500Y-8350500D02*
X13807500Y-8350500D01*
X13807500Y-8350500D02*
G75*
G03*
X13807500Y-8415500I0J-32500D01*
G01*
X13860000Y-8477500D02*
X13860000Y-8542500D01*
X13827500Y-8510000D02*
X13892500Y-8510000D01*
X13807500Y-8542500D02*
X13912500Y-8542500D01*
X13912500Y-8477500D02*
G75*
G02*
X13912500Y-8542500I0J-32500D01*
G01*
X13912500Y-8477500D02*
X13807500Y-8477500D01*
X13807500Y-8477500D02*
G75*
G03*
X13807500Y-8542500I0J-32500D01*
G01*
X13860000Y-8604500D02*
X13860000Y-8669500D01*
X13827500Y-8637000D02*
X13892500Y-8637000D01*
X13807500Y-8669500D02*
X13912500Y-8669500D01*
X13912500Y-8604500D02*
G75*
G02*
X13912500Y-8669500I0J-32500D01*
G01*
X13912500Y-8604500D02*
X13807500Y-8604500D01*
X13807500Y-8604500D02*
G75*
G03*
X13807500Y-8669500I0J-32500D01*
G01*
X13860000Y-8731500D02*
X13860000Y-8796500D01*
X13827500Y-8764000D02*
X13892500Y-8764000D01*
X13807500Y-8796500D02*
X13912500Y-8796500D01*
X13912500Y-8731500D02*
G75*
G02*
X13912500Y-8796500I0J-32500D01*
G01*
X13912500Y-8731500D02*
X13807500Y-8731500D01*
X13807500Y-8731500D02*
G75*
G03*
X13807500Y-8796500I0J-32500D01*
G01*
X13860000Y-8858500D02*
X13860000Y-8923500D01*
X13827500Y-8891000D02*
X13892500Y-8891000D01*
X13807500Y-8923500D02*
X13912500Y-8923500D01*
X13912500Y-8858500D02*
G75*
G02*
X13912500Y-8923500I0J-32500D01*
G01*
X13912500Y-8858500D02*
X13807500Y-8858500D01*
X13807500Y-8858500D02*
G75*
G03*
X13807500Y-8923500I0J-32500D01*
G01*
X13860000Y-8985500D02*
X13860000Y-9050500D01*
X13827500Y-9018000D02*
X13892500Y-9018000D01*
X13807500Y-9050500D02*
X13912500Y-9050500D01*
X13912500Y-8985500D02*
G75*
G02*
X13912500Y-9050500I0J-32500D01*
G01*
X13912500Y-8985500D02*
X13807500Y-8985500D01*
X13807500Y-8985500D02*
G75*
G03*
X13807500Y-9050500I0J-32500D01*
G01*
X13860000Y-9112500D02*
X13860000Y-9177500D01*
X13827500Y-9145000D02*
X13892500Y-9145000D01*
X13807500Y-9177500D02*
X13912500Y-9177500D01*
X13912500Y-9112500D02*
G75*
G02*
X13912500Y-9177500I0J-32500D01*
G01*
X13912500Y-9112500D02*
X13807500Y-9112500D01*
X13807500Y-9112500D02*
G75*
G03*
X13807500Y-9177500I0J-32500D01*
G01*
X13860000Y-9239500D02*
X13860000Y-9304500D01*
X13827500Y-9272000D02*
X13892500Y-9272000D01*
X13807500Y-9304500D02*
X13912500Y-9304500D01*
X13912500Y-9239500D02*
G75*
G02*
X13912500Y-9304500I0J-32500D01*
G01*
X13912500Y-9239500D02*
X13807500Y-9239500D01*
X13807500Y-9239500D02*
G75*
G03*
X13807500Y-9304500I0J-32500D01*
G01*
X13860000Y-9366500D02*
X13860000Y-9431500D01*
X13827500Y-9399000D02*
X13892500Y-9399000D01*
X13807500Y-9431500D02*
X13912500Y-9431500D01*
X13912500Y-9366500D02*
G75*
G02*
X13912500Y-9431500I0J-32500D01*
G01*
X13912500Y-9366500D02*
X13807500Y-9366500D01*
X13807500Y-9366500D02*
G75*
G03*
X13807500Y-9431500I0J-32500D01*
G01*
X13860000Y-9493500D02*
X13860000Y-9558500D01*
X13827500Y-9526000D02*
X13892500Y-9526000D01*
X13807500Y-9558500D02*
X13912500Y-9558500D01*
X13912500Y-9493500D02*
G75*
G02*
X13912500Y-9558500I0J-32500D01*
G01*
X13912500Y-9493500D02*
X13807500Y-9493500D01*
X13807500Y-9493500D02*
G75*
G03*
X13807500Y-9558500I0J-32500D01*
G01*
X13860000Y-9620500D02*
X13860000Y-9685500D01*
X13827500Y-9653000D02*
X13892500Y-9653000D01*
X13807500Y-9685500D02*
X13912500Y-9685500D01*
X13912500Y-9620500D02*
G75*
G02*
X13912500Y-9685500I0J-32500D01*
G01*
X13912500Y-9620500D02*
X13807500Y-9620500D01*
X13807500Y-9620500D02*
G75*
G03*
X13807500Y-9685500I0J-32500D01*
G01*
X13860000Y-9747500D02*
X13860000Y-9812500D01*
X13827500Y-9780000D02*
X13892500Y-9780000D01*
X13807500Y-9812500D02*
X13912500Y-9812500D01*
X13912500Y-9747500D02*
G75*
G02*
X13912500Y-9812500I0J-32500D01*
G01*
X13912500Y-9747500D02*
X13807500Y-9747500D01*
X13807500Y-9747500D02*
G75*
G03*
X13807500Y-9812500I0J-32500D01*
G01*
X14109000Y-9947500D02*
X14109000Y-10012500D01*
X14076500Y-9980000D02*
X14141500Y-9980000D01*
X14141500Y-10032500D02*
X14141500Y-9927500D01*
X14076500Y-9927500D02*
G75*
G02*
X14141500Y-9927500I32500J0D01*
G01*
X14076500Y-9927500D02*
X14076500Y-10032500D01*
X14076500Y-10032500D02*
G75*
G03*
X14141500Y-10032500I32500J0D01*
G01*
X14236000Y-9947500D02*
X14236000Y-10012500D01*
X14203500Y-9980000D02*
X14268500Y-9980000D01*
X14268500Y-10032500D02*
X14268500Y-9927500D01*
X14203500Y-9927500D02*
G75*
G02*
X14268500Y-9927500I32500J0D01*
G01*
X14203500Y-9927500D02*
X14203500Y-10032500D01*
X14203500Y-10032500D02*
G75*
G03*
X14268500Y-10032500I32500J0D01*
G01*
X14363000Y-9947500D02*
X14363000Y-10012500D01*
X14330500Y-9980000D02*
X14395500Y-9980000D01*
X14395500Y-10032500D02*
X14395500Y-9927500D01*
X14330500Y-9927500D02*
G75*
G02*
X14395500Y-9927500I32500J0D01*
G01*
X14330500Y-9927500D02*
X14330500Y-10032500D01*
X14330500Y-10032500D02*
G75*
G03*
X14395500Y-10032500I32500J0D01*
G01*
X14490000Y-9947500D02*
X14490000Y-10012500D01*
X14457500Y-9980000D02*
X14522500Y-9980000D01*
X14522500Y-10032500D02*
X14522500Y-9927500D01*
X14457500Y-9927500D02*
G75*
G02*
X14522500Y-9927500I32500J0D01*
G01*
X14457500Y-9927500D02*
X14457500Y-10032500D01*
X14457500Y-10032500D02*
G75*
G03*
X14522500Y-10032500I32500J0D01*
G01*
X14617000Y-9947500D02*
X14617000Y-10012500D01*
X14584500Y-9980000D02*
X14649500Y-9980000D01*
X14649500Y-10032500D02*
X14649500Y-9927500D01*
X14584500Y-9927500D02*
G75*
G02*
X14649500Y-9927500I32500J0D01*
G01*
X14584500Y-9927500D02*
X14584500Y-10032500D01*
X14584500Y-10032500D02*
G75*
G03*
X14649500Y-10032500I32500J0D01*
G01*
X14744000Y-9947500D02*
X14744000Y-10012500D01*
X14711500Y-9980000D02*
X14776500Y-9980000D01*
X14776500Y-10032500D02*
X14776500Y-9927500D01*
X14711500Y-9927500D02*
G75*
G02*
X14776500Y-9927500I32500J0D01*
G01*
X14711500Y-9927500D02*
X14711500Y-10032500D01*
X14711500Y-10032500D02*
G75*
G03*
X14776500Y-10032500I32500J0D01*
G01*
X14871000Y-9947500D02*
X14871000Y-10012500D01*
X14838500Y-9980000D02*
X14903500Y-9980000D01*
X14903500Y-10032500D02*
X14903500Y-9927500D01*
X14838500Y-9927500D02*
G75*
G02*
X14903500Y-9927500I32500J0D01*
G01*
X14838500Y-9927500D02*
X14838500Y-10032500D01*
X14838500Y-10032500D02*
G75*
G03*
X14903500Y-10032500I32500J0D01*
G01*
X14998000Y-9947500D02*
X14998000Y-10012500D01*
X14965500Y-9980000D02*
X15030500Y-9980000D01*
X15030500Y-10032500D02*
X15030500Y-9927500D01*
X14965500Y-9927500D02*
G75*
G02*
X15030500Y-9927500I32500J0D01*
G01*
X14965500Y-9927500D02*
X14965500Y-10032500D01*
X14965500Y-10032500D02*
G75*
G03*
X15030500Y-10032500I32500J0D01*
G01*
X15125000Y-9947500D02*
X15125000Y-10012500D01*
X15092500Y-9980000D02*
X15157500Y-9980000D01*
X15157500Y-10032500D02*
X15157500Y-9927500D01*
X15092500Y-9927500D02*
G75*
G02*
X15157500Y-9927500I32500J0D01*
G01*
X15092500Y-9927500D02*
X15092500Y-10032500D01*
X15092500Y-10032500D02*
G75*
G03*
X15157500Y-10032500I32500J0D01*
G01*
X15252000Y-9947500D02*
X15252000Y-10012500D01*
X15219500Y-9980000D02*
X15284500Y-9980000D01*
X15284500Y-10032500D02*
X15284500Y-9927500D01*
X15219500Y-9927500D02*
G75*
G02*
X15284500Y-9927500I32500J0D01*
G01*
X15219500Y-9927500D02*
X15219500Y-10032500D01*
X15219500Y-10032500D02*
G75*
G03*
X15284500Y-10032500I32500J0D01*
G01*
X15379000Y-9947500D02*
X15379000Y-10012500D01*
X15346500Y-9980000D02*
X15411500Y-9980000D01*
X15411500Y-10032500D02*
X15411500Y-9927500D01*
X15346500Y-9927500D02*
G75*
G02*
X15411500Y-9927500I32500J0D01*
G01*
X15346500Y-9927500D02*
X15346500Y-10032500D01*
X15346500Y-10032500D02*
G75*
G03*
X15411500Y-10032500I32500J0D01*
G01*
X15506000Y-9947500D02*
X15506000Y-10012500D01*
X15473500Y-9980000D02*
X15538500Y-9980000D01*
X15538500Y-10032500D02*
X15538500Y-9927500D01*
X15473500Y-9927500D02*
G75*
G02*
X15538500Y-9927500I32500J0D01*
G01*
X15473500Y-9927500D02*
X15473500Y-10032500D01*
X15473500Y-10032500D02*
G75*
G03*
X15538500Y-10032500I32500J0D01*
G01*
X15755000Y-8096500D02*
X15755000Y-8161500D01*
X15722500Y-8129000D02*
X15787500Y-8129000D01*
X15807500Y-8096500D02*
X15702500Y-8096500D01*
X15702500Y-8161500D02*
G75*
G02*
X15702500Y-8096500I0J32500D01*
G01*
X15702500Y-8161500D02*
X15807500Y-8161500D01*
X15807500Y-8161500D02*
G75*
G03*
X15807500Y-8096500I0J32500D01*
G01*
X15755000Y-8223500D02*
X15755000Y-8288500D01*
X15722500Y-8256000D02*
X15787500Y-8256000D01*
X15807500Y-8223500D02*
X15702500Y-8223500D01*
X15702500Y-8288500D02*
G75*
G02*
X15702500Y-8223500I0J32500D01*
G01*
X15702500Y-8288500D02*
X15807500Y-8288500D01*
X15807500Y-8288500D02*
G75*
G03*
X15807500Y-8223500I0J32500D01*
G01*
X15755000Y-8350500D02*
X15755000Y-8415500D01*
X15722500Y-8383000D02*
X15787500Y-8383000D01*
X15807500Y-8350500D02*
X15702500Y-8350500D01*
X15702500Y-8415500D02*
G75*
G02*
X15702500Y-8350500I0J32500D01*
G01*
X15702500Y-8415500D02*
X15807500Y-8415500D01*
X15807500Y-8415500D02*
G75*
G03*
X15807500Y-8350500I0J32500D01*
G01*
X15755000Y-8477500D02*
X15755000Y-8542500D01*
X15722500Y-8510000D02*
X15787500Y-8510000D01*
X15807500Y-8477500D02*
X15702500Y-8477500D01*
X15702500Y-8542500D02*
G75*
G02*
X15702500Y-8477500I0J32500D01*
G01*
X15702500Y-8542500D02*
X15807500Y-8542500D01*
X15807500Y-8542500D02*
G75*
G03*
X15807500Y-8477500I0J32500D01*
G01*
X15755000Y-8604500D02*
X15755000Y-8669500D01*
X15722500Y-8637000D02*
X15787500Y-8637000D01*
X15807500Y-8604500D02*
X15702500Y-8604500D01*
X15702500Y-8669500D02*
G75*
G02*
X15702500Y-8604500I0J32500D01*
G01*
X15702500Y-8669500D02*
X15807500Y-8669500D01*
X15807500Y-8669500D02*
G75*
G03*
X15807500Y-8604500I0J32500D01*
G01*
X15755000Y-8731500D02*
X15755000Y-8796500D01*
X15722500Y-8764000D02*
X15787500Y-8764000D01*
X15807500Y-8731500D02*
X15702500Y-8731500D01*
X15702500Y-8796500D02*
G75*
G02*
X15702500Y-8731500I0J32500D01*
G01*
X15702500Y-8796500D02*
X15807500Y-8796500D01*
X15807500Y-8796500D02*
G75*
G03*
X15807500Y-8731500I0J32500D01*
G01*
X15755000Y-8858500D02*
X15755000Y-8923500D01*
X15722500Y-8891000D02*
X15787500Y-8891000D01*
X15807500Y-8858500D02*
X15702500Y-8858500D01*
X15702500Y-8923500D02*
G75*
G02*
X15702500Y-8858500I0J32500D01*
G01*
X15702500Y-8923500D02*
X15807500Y-8923500D01*
X15807500Y-8923500D02*
G75*
G03*
X15807500Y-8858500I0J32500D01*
G01*
X15755000Y-8985500D02*
X15755000Y-9050500D01*
X15722500Y-9018000D02*
X15787500Y-9018000D01*
X15807500Y-8985500D02*
X15702500Y-8985500D01*
X15702500Y-9050500D02*
G75*
G02*
X15702500Y-8985500I0J32500D01*
G01*
X15702500Y-9050500D02*
X15807500Y-9050500D01*
X15807500Y-9050500D02*
G75*
G03*
X15807500Y-8985500I0J32500D01*
G01*
X15755000Y-9112500D02*
X15755000Y-9177500D01*
X15722500Y-9145000D02*
X15787500Y-9145000D01*
X15807500Y-9112500D02*
X15702500Y-9112500D01*
X15702500Y-9177500D02*
G75*
G02*
X15702500Y-9112500I0J32500D01*
G01*
X15702500Y-9177500D02*
X15807500Y-9177500D01*
X15807500Y-9177500D02*
G75*
G03*
X15807500Y-9112500I0J32500D01*
G01*
X15755000Y-9239500D02*
X15755000Y-9304500D01*
X15722500Y-9272000D02*
X15787500Y-9272000D01*
X15807500Y-9239500D02*
X15702500Y-9239500D01*
X15702500Y-9304500D02*
G75*
G02*
X15702500Y-9239500I0J32500D01*
G01*
X15702500Y-9304500D02*
X15807500Y-9304500D01*
X15807500Y-9304500D02*
G75*
G03*
X15807500Y-9239500I0J32500D01*
G01*
X15755000Y-9366500D02*
X15755000Y-9431500D01*
X15722500Y-9399000D02*
X15787500Y-9399000D01*
X15807500Y-9366500D02*
X15702500Y-9366500D01*
X15702500Y-9431500D02*
G75*
G02*
X15702500Y-9366500I0J32500D01*
G01*
X15702500Y-9431500D02*
X15807500Y-9431500D01*
X15807500Y-9431500D02*
G75*
G03*
X15807500Y-9366500I0J32500D01*
G01*
X15755000Y-9493500D02*
X15755000Y-9558500D01*
X15722500Y-9526000D02*
X15787500Y-9526000D01*
X15807500Y-9493500D02*
X15702500Y-9493500D01*
X15702500Y-9558500D02*
G75*
G02*
X15702500Y-9493500I0J32500D01*
G01*
X15702500Y-9558500D02*
X15807500Y-9558500D01*
X15807500Y-9558500D02*
G75*
G03*
X15807500Y-9493500I0J32500D01*
G01*
X15755000Y-9620500D02*
X15755000Y-9685500D01*
X15722500Y-9653000D02*
X15787500Y-9653000D01*
X15807500Y-9620500D02*
X15702500Y-9620500D01*
X15702500Y-9685500D02*
G75*
G02*
X15702500Y-9620500I0J32500D01*
G01*
X15702500Y-9685500D02*
X15807500Y-9685500D01*
X15807500Y-9685500D02*
G75*
G03*
X15807500Y-9620500I0J32500D01*
G01*
X15755000Y-9747500D02*
X15755000Y-9812500D01*
X15722500Y-9780000D02*
X15787500Y-9780000D01*
X15807500Y-9747500D02*
X15702500Y-9747500D01*
X15702500Y-9812500D02*
G75*
G02*
X15702500Y-9747500I0J32500D01*
G01*
X15702500Y-9812500D02*
X15807500Y-9812500D01*
X15807500Y-9812500D02*
G75*
G03*
X15807500Y-9747500I0J32500D01*
G01*
X13446556Y-8214156D02*
X13446556Y-8143444D01*
X13375844Y-8143444D01*
X13375844Y-8214156D01*
X13446556Y-8214156D01*
X13446556Y-8468156D02*
X13446556Y-8397444D01*
X13375844Y-8397444D01*
X13375844Y-8468156D01*
X13446556Y-8468156D01*
X13446556Y-8722156D02*
X13446556Y-8651444D01*
X13375844Y-8651444D01*
X13375844Y-8722156D01*
X13446556Y-8722156D01*
X13446556Y-8976156D02*
X13446556Y-8905444D01*
X13375844Y-8905444D01*
X13375844Y-8976156D01*
X13446556Y-8976156D01*
X13446556Y-9230156D02*
X13446556Y-9159444D01*
X13375844Y-9159444D01*
X13375844Y-9230156D01*
X13446556Y-9230156D01*
X13446556Y-9484156D02*
X13446556Y-9413444D01*
X13375844Y-9413444D01*
X13375844Y-9484156D01*
X13446556Y-9484156D01*
X13446556Y-9738156D02*
X13446556Y-9667444D01*
X13375844Y-9667444D01*
X13375844Y-9738156D01*
X13446556Y-9738156D01*
X13446556Y-9992156D02*
X13446556Y-9921444D01*
X13375844Y-9921444D01*
X13375844Y-9992156D01*
X13446556Y-9992156D01*
X13446556Y-10246156D02*
X13446556Y-10175444D01*
X13375844Y-10175444D01*
X13375844Y-10246156D01*
X13446556Y-10246156D01*
X13446556Y-10500156D02*
X13446556Y-10429444D01*
X13375844Y-10429444D01*
X13375844Y-10500156D01*
X13446556Y-10500156D01*
X13446556Y-10754156D02*
X13446556Y-10683444D01*
X13375844Y-10683444D01*
X13375844Y-10754156D01*
X13446556Y-10754156D01*
X13446556Y-11008156D02*
X13446556Y-10937444D01*
X13375844Y-10937444D01*
X13375844Y-11008156D01*
X13446556Y-11008156D01*
X13446556Y-11262156D02*
X13446556Y-11191444D01*
X13375844Y-11191444D01*
X13375844Y-11262156D01*
X13446556Y-11262156D01*
X13446556Y-11516156D02*
X13446556Y-11445444D01*
X13375844Y-11445444D01*
X13375844Y-11516156D01*
X13446556Y-11516156D01*
X13446556Y-11770156D02*
X13446556Y-11699444D01*
X13375844Y-11699444D01*
X13375844Y-11770156D01*
X13446556Y-11770156D01*
X13446556Y-12024156D02*
X13446556Y-11953444D01*
X13375844Y-11953444D01*
X13375844Y-12024156D01*
X13446556Y-12024156D01*
X13446556Y-12278156D02*
X13446556Y-12207444D01*
X13375844Y-12207444D01*
X13375844Y-12278156D01*
X13446556Y-12278156D01*
X13446556Y-12532156D02*
X13446556Y-12461444D01*
X13375844Y-12461444D01*
X13375844Y-12532156D01*
X13446556Y-12532156D01*
X13446556Y-12786156D02*
X13446556Y-12715444D01*
X13375844Y-12715444D01*
X13375844Y-12786156D01*
X13446556Y-12786156D01*
X13446556Y-13040156D02*
X13446556Y-12969444D01*
X13375844Y-12969444D01*
X13375844Y-13040156D01*
X13446556Y-13040156D01*
X16240556Y-8214156D02*
X16240556Y-8143444D01*
X16169844Y-8143444D01*
X16169844Y-8214156D01*
X16240556Y-8214156D01*
X16240556Y-8468156D02*
X16240556Y-8397444D01*
X16169844Y-8397444D01*
X16169844Y-8468156D01*
X16240556Y-8468156D01*
X16240556Y-8722156D02*
X16240556Y-8651444D01*
X16169844Y-8651444D01*
X16169844Y-8722156D01*
X16240556Y-8722156D01*
X16240556Y-8976156D02*
X16240556Y-8905444D01*
X16169844Y-8905444D01*
X16169844Y-8976156D01*
X16240556Y-8976156D01*
X16240556Y-9230156D02*
X16240556Y-9159444D01*
X16169844Y-9159444D01*
X16169844Y-9230156D01*
X16240556Y-9230156D01*
X16240556Y-9484156D02*
X16240556Y-9413444D01*
X16169844Y-9413444D01*
X16169844Y-9484156D01*
X16240556Y-9484156D01*
X16240556Y-9738156D02*
X16240556Y-9667444D01*
X16169844Y-9667444D01*
X16169844Y-9738156D01*
X16240556Y-9738156D01*
X16240556Y-9992156D02*
X16240556Y-9921444D01*
X16169844Y-9921444D01*
X16169844Y-9992156D01*
X16240556Y-9992156D01*
X16240556Y-10246156D02*
X16240556Y-10175444D01*
X16169844Y-10175444D01*
X16169844Y-10246156D01*
X16240556Y-10246156D01*
X16240556Y-10500156D02*
X16240556Y-10429444D01*
X16169844Y-10429444D01*
X16169844Y-10500156D01*
X16240556Y-10500156D01*
X16240556Y-10754156D02*
X16240556Y-10683444D01*
X16169844Y-10683444D01*
X16169844Y-10754156D01*
X16240556Y-10754156D01*
X16240556Y-11008156D02*
X16240556Y-10937444D01*
X16169844Y-10937444D01*
X16169844Y-11008156D01*
X16240556Y-11008156D01*
X16240556Y-11262156D02*
X16240556Y-11191444D01*
X16169844Y-11191444D01*
X16169844Y-11262156D01*
X16240556Y-11262156D01*
X16240556Y-11516156D02*
X16240556Y-11445444D01*
X16169844Y-11445444D01*
X16169844Y-11516156D01*
X16240556Y-11516156D01*
X16240556Y-11770156D02*
X16240556Y-11699444D01*
X16169844Y-11699444D01*
X16169844Y-11770156D01*
X16240556Y-11770156D01*
X16240556Y-12024156D02*
X16240556Y-11953444D01*
X16169844Y-11953444D01*
X16169844Y-12024156D01*
X16240556Y-12024156D01*
X16240556Y-12278156D02*
X16240556Y-12207444D01*
X16169844Y-12207444D01*
X16169844Y-12278156D01*
X16240556Y-12278156D01*
X16240556Y-12532156D02*
X16240556Y-12461444D01*
X16169844Y-12461444D01*
X16169844Y-12532156D01*
X16240556Y-12532156D01*
X16240556Y-12786156D02*
X16240556Y-12715444D01*
X16169844Y-12715444D01*
X16169844Y-12786156D01*
X16240556Y-12786156D01*
X16240556Y-13040156D02*
X16240556Y-12969444D01*
X16169844Y-12969444D01*
X16169844Y-13040156D01*
X16240556Y-13040156D01*
D11*
X13514577Y-13474484D02*
X13514577Y-13274484D01*
X13514577Y-13274484D02*
X13562196Y-13274484D01*
X13562196Y-13274484D02*
X13590767Y-13284008D01*
X13590767Y-13284008D02*
X13609815Y-13303055D01*
X13609815Y-13303055D02*
X13619339Y-13322103D01*
X13619339Y-13322103D02*
X13628862Y-13360198D01*
X13628862Y-13360198D02*
X13628862Y-13388769D01*
X13628862Y-13388769D02*
X13619339Y-13426865D01*
X13619339Y-13426865D02*
X13609815Y-13445912D01*
X13609815Y-13445912D02*
X13590767Y-13464960D01*
X13590767Y-13464960D02*
X13562196Y-13474484D01*
X13562196Y-13474484D02*
X13514577Y-13474484D01*
X13714577Y-13474484D02*
X13714577Y-13341150D01*
X13714577Y-13379246D02*
X13724101Y-13360198D01*
X13724101Y-13360198D02*
X13733624Y-13350674D01*
X13733624Y-13350674D02*
X13752672Y-13341150D01*
X13752672Y-13341150D02*
X13771720Y-13341150D01*
X13838386Y-13474484D02*
X13838386Y-13341150D01*
X13838386Y-13274484D02*
X13828862Y-13284008D01*
X13828862Y-13284008D02*
X13838386Y-13293531D01*
X13838386Y-13293531D02*
X13847910Y-13284008D01*
X13847910Y-13284008D02*
X13838386Y-13274484D01*
X13838386Y-13274484D02*
X13838386Y-13293531D01*
X13962196Y-13474484D02*
X13943148Y-13464960D01*
X13943148Y-13464960D02*
X13933624Y-13445912D01*
X13933624Y-13445912D02*
X13933624Y-13274484D01*
X14066958Y-13474484D02*
X14047910Y-13464960D01*
X14047910Y-13464960D02*
X14038386Y-13445912D01*
X14038386Y-13445912D02*
X14038386Y-13274484D01*
X14295529Y-13474484D02*
X14295529Y-13274484D01*
X14295529Y-13274484D02*
X14362196Y-13417341D01*
X14362196Y-13417341D02*
X14428862Y-13274484D01*
X14428862Y-13274484D02*
X14428862Y-13474484D01*
X14609815Y-13474484D02*
X14609815Y-13369722D01*
X14609815Y-13369722D02*
X14600291Y-13350674D01*
X14600291Y-13350674D02*
X14581243Y-13341150D01*
X14581243Y-13341150D02*
X14543148Y-13341150D01*
X14543148Y-13341150D02*
X14524101Y-13350674D01*
X14609815Y-13464960D02*
X14590767Y-13474484D01*
X14590767Y-13474484D02*
X14543148Y-13474484D01*
X14543148Y-13474484D02*
X14524101Y-13464960D01*
X14524101Y-13464960D02*
X14514577Y-13445912D01*
X14514577Y-13445912D02*
X14514577Y-13426865D01*
X14514577Y-13426865D02*
X14524101Y-13407817D01*
X14524101Y-13407817D02*
X14543148Y-13398293D01*
X14543148Y-13398293D02*
X14590767Y-13398293D01*
X14590767Y-13398293D02*
X14609815Y-13388769D01*
X14705053Y-13341150D02*
X14705053Y-13541150D01*
X14705053Y-13350674D02*
X14724101Y-13341150D01*
X14724101Y-13341150D02*
X14762196Y-13341150D01*
X14762196Y-13341150D02*
X14781243Y-13350674D01*
X14781243Y-13350674D02*
X14790767Y-13360198D01*
X14790767Y-13360198D02*
X14800291Y-13379246D01*
X14800291Y-13379246D02*
X14800291Y-13436388D01*
X14800291Y-13436388D02*
X14790767Y-13455436D01*
X14790767Y-13455436D02*
X14781243Y-13464960D01*
X14781243Y-13464960D02*
X14762196Y-13474484D01*
X14762196Y-13474484D02*
X14724101Y-13474484D01*
X14724101Y-13474484D02*
X14705053Y-13464960D01*
X14886005Y-13455436D02*
X14895529Y-13464960D01*
X14895529Y-13464960D02*
X14886005Y-13474484D01*
X14886005Y-13474484D02*
X14876482Y-13464960D01*
X14876482Y-13464960D02*
X14886005Y-13455436D01*
X14886005Y-13455436D02*
X14886005Y-13474484D01*
X14886005Y-13350674D02*
X14895529Y-13360198D01*
X14895529Y-13360198D02*
X14886005Y-13369722D01*
X14886005Y-13369722D02*
X14876482Y-13360198D01*
X14876482Y-13360198D02*
X14886005Y-13350674D01*
X14886005Y-13350674D02*
X14886005Y-13369722D01*
D10*
X13223800Y-13788000D02*
X13253800Y-13818000D01*
X13253800Y-13788000D02*
X13223800Y-13818000D01*
D11*
X13552672Y-13694484D02*
X13571720Y-13694484D01*
X13571720Y-13694484D02*
X13590767Y-13704008D01*
X13590767Y-13704008D02*
X13600291Y-13713531D01*
X13600291Y-13713531D02*
X13609815Y-13732579D01*
X13609815Y-13732579D02*
X13619339Y-13770674D01*
X13619339Y-13770674D02*
X13619339Y-13818293D01*
X13619339Y-13818293D02*
X13609815Y-13856388D01*
X13609815Y-13856388D02*
X13600291Y-13875436D01*
X13600291Y-13875436D02*
X13590767Y-13884960D01*
X13590767Y-13884960D02*
X13571720Y-13894484D01*
X13571720Y-13894484D02*
X13552672Y-13894484D01*
X13552672Y-13894484D02*
X13533624Y-13884960D01*
X13533624Y-13884960D02*
X13524101Y-13875436D01*
X13524101Y-13875436D02*
X13514577Y-13856388D01*
X13514577Y-13856388D02*
X13505053Y-13818293D01*
X13505053Y-13818293D02*
X13505053Y-13770674D01*
X13505053Y-13770674D02*
X13514577Y-13732579D01*
X13514577Y-13732579D02*
X13524101Y-13713531D01*
X13524101Y-13713531D02*
X13533624Y-13704008D01*
X13533624Y-13704008D02*
X13552672Y-13694484D01*
X13705053Y-13875436D02*
X13714577Y-13884960D01*
X13714577Y-13884960D02*
X13705053Y-13894484D01*
X13705053Y-13894484D02*
X13695529Y-13884960D01*
X13695529Y-13884960D02*
X13705053Y-13875436D01*
X13705053Y-13875436D02*
X13705053Y-13894484D01*
X13781243Y-13694484D02*
X13905053Y-13694484D01*
X13905053Y-13694484D02*
X13838386Y-13770674D01*
X13838386Y-13770674D02*
X13866958Y-13770674D01*
X13866958Y-13770674D02*
X13886005Y-13780198D01*
X13886005Y-13780198D02*
X13895529Y-13789722D01*
X13895529Y-13789722D02*
X13905053Y-13808769D01*
X13905053Y-13808769D02*
X13905053Y-13856388D01*
X13905053Y-13856388D02*
X13895529Y-13875436D01*
X13895529Y-13875436D02*
X13886005Y-13884960D01*
X13886005Y-13884960D02*
X13866958Y-13894484D01*
X13866958Y-13894484D02*
X13809815Y-13894484D01*
X13809815Y-13894484D02*
X13790767Y-13884960D01*
X13790767Y-13884960D02*
X13781243Y-13875436D01*
X14028862Y-13694484D02*
X14047910Y-13694484D01*
X14047910Y-13694484D02*
X14066958Y-13704008D01*
X14066958Y-13704008D02*
X14076482Y-13713531D01*
X14076482Y-13713531D02*
X14086005Y-13732579D01*
X14086005Y-13732579D02*
X14095529Y-13770674D01*
X14095529Y-13770674D02*
X14095529Y-13818293D01*
X14095529Y-13818293D02*
X14086005Y-13856388D01*
X14086005Y-13856388D02*
X14076482Y-13875436D01*
X14076482Y-13875436D02*
X14066958Y-13884960D01*
X14066958Y-13884960D02*
X14047910Y-13894484D01*
X14047910Y-13894484D02*
X14028862Y-13894484D01*
X14028862Y-13894484D02*
X14009815Y-13884960D01*
X14009815Y-13884960D02*
X14000291Y-13875436D01*
X14000291Y-13875436D02*
X13990767Y-13856388D01*
X13990767Y-13856388D02*
X13981243Y-13818293D01*
X13981243Y-13818293D02*
X13981243Y-13770674D01*
X13981243Y-13770674D02*
X13990767Y-13732579D01*
X13990767Y-13732579D02*
X14000291Y-13713531D01*
X14000291Y-13713531D02*
X14009815Y-13704008D01*
X14009815Y-13704008D02*
X14028862Y-13694484D01*
X14219339Y-13694484D02*
X14238386Y-13694484D01*
X14238386Y-13694484D02*
X14257434Y-13704008D01*
X14257434Y-13704008D02*
X14266958Y-13713531D01*
X14266958Y-13713531D02*
X14276482Y-13732579D01*
X14276482Y-13732579D02*
X14286005Y-13770674D01*
X14286005Y-13770674D02*
X14286005Y-13818293D01*
X14286005Y-13818293D02*
X14276482Y-13856388D01*
X14276482Y-13856388D02*
X14266958Y-13875436D01*
X14266958Y-13875436D02*
X14257434Y-13884960D01*
X14257434Y-13884960D02*
X14238386Y-13894484D01*
X14238386Y-13894484D02*
X14219339Y-13894484D01*
X14219339Y-13894484D02*
X14200291Y-13884960D01*
X14200291Y-13884960D02*
X14190767Y-13875436D01*
X14190767Y-13875436D02*
X14181243Y-13856388D01*
X14181243Y-13856388D02*
X14171720Y-13818293D01*
X14171720Y-13818293D02*
X14171720Y-13770674D01*
X14171720Y-13770674D02*
X14181243Y-13732579D01*
X14181243Y-13732579D02*
X14190767Y-13713531D01*
X14190767Y-13713531D02*
X14200291Y-13704008D01*
X14200291Y-13704008D02*
X14219339Y-13694484D01*
X14371720Y-13894484D02*
X14371720Y-13761150D01*
X14371720Y-13780198D02*
X14381243Y-13770674D01*
X14381243Y-13770674D02*
X14400291Y-13761150D01*
X14400291Y-13761150D02*
X14428863Y-13761150D01*
X14428863Y-13761150D02*
X14447910Y-13770674D01*
X14447910Y-13770674D02*
X14457434Y-13789722D01*
X14457434Y-13789722D02*
X14457434Y-13894484D01*
X14457434Y-13789722D02*
X14466958Y-13770674D01*
X14466958Y-13770674D02*
X14486005Y-13761150D01*
X14486005Y-13761150D02*
X14514577Y-13761150D01*
X14514577Y-13761150D02*
X14533624Y-13770674D01*
X14533624Y-13770674D02*
X14543148Y-13789722D01*
X14543148Y-13789722D02*
X14543148Y-13894484D01*
X14638386Y-13894484D02*
X14638386Y-13761150D01*
X14638386Y-13780198D02*
X14647910Y-13770674D01*
X14647910Y-13770674D02*
X14666958Y-13761150D01*
X14666958Y-13761150D02*
X14695529Y-13761150D01*
X14695529Y-13761150D02*
X14714577Y-13770674D01*
X14714577Y-13770674D02*
X14724101Y-13789722D01*
X14724101Y-13789722D02*
X14724101Y-13894484D01*
X14724101Y-13789722D02*
X14733624Y-13770674D01*
X14733624Y-13770674D02*
X14752672Y-13761150D01*
X14752672Y-13761150D02*
X14781243Y-13761150D01*
X14781243Y-13761150D02*
X14800291Y-13770674D01*
X14800291Y-13770674D02*
X14809815Y-13789722D01*
X14809815Y-13789722D02*
X14809815Y-13894484D01*
X15200291Y-13684960D02*
X15028863Y-13942103D01*
X15457434Y-13694484D02*
X15476482Y-13694484D01*
X15476482Y-13694484D02*
X15495529Y-13704008D01*
X15495529Y-13704008D02*
X15505053Y-13713531D01*
X15505053Y-13713531D02*
X15514577Y-13732579D01*
X15514577Y-13732579D02*
X15524101Y-13770674D01*
X15524101Y-13770674D02*
X15524101Y-13818293D01*
X15524101Y-13818293D02*
X15514577Y-13856388D01*
X15514577Y-13856388D02*
X15505053Y-13875436D01*
X15505053Y-13875436D02*
X15495529Y-13884960D01*
X15495529Y-13884960D02*
X15476482Y-13894484D01*
X15476482Y-13894484D02*
X15457434Y-13894484D01*
X15457434Y-13894484D02*
X15438386Y-13884960D01*
X15438386Y-13884960D02*
X15428863Y-13875436D01*
X15428863Y-13875436D02*
X15419339Y-13856388D01*
X15419339Y-13856388D02*
X15409815Y-13818293D01*
X15409815Y-13818293D02*
X15409815Y-13770674D01*
X15409815Y-13770674D02*
X15419339Y-13732579D01*
X15419339Y-13732579D02*
X15428863Y-13713531D01*
X15428863Y-13713531D02*
X15438386Y-13704008D01*
X15438386Y-13704008D02*
X15457434Y-13694484D01*
X15609815Y-13875436D02*
X15619339Y-13884960D01*
X15619339Y-13884960D02*
X15609815Y-13894484D01*
X15609815Y-13894484D02*
X15600291Y-13884960D01*
X15600291Y-13884960D02*
X15609815Y-13875436D01*
X15609815Y-13875436D02*
X15609815Y-13894484D01*
X15743148Y-13694484D02*
X15762196Y-13694484D01*
X15762196Y-13694484D02*
X15781244Y-13704008D01*
X15781244Y-13704008D02*
X15790767Y-13713531D01*
X15790767Y-13713531D02*
X15800291Y-13732579D01*
X15800291Y-13732579D02*
X15809815Y-13770674D01*
X15809815Y-13770674D02*
X15809815Y-13818293D01*
X15809815Y-13818293D02*
X15800291Y-13856388D01*
X15800291Y-13856388D02*
X15790767Y-13875436D01*
X15790767Y-13875436D02*
X15781244Y-13884960D01*
X15781244Y-13884960D02*
X15762196Y-13894484D01*
X15762196Y-13894484D02*
X15743148Y-13894484D01*
X15743148Y-13894484D02*
X15724101Y-13884960D01*
X15724101Y-13884960D02*
X15714577Y-13875436D01*
X15714577Y-13875436D02*
X15705053Y-13856388D01*
X15705053Y-13856388D02*
X15695529Y-13818293D01*
X15695529Y-13818293D02*
X15695529Y-13770674D01*
X15695529Y-13770674D02*
X15705053Y-13732579D01*
X15705053Y-13732579D02*
X15714577Y-13713531D01*
X15714577Y-13713531D02*
X15724101Y-13704008D01*
X15724101Y-13704008D02*
X15743148Y-13694484D01*
X16000291Y-13894484D02*
X15886006Y-13894484D01*
X15943148Y-13894484D02*
X15943148Y-13694484D01*
X15943148Y-13694484D02*
X15924101Y-13723055D01*
X15924101Y-13723055D02*
X15905053Y-13742103D01*
X15905053Y-13742103D02*
X15886006Y-13751627D01*
X16190767Y-13894484D02*
X16076482Y-13894484D01*
X16133625Y-13894484D02*
X16133625Y-13694484D01*
X16133625Y-13694484D02*
X16114577Y-13723055D01*
X16114577Y-13723055D02*
X16095529Y-13742103D01*
X16095529Y-13742103D02*
X16076482Y-13751627D01*
X16305053Y-13780198D02*
X16286006Y-13770674D01*
X16286006Y-13770674D02*
X16276482Y-13761150D01*
X16276482Y-13761150D02*
X16266958Y-13742103D01*
X16266958Y-13742103D02*
X16266958Y-13732579D01*
X16266958Y-13732579D02*
X16276482Y-13713531D01*
X16276482Y-13713531D02*
X16286006Y-13704008D01*
X16286006Y-13704008D02*
X16305053Y-13694484D01*
X16305053Y-13694484D02*
X16343148Y-13694484D01*
X16343148Y-13694484D02*
X16362196Y-13704008D01*
X16362196Y-13704008D02*
X16371720Y-13713531D01*
X16371720Y-13713531D02*
X16381244Y-13732579D01*
X16381244Y-13732579D02*
X16381244Y-13742103D01*
X16381244Y-13742103D02*
X16371720Y-13761150D01*
X16371720Y-13761150D02*
X16362196Y-13770674D01*
X16362196Y-13770674D02*
X16343148Y-13780198D01*
X16343148Y-13780198D02*
X16305053Y-13780198D01*
X16305053Y-13780198D02*
X16286006Y-13789722D01*
X16286006Y-13789722D02*
X16276482Y-13799246D01*
X16276482Y-13799246D02*
X16266958Y-13818293D01*
X16266958Y-13818293D02*
X16266958Y-13856388D01*
X16266958Y-13856388D02*
X16276482Y-13875436D01*
X16276482Y-13875436D02*
X16286006Y-13884960D01*
X16286006Y-13884960D02*
X16305053Y-13894484D01*
X16305053Y-13894484D02*
X16343148Y-13894484D01*
X16343148Y-13894484D02*
X16362196Y-13884960D01*
X16362196Y-13884960D02*
X16371720Y-13875436D01*
X16371720Y-13875436D02*
X16381244Y-13856388D01*
X16381244Y-13856388D02*
X16381244Y-13818293D01*
X16381244Y-13818293D02*
X16371720Y-13799246D01*
X16371720Y-13799246D02*
X16362196Y-13789722D01*
X16362196Y-13789722D02*
X16343148Y-13780198D01*
X16457434Y-13694484D02*
X16457434Y-13732579D01*
X16533625Y-13694484D02*
X16533625Y-13732579D01*
X16828863Y-13970674D02*
X16819339Y-13961150D01*
X16819339Y-13961150D02*
X16800291Y-13932579D01*
X16800291Y-13932579D02*
X16790768Y-13913531D01*
X16790768Y-13913531D02*
X16781244Y-13884960D01*
X16781244Y-13884960D02*
X16771720Y-13837341D01*
X16771720Y-13837341D02*
X16771720Y-13799246D01*
X16771720Y-13799246D02*
X16781244Y-13751627D01*
X16781244Y-13751627D02*
X16790768Y-13723055D01*
X16790768Y-13723055D02*
X16800291Y-13704008D01*
X16800291Y-13704008D02*
X16819339Y-13675436D01*
X16819339Y-13675436D02*
X16828863Y-13665912D01*
X17009815Y-13894484D02*
X16895530Y-13894484D01*
X16952672Y-13894484D02*
X16952672Y-13694484D01*
X16952672Y-13694484D02*
X16933625Y-13723055D01*
X16933625Y-13723055D02*
X16914577Y-13742103D01*
X16914577Y-13742103D02*
X16895530Y-13751627D01*
X17200291Y-13894484D02*
X17086006Y-13894484D01*
X17143149Y-13894484D02*
X17143149Y-13694484D01*
X17143149Y-13694484D02*
X17124101Y-13723055D01*
X17124101Y-13723055D02*
X17105053Y-13742103D01*
X17105053Y-13742103D02*
X17086006Y-13751627D01*
X17438387Y-13894484D02*
X17438387Y-13694484D01*
X17524101Y-13894484D02*
X17524101Y-13789722D01*
X17524101Y-13789722D02*
X17514577Y-13770674D01*
X17514577Y-13770674D02*
X17495530Y-13761150D01*
X17495530Y-13761150D02*
X17466958Y-13761150D01*
X17466958Y-13761150D02*
X17447911Y-13770674D01*
X17447911Y-13770674D02*
X17438387Y-13780198D01*
X17647911Y-13894484D02*
X17628863Y-13884960D01*
X17628863Y-13884960D02*
X17619339Y-13875436D01*
X17619339Y-13875436D02*
X17609815Y-13856388D01*
X17609815Y-13856388D02*
X17609815Y-13799246D01*
X17609815Y-13799246D02*
X17619339Y-13780198D01*
X17619339Y-13780198D02*
X17628863Y-13770674D01*
X17628863Y-13770674D02*
X17647911Y-13761150D01*
X17647911Y-13761150D02*
X17676482Y-13761150D01*
X17676482Y-13761150D02*
X17695530Y-13770674D01*
X17695530Y-13770674D02*
X17705053Y-13780198D01*
X17705053Y-13780198D02*
X17714577Y-13799246D01*
X17714577Y-13799246D02*
X17714577Y-13856388D01*
X17714577Y-13856388D02*
X17705053Y-13875436D01*
X17705053Y-13875436D02*
X17695530Y-13884960D01*
X17695530Y-13884960D02*
X17676482Y-13894484D01*
X17676482Y-13894484D02*
X17647911Y-13894484D01*
X17828863Y-13894484D02*
X17809815Y-13884960D01*
X17809815Y-13884960D02*
X17800292Y-13865912D01*
X17800292Y-13865912D02*
X17800292Y-13694484D01*
X17981244Y-13884960D02*
X17962196Y-13894484D01*
X17962196Y-13894484D02*
X17924101Y-13894484D01*
X17924101Y-13894484D02*
X17905053Y-13884960D01*
X17905053Y-13884960D02*
X17895530Y-13865912D01*
X17895530Y-13865912D02*
X17895530Y-13789722D01*
X17895530Y-13789722D02*
X17905053Y-13770674D01*
X17905053Y-13770674D02*
X17924101Y-13761150D01*
X17924101Y-13761150D02*
X17962196Y-13761150D01*
X17962196Y-13761150D02*
X17981244Y-13770674D01*
X17981244Y-13770674D02*
X17990768Y-13789722D01*
X17990768Y-13789722D02*
X17990768Y-13808769D01*
X17990768Y-13808769D02*
X17895530Y-13827817D01*
X18066958Y-13884960D02*
X18086006Y-13894484D01*
X18086006Y-13894484D02*
X18124101Y-13894484D01*
X18124101Y-13894484D02*
X18143149Y-13884960D01*
X18143149Y-13884960D02*
X18152673Y-13865912D01*
X18152673Y-13865912D02*
X18152673Y-13856388D01*
X18152673Y-13856388D02*
X18143149Y-13837341D01*
X18143149Y-13837341D02*
X18124101Y-13827817D01*
X18124101Y-13827817D02*
X18095530Y-13827817D01*
X18095530Y-13827817D02*
X18076482Y-13818293D01*
X18076482Y-13818293D02*
X18066958Y-13799246D01*
X18066958Y-13799246D02*
X18066958Y-13789722D01*
X18066958Y-13789722D02*
X18076482Y-13770674D01*
X18076482Y-13770674D02*
X18095530Y-13761150D01*
X18095530Y-13761150D02*
X18124101Y-13761150D01*
X18124101Y-13761150D02*
X18143149Y-13770674D01*
X18219339Y-13970674D02*
X18228863Y-13961150D01*
X18228863Y-13961150D02*
X18247911Y-13932579D01*
X18247911Y-13932579D02*
X18257434Y-13913531D01*
X18257434Y-13913531D02*
X18266958Y-13884960D01*
X18266958Y-13884960D02*
X18276482Y-13837341D01*
X18276482Y-13837341D02*
X18276482Y-13799246D01*
X18276482Y-13799246D02*
X18266958Y-13751627D01*
X18266958Y-13751627D02*
X18257434Y-13723055D01*
X18257434Y-13723055D02*
X18247911Y-13704008D01*
X18247911Y-13704008D02*
X18228863Y-13675436D01*
X18228863Y-13675436D02*
X18219339Y-13665912D01*
D10*
X13253800Y-14067000D02*
G75*
G02*
X13193800Y-14067000I-30000J0D01*
G01*
X13193800Y-14067000D02*
G75*
G02*
X13253800Y-14067000I30000J0D01*
G01*
D11*
X13552672Y-13958484D02*
X13571720Y-13958484D01*
X13571720Y-13958484D02*
X13590767Y-13968008D01*
X13590767Y-13968008D02*
X13600291Y-13977531D01*
X13600291Y-13977531D02*
X13609815Y-13996579D01*
X13609815Y-13996579D02*
X13619339Y-14034674D01*
X13619339Y-14034674D02*
X13619339Y-14082293D01*
X13619339Y-14082293D02*
X13609815Y-14120388D01*
X13609815Y-14120388D02*
X13600291Y-14139436D01*
X13600291Y-14139436D02*
X13590767Y-14148960D01*
X13590767Y-14148960D02*
X13571720Y-14158484D01*
X13571720Y-14158484D02*
X13552672Y-14158484D01*
X13552672Y-14158484D02*
X13533624Y-14148960D01*
X13533624Y-14148960D02*
X13524101Y-14139436D01*
X13524101Y-14139436D02*
X13514577Y-14120388D01*
X13514577Y-14120388D02*
X13505053Y-14082293D01*
X13505053Y-14082293D02*
X13505053Y-14034674D01*
X13505053Y-14034674D02*
X13514577Y-13996579D01*
X13514577Y-13996579D02*
X13524101Y-13977531D01*
X13524101Y-13977531D02*
X13533624Y-13968008D01*
X13533624Y-13968008D02*
X13552672Y-13958484D01*
X13705053Y-14139436D02*
X13714577Y-14148960D01*
X13714577Y-14148960D02*
X13705053Y-14158484D01*
X13705053Y-14158484D02*
X13695529Y-14148960D01*
X13695529Y-14148960D02*
X13705053Y-14139436D01*
X13705053Y-14139436D02*
X13705053Y-14158484D01*
X13886005Y-13958484D02*
X13847910Y-13958484D01*
X13847910Y-13958484D02*
X13828862Y-13968008D01*
X13828862Y-13968008D02*
X13819339Y-13977531D01*
X13819339Y-13977531D02*
X13800291Y-14006103D01*
X13800291Y-14006103D02*
X13790767Y-14044198D01*
X13790767Y-14044198D02*
X13790767Y-14120388D01*
X13790767Y-14120388D02*
X13800291Y-14139436D01*
X13800291Y-14139436D02*
X13809815Y-14148960D01*
X13809815Y-14148960D02*
X13828862Y-14158484D01*
X13828862Y-14158484D02*
X13866958Y-14158484D01*
X13866958Y-14158484D02*
X13886005Y-14148960D01*
X13886005Y-14148960D02*
X13895529Y-14139436D01*
X13895529Y-14139436D02*
X13905053Y-14120388D01*
X13905053Y-14120388D02*
X13905053Y-14072769D01*
X13905053Y-14072769D02*
X13895529Y-14053722D01*
X13895529Y-14053722D02*
X13886005Y-14044198D01*
X13886005Y-14044198D02*
X13866958Y-14034674D01*
X13866958Y-14034674D02*
X13828862Y-14034674D01*
X13828862Y-14034674D02*
X13809815Y-14044198D01*
X13809815Y-14044198D02*
X13800291Y-14053722D01*
X13800291Y-14053722D02*
X13790767Y-14072769D01*
X14028862Y-13958484D02*
X14047910Y-13958484D01*
X14047910Y-13958484D02*
X14066958Y-13968008D01*
X14066958Y-13968008D02*
X14076482Y-13977531D01*
X14076482Y-13977531D02*
X14086005Y-13996579D01*
X14086005Y-13996579D02*
X14095529Y-14034674D01*
X14095529Y-14034674D02*
X14095529Y-14082293D01*
X14095529Y-14082293D02*
X14086005Y-14120388D01*
X14086005Y-14120388D02*
X14076482Y-14139436D01*
X14076482Y-14139436D02*
X14066958Y-14148960D01*
X14066958Y-14148960D02*
X14047910Y-14158484D01*
X14047910Y-14158484D02*
X14028862Y-14158484D01*
X14028862Y-14158484D02*
X14009815Y-14148960D01*
X14009815Y-14148960D02*
X14000291Y-14139436D01*
X14000291Y-14139436D02*
X13990767Y-14120388D01*
X13990767Y-14120388D02*
X13981243Y-14082293D01*
X13981243Y-14082293D02*
X13981243Y-14034674D01*
X13981243Y-14034674D02*
X13990767Y-13996579D01*
X13990767Y-13996579D02*
X14000291Y-13977531D01*
X14000291Y-13977531D02*
X14009815Y-13968008D01*
X14009815Y-13968008D02*
X14028862Y-13958484D01*
X14219339Y-13958484D02*
X14238386Y-13958484D01*
X14238386Y-13958484D02*
X14257434Y-13968008D01*
X14257434Y-13968008D02*
X14266958Y-13977531D01*
X14266958Y-13977531D02*
X14276482Y-13996579D01*
X14276482Y-13996579D02*
X14286005Y-14034674D01*
X14286005Y-14034674D02*
X14286005Y-14082293D01*
X14286005Y-14082293D02*
X14276482Y-14120388D01*
X14276482Y-14120388D02*
X14266958Y-14139436D01*
X14266958Y-14139436D02*
X14257434Y-14148960D01*
X14257434Y-14148960D02*
X14238386Y-14158484D01*
X14238386Y-14158484D02*
X14219339Y-14158484D01*
X14219339Y-14158484D02*
X14200291Y-14148960D01*
X14200291Y-14148960D02*
X14190767Y-14139436D01*
X14190767Y-14139436D02*
X14181243Y-14120388D01*
X14181243Y-14120388D02*
X14171720Y-14082293D01*
X14171720Y-14082293D02*
X14171720Y-14034674D01*
X14171720Y-14034674D02*
X14181243Y-13996579D01*
X14181243Y-13996579D02*
X14190767Y-13977531D01*
X14190767Y-13977531D02*
X14200291Y-13968008D01*
X14200291Y-13968008D02*
X14219339Y-13958484D01*
X14371720Y-14158484D02*
X14371720Y-14025150D01*
X14371720Y-14044198D02*
X14381243Y-14034674D01*
X14381243Y-14034674D02*
X14400291Y-14025150D01*
X14400291Y-14025150D02*
X14428863Y-14025150D01*
X14428863Y-14025150D02*
X14447910Y-14034674D01*
X14447910Y-14034674D02*
X14457434Y-14053722D01*
X14457434Y-14053722D02*
X14457434Y-14158484D01*
X14457434Y-14053722D02*
X14466958Y-14034674D01*
X14466958Y-14034674D02*
X14486005Y-14025150D01*
X14486005Y-14025150D02*
X14514577Y-14025150D01*
X14514577Y-14025150D02*
X14533624Y-14034674D01*
X14533624Y-14034674D02*
X14543148Y-14053722D01*
X14543148Y-14053722D02*
X14543148Y-14158484D01*
X14638386Y-14158484D02*
X14638386Y-14025150D01*
X14638386Y-14044198D02*
X14647910Y-14034674D01*
X14647910Y-14034674D02*
X14666958Y-14025150D01*
X14666958Y-14025150D02*
X14695529Y-14025150D01*
X14695529Y-14025150D02*
X14714577Y-14034674D01*
X14714577Y-14034674D02*
X14724101Y-14053722D01*
X14724101Y-14053722D02*
X14724101Y-14158484D01*
X14724101Y-14053722D02*
X14733624Y-14034674D01*
X14733624Y-14034674D02*
X14752672Y-14025150D01*
X14752672Y-14025150D02*
X14781243Y-14025150D01*
X14781243Y-14025150D02*
X14800291Y-14034674D01*
X14800291Y-14034674D02*
X14809815Y-14053722D01*
X14809815Y-14053722D02*
X14809815Y-14158484D01*
X15200291Y-13948960D02*
X15028863Y-14206103D01*
X15457434Y-13958484D02*
X15476482Y-13958484D01*
X15476482Y-13958484D02*
X15495529Y-13968008D01*
X15495529Y-13968008D02*
X15505053Y-13977531D01*
X15505053Y-13977531D02*
X15514577Y-13996579D01*
X15514577Y-13996579D02*
X15524101Y-14034674D01*
X15524101Y-14034674D02*
X15524101Y-14082293D01*
X15524101Y-14082293D02*
X15514577Y-14120388D01*
X15514577Y-14120388D02*
X15505053Y-14139436D01*
X15505053Y-14139436D02*
X15495529Y-14148960D01*
X15495529Y-14148960D02*
X15476482Y-14158484D01*
X15476482Y-14158484D02*
X15457434Y-14158484D01*
X15457434Y-14158484D02*
X15438386Y-14148960D01*
X15438386Y-14148960D02*
X15428863Y-14139436D01*
X15428863Y-14139436D02*
X15419339Y-14120388D01*
X15419339Y-14120388D02*
X15409815Y-14082293D01*
X15409815Y-14082293D02*
X15409815Y-14034674D01*
X15409815Y-14034674D02*
X15419339Y-13996579D01*
X15419339Y-13996579D02*
X15428863Y-13977531D01*
X15428863Y-13977531D02*
X15438386Y-13968008D01*
X15438386Y-13968008D02*
X15457434Y-13958484D01*
X15609815Y-14139436D02*
X15619339Y-14148960D01*
X15619339Y-14148960D02*
X15609815Y-14158484D01*
X15609815Y-14158484D02*
X15600291Y-14148960D01*
X15600291Y-14148960D02*
X15609815Y-14139436D01*
X15609815Y-14139436D02*
X15609815Y-14158484D01*
X15743148Y-13958484D02*
X15762196Y-13958484D01*
X15762196Y-13958484D02*
X15781244Y-13968008D01*
X15781244Y-13968008D02*
X15790767Y-13977531D01*
X15790767Y-13977531D02*
X15800291Y-13996579D01*
X15800291Y-13996579D02*
X15809815Y-14034674D01*
X15809815Y-14034674D02*
X15809815Y-14082293D01*
X15809815Y-14082293D02*
X15800291Y-14120388D01*
X15800291Y-14120388D02*
X15790767Y-14139436D01*
X15790767Y-14139436D02*
X15781244Y-14148960D01*
X15781244Y-14148960D02*
X15762196Y-14158484D01*
X15762196Y-14158484D02*
X15743148Y-14158484D01*
X15743148Y-14158484D02*
X15724101Y-14148960D01*
X15724101Y-14148960D02*
X15714577Y-14139436D01*
X15714577Y-14139436D02*
X15705053Y-14120388D01*
X15705053Y-14120388D02*
X15695529Y-14082293D01*
X15695529Y-14082293D02*
X15695529Y-14034674D01*
X15695529Y-14034674D02*
X15705053Y-13996579D01*
X15705053Y-13996579D02*
X15714577Y-13977531D01*
X15714577Y-13977531D02*
X15724101Y-13968008D01*
X15724101Y-13968008D02*
X15743148Y-13958484D01*
X15886006Y-13977531D02*
X15895529Y-13968008D01*
X15895529Y-13968008D02*
X15914577Y-13958484D01*
X15914577Y-13958484D02*
X15962196Y-13958484D01*
X15962196Y-13958484D02*
X15981244Y-13968008D01*
X15981244Y-13968008D02*
X15990767Y-13977531D01*
X15990767Y-13977531D02*
X16000291Y-13996579D01*
X16000291Y-13996579D02*
X16000291Y-14015627D01*
X16000291Y-14015627D02*
X15990767Y-14044198D01*
X15990767Y-14044198D02*
X15876482Y-14158484D01*
X15876482Y-14158484D02*
X16000291Y-14158484D01*
X16066958Y-13958484D02*
X16190767Y-13958484D01*
X16190767Y-13958484D02*
X16124101Y-14034674D01*
X16124101Y-14034674D02*
X16152672Y-14034674D01*
X16152672Y-14034674D02*
X16171720Y-14044198D01*
X16171720Y-14044198D02*
X16181244Y-14053722D01*
X16181244Y-14053722D02*
X16190767Y-14072769D01*
X16190767Y-14072769D02*
X16190767Y-14120388D01*
X16190767Y-14120388D02*
X16181244Y-14139436D01*
X16181244Y-14139436D02*
X16171720Y-14148960D01*
X16171720Y-14148960D02*
X16152672Y-14158484D01*
X16152672Y-14158484D02*
X16095529Y-14158484D01*
X16095529Y-14158484D02*
X16076482Y-14148960D01*
X16076482Y-14148960D02*
X16066958Y-14139436D01*
X16362196Y-13958484D02*
X16324101Y-13958484D01*
X16324101Y-13958484D02*
X16305053Y-13968008D01*
X16305053Y-13968008D02*
X16295529Y-13977531D01*
X16295529Y-13977531D02*
X16276482Y-14006103D01*
X16276482Y-14006103D02*
X16266958Y-14044198D01*
X16266958Y-14044198D02*
X16266958Y-14120388D01*
X16266958Y-14120388D02*
X16276482Y-14139436D01*
X16276482Y-14139436D02*
X16286006Y-14148960D01*
X16286006Y-14148960D02*
X16305053Y-14158484D01*
X16305053Y-14158484D02*
X16343148Y-14158484D01*
X16343148Y-14158484D02*
X16362196Y-14148960D01*
X16362196Y-14148960D02*
X16371720Y-14139436D01*
X16371720Y-14139436D02*
X16381244Y-14120388D01*
X16381244Y-14120388D02*
X16381244Y-14072769D01*
X16381244Y-14072769D02*
X16371720Y-14053722D01*
X16371720Y-14053722D02*
X16362196Y-14044198D01*
X16362196Y-14044198D02*
X16343148Y-14034674D01*
X16343148Y-14034674D02*
X16305053Y-14034674D01*
X16305053Y-14034674D02*
X16286006Y-14044198D01*
X16286006Y-14044198D02*
X16276482Y-14053722D01*
X16276482Y-14053722D02*
X16266958Y-14072769D01*
X16457434Y-13958484D02*
X16457434Y-13996579D01*
X16533625Y-13958484D02*
X16533625Y-13996579D01*
X16828863Y-14234674D02*
X16819339Y-14225150D01*
X16819339Y-14225150D02*
X16800291Y-14196579D01*
X16800291Y-14196579D02*
X16790768Y-14177531D01*
X16790768Y-14177531D02*
X16781244Y-14148960D01*
X16781244Y-14148960D02*
X16771720Y-14101341D01*
X16771720Y-14101341D02*
X16771720Y-14063246D01*
X16771720Y-14063246D02*
X16781244Y-14015627D01*
X16781244Y-14015627D02*
X16790768Y-13987055D01*
X16790768Y-13987055D02*
X16800291Y-13968008D01*
X16800291Y-13968008D02*
X16819339Y-13939436D01*
X16819339Y-13939436D02*
X16828863Y-13929912D01*
X16990768Y-14025150D02*
X16990768Y-14158484D01*
X16943149Y-13948960D02*
X16895530Y-14091817D01*
X16895530Y-14091817D02*
X17019339Y-14091817D01*
X17133625Y-13958484D02*
X17152672Y-13958484D01*
X17152672Y-13958484D02*
X17171720Y-13968008D01*
X17171720Y-13968008D02*
X17181244Y-13977531D01*
X17181244Y-13977531D02*
X17190768Y-13996579D01*
X17190768Y-13996579D02*
X17200291Y-14034674D01*
X17200291Y-14034674D02*
X17200291Y-14082293D01*
X17200291Y-14082293D02*
X17190768Y-14120388D01*
X17190768Y-14120388D02*
X17181244Y-14139436D01*
X17181244Y-14139436D02*
X17171720Y-14148960D01*
X17171720Y-14148960D02*
X17152672Y-14158484D01*
X17152672Y-14158484D02*
X17133625Y-14158484D01*
X17133625Y-14158484D02*
X17114577Y-14148960D01*
X17114577Y-14148960D02*
X17105053Y-14139436D01*
X17105053Y-14139436D02*
X17095530Y-14120388D01*
X17095530Y-14120388D02*
X17086006Y-14082293D01*
X17086006Y-14082293D02*
X17086006Y-14034674D01*
X17086006Y-14034674D02*
X17095530Y-13996579D01*
X17095530Y-13996579D02*
X17105053Y-13977531D01*
X17105053Y-13977531D02*
X17114577Y-13968008D01*
X17114577Y-13968008D02*
X17133625Y-13958484D01*
X17438387Y-14158484D02*
X17438387Y-13958484D01*
X17524101Y-14158484D02*
X17524101Y-14053722D01*
X17524101Y-14053722D02*
X17514577Y-14034674D01*
X17514577Y-14034674D02*
X17495530Y-14025150D01*
X17495530Y-14025150D02*
X17466958Y-14025150D01*
X17466958Y-14025150D02*
X17447911Y-14034674D01*
X17447911Y-14034674D02*
X17438387Y-14044198D01*
X17647911Y-14158484D02*
X17628863Y-14148960D01*
X17628863Y-14148960D02*
X17619339Y-14139436D01*
X17619339Y-14139436D02*
X17609815Y-14120388D01*
X17609815Y-14120388D02*
X17609815Y-14063246D01*
X17609815Y-14063246D02*
X17619339Y-14044198D01*
X17619339Y-14044198D02*
X17628863Y-14034674D01*
X17628863Y-14034674D02*
X17647911Y-14025150D01*
X17647911Y-14025150D02*
X17676482Y-14025150D01*
X17676482Y-14025150D02*
X17695530Y-14034674D01*
X17695530Y-14034674D02*
X17705053Y-14044198D01*
X17705053Y-14044198D02*
X17714577Y-14063246D01*
X17714577Y-14063246D02*
X17714577Y-14120388D01*
X17714577Y-14120388D02*
X17705053Y-14139436D01*
X17705053Y-14139436D02*
X17695530Y-14148960D01*
X17695530Y-14148960D02*
X17676482Y-14158484D01*
X17676482Y-14158484D02*
X17647911Y-14158484D01*
X17828863Y-14158484D02*
X17809815Y-14148960D01*
X17809815Y-14148960D02*
X17800292Y-14129912D01*
X17800292Y-14129912D02*
X17800292Y-13958484D01*
X17981244Y-14148960D02*
X17962196Y-14158484D01*
X17962196Y-14158484D02*
X17924101Y-14158484D01*
X17924101Y-14158484D02*
X17905053Y-14148960D01*
X17905053Y-14148960D02*
X17895530Y-14129912D01*
X17895530Y-14129912D02*
X17895530Y-14053722D01*
X17895530Y-14053722D02*
X17905053Y-14034674D01*
X17905053Y-14034674D02*
X17924101Y-14025150D01*
X17924101Y-14025150D02*
X17962196Y-14025150D01*
X17962196Y-14025150D02*
X17981244Y-14034674D01*
X17981244Y-14034674D02*
X17990768Y-14053722D01*
X17990768Y-14053722D02*
X17990768Y-14072769D01*
X17990768Y-14072769D02*
X17895530Y-14091817D01*
X18066958Y-14148960D02*
X18086006Y-14158484D01*
X18086006Y-14158484D02*
X18124101Y-14158484D01*
X18124101Y-14158484D02*
X18143149Y-14148960D01*
X18143149Y-14148960D02*
X18152673Y-14129912D01*
X18152673Y-14129912D02*
X18152673Y-14120388D01*
X18152673Y-14120388D02*
X18143149Y-14101341D01*
X18143149Y-14101341D02*
X18124101Y-14091817D01*
X18124101Y-14091817D02*
X18095530Y-14091817D01*
X18095530Y-14091817D02*
X18076482Y-14082293D01*
X18076482Y-14082293D02*
X18066958Y-14063246D01*
X18066958Y-14063246D02*
X18066958Y-14053722D01*
X18066958Y-14053722D02*
X18076482Y-14034674D01*
X18076482Y-14034674D02*
X18095530Y-14025150D01*
X18095530Y-14025150D02*
X18124101Y-14025150D01*
X18124101Y-14025150D02*
X18143149Y-14034674D01*
X18390768Y-14082293D02*
X18543149Y-14082293D01*
X18466958Y-14158484D02*
X18466958Y-14006103D01*
X18876482Y-14025150D02*
X18876482Y-14158484D01*
X18828863Y-13948960D02*
X18781244Y-14091817D01*
X18781244Y-14091817D02*
X18905054Y-14091817D01*
X19124101Y-14148960D02*
X19143149Y-14158484D01*
X19143149Y-14158484D02*
X19181244Y-14158484D01*
X19181244Y-14158484D02*
X19200292Y-14148960D01*
X19200292Y-14148960D02*
X19209816Y-14129912D01*
X19209816Y-14129912D02*
X19209816Y-14120388D01*
X19209816Y-14120388D02*
X19200292Y-14101341D01*
X19200292Y-14101341D02*
X19181244Y-14091817D01*
X19181244Y-14091817D02*
X19152673Y-14091817D01*
X19152673Y-14091817D02*
X19133625Y-14082293D01*
X19133625Y-14082293D02*
X19124101Y-14063246D01*
X19124101Y-14063246D02*
X19124101Y-14053722D01*
X19124101Y-14053722D02*
X19133625Y-14034674D01*
X19133625Y-14034674D02*
X19152673Y-14025150D01*
X19152673Y-14025150D02*
X19181244Y-14025150D01*
X19181244Y-14025150D02*
X19200292Y-14034674D01*
X19324101Y-14158484D02*
X19305054Y-14148960D01*
X19305054Y-14148960D02*
X19295530Y-14129912D01*
X19295530Y-14129912D02*
X19295530Y-13958484D01*
X19428863Y-14158484D02*
X19409816Y-14148960D01*
X19409816Y-14148960D02*
X19400292Y-14139436D01*
X19400292Y-14139436D02*
X19390768Y-14120388D01*
X19390768Y-14120388D02*
X19390768Y-14063246D01*
X19390768Y-14063246D02*
X19400292Y-14044198D01*
X19400292Y-14044198D02*
X19409816Y-14034674D01*
X19409816Y-14034674D02*
X19428863Y-14025150D01*
X19428863Y-14025150D02*
X19457435Y-14025150D01*
X19457435Y-14025150D02*
X19476482Y-14034674D01*
X19476482Y-14034674D02*
X19486006Y-14044198D01*
X19486006Y-14044198D02*
X19495530Y-14063246D01*
X19495530Y-14063246D02*
X19495530Y-14120388D01*
X19495530Y-14120388D02*
X19486006Y-14139436D01*
X19486006Y-14139436D02*
X19476482Y-14148960D01*
X19476482Y-14148960D02*
X19457435Y-14158484D01*
X19457435Y-14158484D02*
X19428863Y-14158484D01*
X19552673Y-14025150D02*
X19628863Y-14025150D01*
X19581244Y-13958484D02*
X19581244Y-14129912D01*
X19581244Y-14129912D02*
X19590768Y-14148960D01*
X19590768Y-14148960D02*
X19609816Y-14158484D01*
X19609816Y-14158484D02*
X19628863Y-14158484D01*
X19686006Y-14148960D02*
X19705054Y-14158484D01*
X19705054Y-14158484D02*
X19743149Y-14158484D01*
X19743149Y-14158484D02*
X19762197Y-14148960D01*
X19762197Y-14148960D02*
X19771720Y-14129912D01*
X19771720Y-14129912D02*
X19771720Y-14120388D01*
X19771720Y-14120388D02*
X19762197Y-14101341D01*
X19762197Y-14101341D02*
X19743149Y-14091817D01*
X19743149Y-14091817D02*
X19714577Y-14091817D01*
X19714577Y-14091817D02*
X19695530Y-14082293D01*
X19695530Y-14082293D02*
X19686006Y-14063246D01*
X19686006Y-14063246D02*
X19686006Y-14053722D01*
X19686006Y-14053722D02*
X19695530Y-14034674D01*
X19695530Y-14034674D02*
X19714577Y-14025150D01*
X19714577Y-14025150D02*
X19743149Y-14025150D01*
X19743149Y-14025150D02*
X19762197Y-14034674D01*
X19838387Y-14234674D02*
X19847911Y-14225150D01*
X19847911Y-14225150D02*
X19866958Y-14196579D01*
X19866958Y-14196579D02*
X19876482Y-14177531D01*
X19876482Y-14177531D02*
X19886006Y-14148960D01*
X19886006Y-14148960D02*
X19895530Y-14101341D01*
X19895530Y-14101341D02*
X19895530Y-14063246D01*
X19895530Y-14063246D02*
X19886006Y-14015627D01*
X19886006Y-14015627D02*
X19876482Y-13987055D01*
X19876482Y-13987055D02*
X19866958Y-13968008D01*
X19866958Y-13968008D02*
X19847911Y-13939436D01*
X19847911Y-13939436D02*
X19838387Y-13929912D01*
D10*
X13221300Y-14298500D02*
X13221300Y-14363500D01*
X13188800Y-14331000D02*
X13253800Y-14331000D01*
D11*
X13552672Y-14222484D02*
X13571720Y-14222484D01*
X13571720Y-14222484D02*
X13590767Y-14232008D01*
X13590767Y-14232008D02*
X13600291Y-14241531D01*
X13600291Y-14241531D02*
X13609815Y-14260579D01*
X13609815Y-14260579D02*
X13619339Y-14298674D01*
X13619339Y-14298674D02*
X13619339Y-14346293D01*
X13619339Y-14346293D02*
X13609815Y-14384388D01*
X13609815Y-14384388D02*
X13600291Y-14403436D01*
X13600291Y-14403436D02*
X13590767Y-14412960D01*
X13590767Y-14412960D02*
X13571720Y-14422484D01*
X13571720Y-14422484D02*
X13552672Y-14422484D01*
X13552672Y-14422484D02*
X13533624Y-14412960D01*
X13533624Y-14412960D02*
X13524101Y-14403436D01*
X13524101Y-14403436D02*
X13514577Y-14384388D01*
X13514577Y-14384388D02*
X13505053Y-14346293D01*
X13505053Y-14346293D02*
X13505053Y-14298674D01*
X13505053Y-14298674D02*
X13514577Y-14260579D01*
X13514577Y-14260579D02*
X13524101Y-14241531D01*
X13524101Y-14241531D02*
X13533624Y-14232008D01*
X13533624Y-14232008D02*
X13552672Y-14222484D01*
X13705053Y-14403436D02*
X13714577Y-14412960D01*
X13714577Y-14412960D02*
X13705053Y-14422484D01*
X13705053Y-14422484D02*
X13695529Y-14412960D01*
X13695529Y-14412960D02*
X13705053Y-14403436D01*
X13705053Y-14403436D02*
X13705053Y-14422484D01*
X13886005Y-14222484D02*
X13847910Y-14222484D01*
X13847910Y-14222484D02*
X13828862Y-14232008D01*
X13828862Y-14232008D02*
X13819339Y-14241531D01*
X13819339Y-14241531D02*
X13800291Y-14270103D01*
X13800291Y-14270103D02*
X13790767Y-14308198D01*
X13790767Y-14308198D02*
X13790767Y-14384388D01*
X13790767Y-14384388D02*
X13800291Y-14403436D01*
X13800291Y-14403436D02*
X13809815Y-14412960D01*
X13809815Y-14412960D02*
X13828862Y-14422484D01*
X13828862Y-14422484D02*
X13866958Y-14422484D01*
X13866958Y-14422484D02*
X13886005Y-14412960D01*
X13886005Y-14412960D02*
X13895529Y-14403436D01*
X13895529Y-14403436D02*
X13905053Y-14384388D01*
X13905053Y-14384388D02*
X13905053Y-14336769D01*
X13905053Y-14336769D02*
X13895529Y-14317722D01*
X13895529Y-14317722D02*
X13886005Y-14308198D01*
X13886005Y-14308198D02*
X13866958Y-14298674D01*
X13866958Y-14298674D02*
X13828862Y-14298674D01*
X13828862Y-14298674D02*
X13809815Y-14308198D01*
X13809815Y-14308198D02*
X13800291Y-14317722D01*
X13800291Y-14317722D02*
X13790767Y-14336769D01*
X14086005Y-14222484D02*
X13990767Y-14222484D01*
X13990767Y-14222484D02*
X13981243Y-14317722D01*
X13981243Y-14317722D02*
X13990767Y-14308198D01*
X13990767Y-14308198D02*
X14009815Y-14298674D01*
X14009815Y-14298674D02*
X14057434Y-14298674D01*
X14057434Y-14298674D02*
X14076482Y-14308198D01*
X14076482Y-14308198D02*
X14086005Y-14317722D01*
X14086005Y-14317722D02*
X14095529Y-14336769D01*
X14095529Y-14336769D02*
X14095529Y-14384388D01*
X14095529Y-14384388D02*
X14086005Y-14403436D01*
X14086005Y-14403436D02*
X14076482Y-14412960D01*
X14076482Y-14412960D02*
X14057434Y-14422484D01*
X14057434Y-14422484D02*
X14009815Y-14422484D01*
X14009815Y-14422484D02*
X13990767Y-14412960D01*
X13990767Y-14412960D02*
X13981243Y-14403436D01*
X14219339Y-14222484D02*
X14238386Y-14222484D01*
X14238386Y-14222484D02*
X14257434Y-14232008D01*
X14257434Y-14232008D02*
X14266958Y-14241531D01*
X14266958Y-14241531D02*
X14276482Y-14260579D01*
X14276482Y-14260579D02*
X14286005Y-14298674D01*
X14286005Y-14298674D02*
X14286005Y-14346293D01*
X14286005Y-14346293D02*
X14276482Y-14384388D01*
X14276482Y-14384388D02*
X14266958Y-14403436D01*
X14266958Y-14403436D02*
X14257434Y-14412960D01*
X14257434Y-14412960D02*
X14238386Y-14422484D01*
X14238386Y-14422484D02*
X14219339Y-14422484D01*
X14219339Y-14422484D02*
X14200291Y-14412960D01*
X14200291Y-14412960D02*
X14190767Y-14403436D01*
X14190767Y-14403436D02*
X14181243Y-14384388D01*
X14181243Y-14384388D02*
X14171720Y-14346293D01*
X14171720Y-14346293D02*
X14171720Y-14298674D01*
X14171720Y-14298674D02*
X14181243Y-14260579D01*
X14181243Y-14260579D02*
X14190767Y-14241531D01*
X14190767Y-14241531D02*
X14200291Y-14232008D01*
X14200291Y-14232008D02*
X14219339Y-14222484D01*
X14371720Y-14422484D02*
X14371720Y-14289150D01*
X14371720Y-14308198D02*
X14381243Y-14298674D01*
X14381243Y-14298674D02*
X14400291Y-14289150D01*
X14400291Y-14289150D02*
X14428863Y-14289150D01*
X14428863Y-14289150D02*
X14447910Y-14298674D01*
X14447910Y-14298674D02*
X14457434Y-14317722D01*
X14457434Y-14317722D02*
X14457434Y-14422484D01*
X14457434Y-14317722D02*
X14466958Y-14298674D01*
X14466958Y-14298674D02*
X14486005Y-14289150D01*
X14486005Y-14289150D02*
X14514577Y-14289150D01*
X14514577Y-14289150D02*
X14533624Y-14298674D01*
X14533624Y-14298674D02*
X14543148Y-14317722D01*
X14543148Y-14317722D02*
X14543148Y-14422484D01*
X14638386Y-14422484D02*
X14638386Y-14289150D01*
X14638386Y-14308198D02*
X14647910Y-14298674D01*
X14647910Y-14298674D02*
X14666958Y-14289150D01*
X14666958Y-14289150D02*
X14695529Y-14289150D01*
X14695529Y-14289150D02*
X14714577Y-14298674D01*
X14714577Y-14298674D02*
X14724101Y-14317722D01*
X14724101Y-14317722D02*
X14724101Y-14422484D01*
X14724101Y-14317722D02*
X14733624Y-14298674D01*
X14733624Y-14298674D02*
X14752672Y-14289150D01*
X14752672Y-14289150D02*
X14781243Y-14289150D01*
X14781243Y-14289150D02*
X14800291Y-14298674D01*
X14800291Y-14298674D02*
X14809815Y-14317722D01*
X14809815Y-14317722D02*
X14809815Y-14422484D01*
X15200291Y-14212960D02*
X15028863Y-14470103D01*
X15457434Y-14222484D02*
X15476482Y-14222484D01*
X15476482Y-14222484D02*
X15495529Y-14232008D01*
X15495529Y-14232008D02*
X15505053Y-14241531D01*
X15505053Y-14241531D02*
X15514577Y-14260579D01*
X15514577Y-14260579D02*
X15524101Y-14298674D01*
X15524101Y-14298674D02*
X15524101Y-14346293D01*
X15524101Y-14346293D02*
X15514577Y-14384388D01*
X15514577Y-14384388D02*
X15505053Y-14403436D01*
X15505053Y-14403436D02*
X15495529Y-14412960D01*
X15495529Y-14412960D02*
X15476482Y-14422484D01*
X15476482Y-14422484D02*
X15457434Y-14422484D01*
X15457434Y-14422484D02*
X15438386Y-14412960D01*
X15438386Y-14412960D02*
X15428863Y-14403436D01*
X15428863Y-14403436D02*
X15419339Y-14384388D01*
X15419339Y-14384388D02*
X15409815Y-14346293D01*
X15409815Y-14346293D02*
X15409815Y-14298674D01*
X15409815Y-14298674D02*
X15419339Y-14260579D01*
X15419339Y-14260579D02*
X15428863Y-14241531D01*
X15428863Y-14241531D02*
X15438386Y-14232008D01*
X15438386Y-14232008D02*
X15457434Y-14222484D01*
X15609815Y-14403436D02*
X15619339Y-14412960D01*
X15619339Y-14412960D02*
X15609815Y-14422484D01*
X15609815Y-14422484D02*
X15600291Y-14412960D01*
X15600291Y-14412960D02*
X15609815Y-14403436D01*
X15609815Y-14403436D02*
X15609815Y-14422484D01*
X15743148Y-14222484D02*
X15762196Y-14222484D01*
X15762196Y-14222484D02*
X15781244Y-14232008D01*
X15781244Y-14232008D02*
X15790767Y-14241531D01*
X15790767Y-14241531D02*
X15800291Y-14260579D01*
X15800291Y-14260579D02*
X15809815Y-14298674D01*
X15809815Y-14298674D02*
X15809815Y-14346293D01*
X15809815Y-14346293D02*
X15800291Y-14384388D01*
X15800291Y-14384388D02*
X15790767Y-14403436D01*
X15790767Y-14403436D02*
X15781244Y-14412960D01*
X15781244Y-14412960D02*
X15762196Y-14422484D01*
X15762196Y-14422484D02*
X15743148Y-14422484D01*
X15743148Y-14422484D02*
X15724101Y-14412960D01*
X15724101Y-14412960D02*
X15714577Y-14403436D01*
X15714577Y-14403436D02*
X15705053Y-14384388D01*
X15705053Y-14384388D02*
X15695529Y-14346293D01*
X15695529Y-14346293D02*
X15695529Y-14298674D01*
X15695529Y-14298674D02*
X15705053Y-14260579D01*
X15705053Y-14260579D02*
X15714577Y-14241531D01*
X15714577Y-14241531D02*
X15724101Y-14232008D01*
X15724101Y-14232008D02*
X15743148Y-14222484D01*
X15886006Y-14241531D02*
X15895529Y-14232008D01*
X15895529Y-14232008D02*
X15914577Y-14222484D01*
X15914577Y-14222484D02*
X15962196Y-14222484D01*
X15962196Y-14222484D02*
X15981244Y-14232008D01*
X15981244Y-14232008D02*
X15990767Y-14241531D01*
X15990767Y-14241531D02*
X16000291Y-14260579D01*
X16000291Y-14260579D02*
X16000291Y-14279627D01*
X16000291Y-14279627D02*
X15990767Y-14308198D01*
X15990767Y-14308198D02*
X15876482Y-14422484D01*
X15876482Y-14422484D02*
X16000291Y-14422484D01*
X16181244Y-14222484D02*
X16086006Y-14222484D01*
X16086006Y-14222484D02*
X16076482Y-14317722D01*
X16076482Y-14317722D02*
X16086006Y-14308198D01*
X16086006Y-14308198D02*
X16105053Y-14298674D01*
X16105053Y-14298674D02*
X16152672Y-14298674D01*
X16152672Y-14298674D02*
X16171720Y-14308198D01*
X16171720Y-14308198D02*
X16181244Y-14317722D01*
X16181244Y-14317722D02*
X16190767Y-14336769D01*
X16190767Y-14336769D02*
X16190767Y-14384388D01*
X16190767Y-14384388D02*
X16181244Y-14403436D01*
X16181244Y-14403436D02*
X16171720Y-14412960D01*
X16171720Y-14412960D02*
X16152672Y-14422484D01*
X16152672Y-14422484D02*
X16105053Y-14422484D01*
X16105053Y-14422484D02*
X16086006Y-14412960D01*
X16086006Y-14412960D02*
X16076482Y-14403436D01*
X16362196Y-14222484D02*
X16324101Y-14222484D01*
X16324101Y-14222484D02*
X16305053Y-14232008D01*
X16305053Y-14232008D02*
X16295529Y-14241531D01*
X16295529Y-14241531D02*
X16276482Y-14270103D01*
X16276482Y-14270103D02*
X16266958Y-14308198D01*
X16266958Y-14308198D02*
X16266958Y-14384388D01*
X16266958Y-14384388D02*
X16276482Y-14403436D01*
X16276482Y-14403436D02*
X16286006Y-14412960D01*
X16286006Y-14412960D02*
X16305053Y-14422484D01*
X16305053Y-14422484D02*
X16343148Y-14422484D01*
X16343148Y-14422484D02*
X16362196Y-14412960D01*
X16362196Y-14412960D02*
X16371720Y-14403436D01*
X16371720Y-14403436D02*
X16381244Y-14384388D01*
X16381244Y-14384388D02*
X16381244Y-14336769D01*
X16381244Y-14336769D02*
X16371720Y-14317722D01*
X16371720Y-14317722D02*
X16362196Y-14308198D01*
X16362196Y-14308198D02*
X16343148Y-14298674D01*
X16343148Y-14298674D02*
X16305053Y-14298674D01*
X16305053Y-14298674D02*
X16286006Y-14308198D01*
X16286006Y-14308198D02*
X16276482Y-14317722D01*
X16276482Y-14317722D02*
X16266958Y-14336769D01*
X16457434Y-14222484D02*
X16457434Y-14260579D01*
X16533625Y-14222484D02*
X16533625Y-14260579D01*
X16828863Y-14498674D02*
X16819339Y-14489150D01*
X16819339Y-14489150D02*
X16800291Y-14460579D01*
X16800291Y-14460579D02*
X16790768Y-14441531D01*
X16790768Y-14441531D02*
X16781244Y-14412960D01*
X16781244Y-14412960D02*
X16771720Y-14365341D01*
X16771720Y-14365341D02*
X16771720Y-14327246D01*
X16771720Y-14327246D02*
X16781244Y-14279627D01*
X16781244Y-14279627D02*
X16790768Y-14251055D01*
X16790768Y-14251055D02*
X16800291Y-14232008D01*
X16800291Y-14232008D02*
X16819339Y-14203436D01*
X16819339Y-14203436D02*
X16828863Y-14193912D01*
X16943149Y-14222484D02*
X16962196Y-14222484D01*
X16962196Y-14222484D02*
X16981244Y-14232008D01*
X16981244Y-14232008D02*
X16990768Y-14241531D01*
X16990768Y-14241531D02*
X17000291Y-14260579D01*
X17000291Y-14260579D02*
X17009815Y-14298674D01*
X17009815Y-14298674D02*
X17009815Y-14346293D01*
X17009815Y-14346293D02*
X17000291Y-14384388D01*
X17000291Y-14384388D02*
X16990768Y-14403436D01*
X16990768Y-14403436D02*
X16981244Y-14412960D01*
X16981244Y-14412960D02*
X16962196Y-14422484D01*
X16962196Y-14422484D02*
X16943149Y-14422484D01*
X16943149Y-14422484D02*
X16924101Y-14412960D01*
X16924101Y-14412960D02*
X16914577Y-14403436D01*
X16914577Y-14403436D02*
X16905053Y-14384388D01*
X16905053Y-14384388D02*
X16895530Y-14346293D01*
X16895530Y-14346293D02*
X16895530Y-14298674D01*
X16895530Y-14298674D02*
X16905053Y-14260579D01*
X16905053Y-14260579D02*
X16914577Y-14241531D01*
X16914577Y-14241531D02*
X16924101Y-14232008D01*
X16924101Y-14232008D02*
X16943149Y-14222484D01*
X17247911Y-14422484D02*
X17247911Y-14222484D01*
X17333625Y-14422484D02*
X17333625Y-14317722D01*
X17333625Y-14317722D02*
X17324101Y-14298674D01*
X17324101Y-14298674D02*
X17305053Y-14289150D01*
X17305053Y-14289150D02*
X17276482Y-14289150D01*
X17276482Y-14289150D02*
X17257434Y-14298674D01*
X17257434Y-14298674D02*
X17247911Y-14308198D01*
X17457434Y-14422484D02*
X17438387Y-14412960D01*
X17438387Y-14412960D02*
X17428863Y-14403436D01*
X17428863Y-14403436D02*
X17419339Y-14384388D01*
X17419339Y-14384388D02*
X17419339Y-14327246D01*
X17419339Y-14327246D02*
X17428863Y-14308198D01*
X17428863Y-14308198D02*
X17438387Y-14298674D01*
X17438387Y-14298674D02*
X17457434Y-14289150D01*
X17457434Y-14289150D02*
X17486006Y-14289150D01*
X17486006Y-14289150D02*
X17505053Y-14298674D01*
X17505053Y-14298674D02*
X17514577Y-14308198D01*
X17514577Y-14308198D02*
X17524101Y-14327246D01*
X17524101Y-14327246D02*
X17524101Y-14384388D01*
X17524101Y-14384388D02*
X17514577Y-14403436D01*
X17514577Y-14403436D02*
X17505053Y-14412960D01*
X17505053Y-14412960D02*
X17486006Y-14422484D01*
X17486006Y-14422484D02*
X17457434Y-14422484D01*
X17638387Y-14422484D02*
X17619339Y-14412960D01*
X17619339Y-14412960D02*
X17609815Y-14393912D01*
X17609815Y-14393912D02*
X17609815Y-14222484D01*
X17790768Y-14412960D02*
X17771720Y-14422484D01*
X17771720Y-14422484D02*
X17733625Y-14422484D01*
X17733625Y-14422484D02*
X17714577Y-14412960D01*
X17714577Y-14412960D02*
X17705053Y-14393912D01*
X17705053Y-14393912D02*
X17705053Y-14317722D01*
X17705053Y-14317722D02*
X17714577Y-14298674D01*
X17714577Y-14298674D02*
X17733625Y-14289150D01*
X17733625Y-14289150D02*
X17771720Y-14289150D01*
X17771720Y-14289150D02*
X17790768Y-14298674D01*
X17790768Y-14298674D02*
X17800292Y-14317722D01*
X17800292Y-14317722D02*
X17800292Y-14336769D01*
X17800292Y-14336769D02*
X17705053Y-14355817D01*
X17876482Y-14412960D02*
X17895530Y-14422484D01*
X17895530Y-14422484D02*
X17933625Y-14422484D01*
X17933625Y-14422484D02*
X17952673Y-14412960D01*
X17952673Y-14412960D02*
X17962196Y-14393912D01*
X17962196Y-14393912D02*
X17962196Y-14384388D01*
X17962196Y-14384388D02*
X17952673Y-14365341D01*
X17952673Y-14365341D02*
X17933625Y-14355817D01*
X17933625Y-14355817D02*
X17905053Y-14355817D01*
X17905053Y-14355817D02*
X17886006Y-14346293D01*
X17886006Y-14346293D02*
X17876482Y-14327246D01*
X17876482Y-14327246D02*
X17876482Y-14317722D01*
X17876482Y-14317722D02*
X17886006Y-14298674D01*
X17886006Y-14298674D02*
X17905053Y-14289150D01*
X17905053Y-14289150D02*
X17933625Y-14289150D01*
X17933625Y-14289150D02*
X17952673Y-14298674D01*
X18200292Y-14346293D02*
X18352673Y-14346293D01*
X18276482Y-14422484D02*
X18276482Y-14270103D01*
X18686006Y-14289150D02*
X18686006Y-14422484D01*
X18638387Y-14212960D02*
X18590768Y-14355817D01*
X18590768Y-14355817D02*
X18714577Y-14355817D01*
X18828863Y-14222484D02*
X18847911Y-14222484D01*
X18847911Y-14222484D02*
X18866958Y-14232008D01*
X18866958Y-14232008D02*
X18876482Y-14241531D01*
X18876482Y-14241531D02*
X18886006Y-14260579D01*
X18886006Y-14260579D02*
X18895530Y-14298674D01*
X18895530Y-14298674D02*
X18895530Y-14346293D01*
X18895530Y-14346293D02*
X18886006Y-14384388D01*
X18886006Y-14384388D02*
X18876482Y-14403436D01*
X18876482Y-14403436D02*
X18866958Y-14412960D01*
X18866958Y-14412960D02*
X18847911Y-14422484D01*
X18847911Y-14422484D02*
X18828863Y-14422484D01*
X18828863Y-14422484D02*
X18809815Y-14412960D01*
X18809815Y-14412960D02*
X18800292Y-14403436D01*
X18800292Y-14403436D02*
X18790768Y-14384388D01*
X18790768Y-14384388D02*
X18781244Y-14346293D01*
X18781244Y-14346293D02*
X18781244Y-14298674D01*
X18781244Y-14298674D02*
X18790768Y-14260579D01*
X18790768Y-14260579D02*
X18800292Y-14241531D01*
X18800292Y-14241531D02*
X18809815Y-14232008D01*
X18809815Y-14232008D02*
X18828863Y-14222484D01*
X19124101Y-14412960D02*
X19143149Y-14422484D01*
X19143149Y-14422484D02*
X19181244Y-14422484D01*
X19181244Y-14422484D02*
X19200292Y-14412960D01*
X19200292Y-14412960D02*
X19209816Y-14393912D01*
X19209816Y-14393912D02*
X19209816Y-14384388D01*
X19209816Y-14384388D02*
X19200292Y-14365341D01*
X19200292Y-14365341D02*
X19181244Y-14355817D01*
X19181244Y-14355817D02*
X19152673Y-14355817D01*
X19152673Y-14355817D02*
X19133625Y-14346293D01*
X19133625Y-14346293D02*
X19124101Y-14327246D01*
X19124101Y-14327246D02*
X19124101Y-14317722D01*
X19124101Y-14317722D02*
X19133625Y-14298674D01*
X19133625Y-14298674D02*
X19152673Y-14289150D01*
X19152673Y-14289150D02*
X19181244Y-14289150D01*
X19181244Y-14289150D02*
X19200292Y-14298674D01*
X19324101Y-14422484D02*
X19305054Y-14412960D01*
X19305054Y-14412960D02*
X19295530Y-14393912D01*
X19295530Y-14393912D02*
X19295530Y-14222484D01*
X19428863Y-14422484D02*
X19409816Y-14412960D01*
X19409816Y-14412960D02*
X19400292Y-14403436D01*
X19400292Y-14403436D02*
X19390768Y-14384388D01*
X19390768Y-14384388D02*
X19390768Y-14327246D01*
X19390768Y-14327246D02*
X19400292Y-14308198D01*
X19400292Y-14308198D02*
X19409816Y-14298674D01*
X19409816Y-14298674D02*
X19428863Y-14289150D01*
X19428863Y-14289150D02*
X19457435Y-14289150D01*
X19457435Y-14289150D02*
X19476482Y-14298674D01*
X19476482Y-14298674D02*
X19486006Y-14308198D01*
X19486006Y-14308198D02*
X19495530Y-14327246D01*
X19495530Y-14327246D02*
X19495530Y-14384388D01*
X19495530Y-14384388D02*
X19486006Y-14403436D01*
X19486006Y-14403436D02*
X19476482Y-14412960D01*
X19476482Y-14412960D02*
X19457435Y-14422484D01*
X19457435Y-14422484D02*
X19428863Y-14422484D01*
X19552673Y-14289150D02*
X19628863Y-14289150D01*
X19581244Y-14222484D02*
X19581244Y-14393912D01*
X19581244Y-14393912D02*
X19590768Y-14412960D01*
X19590768Y-14412960D02*
X19609816Y-14422484D01*
X19609816Y-14422484D02*
X19628863Y-14422484D01*
X19686006Y-14412960D02*
X19705054Y-14422484D01*
X19705054Y-14422484D02*
X19743149Y-14422484D01*
X19743149Y-14422484D02*
X19762197Y-14412960D01*
X19762197Y-14412960D02*
X19771720Y-14393912D01*
X19771720Y-14393912D02*
X19771720Y-14384388D01*
X19771720Y-14384388D02*
X19762197Y-14365341D01*
X19762197Y-14365341D02*
X19743149Y-14355817D01*
X19743149Y-14355817D02*
X19714577Y-14355817D01*
X19714577Y-14355817D02*
X19695530Y-14346293D01*
X19695530Y-14346293D02*
X19686006Y-14327246D01*
X19686006Y-14327246D02*
X19686006Y-14317722D01*
X19686006Y-14317722D02*
X19695530Y-14298674D01*
X19695530Y-14298674D02*
X19714577Y-14289150D01*
X19714577Y-14289150D02*
X19743149Y-14289150D01*
X19743149Y-14289150D02*
X19762197Y-14298674D01*
X19838387Y-14498674D02*
X19847911Y-14489150D01*
X19847911Y-14489150D02*
X19866958Y-14460579D01*
X19866958Y-14460579D02*
X19876482Y-14441531D01*
X19876482Y-14441531D02*
X19886006Y-14412960D01*
X19886006Y-14412960D02*
X19895530Y-14365341D01*
X19895530Y-14365341D02*
X19895530Y-14327246D01*
X19895530Y-14327246D02*
X19886006Y-14279627D01*
X19886006Y-14279627D02*
X19876482Y-14251055D01*
X19876482Y-14251055D02*
X19866958Y-14232008D01*
X19866958Y-14232008D02*
X19847911Y-14203436D01*
X19847911Y-14203436D02*
X19838387Y-14193912D01*
D10*
X13239156Y-14630356D02*
X13239156Y-14559644D01*
X13168444Y-14559644D01*
X13168444Y-14630356D01*
X13239156Y-14630356D01*
D11*
X13619339Y-14686484D02*
X13505053Y-14686484D01*
X13562196Y-14686484D02*
X13562196Y-14486484D01*
X13562196Y-14486484D02*
X13543148Y-14515055D01*
X13543148Y-14515055D02*
X13524101Y-14534103D01*
X13524101Y-14534103D02*
X13505053Y-14543627D01*
X13705053Y-14667436D02*
X13714577Y-14676960D01*
X13714577Y-14676960D02*
X13705053Y-14686484D01*
X13705053Y-14686484D02*
X13695529Y-14676960D01*
X13695529Y-14676960D02*
X13705053Y-14667436D01*
X13705053Y-14667436D02*
X13705053Y-14686484D01*
X13838386Y-14486484D02*
X13857434Y-14486484D01*
X13857434Y-14486484D02*
X13876482Y-14496008D01*
X13876482Y-14496008D02*
X13886005Y-14505531D01*
X13886005Y-14505531D02*
X13895529Y-14524579D01*
X13895529Y-14524579D02*
X13905053Y-14562674D01*
X13905053Y-14562674D02*
X13905053Y-14610293D01*
X13905053Y-14610293D02*
X13895529Y-14648388D01*
X13895529Y-14648388D02*
X13886005Y-14667436D01*
X13886005Y-14667436D02*
X13876482Y-14676960D01*
X13876482Y-14676960D02*
X13857434Y-14686484D01*
X13857434Y-14686484D02*
X13838386Y-14686484D01*
X13838386Y-14686484D02*
X13819339Y-14676960D01*
X13819339Y-14676960D02*
X13809815Y-14667436D01*
X13809815Y-14667436D02*
X13800291Y-14648388D01*
X13800291Y-14648388D02*
X13790767Y-14610293D01*
X13790767Y-14610293D02*
X13790767Y-14562674D01*
X13790767Y-14562674D02*
X13800291Y-14524579D01*
X13800291Y-14524579D02*
X13809815Y-14505531D01*
X13809815Y-14505531D02*
X13819339Y-14496008D01*
X13819339Y-14496008D02*
X13838386Y-14486484D01*
X14028862Y-14486484D02*
X14047910Y-14486484D01*
X14047910Y-14486484D02*
X14066958Y-14496008D01*
X14066958Y-14496008D02*
X14076482Y-14505531D01*
X14076482Y-14505531D02*
X14086005Y-14524579D01*
X14086005Y-14524579D02*
X14095529Y-14562674D01*
X14095529Y-14562674D02*
X14095529Y-14610293D01*
X14095529Y-14610293D02*
X14086005Y-14648388D01*
X14086005Y-14648388D02*
X14076482Y-14667436D01*
X14076482Y-14667436D02*
X14066958Y-14676960D01*
X14066958Y-14676960D02*
X14047910Y-14686484D01*
X14047910Y-14686484D02*
X14028862Y-14686484D01*
X14028862Y-14686484D02*
X14009815Y-14676960D01*
X14009815Y-14676960D02*
X14000291Y-14667436D01*
X14000291Y-14667436D02*
X13990767Y-14648388D01*
X13990767Y-14648388D02*
X13981243Y-14610293D01*
X13981243Y-14610293D02*
X13981243Y-14562674D01*
X13981243Y-14562674D02*
X13990767Y-14524579D01*
X13990767Y-14524579D02*
X14000291Y-14505531D01*
X14000291Y-14505531D02*
X14009815Y-14496008D01*
X14009815Y-14496008D02*
X14028862Y-14486484D01*
X14219339Y-14486484D02*
X14238386Y-14486484D01*
X14238386Y-14486484D02*
X14257434Y-14496008D01*
X14257434Y-14496008D02*
X14266958Y-14505531D01*
X14266958Y-14505531D02*
X14276482Y-14524579D01*
X14276482Y-14524579D02*
X14286005Y-14562674D01*
X14286005Y-14562674D02*
X14286005Y-14610293D01*
X14286005Y-14610293D02*
X14276482Y-14648388D01*
X14276482Y-14648388D02*
X14266958Y-14667436D01*
X14266958Y-14667436D02*
X14257434Y-14676960D01*
X14257434Y-14676960D02*
X14238386Y-14686484D01*
X14238386Y-14686484D02*
X14219339Y-14686484D01*
X14219339Y-14686484D02*
X14200291Y-14676960D01*
X14200291Y-14676960D02*
X14190767Y-14667436D01*
X14190767Y-14667436D02*
X14181243Y-14648388D01*
X14181243Y-14648388D02*
X14171720Y-14610293D01*
X14171720Y-14610293D02*
X14171720Y-14562674D01*
X14171720Y-14562674D02*
X14181243Y-14524579D01*
X14181243Y-14524579D02*
X14190767Y-14505531D01*
X14190767Y-14505531D02*
X14200291Y-14496008D01*
X14200291Y-14496008D02*
X14219339Y-14486484D01*
X14371720Y-14686484D02*
X14371720Y-14553150D01*
X14371720Y-14572198D02*
X14381243Y-14562674D01*
X14381243Y-14562674D02*
X14400291Y-14553150D01*
X14400291Y-14553150D02*
X14428863Y-14553150D01*
X14428863Y-14553150D02*
X14447910Y-14562674D01*
X14447910Y-14562674D02*
X14457434Y-14581722D01*
X14457434Y-14581722D02*
X14457434Y-14686484D01*
X14457434Y-14581722D02*
X14466958Y-14562674D01*
X14466958Y-14562674D02*
X14486005Y-14553150D01*
X14486005Y-14553150D02*
X14514577Y-14553150D01*
X14514577Y-14553150D02*
X14533624Y-14562674D01*
X14533624Y-14562674D02*
X14543148Y-14581722D01*
X14543148Y-14581722D02*
X14543148Y-14686484D01*
X14638386Y-14686484D02*
X14638386Y-14553150D01*
X14638386Y-14572198D02*
X14647910Y-14562674D01*
X14647910Y-14562674D02*
X14666958Y-14553150D01*
X14666958Y-14553150D02*
X14695529Y-14553150D01*
X14695529Y-14553150D02*
X14714577Y-14562674D01*
X14714577Y-14562674D02*
X14724101Y-14581722D01*
X14724101Y-14581722D02*
X14724101Y-14686484D01*
X14724101Y-14581722D02*
X14733624Y-14562674D01*
X14733624Y-14562674D02*
X14752672Y-14553150D01*
X14752672Y-14553150D02*
X14781243Y-14553150D01*
X14781243Y-14553150D02*
X14800291Y-14562674D01*
X14800291Y-14562674D02*
X14809815Y-14581722D01*
X14809815Y-14581722D02*
X14809815Y-14686484D01*
X15200291Y-14476960D02*
X15028863Y-14734103D01*
X15457434Y-14486484D02*
X15476482Y-14486484D01*
X15476482Y-14486484D02*
X15495529Y-14496008D01*
X15495529Y-14496008D02*
X15505053Y-14505531D01*
X15505053Y-14505531D02*
X15514577Y-14524579D01*
X15514577Y-14524579D02*
X15524101Y-14562674D01*
X15524101Y-14562674D02*
X15524101Y-14610293D01*
X15524101Y-14610293D02*
X15514577Y-14648388D01*
X15514577Y-14648388D02*
X15505053Y-14667436D01*
X15505053Y-14667436D02*
X15495529Y-14676960D01*
X15495529Y-14676960D02*
X15476482Y-14686484D01*
X15476482Y-14686484D02*
X15457434Y-14686484D01*
X15457434Y-14686484D02*
X15438386Y-14676960D01*
X15438386Y-14676960D02*
X15428863Y-14667436D01*
X15428863Y-14667436D02*
X15419339Y-14648388D01*
X15419339Y-14648388D02*
X15409815Y-14610293D01*
X15409815Y-14610293D02*
X15409815Y-14562674D01*
X15409815Y-14562674D02*
X15419339Y-14524579D01*
X15419339Y-14524579D02*
X15428863Y-14505531D01*
X15428863Y-14505531D02*
X15438386Y-14496008D01*
X15438386Y-14496008D02*
X15457434Y-14486484D01*
X15609815Y-14667436D02*
X15619339Y-14676960D01*
X15619339Y-14676960D02*
X15609815Y-14686484D01*
X15609815Y-14686484D02*
X15600291Y-14676960D01*
X15600291Y-14676960D02*
X15609815Y-14667436D01*
X15609815Y-14667436D02*
X15609815Y-14686484D01*
X15743148Y-14486484D02*
X15762196Y-14486484D01*
X15762196Y-14486484D02*
X15781244Y-14496008D01*
X15781244Y-14496008D02*
X15790767Y-14505531D01*
X15790767Y-14505531D02*
X15800291Y-14524579D01*
X15800291Y-14524579D02*
X15809815Y-14562674D01*
X15809815Y-14562674D02*
X15809815Y-14610293D01*
X15809815Y-14610293D02*
X15800291Y-14648388D01*
X15800291Y-14648388D02*
X15790767Y-14667436D01*
X15790767Y-14667436D02*
X15781244Y-14676960D01*
X15781244Y-14676960D02*
X15762196Y-14686484D01*
X15762196Y-14686484D02*
X15743148Y-14686484D01*
X15743148Y-14686484D02*
X15724101Y-14676960D01*
X15724101Y-14676960D02*
X15714577Y-14667436D01*
X15714577Y-14667436D02*
X15705053Y-14648388D01*
X15705053Y-14648388D02*
X15695529Y-14610293D01*
X15695529Y-14610293D02*
X15695529Y-14562674D01*
X15695529Y-14562674D02*
X15705053Y-14524579D01*
X15705053Y-14524579D02*
X15714577Y-14505531D01*
X15714577Y-14505531D02*
X15724101Y-14496008D01*
X15724101Y-14496008D02*
X15743148Y-14486484D01*
X15876482Y-14486484D02*
X16000291Y-14486484D01*
X16000291Y-14486484D02*
X15933625Y-14562674D01*
X15933625Y-14562674D02*
X15962196Y-14562674D01*
X15962196Y-14562674D02*
X15981244Y-14572198D01*
X15981244Y-14572198D02*
X15990767Y-14581722D01*
X15990767Y-14581722D02*
X16000291Y-14600769D01*
X16000291Y-14600769D02*
X16000291Y-14648388D01*
X16000291Y-14648388D02*
X15990767Y-14667436D01*
X15990767Y-14667436D02*
X15981244Y-14676960D01*
X15981244Y-14676960D02*
X15962196Y-14686484D01*
X15962196Y-14686484D02*
X15905053Y-14686484D01*
X15905053Y-14686484D02*
X15886006Y-14676960D01*
X15886006Y-14676960D02*
X15876482Y-14667436D01*
X16095529Y-14686484D02*
X16133625Y-14686484D01*
X16133625Y-14686484D02*
X16152672Y-14676960D01*
X16152672Y-14676960D02*
X16162196Y-14667436D01*
X16162196Y-14667436D02*
X16181244Y-14638865D01*
X16181244Y-14638865D02*
X16190767Y-14600769D01*
X16190767Y-14600769D02*
X16190767Y-14524579D01*
X16190767Y-14524579D02*
X16181244Y-14505531D01*
X16181244Y-14505531D02*
X16171720Y-14496008D01*
X16171720Y-14496008D02*
X16152672Y-14486484D01*
X16152672Y-14486484D02*
X16114577Y-14486484D01*
X16114577Y-14486484D02*
X16095529Y-14496008D01*
X16095529Y-14496008D02*
X16086006Y-14505531D01*
X16086006Y-14505531D02*
X16076482Y-14524579D01*
X16076482Y-14524579D02*
X16076482Y-14572198D01*
X16076482Y-14572198D02*
X16086006Y-14591246D01*
X16086006Y-14591246D02*
X16095529Y-14600769D01*
X16095529Y-14600769D02*
X16114577Y-14610293D01*
X16114577Y-14610293D02*
X16152672Y-14610293D01*
X16152672Y-14610293D02*
X16171720Y-14600769D01*
X16171720Y-14600769D02*
X16181244Y-14591246D01*
X16181244Y-14591246D02*
X16190767Y-14572198D01*
X16362196Y-14553150D02*
X16362196Y-14686484D01*
X16314577Y-14476960D02*
X16266958Y-14619817D01*
X16266958Y-14619817D02*
X16390767Y-14619817D01*
X16457434Y-14486484D02*
X16457434Y-14524579D01*
X16533625Y-14486484D02*
X16533625Y-14524579D01*
X16828863Y-14762674D02*
X16819339Y-14753150D01*
X16819339Y-14753150D02*
X16800291Y-14724579D01*
X16800291Y-14724579D02*
X16790768Y-14705531D01*
X16790768Y-14705531D02*
X16781244Y-14676960D01*
X16781244Y-14676960D02*
X16771720Y-14629341D01*
X16771720Y-14629341D02*
X16771720Y-14591246D01*
X16771720Y-14591246D02*
X16781244Y-14543627D01*
X16781244Y-14543627D02*
X16790768Y-14515055D01*
X16790768Y-14515055D02*
X16800291Y-14496008D01*
X16800291Y-14496008D02*
X16819339Y-14467436D01*
X16819339Y-14467436D02*
X16828863Y-14457912D01*
X16990768Y-14553150D02*
X16990768Y-14686484D01*
X16943149Y-14476960D02*
X16895530Y-14619817D01*
X16895530Y-14619817D02*
X17019339Y-14619817D01*
X17133625Y-14486484D02*
X17152672Y-14486484D01*
X17152672Y-14486484D02*
X17171720Y-14496008D01*
X17171720Y-14496008D02*
X17181244Y-14505531D01*
X17181244Y-14505531D02*
X17190768Y-14524579D01*
X17190768Y-14524579D02*
X17200291Y-14562674D01*
X17200291Y-14562674D02*
X17200291Y-14610293D01*
X17200291Y-14610293D02*
X17190768Y-14648388D01*
X17190768Y-14648388D02*
X17181244Y-14667436D01*
X17181244Y-14667436D02*
X17171720Y-14676960D01*
X17171720Y-14676960D02*
X17152672Y-14686484D01*
X17152672Y-14686484D02*
X17133625Y-14686484D01*
X17133625Y-14686484D02*
X17114577Y-14676960D01*
X17114577Y-14676960D02*
X17105053Y-14667436D01*
X17105053Y-14667436D02*
X17095530Y-14648388D01*
X17095530Y-14648388D02*
X17086006Y-14610293D01*
X17086006Y-14610293D02*
X17086006Y-14562674D01*
X17086006Y-14562674D02*
X17095530Y-14524579D01*
X17095530Y-14524579D02*
X17105053Y-14505531D01*
X17105053Y-14505531D02*
X17114577Y-14496008D01*
X17114577Y-14496008D02*
X17133625Y-14486484D01*
X17438387Y-14686484D02*
X17438387Y-14486484D01*
X17524101Y-14686484D02*
X17524101Y-14581722D01*
X17524101Y-14581722D02*
X17514577Y-14562674D01*
X17514577Y-14562674D02*
X17495530Y-14553150D01*
X17495530Y-14553150D02*
X17466958Y-14553150D01*
X17466958Y-14553150D02*
X17447911Y-14562674D01*
X17447911Y-14562674D02*
X17438387Y-14572198D01*
X17647911Y-14686484D02*
X17628863Y-14676960D01*
X17628863Y-14676960D02*
X17619339Y-14667436D01*
X17619339Y-14667436D02*
X17609815Y-14648388D01*
X17609815Y-14648388D02*
X17609815Y-14591246D01*
X17609815Y-14591246D02*
X17619339Y-14572198D01*
X17619339Y-14572198D02*
X17628863Y-14562674D01*
X17628863Y-14562674D02*
X17647911Y-14553150D01*
X17647911Y-14553150D02*
X17676482Y-14553150D01*
X17676482Y-14553150D02*
X17695530Y-14562674D01*
X17695530Y-14562674D02*
X17705053Y-14572198D01*
X17705053Y-14572198D02*
X17714577Y-14591246D01*
X17714577Y-14591246D02*
X17714577Y-14648388D01*
X17714577Y-14648388D02*
X17705053Y-14667436D01*
X17705053Y-14667436D02*
X17695530Y-14676960D01*
X17695530Y-14676960D02*
X17676482Y-14686484D01*
X17676482Y-14686484D02*
X17647911Y-14686484D01*
X17828863Y-14686484D02*
X17809815Y-14676960D01*
X17809815Y-14676960D02*
X17800292Y-14657912D01*
X17800292Y-14657912D02*
X17800292Y-14486484D01*
X17981244Y-14676960D02*
X17962196Y-14686484D01*
X17962196Y-14686484D02*
X17924101Y-14686484D01*
X17924101Y-14686484D02*
X17905053Y-14676960D01*
X17905053Y-14676960D02*
X17895530Y-14657912D01*
X17895530Y-14657912D02*
X17895530Y-14581722D01*
X17895530Y-14581722D02*
X17905053Y-14562674D01*
X17905053Y-14562674D02*
X17924101Y-14553150D01*
X17924101Y-14553150D02*
X17962196Y-14553150D01*
X17962196Y-14553150D02*
X17981244Y-14562674D01*
X17981244Y-14562674D02*
X17990768Y-14581722D01*
X17990768Y-14581722D02*
X17990768Y-14600769D01*
X17990768Y-14600769D02*
X17895530Y-14619817D01*
X18066958Y-14676960D02*
X18086006Y-14686484D01*
X18086006Y-14686484D02*
X18124101Y-14686484D01*
X18124101Y-14686484D02*
X18143149Y-14676960D01*
X18143149Y-14676960D02*
X18152673Y-14657912D01*
X18152673Y-14657912D02*
X18152673Y-14648388D01*
X18152673Y-14648388D02*
X18143149Y-14629341D01*
X18143149Y-14629341D02*
X18124101Y-14619817D01*
X18124101Y-14619817D02*
X18095530Y-14619817D01*
X18095530Y-14619817D02*
X18076482Y-14610293D01*
X18076482Y-14610293D02*
X18066958Y-14591246D01*
X18066958Y-14591246D02*
X18066958Y-14581722D01*
X18066958Y-14581722D02*
X18076482Y-14562674D01*
X18076482Y-14562674D02*
X18095530Y-14553150D01*
X18095530Y-14553150D02*
X18124101Y-14553150D01*
X18124101Y-14553150D02*
X18143149Y-14562674D01*
X18219339Y-14762674D02*
X18228863Y-14753150D01*
X18228863Y-14753150D02*
X18247911Y-14724579D01*
X18247911Y-14724579D02*
X18257434Y-14705531D01*
X18257434Y-14705531D02*
X18266958Y-14676960D01*
X18266958Y-14676960D02*
X18276482Y-14629341D01*
X18276482Y-14629341D02*
X18276482Y-14591246D01*
X18276482Y-14591246D02*
X18266958Y-14543627D01*
X18266958Y-14543627D02*
X18257434Y-14515055D01*
X18257434Y-14515055D02*
X18247911Y-14496008D01*
X18247911Y-14496008D02*
X18228863Y-14467436D01*
X18228863Y-14467436D02*
X18219339Y-14457912D01*
M02*
