G04 #@! TF.GenerationSoftware,KiCad,Pcbnew,8.0.5-8.0.5-0~ubuntu24.04.1*
G04 #@! TF.CreationDate,2024-09-24T16:48:19+02:00*
G04 #@! TF.ProjectId,ESP32-S2_S3-WROOM_flexypin,45535033-322d-4533-925f-53332d57524f,rev?*
G04 #@! TF.SameCoordinates,Original*
G04 #@! TF.FileFunction,Soldermask,Bot*
G04 #@! TF.FilePolarity,Negative*
%FSLAX46Y46*%
G04 Gerber Fmt 4.6, Leading zero omitted, Abs format (unit mm)*
G04 Created by KiCad (PCBNEW 8.0.5-8.0.5-0~ubuntu24.04.1) date 2024-09-24 16:48:19*
%MOMM*%
%LPD*%
G01*
G04 APERTURE LIST*
%ADD10R,1.700000X1.700000*%
%ADD11O,1.700000X1.700000*%
%ADD12O,0.950000X2.000000*%
%ADD13R,0.900000X1.300000*%
%ADD14O,2.000000X0.950000*%
%ADD15R,1.300000X0.900000*%
%ADD16C,0.650000*%
%ADD17O,1.000000X2.100000*%
%ADD18O,1.000000X1.800000*%
G04 #@! TA.AperFunction,Profile*
%ADD19C,0.100000*%
G04 #@! TD*
G04 APERTURE END LIST*
D10*
X162052000Y-81788000D03*
D11*
X162052000Y-84328000D03*
X162052000Y-86868000D03*
X162052000Y-89408000D03*
X162052000Y-91948000D03*
X162052000Y-94488000D03*
X162052000Y-97028000D03*
X162052000Y-99568000D03*
X162052000Y-102108000D03*
X162052000Y-104648000D03*
X162052000Y-107188000D03*
X162052000Y-109728000D03*
X162052000Y-112268000D03*
X162052000Y-114808000D03*
X162052000Y-117348000D03*
X162052000Y-119888000D03*
X162052000Y-122428000D03*
X162052000Y-124968000D03*
X162052000Y-127508000D03*
X162052000Y-130048000D03*
D12*
X141090000Y-99800000D03*
X142360000Y-99800000D03*
X143630000Y-99800000D03*
X144900000Y-99800000D03*
X146170000Y-99800000D03*
X147440000Y-99800000D03*
X148710000Y-99800000D03*
X149980000Y-99800000D03*
X151250000Y-99800000D03*
X152520000Y-99800000D03*
X153790000Y-99800000D03*
X155060000Y-99800000D03*
D13*
X141090000Y-101650000D03*
X142360000Y-101650000D03*
X143630000Y-101650000D03*
X144900000Y-101650000D03*
X146170000Y-101650000D03*
X147440000Y-101650000D03*
X148710000Y-101650000D03*
X149980000Y-101650000D03*
X151250000Y-101650000D03*
X152520000Y-101650000D03*
X153790000Y-101650000D03*
X155060000Y-101650000D03*
D14*
X138600000Y-81290000D03*
X138600000Y-83830000D03*
X138600000Y-85100000D03*
X138600000Y-86370000D03*
X138600000Y-87640000D03*
X138600000Y-88910000D03*
X138600000Y-90180000D03*
X138600000Y-91450000D03*
X138600000Y-92720000D03*
X138600000Y-95260000D03*
X138600000Y-97800000D03*
D15*
X136750000Y-81290000D03*
X136750000Y-82560000D03*
D14*
X138600000Y-82560000D03*
D15*
X136750000Y-83830000D03*
X136750000Y-85100000D03*
X136750000Y-86370000D03*
X136750000Y-87640000D03*
X136750000Y-88910000D03*
X136750000Y-90180000D03*
X136750000Y-91450000D03*
X136750000Y-92720000D03*
X136750000Y-93990000D03*
D14*
X138600000Y-93990000D03*
D15*
X136750000Y-95260000D03*
X136750000Y-96530000D03*
D14*
X138600000Y-96530000D03*
D15*
X136750000Y-97800000D03*
D10*
X134112000Y-81788000D03*
D11*
X134112000Y-84328000D03*
X134112000Y-86868000D03*
X134112000Y-89408000D03*
X134112000Y-91948000D03*
X134112000Y-94488000D03*
X134112000Y-97028000D03*
X134112000Y-99568000D03*
X134112000Y-102108000D03*
X134112000Y-104648000D03*
X134112000Y-107188000D03*
X134112000Y-109728000D03*
X134112000Y-112268000D03*
X134112000Y-114808000D03*
X134112000Y-117348000D03*
X134112000Y-119888000D03*
X134112000Y-122428000D03*
X134112000Y-124968000D03*
X134112000Y-127508000D03*
X134112000Y-130048000D03*
D16*
X145192000Y-126220000D03*
X150972000Y-126220000D03*
D17*
X143762000Y-125700000D03*
D18*
X143762000Y-129900000D03*
D17*
X152402000Y-125700000D03*
D18*
X152402000Y-129900000D03*
D14*
X157550000Y-97800000D03*
X157550000Y-95260000D03*
X157550000Y-92720000D03*
X157550000Y-91450000D03*
X157550000Y-90180000D03*
X157550000Y-88910000D03*
X157550000Y-87640000D03*
X157550000Y-86370000D03*
X157550000Y-85100000D03*
X157550000Y-83830000D03*
X157550000Y-82560000D03*
X157550000Y-81290000D03*
D15*
X159400000Y-97800000D03*
X159400000Y-96530000D03*
D14*
X157550000Y-96530000D03*
D15*
X159400000Y-95260000D03*
X159400000Y-93990000D03*
D14*
X157550000Y-93990000D03*
D15*
X159400000Y-92720000D03*
X159400000Y-91450000D03*
X159400000Y-90180000D03*
X159400000Y-88910000D03*
X159400000Y-87640000D03*
X159400000Y-86370000D03*
X159400000Y-85100000D03*
X159400000Y-83830000D03*
X159400000Y-82560000D03*
X159400000Y-81290000D03*
D19*
X132588000Y-80100000D02*
X163576000Y-80100000D01*
X163576000Y-131580000D02*
X132588000Y-131580000D01*
X163576000Y-80100000D02*
X163576000Y-131580000D01*
X132588000Y-131580000D02*
X132588000Y-80100000D01*
M02*
