G04 #@! TF.GenerationSoftware,KiCad,Pcbnew,8.0.5-8.0.5-0~ubuntu24.04.1*
G04 #@! TF.CreationDate,2024-09-24T16:48:19+02:00*
G04 #@! TF.ProjectId,ESP32-S2_S3-WROOM_flexypin,45535033-322d-4533-925f-53332d57524f,rev?*
G04 #@! TF.SameCoordinates,Original*
G04 #@! TF.FileFunction,Legend,Bot*
G04 #@! TF.FilePolarity,Positive*
%FSLAX46Y46*%
G04 Gerber Fmt 4.6, Leading zero omitted, Abs format (unit mm)*
G04 Created by KiCad (PCBNEW 8.0.5-8.0.5-0~ubuntu24.04.1) date 2024-09-24 16:48:19*
%MOMM*%
%LPD*%
G01*
G04 APERTURE LIST*
%ADD10C,0.200000*%
G04 #@! TA.AperFunction,Profile*
%ADD11C,0.100000*%
G04 #@! TD*
G04 APERTURE END LIST*
D10*
X138489485Y-100589649D02*
X138579961Y-100544411D01*
X138579961Y-100544411D02*
X138715675Y-100544411D01*
X138715675Y-100544411D02*
X138851390Y-100589649D01*
X138851390Y-100589649D02*
X138941866Y-100680125D01*
X138941866Y-100680125D02*
X138987104Y-100770601D01*
X138987104Y-100770601D02*
X139032342Y-100951553D01*
X139032342Y-100951553D02*
X139032342Y-101087268D01*
X139032342Y-101087268D02*
X138987104Y-101268220D01*
X138987104Y-101268220D02*
X138941866Y-101358696D01*
X138941866Y-101358696D02*
X138851390Y-101449173D01*
X138851390Y-101449173D02*
X138715675Y-101494411D01*
X138715675Y-101494411D02*
X138625199Y-101494411D01*
X138625199Y-101494411D02*
X138489485Y-101449173D01*
X138489485Y-101449173D02*
X138444247Y-101403934D01*
X138444247Y-101403934D02*
X138444247Y-101087268D01*
X138444247Y-101087268D02*
X138625199Y-101087268D01*
X138037104Y-101494411D02*
X138037104Y-100544411D01*
X138037104Y-100544411D02*
X137494247Y-101494411D01*
X137494247Y-101494411D02*
X137494247Y-100544411D01*
X137041866Y-101494411D02*
X137041866Y-100544411D01*
X137041866Y-100544411D02*
X136815676Y-100544411D01*
X136815676Y-100544411D02*
X136679961Y-100589649D01*
X136679961Y-100589649D02*
X136589485Y-100680125D01*
X136589485Y-100680125D02*
X136544247Y-100770601D01*
X136544247Y-100770601D02*
X136499009Y-100951553D01*
X136499009Y-100951553D02*
X136499009Y-101087268D01*
X136499009Y-101087268D02*
X136544247Y-101268220D01*
X136544247Y-101268220D02*
X136589485Y-101358696D01*
X136589485Y-101358696D02*
X136679961Y-101449173D01*
X136679961Y-101449173D02*
X136815676Y-101494411D01*
X136815676Y-101494411D02*
X137041866Y-101494411D01*
X139258533Y-102073858D02*
X138670438Y-102073858D01*
X138670438Y-102073858D02*
X138987105Y-102435762D01*
X138987105Y-102435762D02*
X138851390Y-102435762D01*
X138851390Y-102435762D02*
X138760914Y-102481000D01*
X138760914Y-102481000D02*
X138715676Y-102526239D01*
X138715676Y-102526239D02*
X138670438Y-102616715D01*
X138670438Y-102616715D02*
X138670438Y-102842905D01*
X138670438Y-102842905D02*
X138715676Y-102933381D01*
X138715676Y-102933381D02*
X138760914Y-102978620D01*
X138760914Y-102978620D02*
X138851390Y-103023858D01*
X138851390Y-103023858D02*
X139122819Y-103023858D01*
X139122819Y-103023858D02*
X139213295Y-102978620D01*
X139213295Y-102978620D02*
X139258533Y-102933381D01*
X138263295Y-102933381D02*
X138218057Y-102978620D01*
X138218057Y-102978620D02*
X138263295Y-103023858D01*
X138263295Y-103023858D02*
X138308533Y-102978620D01*
X138308533Y-102978620D02*
X138263295Y-102933381D01*
X138263295Y-102933381D02*
X138263295Y-103023858D01*
X137901390Y-102073858D02*
X137313295Y-102073858D01*
X137313295Y-102073858D02*
X137629962Y-102435762D01*
X137629962Y-102435762D02*
X137494247Y-102435762D01*
X137494247Y-102435762D02*
X137403771Y-102481000D01*
X137403771Y-102481000D02*
X137358533Y-102526239D01*
X137358533Y-102526239D02*
X137313295Y-102616715D01*
X137313295Y-102616715D02*
X137313295Y-102842905D01*
X137313295Y-102842905D02*
X137358533Y-102933381D01*
X137358533Y-102933381D02*
X137403771Y-102978620D01*
X137403771Y-102978620D02*
X137494247Y-103023858D01*
X137494247Y-103023858D02*
X137765676Y-103023858D01*
X137765676Y-103023858D02*
X137856152Y-102978620D01*
X137856152Y-102978620D02*
X137901390Y-102933381D01*
X137041866Y-102073858D02*
X136725200Y-103023858D01*
X136725200Y-103023858D02*
X136408533Y-102073858D01*
X137946628Y-104055686D02*
X137629961Y-104055686D01*
X137494247Y-104553305D02*
X137946628Y-104553305D01*
X137946628Y-104553305D02*
X137946628Y-103603305D01*
X137946628Y-103603305D02*
X137494247Y-103603305D01*
X137087104Y-104553305D02*
X137087104Y-103603305D01*
X137087104Y-103603305D02*
X136544247Y-104553305D01*
X136544247Y-104553305D02*
X136544247Y-103603305D01*
X138444247Y-106082752D02*
X138444247Y-105132752D01*
X137810914Y-105132752D02*
X137629961Y-105132752D01*
X137629961Y-105132752D02*
X137539485Y-105177990D01*
X137539485Y-105177990D02*
X137449009Y-105268466D01*
X137449009Y-105268466D02*
X137403771Y-105449418D01*
X137403771Y-105449418D02*
X137403771Y-105766085D01*
X137403771Y-105766085D02*
X137449009Y-105947037D01*
X137449009Y-105947037D02*
X137539485Y-106037514D01*
X137539485Y-106037514D02*
X137629961Y-106082752D01*
X137629961Y-106082752D02*
X137810914Y-106082752D01*
X137810914Y-106082752D02*
X137901390Y-106037514D01*
X137901390Y-106037514D02*
X137991866Y-105947037D01*
X137991866Y-105947037D02*
X138037104Y-105766085D01*
X138037104Y-105766085D02*
X138037104Y-105449418D01*
X138037104Y-105449418D02*
X137991866Y-105268466D01*
X137991866Y-105268466D02*
X137901390Y-105177990D01*
X137901390Y-105177990D02*
X137810914Y-105132752D01*
X136589485Y-105449418D02*
X136589485Y-106082752D01*
X136815676Y-105087514D02*
X137041866Y-105766085D01*
X137041866Y-105766085D02*
X136453771Y-105766085D01*
X138444247Y-107612199D02*
X138444247Y-106662199D01*
X137810914Y-106662199D02*
X137629961Y-106662199D01*
X137629961Y-106662199D02*
X137539485Y-106707437D01*
X137539485Y-106707437D02*
X137449009Y-106797913D01*
X137449009Y-106797913D02*
X137403771Y-106978865D01*
X137403771Y-106978865D02*
X137403771Y-107295532D01*
X137403771Y-107295532D02*
X137449009Y-107476484D01*
X137449009Y-107476484D02*
X137539485Y-107566961D01*
X137539485Y-107566961D02*
X137629961Y-107612199D01*
X137629961Y-107612199D02*
X137810914Y-107612199D01*
X137810914Y-107612199D02*
X137901390Y-107566961D01*
X137901390Y-107566961D02*
X137991866Y-107476484D01*
X137991866Y-107476484D02*
X138037104Y-107295532D01*
X138037104Y-107295532D02*
X138037104Y-106978865D01*
X138037104Y-106978865D02*
X137991866Y-106797913D01*
X137991866Y-106797913D02*
X137901390Y-106707437D01*
X137901390Y-106707437D02*
X137810914Y-106662199D01*
X136544247Y-106662199D02*
X136996628Y-106662199D01*
X136996628Y-106662199D02*
X137041866Y-107114580D01*
X137041866Y-107114580D02*
X136996628Y-107069341D01*
X136996628Y-107069341D02*
X136906152Y-107024103D01*
X136906152Y-107024103D02*
X136679961Y-107024103D01*
X136679961Y-107024103D02*
X136589485Y-107069341D01*
X136589485Y-107069341D02*
X136544247Y-107114580D01*
X136544247Y-107114580D02*
X136499009Y-107205056D01*
X136499009Y-107205056D02*
X136499009Y-107431246D01*
X136499009Y-107431246D02*
X136544247Y-107521722D01*
X136544247Y-107521722D02*
X136589485Y-107566961D01*
X136589485Y-107566961D02*
X136679961Y-107612199D01*
X136679961Y-107612199D02*
X136906152Y-107612199D01*
X136906152Y-107612199D02*
X136996628Y-107566961D01*
X136996628Y-107566961D02*
X137041866Y-107521722D01*
X138444247Y-109141646D02*
X138444247Y-108191646D01*
X137810914Y-108191646D02*
X137629961Y-108191646D01*
X137629961Y-108191646D02*
X137539485Y-108236884D01*
X137539485Y-108236884D02*
X137449009Y-108327360D01*
X137449009Y-108327360D02*
X137403771Y-108508312D01*
X137403771Y-108508312D02*
X137403771Y-108824979D01*
X137403771Y-108824979D02*
X137449009Y-109005931D01*
X137449009Y-109005931D02*
X137539485Y-109096408D01*
X137539485Y-109096408D02*
X137629961Y-109141646D01*
X137629961Y-109141646D02*
X137810914Y-109141646D01*
X137810914Y-109141646D02*
X137901390Y-109096408D01*
X137901390Y-109096408D02*
X137991866Y-109005931D01*
X137991866Y-109005931D02*
X138037104Y-108824979D01*
X138037104Y-108824979D02*
X138037104Y-108508312D01*
X138037104Y-108508312D02*
X137991866Y-108327360D01*
X137991866Y-108327360D02*
X137901390Y-108236884D01*
X137901390Y-108236884D02*
X137810914Y-108191646D01*
X136589485Y-108191646D02*
X136770438Y-108191646D01*
X136770438Y-108191646D02*
X136860914Y-108236884D01*
X136860914Y-108236884D02*
X136906152Y-108282122D01*
X136906152Y-108282122D02*
X136996628Y-108417836D01*
X136996628Y-108417836D02*
X137041866Y-108598788D01*
X137041866Y-108598788D02*
X137041866Y-108960693D01*
X137041866Y-108960693D02*
X136996628Y-109051169D01*
X136996628Y-109051169D02*
X136951390Y-109096408D01*
X136951390Y-109096408D02*
X136860914Y-109141646D01*
X136860914Y-109141646D02*
X136679961Y-109141646D01*
X136679961Y-109141646D02*
X136589485Y-109096408D01*
X136589485Y-109096408D02*
X136544247Y-109051169D01*
X136544247Y-109051169D02*
X136499009Y-108960693D01*
X136499009Y-108960693D02*
X136499009Y-108734503D01*
X136499009Y-108734503D02*
X136544247Y-108644027D01*
X136544247Y-108644027D02*
X136589485Y-108598788D01*
X136589485Y-108598788D02*
X136679961Y-108553550D01*
X136679961Y-108553550D02*
X136860914Y-108553550D01*
X136860914Y-108553550D02*
X136951390Y-108598788D01*
X136951390Y-108598788D02*
X136996628Y-108644027D01*
X136996628Y-108644027D02*
X137041866Y-108734503D01*
X138444247Y-110671093D02*
X138444247Y-109721093D01*
X137810914Y-109721093D02*
X137629961Y-109721093D01*
X137629961Y-109721093D02*
X137539485Y-109766331D01*
X137539485Y-109766331D02*
X137449009Y-109856807D01*
X137449009Y-109856807D02*
X137403771Y-110037759D01*
X137403771Y-110037759D02*
X137403771Y-110354426D01*
X137403771Y-110354426D02*
X137449009Y-110535378D01*
X137449009Y-110535378D02*
X137539485Y-110625855D01*
X137539485Y-110625855D02*
X137629961Y-110671093D01*
X137629961Y-110671093D02*
X137810914Y-110671093D01*
X137810914Y-110671093D02*
X137901390Y-110625855D01*
X137901390Y-110625855D02*
X137991866Y-110535378D01*
X137991866Y-110535378D02*
X138037104Y-110354426D01*
X138037104Y-110354426D02*
X138037104Y-110037759D01*
X138037104Y-110037759D02*
X137991866Y-109856807D01*
X137991866Y-109856807D02*
X137901390Y-109766331D01*
X137901390Y-109766331D02*
X137810914Y-109721093D01*
X137087104Y-109721093D02*
X136453771Y-109721093D01*
X136453771Y-109721093D02*
X136860914Y-110671093D01*
X139349009Y-112200540D02*
X139349009Y-111250540D01*
X138715676Y-111250540D02*
X138534723Y-111250540D01*
X138534723Y-111250540D02*
X138444247Y-111295778D01*
X138444247Y-111295778D02*
X138353771Y-111386254D01*
X138353771Y-111386254D02*
X138308533Y-111567206D01*
X138308533Y-111567206D02*
X138308533Y-111883873D01*
X138308533Y-111883873D02*
X138353771Y-112064825D01*
X138353771Y-112064825D02*
X138444247Y-112155302D01*
X138444247Y-112155302D02*
X138534723Y-112200540D01*
X138534723Y-112200540D02*
X138715676Y-112200540D01*
X138715676Y-112200540D02*
X138806152Y-112155302D01*
X138806152Y-112155302D02*
X138896628Y-112064825D01*
X138896628Y-112064825D02*
X138941866Y-111883873D01*
X138941866Y-111883873D02*
X138941866Y-111567206D01*
X138941866Y-111567206D02*
X138896628Y-111386254D01*
X138896628Y-111386254D02*
X138806152Y-111295778D01*
X138806152Y-111295778D02*
X138715676Y-111250540D01*
X137403771Y-112200540D02*
X137946628Y-112200540D01*
X137675200Y-112200540D02*
X137675200Y-111250540D01*
X137675200Y-111250540D02*
X137765676Y-111386254D01*
X137765676Y-111386254D02*
X137856152Y-111476730D01*
X137856152Y-111476730D02*
X137946628Y-111521968D01*
X136544247Y-111250540D02*
X136996628Y-111250540D01*
X136996628Y-111250540D02*
X137041866Y-111702921D01*
X137041866Y-111702921D02*
X136996628Y-111657682D01*
X136996628Y-111657682D02*
X136906152Y-111612444D01*
X136906152Y-111612444D02*
X136679961Y-111612444D01*
X136679961Y-111612444D02*
X136589485Y-111657682D01*
X136589485Y-111657682D02*
X136544247Y-111702921D01*
X136544247Y-111702921D02*
X136499009Y-111793397D01*
X136499009Y-111793397D02*
X136499009Y-112019587D01*
X136499009Y-112019587D02*
X136544247Y-112110063D01*
X136544247Y-112110063D02*
X136589485Y-112155302D01*
X136589485Y-112155302D02*
X136679961Y-112200540D01*
X136679961Y-112200540D02*
X136906152Y-112200540D01*
X136906152Y-112200540D02*
X136996628Y-112155302D01*
X136996628Y-112155302D02*
X137041866Y-112110063D01*
X139349009Y-113729987D02*
X139349009Y-112779987D01*
X138715676Y-112779987D02*
X138534723Y-112779987D01*
X138534723Y-112779987D02*
X138444247Y-112825225D01*
X138444247Y-112825225D02*
X138353771Y-112915701D01*
X138353771Y-112915701D02*
X138308533Y-113096653D01*
X138308533Y-113096653D02*
X138308533Y-113413320D01*
X138308533Y-113413320D02*
X138353771Y-113594272D01*
X138353771Y-113594272D02*
X138444247Y-113684749D01*
X138444247Y-113684749D02*
X138534723Y-113729987D01*
X138534723Y-113729987D02*
X138715676Y-113729987D01*
X138715676Y-113729987D02*
X138806152Y-113684749D01*
X138806152Y-113684749D02*
X138896628Y-113594272D01*
X138896628Y-113594272D02*
X138941866Y-113413320D01*
X138941866Y-113413320D02*
X138941866Y-113096653D01*
X138941866Y-113096653D02*
X138896628Y-112915701D01*
X138896628Y-112915701D02*
X138806152Y-112825225D01*
X138806152Y-112825225D02*
X138715676Y-112779987D01*
X137403771Y-113729987D02*
X137946628Y-113729987D01*
X137675200Y-113729987D02*
X137675200Y-112779987D01*
X137675200Y-112779987D02*
X137765676Y-112915701D01*
X137765676Y-112915701D02*
X137856152Y-113006177D01*
X137856152Y-113006177D02*
X137946628Y-113051415D01*
X136589485Y-112779987D02*
X136770438Y-112779987D01*
X136770438Y-112779987D02*
X136860914Y-112825225D01*
X136860914Y-112825225D02*
X136906152Y-112870463D01*
X136906152Y-112870463D02*
X136996628Y-113006177D01*
X136996628Y-113006177D02*
X137041866Y-113187129D01*
X137041866Y-113187129D02*
X137041866Y-113549034D01*
X137041866Y-113549034D02*
X136996628Y-113639510D01*
X136996628Y-113639510D02*
X136951390Y-113684749D01*
X136951390Y-113684749D02*
X136860914Y-113729987D01*
X136860914Y-113729987D02*
X136679961Y-113729987D01*
X136679961Y-113729987D02*
X136589485Y-113684749D01*
X136589485Y-113684749D02*
X136544247Y-113639510D01*
X136544247Y-113639510D02*
X136499009Y-113549034D01*
X136499009Y-113549034D02*
X136499009Y-113322844D01*
X136499009Y-113322844D02*
X136544247Y-113232368D01*
X136544247Y-113232368D02*
X136589485Y-113187129D01*
X136589485Y-113187129D02*
X136679961Y-113141891D01*
X136679961Y-113141891D02*
X136860914Y-113141891D01*
X136860914Y-113141891D02*
X136951390Y-113187129D01*
X136951390Y-113187129D02*
X136996628Y-113232368D01*
X136996628Y-113232368D02*
X137041866Y-113322844D01*
X139349009Y-115259434D02*
X139349009Y-114309434D01*
X138715676Y-114309434D02*
X138534723Y-114309434D01*
X138534723Y-114309434D02*
X138444247Y-114354672D01*
X138444247Y-114354672D02*
X138353771Y-114445148D01*
X138353771Y-114445148D02*
X138308533Y-114626100D01*
X138308533Y-114626100D02*
X138308533Y-114942767D01*
X138308533Y-114942767D02*
X138353771Y-115123719D01*
X138353771Y-115123719D02*
X138444247Y-115214196D01*
X138444247Y-115214196D02*
X138534723Y-115259434D01*
X138534723Y-115259434D02*
X138715676Y-115259434D01*
X138715676Y-115259434D02*
X138806152Y-115214196D01*
X138806152Y-115214196D02*
X138896628Y-115123719D01*
X138896628Y-115123719D02*
X138941866Y-114942767D01*
X138941866Y-114942767D02*
X138941866Y-114626100D01*
X138941866Y-114626100D02*
X138896628Y-114445148D01*
X138896628Y-114445148D02*
X138806152Y-114354672D01*
X138806152Y-114354672D02*
X138715676Y-114309434D01*
X137403771Y-115259434D02*
X137946628Y-115259434D01*
X137675200Y-115259434D02*
X137675200Y-114309434D01*
X137675200Y-114309434D02*
X137765676Y-114445148D01*
X137765676Y-114445148D02*
X137856152Y-114535624D01*
X137856152Y-114535624D02*
X137946628Y-114580862D01*
X137087104Y-114309434D02*
X136453771Y-114309434D01*
X136453771Y-114309434D02*
X136860914Y-115259434D01*
X139349009Y-116788881D02*
X139349009Y-115838881D01*
X138715676Y-115838881D02*
X138534723Y-115838881D01*
X138534723Y-115838881D02*
X138444247Y-115884119D01*
X138444247Y-115884119D02*
X138353771Y-115974595D01*
X138353771Y-115974595D02*
X138308533Y-116155547D01*
X138308533Y-116155547D02*
X138308533Y-116472214D01*
X138308533Y-116472214D02*
X138353771Y-116653166D01*
X138353771Y-116653166D02*
X138444247Y-116743643D01*
X138444247Y-116743643D02*
X138534723Y-116788881D01*
X138534723Y-116788881D02*
X138715676Y-116788881D01*
X138715676Y-116788881D02*
X138806152Y-116743643D01*
X138806152Y-116743643D02*
X138896628Y-116653166D01*
X138896628Y-116653166D02*
X138941866Y-116472214D01*
X138941866Y-116472214D02*
X138941866Y-116155547D01*
X138941866Y-116155547D02*
X138896628Y-115974595D01*
X138896628Y-115974595D02*
X138806152Y-115884119D01*
X138806152Y-115884119D02*
X138715676Y-115838881D01*
X137403771Y-116788881D02*
X137946628Y-116788881D01*
X137675200Y-116788881D02*
X137675200Y-115838881D01*
X137675200Y-115838881D02*
X137765676Y-115974595D01*
X137765676Y-115974595D02*
X137856152Y-116065071D01*
X137856152Y-116065071D02*
X137946628Y-116110309D01*
X136860914Y-116246023D02*
X136951390Y-116200785D01*
X136951390Y-116200785D02*
X136996628Y-116155547D01*
X136996628Y-116155547D02*
X137041866Y-116065071D01*
X137041866Y-116065071D02*
X137041866Y-116019833D01*
X137041866Y-116019833D02*
X136996628Y-115929357D01*
X136996628Y-115929357D02*
X136951390Y-115884119D01*
X136951390Y-115884119D02*
X136860914Y-115838881D01*
X136860914Y-115838881D02*
X136679961Y-115838881D01*
X136679961Y-115838881D02*
X136589485Y-115884119D01*
X136589485Y-115884119D02*
X136544247Y-115929357D01*
X136544247Y-115929357D02*
X136499009Y-116019833D01*
X136499009Y-116019833D02*
X136499009Y-116065071D01*
X136499009Y-116065071D02*
X136544247Y-116155547D01*
X136544247Y-116155547D02*
X136589485Y-116200785D01*
X136589485Y-116200785D02*
X136679961Y-116246023D01*
X136679961Y-116246023D02*
X136860914Y-116246023D01*
X136860914Y-116246023D02*
X136951390Y-116291262D01*
X136951390Y-116291262D02*
X136996628Y-116336500D01*
X136996628Y-116336500D02*
X137041866Y-116426976D01*
X137041866Y-116426976D02*
X137041866Y-116607928D01*
X137041866Y-116607928D02*
X136996628Y-116698404D01*
X136996628Y-116698404D02*
X136951390Y-116743643D01*
X136951390Y-116743643D02*
X136860914Y-116788881D01*
X136860914Y-116788881D02*
X136679961Y-116788881D01*
X136679961Y-116788881D02*
X136589485Y-116743643D01*
X136589485Y-116743643D02*
X136544247Y-116698404D01*
X136544247Y-116698404D02*
X136499009Y-116607928D01*
X136499009Y-116607928D02*
X136499009Y-116426976D01*
X136499009Y-116426976D02*
X136544247Y-116336500D01*
X136544247Y-116336500D02*
X136589485Y-116291262D01*
X136589485Y-116291262D02*
X136679961Y-116246023D01*
X138444247Y-118318328D02*
X138444247Y-117368328D01*
X137810914Y-117368328D02*
X137629961Y-117368328D01*
X137629961Y-117368328D02*
X137539485Y-117413566D01*
X137539485Y-117413566D02*
X137449009Y-117504042D01*
X137449009Y-117504042D02*
X137403771Y-117684994D01*
X137403771Y-117684994D02*
X137403771Y-118001661D01*
X137403771Y-118001661D02*
X137449009Y-118182613D01*
X137449009Y-118182613D02*
X137539485Y-118273090D01*
X137539485Y-118273090D02*
X137629961Y-118318328D01*
X137629961Y-118318328D02*
X137810914Y-118318328D01*
X137810914Y-118318328D02*
X137901390Y-118273090D01*
X137901390Y-118273090D02*
X137991866Y-118182613D01*
X137991866Y-118182613D02*
X138037104Y-118001661D01*
X138037104Y-118001661D02*
X138037104Y-117684994D01*
X138037104Y-117684994D02*
X137991866Y-117504042D01*
X137991866Y-117504042D02*
X137901390Y-117413566D01*
X137901390Y-117413566D02*
X137810914Y-117368328D01*
X136860914Y-117775470D02*
X136951390Y-117730232D01*
X136951390Y-117730232D02*
X136996628Y-117684994D01*
X136996628Y-117684994D02*
X137041866Y-117594518D01*
X137041866Y-117594518D02*
X137041866Y-117549280D01*
X137041866Y-117549280D02*
X136996628Y-117458804D01*
X136996628Y-117458804D02*
X136951390Y-117413566D01*
X136951390Y-117413566D02*
X136860914Y-117368328D01*
X136860914Y-117368328D02*
X136679961Y-117368328D01*
X136679961Y-117368328D02*
X136589485Y-117413566D01*
X136589485Y-117413566D02*
X136544247Y-117458804D01*
X136544247Y-117458804D02*
X136499009Y-117549280D01*
X136499009Y-117549280D02*
X136499009Y-117594518D01*
X136499009Y-117594518D02*
X136544247Y-117684994D01*
X136544247Y-117684994D02*
X136589485Y-117730232D01*
X136589485Y-117730232D02*
X136679961Y-117775470D01*
X136679961Y-117775470D02*
X136860914Y-117775470D01*
X136860914Y-117775470D02*
X136951390Y-117820709D01*
X136951390Y-117820709D02*
X136996628Y-117865947D01*
X136996628Y-117865947D02*
X137041866Y-117956423D01*
X137041866Y-117956423D02*
X137041866Y-118137375D01*
X137041866Y-118137375D02*
X136996628Y-118227851D01*
X136996628Y-118227851D02*
X136951390Y-118273090D01*
X136951390Y-118273090D02*
X136860914Y-118318328D01*
X136860914Y-118318328D02*
X136679961Y-118318328D01*
X136679961Y-118318328D02*
X136589485Y-118273090D01*
X136589485Y-118273090D02*
X136544247Y-118227851D01*
X136544247Y-118227851D02*
X136499009Y-118137375D01*
X136499009Y-118137375D02*
X136499009Y-117956423D01*
X136499009Y-117956423D02*
X136544247Y-117865947D01*
X136544247Y-117865947D02*
X136589485Y-117820709D01*
X136589485Y-117820709D02*
X136679961Y-117775470D01*
X139349009Y-119847775D02*
X139349009Y-118897775D01*
X138715676Y-118897775D02*
X138534723Y-118897775D01*
X138534723Y-118897775D02*
X138444247Y-118943013D01*
X138444247Y-118943013D02*
X138353771Y-119033489D01*
X138353771Y-119033489D02*
X138308533Y-119214441D01*
X138308533Y-119214441D02*
X138308533Y-119531108D01*
X138308533Y-119531108D02*
X138353771Y-119712060D01*
X138353771Y-119712060D02*
X138444247Y-119802537D01*
X138444247Y-119802537D02*
X138534723Y-119847775D01*
X138534723Y-119847775D02*
X138715676Y-119847775D01*
X138715676Y-119847775D02*
X138806152Y-119802537D01*
X138806152Y-119802537D02*
X138896628Y-119712060D01*
X138896628Y-119712060D02*
X138941866Y-119531108D01*
X138941866Y-119531108D02*
X138941866Y-119214441D01*
X138941866Y-119214441D02*
X138896628Y-119033489D01*
X138896628Y-119033489D02*
X138806152Y-118943013D01*
X138806152Y-118943013D02*
X138715676Y-118897775D01*
X137403771Y-119847775D02*
X137946628Y-119847775D01*
X137675200Y-119847775D02*
X137675200Y-118897775D01*
X137675200Y-118897775D02*
X137765676Y-119033489D01*
X137765676Y-119033489D02*
X137856152Y-119123965D01*
X137856152Y-119123965D02*
X137946628Y-119169203D01*
X136951390Y-119847775D02*
X136770438Y-119847775D01*
X136770438Y-119847775D02*
X136679961Y-119802537D01*
X136679961Y-119802537D02*
X136634723Y-119757298D01*
X136634723Y-119757298D02*
X136544247Y-119621584D01*
X136544247Y-119621584D02*
X136499009Y-119440632D01*
X136499009Y-119440632D02*
X136499009Y-119078727D01*
X136499009Y-119078727D02*
X136544247Y-118988251D01*
X136544247Y-118988251D02*
X136589485Y-118943013D01*
X136589485Y-118943013D02*
X136679961Y-118897775D01*
X136679961Y-118897775D02*
X136860914Y-118897775D01*
X136860914Y-118897775D02*
X136951390Y-118943013D01*
X136951390Y-118943013D02*
X136996628Y-118988251D01*
X136996628Y-118988251D02*
X137041866Y-119078727D01*
X137041866Y-119078727D02*
X137041866Y-119304917D01*
X137041866Y-119304917D02*
X136996628Y-119395394D01*
X136996628Y-119395394D02*
X136951390Y-119440632D01*
X136951390Y-119440632D02*
X136860914Y-119485870D01*
X136860914Y-119485870D02*
X136679961Y-119485870D01*
X136679961Y-119485870D02*
X136589485Y-119440632D01*
X136589485Y-119440632D02*
X136544247Y-119395394D01*
X136544247Y-119395394D02*
X136499009Y-119304917D01*
X139349009Y-121377222D02*
X139349009Y-120427222D01*
X138715676Y-120427222D02*
X138534723Y-120427222D01*
X138534723Y-120427222D02*
X138444247Y-120472460D01*
X138444247Y-120472460D02*
X138353771Y-120562936D01*
X138353771Y-120562936D02*
X138308533Y-120743888D01*
X138308533Y-120743888D02*
X138308533Y-121060555D01*
X138308533Y-121060555D02*
X138353771Y-121241507D01*
X138353771Y-121241507D02*
X138444247Y-121331984D01*
X138444247Y-121331984D02*
X138534723Y-121377222D01*
X138534723Y-121377222D02*
X138715676Y-121377222D01*
X138715676Y-121377222D02*
X138806152Y-121331984D01*
X138806152Y-121331984D02*
X138896628Y-121241507D01*
X138896628Y-121241507D02*
X138941866Y-121060555D01*
X138941866Y-121060555D02*
X138941866Y-120743888D01*
X138941866Y-120743888D02*
X138896628Y-120562936D01*
X138896628Y-120562936D02*
X138806152Y-120472460D01*
X138806152Y-120472460D02*
X138715676Y-120427222D01*
X137946628Y-120517698D02*
X137901390Y-120472460D01*
X137901390Y-120472460D02*
X137810914Y-120427222D01*
X137810914Y-120427222D02*
X137584723Y-120427222D01*
X137584723Y-120427222D02*
X137494247Y-120472460D01*
X137494247Y-120472460D02*
X137449009Y-120517698D01*
X137449009Y-120517698D02*
X137403771Y-120608174D01*
X137403771Y-120608174D02*
X137403771Y-120698650D01*
X137403771Y-120698650D02*
X137449009Y-120834364D01*
X137449009Y-120834364D02*
X137991866Y-121377222D01*
X137991866Y-121377222D02*
X137403771Y-121377222D01*
X136815676Y-120427222D02*
X136725199Y-120427222D01*
X136725199Y-120427222D02*
X136634723Y-120472460D01*
X136634723Y-120472460D02*
X136589485Y-120517698D01*
X136589485Y-120517698D02*
X136544247Y-120608174D01*
X136544247Y-120608174D02*
X136499009Y-120789126D01*
X136499009Y-120789126D02*
X136499009Y-121015317D01*
X136499009Y-121015317D02*
X136544247Y-121196269D01*
X136544247Y-121196269D02*
X136589485Y-121286745D01*
X136589485Y-121286745D02*
X136634723Y-121331984D01*
X136634723Y-121331984D02*
X136725199Y-121377222D01*
X136725199Y-121377222D02*
X136815676Y-121377222D01*
X136815676Y-121377222D02*
X136906152Y-121331984D01*
X136906152Y-121331984D02*
X136951390Y-121286745D01*
X136951390Y-121286745D02*
X136996628Y-121196269D01*
X136996628Y-121196269D02*
X137041866Y-121015317D01*
X137041866Y-121015317D02*
X137041866Y-120789126D01*
X137041866Y-120789126D02*
X136996628Y-120608174D01*
X136996628Y-120608174D02*
X136951390Y-120517698D01*
X136951390Y-120517698D02*
X136906152Y-120472460D01*
X136906152Y-120472460D02*
X136815676Y-120427222D01*
X138444247Y-122906669D02*
X138444247Y-121956669D01*
X137810914Y-121956669D02*
X137629961Y-121956669D01*
X137629961Y-121956669D02*
X137539485Y-122001907D01*
X137539485Y-122001907D02*
X137449009Y-122092383D01*
X137449009Y-122092383D02*
X137403771Y-122273335D01*
X137403771Y-122273335D02*
X137403771Y-122590002D01*
X137403771Y-122590002D02*
X137449009Y-122770954D01*
X137449009Y-122770954D02*
X137539485Y-122861431D01*
X137539485Y-122861431D02*
X137629961Y-122906669D01*
X137629961Y-122906669D02*
X137810914Y-122906669D01*
X137810914Y-122906669D02*
X137901390Y-122861431D01*
X137901390Y-122861431D02*
X137991866Y-122770954D01*
X137991866Y-122770954D02*
X138037104Y-122590002D01*
X138037104Y-122590002D02*
X138037104Y-122273335D01*
X138037104Y-122273335D02*
X137991866Y-122092383D01*
X137991866Y-122092383D02*
X137901390Y-122001907D01*
X137901390Y-122001907D02*
X137810914Y-121956669D01*
X137087104Y-121956669D02*
X136499009Y-121956669D01*
X136499009Y-121956669D02*
X136815676Y-122318573D01*
X136815676Y-122318573D02*
X136679961Y-122318573D01*
X136679961Y-122318573D02*
X136589485Y-122363811D01*
X136589485Y-122363811D02*
X136544247Y-122409050D01*
X136544247Y-122409050D02*
X136499009Y-122499526D01*
X136499009Y-122499526D02*
X136499009Y-122725716D01*
X136499009Y-122725716D02*
X136544247Y-122816192D01*
X136544247Y-122816192D02*
X136589485Y-122861431D01*
X136589485Y-122861431D02*
X136679961Y-122906669D01*
X136679961Y-122906669D02*
X136951390Y-122906669D01*
X136951390Y-122906669D02*
X137041866Y-122861431D01*
X137041866Y-122861431D02*
X137087104Y-122816192D01*
X139349009Y-124436116D02*
X139349009Y-123486116D01*
X138715676Y-123486116D02*
X138534723Y-123486116D01*
X138534723Y-123486116D02*
X138444247Y-123531354D01*
X138444247Y-123531354D02*
X138353771Y-123621830D01*
X138353771Y-123621830D02*
X138308533Y-123802782D01*
X138308533Y-123802782D02*
X138308533Y-124119449D01*
X138308533Y-124119449D02*
X138353771Y-124300401D01*
X138353771Y-124300401D02*
X138444247Y-124390878D01*
X138444247Y-124390878D02*
X138534723Y-124436116D01*
X138534723Y-124436116D02*
X138715676Y-124436116D01*
X138715676Y-124436116D02*
X138806152Y-124390878D01*
X138806152Y-124390878D02*
X138896628Y-124300401D01*
X138896628Y-124300401D02*
X138941866Y-124119449D01*
X138941866Y-124119449D02*
X138941866Y-123802782D01*
X138941866Y-123802782D02*
X138896628Y-123621830D01*
X138896628Y-123621830D02*
X138806152Y-123531354D01*
X138806152Y-123531354D02*
X138715676Y-123486116D01*
X137494247Y-123802782D02*
X137494247Y-124436116D01*
X137720438Y-123440878D02*
X137946628Y-124119449D01*
X137946628Y-124119449D02*
X137358533Y-124119449D01*
X136589485Y-123486116D02*
X136770438Y-123486116D01*
X136770438Y-123486116D02*
X136860914Y-123531354D01*
X136860914Y-123531354D02*
X136906152Y-123576592D01*
X136906152Y-123576592D02*
X136996628Y-123712306D01*
X136996628Y-123712306D02*
X137041866Y-123893258D01*
X137041866Y-123893258D02*
X137041866Y-124255163D01*
X137041866Y-124255163D02*
X136996628Y-124345639D01*
X136996628Y-124345639D02*
X136951390Y-124390878D01*
X136951390Y-124390878D02*
X136860914Y-124436116D01*
X136860914Y-124436116D02*
X136679961Y-124436116D01*
X136679961Y-124436116D02*
X136589485Y-124390878D01*
X136589485Y-124390878D02*
X136544247Y-124345639D01*
X136544247Y-124345639D02*
X136499009Y-124255163D01*
X136499009Y-124255163D02*
X136499009Y-124028973D01*
X136499009Y-124028973D02*
X136544247Y-123938497D01*
X136544247Y-123938497D02*
X136589485Y-123893258D01*
X136589485Y-123893258D02*
X136679961Y-123848020D01*
X136679961Y-123848020D02*
X136860914Y-123848020D01*
X136860914Y-123848020D02*
X136951390Y-123893258D01*
X136951390Y-123893258D02*
X136996628Y-123938497D01*
X136996628Y-123938497D02*
X137041866Y-124028973D01*
X138444247Y-125965563D02*
X138444247Y-125015563D01*
X137810914Y-125015563D02*
X137629961Y-125015563D01*
X137629961Y-125015563D02*
X137539485Y-125060801D01*
X137539485Y-125060801D02*
X137449009Y-125151277D01*
X137449009Y-125151277D02*
X137403771Y-125332229D01*
X137403771Y-125332229D02*
X137403771Y-125648896D01*
X137403771Y-125648896D02*
X137449009Y-125829848D01*
X137449009Y-125829848D02*
X137539485Y-125920325D01*
X137539485Y-125920325D02*
X137629961Y-125965563D01*
X137629961Y-125965563D02*
X137810914Y-125965563D01*
X137810914Y-125965563D02*
X137901390Y-125920325D01*
X137901390Y-125920325D02*
X137991866Y-125829848D01*
X137991866Y-125829848D02*
X138037104Y-125648896D01*
X138037104Y-125648896D02*
X138037104Y-125332229D01*
X138037104Y-125332229D02*
X137991866Y-125151277D01*
X137991866Y-125151277D02*
X137901390Y-125060801D01*
X137901390Y-125060801D02*
X137810914Y-125015563D01*
X136951390Y-125965563D02*
X136770438Y-125965563D01*
X136770438Y-125965563D02*
X136679961Y-125920325D01*
X136679961Y-125920325D02*
X136634723Y-125875086D01*
X136634723Y-125875086D02*
X136544247Y-125739372D01*
X136544247Y-125739372D02*
X136499009Y-125558420D01*
X136499009Y-125558420D02*
X136499009Y-125196515D01*
X136499009Y-125196515D02*
X136544247Y-125106039D01*
X136544247Y-125106039D02*
X136589485Y-125060801D01*
X136589485Y-125060801D02*
X136679961Y-125015563D01*
X136679961Y-125015563D02*
X136860914Y-125015563D01*
X136860914Y-125015563D02*
X136951390Y-125060801D01*
X136951390Y-125060801D02*
X136996628Y-125106039D01*
X136996628Y-125106039D02*
X137041866Y-125196515D01*
X137041866Y-125196515D02*
X137041866Y-125422705D01*
X137041866Y-125422705D02*
X136996628Y-125513182D01*
X136996628Y-125513182D02*
X136951390Y-125558420D01*
X136951390Y-125558420D02*
X136860914Y-125603658D01*
X136860914Y-125603658D02*
X136679961Y-125603658D01*
X136679961Y-125603658D02*
X136589485Y-125558420D01*
X136589485Y-125558420D02*
X136544247Y-125513182D01*
X136544247Y-125513182D02*
X136499009Y-125422705D01*
X139349009Y-127495010D02*
X139349009Y-126545010D01*
X138715676Y-126545010D02*
X138534723Y-126545010D01*
X138534723Y-126545010D02*
X138444247Y-126590248D01*
X138444247Y-126590248D02*
X138353771Y-126680724D01*
X138353771Y-126680724D02*
X138308533Y-126861676D01*
X138308533Y-126861676D02*
X138308533Y-127178343D01*
X138308533Y-127178343D02*
X138353771Y-127359295D01*
X138353771Y-127359295D02*
X138444247Y-127449772D01*
X138444247Y-127449772D02*
X138534723Y-127495010D01*
X138534723Y-127495010D02*
X138715676Y-127495010D01*
X138715676Y-127495010D02*
X138806152Y-127449772D01*
X138806152Y-127449772D02*
X138896628Y-127359295D01*
X138896628Y-127359295D02*
X138941866Y-127178343D01*
X138941866Y-127178343D02*
X138941866Y-126861676D01*
X138941866Y-126861676D02*
X138896628Y-126680724D01*
X138896628Y-126680724D02*
X138806152Y-126590248D01*
X138806152Y-126590248D02*
X138715676Y-126545010D01*
X137403771Y-127495010D02*
X137946628Y-127495010D01*
X137675200Y-127495010D02*
X137675200Y-126545010D01*
X137675200Y-126545010D02*
X137765676Y-126680724D01*
X137765676Y-126680724D02*
X137856152Y-126771200D01*
X137856152Y-126771200D02*
X137946628Y-126816438D01*
X136815676Y-126545010D02*
X136725199Y-126545010D01*
X136725199Y-126545010D02*
X136634723Y-126590248D01*
X136634723Y-126590248D02*
X136589485Y-126635486D01*
X136589485Y-126635486D02*
X136544247Y-126725962D01*
X136544247Y-126725962D02*
X136499009Y-126906914D01*
X136499009Y-126906914D02*
X136499009Y-127133105D01*
X136499009Y-127133105D02*
X136544247Y-127314057D01*
X136544247Y-127314057D02*
X136589485Y-127404533D01*
X136589485Y-127404533D02*
X136634723Y-127449772D01*
X136634723Y-127449772D02*
X136725199Y-127495010D01*
X136725199Y-127495010D02*
X136815676Y-127495010D01*
X136815676Y-127495010D02*
X136906152Y-127449772D01*
X136906152Y-127449772D02*
X136951390Y-127404533D01*
X136951390Y-127404533D02*
X136996628Y-127314057D01*
X136996628Y-127314057D02*
X137041866Y-127133105D01*
X137041866Y-127133105D02*
X137041866Y-126906914D01*
X137041866Y-126906914D02*
X136996628Y-126725962D01*
X136996628Y-126725962D02*
X136951390Y-126635486D01*
X136951390Y-126635486D02*
X136906152Y-126590248D01*
X136906152Y-126590248D02*
X136815676Y-126545010D01*
X139349009Y-129024457D02*
X139349009Y-128074457D01*
X138715676Y-128074457D02*
X138534723Y-128074457D01*
X138534723Y-128074457D02*
X138444247Y-128119695D01*
X138444247Y-128119695D02*
X138353771Y-128210171D01*
X138353771Y-128210171D02*
X138308533Y-128391123D01*
X138308533Y-128391123D02*
X138308533Y-128707790D01*
X138308533Y-128707790D02*
X138353771Y-128888742D01*
X138353771Y-128888742D02*
X138444247Y-128979219D01*
X138444247Y-128979219D02*
X138534723Y-129024457D01*
X138534723Y-129024457D02*
X138715676Y-129024457D01*
X138715676Y-129024457D02*
X138806152Y-128979219D01*
X138806152Y-128979219D02*
X138896628Y-128888742D01*
X138896628Y-128888742D02*
X138941866Y-128707790D01*
X138941866Y-128707790D02*
X138941866Y-128391123D01*
X138941866Y-128391123D02*
X138896628Y-128210171D01*
X138896628Y-128210171D02*
X138806152Y-128119695D01*
X138806152Y-128119695D02*
X138715676Y-128074457D01*
X137403771Y-129024457D02*
X137946628Y-129024457D01*
X137675200Y-129024457D02*
X137675200Y-128074457D01*
X137675200Y-128074457D02*
X137765676Y-128210171D01*
X137765676Y-128210171D02*
X137856152Y-128300647D01*
X137856152Y-128300647D02*
X137946628Y-128345885D01*
X136499009Y-129024457D02*
X137041866Y-129024457D01*
X136770438Y-129024457D02*
X136770438Y-128074457D01*
X136770438Y-128074457D02*
X136860914Y-128210171D01*
X136860914Y-128210171D02*
X136951390Y-128300647D01*
X136951390Y-128300647D02*
X137041866Y-128345885D01*
X139349009Y-130553904D02*
X139349009Y-129603904D01*
X138715676Y-129603904D02*
X138534723Y-129603904D01*
X138534723Y-129603904D02*
X138444247Y-129649142D01*
X138444247Y-129649142D02*
X138353771Y-129739618D01*
X138353771Y-129739618D02*
X138308533Y-129920570D01*
X138308533Y-129920570D02*
X138308533Y-130237237D01*
X138308533Y-130237237D02*
X138353771Y-130418189D01*
X138353771Y-130418189D02*
X138444247Y-130508666D01*
X138444247Y-130508666D02*
X138534723Y-130553904D01*
X138534723Y-130553904D02*
X138715676Y-130553904D01*
X138715676Y-130553904D02*
X138806152Y-130508666D01*
X138806152Y-130508666D02*
X138896628Y-130418189D01*
X138896628Y-130418189D02*
X138941866Y-130237237D01*
X138941866Y-130237237D02*
X138941866Y-129920570D01*
X138941866Y-129920570D02*
X138896628Y-129739618D01*
X138896628Y-129739618D02*
X138806152Y-129649142D01*
X138806152Y-129649142D02*
X138715676Y-129603904D01*
X137403771Y-130553904D02*
X137946628Y-130553904D01*
X137675200Y-130553904D02*
X137675200Y-129603904D01*
X137675200Y-129603904D02*
X137765676Y-129739618D01*
X137765676Y-129739618D02*
X137856152Y-129830094D01*
X137856152Y-129830094D02*
X137946628Y-129875332D01*
X137041866Y-129694380D02*
X136996628Y-129649142D01*
X136996628Y-129649142D02*
X136906152Y-129603904D01*
X136906152Y-129603904D02*
X136679961Y-129603904D01*
X136679961Y-129603904D02*
X136589485Y-129649142D01*
X136589485Y-129649142D02*
X136544247Y-129694380D01*
X136544247Y-129694380D02*
X136499009Y-129784856D01*
X136499009Y-129784856D02*
X136499009Y-129875332D01*
X136499009Y-129875332D02*
X136544247Y-130011046D01*
X136544247Y-130011046D02*
X137087104Y-130553904D01*
X137087104Y-130553904D02*
X136499009Y-130553904D01*
X159042897Y-100540148D02*
X159133373Y-100494910D01*
X159133373Y-100494910D02*
X159269087Y-100494910D01*
X159269087Y-100494910D02*
X159404802Y-100540148D01*
X159404802Y-100540148D02*
X159495278Y-100630624D01*
X159495278Y-100630624D02*
X159540516Y-100721100D01*
X159540516Y-100721100D02*
X159585754Y-100902052D01*
X159585754Y-100902052D02*
X159585754Y-101037767D01*
X159585754Y-101037767D02*
X159540516Y-101218719D01*
X159540516Y-101218719D02*
X159495278Y-101309195D01*
X159495278Y-101309195D02*
X159404802Y-101399672D01*
X159404802Y-101399672D02*
X159269087Y-101444910D01*
X159269087Y-101444910D02*
X159178611Y-101444910D01*
X159178611Y-101444910D02*
X159042897Y-101399672D01*
X159042897Y-101399672D02*
X158997659Y-101354433D01*
X158997659Y-101354433D02*
X158997659Y-101037767D01*
X158997659Y-101037767D02*
X159178611Y-101037767D01*
X158590516Y-101444910D02*
X158590516Y-100494910D01*
X158590516Y-100494910D02*
X158047659Y-101444910D01*
X158047659Y-101444910D02*
X158047659Y-100494910D01*
X157595278Y-101444910D02*
X157595278Y-100494910D01*
X157595278Y-100494910D02*
X157369088Y-100494910D01*
X157369088Y-100494910D02*
X157233373Y-100540148D01*
X157233373Y-100540148D02*
X157142897Y-100630624D01*
X157142897Y-100630624D02*
X157097659Y-100721100D01*
X157097659Y-100721100D02*
X157052421Y-100902052D01*
X157052421Y-100902052D02*
X157052421Y-101037767D01*
X157052421Y-101037767D02*
X157097659Y-101218719D01*
X157097659Y-101218719D02*
X157142897Y-101309195D01*
X157142897Y-101309195D02*
X157233373Y-101399672D01*
X157233373Y-101399672D02*
X157369088Y-101444910D01*
X157369088Y-101444910D02*
X157595278Y-101444910D01*
X159540516Y-102974357D02*
X159540516Y-102024357D01*
X158907183Y-102024357D02*
X158726230Y-102024357D01*
X158726230Y-102024357D02*
X158635754Y-102069595D01*
X158635754Y-102069595D02*
X158545278Y-102160071D01*
X158545278Y-102160071D02*
X158500040Y-102341023D01*
X158500040Y-102341023D02*
X158500040Y-102657690D01*
X158500040Y-102657690D02*
X158545278Y-102838642D01*
X158545278Y-102838642D02*
X158635754Y-102929119D01*
X158635754Y-102929119D02*
X158726230Y-102974357D01*
X158726230Y-102974357D02*
X158907183Y-102974357D01*
X158907183Y-102974357D02*
X158997659Y-102929119D01*
X158997659Y-102929119D02*
X159088135Y-102838642D01*
X159088135Y-102838642D02*
X159133373Y-102657690D01*
X159133373Y-102657690D02*
X159133373Y-102341023D01*
X159133373Y-102341023D02*
X159088135Y-102160071D01*
X159088135Y-102160071D02*
X158997659Y-102069595D01*
X158997659Y-102069595D02*
X158907183Y-102024357D01*
X157595278Y-102974357D02*
X158138135Y-102974357D01*
X157866707Y-102974357D02*
X157866707Y-102024357D01*
X157866707Y-102024357D02*
X157957183Y-102160071D01*
X157957183Y-102160071D02*
X158047659Y-102250547D01*
X158047659Y-102250547D02*
X158138135Y-102295785D01*
X159540516Y-104503804D02*
X159540516Y-103553804D01*
X158907183Y-103553804D02*
X158726230Y-103553804D01*
X158726230Y-103553804D02*
X158635754Y-103599042D01*
X158635754Y-103599042D02*
X158545278Y-103689518D01*
X158545278Y-103689518D02*
X158500040Y-103870470D01*
X158500040Y-103870470D02*
X158500040Y-104187137D01*
X158500040Y-104187137D02*
X158545278Y-104368089D01*
X158545278Y-104368089D02*
X158635754Y-104458566D01*
X158635754Y-104458566D02*
X158726230Y-104503804D01*
X158726230Y-104503804D02*
X158907183Y-104503804D01*
X158907183Y-104503804D02*
X158997659Y-104458566D01*
X158997659Y-104458566D02*
X159088135Y-104368089D01*
X159088135Y-104368089D02*
X159133373Y-104187137D01*
X159133373Y-104187137D02*
X159133373Y-103870470D01*
X159133373Y-103870470D02*
X159088135Y-103689518D01*
X159088135Y-103689518D02*
X158997659Y-103599042D01*
X158997659Y-103599042D02*
X158907183Y-103553804D01*
X158138135Y-103644280D02*
X158092897Y-103599042D01*
X158092897Y-103599042D02*
X158002421Y-103553804D01*
X158002421Y-103553804D02*
X157776230Y-103553804D01*
X157776230Y-103553804D02*
X157685754Y-103599042D01*
X157685754Y-103599042D02*
X157640516Y-103644280D01*
X157640516Y-103644280D02*
X157595278Y-103734756D01*
X157595278Y-103734756D02*
X157595278Y-103825232D01*
X157595278Y-103825232D02*
X157640516Y-103960946D01*
X157640516Y-103960946D02*
X158183373Y-104503804D01*
X158183373Y-104503804D02*
X157595278Y-104503804D01*
X159676230Y-105083251D02*
X159133373Y-105083251D01*
X159404802Y-106033251D02*
X159404802Y-105083251D01*
X158907182Y-105083251D02*
X158273849Y-106033251D01*
X158273849Y-105083251D02*
X158907182Y-106033251D01*
X157911944Y-106033251D02*
X157911944Y-105083251D01*
X157911944Y-105083251D02*
X157685754Y-105083251D01*
X157685754Y-105083251D02*
X157550039Y-105128489D01*
X157550039Y-105128489D02*
X157459563Y-105218965D01*
X157459563Y-105218965D02*
X157414325Y-105309441D01*
X157414325Y-105309441D02*
X157369087Y-105490393D01*
X157369087Y-105490393D02*
X157369087Y-105626108D01*
X157369087Y-105626108D02*
X157414325Y-105807060D01*
X157414325Y-105807060D02*
X157459563Y-105897536D01*
X157459563Y-105897536D02*
X157550039Y-105988013D01*
X157550039Y-105988013D02*
X157685754Y-106033251D01*
X157685754Y-106033251D02*
X157911944Y-106033251D01*
X156780992Y-105083251D02*
X156690515Y-105083251D01*
X156690515Y-105083251D02*
X156600039Y-105128489D01*
X156600039Y-105128489D02*
X156554801Y-105173727D01*
X156554801Y-105173727D02*
X156509563Y-105264203D01*
X156509563Y-105264203D02*
X156464325Y-105445155D01*
X156464325Y-105445155D02*
X156464325Y-105671346D01*
X156464325Y-105671346D02*
X156509563Y-105852298D01*
X156509563Y-105852298D02*
X156554801Y-105942774D01*
X156554801Y-105942774D02*
X156600039Y-105988013D01*
X156600039Y-105988013D02*
X156690515Y-106033251D01*
X156690515Y-106033251D02*
X156780992Y-106033251D01*
X156780992Y-106033251D02*
X156871468Y-105988013D01*
X156871468Y-105988013D02*
X156916706Y-105942774D01*
X156916706Y-105942774D02*
X156961944Y-105852298D01*
X156961944Y-105852298D02*
X157007182Y-105671346D01*
X157007182Y-105671346D02*
X157007182Y-105445155D01*
X157007182Y-105445155D02*
X156961944Y-105264203D01*
X156961944Y-105264203D02*
X156916706Y-105173727D01*
X156916706Y-105173727D02*
X156871468Y-105128489D01*
X156871468Y-105128489D02*
X156780992Y-105083251D01*
X158997659Y-107562698D02*
X159314326Y-107110317D01*
X159540516Y-107562698D02*
X159540516Y-106612698D01*
X159540516Y-106612698D02*
X159178611Y-106612698D01*
X159178611Y-106612698D02*
X159088135Y-106657936D01*
X159088135Y-106657936D02*
X159042897Y-106703174D01*
X159042897Y-106703174D02*
X158997659Y-106793650D01*
X158997659Y-106793650D02*
X158997659Y-106929364D01*
X158997659Y-106929364D02*
X159042897Y-107019840D01*
X159042897Y-107019840D02*
X159088135Y-107065079D01*
X159088135Y-107065079D02*
X159178611Y-107110317D01*
X159178611Y-107110317D02*
X159540516Y-107110317D01*
X158680992Y-106612698D02*
X158047659Y-107562698D01*
X158047659Y-106612698D02*
X158680992Y-107562698D01*
X157685754Y-107562698D02*
X157685754Y-106612698D01*
X157685754Y-106612698D02*
X157459564Y-106612698D01*
X157459564Y-106612698D02*
X157323849Y-106657936D01*
X157323849Y-106657936D02*
X157233373Y-106748412D01*
X157233373Y-106748412D02*
X157188135Y-106838888D01*
X157188135Y-106838888D02*
X157142897Y-107019840D01*
X157142897Y-107019840D02*
X157142897Y-107155555D01*
X157142897Y-107155555D02*
X157188135Y-107336507D01*
X157188135Y-107336507D02*
X157233373Y-107426983D01*
X157233373Y-107426983D02*
X157323849Y-107517460D01*
X157323849Y-107517460D02*
X157459564Y-107562698D01*
X157459564Y-107562698D02*
X157685754Y-107562698D01*
X156554802Y-106612698D02*
X156464325Y-106612698D01*
X156464325Y-106612698D02*
X156373849Y-106657936D01*
X156373849Y-106657936D02*
X156328611Y-106703174D01*
X156328611Y-106703174D02*
X156283373Y-106793650D01*
X156283373Y-106793650D02*
X156238135Y-106974602D01*
X156238135Y-106974602D02*
X156238135Y-107200793D01*
X156238135Y-107200793D02*
X156283373Y-107381745D01*
X156283373Y-107381745D02*
X156328611Y-107472221D01*
X156328611Y-107472221D02*
X156373849Y-107517460D01*
X156373849Y-107517460D02*
X156464325Y-107562698D01*
X156464325Y-107562698D02*
X156554802Y-107562698D01*
X156554802Y-107562698D02*
X156645278Y-107517460D01*
X156645278Y-107517460D02*
X156690516Y-107472221D01*
X156690516Y-107472221D02*
X156735754Y-107381745D01*
X156735754Y-107381745D02*
X156780992Y-107200793D01*
X156780992Y-107200793D02*
X156780992Y-106974602D01*
X156780992Y-106974602D02*
X156735754Y-106793650D01*
X156735754Y-106793650D02*
X156690516Y-106703174D01*
X156690516Y-106703174D02*
X156645278Y-106657936D01*
X156645278Y-106657936D02*
X156554802Y-106612698D01*
X159540516Y-109092145D02*
X159540516Y-108142145D01*
X158907183Y-108142145D02*
X158726230Y-108142145D01*
X158726230Y-108142145D02*
X158635754Y-108187383D01*
X158635754Y-108187383D02*
X158545278Y-108277859D01*
X158545278Y-108277859D02*
X158500040Y-108458811D01*
X158500040Y-108458811D02*
X158500040Y-108775478D01*
X158500040Y-108775478D02*
X158545278Y-108956430D01*
X158545278Y-108956430D02*
X158635754Y-109046907D01*
X158635754Y-109046907D02*
X158726230Y-109092145D01*
X158726230Y-109092145D02*
X158907183Y-109092145D01*
X158907183Y-109092145D02*
X158997659Y-109046907D01*
X158997659Y-109046907D02*
X159088135Y-108956430D01*
X159088135Y-108956430D02*
X159133373Y-108775478D01*
X159133373Y-108775478D02*
X159133373Y-108458811D01*
X159133373Y-108458811D02*
X159088135Y-108277859D01*
X159088135Y-108277859D02*
X158997659Y-108187383D01*
X158997659Y-108187383D02*
X158907183Y-108142145D01*
X157685754Y-108458811D02*
X157685754Y-109092145D01*
X157911945Y-108096907D02*
X158138135Y-108775478D01*
X158138135Y-108775478D02*
X157550040Y-108775478D01*
X157233373Y-108232621D02*
X157188135Y-108187383D01*
X157188135Y-108187383D02*
X157097659Y-108142145D01*
X157097659Y-108142145D02*
X156871468Y-108142145D01*
X156871468Y-108142145D02*
X156780992Y-108187383D01*
X156780992Y-108187383D02*
X156735754Y-108232621D01*
X156735754Y-108232621D02*
X156690516Y-108323097D01*
X156690516Y-108323097D02*
X156690516Y-108413573D01*
X156690516Y-108413573D02*
X156735754Y-108549287D01*
X156735754Y-108549287D02*
X157278611Y-109092145D01*
X157278611Y-109092145D02*
X156690516Y-109092145D01*
X159540516Y-110621592D02*
X159540516Y-109671592D01*
X158907183Y-109671592D02*
X158726230Y-109671592D01*
X158726230Y-109671592D02*
X158635754Y-109716830D01*
X158635754Y-109716830D02*
X158545278Y-109807306D01*
X158545278Y-109807306D02*
X158500040Y-109988258D01*
X158500040Y-109988258D02*
X158500040Y-110304925D01*
X158500040Y-110304925D02*
X158545278Y-110485877D01*
X158545278Y-110485877D02*
X158635754Y-110576354D01*
X158635754Y-110576354D02*
X158726230Y-110621592D01*
X158726230Y-110621592D02*
X158907183Y-110621592D01*
X158907183Y-110621592D02*
X158997659Y-110576354D01*
X158997659Y-110576354D02*
X159088135Y-110485877D01*
X159088135Y-110485877D02*
X159133373Y-110304925D01*
X159133373Y-110304925D02*
X159133373Y-109988258D01*
X159133373Y-109988258D02*
X159088135Y-109807306D01*
X159088135Y-109807306D02*
X158997659Y-109716830D01*
X158997659Y-109716830D02*
X158907183Y-109671592D01*
X157685754Y-109988258D02*
X157685754Y-110621592D01*
X157911945Y-109626354D02*
X158138135Y-110304925D01*
X158138135Y-110304925D02*
X157550040Y-110304925D01*
X156690516Y-110621592D02*
X157233373Y-110621592D01*
X156961945Y-110621592D02*
X156961945Y-109671592D01*
X156961945Y-109671592D02*
X157052421Y-109807306D01*
X157052421Y-109807306D02*
X157142897Y-109897782D01*
X157142897Y-109897782D02*
X157233373Y-109943020D01*
X159540516Y-112151039D02*
X159540516Y-111201039D01*
X158907183Y-111201039D02*
X158726230Y-111201039D01*
X158726230Y-111201039D02*
X158635754Y-111246277D01*
X158635754Y-111246277D02*
X158545278Y-111336753D01*
X158545278Y-111336753D02*
X158500040Y-111517705D01*
X158500040Y-111517705D02*
X158500040Y-111834372D01*
X158500040Y-111834372D02*
X158545278Y-112015324D01*
X158545278Y-112015324D02*
X158635754Y-112105801D01*
X158635754Y-112105801D02*
X158726230Y-112151039D01*
X158726230Y-112151039D02*
X158907183Y-112151039D01*
X158907183Y-112151039D02*
X158997659Y-112105801D01*
X158997659Y-112105801D02*
X159088135Y-112015324D01*
X159088135Y-112015324D02*
X159133373Y-111834372D01*
X159133373Y-111834372D02*
X159133373Y-111517705D01*
X159133373Y-111517705D02*
X159088135Y-111336753D01*
X159088135Y-111336753D02*
X158997659Y-111246277D01*
X158997659Y-111246277D02*
X158907183Y-111201039D01*
X157685754Y-111517705D02*
X157685754Y-112151039D01*
X157911945Y-111155801D02*
X158138135Y-111834372D01*
X158138135Y-111834372D02*
X157550040Y-111834372D01*
X157007183Y-111201039D02*
X156916706Y-111201039D01*
X156916706Y-111201039D02*
X156826230Y-111246277D01*
X156826230Y-111246277D02*
X156780992Y-111291515D01*
X156780992Y-111291515D02*
X156735754Y-111381991D01*
X156735754Y-111381991D02*
X156690516Y-111562943D01*
X156690516Y-111562943D02*
X156690516Y-111789134D01*
X156690516Y-111789134D02*
X156735754Y-111970086D01*
X156735754Y-111970086D02*
X156780992Y-112060562D01*
X156780992Y-112060562D02*
X156826230Y-112105801D01*
X156826230Y-112105801D02*
X156916706Y-112151039D01*
X156916706Y-112151039D02*
X157007183Y-112151039D01*
X157007183Y-112151039D02*
X157097659Y-112105801D01*
X157097659Y-112105801D02*
X157142897Y-112060562D01*
X157142897Y-112060562D02*
X157188135Y-111970086D01*
X157188135Y-111970086D02*
X157233373Y-111789134D01*
X157233373Y-111789134D02*
X157233373Y-111562943D01*
X157233373Y-111562943D02*
X157188135Y-111381991D01*
X157188135Y-111381991D02*
X157142897Y-111291515D01*
X157142897Y-111291515D02*
X157097659Y-111246277D01*
X157097659Y-111246277D02*
X157007183Y-111201039D01*
X159540516Y-113680486D02*
X159540516Y-112730486D01*
X158907183Y-112730486D02*
X158726230Y-112730486D01*
X158726230Y-112730486D02*
X158635754Y-112775724D01*
X158635754Y-112775724D02*
X158545278Y-112866200D01*
X158545278Y-112866200D02*
X158500040Y-113047152D01*
X158500040Y-113047152D02*
X158500040Y-113363819D01*
X158500040Y-113363819D02*
X158545278Y-113544771D01*
X158545278Y-113544771D02*
X158635754Y-113635248D01*
X158635754Y-113635248D02*
X158726230Y-113680486D01*
X158726230Y-113680486D02*
X158907183Y-113680486D01*
X158907183Y-113680486D02*
X158997659Y-113635248D01*
X158997659Y-113635248D02*
X159088135Y-113544771D01*
X159088135Y-113544771D02*
X159133373Y-113363819D01*
X159133373Y-113363819D02*
X159133373Y-113047152D01*
X159133373Y-113047152D02*
X159088135Y-112866200D01*
X159088135Y-112866200D02*
X158997659Y-112775724D01*
X158997659Y-112775724D02*
X158907183Y-112730486D01*
X158183373Y-112730486D02*
X157595278Y-112730486D01*
X157595278Y-112730486D02*
X157911945Y-113092390D01*
X157911945Y-113092390D02*
X157776230Y-113092390D01*
X157776230Y-113092390D02*
X157685754Y-113137628D01*
X157685754Y-113137628D02*
X157640516Y-113182867D01*
X157640516Y-113182867D02*
X157595278Y-113273343D01*
X157595278Y-113273343D02*
X157595278Y-113499533D01*
X157595278Y-113499533D02*
X157640516Y-113590009D01*
X157640516Y-113590009D02*
X157685754Y-113635248D01*
X157685754Y-113635248D02*
X157776230Y-113680486D01*
X157776230Y-113680486D02*
X158047659Y-113680486D01*
X158047659Y-113680486D02*
X158138135Y-113635248D01*
X158138135Y-113635248D02*
X158183373Y-113590009D01*
X157142897Y-113680486D02*
X156961945Y-113680486D01*
X156961945Y-113680486D02*
X156871468Y-113635248D01*
X156871468Y-113635248D02*
X156826230Y-113590009D01*
X156826230Y-113590009D02*
X156735754Y-113454295D01*
X156735754Y-113454295D02*
X156690516Y-113273343D01*
X156690516Y-113273343D02*
X156690516Y-112911438D01*
X156690516Y-112911438D02*
X156735754Y-112820962D01*
X156735754Y-112820962D02*
X156780992Y-112775724D01*
X156780992Y-112775724D02*
X156871468Y-112730486D01*
X156871468Y-112730486D02*
X157052421Y-112730486D01*
X157052421Y-112730486D02*
X157142897Y-112775724D01*
X157142897Y-112775724D02*
X157188135Y-112820962D01*
X157188135Y-112820962D02*
X157233373Y-112911438D01*
X157233373Y-112911438D02*
X157233373Y-113137628D01*
X157233373Y-113137628D02*
X157188135Y-113228105D01*
X157188135Y-113228105D02*
X157142897Y-113273343D01*
X157142897Y-113273343D02*
X157052421Y-113318581D01*
X157052421Y-113318581D02*
X156871468Y-113318581D01*
X156871468Y-113318581D02*
X156780992Y-113273343D01*
X156780992Y-113273343D02*
X156735754Y-113228105D01*
X156735754Y-113228105D02*
X156690516Y-113137628D01*
X159540516Y-115209933D02*
X159540516Y-114259933D01*
X158907183Y-114259933D02*
X158726230Y-114259933D01*
X158726230Y-114259933D02*
X158635754Y-114305171D01*
X158635754Y-114305171D02*
X158545278Y-114395647D01*
X158545278Y-114395647D02*
X158500040Y-114576599D01*
X158500040Y-114576599D02*
X158500040Y-114893266D01*
X158500040Y-114893266D02*
X158545278Y-115074218D01*
X158545278Y-115074218D02*
X158635754Y-115164695D01*
X158635754Y-115164695D02*
X158726230Y-115209933D01*
X158726230Y-115209933D02*
X158907183Y-115209933D01*
X158907183Y-115209933D02*
X158997659Y-115164695D01*
X158997659Y-115164695D02*
X159088135Y-115074218D01*
X159088135Y-115074218D02*
X159133373Y-114893266D01*
X159133373Y-114893266D02*
X159133373Y-114576599D01*
X159133373Y-114576599D02*
X159088135Y-114395647D01*
X159088135Y-114395647D02*
X158997659Y-114305171D01*
X158997659Y-114305171D02*
X158907183Y-114259933D01*
X158183373Y-114259933D02*
X157595278Y-114259933D01*
X157595278Y-114259933D02*
X157911945Y-114621837D01*
X157911945Y-114621837D02*
X157776230Y-114621837D01*
X157776230Y-114621837D02*
X157685754Y-114667075D01*
X157685754Y-114667075D02*
X157640516Y-114712314D01*
X157640516Y-114712314D02*
X157595278Y-114802790D01*
X157595278Y-114802790D02*
X157595278Y-115028980D01*
X157595278Y-115028980D02*
X157640516Y-115119456D01*
X157640516Y-115119456D02*
X157685754Y-115164695D01*
X157685754Y-115164695D02*
X157776230Y-115209933D01*
X157776230Y-115209933D02*
X158047659Y-115209933D01*
X158047659Y-115209933D02*
X158138135Y-115164695D01*
X158138135Y-115164695D02*
X158183373Y-115119456D01*
X157052421Y-114667075D02*
X157142897Y-114621837D01*
X157142897Y-114621837D02*
X157188135Y-114576599D01*
X157188135Y-114576599D02*
X157233373Y-114486123D01*
X157233373Y-114486123D02*
X157233373Y-114440885D01*
X157233373Y-114440885D02*
X157188135Y-114350409D01*
X157188135Y-114350409D02*
X157142897Y-114305171D01*
X157142897Y-114305171D02*
X157052421Y-114259933D01*
X157052421Y-114259933D02*
X156871468Y-114259933D01*
X156871468Y-114259933D02*
X156780992Y-114305171D01*
X156780992Y-114305171D02*
X156735754Y-114350409D01*
X156735754Y-114350409D02*
X156690516Y-114440885D01*
X156690516Y-114440885D02*
X156690516Y-114486123D01*
X156690516Y-114486123D02*
X156735754Y-114576599D01*
X156735754Y-114576599D02*
X156780992Y-114621837D01*
X156780992Y-114621837D02*
X156871468Y-114667075D01*
X156871468Y-114667075D02*
X157052421Y-114667075D01*
X157052421Y-114667075D02*
X157142897Y-114712314D01*
X157142897Y-114712314D02*
X157188135Y-114757552D01*
X157188135Y-114757552D02*
X157233373Y-114848028D01*
X157233373Y-114848028D02*
X157233373Y-115028980D01*
X157233373Y-115028980D02*
X157188135Y-115119456D01*
X157188135Y-115119456D02*
X157142897Y-115164695D01*
X157142897Y-115164695D02*
X157052421Y-115209933D01*
X157052421Y-115209933D02*
X156871468Y-115209933D01*
X156871468Y-115209933D02*
X156780992Y-115164695D01*
X156780992Y-115164695D02*
X156735754Y-115119456D01*
X156735754Y-115119456D02*
X156690516Y-115028980D01*
X156690516Y-115028980D02*
X156690516Y-114848028D01*
X156690516Y-114848028D02*
X156735754Y-114757552D01*
X156735754Y-114757552D02*
X156780992Y-114712314D01*
X156780992Y-114712314D02*
X156871468Y-114667075D01*
X159540516Y-116739380D02*
X159540516Y-115789380D01*
X158907183Y-115789380D02*
X158726230Y-115789380D01*
X158726230Y-115789380D02*
X158635754Y-115834618D01*
X158635754Y-115834618D02*
X158545278Y-115925094D01*
X158545278Y-115925094D02*
X158500040Y-116106046D01*
X158500040Y-116106046D02*
X158500040Y-116422713D01*
X158500040Y-116422713D02*
X158545278Y-116603665D01*
X158545278Y-116603665D02*
X158635754Y-116694142D01*
X158635754Y-116694142D02*
X158726230Y-116739380D01*
X158726230Y-116739380D02*
X158907183Y-116739380D01*
X158907183Y-116739380D02*
X158997659Y-116694142D01*
X158997659Y-116694142D02*
X159088135Y-116603665D01*
X159088135Y-116603665D02*
X159133373Y-116422713D01*
X159133373Y-116422713D02*
X159133373Y-116106046D01*
X159133373Y-116106046D02*
X159088135Y-115925094D01*
X159088135Y-115925094D02*
X158997659Y-115834618D01*
X158997659Y-115834618D02*
X158907183Y-115789380D01*
X158183373Y-115789380D02*
X157595278Y-115789380D01*
X157595278Y-115789380D02*
X157911945Y-116151284D01*
X157911945Y-116151284D02*
X157776230Y-116151284D01*
X157776230Y-116151284D02*
X157685754Y-116196522D01*
X157685754Y-116196522D02*
X157640516Y-116241761D01*
X157640516Y-116241761D02*
X157595278Y-116332237D01*
X157595278Y-116332237D02*
X157595278Y-116558427D01*
X157595278Y-116558427D02*
X157640516Y-116648903D01*
X157640516Y-116648903D02*
X157685754Y-116694142D01*
X157685754Y-116694142D02*
X157776230Y-116739380D01*
X157776230Y-116739380D02*
X158047659Y-116739380D01*
X158047659Y-116739380D02*
X158138135Y-116694142D01*
X158138135Y-116694142D02*
X158183373Y-116648903D01*
X157278611Y-115789380D02*
X156645278Y-115789380D01*
X156645278Y-115789380D02*
X157052421Y-116739380D01*
X159540516Y-118268827D02*
X159540516Y-117318827D01*
X158907183Y-117318827D02*
X158726230Y-117318827D01*
X158726230Y-117318827D02*
X158635754Y-117364065D01*
X158635754Y-117364065D02*
X158545278Y-117454541D01*
X158545278Y-117454541D02*
X158500040Y-117635493D01*
X158500040Y-117635493D02*
X158500040Y-117952160D01*
X158500040Y-117952160D02*
X158545278Y-118133112D01*
X158545278Y-118133112D02*
X158635754Y-118223589D01*
X158635754Y-118223589D02*
X158726230Y-118268827D01*
X158726230Y-118268827D02*
X158907183Y-118268827D01*
X158907183Y-118268827D02*
X158997659Y-118223589D01*
X158997659Y-118223589D02*
X159088135Y-118133112D01*
X159088135Y-118133112D02*
X159133373Y-117952160D01*
X159133373Y-117952160D02*
X159133373Y-117635493D01*
X159133373Y-117635493D02*
X159088135Y-117454541D01*
X159088135Y-117454541D02*
X158997659Y-117364065D01*
X158997659Y-117364065D02*
X158907183Y-117318827D01*
X158183373Y-117318827D02*
X157595278Y-117318827D01*
X157595278Y-117318827D02*
X157911945Y-117680731D01*
X157911945Y-117680731D02*
X157776230Y-117680731D01*
X157776230Y-117680731D02*
X157685754Y-117725969D01*
X157685754Y-117725969D02*
X157640516Y-117771208D01*
X157640516Y-117771208D02*
X157595278Y-117861684D01*
X157595278Y-117861684D02*
X157595278Y-118087874D01*
X157595278Y-118087874D02*
X157640516Y-118178350D01*
X157640516Y-118178350D02*
X157685754Y-118223589D01*
X157685754Y-118223589D02*
X157776230Y-118268827D01*
X157776230Y-118268827D02*
X158047659Y-118268827D01*
X158047659Y-118268827D02*
X158138135Y-118223589D01*
X158138135Y-118223589D02*
X158183373Y-118178350D01*
X156780992Y-117318827D02*
X156961945Y-117318827D01*
X156961945Y-117318827D02*
X157052421Y-117364065D01*
X157052421Y-117364065D02*
X157097659Y-117409303D01*
X157097659Y-117409303D02*
X157188135Y-117545017D01*
X157188135Y-117545017D02*
X157233373Y-117725969D01*
X157233373Y-117725969D02*
X157233373Y-118087874D01*
X157233373Y-118087874D02*
X157188135Y-118178350D01*
X157188135Y-118178350D02*
X157142897Y-118223589D01*
X157142897Y-118223589D02*
X157052421Y-118268827D01*
X157052421Y-118268827D02*
X156871468Y-118268827D01*
X156871468Y-118268827D02*
X156780992Y-118223589D01*
X156780992Y-118223589D02*
X156735754Y-118178350D01*
X156735754Y-118178350D02*
X156690516Y-118087874D01*
X156690516Y-118087874D02*
X156690516Y-117861684D01*
X156690516Y-117861684D02*
X156735754Y-117771208D01*
X156735754Y-117771208D02*
X156780992Y-117725969D01*
X156780992Y-117725969D02*
X156871468Y-117680731D01*
X156871468Y-117680731D02*
X157052421Y-117680731D01*
X157052421Y-117680731D02*
X157142897Y-117725969D01*
X157142897Y-117725969D02*
X157188135Y-117771208D01*
X157188135Y-117771208D02*
X157233373Y-117861684D01*
X159540516Y-119798274D02*
X159540516Y-118848274D01*
X158907183Y-118848274D02*
X158726230Y-118848274D01*
X158726230Y-118848274D02*
X158635754Y-118893512D01*
X158635754Y-118893512D02*
X158545278Y-118983988D01*
X158545278Y-118983988D02*
X158500040Y-119164940D01*
X158500040Y-119164940D02*
X158500040Y-119481607D01*
X158500040Y-119481607D02*
X158545278Y-119662559D01*
X158545278Y-119662559D02*
X158635754Y-119753036D01*
X158635754Y-119753036D02*
X158726230Y-119798274D01*
X158726230Y-119798274D02*
X158907183Y-119798274D01*
X158907183Y-119798274D02*
X158997659Y-119753036D01*
X158997659Y-119753036D02*
X159088135Y-119662559D01*
X159088135Y-119662559D02*
X159133373Y-119481607D01*
X159133373Y-119481607D02*
X159133373Y-119164940D01*
X159133373Y-119164940D02*
X159088135Y-118983988D01*
X159088135Y-118983988D02*
X158997659Y-118893512D01*
X158997659Y-118893512D02*
X158907183Y-118848274D01*
X158183373Y-118848274D02*
X157595278Y-118848274D01*
X157595278Y-118848274D02*
X157911945Y-119210178D01*
X157911945Y-119210178D02*
X157776230Y-119210178D01*
X157776230Y-119210178D02*
X157685754Y-119255416D01*
X157685754Y-119255416D02*
X157640516Y-119300655D01*
X157640516Y-119300655D02*
X157595278Y-119391131D01*
X157595278Y-119391131D02*
X157595278Y-119617321D01*
X157595278Y-119617321D02*
X157640516Y-119707797D01*
X157640516Y-119707797D02*
X157685754Y-119753036D01*
X157685754Y-119753036D02*
X157776230Y-119798274D01*
X157776230Y-119798274D02*
X158047659Y-119798274D01*
X158047659Y-119798274D02*
X158138135Y-119753036D01*
X158138135Y-119753036D02*
X158183373Y-119707797D01*
X156735754Y-118848274D02*
X157188135Y-118848274D01*
X157188135Y-118848274D02*
X157233373Y-119300655D01*
X157233373Y-119300655D02*
X157188135Y-119255416D01*
X157188135Y-119255416D02*
X157097659Y-119210178D01*
X157097659Y-119210178D02*
X156871468Y-119210178D01*
X156871468Y-119210178D02*
X156780992Y-119255416D01*
X156780992Y-119255416D02*
X156735754Y-119300655D01*
X156735754Y-119300655D02*
X156690516Y-119391131D01*
X156690516Y-119391131D02*
X156690516Y-119617321D01*
X156690516Y-119617321D02*
X156735754Y-119707797D01*
X156735754Y-119707797D02*
X156780992Y-119753036D01*
X156780992Y-119753036D02*
X156871468Y-119798274D01*
X156871468Y-119798274D02*
X157097659Y-119798274D01*
X157097659Y-119798274D02*
X157188135Y-119753036D01*
X157188135Y-119753036D02*
X157233373Y-119707797D01*
X159540516Y-121327721D02*
X159540516Y-120377721D01*
X158907183Y-120377721D02*
X158726230Y-120377721D01*
X158726230Y-120377721D02*
X158635754Y-120422959D01*
X158635754Y-120422959D02*
X158545278Y-120513435D01*
X158545278Y-120513435D02*
X158500040Y-120694387D01*
X158500040Y-120694387D02*
X158500040Y-121011054D01*
X158500040Y-121011054D02*
X158545278Y-121192006D01*
X158545278Y-121192006D02*
X158635754Y-121282483D01*
X158635754Y-121282483D02*
X158726230Y-121327721D01*
X158726230Y-121327721D02*
X158907183Y-121327721D01*
X158907183Y-121327721D02*
X158997659Y-121282483D01*
X158997659Y-121282483D02*
X159088135Y-121192006D01*
X159088135Y-121192006D02*
X159133373Y-121011054D01*
X159133373Y-121011054D02*
X159133373Y-120694387D01*
X159133373Y-120694387D02*
X159088135Y-120513435D01*
X159088135Y-120513435D02*
X158997659Y-120422959D01*
X158997659Y-120422959D02*
X158907183Y-120377721D01*
X157911945Y-120377721D02*
X157821468Y-120377721D01*
X157821468Y-120377721D02*
X157730992Y-120422959D01*
X157730992Y-120422959D02*
X157685754Y-120468197D01*
X157685754Y-120468197D02*
X157640516Y-120558673D01*
X157640516Y-120558673D02*
X157595278Y-120739625D01*
X157595278Y-120739625D02*
X157595278Y-120965816D01*
X157595278Y-120965816D02*
X157640516Y-121146768D01*
X157640516Y-121146768D02*
X157685754Y-121237244D01*
X157685754Y-121237244D02*
X157730992Y-121282483D01*
X157730992Y-121282483D02*
X157821468Y-121327721D01*
X157821468Y-121327721D02*
X157911945Y-121327721D01*
X157911945Y-121327721D02*
X158002421Y-121282483D01*
X158002421Y-121282483D02*
X158047659Y-121237244D01*
X158047659Y-121237244D02*
X158092897Y-121146768D01*
X158092897Y-121146768D02*
X158138135Y-120965816D01*
X158138135Y-120965816D02*
X158138135Y-120739625D01*
X158138135Y-120739625D02*
X158092897Y-120558673D01*
X158092897Y-120558673D02*
X158047659Y-120468197D01*
X158047659Y-120468197D02*
X158002421Y-120422959D01*
X158002421Y-120422959D02*
X157911945Y-120377721D01*
X159540516Y-122857168D02*
X159540516Y-121907168D01*
X158907183Y-121907168D02*
X158726230Y-121907168D01*
X158726230Y-121907168D02*
X158635754Y-121952406D01*
X158635754Y-121952406D02*
X158545278Y-122042882D01*
X158545278Y-122042882D02*
X158500040Y-122223834D01*
X158500040Y-122223834D02*
X158500040Y-122540501D01*
X158500040Y-122540501D02*
X158545278Y-122721453D01*
X158545278Y-122721453D02*
X158635754Y-122811930D01*
X158635754Y-122811930D02*
X158726230Y-122857168D01*
X158726230Y-122857168D02*
X158907183Y-122857168D01*
X158907183Y-122857168D02*
X158997659Y-122811930D01*
X158997659Y-122811930D02*
X159088135Y-122721453D01*
X159088135Y-122721453D02*
X159133373Y-122540501D01*
X159133373Y-122540501D02*
X159133373Y-122223834D01*
X159133373Y-122223834D02*
X159088135Y-122042882D01*
X159088135Y-122042882D02*
X158997659Y-121952406D01*
X158997659Y-121952406D02*
X158907183Y-121907168D01*
X157685754Y-122223834D02*
X157685754Y-122857168D01*
X157911945Y-121861930D02*
X158138135Y-122540501D01*
X158138135Y-122540501D02*
X157550040Y-122540501D01*
X156735754Y-121907168D02*
X157188135Y-121907168D01*
X157188135Y-121907168D02*
X157233373Y-122359549D01*
X157233373Y-122359549D02*
X157188135Y-122314310D01*
X157188135Y-122314310D02*
X157097659Y-122269072D01*
X157097659Y-122269072D02*
X156871468Y-122269072D01*
X156871468Y-122269072D02*
X156780992Y-122314310D01*
X156780992Y-122314310D02*
X156735754Y-122359549D01*
X156735754Y-122359549D02*
X156690516Y-122450025D01*
X156690516Y-122450025D02*
X156690516Y-122676215D01*
X156690516Y-122676215D02*
X156735754Y-122766691D01*
X156735754Y-122766691D02*
X156780992Y-122811930D01*
X156780992Y-122811930D02*
X156871468Y-122857168D01*
X156871468Y-122857168D02*
X157097659Y-122857168D01*
X157097659Y-122857168D02*
X157188135Y-122811930D01*
X157188135Y-122811930D02*
X157233373Y-122766691D01*
X159540516Y-124386615D02*
X159540516Y-123436615D01*
X158907183Y-123436615D02*
X158726230Y-123436615D01*
X158726230Y-123436615D02*
X158635754Y-123481853D01*
X158635754Y-123481853D02*
X158545278Y-123572329D01*
X158545278Y-123572329D02*
X158500040Y-123753281D01*
X158500040Y-123753281D02*
X158500040Y-124069948D01*
X158500040Y-124069948D02*
X158545278Y-124250900D01*
X158545278Y-124250900D02*
X158635754Y-124341377D01*
X158635754Y-124341377D02*
X158726230Y-124386615D01*
X158726230Y-124386615D02*
X158907183Y-124386615D01*
X158907183Y-124386615D02*
X158997659Y-124341377D01*
X158997659Y-124341377D02*
X159088135Y-124250900D01*
X159088135Y-124250900D02*
X159133373Y-124069948D01*
X159133373Y-124069948D02*
X159133373Y-123753281D01*
X159133373Y-123753281D02*
X159088135Y-123572329D01*
X159088135Y-123572329D02*
X158997659Y-123481853D01*
X158997659Y-123481853D02*
X158907183Y-123436615D01*
X158183373Y-123436615D02*
X157595278Y-123436615D01*
X157595278Y-123436615D02*
X157911945Y-123798519D01*
X157911945Y-123798519D02*
X157776230Y-123798519D01*
X157776230Y-123798519D02*
X157685754Y-123843757D01*
X157685754Y-123843757D02*
X157640516Y-123888996D01*
X157640516Y-123888996D02*
X157595278Y-123979472D01*
X157595278Y-123979472D02*
X157595278Y-124205662D01*
X157595278Y-124205662D02*
X157640516Y-124296138D01*
X157640516Y-124296138D02*
X157685754Y-124341377D01*
X157685754Y-124341377D02*
X157776230Y-124386615D01*
X157776230Y-124386615D02*
X158047659Y-124386615D01*
X158047659Y-124386615D02*
X158138135Y-124341377D01*
X158138135Y-124341377D02*
X158183373Y-124296138D01*
X156780992Y-123753281D02*
X156780992Y-124386615D01*
X157007183Y-123391377D02*
X157233373Y-124069948D01*
X157233373Y-124069948D02*
X156645278Y-124069948D01*
X159540516Y-125916062D02*
X159540516Y-124966062D01*
X158907183Y-124966062D02*
X158726230Y-124966062D01*
X158726230Y-124966062D02*
X158635754Y-125011300D01*
X158635754Y-125011300D02*
X158545278Y-125101776D01*
X158545278Y-125101776D02*
X158500040Y-125282728D01*
X158500040Y-125282728D02*
X158500040Y-125599395D01*
X158500040Y-125599395D02*
X158545278Y-125780347D01*
X158545278Y-125780347D02*
X158635754Y-125870824D01*
X158635754Y-125870824D02*
X158726230Y-125916062D01*
X158726230Y-125916062D02*
X158907183Y-125916062D01*
X158907183Y-125916062D02*
X158997659Y-125870824D01*
X158997659Y-125870824D02*
X159088135Y-125780347D01*
X159088135Y-125780347D02*
X159133373Y-125599395D01*
X159133373Y-125599395D02*
X159133373Y-125282728D01*
X159133373Y-125282728D02*
X159088135Y-125101776D01*
X159088135Y-125101776D02*
X158997659Y-125011300D01*
X158997659Y-125011300D02*
X158907183Y-124966062D01*
X157685754Y-125282728D02*
X157685754Y-125916062D01*
X157911945Y-124920824D02*
X158138135Y-125599395D01*
X158138135Y-125599395D02*
X157550040Y-125599395D01*
X157278611Y-124966062D02*
X156645278Y-124966062D01*
X156645278Y-124966062D02*
X157052421Y-125916062D01*
X156111468Y-126310538D02*
X156147659Y-126274347D01*
X156147659Y-126274347D02*
X156220040Y-126165776D01*
X156220040Y-126165776D02*
X156256230Y-126093395D01*
X156256230Y-126093395D02*
X156292421Y-125984824D01*
X156292421Y-125984824D02*
X156328611Y-125803871D01*
X156328611Y-125803871D02*
X156328611Y-125659109D01*
X156328611Y-125659109D02*
X156292421Y-125478157D01*
X156292421Y-125478157D02*
X156256230Y-125369585D01*
X156256230Y-125369585D02*
X156220040Y-125297204D01*
X156220040Y-125297204D02*
X156147659Y-125188633D01*
X156147659Y-125188633D02*
X156111468Y-125152443D01*
X155858135Y-125984824D02*
X155749563Y-126021014D01*
X155749563Y-126021014D02*
X155568611Y-126021014D01*
X155568611Y-126021014D02*
X155496230Y-125984824D01*
X155496230Y-125984824D02*
X155460039Y-125948633D01*
X155460039Y-125948633D02*
X155423849Y-125876252D01*
X155423849Y-125876252D02*
X155423849Y-125803871D01*
X155423849Y-125803871D02*
X155460039Y-125731490D01*
X155460039Y-125731490D02*
X155496230Y-125695300D01*
X155496230Y-125695300D02*
X155568611Y-125659109D01*
X155568611Y-125659109D02*
X155713373Y-125622919D01*
X155713373Y-125622919D02*
X155785754Y-125586728D01*
X155785754Y-125586728D02*
X155821944Y-125550538D01*
X155821944Y-125550538D02*
X155858135Y-125478157D01*
X155858135Y-125478157D02*
X155858135Y-125405776D01*
X155858135Y-125405776D02*
X155821944Y-125333395D01*
X155821944Y-125333395D02*
X155785754Y-125297204D01*
X155785754Y-125297204D02*
X155713373Y-125261014D01*
X155713373Y-125261014D02*
X155532420Y-125261014D01*
X155532420Y-125261014D02*
X155423849Y-125297204D01*
X155170515Y-125261014D02*
X154700039Y-125261014D01*
X154700039Y-125261014D02*
X154953372Y-125550538D01*
X154953372Y-125550538D02*
X154844801Y-125550538D01*
X154844801Y-125550538D02*
X154772420Y-125586728D01*
X154772420Y-125586728D02*
X154736229Y-125622919D01*
X154736229Y-125622919D02*
X154700039Y-125695300D01*
X154700039Y-125695300D02*
X154700039Y-125876252D01*
X154700039Y-125876252D02*
X154736229Y-125948633D01*
X154736229Y-125948633D02*
X154772420Y-125984824D01*
X154772420Y-125984824D02*
X154844801Y-126021014D01*
X154844801Y-126021014D02*
X155061944Y-126021014D01*
X155061944Y-126021014D02*
X155134325Y-125984824D01*
X155134325Y-125984824D02*
X155170515Y-125948633D01*
X154446705Y-126310538D02*
X154410515Y-126274347D01*
X154410515Y-126274347D02*
X154338134Y-126165776D01*
X154338134Y-126165776D02*
X154301943Y-126093395D01*
X154301943Y-126093395D02*
X154265753Y-125984824D01*
X154265753Y-125984824D02*
X154229562Y-125803871D01*
X154229562Y-125803871D02*
X154229562Y-125659109D01*
X154229562Y-125659109D02*
X154265753Y-125478157D01*
X154265753Y-125478157D02*
X154301943Y-125369585D01*
X154301943Y-125369585D02*
X154338134Y-125297204D01*
X154338134Y-125297204D02*
X154410515Y-125188633D01*
X154410515Y-125188633D02*
X154446705Y-125152443D01*
X153143848Y-124920824D02*
X153958133Y-126142252D01*
X151379561Y-125916062D02*
X151379561Y-124966062D01*
X150746228Y-124966062D02*
X150565275Y-124966062D01*
X150565275Y-124966062D02*
X150474799Y-125011300D01*
X150474799Y-125011300D02*
X150384323Y-125101776D01*
X150384323Y-125101776D02*
X150339085Y-125282728D01*
X150339085Y-125282728D02*
X150339085Y-125599395D01*
X150339085Y-125599395D02*
X150384323Y-125780347D01*
X150384323Y-125780347D02*
X150474799Y-125870824D01*
X150474799Y-125870824D02*
X150565275Y-125916062D01*
X150565275Y-125916062D02*
X150746228Y-125916062D01*
X150746228Y-125916062D02*
X150836704Y-125870824D01*
X150836704Y-125870824D02*
X150927180Y-125780347D01*
X150927180Y-125780347D02*
X150972418Y-125599395D01*
X150972418Y-125599395D02*
X150972418Y-125282728D01*
X150972418Y-125282728D02*
X150927180Y-125101776D01*
X150927180Y-125101776D02*
X150836704Y-125011300D01*
X150836704Y-125011300D02*
X150746228Y-124966062D01*
X150022418Y-124966062D02*
X149434323Y-124966062D01*
X149434323Y-124966062D02*
X149750990Y-125327966D01*
X149750990Y-125327966D02*
X149615275Y-125327966D01*
X149615275Y-125327966D02*
X149524799Y-125373204D01*
X149524799Y-125373204D02*
X149479561Y-125418443D01*
X149479561Y-125418443D02*
X149434323Y-125508919D01*
X149434323Y-125508919D02*
X149434323Y-125735109D01*
X149434323Y-125735109D02*
X149479561Y-125825585D01*
X149479561Y-125825585D02*
X149524799Y-125870824D01*
X149524799Y-125870824D02*
X149615275Y-125916062D01*
X149615275Y-125916062D02*
X149886704Y-125916062D01*
X149886704Y-125916062D02*
X149977180Y-125870824D01*
X149977180Y-125870824D02*
X150022418Y-125825585D01*
X149117656Y-124966062D02*
X148529561Y-124966062D01*
X148529561Y-124966062D02*
X148846228Y-125327966D01*
X148846228Y-125327966D02*
X148710513Y-125327966D01*
X148710513Y-125327966D02*
X148620037Y-125373204D01*
X148620037Y-125373204D02*
X148574799Y-125418443D01*
X148574799Y-125418443D02*
X148529561Y-125508919D01*
X148529561Y-125508919D02*
X148529561Y-125735109D01*
X148529561Y-125735109D02*
X148574799Y-125825585D01*
X148574799Y-125825585D02*
X148620037Y-125870824D01*
X148620037Y-125870824D02*
X148710513Y-125916062D01*
X148710513Y-125916062D02*
X148981942Y-125916062D01*
X148981942Y-125916062D02*
X149072418Y-125870824D01*
X149072418Y-125870824D02*
X149117656Y-125825585D01*
X147950513Y-126310538D02*
X147986704Y-126274347D01*
X147986704Y-126274347D02*
X148059085Y-126165776D01*
X148059085Y-126165776D02*
X148095275Y-126093395D01*
X148095275Y-126093395D02*
X148131466Y-125984824D01*
X148131466Y-125984824D02*
X148167656Y-125803871D01*
X148167656Y-125803871D02*
X148167656Y-125659109D01*
X148167656Y-125659109D02*
X148131466Y-125478157D01*
X148131466Y-125478157D02*
X148095275Y-125369585D01*
X148095275Y-125369585D02*
X148059085Y-125297204D01*
X148059085Y-125297204D02*
X147986704Y-125188633D01*
X147986704Y-125188633D02*
X147950513Y-125152443D01*
X147697180Y-125984824D02*
X147588608Y-126021014D01*
X147588608Y-126021014D02*
X147407656Y-126021014D01*
X147407656Y-126021014D02*
X147335275Y-125984824D01*
X147335275Y-125984824D02*
X147299084Y-125948633D01*
X147299084Y-125948633D02*
X147262894Y-125876252D01*
X147262894Y-125876252D02*
X147262894Y-125803871D01*
X147262894Y-125803871D02*
X147299084Y-125731490D01*
X147299084Y-125731490D02*
X147335275Y-125695300D01*
X147335275Y-125695300D02*
X147407656Y-125659109D01*
X147407656Y-125659109D02*
X147552418Y-125622919D01*
X147552418Y-125622919D02*
X147624799Y-125586728D01*
X147624799Y-125586728D02*
X147660989Y-125550538D01*
X147660989Y-125550538D02*
X147697180Y-125478157D01*
X147697180Y-125478157D02*
X147697180Y-125405776D01*
X147697180Y-125405776D02*
X147660989Y-125333395D01*
X147660989Y-125333395D02*
X147624799Y-125297204D01*
X147624799Y-125297204D02*
X147552418Y-125261014D01*
X147552418Y-125261014D02*
X147371465Y-125261014D01*
X147371465Y-125261014D02*
X147262894Y-125297204D01*
X146973370Y-125333395D02*
X146937179Y-125297204D01*
X146937179Y-125297204D02*
X146864798Y-125261014D01*
X146864798Y-125261014D02*
X146683846Y-125261014D01*
X146683846Y-125261014D02*
X146611465Y-125297204D01*
X146611465Y-125297204D02*
X146575274Y-125333395D01*
X146575274Y-125333395D02*
X146539084Y-125405776D01*
X146539084Y-125405776D02*
X146539084Y-125478157D01*
X146539084Y-125478157D02*
X146575274Y-125586728D01*
X146575274Y-125586728D02*
X147009560Y-126021014D01*
X147009560Y-126021014D02*
X146539084Y-126021014D01*
X146285750Y-126310538D02*
X146249560Y-126274347D01*
X146249560Y-126274347D02*
X146177179Y-126165776D01*
X146177179Y-126165776D02*
X146140988Y-126093395D01*
X146140988Y-126093395D02*
X146104798Y-125984824D01*
X146104798Y-125984824D02*
X146068607Y-125803871D01*
X146068607Y-125803871D02*
X146068607Y-125659109D01*
X146068607Y-125659109D02*
X146104798Y-125478157D01*
X146104798Y-125478157D02*
X146140988Y-125369585D01*
X146140988Y-125369585D02*
X146177179Y-125297204D01*
X146177179Y-125297204D02*
X146249560Y-125188633D01*
X146249560Y-125188633D02*
X146285750Y-125152443D01*
X159540516Y-127445509D02*
X159540516Y-126495509D01*
X158907183Y-126495509D02*
X158726230Y-126495509D01*
X158726230Y-126495509D02*
X158635754Y-126540747D01*
X158635754Y-126540747D02*
X158545278Y-126631223D01*
X158545278Y-126631223D02*
X158500040Y-126812175D01*
X158500040Y-126812175D02*
X158500040Y-127128842D01*
X158500040Y-127128842D02*
X158545278Y-127309794D01*
X158545278Y-127309794D02*
X158635754Y-127400271D01*
X158635754Y-127400271D02*
X158726230Y-127445509D01*
X158726230Y-127445509D02*
X158907183Y-127445509D01*
X158907183Y-127445509D02*
X158997659Y-127400271D01*
X158997659Y-127400271D02*
X159088135Y-127309794D01*
X159088135Y-127309794D02*
X159133373Y-127128842D01*
X159133373Y-127128842D02*
X159133373Y-126812175D01*
X159133373Y-126812175D02*
X159088135Y-126631223D01*
X159088135Y-126631223D02*
X158997659Y-126540747D01*
X158997659Y-126540747D02*
X158907183Y-126495509D01*
X157685754Y-126812175D02*
X157685754Y-127445509D01*
X157911945Y-126450271D02*
X158138135Y-127128842D01*
X158138135Y-127128842D02*
X157550040Y-127128842D01*
X157052421Y-126902651D02*
X157142897Y-126857413D01*
X157142897Y-126857413D02*
X157188135Y-126812175D01*
X157188135Y-126812175D02*
X157233373Y-126721699D01*
X157233373Y-126721699D02*
X157233373Y-126676461D01*
X157233373Y-126676461D02*
X157188135Y-126585985D01*
X157188135Y-126585985D02*
X157142897Y-126540747D01*
X157142897Y-126540747D02*
X157052421Y-126495509D01*
X157052421Y-126495509D02*
X156871468Y-126495509D01*
X156871468Y-126495509D02*
X156780992Y-126540747D01*
X156780992Y-126540747D02*
X156735754Y-126585985D01*
X156735754Y-126585985D02*
X156690516Y-126676461D01*
X156690516Y-126676461D02*
X156690516Y-126721699D01*
X156690516Y-126721699D02*
X156735754Y-126812175D01*
X156735754Y-126812175D02*
X156780992Y-126857413D01*
X156780992Y-126857413D02*
X156871468Y-126902651D01*
X156871468Y-126902651D02*
X157052421Y-126902651D01*
X157052421Y-126902651D02*
X157142897Y-126947890D01*
X157142897Y-126947890D02*
X157188135Y-126993128D01*
X157188135Y-126993128D02*
X157233373Y-127083604D01*
X157233373Y-127083604D02*
X157233373Y-127264556D01*
X157233373Y-127264556D02*
X157188135Y-127355032D01*
X157188135Y-127355032D02*
X157142897Y-127400271D01*
X157142897Y-127400271D02*
X157052421Y-127445509D01*
X157052421Y-127445509D02*
X156871468Y-127445509D01*
X156871468Y-127445509D02*
X156780992Y-127400271D01*
X156780992Y-127400271D02*
X156735754Y-127355032D01*
X156735754Y-127355032D02*
X156690516Y-127264556D01*
X156690516Y-127264556D02*
X156690516Y-127083604D01*
X156690516Y-127083604D02*
X156735754Y-126993128D01*
X156735754Y-126993128D02*
X156780992Y-126947890D01*
X156780992Y-126947890D02*
X156871468Y-126902651D01*
X156111468Y-127839985D02*
X156147659Y-127803794D01*
X156147659Y-127803794D02*
X156220040Y-127695223D01*
X156220040Y-127695223D02*
X156256230Y-127622842D01*
X156256230Y-127622842D02*
X156292421Y-127514271D01*
X156292421Y-127514271D02*
X156328611Y-127333318D01*
X156328611Y-127333318D02*
X156328611Y-127188556D01*
X156328611Y-127188556D02*
X156292421Y-127007604D01*
X156292421Y-127007604D02*
X156256230Y-126899032D01*
X156256230Y-126899032D02*
X156220040Y-126826651D01*
X156220040Y-126826651D02*
X156147659Y-126718080D01*
X156147659Y-126718080D02*
X156111468Y-126681890D01*
X155858135Y-127514271D02*
X155749563Y-127550461D01*
X155749563Y-127550461D02*
X155568611Y-127550461D01*
X155568611Y-127550461D02*
X155496230Y-127514271D01*
X155496230Y-127514271D02*
X155460039Y-127478080D01*
X155460039Y-127478080D02*
X155423849Y-127405699D01*
X155423849Y-127405699D02*
X155423849Y-127333318D01*
X155423849Y-127333318D02*
X155460039Y-127260937D01*
X155460039Y-127260937D02*
X155496230Y-127224747D01*
X155496230Y-127224747D02*
X155568611Y-127188556D01*
X155568611Y-127188556D02*
X155713373Y-127152366D01*
X155713373Y-127152366D02*
X155785754Y-127116175D01*
X155785754Y-127116175D02*
X155821944Y-127079985D01*
X155821944Y-127079985D02*
X155858135Y-127007604D01*
X155858135Y-127007604D02*
X155858135Y-126935223D01*
X155858135Y-126935223D02*
X155821944Y-126862842D01*
X155821944Y-126862842D02*
X155785754Y-126826651D01*
X155785754Y-126826651D02*
X155713373Y-126790461D01*
X155713373Y-126790461D02*
X155532420Y-126790461D01*
X155532420Y-126790461D02*
X155423849Y-126826651D01*
X155170515Y-126790461D02*
X154700039Y-126790461D01*
X154700039Y-126790461D02*
X154953372Y-127079985D01*
X154953372Y-127079985D02*
X154844801Y-127079985D01*
X154844801Y-127079985D02*
X154772420Y-127116175D01*
X154772420Y-127116175D02*
X154736229Y-127152366D01*
X154736229Y-127152366D02*
X154700039Y-127224747D01*
X154700039Y-127224747D02*
X154700039Y-127405699D01*
X154700039Y-127405699D02*
X154736229Y-127478080D01*
X154736229Y-127478080D02*
X154772420Y-127514271D01*
X154772420Y-127514271D02*
X154844801Y-127550461D01*
X154844801Y-127550461D02*
X155061944Y-127550461D01*
X155061944Y-127550461D02*
X155134325Y-127514271D01*
X155134325Y-127514271D02*
X155170515Y-127478080D01*
X154446705Y-127839985D02*
X154410515Y-127803794D01*
X154410515Y-127803794D02*
X154338134Y-127695223D01*
X154338134Y-127695223D02*
X154301943Y-127622842D01*
X154301943Y-127622842D02*
X154265753Y-127514271D01*
X154265753Y-127514271D02*
X154229562Y-127333318D01*
X154229562Y-127333318D02*
X154229562Y-127188556D01*
X154229562Y-127188556D02*
X154265753Y-127007604D01*
X154265753Y-127007604D02*
X154301943Y-126899032D01*
X154301943Y-126899032D02*
X154338134Y-126826651D01*
X154338134Y-126826651D02*
X154410515Y-126718080D01*
X154410515Y-126718080D02*
X154446705Y-126681890D01*
X153143848Y-126450271D02*
X153958133Y-127671699D01*
X151379561Y-127445509D02*
X151379561Y-126495509D01*
X150746228Y-126495509D02*
X150565275Y-126495509D01*
X150565275Y-126495509D02*
X150474799Y-126540747D01*
X150474799Y-126540747D02*
X150384323Y-126631223D01*
X150384323Y-126631223D02*
X150339085Y-126812175D01*
X150339085Y-126812175D02*
X150339085Y-127128842D01*
X150339085Y-127128842D02*
X150384323Y-127309794D01*
X150384323Y-127309794D02*
X150474799Y-127400271D01*
X150474799Y-127400271D02*
X150565275Y-127445509D01*
X150565275Y-127445509D02*
X150746228Y-127445509D01*
X150746228Y-127445509D02*
X150836704Y-127400271D01*
X150836704Y-127400271D02*
X150927180Y-127309794D01*
X150927180Y-127309794D02*
X150972418Y-127128842D01*
X150972418Y-127128842D02*
X150972418Y-126812175D01*
X150972418Y-126812175D02*
X150927180Y-126631223D01*
X150927180Y-126631223D02*
X150836704Y-126540747D01*
X150836704Y-126540747D02*
X150746228Y-126495509D01*
X150022418Y-126495509D02*
X149434323Y-126495509D01*
X149434323Y-126495509D02*
X149750990Y-126857413D01*
X149750990Y-126857413D02*
X149615275Y-126857413D01*
X149615275Y-126857413D02*
X149524799Y-126902651D01*
X149524799Y-126902651D02*
X149479561Y-126947890D01*
X149479561Y-126947890D02*
X149434323Y-127038366D01*
X149434323Y-127038366D02*
X149434323Y-127264556D01*
X149434323Y-127264556D02*
X149479561Y-127355032D01*
X149479561Y-127355032D02*
X149524799Y-127400271D01*
X149524799Y-127400271D02*
X149615275Y-127445509D01*
X149615275Y-127445509D02*
X149886704Y-127445509D01*
X149886704Y-127445509D02*
X149977180Y-127400271D01*
X149977180Y-127400271D02*
X150022418Y-127355032D01*
X148620037Y-126812175D02*
X148620037Y-127445509D01*
X148846228Y-126450271D02*
X149072418Y-127128842D01*
X149072418Y-127128842D02*
X148484323Y-127128842D01*
X147950513Y-127839985D02*
X147986704Y-127803794D01*
X147986704Y-127803794D02*
X148059085Y-127695223D01*
X148059085Y-127695223D02*
X148095275Y-127622842D01*
X148095275Y-127622842D02*
X148131466Y-127514271D01*
X148131466Y-127514271D02*
X148167656Y-127333318D01*
X148167656Y-127333318D02*
X148167656Y-127188556D01*
X148167656Y-127188556D02*
X148131466Y-127007604D01*
X148131466Y-127007604D02*
X148095275Y-126899032D01*
X148095275Y-126899032D02*
X148059085Y-126826651D01*
X148059085Y-126826651D02*
X147986704Y-126718080D01*
X147986704Y-126718080D02*
X147950513Y-126681890D01*
X147697180Y-127514271D02*
X147588608Y-127550461D01*
X147588608Y-127550461D02*
X147407656Y-127550461D01*
X147407656Y-127550461D02*
X147335275Y-127514271D01*
X147335275Y-127514271D02*
X147299084Y-127478080D01*
X147299084Y-127478080D02*
X147262894Y-127405699D01*
X147262894Y-127405699D02*
X147262894Y-127333318D01*
X147262894Y-127333318D02*
X147299084Y-127260937D01*
X147299084Y-127260937D02*
X147335275Y-127224747D01*
X147335275Y-127224747D02*
X147407656Y-127188556D01*
X147407656Y-127188556D02*
X147552418Y-127152366D01*
X147552418Y-127152366D02*
X147624799Y-127116175D01*
X147624799Y-127116175D02*
X147660989Y-127079985D01*
X147660989Y-127079985D02*
X147697180Y-127007604D01*
X147697180Y-127007604D02*
X147697180Y-126935223D01*
X147697180Y-126935223D02*
X147660989Y-126862842D01*
X147660989Y-126862842D02*
X147624799Y-126826651D01*
X147624799Y-126826651D02*
X147552418Y-126790461D01*
X147552418Y-126790461D02*
X147371465Y-126790461D01*
X147371465Y-126790461D02*
X147262894Y-126826651D01*
X146973370Y-126862842D02*
X146937179Y-126826651D01*
X146937179Y-126826651D02*
X146864798Y-126790461D01*
X146864798Y-126790461D02*
X146683846Y-126790461D01*
X146683846Y-126790461D02*
X146611465Y-126826651D01*
X146611465Y-126826651D02*
X146575274Y-126862842D01*
X146575274Y-126862842D02*
X146539084Y-126935223D01*
X146539084Y-126935223D02*
X146539084Y-127007604D01*
X146539084Y-127007604D02*
X146575274Y-127116175D01*
X146575274Y-127116175D02*
X147009560Y-127550461D01*
X147009560Y-127550461D02*
X146539084Y-127550461D01*
X146285750Y-127839985D02*
X146249560Y-127803794D01*
X146249560Y-127803794D02*
X146177179Y-127695223D01*
X146177179Y-127695223D02*
X146140988Y-127622842D01*
X146140988Y-127622842D02*
X146104798Y-127514271D01*
X146104798Y-127514271D02*
X146068607Y-127333318D01*
X146068607Y-127333318D02*
X146068607Y-127188556D01*
X146068607Y-127188556D02*
X146104798Y-127007604D01*
X146104798Y-127007604D02*
X146140988Y-126899032D01*
X146140988Y-126899032D02*
X146177179Y-126826651D01*
X146177179Y-126826651D02*
X146249560Y-126718080D01*
X146249560Y-126718080D02*
X146285750Y-126681890D01*
X159540516Y-128974956D02*
X159540516Y-128024956D01*
X158907183Y-128024956D02*
X158726230Y-128024956D01*
X158726230Y-128024956D02*
X158635754Y-128070194D01*
X158635754Y-128070194D02*
X158545278Y-128160670D01*
X158545278Y-128160670D02*
X158500040Y-128341622D01*
X158500040Y-128341622D02*
X158500040Y-128658289D01*
X158500040Y-128658289D02*
X158545278Y-128839241D01*
X158545278Y-128839241D02*
X158635754Y-128929718D01*
X158635754Y-128929718D02*
X158726230Y-128974956D01*
X158726230Y-128974956D02*
X158907183Y-128974956D01*
X158907183Y-128974956D02*
X158997659Y-128929718D01*
X158997659Y-128929718D02*
X159088135Y-128839241D01*
X159088135Y-128839241D02*
X159133373Y-128658289D01*
X159133373Y-128658289D02*
X159133373Y-128341622D01*
X159133373Y-128341622D02*
X159088135Y-128160670D01*
X159088135Y-128160670D02*
X158997659Y-128070194D01*
X158997659Y-128070194D02*
X158907183Y-128024956D01*
X157595278Y-128974956D02*
X158138135Y-128974956D01*
X157866707Y-128974956D02*
X157866707Y-128024956D01*
X157866707Y-128024956D02*
X157957183Y-128160670D01*
X157957183Y-128160670D02*
X158047659Y-128251146D01*
X158047659Y-128251146D02*
X158138135Y-128296384D01*
X156780992Y-128341622D02*
X156780992Y-128974956D01*
X157007183Y-127979718D02*
X157233373Y-128658289D01*
X157233373Y-128658289D02*
X156645278Y-128658289D01*
X159540516Y-130504403D02*
X159540516Y-129554403D01*
X158907183Y-129554403D02*
X158726230Y-129554403D01*
X158726230Y-129554403D02*
X158635754Y-129599641D01*
X158635754Y-129599641D02*
X158545278Y-129690117D01*
X158545278Y-129690117D02*
X158500040Y-129871069D01*
X158500040Y-129871069D02*
X158500040Y-130187736D01*
X158500040Y-130187736D02*
X158545278Y-130368688D01*
X158545278Y-130368688D02*
X158635754Y-130459165D01*
X158635754Y-130459165D02*
X158726230Y-130504403D01*
X158726230Y-130504403D02*
X158907183Y-130504403D01*
X158907183Y-130504403D02*
X158997659Y-130459165D01*
X158997659Y-130459165D02*
X159088135Y-130368688D01*
X159088135Y-130368688D02*
X159133373Y-130187736D01*
X159133373Y-130187736D02*
X159133373Y-129871069D01*
X159133373Y-129871069D02*
X159088135Y-129690117D01*
X159088135Y-129690117D02*
X158997659Y-129599641D01*
X158997659Y-129599641D02*
X158907183Y-129554403D01*
X157595278Y-130504403D02*
X158138135Y-130504403D01*
X157866707Y-130504403D02*
X157866707Y-129554403D01*
X157866707Y-129554403D02*
X157957183Y-129690117D01*
X157957183Y-129690117D02*
X158047659Y-129780593D01*
X158047659Y-129780593D02*
X158138135Y-129825831D01*
X157278611Y-129554403D02*
X156690516Y-129554403D01*
X156690516Y-129554403D02*
X157007183Y-129916307D01*
X157007183Y-129916307D02*
X156871468Y-129916307D01*
X156871468Y-129916307D02*
X156780992Y-129961545D01*
X156780992Y-129961545D02*
X156735754Y-130006784D01*
X156735754Y-130006784D02*
X156690516Y-130097260D01*
X156690516Y-130097260D02*
X156690516Y-130323450D01*
X156690516Y-130323450D02*
X156735754Y-130413926D01*
X156735754Y-130413926D02*
X156780992Y-130459165D01*
X156780992Y-130459165D02*
X156871468Y-130504403D01*
X156871468Y-130504403D02*
X157142897Y-130504403D01*
X157142897Y-130504403D02*
X157233373Y-130459165D01*
X157233373Y-130459165D02*
X157278611Y-130413926D01*
D11*
X132588000Y-80100000D02*
X163576000Y-80100000D01*
X163576000Y-131580000D02*
X132588000Y-131580000D01*
X163576000Y-80100000D02*
X163576000Y-131580000D01*
X132588000Y-131580000D02*
X132588000Y-80100000D01*
M02*
