%TF.GenerationSoftware,KiCad,Pcbnew,8.0.5-8.0.5-0~ubuntu24.04.1*%
%TF.CreationDate,2024-09-24T16:48:20+02:00*%
%TF.ProjectId,ESP32-S2_S3-WROOM_flexypin,45535033-322d-4533-925f-53332d57524f,rev?*%
%TF.SameCoordinates,Original*%
%TF.FileFunction,Drillmap*%
%TF.FilePolarity,Positive*%
%FSLAX45Y45*%
G04 Gerber Fmt 4.5, Leading zero omitted, Abs format (unit mm)*
G04 Created by KiCad (PCBNEW 8.0.5-8.0.5-0~ubuntu24.04.1) date 2024-09-24 16:48:20*
%MOMM*%
%LPD*%
G01*
G04 APERTURE LIST*
%ADD10C,0.100000*%
%ADD11C,0.200000*%
G04 APERTURE END LIST*
D10*
X13258800Y-8010000D02*
X16357600Y-8010000D01*
X16357600Y-13158000D02*
X13258800Y-13158000D01*
X16357600Y-8010000D02*
X16357600Y-13158000D01*
X13258800Y-13158000D02*
X13258800Y-8010000D01*
D11*
D10*
X14486700Y-12589500D02*
X14551700Y-12654500D01*
X14551700Y-12589500D02*
X14486700Y-12654500D01*
X15064700Y-12589500D02*
X15129700Y-12654500D01*
X15129700Y-12589500D02*
X15064700Y-12654500D01*
D11*
X13514577Y-13474484D02*
X13514577Y-13274484D01*
X13514577Y-13274484D02*
X13562196Y-13274484D01*
X13562196Y-13274484D02*
X13590767Y-13284008D01*
X13590767Y-13284008D02*
X13609815Y-13303055D01*
X13609815Y-13303055D02*
X13619339Y-13322103D01*
X13619339Y-13322103D02*
X13628862Y-13360198D01*
X13628862Y-13360198D02*
X13628862Y-13388769D01*
X13628862Y-13388769D02*
X13619339Y-13426865D01*
X13619339Y-13426865D02*
X13609815Y-13445912D01*
X13609815Y-13445912D02*
X13590767Y-13464960D01*
X13590767Y-13464960D02*
X13562196Y-13474484D01*
X13562196Y-13474484D02*
X13514577Y-13474484D01*
X13714577Y-13474484D02*
X13714577Y-13341150D01*
X13714577Y-13379246D02*
X13724101Y-13360198D01*
X13724101Y-13360198D02*
X13733624Y-13350674D01*
X13733624Y-13350674D02*
X13752672Y-13341150D01*
X13752672Y-13341150D02*
X13771720Y-13341150D01*
X13838386Y-13474484D02*
X13838386Y-13341150D01*
X13838386Y-13274484D02*
X13828862Y-13284008D01*
X13828862Y-13284008D02*
X13838386Y-13293531D01*
X13838386Y-13293531D02*
X13847910Y-13284008D01*
X13847910Y-13284008D02*
X13838386Y-13274484D01*
X13838386Y-13274484D02*
X13838386Y-13293531D01*
X13962196Y-13474484D02*
X13943148Y-13464960D01*
X13943148Y-13464960D02*
X13933624Y-13445912D01*
X13933624Y-13445912D02*
X13933624Y-13274484D01*
X14066958Y-13474484D02*
X14047910Y-13464960D01*
X14047910Y-13464960D02*
X14038386Y-13445912D01*
X14038386Y-13445912D02*
X14038386Y-13274484D01*
X14295529Y-13474484D02*
X14295529Y-13274484D01*
X14295529Y-13274484D02*
X14362196Y-13417341D01*
X14362196Y-13417341D02*
X14428862Y-13274484D01*
X14428862Y-13274484D02*
X14428862Y-13474484D01*
X14609815Y-13474484D02*
X14609815Y-13369722D01*
X14609815Y-13369722D02*
X14600291Y-13350674D01*
X14600291Y-13350674D02*
X14581243Y-13341150D01*
X14581243Y-13341150D02*
X14543148Y-13341150D01*
X14543148Y-13341150D02*
X14524101Y-13350674D01*
X14609815Y-13464960D02*
X14590767Y-13474484D01*
X14590767Y-13474484D02*
X14543148Y-13474484D01*
X14543148Y-13474484D02*
X14524101Y-13464960D01*
X14524101Y-13464960D02*
X14514577Y-13445912D01*
X14514577Y-13445912D02*
X14514577Y-13426865D01*
X14514577Y-13426865D02*
X14524101Y-13407817D01*
X14524101Y-13407817D02*
X14543148Y-13398293D01*
X14543148Y-13398293D02*
X14590767Y-13398293D01*
X14590767Y-13398293D02*
X14609815Y-13388769D01*
X14705053Y-13341150D02*
X14705053Y-13541150D01*
X14705053Y-13350674D02*
X14724101Y-13341150D01*
X14724101Y-13341150D02*
X14762196Y-13341150D01*
X14762196Y-13341150D02*
X14781243Y-13350674D01*
X14781243Y-13350674D02*
X14790767Y-13360198D01*
X14790767Y-13360198D02*
X14800291Y-13379246D01*
X14800291Y-13379246D02*
X14800291Y-13436388D01*
X14800291Y-13436388D02*
X14790767Y-13455436D01*
X14790767Y-13455436D02*
X14781243Y-13464960D01*
X14781243Y-13464960D02*
X14762196Y-13474484D01*
X14762196Y-13474484D02*
X14724101Y-13474484D01*
X14724101Y-13474484D02*
X14705053Y-13464960D01*
X14886005Y-13455436D02*
X14895529Y-13464960D01*
X14895529Y-13464960D02*
X14886005Y-13474484D01*
X14886005Y-13474484D02*
X14876482Y-13464960D01*
X14876482Y-13464960D02*
X14886005Y-13455436D01*
X14886005Y-13455436D02*
X14886005Y-13474484D01*
X14886005Y-13350674D02*
X14895529Y-13360198D01*
X14895529Y-13360198D02*
X14886005Y-13369722D01*
X14886005Y-13369722D02*
X14876482Y-13360198D01*
X14876482Y-13360198D02*
X14886005Y-13350674D01*
X14886005Y-13350674D02*
X14886005Y-13369722D01*
D10*
X13188800Y-13770500D02*
X13253800Y-13835500D01*
X13253800Y-13770500D02*
X13188800Y-13835500D01*
D11*
X13552672Y-13694484D02*
X13571720Y-13694484D01*
X13571720Y-13694484D02*
X13590767Y-13704008D01*
X13590767Y-13704008D02*
X13600291Y-13713531D01*
X13600291Y-13713531D02*
X13609815Y-13732579D01*
X13609815Y-13732579D02*
X13619339Y-13770674D01*
X13619339Y-13770674D02*
X13619339Y-13818293D01*
X13619339Y-13818293D02*
X13609815Y-13856388D01*
X13609815Y-13856388D02*
X13600291Y-13875436D01*
X13600291Y-13875436D02*
X13590767Y-13884960D01*
X13590767Y-13884960D02*
X13571720Y-13894484D01*
X13571720Y-13894484D02*
X13552672Y-13894484D01*
X13552672Y-13894484D02*
X13533624Y-13884960D01*
X13533624Y-13884960D02*
X13524101Y-13875436D01*
X13524101Y-13875436D02*
X13514577Y-13856388D01*
X13514577Y-13856388D02*
X13505053Y-13818293D01*
X13505053Y-13818293D02*
X13505053Y-13770674D01*
X13505053Y-13770674D02*
X13514577Y-13732579D01*
X13514577Y-13732579D02*
X13524101Y-13713531D01*
X13524101Y-13713531D02*
X13533624Y-13704008D01*
X13533624Y-13704008D02*
X13552672Y-13694484D01*
X13705053Y-13875436D02*
X13714577Y-13884960D01*
X13714577Y-13884960D02*
X13705053Y-13894484D01*
X13705053Y-13894484D02*
X13695529Y-13884960D01*
X13695529Y-13884960D02*
X13705053Y-13875436D01*
X13705053Y-13875436D02*
X13705053Y-13894484D01*
X13886005Y-13694484D02*
X13847910Y-13694484D01*
X13847910Y-13694484D02*
X13828862Y-13704008D01*
X13828862Y-13704008D02*
X13819339Y-13713531D01*
X13819339Y-13713531D02*
X13800291Y-13742103D01*
X13800291Y-13742103D02*
X13790767Y-13780198D01*
X13790767Y-13780198D02*
X13790767Y-13856388D01*
X13790767Y-13856388D02*
X13800291Y-13875436D01*
X13800291Y-13875436D02*
X13809815Y-13884960D01*
X13809815Y-13884960D02*
X13828862Y-13894484D01*
X13828862Y-13894484D02*
X13866958Y-13894484D01*
X13866958Y-13894484D02*
X13886005Y-13884960D01*
X13886005Y-13884960D02*
X13895529Y-13875436D01*
X13895529Y-13875436D02*
X13905053Y-13856388D01*
X13905053Y-13856388D02*
X13905053Y-13808769D01*
X13905053Y-13808769D02*
X13895529Y-13789722D01*
X13895529Y-13789722D02*
X13886005Y-13780198D01*
X13886005Y-13780198D02*
X13866958Y-13770674D01*
X13866958Y-13770674D02*
X13828862Y-13770674D01*
X13828862Y-13770674D02*
X13809815Y-13780198D01*
X13809815Y-13780198D02*
X13800291Y-13789722D01*
X13800291Y-13789722D02*
X13790767Y-13808769D01*
X14086005Y-13694484D02*
X13990767Y-13694484D01*
X13990767Y-13694484D02*
X13981243Y-13789722D01*
X13981243Y-13789722D02*
X13990767Y-13780198D01*
X13990767Y-13780198D02*
X14009815Y-13770674D01*
X14009815Y-13770674D02*
X14057434Y-13770674D01*
X14057434Y-13770674D02*
X14076482Y-13780198D01*
X14076482Y-13780198D02*
X14086005Y-13789722D01*
X14086005Y-13789722D02*
X14095529Y-13808769D01*
X14095529Y-13808769D02*
X14095529Y-13856388D01*
X14095529Y-13856388D02*
X14086005Y-13875436D01*
X14086005Y-13875436D02*
X14076482Y-13884960D01*
X14076482Y-13884960D02*
X14057434Y-13894484D01*
X14057434Y-13894484D02*
X14009815Y-13894484D01*
X14009815Y-13894484D02*
X13990767Y-13884960D01*
X13990767Y-13884960D02*
X13981243Y-13875436D01*
X14219339Y-13694484D02*
X14238386Y-13694484D01*
X14238386Y-13694484D02*
X14257434Y-13704008D01*
X14257434Y-13704008D02*
X14266958Y-13713531D01*
X14266958Y-13713531D02*
X14276482Y-13732579D01*
X14276482Y-13732579D02*
X14286005Y-13770674D01*
X14286005Y-13770674D02*
X14286005Y-13818293D01*
X14286005Y-13818293D02*
X14276482Y-13856388D01*
X14276482Y-13856388D02*
X14266958Y-13875436D01*
X14266958Y-13875436D02*
X14257434Y-13884960D01*
X14257434Y-13884960D02*
X14238386Y-13894484D01*
X14238386Y-13894484D02*
X14219339Y-13894484D01*
X14219339Y-13894484D02*
X14200291Y-13884960D01*
X14200291Y-13884960D02*
X14190767Y-13875436D01*
X14190767Y-13875436D02*
X14181243Y-13856388D01*
X14181243Y-13856388D02*
X14171720Y-13818293D01*
X14171720Y-13818293D02*
X14171720Y-13770674D01*
X14171720Y-13770674D02*
X14181243Y-13732579D01*
X14181243Y-13732579D02*
X14190767Y-13713531D01*
X14190767Y-13713531D02*
X14200291Y-13704008D01*
X14200291Y-13704008D02*
X14219339Y-13694484D01*
X14371720Y-13894484D02*
X14371720Y-13761150D01*
X14371720Y-13780198D02*
X14381243Y-13770674D01*
X14381243Y-13770674D02*
X14400291Y-13761150D01*
X14400291Y-13761150D02*
X14428863Y-13761150D01*
X14428863Y-13761150D02*
X14447910Y-13770674D01*
X14447910Y-13770674D02*
X14457434Y-13789722D01*
X14457434Y-13789722D02*
X14457434Y-13894484D01*
X14457434Y-13789722D02*
X14466958Y-13770674D01*
X14466958Y-13770674D02*
X14486005Y-13761150D01*
X14486005Y-13761150D02*
X14514577Y-13761150D01*
X14514577Y-13761150D02*
X14533624Y-13770674D01*
X14533624Y-13770674D02*
X14543148Y-13789722D01*
X14543148Y-13789722D02*
X14543148Y-13894484D01*
X14638386Y-13894484D02*
X14638386Y-13761150D01*
X14638386Y-13780198D02*
X14647910Y-13770674D01*
X14647910Y-13770674D02*
X14666958Y-13761150D01*
X14666958Y-13761150D02*
X14695529Y-13761150D01*
X14695529Y-13761150D02*
X14714577Y-13770674D01*
X14714577Y-13770674D02*
X14724101Y-13789722D01*
X14724101Y-13789722D02*
X14724101Y-13894484D01*
X14724101Y-13789722D02*
X14733624Y-13770674D01*
X14733624Y-13770674D02*
X14752672Y-13761150D01*
X14752672Y-13761150D02*
X14781243Y-13761150D01*
X14781243Y-13761150D02*
X14800291Y-13770674D01*
X14800291Y-13770674D02*
X14809815Y-13789722D01*
X14809815Y-13789722D02*
X14809815Y-13894484D01*
X15200291Y-13684960D02*
X15028863Y-13942103D01*
X15457434Y-13694484D02*
X15476482Y-13694484D01*
X15476482Y-13694484D02*
X15495529Y-13704008D01*
X15495529Y-13704008D02*
X15505053Y-13713531D01*
X15505053Y-13713531D02*
X15514577Y-13732579D01*
X15514577Y-13732579D02*
X15524101Y-13770674D01*
X15524101Y-13770674D02*
X15524101Y-13818293D01*
X15524101Y-13818293D02*
X15514577Y-13856388D01*
X15514577Y-13856388D02*
X15505053Y-13875436D01*
X15505053Y-13875436D02*
X15495529Y-13884960D01*
X15495529Y-13884960D02*
X15476482Y-13894484D01*
X15476482Y-13894484D02*
X15457434Y-13894484D01*
X15457434Y-13894484D02*
X15438386Y-13884960D01*
X15438386Y-13884960D02*
X15428863Y-13875436D01*
X15428863Y-13875436D02*
X15419339Y-13856388D01*
X15419339Y-13856388D02*
X15409815Y-13818293D01*
X15409815Y-13818293D02*
X15409815Y-13770674D01*
X15409815Y-13770674D02*
X15419339Y-13732579D01*
X15419339Y-13732579D02*
X15428863Y-13713531D01*
X15428863Y-13713531D02*
X15438386Y-13704008D01*
X15438386Y-13704008D02*
X15457434Y-13694484D01*
X15609815Y-13875436D02*
X15619339Y-13884960D01*
X15619339Y-13884960D02*
X15609815Y-13894484D01*
X15609815Y-13894484D02*
X15600291Y-13884960D01*
X15600291Y-13884960D02*
X15609815Y-13875436D01*
X15609815Y-13875436D02*
X15609815Y-13894484D01*
X15743148Y-13694484D02*
X15762196Y-13694484D01*
X15762196Y-13694484D02*
X15781244Y-13704008D01*
X15781244Y-13704008D02*
X15790767Y-13713531D01*
X15790767Y-13713531D02*
X15800291Y-13732579D01*
X15800291Y-13732579D02*
X15809815Y-13770674D01*
X15809815Y-13770674D02*
X15809815Y-13818293D01*
X15809815Y-13818293D02*
X15800291Y-13856388D01*
X15800291Y-13856388D02*
X15790767Y-13875436D01*
X15790767Y-13875436D02*
X15781244Y-13884960D01*
X15781244Y-13884960D02*
X15762196Y-13894484D01*
X15762196Y-13894484D02*
X15743148Y-13894484D01*
X15743148Y-13894484D02*
X15724101Y-13884960D01*
X15724101Y-13884960D02*
X15714577Y-13875436D01*
X15714577Y-13875436D02*
X15705053Y-13856388D01*
X15705053Y-13856388D02*
X15695529Y-13818293D01*
X15695529Y-13818293D02*
X15695529Y-13770674D01*
X15695529Y-13770674D02*
X15705053Y-13732579D01*
X15705053Y-13732579D02*
X15714577Y-13713531D01*
X15714577Y-13713531D02*
X15724101Y-13704008D01*
X15724101Y-13704008D02*
X15743148Y-13694484D01*
X15886006Y-13713531D02*
X15895529Y-13704008D01*
X15895529Y-13704008D02*
X15914577Y-13694484D01*
X15914577Y-13694484D02*
X15962196Y-13694484D01*
X15962196Y-13694484D02*
X15981244Y-13704008D01*
X15981244Y-13704008D02*
X15990767Y-13713531D01*
X15990767Y-13713531D02*
X16000291Y-13732579D01*
X16000291Y-13732579D02*
X16000291Y-13751627D01*
X16000291Y-13751627D02*
X15990767Y-13780198D01*
X15990767Y-13780198D02*
X15876482Y-13894484D01*
X15876482Y-13894484D02*
X16000291Y-13894484D01*
X16181244Y-13694484D02*
X16086006Y-13694484D01*
X16086006Y-13694484D02*
X16076482Y-13789722D01*
X16076482Y-13789722D02*
X16086006Y-13780198D01*
X16086006Y-13780198D02*
X16105053Y-13770674D01*
X16105053Y-13770674D02*
X16152672Y-13770674D01*
X16152672Y-13770674D02*
X16171720Y-13780198D01*
X16171720Y-13780198D02*
X16181244Y-13789722D01*
X16181244Y-13789722D02*
X16190767Y-13808769D01*
X16190767Y-13808769D02*
X16190767Y-13856388D01*
X16190767Y-13856388D02*
X16181244Y-13875436D01*
X16181244Y-13875436D02*
X16171720Y-13884960D01*
X16171720Y-13884960D02*
X16152672Y-13894484D01*
X16152672Y-13894484D02*
X16105053Y-13894484D01*
X16105053Y-13894484D02*
X16086006Y-13884960D01*
X16086006Y-13884960D02*
X16076482Y-13875436D01*
X16362196Y-13694484D02*
X16324101Y-13694484D01*
X16324101Y-13694484D02*
X16305053Y-13704008D01*
X16305053Y-13704008D02*
X16295529Y-13713531D01*
X16295529Y-13713531D02*
X16276482Y-13742103D01*
X16276482Y-13742103D02*
X16266958Y-13780198D01*
X16266958Y-13780198D02*
X16266958Y-13856388D01*
X16266958Y-13856388D02*
X16276482Y-13875436D01*
X16276482Y-13875436D02*
X16286006Y-13884960D01*
X16286006Y-13884960D02*
X16305053Y-13894484D01*
X16305053Y-13894484D02*
X16343148Y-13894484D01*
X16343148Y-13894484D02*
X16362196Y-13884960D01*
X16362196Y-13884960D02*
X16371720Y-13875436D01*
X16371720Y-13875436D02*
X16381244Y-13856388D01*
X16381244Y-13856388D02*
X16381244Y-13808769D01*
X16381244Y-13808769D02*
X16371720Y-13789722D01*
X16371720Y-13789722D02*
X16362196Y-13780198D01*
X16362196Y-13780198D02*
X16343148Y-13770674D01*
X16343148Y-13770674D02*
X16305053Y-13770674D01*
X16305053Y-13770674D02*
X16286006Y-13780198D01*
X16286006Y-13780198D02*
X16276482Y-13789722D01*
X16276482Y-13789722D02*
X16266958Y-13808769D01*
X16457434Y-13694484D02*
X16457434Y-13732579D01*
X16533625Y-13694484D02*
X16533625Y-13732579D01*
X16828863Y-13970674D02*
X16819339Y-13961150D01*
X16819339Y-13961150D02*
X16800291Y-13932579D01*
X16800291Y-13932579D02*
X16790768Y-13913531D01*
X16790768Y-13913531D02*
X16781244Y-13884960D01*
X16781244Y-13884960D02*
X16771720Y-13837341D01*
X16771720Y-13837341D02*
X16771720Y-13799246D01*
X16771720Y-13799246D02*
X16781244Y-13751627D01*
X16781244Y-13751627D02*
X16790768Y-13723055D01*
X16790768Y-13723055D02*
X16800291Y-13704008D01*
X16800291Y-13704008D02*
X16819339Y-13675436D01*
X16819339Y-13675436D02*
X16828863Y-13665912D01*
X16895530Y-13713531D02*
X16905053Y-13704008D01*
X16905053Y-13704008D02*
X16924101Y-13694484D01*
X16924101Y-13694484D02*
X16971720Y-13694484D01*
X16971720Y-13694484D02*
X16990768Y-13704008D01*
X16990768Y-13704008D02*
X17000291Y-13713531D01*
X17000291Y-13713531D02*
X17009815Y-13732579D01*
X17009815Y-13732579D02*
X17009815Y-13751627D01*
X17009815Y-13751627D02*
X17000291Y-13780198D01*
X17000291Y-13780198D02*
X16886006Y-13894484D01*
X16886006Y-13894484D02*
X17009815Y-13894484D01*
X17247911Y-13894484D02*
X17247911Y-13694484D01*
X17333625Y-13894484D02*
X17333625Y-13789722D01*
X17333625Y-13789722D02*
X17324101Y-13770674D01*
X17324101Y-13770674D02*
X17305053Y-13761150D01*
X17305053Y-13761150D02*
X17276482Y-13761150D01*
X17276482Y-13761150D02*
X17257434Y-13770674D01*
X17257434Y-13770674D02*
X17247911Y-13780198D01*
X17457434Y-13894484D02*
X17438387Y-13884960D01*
X17438387Y-13884960D02*
X17428863Y-13875436D01*
X17428863Y-13875436D02*
X17419339Y-13856388D01*
X17419339Y-13856388D02*
X17419339Y-13799246D01*
X17419339Y-13799246D02*
X17428863Y-13780198D01*
X17428863Y-13780198D02*
X17438387Y-13770674D01*
X17438387Y-13770674D02*
X17457434Y-13761150D01*
X17457434Y-13761150D02*
X17486006Y-13761150D01*
X17486006Y-13761150D02*
X17505053Y-13770674D01*
X17505053Y-13770674D02*
X17514577Y-13780198D01*
X17514577Y-13780198D02*
X17524101Y-13799246D01*
X17524101Y-13799246D02*
X17524101Y-13856388D01*
X17524101Y-13856388D02*
X17514577Y-13875436D01*
X17514577Y-13875436D02*
X17505053Y-13884960D01*
X17505053Y-13884960D02*
X17486006Y-13894484D01*
X17486006Y-13894484D02*
X17457434Y-13894484D01*
X17638387Y-13894484D02*
X17619339Y-13884960D01*
X17619339Y-13884960D02*
X17609815Y-13865912D01*
X17609815Y-13865912D02*
X17609815Y-13694484D01*
X17790768Y-13884960D02*
X17771720Y-13894484D01*
X17771720Y-13894484D02*
X17733625Y-13894484D01*
X17733625Y-13894484D02*
X17714577Y-13884960D01*
X17714577Y-13884960D02*
X17705053Y-13865912D01*
X17705053Y-13865912D02*
X17705053Y-13789722D01*
X17705053Y-13789722D02*
X17714577Y-13770674D01*
X17714577Y-13770674D02*
X17733625Y-13761150D01*
X17733625Y-13761150D02*
X17771720Y-13761150D01*
X17771720Y-13761150D02*
X17790768Y-13770674D01*
X17790768Y-13770674D02*
X17800292Y-13789722D01*
X17800292Y-13789722D02*
X17800292Y-13808769D01*
X17800292Y-13808769D02*
X17705053Y-13827817D01*
X17876482Y-13884960D02*
X17895530Y-13894484D01*
X17895530Y-13894484D02*
X17933625Y-13894484D01*
X17933625Y-13894484D02*
X17952673Y-13884960D01*
X17952673Y-13884960D02*
X17962196Y-13865912D01*
X17962196Y-13865912D02*
X17962196Y-13856388D01*
X17962196Y-13856388D02*
X17952673Y-13837341D01*
X17952673Y-13837341D02*
X17933625Y-13827817D01*
X17933625Y-13827817D02*
X17905053Y-13827817D01*
X17905053Y-13827817D02*
X17886006Y-13818293D01*
X17886006Y-13818293D02*
X17876482Y-13799246D01*
X17876482Y-13799246D02*
X17876482Y-13789722D01*
X17876482Y-13789722D02*
X17886006Y-13770674D01*
X17886006Y-13770674D02*
X17905053Y-13761150D01*
X17905053Y-13761150D02*
X17933625Y-13761150D01*
X17933625Y-13761150D02*
X17952673Y-13770674D01*
X18028863Y-13970674D02*
X18038387Y-13961150D01*
X18038387Y-13961150D02*
X18057434Y-13932579D01*
X18057434Y-13932579D02*
X18066958Y-13913531D01*
X18066958Y-13913531D02*
X18076482Y-13884960D01*
X18076482Y-13884960D02*
X18086006Y-13837341D01*
X18086006Y-13837341D02*
X18086006Y-13799246D01*
X18086006Y-13799246D02*
X18076482Y-13751627D01*
X18076482Y-13751627D02*
X18066958Y-13723055D01*
X18066958Y-13723055D02*
X18057434Y-13704008D01*
X18057434Y-13704008D02*
X18038387Y-13675436D01*
X18038387Y-13675436D02*
X18028863Y-13665912D01*
X18390768Y-13970674D02*
X18381244Y-13961150D01*
X18381244Y-13961150D02*
X18362196Y-13932579D01*
X18362196Y-13932579D02*
X18352673Y-13913531D01*
X18352673Y-13913531D02*
X18343149Y-13884960D01*
X18343149Y-13884960D02*
X18333625Y-13837341D01*
X18333625Y-13837341D02*
X18333625Y-13799246D01*
X18333625Y-13799246D02*
X18343149Y-13751627D01*
X18343149Y-13751627D02*
X18352673Y-13723055D01*
X18352673Y-13723055D02*
X18362196Y-13704008D01*
X18362196Y-13704008D02*
X18381244Y-13675436D01*
X18381244Y-13675436D02*
X18390768Y-13665912D01*
X18466958Y-13761150D02*
X18466958Y-13894484D01*
X18466958Y-13780198D02*
X18476482Y-13770674D01*
X18476482Y-13770674D02*
X18495530Y-13761150D01*
X18495530Y-13761150D02*
X18524101Y-13761150D01*
X18524101Y-13761150D02*
X18543149Y-13770674D01*
X18543149Y-13770674D02*
X18552673Y-13789722D01*
X18552673Y-13789722D02*
X18552673Y-13894484D01*
X18676482Y-13894484D02*
X18657434Y-13884960D01*
X18657434Y-13884960D02*
X18647911Y-13875436D01*
X18647911Y-13875436D02*
X18638387Y-13856388D01*
X18638387Y-13856388D02*
X18638387Y-13799246D01*
X18638387Y-13799246D02*
X18647911Y-13780198D01*
X18647911Y-13780198D02*
X18657434Y-13770674D01*
X18657434Y-13770674D02*
X18676482Y-13761150D01*
X18676482Y-13761150D02*
X18705054Y-13761150D01*
X18705054Y-13761150D02*
X18724101Y-13770674D01*
X18724101Y-13770674D02*
X18733625Y-13780198D01*
X18733625Y-13780198D02*
X18743149Y-13799246D01*
X18743149Y-13799246D02*
X18743149Y-13856388D01*
X18743149Y-13856388D02*
X18733625Y-13875436D01*
X18733625Y-13875436D02*
X18724101Y-13884960D01*
X18724101Y-13884960D02*
X18705054Y-13894484D01*
X18705054Y-13894484D02*
X18676482Y-13894484D01*
X18800292Y-13761150D02*
X18876482Y-13761150D01*
X18828863Y-13694484D02*
X18828863Y-13865912D01*
X18828863Y-13865912D02*
X18838387Y-13884960D01*
X18838387Y-13884960D02*
X18857434Y-13894484D01*
X18857434Y-13894484D02*
X18876482Y-13894484D01*
X19095530Y-13761150D02*
X19095530Y-13961150D01*
X19095530Y-13770674D02*
X19114577Y-13761150D01*
X19114577Y-13761150D02*
X19152673Y-13761150D01*
X19152673Y-13761150D02*
X19171720Y-13770674D01*
X19171720Y-13770674D02*
X19181244Y-13780198D01*
X19181244Y-13780198D02*
X19190768Y-13799246D01*
X19190768Y-13799246D02*
X19190768Y-13856388D01*
X19190768Y-13856388D02*
X19181244Y-13875436D01*
X19181244Y-13875436D02*
X19171720Y-13884960D01*
X19171720Y-13884960D02*
X19152673Y-13894484D01*
X19152673Y-13894484D02*
X19114577Y-13894484D01*
X19114577Y-13894484D02*
X19095530Y-13884960D01*
X19305054Y-13894484D02*
X19286006Y-13884960D01*
X19286006Y-13884960D02*
X19276482Y-13865912D01*
X19276482Y-13865912D02*
X19276482Y-13694484D01*
X19466958Y-13894484D02*
X19466958Y-13789722D01*
X19466958Y-13789722D02*
X19457435Y-13770674D01*
X19457435Y-13770674D02*
X19438387Y-13761150D01*
X19438387Y-13761150D02*
X19400292Y-13761150D01*
X19400292Y-13761150D02*
X19381244Y-13770674D01*
X19466958Y-13884960D02*
X19447911Y-13894484D01*
X19447911Y-13894484D02*
X19400292Y-13894484D01*
X19400292Y-13894484D02*
X19381244Y-13884960D01*
X19381244Y-13884960D02*
X19371720Y-13865912D01*
X19371720Y-13865912D02*
X19371720Y-13846865D01*
X19371720Y-13846865D02*
X19381244Y-13827817D01*
X19381244Y-13827817D02*
X19400292Y-13818293D01*
X19400292Y-13818293D02*
X19447911Y-13818293D01*
X19447911Y-13818293D02*
X19466958Y-13808769D01*
X19533625Y-13761150D02*
X19609815Y-13761150D01*
X19562196Y-13694484D02*
X19562196Y-13865912D01*
X19562196Y-13865912D02*
X19571720Y-13884960D01*
X19571720Y-13884960D02*
X19590768Y-13894484D01*
X19590768Y-13894484D02*
X19609815Y-13894484D01*
X19752673Y-13884960D02*
X19733625Y-13894484D01*
X19733625Y-13894484D02*
X19695530Y-13894484D01*
X19695530Y-13894484D02*
X19676482Y-13884960D01*
X19676482Y-13884960D02*
X19666958Y-13865912D01*
X19666958Y-13865912D02*
X19666958Y-13789722D01*
X19666958Y-13789722D02*
X19676482Y-13770674D01*
X19676482Y-13770674D02*
X19695530Y-13761150D01*
X19695530Y-13761150D02*
X19733625Y-13761150D01*
X19733625Y-13761150D02*
X19752673Y-13770674D01*
X19752673Y-13770674D02*
X19762196Y-13789722D01*
X19762196Y-13789722D02*
X19762196Y-13808769D01*
X19762196Y-13808769D02*
X19666958Y-13827817D01*
X19933625Y-13894484D02*
X19933625Y-13694484D01*
X19933625Y-13884960D02*
X19914577Y-13894484D01*
X19914577Y-13894484D02*
X19876482Y-13894484D01*
X19876482Y-13894484D02*
X19857435Y-13884960D01*
X19857435Y-13884960D02*
X19847911Y-13875436D01*
X19847911Y-13875436D02*
X19838387Y-13856388D01*
X19838387Y-13856388D02*
X19838387Y-13799246D01*
X19838387Y-13799246D02*
X19847911Y-13780198D01*
X19847911Y-13780198D02*
X19857435Y-13770674D01*
X19857435Y-13770674D02*
X19876482Y-13761150D01*
X19876482Y-13761150D02*
X19914577Y-13761150D01*
X19914577Y-13761150D02*
X19933625Y-13770674D01*
X20009816Y-13970674D02*
X20019339Y-13961150D01*
X20019339Y-13961150D02*
X20038387Y-13932579D01*
X20038387Y-13932579D02*
X20047911Y-13913531D01*
X20047911Y-13913531D02*
X20057435Y-13884960D01*
X20057435Y-13884960D02*
X20066958Y-13837341D01*
X20066958Y-13837341D02*
X20066958Y-13799246D01*
X20066958Y-13799246D02*
X20057435Y-13751627D01*
X20057435Y-13751627D02*
X20047911Y-13723055D01*
X20047911Y-13723055D02*
X20038387Y-13704008D01*
X20038387Y-13704008D02*
X20019339Y-13675436D01*
X20019339Y-13675436D02*
X20009816Y-13665912D01*
M02*
