G04 #@! TF.GenerationSoftware,KiCad,Pcbnew,8.0.5-8.0.5-0~ubuntu24.04.1*
G04 #@! TF.CreationDate,2024-09-24T16:48:19+02:00*
G04 #@! TF.ProjectId,ESP32-S2_S3-WROOM_flexypin,45535033-322d-4533-925f-53332d57524f,rev?*
G04 #@! TF.SameCoordinates,Original*
G04 #@! TF.FileFunction,Copper,L1,Top*
G04 #@! TF.FilePolarity,Positive*
%FSLAX46Y46*%
G04 Gerber Fmt 4.6, Leading zero omitted, Abs format (unit mm)*
G04 Created by KiCad (PCBNEW 8.0.5-8.0.5-0~ubuntu24.04.1) date 2024-09-24 16:48:19*
%MOMM*%
%LPD*%
G01*
G04 APERTURE LIST*
G04 #@! TA.AperFunction,ComponentPad*
%ADD10R,1.700000X1.700000*%
G04 #@! TD*
G04 #@! TA.AperFunction,ComponentPad*
%ADD11O,1.700000X1.700000*%
G04 #@! TD*
G04 #@! TA.AperFunction,ComponentPad*
%ADD12O,0.950000X2.000000*%
G04 #@! TD*
G04 #@! TA.AperFunction,ComponentPad*
%ADD13R,0.900000X1.300000*%
G04 #@! TD*
G04 #@! TA.AperFunction,ComponentPad*
%ADD14O,2.000000X0.950000*%
G04 #@! TD*
G04 #@! TA.AperFunction,ComponentPad*
%ADD15R,1.300000X0.900000*%
G04 #@! TD*
G04 #@! TA.AperFunction,SMDPad,CuDef*
%ADD16R,0.600000X1.240000*%
G04 #@! TD*
G04 #@! TA.AperFunction,SMDPad,CuDef*
%ADD17R,0.300000X1.240000*%
G04 #@! TD*
G04 #@! TA.AperFunction,ComponentPad*
%ADD18O,1.000000X2.100000*%
G04 #@! TD*
G04 #@! TA.AperFunction,ComponentPad*
%ADD19O,1.000000X1.800000*%
G04 #@! TD*
G04 #@! TA.AperFunction,ViaPad*
%ADD20C,0.700000*%
G04 #@! TD*
G04 #@! TA.AperFunction,Conductor*
%ADD21C,0.200000*%
G04 #@! TD*
G04 #@! TA.AperFunction,Conductor*
%ADD22C,0.300000*%
G04 #@! TD*
G04 #@! TA.AperFunction,Profile*
%ADD23C,0.100000*%
G04 #@! TD*
G04 APERTURE END LIST*
D10*
X162052000Y-81788000D03*
D11*
X162052000Y-84328000D03*
X162052000Y-86868000D03*
X162052000Y-89408000D03*
X162052000Y-91948000D03*
X162052000Y-94488000D03*
X162052000Y-97028000D03*
X162052000Y-99568000D03*
X162052000Y-102108000D03*
X162052000Y-104648000D03*
X162052000Y-107188000D03*
X162052000Y-109728000D03*
X162052000Y-112268000D03*
X162052000Y-114808000D03*
X162052000Y-117348000D03*
X162052000Y-119888000D03*
X162052000Y-122428000D03*
X162052000Y-124968000D03*
X162052000Y-127508000D03*
X162052000Y-130048000D03*
D12*
X141090000Y-99800000D03*
X142360000Y-99800000D03*
X143630000Y-99800000D03*
X144900000Y-99800000D03*
X146170000Y-99800000D03*
X147440000Y-99800000D03*
X148710000Y-99800000D03*
X149980000Y-99800000D03*
X151250000Y-99800000D03*
X152520000Y-99800000D03*
X153790000Y-99800000D03*
X155060000Y-99800000D03*
D13*
X141090000Y-101650000D03*
X142360000Y-101650000D03*
X143630000Y-101650000D03*
X144900000Y-101650000D03*
X146170000Y-101650000D03*
X147440000Y-101650000D03*
X148710000Y-101650000D03*
X149980000Y-101650000D03*
X151250000Y-101650000D03*
X152520000Y-101650000D03*
X153790000Y-101650000D03*
X155060000Y-101650000D03*
G04 #@! TA.AperFunction,SMDPad,CuDef*
G36*
G01*
X154140000Y-119070000D02*
X154140000Y-118730000D01*
G75*
G02*
X154280000Y-118590000I140000J0D01*
G01*
X154560000Y-118590000D01*
G75*
G02*
X154700000Y-118730000I0J-140000D01*
G01*
X154700000Y-119070000D01*
G75*
G02*
X154560000Y-119210000I-140000J0D01*
G01*
X154280000Y-119210000D01*
G75*
G02*
X154140000Y-119070000I0J140000D01*
G01*
G37*
G04 #@! TD.AperFunction*
G04 #@! TA.AperFunction,SMDPad,CuDef*
G36*
G01*
X155100000Y-119070000D02*
X155100000Y-118730000D01*
G75*
G02*
X155240000Y-118590000I140000J0D01*
G01*
X155520000Y-118590000D01*
G75*
G02*
X155660000Y-118730000I0J-140000D01*
G01*
X155660000Y-119070000D01*
G75*
G02*
X155520000Y-119210000I-140000J0D01*
G01*
X155240000Y-119210000D01*
G75*
G02*
X155100000Y-119070000I0J140000D01*
G01*
G37*
G04 #@! TD.AperFunction*
D14*
X138600000Y-81290000D03*
X138600000Y-83830000D03*
X138600000Y-85100000D03*
X138600000Y-86370000D03*
X138600000Y-87640000D03*
X138600000Y-88910000D03*
X138600000Y-90180000D03*
X138600000Y-91450000D03*
X138600000Y-92720000D03*
X138600000Y-95260000D03*
X138600000Y-97800000D03*
D15*
X136750000Y-81290000D03*
X136750000Y-82560000D03*
D14*
X138600000Y-82560000D03*
D15*
X136750000Y-83830000D03*
X136750000Y-85100000D03*
X136750000Y-86370000D03*
X136750000Y-87640000D03*
X136750000Y-88910000D03*
X136750000Y-90180000D03*
X136750000Y-91450000D03*
X136750000Y-92720000D03*
X136750000Y-93990000D03*
D14*
X138600000Y-93990000D03*
D15*
X136750000Y-95260000D03*
X136750000Y-96530000D03*
D14*
X138600000Y-96530000D03*
D15*
X136750000Y-97800000D03*
D10*
X134112000Y-81788000D03*
D11*
X134112000Y-84328000D03*
X134112000Y-86868000D03*
X134112000Y-89408000D03*
X134112000Y-91948000D03*
X134112000Y-94488000D03*
X134112000Y-97028000D03*
X134112000Y-99568000D03*
X134112000Y-102108000D03*
X134112000Y-104648000D03*
X134112000Y-107188000D03*
X134112000Y-109728000D03*
X134112000Y-112268000D03*
X134112000Y-114808000D03*
X134112000Y-117348000D03*
X134112000Y-119888000D03*
X134112000Y-122428000D03*
X134112000Y-124968000D03*
X134112000Y-127508000D03*
X134112000Y-130048000D03*
G04 #@! TA.AperFunction,SMDPad,CuDef*
G36*
G01*
X140765000Y-122720000D02*
X141135000Y-122720000D01*
G75*
G02*
X141270000Y-122855000I0J-135000D01*
G01*
X141270000Y-123125000D01*
G75*
G02*
X141135000Y-123260000I-135000J0D01*
G01*
X140765000Y-123260000D01*
G75*
G02*
X140630000Y-123125000I0J135000D01*
G01*
X140630000Y-122855000D01*
G75*
G02*
X140765000Y-122720000I135000J0D01*
G01*
G37*
G04 #@! TD.AperFunction*
G04 #@! TA.AperFunction,SMDPad,CuDef*
G36*
G01*
X140765000Y-123740000D02*
X141135000Y-123740000D01*
G75*
G02*
X141270000Y-123875000I0J-135000D01*
G01*
X141270000Y-124145000D01*
G75*
G02*
X141135000Y-124280000I-135000J0D01*
G01*
X140765000Y-124280000D01*
G75*
G02*
X140630000Y-124145000I0J135000D01*
G01*
X140630000Y-123875000D01*
G75*
G02*
X140765000Y-123740000I135000J0D01*
G01*
G37*
G04 #@! TD.AperFunction*
G04 #@! TA.AperFunction,SMDPad,CuDef*
G36*
G01*
X154350000Y-124700000D02*
X155950000Y-124700000D01*
G75*
G02*
X156150000Y-124900000I0J-200000D01*
G01*
X156150000Y-125300000D01*
G75*
G02*
X155950000Y-125500000I-200000J0D01*
G01*
X154350000Y-125500000D01*
G75*
G02*
X154150000Y-125300000I0J200000D01*
G01*
X154150000Y-124900000D01*
G75*
G02*
X154350000Y-124700000I200000J0D01*
G01*
G37*
G04 #@! TD.AperFunction*
G04 #@! TA.AperFunction,SMDPad,CuDef*
G36*
G01*
X154350000Y-128900000D02*
X155950000Y-128900000D01*
G75*
G02*
X156150000Y-129100000I0J-200000D01*
G01*
X156150000Y-129500000D01*
G75*
G02*
X155950000Y-129700000I-200000J0D01*
G01*
X154350000Y-129700000D01*
G75*
G02*
X154150000Y-129500000I0J200000D01*
G01*
X154150000Y-129100000D01*
G75*
G02*
X154350000Y-128900000I200000J0D01*
G01*
G37*
G04 #@! TD.AperFunction*
G04 #@! TA.AperFunction,SMDPad,CuDef*
G36*
G01*
X150887500Y-120100000D02*
X151112500Y-120100000D01*
G75*
G02*
X151225000Y-120212500I0J-112500D01*
G01*
X151225000Y-120587500D01*
G75*
G02*
X151112500Y-120700000I-112500J0D01*
G01*
X150887500Y-120700000D01*
G75*
G02*
X150775000Y-120587500I0J112500D01*
G01*
X150775000Y-120212500D01*
G75*
G02*
X150887500Y-120100000I112500J0D01*
G01*
G37*
G04 #@! TD.AperFunction*
G04 #@! TA.AperFunction,SMDPad,CuDef*
G36*
G01*
X150887500Y-122200000D02*
X151112500Y-122200000D01*
G75*
G02*
X151225000Y-122312500I0J-112500D01*
G01*
X151225000Y-122687500D01*
G75*
G02*
X151112500Y-122800000I-112500J0D01*
G01*
X150887500Y-122800000D01*
G75*
G02*
X150775000Y-122687500I0J112500D01*
G01*
X150775000Y-122312500D01*
G75*
G02*
X150887500Y-122200000I112500J0D01*
G01*
G37*
G04 #@! TD.AperFunction*
G04 #@! TA.AperFunction,SMDPad,CuDef*
G36*
G01*
X146290000Y-123115000D02*
X146290000Y-123485000D01*
G75*
G02*
X146155000Y-123620000I-135000J0D01*
G01*
X145885000Y-123620000D01*
G75*
G02*
X145750000Y-123485000I0J135000D01*
G01*
X145750000Y-123115000D01*
G75*
G02*
X145885000Y-122980000I135000J0D01*
G01*
X146155000Y-122980000D01*
G75*
G02*
X146290000Y-123115000I0J-135000D01*
G01*
G37*
G04 #@! TD.AperFunction*
G04 #@! TA.AperFunction,SMDPad,CuDef*
G36*
G01*
X145270000Y-123115000D02*
X145270000Y-123485000D01*
G75*
G02*
X145135000Y-123620000I-135000J0D01*
G01*
X144865000Y-123620000D01*
G75*
G02*
X144730000Y-123485000I0J135000D01*
G01*
X144730000Y-123115000D01*
G75*
G02*
X144865000Y-122980000I135000J0D01*
G01*
X145135000Y-122980000D01*
G75*
G02*
X145270000Y-123115000I0J-135000D01*
G01*
G37*
G04 #@! TD.AperFunction*
D16*
X144882000Y-125100000D03*
X145682000Y-125100000D03*
D17*
X146832000Y-125100000D03*
X147832000Y-125100000D03*
X148332000Y-125100000D03*
X149332000Y-125100000D03*
D16*
X150482000Y-125100000D03*
X151282000Y-125100000D03*
X151282000Y-125100000D03*
X150482000Y-125100000D03*
D17*
X149832000Y-125100000D03*
X148832000Y-125100000D03*
X147332000Y-125100000D03*
X146332000Y-125100000D03*
D16*
X145682000Y-125100000D03*
X144882000Y-125100000D03*
D18*
X143762000Y-125700000D03*
D19*
X143762000Y-129900000D03*
D18*
X152402000Y-125700000D03*
D19*
X152402000Y-129900000D03*
D14*
X157550000Y-97800000D03*
X157550000Y-95260000D03*
X157550000Y-92720000D03*
X157550000Y-91450000D03*
X157550000Y-90180000D03*
X157550000Y-88910000D03*
X157550000Y-87640000D03*
X157550000Y-86370000D03*
X157550000Y-85100000D03*
X157550000Y-83830000D03*
X157550000Y-82560000D03*
X157550000Y-81290000D03*
D15*
X159400000Y-97800000D03*
X159400000Y-96530000D03*
D14*
X157550000Y-96530000D03*
D15*
X159400000Y-95260000D03*
X159400000Y-93990000D03*
D14*
X157550000Y-93990000D03*
D15*
X159400000Y-92720000D03*
X159400000Y-91450000D03*
X159400000Y-90180000D03*
X159400000Y-88910000D03*
X159400000Y-87640000D03*
X159400000Y-86370000D03*
X159400000Y-85100000D03*
X159400000Y-83830000D03*
X159400000Y-82560000D03*
X159400000Y-81290000D03*
G04 #@! TA.AperFunction,SMDPad,CuDef*
G36*
G01*
X149685000Y-123580000D02*
X149315000Y-123580000D01*
G75*
G02*
X149180000Y-123445000I0J135000D01*
G01*
X149180000Y-123175000D01*
G75*
G02*
X149315000Y-123040000I135000J0D01*
G01*
X149685000Y-123040000D01*
G75*
G02*
X149820000Y-123175000I0J-135000D01*
G01*
X149820000Y-123445000D01*
G75*
G02*
X149685000Y-123580000I-135000J0D01*
G01*
G37*
G04 #@! TD.AperFunction*
G04 #@! TA.AperFunction,SMDPad,CuDef*
G36*
G01*
X149685000Y-122560000D02*
X149315000Y-122560000D01*
G75*
G02*
X149180000Y-122425000I0J135000D01*
G01*
X149180000Y-122155000D01*
G75*
G02*
X149315000Y-122020000I135000J0D01*
G01*
X149685000Y-122020000D01*
G75*
G02*
X149820000Y-122155000I0J-135000D01*
G01*
X149820000Y-122425000D01*
G75*
G02*
X149685000Y-122560000I-135000J0D01*
G01*
G37*
G04 #@! TD.AperFunction*
G04 #@! TA.AperFunction,SMDPad,CuDef*
G36*
G01*
X142922500Y-119780000D02*
X142577500Y-119780000D01*
G75*
G02*
X142430000Y-119632500I0J147500D01*
G01*
X142430000Y-119337500D01*
G75*
G02*
X142577500Y-119190000I147500J0D01*
G01*
X142922500Y-119190000D01*
G75*
G02*
X143070000Y-119337500I0J-147500D01*
G01*
X143070000Y-119632500D01*
G75*
G02*
X142922500Y-119780000I-147500J0D01*
G01*
G37*
G04 #@! TD.AperFunction*
G04 #@! TA.AperFunction,SMDPad,CuDef*
G36*
G01*
X142922500Y-118810000D02*
X142577500Y-118810000D01*
G75*
G02*
X142430000Y-118662500I0J147500D01*
G01*
X142430000Y-118367500D01*
G75*
G02*
X142577500Y-118220000I147500J0D01*
G01*
X142922500Y-118220000D01*
G75*
G02*
X143070000Y-118367500I0J-147500D01*
G01*
X143070000Y-118662500D01*
G75*
G02*
X142922500Y-118810000I-147500J0D01*
G01*
G37*
G04 #@! TD.AperFunction*
G04 #@! TA.AperFunction,SMDPad,CuDef*
G36*
G01*
X140150000Y-124700000D02*
X141750000Y-124700000D01*
G75*
G02*
X141950000Y-124900000I0J-200000D01*
G01*
X141950000Y-125300000D01*
G75*
G02*
X141750000Y-125500000I-200000J0D01*
G01*
X140150000Y-125500000D01*
G75*
G02*
X139950000Y-125300000I0J200000D01*
G01*
X139950000Y-124900000D01*
G75*
G02*
X140150000Y-124700000I200000J0D01*
G01*
G37*
G04 #@! TD.AperFunction*
G04 #@! TA.AperFunction,SMDPad,CuDef*
G36*
G01*
X140150000Y-128900000D02*
X141750000Y-128900000D01*
G75*
G02*
X141950000Y-129100000I0J-200000D01*
G01*
X141950000Y-129500000D01*
G75*
G02*
X141750000Y-129700000I-200000J0D01*
G01*
X140150000Y-129700000D01*
G75*
G02*
X139950000Y-129500000I0J200000D01*
G01*
X139950000Y-129100000D01*
G75*
G02*
X140150000Y-128900000I200000J0D01*
G01*
G37*
G04 #@! TD.AperFunction*
G04 #@! TA.AperFunction,SMDPad,CuDef*
G36*
G01*
X152200000Y-120650000D02*
X152200000Y-120350000D01*
G75*
G02*
X152350000Y-120200000I150000J0D01*
G01*
X153375000Y-120200000D01*
G75*
G02*
X153525000Y-120350000I0J-150000D01*
G01*
X153525000Y-120650000D01*
G75*
G02*
X153375000Y-120800000I-150000J0D01*
G01*
X152350000Y-120800000D01*
G75*
G02*
X152200000Y-120650000I0J150000D01*
G01*
G37*
G04 #@! TD.AperFunction*
G04 #@! TA.AperFunction,SMDPad,CuDef*
G36*
G01*
X152200000Y-121600000D02*
X152200000Y-121300000D01*
G75*
G02*
X152350000Y-121150000I150000J0D01*
G01*
X153375000Y-121150000D01*
G75*
G02*
X153525000Y-121300000I0J-150000D01*
G01*
X153525000Y-121600000D01*
G75*
G02*
X153375000Y-121750000I-150000J0D01*
G01*
X152350000Y-121750000D01*
G75*
G02*
X152200000Y-121600000I0J150000D01*
G01*
G37*
G04 #@! TD.AperFunction*
G04 #@! TA.AperFunction,SMDPad,CuDef*
G36*
G01*
X152200000Y-122550000D02*
X152200000Y-122250000D01*
G75*
G02*
X152350000Y-122100000I150000J0D01*
G01*
X153375000Y-122100000D01*
G75*
G02*
X153525000Y-122250000I0J-150000D01*
G01*
X153525000Y-122550000D01*
G75*
G02*
X153375000Y-122700000I-150000J0D01*
G01*
X152350000Y-122700000D01*
G75*
G02*
X152200000Y-122550000I0J150000D01*
G01*
G37*
G04 #@! TD.AperFunction*
G04 #@! TA.AperFunction,SMDPad,CuDef*
G36*
G01*
X154475000Y-122550000D02*
X154475000Y-122250000D01*
G75*
G02*
X154625000Y-122100000I150000J0D01*
G01*
X155650000Y-122100000D01*
G75*
G02*
X155800000Y-122250000I0J-150000D01*
G01*
X155800000Y-122550000D01*
G75*
G02*
X155650000Y-122700000I-150000J0D01*
G01*
X154625000Y-122700000D01*
G75*
G02*
X154475000Y-122550000I0J150000D01*
G01*
G37*
G04 #@! TD.AperFunction*
G04 #@! TA.AperFunction,SMDPad,CuDef*
G36*
G01*
X154475000Y-120650000D02*
X154475000Y-120350000D01*
G75*
G02*
X154625000Y-120200000I150000J0D01*
G01*
X155650000Y-120200000D01*
G75*
G02*
X155800000Y-120350000I0J-150000D01*
G01*
X155800000Y-120650000D01*
G75*
G02*
X155650000Y-120800000I-150000J0D01*
G01*
X154625000Y-120800000D01*
G75*
G02*
X154475000Y-120650000I0J150000D01*
G01*
G37*
G04 #@! TD.AperFunction*
G04 #@! TA.AperFunction,SMDPad,CuDef*
G36*
G01*
X153760000Y-118730000D02*
X153760000Y-119070000D01*
G75*
G02*
X153620000Y-119210000I-140000J0D01*
G01*
X153340000Y-119210000D01*
G75*
G02*
X153200000Y-119070000I0J140000D01*
G01*
X153200000Y-118730000D01*
G75*
G02*
X153340000Y-118590000I140000J0D01*
G01*
X153620000Y-118590000D01*
G75*
G02*
X153760000Y-118730000I0J-140000D01*
G01*
G37*
G04 #@! TD.AperFunction*
G04 #@! TA.AperFunction,SMDPad,CuDef*
G36*
G01*
X152800000Y-118730000D02*
X152800000Y-119070000D01*
G75*
G02*
X152660000Y-119210000I-140000J0D01*
G01*
X152380000Y-119210000D01*
G75*
G02*
X152240000Y-119070000I0J140000D01*
G01*
X152240000Y-118730000D01*
G75*
G02*
X152380000Y-118590000I140000J0D01*
G01*
X152660000Y-118590000D01*
G75*
G02*
X152800000Y-118730000I0J-140000D01*
G01*
G37*
G04 #@! TD.AperFunction*
G04 #@! TA.AperFunction,SMDPad,CuDef*
G36*
G01*
X141315000Y-118220000D02*
X141685000Y-118220000D01*
G75*
G02*
X141820000Y-118355000I0J-135000D01*
G01*
X141820000Y-118625000D01*
G75*
G02*
X141685000Y-118760000I-135000J0D01*
G01*
X141315000Y-118760000D01*
G75*
G02*
X141180000Y-118625000I0J135000D01*
G01*
X141180000Y-118355000D01*
G75*
G02*
X141315000Y-118220000I135000J0D01*
G01*
G37*
G04 #@! TD.AperFunction*
G04 #@! TA.AperFunction,SMDPad,CuDef*
G36*
G01*
X141315000Y-119240000D02*
X141685000Y-119240000D01*
G75*
G02*
X141820000Y-119375000I0J-135000D01*
G01*
X141820000Y-119645000D01*
G75*
G02*
X141685000Y-119780000I-135000J0D01*
G01*
X141315000Y-119780000D01*
G75*
G02*
X141180000Y-119645000I0J135000D01*
G01*
X141180000Y-119375000D01*
G75*
G02*
X141315000Y-119240000I135000J0D01*
G01*
G37*
G04 #@! TD.AperFunction*
D20*
X140300000Y-96350000D03*
X158364000Y-106200000D03*
X156724500Y-106200000D03*
X140950000Y-122000000D03*
X154890380Y-118109620D03*
X139950000Y-124000000D03*
X148322396Y-126152010D03*
X139627099Y-99650000D03*
X155050000Y-123800000D03*
X138750000Y-100300000D03*
X147675559Y-123900000D03*
D21*
X160788000Y-119888000D02*
X162052000Y-119888000D01*
X153804000Y-112904000D02*
X160788000Y-119888000D01*
X153804000Y-101346000D02*
X153804000Y-112904000D01*
X156150000Y-98386000D02*
X157424000Y-99660000D01*
X156444000Y-96520000D02*
X156150000Y-96814000D01*
X157424000Y-107640000D02*
X162052000Y-112268000D01*
X159124000Y-96520000D02*
X156444000Y-96520000D01*
X157424000Y-99660000D02*
X157424000Y-107640000D01*
X156150000Y-96814000D02*
X156150000Y-98386000D01*
X152534000Y-101346000D02*
X152534000Y-112434000D01*
X152534000Y-112434000D02*
X160502000Y-120402000D01*
X160502000Y-120402000D02*
X160502000Y-120878000D01*
X160502000Y-120878000D02*
X162052000Y-122428000D01*
X159702000Y-125158000D02*
X162052000Y-127508000D01*
X159702000Y-121202000D02*
X159702000Y-125158000D01*
X149994000Y-111494000D02*
X159702000Y-121202000D01*
X149994000Y-101346000D02*
X149994000Y-111494000D01*
X148724000Y-101346000D02*
X148724000Y-111024000D01*
X159302000Y-127298000D02*
X162052000Y-130048000D01*
X148724000Y-111024000D02*
X159302000Y-121602000D01*
X159302000Y-121602000D02*
X159302000Y-127298000D01*
X162052000Y-86868000D02*
X160902489Y-85718489D01*
X160902489Y-85718489D02*
X160902489Y-84338489D01*
X160902489Y-84338489D02*
X160384000Y-83820000D01*
X160384000Y-83820000D02*
X159124000Y-83820000D01*
X151264000Y-101346000D02*
X151264000Y-111964000D01*
X160102000Y-120802000D02*
X160102000Y-123018000D01*
X160102000Y-123018000D02*
X162052000Y-124968000D01*
X151264000Y-111964000D02*
X160102000Y-120802000D01*
X140300000Y-95338984D02*
X138941016Y-93980000D01*
X138941016Y-93980000D02*
X137040000Y-93980000D01*
X140300000Y-96350000D02*
X140300000Y-95338984D01*
X134112000Y-94488000D02*
X134861991Y-93738009D01*
X134861992Y-92838008D02*
X135261511Y-92438489D01*
X134861991Y-93738009D02*
X134861992Y-92838008D01*
X135261511Y-92438489D02*
X135261511Y-88261511D01*
X135893022Y-87630000D02*
X137040000Y-87630000D01*
X135261511Y-88261511D02*
X135893022Y-87630000D01*
X134900480Y-95399520D02*
X135261511Y-95038489D01*
X134900480Y-96239520D02*
X134900480Y-95399520D01*
X135900000Y-88900000D02*
X137040000Y-88900000D01*
X135261511Y-93003495D02*
X135661030Y-92603976D01*
X135661030Y-92603976D02*
X135661031Y-89138969D01*
X135661031Y-89138969D02*
X135900000Y-88900000D01*
X134112000Y-97028000D02*
X134900480Y-96239520D01*
X135261511Y-95038489D02*
X135261511Y-93003495D01*
X136190000Y-92710000D02*
X135661031Y-93238969D01*
X135661030Y-95203976D02*
X135300000Y-95565006D01*
X135300000Y-95565006D02*
X135300000Y-103460000D01*
X135661031Y-93238969D02*
X135661030Y-95203976D01*
X135300000Y-103460000D02*
X134112000Y-104648000D01*
X136180012Y-95250000D02*
X135699520Y-95730492D01*
X135699520Y-108140480D02*
X134112000Y-109728000D01*
X137040000Y-95250000D02*
X136180012Y-95250000D01*
X135699520Y-95730492D02*
X135699520Y-108140480D01*
X137052000Y-117348000D02*
X134112000Y-117348000D01*
X141100000Y-113300000D02*
X137052000Y-117348000D01*
X141100000Y-101340000D02*
X141100000Y-113300000D01*
X142374000Y-101346000D02*
X142374000Y-112826000D01*
X135312000Y-119888000D02*
X134112000Y-119888000D01*
X142374000Y-112826000D02*
X135312000Y-119888000D01*
X143644000Y-101346000D02*
X143644000Y-112356000D01*
X143644000Y-112356000D02*
X135662000Y-120338000D01*
X135662000Y-120338000D02*
X135662000Y-120878000D01*
X135662000Y-120878000D02*
X134112000Y-122428000D01*
X144914000Y-111886000D02*
X136062000Y-120738000D01*
X136062000Y-120738000D02*
X136062000Y-123018000D01*
X144914000Y-101346000D02*
X144914000Y-111886000D01*
X136062000Y-123018000D02*
X134112000Y-124968000D01*
X136462000Y-121138000D02*
X136462000Y-125158000D01*
X146184000Y-111416000D02*
X136462000Y-121138000D01*
X146184000Y-101346000D02*
X146184000Y-111416000D01*
X136462000Y-125158000D02*
X134112000Y-127508000D01*
X160274000Y-82550000D02*
X159124000Y-82550000D01*
X162052000Y-84328000D02*
X160274000Y-82550000D01*
X160354000Y-85090000D02*
X159124000Y-85090000D01*
X162052000Y-89408000D02*
X160902489Y-88258489D01*
X160502969Y-85238969D02*
X160354000Y-85090000D01*
X160902489Y-86283495D02*
X160502969Y-85883975D01*
X160502969Y-85883975D02*
X160502969Y-85238969D01*
X160902489Y-88258489D02*
X160902489Y-86283495D01*
X160224000Y-86360000D02*
X159124000Y-86360000D01*
X160502969Y-88638969D02*
X160502969Y-86638969D01*
X160902489Y-89038489D02*
X160502969Y-88638969D01*
X162052000Y-91948000D02*
X160902489Y-90798489D01*
X160502969Y-86638969D02*
X160224000Y-86360000D01*
X160902489Y-90798489D02*
X160902489Y-89038489D01*
X160864000Y-98380000D02*
X160864000Y-91325006D01*
X160334000Y-90170000D02*
X159124000Y-90170000D01*
X162052000Y-99568000D02*
X160864000Y-98380000D01*
X160502969Y-90963975D02*
X160502969Y-90338969D01*
X160864000Y-91325006D02*
X160502969Y-90963975D01*
X160502969Y-90338969D02*
X160334000Y-90170000D01*
X160464480Y-100520480D02*
X160464480Y-91600480D01*
X160304000Y-91440000D02*
X159124000Y-91440000D01*
X160464480Y-91600480D02*
X160304000Y-91440000D01*
X162052000Y-102108000D02*
X160464480Y-100520480D01*
X141500000Y-119510000D02*
X142725000Y-119510000D01*
X142725000Y-119510000D02*
X142750000Y-119485000D01*
X156724500Y-99525506D02*
X155750000Y-98551006D01*
X156284000Y-93980000D02*
X159124000Y-93980000D01*
X155750000Y-98551006D02*
X155750000Y-94514000D01*
X155750000Y-94514000D02*
X156284000Y-93980000D01*
X158364000Y-106200000D02*
X159352000Y-107188000D01*
X159352000Y-107188000D02*
X162052000Y-107188000D01*
X156724500Y-106200000D02*
X156724500Y-99525506D01*
X159048000Y-117348000D02*
X162052000Y-117348000D01*
X155080000Y-113380000D02*
X159048000Y-117348000D01*
X155080000Y-101340000D02*
X155080000Y-113380000D01*
X161052000Y-81788000D02*
X160544000Y-81280000D01*
X162052000Y-81788000D02*
X161052000Y-81788000D01*
X160544000Y-81280000D02*
X159124000Y-81280000D01*
D22*
X151000000Y-120400000D02*
X152762500Y-120400000D01*
D21*
X152200001Y-122400000D02*
X151000000Y-121199999D01*
D22*
X152520000Y-120157500D02*
X152862500Y-120500000D01*
X152762500Y-120400000D02*
X152862500Y-120500000D01*
D21*
X151000000Y-121199999D02*
X151000000Y-120400000D01*
X152862500Y-122400000D02*
X152200001Y-122400000D01*
D22*
X152520000Y-118900000D02*
X152520000Y-120157500D01*
X155380000Y-120257500D02*
X155137500Y-120500000D01*
X154890380Y-118109620D02*
X155380000Y-118599240D01*
X155380000Y-118599240D02*
X155380000Y-118900000D01*
D21*
X140950000Y-122990000D02*
X140950000Y-122000000D01*
D22*
X155380000Y-118599240D02*
X155380000Y-120257500D01*
X150482000Y-123018000D02*
X150482000Y-125100000D01*
D21*
X146900000Y-126900000D02*
X149300000Y-126900000D01*
D22*
X151000000Y-122500000D02*
X150482000Y-123018000D01*
D21*
X145682000Y-125100000D02*
X145682000Y-125682000D01*
X145682000Y-125682000D02*
X146900000Y-126900000D01*
X150482000Y-125718000D02*
X150482000Y-125100000D01*
X149300000Y-126900000D02*
X150482000Y-125718000D01*
X140950000Y-125100000D02*
X140950000Y-124010000D01*
X140950000Y-124010000D02*
X139960000Y-124010000D01*
X147382000Y-126020000D02*
X147332000Y-125970000D01*
X148282000Y-126020000D02*
X148332000Y-125970000D01*
X148322396Y-126152010D02*
X148190386Y-126020000D01*
X147332000Y-125970000D02*
X147332000Y-125100000D01*
X139627099Y-99572901D02*
X139900000Y-99300000D01*
X148282000Y-126111614D02*
X148282000Y-126020000D01*
X148332000Y-125970000D02*
X148332000Y-125100000D01*
X139627099Y-99650000D02*
X139627099Y-99572901D01*
X139900000Y-97478984D02*
X138941016Y-96520000D01*
X148190386Y-126020000D02*
X147382000Y-126020000D01*
X138941016Y-96520000D02*
X137040000Y-96520000D01*
X139900000Y-99300000D02*
X139900000Y-97478984D01*
X148322396Y-126152010D02*
X148282000Y-126111614D01*
X155050000Y-125100000D02*
X155050000Y-123800000D01*
X146832000Y-124112000D02*
X146832000Y-125100000D01*
X146020000Y-123300000D02*
X146832000Y-124112000D01*
X149500000Y-123310000D02*
X149832000Y-123642000D01*
X149832000Y-123642000D02*
X149832000Y-125100000D01*
X148782000Y-124180000D02*
X148832000Y-124230000D01*
X138750000Y-99571016D02*
X137290000Y-98111016D01*
X147675559Y-123900000D02*
X147675559Y-124073559D01*
X148832000Y-124230000D02*
X148832000Y-125100000D01*
X137290000Y-98040000D02*
X137040000Y-97790000D01*
X147675559Y-124073559D02*
X147832000Y-124230000D01*
X138850000Y-100400000D02*
X138850000Y-110070000D01*
X137290000Y-98111016D02*
X137290000Y-98040000D01*
X147955559Y-124180000D02*
X148782000Y-124180000D01*
X138750000Y-100300000D02*
X138850000Y-100400000D01*
X147675559Y-123900000D02*
X147955559Y-124180000D01*
X138750000Y-100300000D02*
X138750000Y-99571016D01*
X138850000Y-110070000D02*
X134112000Y-114808000D01*
X147832000Y-124230000D02*
X147832000Y-125100000D01*
X141950000Y-116450000D02*
X141325000Y-117075000D01*
X142750000Y-117250000D02*
X142750000Y-118515000D01*
X147454000Y-101346000D02*
X147454000Y-110946000D01*
X141325000Y-117075000D02*
X136862000Y-121538000D01*
X141950000Y-116450000D02*
X142750000Y-117250000D01*
X136862000Y-127298000D02*
X134112000Y-130048000D01*
X136862000Y-121538000D02*
X136862000Y-127298000D01*
X147454000Y-110946000D02*
X141950000Y-116450000D01*
G04 #@! TA.AperFunction,Conductor*
G36*
X163334691Y-80319407D02*
G01*
X163370655Y-80368907D01*
X163375500Y-80399500D01*
X163375500Y-131280500D01*
X163356593Y-131338691D01*
X163307093Y-131374655D01*
X163276500Y-131379500D01*
X132887500Y-131379500D01*
X132829309Y-131360593D01*
X132793345Y-131311093D01*
X132788500Y-131280500D01*
X132788500Y-117347996D01*
X133056417Y-117347996D01*
X133056417Y-117348003D01*
X133076698Y-117553929D01*
X133076699Y-117553934D01*
X133136768Y-117751954D01*
X133234316Y-117934452D01*
X133354061Y-118080362D01*
X133365590Y-118094410D01*
X133365595Y-118094414D01*
X133525547Y-118225683D01*
X133525548Y-118225683D01*
X133525550Y-118225685D01*
X133708046Y-118323232D01*
X133845997Y-118365078D01*
X133906065Y-118383300D01*
X133906070Y-118383301D01*
X134111997Y-118403583D01*
X134112000Y-118403583D01*
X134112003Y-118403583D01*
X134317929Y-118383301D01*
X134317934Y-118383300D01*
X134515954Y-118323232D01*
X134698450Y-118225685D01*
X134858410Y-118094410D01*
X134989685Y-117934450D01*
X135087232Y-117751954D01*
X135097300Y-117718762D01*
X135132284Y-117668566D01*
X135190092Y-117648519D01*
X135192037Y-117648500D01*
X136887520Y-117648500D01*
X136945711Y-117667407D01*
X136981675Y-117716907D01*
X136981675Y-117778093D01*
X136957524Y-117817504D01*
X135251447Y-119523581D01*
X135196930Y-119551358D01*
X135136498Y-119541787D01*
X135093233Y-119498522D01*
X135089194Y-119488491D01*
X135089091Y-119488535D01*
X135087232Y-119484047D01*
X135087232Y-119484046D01*
X134989685Y-119301550D01*
X134980891Y-119290835D01*
X134858414Y-119141595D01*
X134858410Y-119141590D01*
X134819797Y-119109901D01*
X134698452Y-119010316D01*
X134515954Y-118912768D01*
X134317934Y-118852699D01*
X134317929Y-118852698D01*
X134112003Y-118832417D01*
X134111997Y-118832417D01*
X133906070Y-118852698D01*
X133906065Y-118852699D01*
X133708045Y-118912768D01*
X133525547Y-119010316D01*
X133365595Y-119141585D01*
X133365585Y-119141595D01*
X133234316Y-119301547D01*
X133136768Y-119484045D01*
X133076699Y-119682065D01*
X133076698Y-119682070D01*
X133056417Y-119887996D01*
X133056417Y-119888003D01*
X133076698Y-120093929D01*
X133076699Y-120093934D01*
X133136768Y-120291954D01*
X133234316Y-120474452D01*
X133365585Y-120634404D01*
X133365590Y-120634410D01*
X133365595Y-120634414D01*
X133525547Y-120765683D01*
X133525548Y-120765683D01*
X133525550Y-120765685D01*
X133708046Y-120863232D01*
X133845997Y-120905078D01*
X133906065Y-120923300D01*
X133906070Y-120923301D01*
X134111997Y-120943583D01*
X134112000Y-120943583D01*
X134112003Y-120943583D01*
X134317929Y-120923301D01*
X134317934Y-120923300D01*
X134515954Y-120863232D01*
X134698450Y-120765685D01*
X134858410Y-120634410D01*
X134989685Y-120474450D01*
X135087232Y-120291954D01*
X135089035Y-120286012D01*
X135097300Y-120258763D01*
X135132284Y-120208566D01*
X135190092Y-120188519D01*
X135192037Y-120188500D01*
X135263086Y-120188500D01*
X135321277Y-120207407D01*
X135357241Y-120256907D01*
X135360459Y-120291949D01*
X135361500Y-120291949D01*
X135361500Y-120712520D01*
X135342593Y-120770711D01*
X135332504Y-120782524D01*
X134663215Y-121451812D01*
X134608698Y-121479589D01*
X134548266Y-121470018D01*
X134546583Y-121469139D01*
X134515954Y-121452768D01*
X134515947Y-121452766D01*
X134317934Y-121392699D01*
X134317929Y-121392698D01*
X134112003Y-121372417D01*
X134111997Y-121372417D01*
X133906070Y-121392698D01*
X133906065Y-121392699D01*
X133708045Y-121452768D01*
X133525547Y-121550316D01*
X133365595Y-121681585D01*
X133365585Y-121681595D01*
X133234316Y-121841547D01*
X133136768Y-122024045D01*
X133076699Y-122222065D01*
X133076698Y-122222070D01*
X133056417Y-122427996D01*
X133056417Y-122428003D01*
X133076698Y-122633929D01*
X133076699Y-122633934D01*
X133136768Y-122831954D01*
X133234316Y-123014452D01*
X133333809Y-123135685D01*
X133365590Y-123174410D01*
X133365595Y-123174414D01*
X133525547Y-123305683D01*
X133525548Y-123305683D01*
X133525550Y-123305685D01*
X133708046Y-123403232D01*
X133804475Y-123432483D01*
X133906065Y-123463300D01*
X133906070Y-123463301D01*
X134111997Y-123483583D01*
X134112000Y-123483583D01*
X134112003Y-123483583D01*
X134317929Y-123463301D01*
X134317934Y-123463300D01*
X134327164Y-123460500D01*
X134515954Y-123403232D01*
X134698450Y-123305685D01*
X134858410Y-123174410D01*
X134989685Y-123014450D01*
X135087232Y-122831954D01*
X135147300Y-122633934D01*
X135147301Y-122633929D01*
X135167583Y-122428003D01*
X135167583Y-122427996D01*
X135147301Y-122222070D01*
X135147300Y-122222065D01*
X135115049Y-122115749D01*
X135087232Y-122024046D01*
X135070880Y-121993453D01*
X135060125Y-121933223D01*
X135086826Y-121878172D01*
X135088187Y-121876783D01*
X135370758Y-121594212D01*
X135592497Y-121372473D01*
X135647013Y-121344697D01*
X135707445Y-121354268D01*
X135750710Y-121397533D01*
X135761500Y-121442478D01*
X135761500Y-122852520D01*
X135742593Y-122910711D01*
X135732504Y-122922524D01*
X134663215Y-123991812D01*
X134608698Y-124019589D01*
X134548266Y-124010018D01*
X134546583Y-124009139D01*
X134515954Y-123992768D01*
X134515947Y-123992766D01*
X134317934Y-123932699D01*
X134317929Y-123932698D01*
X134112003Y-123912417D01*
X134111997Y-123912417D01*
X133906070Y-123932698D01*
X133906065Y-123932699D01*
X133708045Y-123992768D01*
X133525547Y-124090316D01*
X133365595Y-124221585D01*
X133365585Y-124221595D01*
X133234316Y-124381547D01*
X133136768Y-124564045D01*
X133076699Y-124762065D01*
X133076698Y-124762070D01*
X133056417Y-124967996D01*
X133056417Y-124968003D01*
X133076698Y-125173929D01*
X133076699Y-125173934D01*
X133136768Y-125371954D01*
X133234316Y-125554452D01*
X133354174Y-125700500D01*
X133365590Y-125714410D01*
X133365595Y-125714414D01*
X133525547Y-125845683D01*
X133525548Y-125845683D01*
X133525550Y-125845685D01*
X133708046Y-125943232D01*
X133845997Y-125985078D01*
X133906065Y-126003300D01*
X133906070Y-126003301D01*
X134111997Y-126023583D01*
X134112000Y-126023583D01*
X134112003Y-126023583D01*
X134317929Y-126003301D01*
X134317934Y-126003300D01*
X134335851Y-125997865D01*
X134515954Y-125943232D01*
X134698450Y-125845685D01*
X134858410Y-125714410D01*
X134989685Y-125554450D01*
X135087232Y-125371954D01*
X135147300Y-125173934D01*
X135147301Y-125173929D01*
X135167583Y-124968003D01*
X135167583Y-124967996D01*
X135147301Y-124762070D01*
X135147300Y-124762065D01*
X135101489Y-124611047D01*
X135087232Y-124564046D01*
X135074937Y-124541043D01*
X135070881Y-124533454D01*
X135060125Y-124473221D01*
X135086827Y-124418170D01*
X135088136Y-124416833D01*
X135992497Y-123512473D01*
X136047013Y-123484697D01*
X136107445Y-123494268D01*
X136150710Y-123537533D01*
X136161500Y-123582478D01*
X136161500Y-124992520D01*
X136142593Y-125050711D01*
X136132504Y-125062524D01*
X134663215Y-126531812D01*
X134608698Y-126559589D01*
X134548266Y-126550018D01*
X134546583Y-126549139D01*
X134515954Y-126532768D01*
X134515947Y-126532766D01*
X134317934Y-126472699D01*
X134317929Y-126472698D01*
X134112003Y-126452417D01*
X134111997Y-126452417D01*
X133906070Y-126472698D01*
X133906065Y-126472699D01*
X133708045Y-126532768D01*
X133525547Y-126630316D01*
X133365595Y-126761585D01*
X133365585Y-126761595D01*
X133234316Y-126921547D01*
X133136768Y-127104045D01*
X133076699Y-127302065D01*
X133076698Y-127302070D01*
X133056417Y-127507996D01*
X133056417Y-127508003D01*
X133076698Y-127713929D01*
X133076699Y-127713934D01*
X133136768Y-127911954D01*
X133234316Y-128094452D01*
X133365585Y-128254404D01*
X133365590Y-128254410D01*
X133365595Y-128254414D01*
X133525547Y-128385683D01*
X133525548Y-128385683D01*
X133525550Y-128385685D01*
X133708046Y-128483232D01*
X133845997Y-128525078D01*
X133906065Y-128543300D01*
X133906070Y-128543301D01*
X134111997Y-128563583D01*
X134112000Y-128563583D01*
X134112003Y-128563583D01*
X134317929Y-128543301D01*
X134317934Y-128543300D01*
X134515954Y-128483232D01*
X134698450Y-128385685D01*
X134858410Y-128254410D01*
X134989685Y-128094450D01*
X135087232Y-127911954D01*
X135147300Y-127713934D01*
X135147301Y-127713929D01*
X135167583Y-127508003D01*
X135167583Y-127507996D01*
X135147301Y-127302070D01*
X135147300Y-127302065D01*
X135117105Y-127202525D01*
X135087232Y-127104046D01*
X135087229Y-127104040D01*
X135070881Y-127073454D01*
X135060125Y-127013221D01*
X135086827Y-126958170D01*
X135088136Y-126956833D01*
X136392497Y-125652473D01*
X136447013Y-125624697D01*
X136507445Y-125634268D01*
X136550710Y-125677533D01*
X136561500Y-125722478D01*
X136561500Y-127132520D01*
X136542593Y-127190711D01*
X136532504Y-127202524D01*
X134663215Y-129071812D01*
X134608698Y-129099589D01*
X134548266Y-129090018D01*
X134546583Y-129089139D01*
X134515954Y-129072768D01*
X134515947Y-129072766D01*
X134317934Y-129012699D01*
X134317929Y-129012698D01*
X134112003Y-128992417D01*
X134111997Y-128992417D01*
X133906070Y-129012698D01*
X133906065Y-129012699D01*
X133708045Y-129072768D01*
X133525547Y-129170316D01*
X133365595Y-129301585D01*
X133365585Y-129301595D01*
X133234316Y-129461547D01*
X133136768Y-129644045D01*
X133076699Y-129842065D01*
X133076698Y-129842070D01*
X133056417Y-130047996D01*
X133056417Y-130048003D01*
X133076698Y-130253929D01*
X133076699Y-130253934D01*
X133136768Y-130451954D01*
X133234316Y-130634452D01*
X133365585Y-130794404D01*
X133365590Y-130794410D01*
X133365595Y-130794414D01*
X133525547Y-130925683D01*
X133525548Y-130925683D01*
X133525550Y-130925685D01*
X133708046Y-131023232D01*
X133845997Y-131065078D01*
X133906065Y-131083300D01*
X133906070Y-131083301D01*
X134111997Y-131103583D01*
X134112000Y-131103583D01*
X134112003Y-131103583D01*
X134317929Y-131083301D01*
X134317934Y-131083300D01*
X134515954Y-131023232D01*
X134698450Y-130925685D01*
X134858410Y-130794410D01*
X134989685Y-130634450D01*
X135087232Y-130451954D01*
X135147300Y-130253934D01*
X135147301Y-130253929D01*
X135167583Y-130048003D01*
X135167583Y-130047996D01*
X135147301Y-129842070D01*
X135147300Y-129842065D01*
X135115745Y-129738043D01*
X135087232Y-129644046D01*
X135087229Y-129644040D01*
X135070881Y-129613454D01*
X135060125Y-129553221D01*
X135086827Y-129498170D01*
X135088137Y-129496832D01*
X135184968Y-129400001D01*
X139750001Y-129400001D01*
X139750001Y-129531485D01*
X139764833Y-129625141D01*
X139764836Y-129625151D01*
X139822358Y-129738043D01*
X139911956Y-129827641D01*
X140024848Y-129885163D01*
X140024852Y-129885164D01*
X140118515Y-129899999D01*
X140849998Y-129899999D01*
X140850000Y-129899998D01*
X140850000Y-129400001D01*
X141050000Y-129400001D01*
X141050000Y-129899998D01*
X141050001Y-129899999D01*
X141781483Y-129899999D01*
X141781485Y-129899998D01*
X141875141Y-129885166D01*
X141875151Y-129885163D01*
X141988043Y-129827641D01*
X142077641Y-129738043D01*
X142135163Y-129625151D01*
X142135164Y-129625147D01*
X142150000Y-129531484D01*
X142150000Y-129431055D01*
X143062000Y-129431055D01*
X143062000Y-129799999D01*
X143062001Y-129800000D01*
X143462000Y-129800000D01*
X143462000Y-130000000D01*
X143062001Y-130000000D01*
X143062000Y-130000001D01*
X143062000Y-130368944D01*
X143088901Y-130504183D01*
X143141666Y-130631571D01*
X143218271Y-130746220D01*
X143315779Y-130843728D01*
X143430428Y-130920333D01*
X143557817Y-130973098D01*
X143662000Y-130993822D01*
X143662000Y-130583788D01*
X143722504Y-130600000D01*
X143801496Y-130600000D01*
X143862000Y-130583788D01*
X143862000Y-130993821D01*
X143966181Y-130973098D01*
X143966183Y-130973098D01*
X144093571Y-130920333D01*
X144208220Y-130843728D01*
X144305728Y-130746220D01*
X144382333Y-130631571D01*
X144435098Y-130504183D01*
X144461999Y-130368944D01*
X144462000Y-130368942D01*
X144462000Y-130000001D01*
X144461999Y-130000000D01*
X144062000Y-130000000D01*
X144062000Y-129800000D01*
X144461999Y-129800000D01*
X144462000Y-129799999D01*
X144462000Y-129431057D01*
X144461999Y-129431055D01*
X151702000Y-129431055D01*
X151702000Y-129799999D01*
X151702001Y-129800000D01*
X152102000Y-129800000D01*
X152102000Y-130000000D01*
X151702001Y-130000000D01*
X151702000Y-130000001D01*
X151702000Y-130368944D01*
X151728901Y-130504183D01*
X151781666Y-130631571D01*
X151858271Y-130746220D01*
X151955779Y-130843728D01*
X152070428Y-130920333D01*
X152197817Y-130973098D01*
X152302000Y-130993822D01*
X152302000Y-130583788D01*
X152362504Y-130600000D01*
X152441496Y-130600000D01*
X152502000Y-130583788D01*
X152502000Y-130993821D01*
X152606181Y-130973098D01*
X152606183Y-130973098D01*
X152733571Y-130920333D01*
X152848220Y-130843728D01*
X152945728Y-130746220D01*
X153022333Y-130631571D01*
X153075098Y-130504183D01*
X153101999Y-130368944D01*
X153102000Y-130368942D01*
X153102000Y-130000001D01*
X153101999Y-130000000D01*
X152702000Y-130000000D01*
X152702000Y-129800000D01*
X153101999Y-129800000D01*
X153102000Y-129799999D01*
X153102000Y-129431057D01*
X153101999Y-129431055D01*
X153095822Y-129400001D01*
X153950001Y-129400001D01*
X153950001Y-129531485D01*
X153964833Y-129625141D01*
X153964836Y-129625151D01*
X154022358Y-129738043D01*
X154111956Y-129827641D01*
X154224848Y-129885163D01*
X154224852Y-129885164D01*
X154318515Y-129899999D01*
X155049998Y-129899999D01*
X155050000Y-129899998D01*
X155050000Y-129400001D01*
X155250000Y-129400001D01*
X155250000Y-129899998D01*
X155250001Y-129899999D01*
X155981483Y-129899999D01*
X155981485Y-129899998D01*
X156075141Y-129885166D01*
X156075151Y-129885163D01*
X156188043Y-129827641D01*
X156277641Y-129738043D01*
X156335163Y-129625151D01*
X156335164Y-129625147D01*
X156350000Y-129531484D01*
X156350000Y-129400001D01*
X156349999Y-129400000D01*
X155250001Y-129400000D01*
X155250000Y-129400001D01*
X155050000Y-129400001D01*
X155049999Y-129400000D01*
X153950002Y-129400000D01*
X153950001Y-129400001D01*
X153095822Y-129400001D01*
X153075098Y-129295816D01*
X153022333Y-129168428D01*
X152955574Y-129068515D01*
X153950000Y-129068515D01*
X153950000Y-129199999D01*
X153950001Y-129200000D01*
X155049999Y-129200000D01*
X155050000Y-129199999D01*
X155050000Y-128700001D01*
X155250000Y-128700001D01*
X155250000Y-129199999D01*
X155250001Y-129200000D01*
X156349998Y-129200000D01*
X156349999Y-129199999D01*
X156349999Y-129068516D01*
X156349998Y-129068514D01*
X156335166Y-128974858D01*
X156335163Y-128974848D01*
X156277641Y-128861956D01*
X156188043Y-128772358D01*
X156075151Y-128714836D01*
X156075147Y-128714835D01*
X155981484Y-128700000D01*
X155250001Y-128700000D01*
X155250000Y-128700001D01*
X155050000Y-128700001D01*
X155049999Y-128700000D01*
X154318516Y-128700000D01*
X154318514Y-128700001D01*
X154224858Y-128714833D01*
X154224848Y-128714836D01*
X154111956Y-128772358D01*
X154022358Y-128861956D01*
X153964836Y-128974848D01*
X153964835Y-128974852D01*
X153950000Y-129068515D01*
X152955574Y-129068515D01*
X152945728Y-129053779D01*
X152848220Y-128956271D01*
X152733571Y-128879666D01*
X152606182Y-128826901D01*
X152502000Y-128806177D01*
X152502000Y-129216211D01*
X152441496Y-129200000D01*
X152362504Y-129200000D01*
X152302000Y-129216211D01*
X152302000Y-128806177D01*
X152197817Y-128826901D01*
X152070428Y-128879666D01*
X151955779Y-128956271D01*
X151858271Y-129053779D01*
X151781666Y-129168428D01*
X151728901Y-129295816D01*
X151702000Y-129431055D01*
X144461999Y-129431055D01*
X144435098Y-129295816D01*
X144382333Y-129168428D01*
X144305728Y-129053779D01*
X144208220Y-128956271D01*
X144093571Y-128879666D01*
X143966182Y-128826901D01*
X143862000Y-128806177D01*
X143862000Y-129216211D01*
X143801496Y-129200000D01*
X143722504Y-129200000D01*
X143662000Y-129216211D01*
X143662000Y-128806177D01*
X143557817Y-128826901D01*
X143430428Y-128879666D01*
X143315779Y-128956271D01*
X143218271Y-129053779D01*
X143141666Y-129168428D01*
X143088901Y-129295816D01*
X143062000Y-129431055D01*
X142150000Y-129431055D01*
X142150000Y-129400001D01*
X142149999Y-129400000D01*
X141050001Y-129400000D01*
X141050000Y-129400001D01*
X140850000Y-129400001D01*
X140849999Y-129400000D01*
X139750002Y-129400000D01*
X139750001Y-129400001D01*
X135184968Y-129400001D01*
X135516454Y-129068515D01*
X139750000Y-129068515D01*
X139750000Y-129199999D01*
X139750001Y-129200000D01*
X140849999Y-129200000D01*
X140850000Y-129199999D01*
X140850000Y-128700001D01*
X141050000Y-128700001D01*
X141050000Y-129199999D01*
X141050001Y-129200000D01*
X142149998Y-129200000D01*
X142149999Y-129199999D01*
X142149999Y-129068516D01*
X142149998Y-129068514D01*
X142135166Y-128974858D01*
X142135163Y-128974848D01*
X142077641Y-128861956D01*
X141988043Y-128772358D01*
X141875151Y-128714836D01*
X141875147Y-128714835D01*
X141781484Y-128700000D01*
X141050001Y-128700000D01*
X141050000Y-128700001D01*
X140850000Y-128700001D01*
X140849999Y-128700000D01*
X140118516Y-128700000D01*
X140118514Y-128700001D01*
X140024858Y-128714833D01*
X140024848Y-128714836D01*
X139911956Y-128772358D01*
X139822358Y-128861956D01*
X139764836Y-128974848D01*
X139764835Y-128974852D01*
X139750000Y-129068515D01*
X135516454Y-129068515D01*
X137102460Y-127482511D01*
X137130420Y-127434082D01*
X137142021Y-127413989D01*
X137162500Y-127337562D01*
X137162500Y-124000000D01*
X139394750Y-124000000D01*
X139413670Y-124143709D01*
X139434262Y-124193424D01*
X139467908Y-124274655D01*
X139469139Y-124277625D01*
X139557379Y-124392621D01*
X139672375Y-124480861D01*
X139773004Y-124522542D01*
X139819530Y-124562278D01*
X139833814Y-124621773D01*
X139823329Y-124658951D01*
X139764354Y-124774696D01*
X139749500Y-124868477D01*
X139749500Y-125331520D01*
X139749501Y-125331523D01*
X139764352Y-125425299D01*
X139764354Y-125425304D01*
X139821950Y-125538342D01*
X139911658Y-125628050D01*
X140024696Y-125685646D01*
X140118481Y-125700500D01*
X141781518Y-125700499D01*
X141781521Y-125700499D01*
X141781522Y-125700498D01*
X141828411Y-125693072D01*
X141875299Y-125685647D01*
X141875299Y-125685646D01*
X141875304Y-125685646D01*
X141988342Y-125628050D01*
X142078050Y-125538342D01*
X142135646Y-125425304D01*
X142150500Y-125331519D01*
X142150499Y-125081055D01*
X143062000Y-125081055D01*
X143062000Y-125599999D01*
X143062001Y-125600000D01*
X143462000Y-125600000D01*
X143462000Y-125800000D01*
X143062001Y-125800000D01*
X143062000Y-125800001D01*
X143062000Y-126318944D01*
X143088901Y-126454183D01*
X143141666Y-126581571D01*
X143218271Y-126696220D01*
X143315779Y-126793728D01*
X143430428Y-126870333D01*
X143557817Y-126923098D01*
X143662000Y-126943822D01*
X143662000Y-126533788D01*
X143722504Y-126550000D01*
X143801496Y-126550000D01*
X143862000Y-126533788D01*
X143862000Y-126943821D01*
X143966181Y-126923098D01*
X143966183Y-126923098D01*
X144093571Y-126870333D01*
X144208220Y-126793728D01*
X144305728Y-126696220D01*
X144382333Y-126581571D01*
X144435098Y-126454183D01*
X144435098Y-126454181D01*
X144447639Y-126391137D01*
X144477535Y-126337753D01*
X144533100Y-126312137D01*
X144593110Y-126324074D01*
X144634643Y-126369003D01*
X144640364Y-126384828D01*
X144655720Y-126442139D01*
X144731481Y-126573360D01*
X144731483Y-126573362D01*
X144731485Y-126573365D01*
X144838635Y-126680515D01*
X144838637Y-126680516D01*
X144838639Y-126680518D01*
X144969861Y-126756279D01*
X144969859Y-126756279D01*
X144969863Y-126756280D01*
X144969865Y-126756281D01*
X145116234Y-126795500D01*
X145116236Y-126795500D01*
X145267764Y-126795500D01*
X145267766Y-126795500D01*
X145414135Y-126756281D01*
X145414137Y-126756279D01*
X145414139Y-126756279D01*
X145545360Y-126680518D01*
X145545360Y-126680517D01*
X145545365Y-126680515D01*
X145652515Y-126573365D01*
X145728281Y-126442135D01*
X145744948Y-126379929D01*
X145778270Y-126328617D01*
X145835391Y-126306689D01*
X145894492Y-126322524D01*
X145910578Y-126335549D01*
X146659540Y-127084511D01*
X146659539Y-127084511D01*
X146715489Y-127140460D01*
X146784007Y-127180019D01*
X146784011Y-127180021D01*
X146860435Y-127200499D01*
X146860437Y-127200500D01*
X146860438Y-127200500D01*
X149339563Y-127200500D01*
X149339563Y-127200499D01*
X149415989Y-127180021D01*
X149484511Y-127140460D01*
X149540460Y-127084511D01*
X150261030Y-126363940D01*
X150315545Y-126336165D01*
X150375977Y-126345736D01*
X150419242Y-126389001D01*
X150426658Y-126408322D01*
X150435718Y-126442134D01*
X150435720Y-126442138D01*
X150511481Y-126573360D01*
X150511483Y-126573362D01*
X150511485Y-126573365D01*
X150618635Y-126680515D01*
X150618637Y-126680516D01*
X150618639Y-126680518D01*
X150749861Y-126756279D01*
X150749859Y-126756279D01*
X150749863Y-126756280D01*
X150749865Y-126756281D01*
X150896234Y-126795500D01*
X150896236Y-126795500D01*
X151047764Y-126795500D01*
X151047766Y-126795500D01*
X151194135Y-126756281D01*
X151194137Y-126756279D01*
X151194139Y-126756279D01*
X151325360Y-126680518D01*
X151325360Y-126680517D01*
X151325365Y-126680515D01*
X151432515Y-126573365D01*
X151508281Y-126442135D01*
X151523636Y-126384826D01*
X151556958Y-126333514D01*
X151614079Y-126311587D01*
X151673180Y-126327422D01*
X151711686Y-126374971D01*
X151716360Y-126391136D01*
X151728901Y-126454183D01*
X151781666Y-126581571D01*
X151858271Y-126696220D01*
X151955779Y-126793728D01*
X152070428Y-126870333D01*
X152197817Y-126923098D01*
X152302000Y-126943822D01*
X152302000Y-126533788D01*
X152362504Y-126550000D01*
X152441496Y-126550000D01*
X152502000Y-126533788D01*
X152502000Y-126943821D01*
X152606181Y-126923098D01*
X152606183Y-126923098D01*
X152733571Y-126870333D01*
X152848220Y-126793728D01*
X152945728Y-126696220D01*
X153022333Y-126581571D01*
X153075098Y-126454183D01*
X153101999Y-126318944D01*
X153102000Y-126318942D01*
X153102000Y-125800001D01*
X153101999Y-125800000D01*
X152702000Y-125800000D01*
X152702000Y-125600000D01*
X153101999Y-125600000D01*
X153102000Y-125599999D01*
X153102000Y-125081057D01*
X153101999Y-125081055D01*
X153075098Y-124945816D01*
X153043064Y-124868477D01*
X153949500Y-124868477D01*
X153949500Y-125331520D01*
X153949501Y-125331523D01*
X153964352Y-125425299D01*
X153964354Y-125425304D01*
X154021950Y-125538342D01*
X154111658Y-125628050D01*
X154224696Y-125685646D01*
X154318481Y-125700500D01*
X155981518Y-125700499D01*
X155981521Y-125700499D01*
X155981522Y-125700498D01*
X156028411Y-125693072D01*
X156075299Y-125685647D01*
X156075299Y-125685646D01*
X156075304Y-125685646D01*
X156188342Y-125628050D01*
X156278050Y-125538342D01*
X156335646Y-125425304D01*
X156350500Y-125331519D01*
X156350499Y-124868482D01*
X156335646Y-124774696D01*
X156278050Y-124661658D01*
X156188342Y-124571950D01*
X156075304Y-124514354D01*
X156075305Y-124514354D01*
X155981522Y-124499500D01*
X155981519Y-124499500D01*
X155449500Y-124499500D01*
X155391309Y-124480593D01*
X155355345Y-124431093D01*
X155350500Y-124400500D01*
X155350500Y-124312129D01*
X155369407Y-124253938D01*
X155389233Y-124233587D01*
X155404874Y-124221585D01*
X155442621Y-124192621D01*
X155530861Y-124077625D01*
X155586330Y-123943709D01*
X155605250Y-123800000D01*
X155603515Y-123786825D01*
X155586330Y-123656291D01*
X155530861Y-123522375D01*
X155442621Y-123407379D01*
X155327625Y-123319139D01*
X155327621Y-123319137D01*
X155193709Y-123263670D01*
X155193708Y-123263669D01*
X155050000Y-123244750D01*
X154906291Y-123263669D01*
X154906290Y-123263670D01*
X154772378Y-123319137D01*
X154772374Y-123319139D01*
X154657381Y-123407377D01*
X154657377Y-123407381D01*
X154569139Y-123522374D01*
X154569137Y-123522378D01*
X154513670Y-123656290D01*
X154513669Y-123656291D01*
X154494750Y-123799999D01*
X154494750Y-123800000D01*
X154513669Y-123943708D01*
X154513670Y-123943709D01*
X154566990Y-124072438D01*
X154569139Y-124077625D01*
X154657379Y-124192621D01*
X154657383Y-124192624D01*
X154657384Y-124192625D01*
X154710767Y-124233587D01*
X154745423Y-124284011D01*
X154749500Y-124312129D01*
X154749500Y-124400500D01*
X154730593Y-124458691D01*
X154681093Y-124494655D01*
X154650500Y-124499500D01*
X154318479Y-124499500D01*
X154318476Y-124499501D01*
X154224700Y-124514352D01*
X154224695Y-124514354D01*
X154111659Y-124571949D01*
X154021949Y-124661659D01*
X153964354Y-124774695D01*
X153949500Y-124868477D01*
X153043064Y-124868477D01*
X153022333Y-124818428D01*
X152945728Y-124703779D01*
X152848220Y-124606271D01*
X152733571Y-124529666D01*
X152606182Y-124476901D01*
X152502000Y-124456177D01*
X152502000Y-124866211D01*
X152441496Y-124850000D01*
X152362504Y-124850000D01*
X152302000Y-124866211D01*
X152302000Y-124456177D01*
X152197817Y-124476901D01*
X152070428Y-124529666D01*
X151955779Y-124606271D01*
X151951004Y-124611047D01*
X151896487Y-124638824D01*
X151836055Y-124629253D01*
X151792790Y-124585988D01*
X151782000Y-124541043D01*
X151782000Y-124460302D01*
X151781999Y-124460299D01*
X151770396Y-124401963D01*
X151726193Y-124335810D01*
X151726189Y-124335806D01*
X151660036Y-124291603D01*
X151601700Y-124280000D01*
X151382001Y-124280000D01*
X151382000Y-124280001D01*
X151382000Y-125101000D01*
X151363093Y-125159191D01*
X151313593Y-125195155D01*
X151283000Y-125200000D01*
X151081500Y-125200000D01*
X151023309Y-125181093D01*
X150987345Y-125131593D01*
X150982500Y-125101000D01*
X150982500Y-125099000D01*
X151001407Y-125040809D01*
X151050907Y-125004845D01*
X151081500Y-125000000D01*
X151181999Y-125000000D01*
X151182000Y-124999999D01*
X151182000Y-124280001D01*
X151181999Y-124280000D01*
X150962296Y-124280000D01*
X150950809Y-124282285D01*
X150890048Y-124275090D01*
X150845120Y-124233555D01*
X150832500Y-124185186D01*
X150832500Y-123204188D01*
X150851407Y-123145997D01*
X150861485Y-123134196D01*
X150966187Y-123029493D01*
X151020702Y-123001718D01*
X151036189Y-123000499D01*
X151149175Y-123000499D01*
X151149178Y-123000499D01*
X151194760Y-122994499D01*
X151194761Y-122994499D01*
X151260019Y-122964068D01*
X151294799Y-122947850D01*
X151372850Y-122869799D01*
X151419499Y-122769760D01*
X151425500Y-122724179D01*
X151425499Y-122289475D01*
X151444406Y-122231285D01*
X151493906Y-122195321D01*
X151555091Y-122195321D01*
X151594503Y-122219473D01*
X151984484Y-122609455D01*
X152005707Y-122644653D01*
X152006051Y-122644486D01*
X152007955Y-122648380D01*
X152009064Y-122650220D01*
X152009424Y-122651387D01*
X152009427Y-122651393D01*
X152060802Y-122756483D01*
X152143517Y-122839198D01*
X152170768Y-122852520D01*
X152248604Y-122890572D01*
X152248605Y-122890572D01*
X152248607Y-122890573D01*
X152316740Y-122900500D01*
X152316743Y-122900500D01*
X153408257Y-122900500D01*
X153408260Y-122900500D01*
X153476393Y-122890573D01*
X153581483Y-122839198D01*
X153664198Y-122756483D01*
X153715573Y-122651393D01*
X153725500Y-122583260D01*
X153725500Y-122216740D01*
X154274500Y-122216740D01*
X154274500Y-122583260D01*
X154278317Y-122609455D01*
X154284427Y-122651395D01*
X154323932Y-122732203D01*
X154335802Y-122756483D01*
X154418517Y-122839198D01*
X154445768Y-122852520D01*
X154523604Y-122890572D01*
X154523605Y-122890572D01*
X154523607Y-122890573D01*
X154591740Y-122900500D01*
X154591743Y-122900500D01*
X155683257Y-122900500D01*
X155683260Y-122900500D01*
X155751393Y-122890573D01*
X155856483Y-122839198D01*
X155939198Y-122756483D01*
X155990573Y-122651393D01*
X156000500Y-122583260D01*
X156000500Y-122216740D01*
X155990573Y-122148607D01*
X155974508Y-122115746D01*
X155950658Y-122066959D01*
X155939198Y-122043517D01*
X155856483Y-121960802D01*
X155856481Y-121960801D01*
X155751395Y-121909427D01*
X155724139Y-121905456D01*
X155683260Y-121899500D01*
X154591740Y-121899500D01*
X154557673Y-121904463D01*
X154523604Y-121909427D01*
X154418518Y-121960801D01*
X154335801Y-122043518D01*
X154284427Y-122148604D01*
X154284427Y-122148607D01*
X154274500Y-122216740D01*
X153725500Y-122216740D01*
X153715573Y-122148607D01*
X153699508Y-122115746D01*
X153675658Y-122066959D01*
X153664198Y-122043517D01*
X153615329Y-121994648D01*
X153587554Y-121940134D01*
X153597125Y-121879702D01*
X153615331Y-121854643D01*
X153663786Y-121806187D01*
X153715087Y-121701248D01*
X153725000Y-121633215D01*
X153725000Y-121550001D01*
X153724999Y-121550000D01*
X152000002Y-121550000D01*
X151993272Y-121556729D01*
X151981094Y-121594212D01*
X151931594Y-121630176D01*
X151870408Y-121630176D01*
X151830997Y-121606025D01*
X151329496Y-121104524D01*
X151301719Y-121050007D01*
X151300500Y-121034520D01*
X151300500Y-120883156D01*
X151319407Y-120824965D01*
X151329490Y-120813158D01*
X151363154Y-120779494D01*
X151417669Y-120751719D01*
X151433156Y-120750500D01*
X151947191Y-120750500D01*
X152005382Y-120769407D01*
X152036131Y-120806018D01*
X152060802Y-120856483D01*
X152109670Y-120905351D01*
X152137446Y-120959866D01*
X152127875Y-121020298D01*
X152109669Y-121045357D01*
X152061213Y-121093812D01*
X152009912Y-121198751D01*
X152000000Y-121266784D01*
X152000000Y-121349999D01*
X152000001Y-121350000D01*
X153724998Y-121350000D01*
X153724999Y-121349999D01*
X153724999Y-121266786D01*
X153724998Y-121266783D01*
X153715087Y-121198749D01*
X153663785Y-121093811D01*
X153615331Y-121045357D01*
X153587554Y-120990840D01*
X153597125Y-120930408D01*
X153615328Y-120905352D01*
X153664198Y-120856483D01*
X153715573Y-120751393D01*
X153725500Y-120683260D01*
X153725500Y-120316740D01*
X153715573Y-120248607D01*
X153700360Y-120217489D01*
X153679990Y-120175821D01*
X153664198Y-120143517D01*
X153581483Y-120060802D01*
X153581481Y-120060801D01*
X153476395Y-120009427D01*
X153449139Y-120005456D01*
X153408260Y-119999500D01*
X153408257Y-119999500D01*
X152969500Y-119999500D01*
X152911309Y-119980593D01*
X152875345Y-119931093D01*
X152870500Y-119900500D01*
X152870500Y-119382047D01*
X152889407Y-119323856D01*
X152899490Y-119312049D01*
X152930352Y-119281187D01*
X152984867Y-119253412D01*
X153045299Y-119262983D01*
X153070358Y-119281189D01*
X153141978Y-119352809D01*
X153250638Y-119403478D01*
X153250645Y-119403480D01*
X153300161Y-119410000D01*
X153379999Y-119410000D01*
X153380000Y-119409999D01*
X153380000Y-119000001D01*
X153580000Y-119000001D01*
X153580000Y-119409999D01*
X153580001Y-119410000D01*
X153659838Y-119410000D01*
X153709354Y-119403480D01*
X153709361Y-119403478D01*
X153818021Y-119352809D01*
X153879996Y-119290835D01*
X153934513Y-119263058D01*
X153994945Y-119272629D01*
X154020004Y-119290835D01*
X154081978Y-119352809D01*
X154190638Y-119403478D01*
X154190645Y-119403480D01*
X154240161Y-119410000D01*
X154319999Y-119410000D01*
X154320000Y-119409999D01*
X154320000Y-119000001D01*
X154319999Y-119000000D01*
X153580001Y-119000000D01*
X153580000Y-119000001D01*
X153380000Y-119000001D01*
X153380000Y-118390001D01*
X153379999Y-118390000D01*
X153300161Y-118390000D01*
X153250645Y-118396519D01*
X153250638Y-118396521D01*
X153141978Y-118447190D01*
X153070358Y-118518811D01*
X153015841Y-118546588D01*
X152955409Y-118537017D01*
X152930353Y-118518813D01*
X152858316Y-118446776D01*
X152858314Y-118446775D01*
X152858313Y-118446774D01*
X152749489Y-118396029D01*
X152749488Y-118396028D01*
X152732958Y-118393852D01*
X152699901Y-118389500D01*
X152699899Y-118389500D01*
X152340104Y-118389500D01*
X152340092Y-118389501D01*
X152290513Y-118396027D01*
X152290511Y-118396027D01*
X152181686Y-118446774D01*
X152096774Y-118531686D01*
X152046029Y-118640510D01*
X152046028Y-118640511D01*
X152039500Y-118690100D01*
X152039500Y-119109896D01*
X152039501Y-119109907D01*
X152046027Y-119159486D01*
X152046027Y-119159488D01*
X152096774Y-119268313D01*
X152096775Y-119268314D01*
X152096776Y-119268316D01*
X152140505Y-119312045D01*
X152168281Y-119366560D01*
X152169500Y-119382047D01*
X152169500Y-119950500D01*
X152150593Y-120008691D01*
X152101093Y-120044655D01*
X152070500Y-120049500D01*
X151433156Y-120049500D01*
X151374965Y-120030593D01*
X151363158Y-120020509D01*
X151294799Y-119952150D01*
X151194760Y-119905501D01*
X151149179Y-119899500D01*
X151149177Y-119899500D01*
X150850826Y-119899500D01*
X150850814Y-119899501D01*
X150805240Y-119905500D01*
X150805238Y-119905500D01*
X150705203Y-119952148D01*
X150627150Y-120030201D01*
X150580501Y-120130240D01*
X150580501Y-120130241D01*
X150574500Y-120175822D01*
X150574500Y-120624173D01*
X150574501Y-120624185D01*
X150580500Y-120669759D01*
X150580500Y-120669761D01*
X150627148Y-120769796D01*
X150627149Y-120769797D01*
X150627150Y-120769799D01*
X150670505Y-120813154D01*
X150698281Y-120867669D01*
X150699500Y-120883156D01*
X150699500Y-121239563D01*
X150719977Y-121315984D01*
X150719978Y-121315986D01*
X150719979Y-121315988D01*
X150752558Y-121372417D01*
X150759412Y-121384288D01*
X150759540Y-121384510D01*
X151205526Y-121830497D01*
X151233303Y-121885013D01*
X151223732Y-121945445D01*
X151180467Y-121988710D01*
X151135522Y-121999500D01*
X150850826Y-121999500D01*
X150850814Y-121999501D01*
X150805240Y-122005500D01*
X150805238Y-122005500D01*
X150705203Y-122052148D01*
X150705201Y-122052150D01*
X150627150Y-122130201D01*
X150580501Y-122230240D01*
X150580364Y-122231285D01*
X150574500Y-122275822D01*
X150574500Y-122388810D01*
X150555593Y-122447001D01*
X150545504Y-122458813D01*
X150201530Y-122802787D01*
X150176620Y-122845931D01*
X150176621Y-122845932D01*
X150155385Y-122882713D01*
X150138608Y-122945325D01*
X150105284Y-122996639D01*
X150048162Y-123018565D01*
X149989062Y-123002729D01*
X149970809Y-122985100D01*
X149970189Y-122985721D01*
X149964065Y-122979597D01*
X149964065Y-122979596D01*
X149880404Y-122895935D01*
X149880402Y-122895934D01*
X149880401Y-122895933D01*
X149866490Y-122889446D01*
X149821743Y-122847717D01*
X149810070Y-122787655D01*
X149835930Y-122732203D01*
X149866497Y-122709997D01*
X149880110Y-122703649D01*
X149963650Y-122620109D01*
X150013574Y-122513047D01*
X150013576Y-122513040D01*
X150020000Y-122464253D01*
X150020000Y-122390001D01*
X150019999Y-122390000D01*
X148980002Y-122390000D01*
X148980001Y-122390001D01*
X148980001Y-122464260D01*
X148986422Y-122513041D01*
X149036349Y-122620109D01*
X149119888Y-122703648D01*
X149133504Y-122709997D01*
X149178253Y-122751725D01*
X149189929Y-122811785D01*
X149164073Y-122867239D01*
X149133510Y-122889446D01*
X149119597Y-122895934D01*
X149035933Y-122979598D01*
X148985932Y-123086824D01*
X148985932Y-123086825D01*
X148985932Y-123086827D01*
X148979500Y-123135684D01*
X148979500Y-123484316D01*
X148983153Y-123512066D01*
X148985932Y-123533174D01*
X148985932Y-123533175D01*
X149035933Y-123640401D01*
X149035934Y-123640402D01*
X149035935Y-123640404D01*
X149119596Y-123724065D01*
X149119597Y-123724065D01*
X149119598Y-123724066D01*
X149226824Y-123774067D01*
X149226825Y-123774067D01*
X149226827Y-123774068D01*
X149275684Y-123780500D01*
X149432500Y-123780500D01*
X149490691Y-123799407D01*
X149526655Y-123848907D01*
X149531500Y-123879500D01*
X149531500Y-124180500D01*
X149512593Y-124238691D01*
X149463093Y-124274655D01*
X149432500Y-124279500D01*
X149231046Y-124279500D01*
X149172855Y-124260593D01*
X149136891Y-124211093D01*
X149132893Y-124193424D01*
X149132500Y-124190444D01*
X149132500Y-124190438D01*
X149119979Y-124143709D01*
X149119979Y-124143708D01*
X149119979Y-124143707D01*
X149112021Y-124114010D01*
X149112020Y-124114008D01*
X149072463Y-124045493D01*
X149072461Y-124045491D01*
X149072460Y-124045489D01*
X148966511Y-123939540D01*
X148945638Y-123927489D01*
X148919531Y-123912416D01*
X148919530Y-123912416D01*
X148897988Y-123899978D01*
X148821564Y-123879500D01*
X148821562Y-123879500D01*
X148314930Y-123879500D01*
X148256739Y-123860593D01*
X148220775Y-123811093D01*
X148216777Y-123793421D01*
X148212912Y-123764066D01*
X148211889Y-123756291D01*
X148156420Y-123622375D01*
X148068180Y-123507379D01*
X147953184Y-123419139D01*
X147953180Y-123419137D01*
X147819268Y-123363670D01*
X147819267Y-123363669D01*
X147675559Y-123344750D01*
X147531850Y-123363669D01*
X147531849Y-123363670D01*
X147397937Y-123419137D01*
X147397933Y-123419139D01*
X147282940Y-123507377D01*
X147282936Y-123507381D01*
X147194698Y-123622374D01*
X147194696Y-123622378D01*
X147139229Y-123756290D01*
X147137748Y-123767540D01*
X147111406Y-123822765D01*
X147057634Y-123851959D01*
X146996972Y-123843971D01*
X146969591Y-123824620D01*
X146519496Y-123374525D01*
X146491719Y-123320008D01*
X146490500Y-123304521D01*
X146490500Y-123075685D01*
X146484084Y-123026952D01*
X146484068Y-123026827D01*
X146480215Y-123018565D01*
X146434066Y-122919598D01*
X146434065Y-122919597D01*
X146434065Y-122919596D01*
X146350404Y-122835935D01*
X146350402Y-122835934D01*
X146350401Y-122835933D01*
X146243175Y-122785932D01*
X146210601Y-122781644D01*
X146194316Y-122779500D01*
X145845684Y-122779500D01*
X145829398Y-122781644D01*
X145796825Y-122785932D01*
X145796824Y-122785932D01*
X145689598Y-122835933D01*
X145605934Y-122919597D01*
X145599446Y-122933510D01*
X145557715Y-122978256D01*
X145497654Y-122989929D01*
X145442202Y-122964068D01*
X145419997Y-122933504D01*
X145413648Y-122919888D01*
X145330109Y-122836349D01*
X145223047Y-122786425D01*
X145223040Y-122786423D01*
X145174254Y-122780000D01*
X145100001Y-122780000D01*
X145100000Y-122780001D01*
X145100000Y-123819998D01*
X145100001Y-123819999D01*
X145174251Y-123819999D01*
X145174260Y-123819998D01*
X145223041Y-123813577D01*
X145330109Y-123763650D01*
X145413649Y-123680110D01*
X145419997Y-123666497D01*
X145461723Y-123621747D01*
X145521784Y-123610069D01*
X145577238Y-123635925D01*
X145599446Y-123666490D01*
X145605933Y-123680401D01*
X145605934Y-123680402D01*
X145605935Y-123680404D01*
X145689596Y-123764065D01*
X145689597Y-123764065D01*
X145689598Y-123764066D01*
X145796824Y-123814067D01*
X145796825Y-123814067D01*
X145796827Y-123814068D01*
X145845684Y-123820500D01*
X146074521Y-123820500D01*
X146132712Y-123839407D01*
X146144525Y-123849496D01*
X146405525Y-124110496D01*
X146433302Y-124165013D01*
X146423731Y-124225445D01*
X146380466Y-124268710D01*
X146335521Y-124279500D01*
X146162248Y-124279500D01*
X146101314Y-124291621D01*
X146062686Y-124291621D01*
X146001751Y-124279500D01*
X146001748Y-124279500D01*
X145362252Y-124279500D01*
X145362248Y-124279500D01*
X145300032Y-124291876D01*
X145261404Y-124291876D01*
X145201700Y-124280000D01*
X144982001Y-124280000D01*
X144982000Y-124280001D01*
X144982000Y-125101000D01*
X144963093Y-125159191D01*
X144913593Y-125195155D01*
X144883000Y-125200000D01*
X144438000Y-125200000D01*
X144379809Y-125181093D01*
X144343845Y-125131593D01*
X144339000Y-125101000D01*
X144339000Y-125099000D01*
X144357907Y-125040809D01*
X144407407Y-125004845D01*
X144438000Y-125000000D01*
X144781999Y-125000000D01*
X144782000Y-124999999D01*
X144782000Y-124280001D01*
X144781999Y-124280000D01*
X144562299Y-124280000D01*
X144503963Y-124291603D01*
X144437810Y-124335806D01*
X144437806Y-124335810D01*
X144393603Y-124401963D01*
X144382000Y-124460299D01*
X144382000Y-124541043D01*
X144363093Y-124599234D01*
X144313593Y-124635198D01*
X144252407Y-124635198D01*
X144212996Y-124611047D01*
X144208220Y-124606271D01*
X144093571Y-124529666D01*
X143966182Y-124476901D01*
X143862000Y-124456177D01*
X143862000Y-124866211D01*
X143801496Y-124850000D01*
X143722504Y-124850000D01*
X143662000Y-124866211D01*
X143662000Y-124456177D01*
X143557817Y-124476901D01*
X143430428Y-124529666D01*
X143315779Y-124606271D01*
X143218271Y-124703779D01*
X143141666Y-124818428D01*
X143088901Y-124945816D01*
X143062000Y-125081055D01*
X142150499Y-125081055D01*
X142150499Y-124868482D01*
X142135646Y-124774696D01*
X142078050Y-124661658D01*
X141988342Y-124571950D01*
X141875304Y-124514354D01*
X141875305Y-124514354D01*
X141781522Y-124499500D01*
X141781519Y-124499500D01*
X141492842Y-124499500D01*
X141434651Y-124480593D01*
X141398687Y-124431093D01*
X141398687Y-124369907D01*
X141411746Y-124343716D01*
X141414066Y-124340402D01*
X141464067Y-124233175D01*
X141464068Y-124233173D01*
X141470500Y-124184316D01*
X141470500Y-123835684D01*
X141464068Y-123786827D01*
X141458118Y-123774068D01*
X141414066Y-123679598D01*
X141414065Y-123679597D01*
X141414065Y-123679596D01*
X141330404Y-123595935D01*
X141317085Y-123589724D01*
X141272337Y-123547997D01*
X141260662Y-123487936D01*
X141286519Y-123432483D01*
X141317084Y-123410275D01*
X141330404Y-123404065D01*
X141334468Y-123400001D01*
X144530001Y-123400001D01*
X144530001Y-123524260D01*
X144536422Y-123573041D01*
X144586349Y-123680109D01*
X144669890Y-123763650D01*
X144776952Y-123813574D01*
X144776959Y-123813576D01*
X144825745Y-123819999D01*
X144899999Y-123819998D01*
X144900000Y-123819998D01*
X144900000Y-123400001D01*
X144899999Y-123400000D01*
X144530002Y-123400000D01*
X144530001Y-123400001D01*
X141334468Y-123400001D01*
X141414065Y-123320404D01*
X141464068Y-123213173D01*
X141470500Y-123164316D01*
X141470500Y-123075746D01*
X144530000Y-123075746D01*
X144530000Y-123199999D01*
X144530001Y-123200000D01*
X144899999Y-123200000D01*
X144900000Y-123199999D01*
X144900000Y-122779999D01*
X144825749Y-122780000D01*
X144825738Y-122780001D01*
X144776959Y-122786422D01*
X144669890Y-122836349D01*
X144586349Y-122919890D01*
X144536425Y-123026952D01*
X144536423Y-123026959D01*
X144530000Y-123075746D01*
X141470500Y-123075746D01*
X141470500Y-122815684D01*
X141464068Y-122766827D01*
X141459244Y-122756483D01*
X141414066Y-122659598D01*
X141414065Y-122659597D01*
X141414065Y-122659596D01*
X141330404Y-122575935D01*
X141330402Y-122575934D01*
X141330399Y-122575931D01*
X141323307Y-122570965D01*
X141325355Y-122568038D01*
X141292490Y-122537352D01*
X141280853Y-122477283D01*
X141306745Y-122421847D01*
X141318833Y-122410873D01*
X141342621Y-122392621D01*
X141430861Y-122277625D01*
X141486330Y-122143709D01*
X141490011Y-122115746D01*
X148980000Y-122115746D01*
X148980000Y-122189999D01*
X148980001Y-122190000D01*
X149399999Y-122190000D01*
X149400000Y-122189999D01*
X149400000Y-121820001D01*
X149600000Y-121820001D01*
X149600000Y-122189999D01*
X149600001Y-122190000D01*
X150019998Y-122190000D01*
X150019999Y-122189999D01*
X150019999Y-122115749D01*
X150019998Y-122115739D01*
X150013577Y-122066958D01*
X149963650Y-121959890D01*
X149880109Y-121876349D01*
X149773047Y-121826425D01*
X149773040Y-121826423D01*
X149724254Y-121820000D01*
X149600001Y-121820000D01*
X149600000Y-121820001D01*
X149400000Y-121820001D01*
X149399999Y-121820000D01*
X149275748Y-121820000D01*
X149275738Y-121820001D01*
X149226959Y-121826422D01*
X149119890Y-121876349D01*
X149036349Y-121959890D01*
X148986425Y-122066952D01*
X148986423Y-122066959D01*
X148980000Y-122115746D01*
X141490011Y-122115746D01*
X141505250Y-122000000D01*
X141504388Y-121993456D01*
X141486330Y-121856291D01*
X141430861Y-121722375D01*
X141342621Y-121607379D01*
X141227625Y-121519139D01*
X141227621Y-121519137D01*
X141093709Y-121463670D01*
X141093708Y-121463669D01*
X140950000Y-121444750D01*
X140806291Y-121463669D01*
X140806290Y-121463670D01*
X140672378Y-121519137D01*
X140672374Y-121519139D01*
X140557381Y-121607377D01*
X140557377Y-121607381D01*
X140469139Y-121722374D01*
X140469137Y-121722378D01*
X140413670Y-121856290D01*
X140413669Y-121856291D01*
X140394750Y-121999999D01*
X140394750Y-122000000D01*
X140413669Y-122143708D01*
X140413670Y-122143709D01*
X140468391Y-122275821D01*
X140469139Y-122277625D01*
X140557379Y-122392621D01*
X140557382Y-122392623D01*
X140557383Y-122392624D01*
X140581159Y-122410868D01*
X140615815Y-122461292D01*
X140614214Y-122522456D01*
X140576967Y-122570998D01*
X140575210Y-122572002D01*
X140569600Y-122575931D01*
X140485933Y-122659598D01*
X140435932Y-122766824D01*
X140435932Y-122766825D01*
X140433417Y-122785932D01*
X140429500Y-122815684D01*
X140429500Y-123164316D01*
X140433788Y-123196887D01*
X140435932Y-123213174D01*
X140435932Y-123213175D01*
X140485933Y-123320401D01*
X140485934Y-123320402D01*
X140485935Y-123320404D01*
X140569596Y-123404065D01*
X140569597Y-123404065D01*
X140569598Y-123404066D01*
X140582915Y-123410276D01*
X140627663Y-123452005D01*
X140639337Y-123512066D01*
X140613478Y-123567518D01*
X140582915Y-123589724D01*
X140569596Y-123595934D01*
X140516022Y-123649508D01*
X140461505Y-123677285D01*
X140401073Y-123667713D01*
X140367477Y-123639771D01*
X140342624Y-123607382D01*
X140342622Y-123607380D01*
X140342621Y-123607379D01*
X140227625Y-123519139D01*
X140227621Y-123519137D01*
X140093709Y-123463670D01*
X140093708Y-123463669D01*
X139950000Y-123444750D01*
X139806291Y-123463669D01*
X139806290Y-123463670D01*
X139672378Y-123519137D01*
X139672374Y-123519139D01*
X139557381Y-123607377D01*
X139557377Y-123607381D01*
X139469139Y-123722374D01*
X139469137Y-123722378D01*
X139413670Y-123856290D01*
X139413669Y-123856291D01*
X139402161Y-123943708D01*
X139394750Y-124000000D01*
X137162500Y-124000000D01*
X137162500Y-121703479D01*
X137181407Y-121645288D01*
X137191496Y-121633475D01*
X140509225Y-118315746D01*
X140980000Y-118315746D01*
X140980000Y-118389999D01*
X140980001Y-118390000D01*
X141399999Y-118390000D01*
X141400000Y-118389999D01*
X141400000Y-118020001D01*
X141600000Y-118020001D01*
X141600000Y-118389999D01*
X141600001Y-118390000D01*
X142019998Y-118390000D01*
X142019999Y-118389999D01*
X142019999Y-118315749D01*
X142019998Y-118315739D01*
X142013577Y-118266958D01*
X141963650Y-118159890D01*
X141880109Y-118076349D01*
X141773047Y-118026425D01*
X141773040Y-118026423D01*
X141724254Y-118020000D01*
X141600001Y-118020000D01*
X141600000Y-118020001D01*
X141400000Y-118020001D01*
X141399999Y-118020000D01*
X141275748Y-118020000D01*
X141275738Y-118020001D01*
X141226959Y-118026422D01*
X141119890Y-118076349D01*
X141036349Y-118159890D01*
X140986425Y-118266952D01*
X140986423Y-118266959D01*
X140980000Y-118315746D01*
X140509225Y-118315746D01*
X141879996Y-116944975D01*
X141934513Y-116917198D01*
X141994945Y-116926769D01*
X142020004Y-116944975D01*
X142420504Y-117345475D01*
X142448281Y-117399992D01*
X142449500Y-117415479D01*
X142449500Y-117980916D01*
X142430593Y-118039107D01*
X142393981Y-118069856D01*
X142372494Y-118080360D01*
X142372492Y-118080362D01*
X142372490Y-118080363D01*
X142372489Y-118080364D01*
X142292963Y-118159890D01*
X142290364Y-118162489D01*
X142239355Y-118266828D01*
X142239355Y-118266830D01*
X142229500Y-118334472D01*
X142229500Y-118695528D01*
X142234570Y-118730324D01*
X142239355Y-118763171D01*
X142257360Y-118800000D01*
X142290364Y-118867511D01*
X142352851Y-118929998D01*
X142380627Y-118984513D01*
X142371056Y-119044945D01*
X142352852Y-119070000D01*
X142312957Y-119109896D01*
X142290363Y-119132490D01*
X142279858Y-119153980D01*
X142237315Y-119197954D01*
X142190917Y-119209500D01*
X142034976Y-119209500D01*
X141976785Y-119190593D01*
X141964972Y-119180504D01*
X141964065Y-119179597D01*
X141964065Y-119179596D01*
X141880404Y-119095935D01*
X141880402Y-119095934D01*
X141880401Y-119095933D01*
X141866490Y-119089446D01*
X141821743Y-119047717D01*
X141810070Y-118987655D01*
X141835930Y-118932203D01*
X141866497Y-118909997D01*
X141880110Y-118903649D01*
X141963650Y-118820109D01*
X142013574Y-118713047D01*
X142013576Y-118713040D01*
X142020000Y-118664253D01*
X142020000Y-118590001D01*
X142019999Y-118590000D01*
X140980002Y-118590000D01*
X140980001Y-118590001D01*
X140980001Y-118664260D01*
X140986422Y-118713041D01*
X141036349Y-118820109D01*
X141119888Y-118903648D01*
X141133504Y-118909997D01*
X141178253Y-118951725D01*
X141189929Y-119011785D01*
X141164073Y-119067239D01*
X141133510Y-119089446D01*
X141119597Y-119095934D01*
X141035933Y-119179598D01*
X140985932Y-119286824D01*
X140985932Y-119286825D01*
X140979500Y-119335685D01*
X140979500Y-119684314D01*
X140985932Y-119733174D01*
X140985932Y-119733175D01*
X141035933Y-119840401D01*
X141035934Y-119840402D01*
X141035935Y-119840404D01*
X141119596Y-119924065D01*
X141119597Y-119924065D01*
X141119598Y-119924066D01*
X141226824Y-119974067D01*
X141226825Y-119974067D01*
X141226827Y-119974068D01*
X141275684Y-119980500D01*
X141275685Y-119980500D01*
X141724314Y-119980500D01*
X141724316Y-119980500D01*
X141773173Y-119974068D01*
X141880404Y-119924065D01*
X141964065Y-119840404D01*
X141964065Y-119840402D01*
X141964972Y-119839496D01*
X142019489Y-119811719D01*
X142034976Y-119810500D01*
X142222346Y-119810500D01*
X142280537Y-119829407D01*
X142292343Y-119839490D01*
X142372489Y-119919636D01*
X142476830Y-119970645D01*
X142544472Y-119980500D01*
X142544475Y-119980500D01*
X142955524Y-119980500D01*
X142955528Y-119980500D01*
X143023170Y-119970645D01*
X143127511Y-119919636D01*
X143209636Y-119837511D01*
X143260645Y-119733170D01*
X143270500Y-119665528D01*
X143270500Y-119304472D01*
X143260645Y-119236830D01*
X143209636Y-119132489D01*
X143147148Y-119070001D01*
X143119373Y-119015487D01*
X143128944Y-118955055D01*
X143147147Y-118929999D01*
X143209636Y-118867511D01*
X143260645Y-118763170D01*
X143270500Y-118695528D01*
X143270500Y-118334472D01*
X143260645Y-118266830D01*
X143209636Y-118162489D01*
X143127511Y-118080364D01*
X143127509Y-118080363D01*
X143127508Y-118080362D01*
X143127505Y-118080360D01*
X143106019Y-118069856D01*
X143062045Y-118027313D01*
X143050500Y-117980916D01*
X143050500Y-117210437D01*
X143050499Y-117210435D01*
X143030021Y-117134011D01*
X143030019Y-117134007D01*
X142990460Y-117065489D01*
X142934511Y-117009539D01*
X142934511Y-117009540D01*
X142444974Y-116520003D01*
X142417197Y-116465486D01*
X142426768Y-116405054D01*
X142444968Y-116380002D01*
X147694460Y-111130511D01*
X147734021Y-111061989D01*
X147754500Y-110985562D01*
X147754500Y-102599500D01*
X147773407Y-102541309D01*
X147822907Y-102505345D01*
X147853500Y-102500500D01*
X147909747Y-102500500D01*
X147909748Y-102500500D01*
X147968231Y-102488867D01*
X148020000Y-102454274D01*
X148078885Y-102437667D01*
X148129998Y-102454274D01*
X148181769Y-102488867D01*
X148226231Y-102497711D01*
X148240241Y-102500498D01*
X148240246Y-102500498D01*
X148240252Y-102500500D01*
X148324500Y-102500500D01*
X148382691Y-102519407D01*
X148418655Y-102568907D01*
X148423500Y-102599500D01*
X148423500Y-111063564D01*
X148443978Y-111139988D01*
X148443980Y-111139992D01*
X148483538Y-111208508D01*
X148483540Y-111208511D01*
X151648483Y-114373454D01*
X154713778Y-117438749D01*
X154741555Y-117493266D01*
X154731984Y-117553698D01*
X154688719Y-117596963D01*
X154681661Y-117600217D01*
X154612754Y-117628759D01*
X154497761Y-117716997D01*
X154497757Y-117717001D01*
X154409519Y-117831994D01*
X154409517Y-117831998D01*
X154354050Y-117965910D01*
X154354049Y-117965911D01*
X154335130Y-118109619D01*
X154335130Y-118109620D01*
X154354049Y-118253328D01*
X154355729Y-118259594D01*
X154354496Y-118259924D01*
X154358764Y-118314105D01*
X154326798Y-118366276D01*
X154270272Y-118389694D01*
X154262498Y-118390000D01*
X154240161Y-118390000D01*
X154190645Y-118396519D01*
X154190638Y-118396521D01*
X154081978Y-118447190D01*
X154020004Y-118509165D01*
X153965487Y-118536942D01*
X153905055Y-118527371D01*
X153879996Y-118509165D01*
X153818021Y-118447190D01*
X153709361Y-118396521D01*
X153709354Y-118396519D01*
X153659839Y-118390000D01*
X153580001Y-118390000D01*
X153580000Y-118390001D01*
X153580000Y-118799999D01*
X153580001Y-118800000D01*
X154421000Y-118800000D01*
X154479191Y-118818907D01*
X154515155Y-118868407D01*
X154520000Y-118899000D01*
X154520000Y-119409999D01*
X154520001Y-119410000D01*
X154599838Y-119410000D01*
X154649354Y-119403480D01*
X154649361Y-119403478D01*
X154758021Y-119352809D01*
X154758023Y-119352808D01*
X154829641Y-119281190D01*
X154884157Y-119253412D01*
X154944589Y-119262983D01*
X154969647Y-119281188D01*
X155000502Y-119312042D01*
X155028281Y-119366558D01*
X155029500Y-119382047D01*
X155029500Y-119900500D01*
X155010593Y-119958691D01*
X154961093Y-119994655D01*
X154930500Y-119999500D01*
X154591740Y-119999500D01*
X154557673Y-120004463D01*
X154523604Y-120009427D01*
X154418518Y-120060801D01*
X154335801Y-120143518D01*
X154284427Y-120248604D01*
X154282947Y-120258763D01*
X154274500Y-120316740D01*
X154274500Y-120683260D01*
X154281020Y-120728008D01*
X154284427Y-120751395D01*
X154335801Y-120856481D01*
X154335802Y-120856483D01*
X154418517Y-120939198D01*
X154472285Y-120965483D01*
X154523604Y-120990572D01*
X154523605Y-120990572D01*
X154523607Y-120990573D01*
X154591740Y-121000500D01*
X154591743Y-121000500D01*
X155683257Y-121000500D01*
X155683260Y-121000500D01*
X155751393Y-120990573D01*
X155856483Y-120939198D01*
X155939198Y-120856483D01*
X155990573Y-120751393D01*
X156000500Y-120683260D01*
X156000500Y-120316740D01*
X155990573Y-120248607D01*
X155975360Y-120217489D01*
X155954990Y-120175821D01*
X155939198Y-120143517D01*
X155856483Y-120060802D01*
X155786019Y-120026354D01*
X155742046Y-119983812D01*
X155730500Y-119937414D01*
X155730500Y-119382047D01*
X155749407Y-119323856D01*
X155759490Y-119312049D01*
X155803224Y-119268316D01*
X155853972Y-119159487D01*
X155860500Y-119109901D01*
X155860499Y-118824477D01*
X155879406Y-118766288D01*
X155928906Y-118730324D01*
X155990091Y-118730323D01*
X156029503Y-118754474D01*
X158972504Y-121697475D01*
X159000281Y-121751992D01*
X159001500Y-121767479D01*
X159001500Y-127337564D01*
X159021976Y-127413981D01*
X159021978Y-127413985D01*
X159021979Y-127413989D01*
X159021980Y-127413990D01*
X159033580Y-127434083D01*
X159033581Y-127434083D01*
X159061540Y-127482511D01*
X160122329Y-128543300D01*
X161075812Y-129496783D01*
X161103589Y-129551300D01*
X161094018Y-129611732D01*
X161093120Y-129613453D01*
X161076769Y-129644044D01*
X161076766Y-129644052D01*
X161016699Y-129842065D01*
X161016698Y-129842070D01*
X160996417Y-130047996D01*
X160996417Y-130048003D01*
X161016698Y-130253929D01*
X161016699Y-130253934D01*
X161076768Y-130451954D01*
X161174316Y-130634452D01*
X161305585Y-130794404D01*
X161305590Y-130794410D01*
X161305595Y-130794414D01*
X161465547Y-130925683D01*
X161465548Y-130925683D01*
X161465550Y-130925685D01*
X161648046Y-131023232D01*
X161785997Y-131065078D01*
X161846065Y-131083300D01*
X161846070Y-131083301D01*
X162051997Y-131103583D01*
X162052000Y-131103583D01*
X162052003Y-131103583D01*
X162257929Y-131083301D01*
X162257934Y-131083300D01*
X162455954Y-131023232D01*
X162638450Y-130925685D01*
X162798410Y-130794410D01*
X162929685Y-130634450D01*
X163027232Y-130451954D01*
X163087300Y-130253934D01*
X163087301Y-130253929D01*
X163107583Y-130048003D01*
X163107583Y-130047996D01*
X163087301Y-129842070D01*
X163087300Y-129842065D01*
X163055745Y-129738043D01*
X163027232Y-129644046D01*
X162929685Y-129461550D01*
X162904660Y-129431057D01*
X162798414Y-129301595D01*
X162798410Y-129301590D01*
X162699533Y-129220444D01*
X162638452Y-129170316D01*
X162455954Y-129072768D01*
X162257934Y-129012699D01*
X162257929Y-129012698D01*
X162052003Y-128992417D01*
X162051997Y-128992417D01*
X161846070Y-129012698D01*
X161846065Y-129012699D01*
X161648052Y-129072766D01*
X161648049Y-129072766D01*
X161648046Y-129072768D01*
X161648044Y-129072768D01*
X161648044Y-129072769D01*
X161617453Y-129089120D01*
X161557220Y-129099874D01*
X161502169Y-129073171D01*
X161500783Y-129071812D01*
X159631496Y-127202525D01*
X159603719Y-127148008D01*
X159602500Y-127132521D01*
X159602500Y-125722479D01*
X159621407Y-125664288D01*
X159670907Y-125628324D01*
X159732093Y-125628324D01*
X159771504Y-125652475D01*
X161075812Y-126956783D01*
X161103589Y-127011300D01*
X161094018Y-127071732D01*
X161093120Y-127073453D01*
X161076769Y-127104044D01*
X161076766Y-127104052D01*
X161016699Y-127302065D01*
X161016698Y-127302070D01*
X160996417Y-127507996D01*
X160996417Y-127508003D01*
X161016698Y-127713929D01*
X161016699Y-127713934D01*
X161076768Y-127911954D01*
X161174316Y-128094452D01*
X161305585Y-128254404D01*
X161305590Y-128254410D01*
X161305595Y-128254414D01*
X161465547Y-128385683D01*
X161465548Y-128385683D01*
X161465550Y-128385685D01*
X161648046Y-128483232D01*
X161785997Y-128525078D01*
X161846065Y-128543300D01*
X161846070Y-128543301D01*
X162051997Y-128563583D01*
X162052000Y-128563583D01*
X162052003Y-128563583D01*
X162257929Y-128543301D01*
X162257934Y-128543300D01*
X162455954Y-128483232D01*
X162638450Y-128385685D01*
X162798410Y-128254410D01*
X162929685Y-128094450D01*
X163027232Y-127911954D01*
X163087300Y-127713934D01*
X163087301Y-127713929D01*
X163107583Y-127508003D01*
X163107583Y-127507996D01*
X163087301Y-127302070D01*
X163087300Y-127302065D01*
X163057105Y-127202525D01*
X163027232Y-127104046D01*
X162929685Y-126921550D01*
X162798410Y-126761590D01*
X162791941Y-126756281D01*
X162638452Y-126630316D01*
X162455954Y-126532768D01*
X162257934Y-126472699D01*
X162257929Y-126472698D01*
X162052003Y-126452417D01*
X162051997Y-126452417D01*
X161846070Y-126472698D01*
X161846065Y-126472699D01*
X161648052Y-126532766D01*
X161648049Y-126532766D01*
X161648046Y-126532768D01*
X161648044Y-126532768D01*
X161648044Y-126532769D01*
X161617453Y-126549120D01*
X161557220Y-126559874D01*
X161502169Y-126533171D01*
X161500783Y-126531812D01*
X160031496Y-125062525D01*
X160003719Y-125008008D01*
X160002500Y-124992521D01*
X160002500Y-123582479D01*
X160021407Y-123524288D01*
X160070907Y-123488324D01*
X160132093Y-123488324D01*
X160171504Y-123512475D01*
X161075812Y-124416783D01*
X161103589Y-124471300D01*
X161094018Y-124531732D01*
X161093120Y-124533453D01*
X161076769Y-124564044D01*
X161076766Y-124564052D01*
X161016699Y-124762065D01*
X161016698Y-124762070D01*
X160996417Y-124967996D01*
X160996417Y-124968003D01*
X161016698Y-125173929D01*
X161016699Y-125173934D01*
X161076768Y-125371954D01*
X161174316Y-125554452D01*
X161294174Y-125700500D01*
X161305590Y-125714410D01*
X161305595Y-125714414D01*
X161465547Y-125845683D01*
X161465548Y-125845683D01*
X161465550Y-125845685D01*
X161648046Y-125943232D01*
X161785997Y-125985078D01*
X161846065Y-126003300D01*
X161846070Y-126003301D01*
X162051997Y-126023583D01*
X162052000Y-126023583D01*
X162052003Y-126023583D01*
X162257929Y-126003301D01*
X162257934Y-126003300D01*
X162275851Y-125997865D01*
X162455954Y-125943232D01*
X162638450Y-125845685D01*
X162798410Y-125714410D01*
X162929685Y-125554450D01*
X163027232Y-125371954D01*
X163087300Y-125173934D01*
X163087301Y-125173929D01*
X163107583Y-124968003D01*
X163107583Y-124967996D01*
X163087301Y-124762070D01*
X163087300Y-124762065D01*
X163041489Y-124611047D01*
X163027232Y-124564046D01*
X162929685Y-124381550D01*
X162892147Y-124335810D01*
X162808229Y-124233555D01*
X162798410Y-124221590D01*
X162785619Y-124211093D01*
X162638452Y-124090316D01*
X162455954Y-123992768D01*
X162257934Y-123932699D01*
X162257929Y-123932698D01*
X162052003Y-123912417D01*
X162051997Y-123912417D01*
X161846070Y-123932698D01*
X161846065Y-123932699D01*
X161648052Y-123992766D01*
X161648049Y-123992766D01*
X161648046Y-123992768D01*
X161648044Y-123992768D01*
X161648044Y-123992769D01*
X161617453Y-124009120D01*
X161557220Y-124019874D01*
X161502169Y-123993171D01*
X161500783Y-123991812D01*
X160431496Y-122922525D01*
X160403719Y-122868008D01*
X160402500Y-122852521D01*
X160402500Y-121442479D01*
X160421407Y-121384288D01*
X160470907Y-121348324D01*
X160532093Y-121348324D01*
X160571504Y-121372475D01*
X161075812Y-121876783D01*
X161103589Y-121931300D01*
X161094018Y-121991732D01*
X161093120Y-121993453D01*
X161076769Y-122024044D01*
X161076766Y-122024052D01*
X161016699Y-122222065D01*
X161016698Y-122222070D01*
X160996417Y-122427996D01*
X160996417Y-122428003D01*
X161016698Y-122633929D01*
X161016699Y-122633934D01*
X161076768Y-122831954D01*
X161174316Y-123014452D01*
X161273809Y-123135685D01*
X161305590Y-123174410D01*
X161305595Y-123174414D01*
X161465547Y-123305683D01*
X161465548Y-123305683D01*
X161465550Y-123305685D01*
X161648046Y-123403232D01*
X161744475Y-123432483D01*
X161846065Y-123463300D01*
X161846070Y-123463301D01*
X162051997Y-123483583D01*
X162052000Y-123483583D01*
X162052003Y-123483583D01*
X162257929Y-123463301D01*
X162257934Y-123463300D01*
X162267164Y-123460500D01*
X162455954Y-123403232D01*
X162638450Y-123305685D01*
X162798410Y-123174410D01*
X162929685Y-123014450D01*
X163027232Y-122831954D01*
X163087300Y-122633934D01*
X163087301Y-122633929D01*
X163107583Y-122428003D01*
X163107583Y-122427996D01*
X163087301Y-122222070D01*
X163087300Y-122222065D01*
X163055049Y-122115749D01*
X163027232Y-122024046D01*
X162929685Y-121841550D01*
X162920614Y-121830497D01*
X162798414Y-121681595D01*
X162798410Y-121681590D01*
X162754176Y-121645288D01*
X162638452Y-121550316D01*
X162455954Y-121452768D01*
X162257934Y-121392699D01*
X162257929Y-121392698D01*
X162052003Y-121372417D01*
X162051997Y-121372417D01*
X161846070Y-121392698D01*
X161846065Y-121392699D01*
X161648052Y-121452766D01*
X161648049Y-121452766D01*
X161648046Y-121452768D01*
X161648044Y-121452768D01*
X161648044Y-121452769D01*
X161617453Y-121469120D01*
X161557220Y-121479874D01*
X161502169Y-121453171D01*
X161500783Y-121451812D01*
X160831496Y-120782525D01*
X160803719Y-120728008D01*
X160802500Y-120712521D01*
X160802500Y-120362438D01*
X160789286Y-120313123D01*
X160792489Y-120252021D01*
X160830994Y-120204471D01*
X160884913Y-120188500D01*
X160971963Y-120188500D01*
X161030154Y-120207407D01*
X161066118Y-120256907D01*
X161066700Y-120258763D01*
X161076766Y-120291949D01*
X161076768Y-120291954D01*
X161174316Y-120474452D01*
X161305585Y-120634404D01*
X161305590Y-120634410D01*
X161305595Y-120634414D01*
X161465547Y-120765683D01*
X161465548Y-120765683D01*
X161465550Y-120765685D01*
X161648046Y-120863232D01*
X161785997Y-120905078D01*
X161846065Y-120923300D01*
X161846070Y-120923301D01*
X162051997Y-120943583D01*
X162052000Y-120943583D01*
X162052003Y-120943583D01*
X162257929Y-120923301D01*
X162257934Y-120923300D01*
X162455954Y-120863232D01*
X162638450Y-120765685D01*
X162798410Y-120634410D01*
X162929685Y-120474450D01*
X163027232Y-120291954D01*
X163087300Y-120093934D01*
X163087301Y-120093929D01*
X163107583Y-119888003D01*
X163107583Y-119887996D01*
X163087301Y-119682070D01*
X163087300Y-119682065D01*
X163058608Y-119587481D01*
X163027232Y-119484046D01*
X162929685Y-119301550D01*
X162920891Y-119290835D01*
X162798414Y-119141595D01*
X162798410Y-119141590D01*
X162759797Y-119109901D01*
X162638452Y-119010316D01*
X162455954Y-118912768D01*
X162257934Y-118852699D01*
X162257929Y-118852698D01*
X162052003Y-118832417D01*
X162051997Y-118832417D01*
X161846070Y-118852698D01*
X161846065Y-118852699D01*
X161648045Y-118912768D01*
X161465547Y-119010316D01*
X161305595Y-119141585D01*
X161305585Y-119141595D01*
X161174316Y-119301547D01*
X161076768Y-119484045D01*
X161076767Y-119484047D01*
X161066700Y-119517237D01*
X161031716Y-119567434D01*
X160973908Y-119587481D01*
X160971963Y-119587500D01*
X160953479Y-119587500D01*
X160895288Y-119568593D01*
X160883475Y-119558504D01*
X159142475Y-117817504D01*
X159114698Y-117762987D01*
X159124269Y-117702555D01*
X159167534Y-117659290D01*
X159212479Y-117648500D01*
X160971963Y-117648500D01*
X161030154Y-117667407D01*
X161066118Y-117716907D01*
X161066700Y-117718763D01*
X161076767Y-117751952D01*
X161076768Y-117751954D01*
X161174316Y-117934452D01*
X161294061Y-118080362D01*
X161305590Y-118094410D01*
X161305595Y-118094414D01*
X161465547Y-118225683D01*
X161465548Y-118225683D01*
X161465550Y-118225685D01*
X161648046Y-118323232D01*
X161785997Y-118365078D01*
X161846065Y-118383300D01*
X161846070Y-118383301D01*
X162051997Y-118403583D01*
X162052000Y-118403583D01*
X162052003Y-118403583D01*
X162257929Y-118383301D01*
X162257934Y-118383300D01*
X162455954Y-118323232D01*
X162638450Y-118225685D01*
X162798410Y-118094410D01*
X162929685Y-117934450D01*
X163027232Y-117751954D01*
X163087300Y-117553934D01*
X163087301Y-117553929D01*
X163107583Y-117348003D01*
X163107583Y-117347996D01*
X163087301Y-117142070D01*
X163087300Y-117142065D01*
X163058244Y-117046281D01*
X163027232Y-116944046D01*
X162929685Y-116761550D01*
X162798410Y-116601590D01*
X162798404Y-116601585D01*
X162638452Y-116470316D01*
X162455954Y-116372768D01*
X162257934Y-116312699D01*
X162257929Y-116312698D01*
X162052003Y-116292417D01*
X162051997Y-116292417D01*
X161846070Y-116312698D01*
X161846065Y-116312699D01*
X161648045Y-116372768D01*
X161465547Y-116470316D01*
X161305595Y-116601585D01*
X161305585Y-116601595D01*
X161174316Y-116761547D01*
X161076768Y-116944045D01*
X161076767Y-116944047D01*
X161066700Y-116977237D01*
X161031716Y-117027434D01*
X160973908Y-117047481D01*
X160971963Y-117047500D01*
X159213479Y-117047500D01*
X159155288Y-117028593D01*
X159143475Y-117018504D01*
X156932967Y-114807996D01*
X160996417Y-114807996D01*
X160996417Y-114808003D01*
X161016698Y-115013929D01*
X161016699Y-115013934D01*
X161076768Y-115211954D01*
X161174316Y-115394452D01*
X161305585Y-115554404D01*
X161305590Y-115554410D01*
X161305595Y-115554414D01*
X161465547Y-115685683D01*
X161465548Y-115685683D01*
X161465550Y-115685685D01*
X161648046Y-115783232D01*
X161785997Y-115825078D01*
X161846065Y-115843300D01*
X161846070Y-115843301D01*
X162051997Y-115863583D01*
X162052000Y-115863583D01*
X162052003Y-115863583D01*
X162257929Y-115843301D01*
X162257934Y-115843300D01*
X162455954Y-115783232D01*
X162638450Y-115685685D01*
X162798410Y-115554410D01*
X162929685Y-115394450D01*
X163027232Y-115211954D01*
X163087300Y-115013934D01*
X163087301Y-115013929D01*
X163107583Y-114808003D01*
X163107583Y-114807996D01*
X163087301Y-114602070D01*
X163087300Y-114602065D01*
X163069078Y-114541997D01*
X163027232Y-114404046D01*
X162929685Y-114221550D01*
X162798410Y-114061590D01*
X162798404Y-114061585D01*
X162638452Y-113930316D01*
X162455954Y-113832768D01*
X162257934Y-113772699D01*
X162257929Y-113772698D01*
X162052003Y-113752417D01*
X162051997Y-113752417D01*
X161846070Y-113772698D01*
X161846065Y-113772699D01*
X161648045Y-113832768D01*
X161465547Y-113930316D01*
X161305595Y-114061585D01*
X161305585Y-114061595D01*
X161174316Y-114221547D01*
X161076768Y-114404045D01*
X161016699Y-114602065D01*
X161016698Y-114602070D01*
X160996417Y-114807996D01*
X156932967Y-114807996D01*
X155409496Y-113284525D01*
X155381719Y-113230008D01*
X155380500Y-113214521D01*
X155380500Y-102599500D01*
X155399407Y-102541309D01*
X155448907Y-102505345D01*
X155479500Y-102500500D01*
X155529747Y-102500500D01*
X155529748Y-102500500D01*
X155588231Y-102488867D01*
X155654552Y-102444552D01*
X155698867Y-102378231D01*
X155710500Y-102319748D01*
X155710500Y-100980252D01*
X155698867Y-100921769D01*
X155654552Y-100855448D01*
X155642448Y-100847360D01*
X155604570Y-100799309D01*
X155602170Y-100738171D01*
X155615132Y-100710053D01*
X155658620Y-100644969D01*
X155709540Y-100522036D01*
X155735500Y-100391531D01*
X155735500Y-99208469D01*
X155735500Y-99208468D01*
X155735500Y-99203605D01*
X155737005Y-99203605D01*
X155748748Y-99150083D01*
X155794484Y-99109441D01*
X155855375Y-99103443D01*
X155904160Y-99130137D01*
X156395005Y-99620982D01*
X156422781Y-99675497D01*
X156424000Y-99690984D01*
X156424000Y-105687869D01*
X156405093Y-105746060D01*
X156385268Y-105766410D01*
X156331882Y-105807374D01*
X156243639Y-105922374D01*
X156243637Y-105922378D01*
X156188170Y-106056290D01*
X156188169Y-106056291D01*
X156169250Y-106199999D01*
X156169250Y-106200000D01*
X156188169Y-106343708D01*
X156188170Y-106343709D01*
X156243639Y-106477625D01*
X156331879Y-106592621D01*
X156446875Y-106680861D01*
X156580791Y-106736330D01*
X156724500Y-106755250D01*
X156868209Y-106736330D01*
X156986616Y-106687284D01*
X157047611Y-106682484D01*
X157099780Y-106714454D01*
X157123195Y-106770982D01*
X157123500Y-106778749D01*
X157123500Y-107679564D01*
X157143978Y-107755988D01*
X157143980Y-107755992D01*
X157183538Y-107824508D01*
X157183540Y-107824511D01*
X159263549Y-109904520D01*
X161075812Y-111716783D01*
X161103589Y-111771300D01*
X161094018Y-111831732D01*
X161093120Y-111833453D01*
X161076769Y-111864044D01*
X161076766Y-111864052D01*
X161016699Y-112062065D01*
X161016698Y-112062070D01*
X160996417Y-112267996D01*
X160996417Y-112268003D01*
X161016698Y-112473929D01*
X161016699Y-112473934D01*
X161076768Y-112671954D01*
X161174316Y-112854452D01*
X161247447Y-112943562D01*
X161305590Y-113014410D01*
X161305595Y-113014414D01*
X161465547Y-113145683D01*
X161465548Y-113145683D01*
X161465550Y-113145685D01*
X161648046Y-113243232D01*
X161784172Y-113284525D01*
X161846065Y-113303300D01*
X161846070Y-113303301D01*
X162051997Y-113323583D01*
X162052000Y-113323583D01*
X162052003Y-113323583D01*
X162257929Y-113303301D01*
X162257934Y-113303300D01*
X162455954Y-113243232D01*
X162638450Y-113145685D01*
X162798410Y-113014410D01*
X162929685Y-112854450D01*
X163027232Y-112671954D01*
X163087300Y-112473934D01*
X163087301Y-112473929D01*
X163107583Y-112268003D01*
X163107583Y-112267996D01*
X163087301Y-112062070D01*
X163087300Y-112062065D01*
X163036220Y-111893676D01*
X163027232Y-111864046D01*
X162929685Y-111681550D01*
X162847435Y-111581328D01*
X162798414Y-111521595D01*
X162798410Y-111521590D01*
X162776158Y-111503328D01*
X162638452Y-111390316D01*
X162455954Y-111292768D01*
X162257934Y-111232699D01*
X162257929Y-111232698D01*
X162052003Y-111212417D01*
X162051997Y-111212417D01*
X161846070Y-111232698D01*
X161846065Y-111232699D01*
X161648052Y-111292766D01*
X161648049Y-111292766D01*
X161648046Y-111292768D01*
X161648044Y-111292768D01*
X161648044Y-111292769D01*
X161617453Y-111309120D01*
X161557220Y-111319874D01*
X161502169Y-111293171D01*
X161500783Y-111291812D01*
X159936967Y-109727996D01*
X160996417Y-109727996D01*
X160996417Y-109728003D01*
X161016698Y-109933929D01*
X161016699Y-109933934D01*
X161076768Y-110131954D01*
X161174316Y-110314452D01*
X161305585Y-110474404D01*
X161305590Y-110474410D01*
X161305595Y-110474414D01*
X161465547Y-110605683D01*
X161465548Y-110605683D01*
X161465550Y-110605685D01*
X161648046Y-110703232D01*
X161785997Y-110745078D01*
X161846065Y-110763300D01*
X161846070Y-110763301D01*
X162051997Y-110783583D01*
X162052000Y-110783583D01*
X162052003Y-110783583D01*
X162257929Y-110763301D01*
X162257934Y-110763300D01*
X162455954Y-110703232D01*
X162638450Y-110605685D01*
X162798410Y-110474410D01*
X162929685Y-110314450D01*
X163027232Y-110131954D01*
X163087300Y-109933934D01*
X163087301Y-109933929D01*
X163107583Y-109728003D01*
X163107583Y-109727996D01*
X163087301Y-109522070D01*
X163087300Y-109522065D01*
X163069078Y-109461997D01*
X163027232Y-109324046D01*
X162929685Y-109141550D01*
X162798410Y-108981590D01*
X162798404Y-108981585D01*
X162638452Y-108850316D01*
X162455954Y-108752768D01*
X162257934Y-108692699D01*
X162257929Y-108692698D01*
X162052003Y-108672417D01*
X162051997Y-108672417D01*
X161846070Y-108692698D01*
X161846065Y-108692699D01*
X161648045Y-108752768D01*
X161465547Y-108850316D01*
X161305595Y-108981585D01*
X161305585Y-108981595D01*
X161174316Y-109141547D01*
X161076768Y-109324045D01*
X161016699Y-109522065D01*
X161016698Y-109522070D01*
X160996417Y-109727996D01*
X159936967Y-109727996D01*
X157753496Y-107544525D01*
X157725719Y-107490008D01*
X157724500Y-107474521D01*
X157724500Y-106562527D01*
X157743407Y-106504336D01*
X157792907Y-106468372D01*
X157854093Y-106468372D01*
X157902040Y-106502258D01*
X157971379Y-106592621D01*
X158086375Y-106680861D01*
X158220291Y-106736330D01*
X158364000Y-106755250D01*
X158430719Y-106746465D01*
X158490876Y-106757614D01*
X158513643Y-106774614D01*
X159111540Y-107372511D01*
X159111539Y-107372511D01*
X159167489Y-107428460D01*
X159236007Y-107468019D01*
X159236011Y-107468021D01*
X159312435Y-107488499D01*
X159312437Y-107488500D01*
X159312438Y-107488500D01*
X160971963Y-107488500D01*
X161030154Y-107507407D01*
X161066118Y-107556907D01*
X161066700Y-107558763D01*
X161076767Y-107591952D01*
X161076768Y-107591954D01*
X161174316Y-107774452D01*
X161305585Y-107934404D01*
X161305590Y-107934410D01*
X161305595Y-107934414D01*
X161465547Y-108065683D01*
X161465548Y-108065683D01*
X161465550Y-108065685D01*
X161648046Y-108163232D01*
X161785997Y-108205078D01*
X161846065Y-108223300D01*
X161846070Y-108223301D01*
X162051997Y-108243583D01*
X162052000Y-108243583D01*
X162052003Y-108243583D01*
X162257929Y-108223301D01*
X162257934Y-108223300D01*
X162455954Y-108163232D01*
X162638450Y-108065685D01*
X162798410Y-107934410D01*
X162929685Y-107774450D01*
X163027232Y-107591954D01*
X163087300Y-107393934D01*
X163087301Y-107393929D01*
X163107583Y-107188003D01*
X163107583Y-107187996D01*
X163087301Y-106982070D01*
X163087300Y-106982065D01*
X163058608Y-106887481D01*
X163027232Y-106784046D01*
X162929685Y-106601550D01*
X162922357Y-106592621D01*
X162798414Y-106441595D01*
X162798410Y-106441590D01*
X162686372Y-106349643D01*
X162638452Y-106310316D01*
X162455954Y-106212768D01*
X162257934Y-106152699D01*
X162257929Y-106152698D01*
X162052003Y-106132417D01*
X162051997Y-106132417D01*
X161846070Y-106152698D01*
X161846065Y-106152699D01*
X161648045Y-106212768D01*
X161465547Y-106310316D01*
X161305595Y-106441585D01*
X161305585Y-106441595D01*
X161174316Y-106601547D01*
X161076768Y-106784045D01*
X161076767Y-106784047D01*
X161066700Y-106817237D01*
X161031716Y-106867434D01*
X160973908Y-106887481D01*
X160971963Y-106887500D01*
X159517479Y-106887500D01*
X159459288Y-106868593D01*
X159447475Y-106858504D01*
X158938614Y-106349643D01*
X158910837Y-106295126D01*
X158910465Y-106266723D01*
X158919250Y-106200000D01*
X158900330Y-106056291D01*
X158844861Y-105922375D01*
X158756621Y-105807379D01*
X158641625Y-105719139D01*
X158641621Y-105719137D01*
X158507709Y-105663670D01*
X158507708Y-105663669D01*
X158364000Y-105644750D01*
X158220291Y-105663669D01*
X158220290Y-105663670D01*
X158086378Y-105719137D01*
X158086374Y-105719139D01*
X157971381Y-105807377D01*
X157971377Y-105807381D01*
X157902042Y-105897740D01*
X157851617Y-105932395D01*
X157790452Y-105930793D01*
X157741911Y-105893546D01*
X157724500Y-105837472D01*
X157724500Y-104647996D01*
X160996417Y-104647996D01*
X160996417Y-104648003D01*
X161016698Y-104853929D01*
X161016699Y-104853934D01*
X161076768Y-105051954D01*
X161174316Y-105234452D01*
X161305585Y-105394404D01*
X161305590Y-105394410D01*
X161305595Y-105394414D01*
X161465547Y-105525683D01*
X161465548Y-105525683D01*
X161465550Y-105525685D01*
X161648046Y-105623232D01*
X161781351Y-105663669D01*
X161846065Y-105683300D01*
X161846070Y-105683301D01*
X162051997Y-105703583D01*
X162052000Y-105703583D01*
X162052003Y-105703583D01*
X162257929Y-105683301D01*
X162257934Y-105683300D01*
X162455954Y-105623232D01*
X162638450Y-105525685D01*
X162798410Y-105394410D01*
X162929685Y-105234450D01*
X163027232Y-105051954D01*
X163087300Y-104853934D01*
X163087301Y-104853929D01*
X163107583Y-104648003D01*
X163107583Y-104647996D01*
X163087301Y-104442070D01*
X163087300Y-104442065D01*
X163069078Y-104381997D01*
X163027232Y-104244046D01*
X162929685Y-104061550D01*
X162798410Y-103901590D01*
X162657503Y-103785951D01*
X162638452Y-103770316D01*
X162455954Y-103672768D01*
X162257934Y-103612699D01*
X162257929Y-103612698D01*
X162052003Y-103592417D01*
X162051997Y-103592417D01*
X161846070Y-103612698D01*
X161846065Y-103612699D01*
X161648045Y-103672768D01*
X161465547Y-103770316D01*
X161305595Y-103901585D01*
X161305585Y-103901595D01*
X161174316Y-104061547D01*
X161076768Y-104244045D01*
X161016699Y-104442065D01*
X161016698Y-104442070D01*
X160996417Y-104647996D01*
X157724500Y-104647996D01*
X157724500Y-99620437D01*
X157724499Y-99620435D01*
X157704021Y-99544011D01*
X157704019Y-99544007D01*
X157664460Y-99475489D01*
X157608511Y-99419539D01*
X157608511Y-99419540D01*
X156822241Y-98633270D01*
X156794464Y-98578753D01*
X156804035Y-98518321D01*
X156847300Y-98475056D01*
X156907732Y-98465485D01*
X156911561Y-98466169D01*
X156958461Y-98475499D01*
X156958467Y-98475499D01*
X156958469Y-98475500D01*
X156958470Y-98475500D01*
X158141530Y-98475500D01*
X158141531Y-98475500D01*
X158272036Y-98449540D01*
X158349554Y-98417431D01*
X158394965Y-98398622D01*
X158394966Y-98398621D01*
X158394969Y-98398620D01*
X158460048Y-98355135D01*
X158518931Y-98338528D01*
X158576335Y-98359705D01*
X158597360Y-98382448D01*
X158605448Y-98394552D01*
X158671769Y-98438867D01*
X158716231Y-98447711D01*
X158730241Y-98450498D01*
X158730246Y-98450498D01*
X158730252Y-98450500D01*
X158730253Y-98450500D01*
X160064980Y-98450500D01*
X160123171Y-98469407D01*
X160159135Y-98518907D01*
X160163980Y-98549500D01*
X160163980Y-100560044D01*
X160184458Y-100636468D01*
X160208648Y-100678365D01*
X160224020Y-100704991D01*
X160650841Y-101131812D01*
X161075812Y-101556783D01*
X161103589Y-101611300D01*
X161094018Y-101671732D01*
X161093120Y-101673453D01*
X161076769Y-101704044D01*
X161076766Y-101704052D01*
X161016699Y-101902065D01*
X161016698Y-101902070D01*
X160996417Y-102107996D01*
X160996417Y-102108003D01*
X161016698Y-102313929D01*
X161016699Y-102313934D01*
X161076768Y-102511954D01*
X161174316Y-102694452D01*
X161301240Y-102849110D01*
X161305590Y-102854410D01*
X161305595Y-102854414D01*
X161465547Y-102985683D01*
X161465548Y-102985683D01*
X161465550Y-102985685D01*
X161648046Y-103083232D01*
X161785997Y-103125078D01*
X161846065Y-103143300D01*
X161846070Y-103143301D01*
X162051997Y-103163583D01*
X162052000Y-103163583D01*
X162052003Y-103163583D01*
X162257929Y-103143301D01*
X162257934Y-103143300D01*
X162455954Y-103083232D01*
X162638450Y-102985685D01*
X162798410Y-102854410D01*
X162929685Y-102694450D01*
X163027232Y-102511954D01*
X163087300Y-102313934D01*
X163087301Y-102313929D01*
X163107583Y-102108003D01*
X163107583Y-102107996D01*
X163087301Y-101902070D01*
X163087300Y-101902065D01*
X163069078Y-101841997D01*
X163027232Y-101704046D01*
X162929685Y-101521550D01*
X162798410Y-101361590D01*
X162777694Y-101344589D01*
X162638452Y-101230316D01*
X162455954Y-101132768D01*
X162257934Y-101072699D01*
X162257929Y-101072698D01*
X162052003Y-101052417D01*
X162051997Y-101052417D01*
X161846070Y-101072698D01*
X161846065Y-101072699D01*
X161648052Y-101132766D01*
X161648049Y-101132766D01*
X161648046Y-101132768D01*
X161648044Y-101132768D01*
X161648044Y-101132769D01*
X161617453Y-101149120D01*
X161557220Y-101159874D01*
X161502169Y-101133171D01*
X161500783Y-101131812D01*
X160793976Y-100425005D01*
X160766199Y-100370488D01*
X160764980Y-100355001D01*
X160764980Y-98944959D01*
X160783887Y-98886768D01*
X160833387Y-98850804D01*
X160894573Y-98850804D01*
X160933984Y-98874955D01*
X161075812Y-99016783D01*
X161103589Y-99071300D01*
X161094018Y-99131732D01*
X161093120Y-99133453D01*
X161076769Y-99164044D01*
X161076766Y-99164052D01*
X161016699Y-99362065D01*
X161016698Y-99362070D01*
X160996417Y-99567996D01*
X160996417Y-99568003D01*
X161016698Y-99773929D01*
X161016699Y-99773934D01*
X161076768Y-99971954D01*
X161174316Y-100154452D01*
X161270570Y-100271738D01*
X161305590Y-100314410D01*
X161305595Y-100314414D01*
X161465547Y-100445683D01*
X161465548Y-100445683D01*
X161465550Y-100445685D01*
X161648046Y-100543232D01*
X161785997Y-100585078D01*
X161846065Y-100603300D01*
X161846070Y-100603301D01*
X162051997Y-100623583D01*
X162052000Y-100623583D01*
X162052003Y-100623583D01*
X162257929Y-100603301D01*
X162257934Y-100603300D01*
X162455954Y-100543232D01*
X162638450Y-100445685D01*
X162798410Y-100314410D01*
X162929685Y-100154450D01*
X163027232Y-99971954D01*
X163087300Y-99773934D01*
X163087301Y-99773929D01*
X163107583Y-99568003D01*
X163107583Y-99567996D01*
X163087301Y-99362070D01*
X163087300Y-99362065D01*
X163069078Y-99301997D01*
X163027232Y-99164046D01*
X162929685Y-98981550D01*
X162907923Y-98955033D01*
X162798414Y-98821595D01*
X162798410Y-98821590D01*
X162777694Y-98804589D01*
X162638452Y-98690316D01*
X162455954Y-98592768D01*
X162257934Y-98532699D01*
X162257929Y-98532698D01*
X162052003Y-98512417D01*
X162051997Y-98512417D01*
X161846070Y-98532698D01*
X161846065Y-98532699D01*
X161648052Y-98592766D01*
X161648049Y-98592766D01*
X161648046Y-98592768D01*
X161648044Y-98592768D01*
X161648044Y-98592769D01*
X161617453Y-98609120D01*
X161557220Y-98619874D01*
X161502169Y-98593171D01*
X161500783Y-98591812D01*
X161193496Y-98284525D01*
X161165719Y-98230008D01*
X161164500Y-98214521D01*
X161164500Y-97867938D01*
X161183407Y-97809747D01*
X161232907Y-97773783D01*
X161294093Y-97773783D01*
X161326305Y-97791410D01*
X161465547Y-97905683D01*
X161465548Y-97905683D01*
X161465550Y-97905685D01*
X161648046Y-98003232D01*
X161785997Y-98045078D01*
X161846065Y-98063300D01*
X161846070Y-98063301D01*
X162051997Y-98083583D01*
X162052000Y-98083583D01*
X162052003Y-98083583D01*
X162257929Y-98063301D01*
X162257934Y-98063300D01*
X162455954Y-98003232D01*
X162638450Y-97905685D01*
X162798410Y-97774410D01*
X162929685Y-97614450D01*
X163027232Y-97431954D01*
X163087300Y-97233934D01*
X163087301Y-97233929D01*
X163107583Y-97028003D01*
X163107583Y-97027996D01*
X163087301Y-96822070D01*
X163087300Y-96822065D01*
X163058473Y-96727036D01*
X163027232Y-96624046D01*
X162929685Y-96441550D01*
X162854551Y-96349999D01*
X162798414Y-96281595D01*
X162798410Y-96281590D01*
X162747707Y-96239979D01*
X162638452Y-96150316D01*
X162455954Y-96052768D01*
X162257934Y-95992699D01*
X162257929Y-95992698D01*
X162052003Y-95972417D01*
X162051997Y-95972417D01*
X161846070Y-95992698D01*
X161846065Y-95992699D01*
X161648045Y-96052768D01*
X161465547Y-96150316D01*
X161465547Y-96150317D01*
X161326305Y-96264589D01*
X161269328Y-96286889D01*
X161210125Y-96271440D01*
X161171310Y-96224143D01*
X161164500Y-96188061D01*
X161164500Y-95327938D01*
X161183407Y-95269747D01*
X161232907Y-95233783D01*
X161294093Y-95233783D01*
X161326305Y-95251410D01*
X161465547Y-95365683D01*
X161465548Y-95365683D01*
X161465550Y-95365685D01*
X161648046Y-95463232D01*
X161732914Y-95488976D01*
X161846065Y-95523300D01*
X161846070Y-95523301D01*
X162051997Y-95543583D01*
X162052000Y-95543583D01*
X162052003Y-95543583D01*
X162257929Y-95523301D01*
X162257934Y-95523300D01*
X162286545Y-95514621D01*
X162455954Y-95463232D01*
X162638450Y-95365685D01*
X162798410Y-95234410D01*
X162929685Y-95074450D01*
X163027232Y-94891954D01*
X163087300Y-94693934D01*
X163087301Y-94693929D01*
X163107583Y-94488003D01*
X163107583Y-94487996D01*
X163087301Y-94282070D01*
X163087300Y-94282065D01*
X163058473Y-94187035D01*
X163027232Y-94084046D01*
X162929685Y-93901550D01*
X162798410Y-93741590D01*
X162747704Y-93699977D01*
X162638452Y-93610316D01*
X162455954Y-93512768D01*
X162257934Y-93452699D01*
X162257929Y-93452698D01*
X162052003Y-93432417D01*
X162051997Y-93432417D01*
X161846070Y-93452698D01*
X161846065Y-93452699D01*
X161648045Y-93512768D01*
X161465547Y-93610316D01*
X161465547Y-93610317D01*
X161326305Y-93724589D01*
X161269328Y-93746889D01*
X161210125Y-93731440D01*
X161171310Y-93684143D01*
X161164500Y-93648061D01*
X161164500Y-92787938D01*
X161183407Y-92729747D01*
X161232907Y-92693783D01*
X161294093Y-92693783D01*
X161326305Y-92711410D01*
X161465547Y-92825683D01*
X161465548Y-92825683D01*
X161465550Y-92825685D01*
X161648046Y-92923232D01*
X161785997Y-92965078D01*
X161846065Y-92983300D01*
X161846070Y-92983301D01*
X162051997Y-93003583D01*
X162052000Y-93003583D01*
X162052003Y-93003583D01*
X162257929Y-92983301D01*
X162257934Y-92983300D01*
X162455954Y-92923232D01*
X162638450Y-92825685D01*
X162798410Y-92694410D01*
X162929685Y-92534450D01*
X163027232Y-92351954D01*
X163087300Y-92153934D01*
X163087301Y-92153929D01*
X163107583Y-91948003D01*
X163107583Y-91947996D01*
X163087301Y-91742070D01*
X163087300Y-91742065D01*
X163069078Y-91681997D01*
X163027232Y-91544046D01*
X162929685Y-91361550D01*
X162798410Y-91201590D01*
X162722753Y-91139500D01*
X162638452Y-91070316D01*
X162455954Y-90972768D01*
X162257934Y-90912699D01*
X162257929Y-90912698D01*
X162052003Y-90892417D01*
X162051997Y-90892417D01*
X161846070Y-90912698D01*
X161846065Y-90912699D01*
X161648052Y-90972766D01*
X161648049Y-90972766D01*
X161648046Y-90972768D01*
X161648044Y-90972768D01*
X161648044Y-90972769D01*
X161617453Y-90989120D01*
X161557220Y-90999874D01*
X161502169Y-90973171D01*
X161500783Y-90971812D01*
X161231985Y-90703014D01*
X161204208Y-90648497D01*
X161202989Y-90633010D01*
X161202989Y-90279525D01*
X161221896Y-90221334D01*
X161271396Y-90185370D01*
X161332582Y-90185370D01*
X161364794Y-90202997D01*
X161465547Y-90285683D01*
X161465548Y-90285683D01*
X161465550Y-90285685D01*
X161648046Y-90383232D01*
X161785997Y-90425078D01*
X161846065Y-90443300D01*
X161846070Y-90443301D01*
X162051997Y-90463583D01*
X162052000Y-90463583D01*
X162052003Y-90463583D01*
X162257929Y-90443301D01*
X162257934Y-90443300D01*
X162455954Y-90383232D01*
X162638450Y-90285685D01*
X162798410Y-90154410D01*
X162929685Y-89994450D01*
X163027232Y-89811954D01*
X163087300Y-89613934D01*
X163087301Y-89613929D01*
X163107583Y-89408003D01*
X163107583Y-89407996D01*
X163087301Y-89202070D01*
X163087300Y-89202065D01*
X163066641Y-89133963D01*
X163027232Y-89004046D01*
X162929685Y-88821550D01*
X162798410Y-88661590D01*
X162733956Y-88608694D01*
X162638452Y-88530316D01*
X162455954Y-88432768D01*
X162257934Y-88372699D01*
X162257929Y-88372698D01*
X162052003Y-88352417D01*
X162051997Y-88352417D01*
X161846070Y-88372698D01*
X161846065Y-88372699D01*
X161648052Y-88432766D01*
X161648049Y-88432766D01*
X161648046Y-88432768D01*
X161648044Y-88432768D01*
X161648044Y-88432769D01*
X161617453Y-88449120D01*
X161557220Y-88459874D01*
X161502169Y-88433171D01*
X161500783Y-88431812D01*
X161231985Y-88163014D01*
X161204208Y-88108497D01*
X161202989Y-88093010D01*
X161202989Y-87739525D01*
X161221896Y-87681334D01*
X161271396Y-87645370D01*
X161332582Y-87645370D01*
X161364794Y-87662997D01*
X161465547Y-87745683D01*
X161465548Y-87745683D01*
X161465550Y-87745685D01*
X161648046Y-87843232D01*
X161785997Y-87885078D01*
X161846065Y-87903300D01*
X161846070Y-87903301D01*
X162051997Y-87923583D01*
X162052000Y-87923583D01*
X162052003Y-87923583D01*
X162257929Y-87903301D01*
X162257934Y-87903300D01*
X162455954Y-87843232D01*
X162638450Y-87745685D01*
X162798410Y-87614410D01*
X162929685Y-87454450D01*
X163027232Y-87271954D01*
X163087300Y-87073934D01*
X163087301Y-87073929D01*
X163107583Y-86868003D01*
X163107583Y-86867996D01*
X163087301Y-86662070D01*
X163087300Y-86662065D01*
X163069078Y-86601997D01*
X163027232Y-86464046D01*
X162929685Y-86281550D01*
X162798410Y-86121590D01*
X162708356Y-86047685D01*
X162638452Y-85990316D01*
X162455954Y-85892768D01*
X162257934Y-85832699D01*
X162257929Y-85832698D01*
X162052003Y-85812417D01*
X162051997Y-85812417D01*
X161846070Y-85832698D01*
X161846065Y-85832699D01*
X161648052Y-85892766D01*
X161648049Y-85892766D01*
X161648046Y-85892768D01*
X161648044Y-85892768D01*
X161648044Y-85892769D01*
X161617453Y-85909120D01*
X161557220Y-85919874D01*
X161502169Y-85893171D01*
X161500783Y-85891812D01*
X161231985Y-85623014D01*
X161204208Y-85568497D01*
X161202989Y-85553010D01*
X161202989Y-85199525D01*
X161221896Y-85141334D01*
X161271396Y-85105370D01*
X161332582Y-85105370D01*
X161364794Y-85122997D01*
X161465547Y-85205683D01*
X161465548Y-85205683D01*
X161465550Y-85205685D01*
X161648046Y-85303232D01*
X161785997Y-85345078D01*
X161846065Y-85363300D01*
X161846070Y-85363301D01*
X162051997Y-85383583D01*
X162052000Y-85383583D01*
X162052003Y-85383583D01*
X162257929Y-85363301D01*
X162257934Y-85363300D01*
X162455954Y-85303232D01*
X162638450Y-85205685D01*
X162798410Y-85074410D01*
X162929685Y-84914450D01*
X163027232Y-84731954D01*
X163087300Y-84533934D01*
X163087301Y-84533929D01*
X163107583Y-84328003D01*
X163107583Y-84327996D01*
X163087301Y-84122070D01*
X163087300Y-84122065D01*
X163065344Y-84049685D01*
X163027232Y-83924046D01*
X162929685Y-83741550D01*
X162798410Y-83581590D01*
X162711215Y-83510031D01*
X162638452Y-83450316D01*
X162455954Y-83352768D01*
X162257934Y-83292699D01*
X162257929Y-83292698D01*
X162052003Y-83272417D01*
X162051997Y-83272417D01*
X161846070Y-83292698D01*
X161846065Y-83292699D01*
X161648052Y-83352766D01*
X161648049Y-83352766D01*
X161648046Y-83352768D01*
X161648044Y-83352768D01*
X161648044Y-83352769D01*
X161617453Y-83369120D01*
X161557220Y-83379874D01*
X161502169Y-83353171D01*
X161500783Y-83351812D01*
X161155975Y-83007004D01*
X161128198Y-82952487D01*
X161137769Y-82892055D01*
X161181034Y-82848790D01*
X161225979Y-82838000D01*
X161951999Y-82838000D01*
X161952000Y-82837999D01*
X161952000Y-82278842D01*
X161986174Y-82288000D01*
X162117826Y-82288000D01*
X162152000Y-82278842D01*
X162152000Y-82837999D01*
X162152001Y-82838000D01*
X162921697Y-82838000D01*
X162921700Y-82837999D01*
X162980036Y-82826396D01*
X163046189Y-82782193D01*
X163046193Y-82782189D01*
X163090396Y-82716036D01*
X163101999Y-82657700D01*
X163102000Y-82657697D01*
X163102000Y-81888001D01*
X163101999Y-81888000D01*
X162542843Y-81888000D01*
X162552000Y-81853826D01*
X162552000Y-81722174D01*
X162542843Y-81688000D01*
X163101999Y-81688000D01*
X163102000Y-81687999D01*
X163102000Y-80918302D01*
X163101999Y-80918299D01*
X163090396Y-80859963D01*
X163046193Y-80793810D01*
X163046189Y-80793806D01*
X162980036Y-80749603D01*
X162921700Y-80738000D01*
X162152001Y-80738000D01*
X162152000Y-80738001D01*
X162152000Y-81297157D01*
X162117826Y-81288000D01*
X161986174Y-81288000D01*
X161952000Y-81297157D01*
X161952000Y-80738001D01*
X161951999Y-80738000D01*
X161182299Y-80738000D01*
X161123963Y-80749603D01*
X161057810Y-80793806D01*
X161057806Y-80793810D01*
X161013603Y-80859963D01*
X161002000Y-80918299D01*
X161002000Y-81687999D01*
X161002001Y-81688000D01*
X161561157Y-81688000D01*
X161552000Y-81722174D01*
X161552000Y-81853826D01*
X161561157Y-81888000D01*
X161002001Y-81888000D01*
X161002000Y-81888001D01*
X161002000Y-82614021D01*
X160983093Y-82672212D01*
X160933593Y-82708176D01*
X160872407Y-82708176D01*
X160832997Y-82684025D01*
X160458510Y-82309539D01*
X160389992Y-82269980D01*
X160389988Y-82269978D01*
X160323876Y-82252263D01*
X160272562Y-82218939D01*
X160250636Y-82161817D01*
X160250500Y-82156637D01*
X160250500Y-82090253D01*
X160250498Y-82090241D01*
X160239570Y-82035305D01*
X160238867Y-82031769D01*
X160203975Y-81979551D01*
X160187367Y-81920664D01*
X160203976Y-81869547D01*
X160238396Y-81818034D01*
X160249999Y-81759700D01*
X160250000Y-81759697D01*
X160250000Y-81390001D01*
X160249999Y-81390000D01*
X159399000Y-81390000D01*
X159385006Y-81385453D01*
X159400000Y-81329496D01*
X159400000Y-81250504D01*
X159379556Y-81174204D01*
X159340060Y-81105795D01*
X159300000Y-81065735D01*
X159300000Y-80640001D01*
X159500000Y-80640001D01*
X159500000Y-81189999D01*
X159500001Y-81190000D01*
X160249999Y-81190000D01*
X160250000Y-81189999D01*
X160250000Y-80820302D01*
X160249999Y-80820299D01*
X160238396Y-80761963D01*
X160194193Y-80695810D01*
X160194189Y-80695806D01*
X160128036Y-80651603D01*
X160069700Y-80640000D01*
X159500001Y-80640000D01*
X159500000Y-80640001D01*
X159300000Y-80640001D01*
X159299999Y-80640000D01*
X158730299Y-80640000D01*
X158671963Y-80651603D01*
X158605810Y-80695806D01*
X158605806Y-80695810D01*
X158597776Y-80707828D01*
X158549725Y-80745706D01*
X158488586Y-80748106D01*
X158460461Y-80735140D01*
X158394966Y-80691378D01*
X158272037Y-80640460D01*
X158141531Y-80614500D01*
X156958469Y-80614500D01*
X156958468Y-80614500D01*
X156827962Y-80640460D01*
X156705033Y-80691378D01*
X156594397Y-80765302D01*
X156500302Y-80859397D01*
X156426378Y-80970033D01*
X156375460Y-81092962D01*
X156349500Y-81223468D01*
X156349500Y-81356531D01*
X156375460Y-81487037D01*
X156426378Y-81609966D01*
X156426379Y-81609968D01*
X156426380Y-81609969D01*
X156500305Y-81720606D01*
X156594394Y-81814695D01*
X156594397Y-81814697D01*
X156594398Y-81814698D01*
X156636283Y-81842685D01*
X156674162Y-81890735D01*
X156676564Y-81951873D01*
X156642571Y-82002747D01*
X156636283Y-82007315D01*
X156594398Y-82035301D01*
X156500302Y-82129397D01*
X156426378Y-82240033D01*
X156375460Y-82362962D01*
X156349500Y-82493468D01*
X156349500Y-82626531D01*
X156375460Y-82757037D01*
X156426378Y-82879966D01*
X156426379Y-82879968D01*
X156426380Y-82879969D01*
X156500305Y-82990606D01*
X156594394Y-83084695D01*
X156594397Y-83084697D01*
X156594398Y-83084698D01*
X156636283Y-83112685D01*
X156674162Y-83160735D01*
X156676564Y-83221873D01*
X156642571Y-83272747D01*
X156636283Y-83277315D01*
X156594398Y-83305301D01*
X156500302Y-83399397D01*
X156426378Y-83510033D01*
X156375460Y-83632962D01*
X156349500Y-83763468D01*
X156349500Y-83896531D01*
X156375460Y-84027037D01*
X156426378Y-84149966D01*
X156498096Y-84257301D01*
X156500305Y-84260606D01*
X156594394Y-84354695D01*
X156594397Y-84354697D01*
X156594398Y-84354698D01*
X156636283Y-84382685D01*
X156674162Y-84430735D01*
X156676564Y-84491873D01*
X156642571Y-84542747D01*
X156636283Y-84547315D01*
X156594398Y-84575301D01*
X156500302Y-84669397D01*
X156426378Y-84780033D01*
X156375460Y-84902962D01*
X156349500Y-85033468D01*
X156349500Y-85166531D01*
X156375460Y-85297037D01*
X156426378Y-85419966D01*
X156426379Y-85419968D01*
X156426380Y-85419969D01*
X156500305Y-85530606D01*
X156594394Y-85624695D01*
X156594397Y-85624697D01*
X156594398Y-85624698D01*
X156636283Y-85652685D01*
X156674162Y-85700735D01*
X156676564Y-85761873D01*
X156642571Y-85812747D01*
X156636283Y-85817315D01*
X156594398Y-85845301D01*
X156500302Y-85939397D01*
X156426378Y-86050033D01*
X156375460Y-86172962D01*
X156349500Y-86303468D01*
X156349500Y-86436531D01*
X156375460Y-86567037D01*
X156426378Y-86689966D01*
X156426379Y-86689968D01*
X156426380Y-86689969D01*
X156500305Y-86800606D01*
X156594394Y-86894695D01*
X156594397Y-86894697D01*
X156594398Y-86894698D01*
X156636283Y-86922685D01*
X156674162Y-86970735D01*
X156676564Y-87031873D01*
X156642571Y-87082747D01*
X156636283Y-87087315D01*
X156594398Y-87115301D01*
X156500302Y-87209397D01*
X156426378Y-87320033D01*
X156375460Y-87442962D01*
X156349500Y-87573468D01*
X156349500Y-87706531D01*
X156375460Y-87837037D01*
X156426378Y-87959966D01*
X156485529Y-88048493D01*
X156500305Y-88070606D01*
X156594394Y-88164695D01*
X156594397Y-88164697D01*
X156594398Y-88164698D01*
X156636283Y-88192685D01*
X156674162Y-88240735D01*
X156676564Y-88301873D01*
X156642571Y-88352747D01*
X156636283Y-88357315D01*
X156594398Y-88385301D01*
X156500302Y-88479397D01*
X156426378Y-88590033D01*
X156375460Y-88712962D01*
X156349500Y-88843468D01*
X156349500Y-88976531D01*
X156375460Y-89107037D01*
X156426378Y-89229966D01*
X156426379Y-89229968D01*
X156426380Y-89229969D01*
X156500305Y-89340606D01*
X156594394Y-89434695D01*
X156594397Y-89434697D01*
X156594398Y-89434698D01*
X156636283Y-89462685D01*
X156674162Y-89510735D01*
X156676564Y-89571873D01*
X156642571Y-89622747D01*
X156636283Y-89627315D01*
X156594398Y-89655301D01*
X156500302Y-89749397D01*
X156426378Y-89860033D01*
X156375460Y-89982962D01*
X156349500Y-90113468D01*
X156349500Y-90246531D01*
X156375460Y-90377037D01*
X156426378Y-90499966D01*
X156426379Y-90499968D01*
X156426380Y-90499969D01*
X156500305Y-90610606D01*
X156594394Y-90704695D01*
X156594397Y-90704697D01*
X156594398Y-90704698D01*
X156636283Y-90732685D01*
X156674162Y-90780735D01*
X156676564Y-90841873D01*
X156642571Y-90892747D01*
X156636283Y-90897315D01*
X156594398Y-90925301D01*
X156500302Y-91019397D01*
X156426378Y-91130033D01*
X156375460Y-91252962D01*
X156349500Y-91383468D01*
X156349500Y-91516531D01*
X156375460Y-91647037D01*
X156426378Y-91769966D01*
X156426379Y-91769968D01*
X156426380Y-91769969D01*
X156500305Y-91880606D01*
X156594394Y-91974695D01*
X156594397Y-91974697D01*
X156594398Y-91974698D01*
X156636283Y-92002685D01*
X156674162Y-92050735D01*
X156676564Y-92111873D01*
X156642571Y-92162747D01*
X156636283Y-92167315D01*
X156594398Y-92195301D01*
X156500302Y-92289397D01*
X156426378Y-92400033D01*
X156375460Y-92522962D01*
X156349500Y-92653468D01*
X156349500Y-92786531D01*
X156375460Y-92917037D01*
X156426378Y-93039966D01*
X156426379Y-93039968D01*
X156426380Y-93039969D01*
X156500305Y-93150606D01*
X156594394Y-93244695D01*
X156594397Y-93244697D01*
X156594398Y-93244698D01*
X156636283Y-93272685D01*
X156674162Y-93320735D01*
X156676564Y-93381873D01*
X156642571Y-93432747D01*
X156636283Y-93437315D01*
X156594398Y-93465301D01*
X156500302Y-93559397D01*
X156449452Y-93635501D01*
X156401402Y-93673381D01*
X156367136Y-93679500D01*
X156244435Y-93679500D01*
X156168014Y-93699977D01*
X156168013Y-93699977D01*
X156135516Y-93718739D01*
X156103022Y-93737500D01*
X156103019Y-93737501D01*
X156099491Y-93739538D01*
X155565489Y-94273540D01*
X155565488Y-94273539D01*
X155509539Y-94329489D01*
X155469980Y-94398007D01*
X155469978Y-94398011D01*
X155449500Y-94474435D01*
X155449500Y-98557017D01*
X155430593Y-98615208D01*
X155381093Y-98651172D01*
X155319907Y-98651172D01*
X155312615Y-98648481D01*
X155257037Y-98625460D01*
X155126531Y-98599500D01*
X154993469Y-98599500D01*
X154993468Y-98599500D01*
X154862962Y-98625460D01*
X154740033Y-98676378D01*
X154629397Y-98750302D01*
X154535301Y-98844398D01*
X154507315Y-98886283D01*
X154459265Y-98924162D01*
X154398127Y-98926564D01*
X154347253Y-98892571D01*
X154342685Y-98886283D01*
X154314698Y-98844398D01*
X154314697Y-98844397D01*
X154314695Y-98844394D01*
X154220606Y-98750305D01*
X154198474Y-98735517D01*
X154109966Y-98676378D01*
X153987037Y-98625460D01*
X153856531Y-98599500D01*
X153723469Y-98599500D01*
X153723468Y-98599500D01*
X153592962Y-98625460D01*
X153470033Y-98676378D01*
X153359397Y-98750302D01*
X153265301Y-98844398D01*
X153237315Y-98886283D01*
X153189265Y-98924162D01*
X153128127Y-98926564D01*
X153077253Y-98892571D01*
X153072685Y-98886283D01*
X153044698Y-98844398D01*
X153044697Y-98844397D01*
X153044695Y-98844394D01*
X152950606Y-98750305D01*
X152928474Y-98735517D01*
X152839966Y-98676378D01*
X152717037Y-98625460D01*
X152586531Y-98599500D01*
X152453469Y-98599500D01*
X152453468Y-98599500D01*
X152322962Y-98625460D01*
X152200033Y-98676378D01*
X152089397Y-98750302D01*
X151995301Y-98844398D01*
X151967315Y-98886283D01*
X151919265Y-98924162D01*
X151858127Y-98926564D01*
X151807253Y-98892571D01*
X151802685Y-98886283D01*
X151774698Y-98844398D01*
X151774697Y-98844397D01*
X151774695Y-98844394D01*
X151680606Y-98750305D01*
X151658474Y-98735517D01*
X151569966Y-98676378D01*
X151447037Y-98625460D01*
X151316531Y-98599500D01*
X151183469Y-98599500D01*
X151183468Y-98599500D01*
X151052962Y-98625460D01*
X150930033Y-98676378D01*
X150819397Y-98750302D01*
X150725301Y-98844398D01*
X150697315Y-98886283D01*
X150649265Y-98924162D01*
X150588127Y-98926564D01*
X150537253Y-98892571D01*
X150532685Y-98886283D01*
X150504698Y-98844398D01*
X150504697Y-98844397D01*
X150504695Y-98844394D01*
X150410606Y-98750305D01*
X150388474Y-98735517D01*
X150299966Y-98676378D01*
X150177037Y-98625460D01*
X150046531Y-98599500D01*
X149913469Y-98599500D01*
X149913468Y-98599500D01*
X149782962Y-98625460D01*
X149660033Y-98676378D01*
X149549397Y-98750302D01*
X149455301Y-98844398D01*
X149427315Y-98886283D01*
X149379265Y-98924162D01*
X149318127Y-98926564D01*
X149267253Y-98892571D01*
X149262685Y-98886283D01*
X149234698Y-98844398D01*
X149234697Y-98844397D01*
X149234695Y-98844394D01*
X149140606Y-98750305D01*
X149118474Y-98735517D01*
X149029966Y-98676378D01*
X148907037Y-98625460D01*
X148776531Y-98599500D01*
X148643469Y-98599500D01*
X148643468Y-98599500D01*
X148512962Y-98625460D01*
X148390033Y-98676378D01*
X148279397Y-98750302D01*
X148185301Y-98844398D01*
X148157315Y-98886283D01*
X148109265Y-98924162D01*
X148048127Y-98926564D01*
X147997253Y-98892571D01*
X147992685Y-98886283D01*
X147964698Y-98844398D01*
X147964697Y-98844397D01*
X147964695Y-98844394D01*
X147870606Y-98750305D01*
X147848474Y-98735517D01*
X147759966Y-98676378D01*
X147637037Y-98625460D01*
X147506531Y-98599500D01*
X147373469Y-98599500D01*
X147373468Y-98599500D01*
X147242962Y-98625460D01*
X147120033Y-98676378D01*
X147009397Y-98750302D01*
X146915301Y-98844398D01*
X146887315Y-98886283D01*
X146839265Y-98924162D01*
X146778127Y-98926564D01*
X146727253Y-98892571D01*
X146722685Y-98886283D01*
X146694698Y-98844398D01*
X146694697Y-98844397D01*
X146694695Y-98844394D01*
X146600606Y-98750305D01*
X146578474Y-98735517D01*
X146489966Y-98676378D01*
X146367037Y-98625460D01*
X146236531Y-98599500D01*
X146103469Y-98599500D01*
X146103468Y-98599500D01*
X145972962Y-98625460D01*
X145850033Y-98676378D01*
X145739397Y-98750302D01*
X145645301Y-98844398D01*
X145617315Y-98886283D01*
X145569265Y-98924162D01*
X145508127Y-98926564D01*
X145457253Y-98892571D01*
X145452685Y-98886283D01*
X145424698Y-98844398D01*
X145424697Y-98844397D01*
X145424695Y-98844394D01*
X145330606Y-98750305D01*
X145308474Y-98735517D01*
X145219966Y-98676378D01*
X145097037Y-98625460D01*
X144966531Y-98599500D01*
X144833469Y-98599500D01*
X144833468Y-98599500D01*
X144702962Y-98625460D01*
X144580033Y-98676378D01*
X144469397Y-98750302D01*
X144375301Y-98844398D01*
X144347315Y-98886283D01*
X144299265Y-98924162D01*
X144238127Y-98926564D01*
X144187253Y-98892571D01*
X144182685Y-98886283D01*
X144154698Y-98844398D01*
X144154697Y-98844397D01*
X144154695Y-98844394D01*
X144060606Y-98750305D01*
X144038474Y-98735517D01*
X143949966Y-98676378D01*
X143827037Y-98625460D01*
X143696531Y-98599500D01*
X143563469Y-98599500D01*
X143563468Y-98599500D01*
X143432962Y-98625460D01*
X143310033Y-98676378D01*
X143199397Y-98750302D01*
X143105301Y-98844398D01*
X143077315Y-98886283D01*
X143029265Y-98924162D01*
X142968127Y-98926564D01*
X142917253Y-98892571D01*
X142912685Y-98886283D01*
X142884698Y-98844398D01*
X142884697Y-98844397D01*
X142884695Y-98844394D01*
X142790606Y-98750305D01*
X142768474Y-98735517D01*
X142679966Y-98676378D01*
X142557037Y-98625460D01*
X142426531Y-98599500D01*
X142293469Y-98599500D01*
X142293468Y-98599500D01*
X142162962Y-98625460D01*
X142040033Y-98676378D01*
X141929397Y-98750302D01*
X141835301Y-98844398D01*
X141807315Y-98886283D01*
X141759265Y-98924162D01*
X141698127Y-98926564D01*
X141647253Y-98892571D01*
X141642685Y-98886283D01*
X141614698Y-98844398D01*
X141614697Y-98844397D01*
X141614695Y-98844394D01*
X141520606Y-98750305D01*
X141498474Y-98735517D01*
X141409966Y-98676378D01*
X141287037Y-98625460D01*
X141156531Y-98599500D01*
X141023469Y-98599500D01*
X141023468Y-98599500D01*
X140892962Y-98625460D01*
X140770033Y-98676378D01*
X140659397Y-98750302D01*
X140565302Y-98844397D01*
X140491378Y-98955033D01*
X140440460Y-99077962D01*
X140414500Y-99208468D01*
X140414500Y-100391531D01*
X140440460Y-100522037D01*
X140491378Y-100644966D01*
X140534863Y-100710046D01*
X140551471Y-100768934D01*
X140530293Y-100826337D01*
X140507551Y-100847360D01*
X140500719Y-100851925D01*
X140495449Y-100855447D01*
X140495445Y-100855451D01*
X140451134Y-100921766D01*
X140451132Y-100921772D01*
X140439501Y-100980241D01*
X140439500Y-100980253D01*
X140439500Y-102319746D01*
X140439501Y-102319758D01*
X140451132Y-102378227D01*
X140451134Y-102378233D01*
X140495445Y-102444548D01*
X140495448Y-102444552D01*
X140561769Y-102488867D01*
X140606231Y-102497711D01*
X140620241Y-102500498D01*
X140620246Y-102500498D01*
X140620252Y-102500500D01*
X140700500Y-102500500D01*
X140758691Y-102519407D01*
X140794655Y-102568907D01*
X140799500Y-102599500D01*
X140799500Y-113134521D01*
X140780593Y-113192712D01*
X140770504Y-113204525D01*
X136956525Y-117018504D01*
X136902008Y-117046281D01*
X136886521Y-117047500D01*
X135192037Y-117047500D01*
X135133846Y-117028593D01*
X135097882Y-116979093D01*
X135097300Y-116977237D01*
X135087232Y-116944047D01*
X135087231Y-116944045D01*
X134989683Y-116761547D01*
X134858414Y-116601595D01*
X134858410Y-116601590D01*
X134858404Y-116601585D01*
X134698452Y-116470316D01*
X134515954Y-116372768D01*
X134317934Y-116312699D01*
X134317929Y-116312698D01*
X134112003Y-116292417D01*
X134111997Y-116292417D01*
X133906070Y-116312698D01*
X133906065Y-116312699D01*
X133708045Y-116372768D01*
X133525547Y-116470316D01*
X133365595Y-116601585D01*
X133365585Y-116601595D01*
X133234316Y-116761547D01*
X133136768Y-116944045D01*
X133076699Y-117142065D01*
X133076698Y-117142070D01*
X133056417Y-117347996D01*
X132788500Y-117347996D01*
X132788500Y-112267996D01*
X133056417Y-112267996D01*
X133056417Y-112268003D01*
X133076698Y-112473929D01*
X133076699Y-112473934D01*
X133136768Y-112671954D01*
X133234316Y-112854452D01*
X133307447Y-112943562D01*
X133365590Y-113014410D01*
X133365595Y-113014414D01*
X133525547Y-113145683D01*
X133525548Y-113145683D01*
X133525550Y-113145685D01*
X133708046Y-113243232D01*
X133844172Y-113284525D01*
X133906065Y-113303300D01*
X133906070Y-113303301D01*
X134111997Y-113323583D01*
X134112000Y-113323583D01*
X134112003Y-113323583D01*
X134317929Y-113303301D01*
X134317934Y-113303300D01*
X134515954Y-113243232D01*
X134698450Y-113145685D01*
X134858410Y-113014410D01*
X134989685Y-112854450D01*
X135087232Y-112671954D01*
X135147300Y-112473934D01*
X135147301Y-112473929D01*
X135167583Y-112268003D01*
X135167583Y-112267996D01*
X135147301Y-112062070D01*
X135147300Y-112062065D01*
X135096220Y-111893676D01*
X135087232Y-111864046D01*
X134989685Y-111681550D01*
X134907435Y-111581328D01*
X134858414Y-111521595D01*
X134858410Y-111521590D01*
X134836158Y-111503328D01*
X134698452Y-111390316D01*
X134515954Y-111292768D01*
X134317934Y-111232699D01*
X134317929Y-111232698D01*
X134112003Y-111212417D01*
X134111997Y-111212417D01*
X133906070Y-111232698D01*
X133906065Y-111232699D01*
X133708045Y-111292768D01*
X133525547Y-111390316D01*
X133365595Y-111521585D01*
X133365585Y-111521595D01*
X133234316Y-111681547D01*
X133136768Y-111864045D01*
X133076699Y-112062065D01*
X133076698Y-112062070D01*
X133056417Y-112267996D01*
X132788500Y-112267996D01*
X132788500Y-107187996D01*
X133056417Y-107187996D01*
X133056417Y-107188003D01*
X133076698Y-107393929D01*
X133076699Y-107393934D01*
X133136768Y-107591954D01*
X133234316Y-107774452D01*
X133365585Y-107934404D01*
X133365590Y-107934410D01*
X133365595Y-107934414D01*
X133525547Y-108065683D01*
X133525548Y-108065683D01*
X133525550Y-108065685D01*
X133708046Y-108163232D01*
X133845997Y-108205078D01*
X133906065Y-108223300D01*
X133906070Y-108223301D01*
X134111997Y-108243583D01*
X134112000Y-108243583D01*
X134112003Y-108243583D01*
X134317929Y-108223301D01*
X134317934Y-108223300D01*
X134515954Y-108163232D01*
X134698450Y-108065685D01*
X134858410Y-107934410D01*
X134989685Y-107774450D01*
X135087232Y-107591954D01*
X135147300Y-107393934D01*
X135147301Y-107393929D01*
X135167583Y-107188003D01*
X135167583Y-107187996D01*
X135147301Y-106982070D01*
X135147300Y-106982065D01*
X135118608Y-106887481D01*
X135087232Y-106784046D01*
X134989685Y-106601550D01*
X134982357Y-106592621D01*
X134858414Y-106441595D01*
X134858410Y-106441590D01*
X134746372Y-106349643D01*
X134698452Y-106310316D01*
X134515954Y-106212768D01*
X134317934Y-106152699D01*
X134317929Y-106152698D01*
X134112003Y-106132417D01*
X134111997Y-106132417D01*
X133906070Y-106152698D01*
X133906065Y-106152699D01*
X133708045Y-106212768D01*
X133525547Y-106310316D01*
X133365595Y-106441585D01*
X133365585Y-106441595D01*
X133234316Y-106601547D01*
X133136768Y-106784045D01*
X133076699Y-106982065D01*
X133076698Y-106982070D01*
X133056417Y-107187996D01*
X132788500Y-107187996D01*
X132788500Y-89407996D01*
X133056417Y-89407996D01*
X133056417Y-89408003D01*
X133076698Y-89613929D01*
X133076699Y-89613934D01*
X133136768Y-89811954D01*
X133234316Y-89994452D01*
X133365585Y-90154404D01*
X133365590Y-90154410D01*
X133365595Y-90154414D01*
X133525547Y-90285683D01*
X133525548Y-90285683D01*
X133525550Y-90285685D01*
X133708046Y-90383232D01*
X133845997Y-90425078D01*
X133906065Y-90443300D01*
X133906070Y-90443301D01*
X134111997Y-90463583D01*
X134112000Y-90463583D01*
X134112003Y-90463583D01*
X134317929Y-90443301D01*
X134317934Y-90443300D01*
X134515954Y-90383232D01*
X134698450Y-90285685D01*
X134799206Y-90202996D01*
X134856183Y-90180697D01*
X134915386Y-90196146D01*
X134954201Y-90243442D01*
X134961011Y-90279525D01*
X134961011Y-91076474D01*
X134942104Y-91134665D01*
X134892604Y-91170629D01*
X134831418Y-91170629D01*
X134799207Y-91153002D01*
X134698458Y-91070320D01*
X134698452Y-91070316D01*
X134515954Y-90972768D01*
X134317934Y-90912699D01*
X134317929Y-90912698D01*
X134112003Y-90892417D01*
X134111997Y-90892417D01*
X133906070Y-90912698D01*
X133906065Y-90912699D01*
X133708045Y-90972768D01*
X133525547Y-91070316D01*
X133365595Y-91201585D01*
X133365585Y-91201595D01*
X133234316Y-91361547D01*
X133136768Y-91544045D01*
X133076699Y-91742065D01*
X133076698Y-91742070D01*
X133056417Y-91947996D01*
X133056417Y-91948003D01*
X133076698Y-92153929D01*
X133076699Y-92153934D01*
X133136768Y-92351954D01*
X133234316Y-92534452D01*
X133365075Y-92693783D01*
X133365590Y-92694410D01*
X133365595Y-92694414D01*
X133525547Y-92825683D01*
X133525548Y-92825683D01*
X133525550Y-92825685D01*
X133708046Y-92923232D01*
X133845997Y-92965078D01*
X133906065Y-92983300D01*
X133906070Y-92983301D01*
X134111997Y-93003583D01*
X134112000Y-93003583D01*
X134112003Y-93003583D01*
X134317929Y-92983301D01*
X134317934Y-92983300D01*
X134433753Y-92948167D01*
X134494926Y-92949368D01*
X134543711Y-92986297D01*
X134561491Y-93042904D01*
X134561491Y-93393095D01*
X134542584Y-93451286D01*
X134493084Y-93487250D01*
X134433754Y-93487832D01*
X134317937Y-93452700D01*
X134317929Y-93452698D01*
X134112003Y-93432417D01*
X134111997Y-93432417D01*
X133906070Y-93452698D01*
X133906065Y-93452699D01*
X133708045Y-93512768D01*
X133525547Y-93610316D01*
X133365595Y-93741585D01*
X133365585Y-93741595D01*
X133234316Y-93901547D01*
X133136768Y-94084045D01*
X133076699Y-94282065D01*
X133076698Y-94282070D01*
X133056417Y-94487996D01*
X133056417Y-94488003D01*
X133076698Y-94693929D01*
X133076699Y-94693934D01*
X133136768Y-94891954D01*
X133234316Y-95074452D01*
X133365075Y-95233783D01*
X133365590Y-95234410D01*
X133365595Y-95234414D01*
X133525547Y-95365683D01*
X133525548Y-95365683D01*
X133525550Y-95365685D01*
X133708046Y-95463232D01*
X133792914Y-95488976D01*
X133906065Y-95523300D01*
X133906070Y-95523301D01*
X134111997Y-95543583D01*
X134112000Y-95543583D01*
X134112003Y-95543583D01*
X134317929Y-95523301D01*
X134317934Y-95523300D01*
X134346545Y-95514621D01*
X134472244Y-95476491D01*
X134533415Y-95477692D01*
X134582200Y-95514621D01*
X134599980Y-95571228D01*
X134599980Y-95944771D01*
X134581073Y-96002962D01*
X134531573Y-96038926D01*
X134472242Y-96039508D01*
X134317934Y-95992699D01*
X134317929Y-95992698D01*
X134112003Y-95972417D01*
X134111997Y-95972417D01*
X133906070Y-95992698D01*
X133906065Y-95992699D01*
X133708045Y-96052768D01*
X133525547Y-96150316D01*
X133365595Y-96281585D01*
X133365585Y-96281595D01*
X133234316Y-96441547D01*
X133136768Y-96624045D01*
X133076699Y-96822065D01*
X133076698Y-96822070D01*
X133056417Y-97027996D01*
X133056417Y-97028003D01*
X133076698Y-97233929D01*
X133076699Y-97233934D01*
X133136768Y-97431954D01*
X133234316Y-97614452D01*
X133361240Y-97769110D01*
X133365590Y-97774410D01*
X133365595Y-97774414D01*
X133525547Y-97905683D01*
X133525548Y-97905683D01*
X133525550Y-97905685D01*
X133708046Y-98003232D01*
X133845997Y-98045078D01*
X133906065Y-98063300D01*
X133906070Y-98063301D01*
X134111997Y-98083583D01*
X134112000Y-98083583D01*
X134112003Y-98083583D01*
X134317929Y-98063301D01*
X134317934Y-98063300D01*
X134515954Y-98003232D01*
X134698450Y-97905685D01*
X134837695Y-97791409D01*
X134894672Y-97769110D01*
X134953875Y-97784559D01*
X134992690Y-97831855D01*
X134999500Y-97867938D01*
X134999500Y-98728061D01*
X134980593Y-98786252D01*
X134931093Y-98822216D01*
X134869907Y-98822216D01*
X134837695Y-98804589D01*
X134743916Y-98727628D01*
X134698452Y-98690316D01*
X134515954Y-98592768D01*
X134317934Y-98532699D01*
X134317929Y-98532698D01*
X134112003Y-98512417D01*
X134111997Y-98512417D01*
X133906070Y-98532698D01*
X133906065Y-98532699D01*
X133708045Y-98592768D01*
X133525547Y-98690316D01*
X133365595Y-98821585D01*
X133365585Y-98821595D01*
X133234316Y-98981547D01*
X133136768Y-99164045D01*
X133076699Y-99362065D01*
X133076698Y-99362070D01*
X133056417Y-99567996D01*
X133056417Y-99568003D01*
X133076698Y-99773929D01*
X133076699Y-99773934D01*
X133136768Y-99971954D01*
X133234316Y-100154452D01*
X133330570Y-100271738D01*
X133365590Y-100314410D01*
X133365595Y-100314414D01*
X133525547Y-100445683D01*
X133525548Y-100445683D01*
X133525550Y-100445685D01*
X133708046Y-100543232D01*
X133845997Y-100585078D01*
X133906065Y-100603300D01*
X133906070Y-100603301D01*
X134111997Y-100623583D01*
X134112000Y-100623583D01*
X134112003Y-100623583D01*
X134317929Y-100603301D01*
X134317934Y-100603300D01*
X134515954Y-100543232D01*
X134698450Y-100445685D01*
X134837695Y-100331409D01*
X134894672Y-100309110D01*
X134953875Y-100324559D01*
X134992690Y-100371855D01*
X134999500Y-100407938D01*
X134999500Y-101268061D01*
X134980593Y-101326252D01*
X134931093Y-101362216D01*
X134869907Y-101362216D01*
X134837695Y-101344589D01*
X134698452Y-101230317D01*
X134698452Y-101230316D01*
X134515954Y-101132768D01*
X134317934Y-101072699D01*
X134317929Y-101072698D01*
X134112003Y-101052417D01*
X134111997Y-101052417D01*
X133906070Y-101072698D01*
X133906065Y-101072699D01*
X133708045Y-101132768D01*
X133525547Y-101230316D01*
X133365595Y-101361585D01*
X133365585Y-101361595D01*
X133234316Y-101521547D01*
X133136768Y-101704045D01*
X133076699Y-101902065D01*
X133076698Y-101902070D01*
X133056417Y-102107996D01*
X133056417Y-102108003D01*
X133076698Y-102313929D01*
X133076699Y-102313934D01*
X133136768Y-102511954D01*
X133234316Y-102694452D01*
X133361240Y-102849110D01*
X133365590Y-102854410D01*
X133365595Y-102854414D01*
X133525547Y-102985683D01*
X133525548Y-102985683D01*
X133525550Y-102985685D01*
X133708046Y-103083232D01*
X133845997Y-103125078D01*
X133906065Y-103143300D01*
X133906070Y-103143301D01*
X134111997Y-103163583D01*
X134112000Y-103163583D01*
X134112003Y-103163583D01*
X134317929Y-103143301D01*
X134317934Y-103143300D01*
X134515954Y-103083232D01*
X134698450Y-102985685D01*
X134837695Y-102871409D01*
X134894672Y-102849110D01*
X134953875Y-102864559D01*
X134992690Y-102911855D01*
X134999500Y-102947938D01*
X134999500Y-103294521D01*
X134980593Y-103352712D01*
X134970503Y-103364525D01*
X134663215Y-103671812D01*
X134608699Y-103699589D01*
X134548267Y-103690018D01*
X134546544Y-103689118D01*
X134515959Y-103672770D01*
X134515954Y-103672768D01*
X134317934Y-103612699D01*
X134317929Y-103612698D01*
X134112003Y-103592417D01*
X134111997Y-103592417D01*
X133906070Y-103612698D01*
X133906065Y-103612699D01*
X133708045Y-103672768D01*
X133525547Y-103770316D01*
X133365595Y-103901585D01*
X133365585Y-103901595D01*
X133234316Y-104061547D01*
X133136768Y-104244045D01*
X133076699Y-104442065D01*
X133076698Y-104442070D01*
X133056417Y-104647996D01*
X133056417Y-104648003D01*
X133076698Y-104853929D01*
X133076699Y-104853934D01*
X133136768Y-105051954D01*
X133234316Y-105234452D01*
X133365585Y-105394404D01*
X133365590Y-105394410D01*
X133365595Y-105394414D01*
X133525547Y-105525683D01*
X133525548Y-105525683D01*
X133525550Y-105525685D01*
X133708046Y-105623232D01*
X133841351Y-105663669D01*
X133906065Y-105683300D01*
X133906070Y-105683301D01*
X134111997Y-105703583D01*
X134112000Y-105703583D01*
X134112003Y-105703583D01*
X134317929Y-105683301D01*
X134317934Y-105683300D01*
X134515954Y-105623232D01*
X134698450Y-105525685D01*
X134858410Y-105394410D01*
X134989685Y-105234450D01*
X135087232Y-105051954D01*
X135147300Y-104853934D01*
X135147301Y-104853929D01*
X135167583Y-104648003D01*
X135167583Y-104647996D01*
X135147301Y-104442070D01*
X135147300Y-104442065D01*
X135129078Y-104381997D01*
X135087232Y-104244046D01*
X135070880Y-104213455D01*
X135060123Y-104153223D01*
X135086824Y-104098171D01*
X135088127Y-104096843D01*
X135230018Y-103954952D01*
X135284533Y-103927176D01*
X135344965Y-103936748D01*
X135388230Y-103980012D01*
X135399020Y-104024957D01*
X135399020Y-107975000D01*
X135380113Y-108033191D01*
X135370024Y-108045004D01*
X134663215Y-108751812D01*
X134608698Y-108779589D01*
X134548266Y-108770018D01*
X134546583Y-108769139D01*
X134515954Y-108752768D01*
X134317934Y-108692699D01*
X134317929Y-108692698D01*
X134112003Y-108672417D01*
X134111997Y-108672417D01*
X133906070Y-108692698D01*
X133906065Y-108692699D01*
X133708045Y-108752768D01*
X133525547Y-108850316D01*
X133365595Y-108981585D01*
X133365585Y-108981595D01*
X133234316Y-109141547D01*
X133136768Y-109324045D01*
X133076699Y-109522065D01*
X133076698Y-109522070D01*
X133056417Y-109727996D01*
X133056417Y-109728003D01*
X133076698Y-109933929D01*
X133076699Y-109933934D01*
X133136768Y-110131954D01*
X133234316Y-110314452D01*
X133365585Y-110474404D01*
X133365590Y-110474410D01*
X133365595Y-110474414D01*
X133525547Y-110605683D01*
X133525548Y-110605683D01*
X133525550Y-110605685D01*
X133708046Y-110703232D01*
X133845997Y-110745078D01*
X133906065Y-110763300D01*
X133906070Y-110763301D01*
X134111997Y-110783583D01*
X134112000Y-110783583D01*
X134112003Y-110783583D01*
X134317929Y-110763301D01*
X134317934Y-110763300D01*
X134515954Y-110703232D01*
X134698450Y-110605685D01*
X134858410Y-110474410D01*
X134989685Y-110314450D01*
X135087232Y-110131954D01*
X135147300Y-109933934D01*
X135147301Y-109933929D01*
X135167583Y-109728003D01*
X135167583Y-109727996D01*
X135147301Y-109522070D01*
X135147300Y-109522065D01*
X135129078Y-109461997D01*
X135087232Y-109324046D01*
X135087229Y-109324040D01*
X135070881Y-109293454D01*
X135060125Y-109233221D01*
X135086827Y-109178170D01*
X135088135Y-109176834D01*
X135939980Y-108324991D01*
X135979541Y-108256469D01*
X136000020Y-108180042D01*
X136000020Y-98549500D01*
X136018927Y-98491309D01*
X136068427Y-98455345D01*
X136099020Y-98450500D01*
X137163505Y-98450500D01*
X137221696Y-98469407D01*
X137233509Y-98479496D01*
X138420504Y-99666491D01*
X138448281Y-99721008D01*
X138449500Y-99736495D01*
X138449500Y-99787869D01*
X138430593Y-99846060D01*
X138410768Y-99866410D01*
X138357382Y-99907374D01*
X138269139Y-100022374D01*
X138269137Y-100022378D01*
X138213670Y-100156290D01*
X138213669Y-100156291D01*
X138194750Y-100299999D01*
X138194750Y-100300000D01*
X138213669Y-100443708D01*
X138213670Y-100443709D01*
X138260653Y-100557139D01*
X138269139Y-100577625D01*
X138357379Y-100692621D01*
X138357383Y-100692624D01*
X138357384Y-100692625D01*
X138387792Y-100715958D01*
X138472375Y-100780861D01*
X138488384Y-100787491D01*
X138534910Y-100827226D01*
X138549500Y-100878956D01*
X138549500Y-109904520D01*
X138530593Y-109962711D01*
X138520504Y-109974524D01*
X134663215Y-113831812D01*
X134608698Y-113859589D01*
X134548266Y-113850018D01*
X134546583Y-113849139D01*
X134515954Y-113832768D01*
X134317934Y-113772699D01*
X134317929Y-113772698D01*
X134112003Y-113752417D01*
X134111997Y-113752417D01*
X133906070Y-113772698D01*
X133906065Y-113772699D01*
X133708045Y-113832768D01*
X133525547Y-113930316D01*
X133365595Y-114061585D01*
X133365585Y-114061595D01*
X133234316Y-114221547D01*
X133136768Y-114404045D01*
X133076699Y-114602065D01*
X133076698Y-114602070D01*
X133056417Y-114807996D01*
X133056417Y-114808003D01*
X133076698Y-115013929D01*
X133076699Y-115013934D01*
X133136768Y-115211954D01*
X133234316Y-115394452D01*
X133365585Y-115554404D01*
X133365590Y-115554410D01*
X133365595Y-115554414D01*
X133525547Y-115685683D01*
X133525548Y-115685683D01*
X133525550Y-115685685D01*
X133708046Y-115783232D01*
X133845997Y-115825078D01*
X133906065Y-115843300D01*
X133906070Y-115843301D01*
X134111997Y-115863583D01*
X134112000Y-115863583D01*
X134112003Y-115863583D01*
X134317929Y-115843301D01*
X134317934Y-115843300D01*
X134515954Y-115783232D01*
X134698450Y-115685685D01*
X134858410Y-115554410D01*
X134989685Y-115394450D01*
X135087232Y-115211954D01*
X135147300Y-115013934D01*
X135147301Y-115013929D01*
X135167583Y-114808003D01*
X135167583Y-114807996D01*
X135147301Y-114602070D01*
X135147300Y-114602065D01*
X135129078Y-114541997D01*
X135087232Y-114404046D01*
X135087229Y-114404040D01*
X135070881Y-114373454D01*
X135060125Y-114313221D01*
X135086827Y-114258170D01*
X135088137Y-114256832D01*
X139090460Y-110254511D01*
X139130021Y-110185989D01*
X139150500Y-110109562D01*
X139150500Y-100715958D01*
X139169407Y-100657767D01*
X139170959Y-100655690D01*
X139230857Y-100577630D01*
X139230856Y-100577630D01*
X139230861Y-100577625D01*
X139286330Y-100443709D01*
X139305250Y-100300000D01*
X139301528Y-100271734D01*
X139312677Y-100211577D01*
X139357058Y-100169458D01*
X139417720Y-100161470D01*
X139437562Y-100167348D01*
X139483390Y-100186330D01*
X139627099Y-100205250D01*
X139770808Y-100186330D01*
X139904724Y-100130861D01*
X140019720Y-100042621D01*
X140107960Y-99927625D01*
X140163429Y-99793709D01*
X140182349Y-99650000D01*
X140163429Y-99506291D01*
X140163424Y-99506280D01*
X140162777Y-99503862D01*
X140162871Y-99502056D01*
X140162582Y-99499858D01*
X140162989Y-99499804D01*
X140165973Y-99442760D01*
X140172660Y-99428737D01*
X140180021Y-99415989D01*
X140200500Y-99339562D01*
X140200500Y-97439422D01*
X140180021Y-97362995D01*
X140140460Y-97294473D01*
X140117756Y-97271769D01*
X140084511Y-97238523D01*
X140084511Y-97238524D01*
X139762291Y-96916304D01*
X139734514Y-96861787D01*
X139740830Y-96808419D01*
X139752308Y-96780708D01*
X139792044Y-96734186D01*
X139851539Y-96719903D01*
X139904038Y-96740057D01*
X139907378Y-96742620D01*
X139907379Y-96742621D01*
X139947215Y-96773188D01*
X140022369Y-96830857D01*
X140022371Y-96830858D01*
X140022375Y-96830861D01*
X140156291Y-96886330D01*
X140300000Y-96905250D01*
X140443709Y-96886330D01*
X140577625Y-96830861D01*
X140692621Y-96742621D01*
X140780861Y-96627625D01*
X140836330Y-96493709D01*
X140855250Y-96350000D01*
X140846243Y-96281590D01*
X140836330Y-96206291D01*
X140780861Y-96072375D01*
X140692621Y-95957379D01*
X140692620Y-95957378D01*
X140692617Y-95957374D01*
X140639232Y-95916410D01*
X140604577Y-95865986D01*
X140600500Y-95837869D01*
X140600500Y-95299423D01*
X140592548Y-95269747D01*
X140583080Y-95234410D01*
X140580022Y-95222996D01*
X140540460Y-95154473D01*
X139762291Y-94376304D01*
X139734514Y-94321787D01*
X139740830Y-94268418D01*
X139774540Y-94187036D01*
X139800500Y-94056531D01*
X139800500Y-93923469D01*
X139774540Y-93792964D01*
X139723620Y-93670031D01*
X139649695Y-93559394D01*
X139555606Y-93465305D01*
X139555600Y-93465301D01*
X139513717Y-93437316D01*
X139475837Y-93389266D01*
X139473435Y-93328128D01*
X139507427Y-93277254D01*
X139513717Y-93272684D01*
X139555606Y-93244695D01*
X139649695Y-93150606D01*
X139723620Y-93039969D01*
X139774540Y-92917036D01*
X139800500Y-92786531D01*
X139800500Y-92653469D01*
X139774540Y-92522964D01*
X139723620Y-92400031D01*
X139649695Y-92289394D01*
X139555606Y-92195305D01*
X139555600Y-92195301D01*
X139513717Y-92167316D01*
X139475837Y-92119266D01*
X139473435Y-92058128D01*
X139507427Y-92007254D01*
X139513717Y-92002684D01*
X139555606Y-91974695D01*
X139649695Y-91880606D01*
X139723620Y-91769969D01*
X139774540Y-91647036D01*
X139800500Y-91516531D01*
X139800500Y-91383469D01*
X139774540Y-91252964D01*
X139727542Y-91139500D01*
X139723621Y-91130033D01*
X139683722Y-91070320D01*
X139649695Y-91019394D01*
X139555606Y-90925305D01*
X139555600Y-90925301D01*
X139513717Y-90897316D01*
X139475837Y-90849266D01*
X139473435Y-90788128D01*
X139507427Y-90737254D01*
X139513717Y-90732684D01*
X139555606Y-90704695D01*
X139649695Y-90610606D01*
X139723620Y-90499969D01*
X139774540Y-90377036D01*
X139800500Y-90246531D01*
X139800500Y-90113469D01*
X139774540Y-89982964D01*
X139723620Y-89860031D01*
X139649695Y-89749394D01*
X139555606Y-89655305D01*
X139555600Y-89655301D01*
X139513717Y-89627316D01*
X139475837Y-89579266D01*
X139473435Y-89518128D01*
X139507427Y-89467254D01*
X139513717Y-89462684D01*
X139555606Y-89434695D01*
X139649695Y-89340606D01*
X139723620Y-89229969D01*
X139774540Y-89107036D01*
X139800500Y-88976531D01*
X139800500Y-88843469D01*
X139774540Y-88712964D01*
X139733135Y-88613002D01*
X139723621Y-88590033D01*
X139683722Y-88530320D01*
X139649695Y-88479394D01*
X139555606Y-88385305D01*
X139555600Y-88385301D01*
X139513717Y-88357316D01*
X139475837Y-88309266D01*
X139473435Y-88248128D01*
X139507427Y-88197254D01*
X139513717Y-88192684D01*
X139555606Y-88164695D01*
X139649695Y-88070606D01*
X139723620Y-87959969D01*
X139774540Y-87837036D01*
X139800500Y-87706531D01*
X139800500Y-87573469D01*
X139774540Y-87442964D01*
X139723620Y-87320031D01*
X139649695Y-87209394D01*
X139555606Y-87115305D01*
X139555600Y-87115301D01*
X139513717Y-87087316D01*
X139475837Y-87039266D01*
X139473435Y-86978128D01*
X139507427Y-86927254D01*
X139513717Y-86922684D01*
X139555606Y-86894695D01*
X139649695Y-86800606D01*
X139723620Y-86689969D01*
X139774540Y-86567036D01*
X139800500Y-86436531D01*
X139800500Y-86303469D01*
X139774540Y-86172964D01*
X139723620Y-86050031D01*
X139649695Y-85939394D01*
X139555606Y-85845305D01*
X139555600Y-85845301D01*
X139513717Y-85817316D01*
X139475837Y-85769266D01*
X139473435Y-85708128D01*
X139507427Y-85657254D01*
X139513717Y-85652684D01*
X139555606Y-85624695D01*
X139649695Y-85530606D01*
X139723620Y-85419969D01*
X139774540Y-85297036D01*
X139800500Y-85166531D01*
X139800500Y-85033469D01*
X139774540Y-84902964D01*
X139723620Y-84780031D01*
X139649695Y-84669394D01*
X139555606Y-84575305D01*
X139555600Y-84575301D01*
X139513717Y-84547316D01*
X139475837Y-84499266D01*
X139473435Y-84438128D01*
X139507427Y-84387254D01*
X139513717Y-84382684D01*
X139555606Y-84354695D01*
X139649695Y-84260606D01*
X139723620Y-84149969D01*
X139774540Y-84027036D01*
X139800500Y-83896531D01*
X139800500Y-83763469D01*
X139774540Y-83632964D01*
X139723620Y-83510031D01*
X139649695Y-83399394D01*
X139555606Y-83305305D01*
X139555600Y-83305301D01*
X139513717Y-83277316D01*
X139475837Y-83229266D01*
X139473435Y-83168128D01*
X139507427Y-83117254D01*
X139513717Y-83112684D01*
X139533333Y-83099577D01*
X139555606Y-83084695D01*
X139649695Y-82990606D01*
X139723620Y-82879969D01*
X139774540Y-82757036D01*
X139800500Y-82626531D01*
X139800500Y-82493469D01*
X139774540Y-82362964D01*
X139723620Y-82240031D01*
X139649695Y-82129394D01*
X139555606Y-82035305D01*
X139555600Y-82035301D01*
X139513717Y-82007316D01*
X139475837Y-81959266D01*
X139473435Y-81898128D01*
X139507427Y-81847254D01*
X139513717Y-81842684D01*
X139555606Y-81814695D01*
X139649695Y-81720606D01*
X139723620Y-81609969D01*
X139774540Y-81487036D01*
X139800500Y-81356531D01*
X139800500Y-81223469D01*
X139774540Y-81092964D01*
X139749080Y-81031497D01*
X139723621Y-80970033D01*
X139649697Y-80859397D01*
X139649695Y-80859394D01*
X139555606Y-80765305D01*
X139550604Y-80761963D01*
X139444966Y-80691378D01*
X139322037Y-80640460D01*
X139191531Y-80614500D01*
X138008469Y-80614500D01*
X138008468Y-80614500D01*
X137877962Y-80640460D01*
X137755032Y-80691378D01*
X137689538Y-80735140D01*
X137630649Y-80751748D01*
X137573246Y-80730570D01*
X137552221Y-80707825D01*
X137544192Y-80695809D01*
X137544189Y-80695806D01*
X137478036Y-80651603D01*
X137419700Y-80640000D01*
X136850001Y-80640000D01*
X136850000Y-80640001D01*
X136850000Y-81065735D01*
X136809940Y-81105795D01*
X136770444Y-81174204D01*
X136750000Y-81250504D01*
X136750000Y-81329496D01*
X136765592Y-81387689D01*
X136751000Y-81390000D01*
X135900001Y-81390000D01*
X135900000Y-81390001D01*
X135900000Y-81759700D01*
X135911603Y-81818036D01*
X135946023Y-81869548D01*
X135962632Y-81928437D01*
X135946024Y-81979551D01*
X135911134Y-82031767D01*
X135911132Y-82031772D01*
X135899501Y-82090241D01*
X135899500Y-82090253D01*
X135899500Y-83029746D01*
X135899501Y-83029758D01*
X135911132Y-83088227D01*
X135911134Y-83088233D01*
X135945723Y-83139998D01*
X135962332Y-83198886D01*
X135945723Y-83250002D01*
X135911134Y-83301766D01*
X135911132Y-83301772D01*
X135899501Y-83360241D01*
X135899500Y-83360253D01*
X135899500Y-84299746D01*
X135899501Y-84299758D01*
X135911132Y-84358227D01*
X135911134Y-84358233D01*
X135945723Y-84409998D01*
X135962332Y-84468886D01*
X135945723Y-84520002D01*
X135911134Y-84571766D01*
X135911132Y-84571772D01*
X135899501Y-84630241D01*
X135899500Y-84630253D01*
X135899500Y-85569746D01*
X135899501Y-85569758D01*
X135911132Y-85628227D01*
X135911134Y-85628233D01*
X135945723Y-85679998D01*
X135962332Y-85738886D01*
X135945723Y-85790002D01*
X135911134Y-85841766D01*
X135911132Y-85841772D01*
X135899501Y-85900241D01*
X135899500Y-85900253D01*
X135899500Y-86839746D01*
X135899501Y-86839758D01*
X135911132Y-86898227D01*
X135911134Y-86898233D01*
X135945723Y-86949998D01*
X135962332Y-87008886D01*
X135945723Y-87060002D01*
X135911134Y-87111766D01*
X135911132Y-87111772D01*
X135899501Y-87170241D01*
X135899500Y-87170253D01*
X135899500Y-87241198D01*
X135880593Y-87299389D01*
X135831093Y-87335353D01*
X135826124Y-87336824D01*
X135777033Y-87349978D01*
X135777029Y-87349980D01*
X135708513Y-87389538D01*
X135077000Y-88021051D01*
X135076999Y-88021050D01*
X135021050Y-88077000D01*
X134981491Y-88145518D01*
X134981489Y-88145522D01*
X134961011Y-88221946D01*
X134961011Y-88536474D01*
X134942104Y-88594665D01*
X134892604Y-88630629D01*
X134831418Y-88630629D01*
X134799207Y-88613002D01*
X134698458Y-88530320D01*
X134698452Y-88530316D01*
X134515954Y-88432768D01*
X134317934Y-88372699D01*
X134317929Y-88372698D01*
X134112003Y-88352417D01*
X134111997Y-88352417D01*
X133906070Y-88372698D01*
X133906065Y-88372699D01*
X133708045Y-88432768D01*
X133525547Y-88530316D01*
X133365595Y-88661585D01*
X133365585Y-88661595D01*
X133234316Y-88821547D01*
X133136768Y-89004045D01*
X133076699Y-89202065D01*
X133076698Y-89202070D01*
X133056417Y-89407996D01*
X132788500Y-89407996D01*
X132788500Y-86867996D01*
X133056417Y-86867996D01*
X133056417Y-86868003D01*
X133076698Y-87073929D01*
X133076699Y-87073934D01*
X133136768Y-87271954D01*
X133234316Y-87454452D01*
X133365585Y-87614404D01*
X133365590Y-87614410D01*
X133365595Y-87614414D01*
X133525547Y-87745683D01*
X133525548Y-87745683D01*
X133525550Y-87745685D01*
X133708046Y-87843232D01*
X133845997Y-87885078D01*
X133906065Y-87903300D01*
X133906070Y-87903301D01*
X134111997Y-87923583D01*
X134112000Y-87923583D01*
X134112003Y-87923583D01*
X134317929Y-87903301D01*
X134317934Y-87903300D01*
X134515954Y-87843232D01*
X134698450Y-87745685D01*
X134858410Y-87614410D01*
X134989685Y-87454450D01*
X135087232Y-87271954D01*
X135147300Y-87073934D01*
X135147301Y-87073929D01*
X135167583Y-86868003D01*
X135167583Y-86867996D01*
X135147301Y-86662070D01*
X135147300Y-86662065D01*
X135129078Y-86601997D01*
X135087232Y-86464046D01*
X134989685Y-86281550D01*
X134858410Y-86121590D01*
X134768356Y-86047685D01*
X134698452Y-85990316D01*
X134515954Y-85892768D01*
X134317934Y-85832699D01*
X134317929Y-85832698D01*
X134112003Y-85812417D01*
X134111997Y-85812417D01*
X133906070Y-85832698D01*
X133906065Y-85832699D01*
X133708045Y-85892768D01*
X133525547Y-85990316D01*
X133365595Y-86121585D01*
X133365585Y-86121595D01*
X133234316Y-86281547D01*
X133136768Y-86464045D01*
X133076699Y-86662065D01*
X133076698Y-86662070D01*
X133056417Y-86867996D01*
X132788500Y-86867996D01*
X132788500Y-84327996D01*
X133056417Y-84327996D01*
X133056417Y-84328003D01*
X133076698Y-84533929D01*
X133076699Y-84533934D01*
X133136768Y-84731954D01*
X133234316Y-84914452D01*
X133365585Y-85074404D01*
X133365590Y-85074410D01*
X133365595Y-85074414D01*
X133525547Y-85205683D01*
X133525548Y-85205683D01*
X133525550Y-85205685D01*
X133708046Y-85303232D01*
X133845997Y-85345078D01*
X133906065Y-85363300D01*
X133906070Y-85363301D01*
X134111997Y-85383583D01*
X134112000Y-85383583D01*
X134112003Y-85383583D01*
X134317929Y-85363301D01*
X134317934Y-85363300D01*
X134515954Y-85303232D01*
X134698450Y-85205685D01*
X134858410Y-85074410D01*
X134989685Y-84914450D01*
X135087232Y-84731954D01*
X135147300Y-84533934D01*
X135147301Y-84533929D01*
X135167583Y-84328003D01*
X135167583Y-84327996D01*
X135147301Y-84122070D01*
X135147300Y-84122065D01*
X135125344Y-84049685D01*
X135087232Y-83924046D01*
X134989685Y-83741550D01*
X134858410Y-83581590D01*
X134771215Y-83510031D01*
X134698452Y-83450316D01*
X134515954Y-83352768D01*
X134317934Y-83292699D01*
X134317929Y-83292698D01*
X134112003Y-83272417D01*
X134111997Y-83272417D01*
X133906070Y-83292698D01*
X133906065Y-83292699D01*
X133708045Y-83352768D01*
X133525547Y-83450316D01*
X133365595Y-83581585D01*
X133365585Y-83581595D01*
X133234316Y-83741547D01*
X133136768Y-83924045D01*
X133076699Y-84122065D01*
X133076698Y-84122070D01*
X133056417Y-84327996D01*
X132788500Y-84327996D01*
X132788500Y-80918299D01*
X133062000Y-80918299D01*
X133062000Y-81687999D01*
X133062001Y-81688000D01*
X133621157Y-81688000D01*
X133612000Y-81722174D01*
X133612000Y-81853826D01*
X133621157Y-81888000D01*
X133062001Y-81888000D01*
X133062000Y-81888001D01*
X133062000Y-82657700D01*
X133073603Y-82716036D01*
X133117806Y-82782189D01*
X133117810Y-82782193D01*
X133183963Y-82826396D01*
X133242299Y-82837999D01*
X133242303Y-82838000D01*
X134011999Y-82838000D01*
X134012000Y-82837999D01*
X134012000Y-82278842D01*
X134046174Y-82288000D01*
X134177826Y-82288000D01*
X134212000Y-82278842D01*
X134212000Y-82837999D01*
X134212001Y-82838000D01*
X134981697Y-82838000D01*
X134981700Y-82837999D01*
X135040036Y-82826396D01*
X135106189Y-82782193D01*
X135106193Y-82782189D01*
X135150396Y-82716036D01*
X135161999Y-82657700D01*
X135162000Y-82657697D01*
X135162000Y-81888001D01*
X135161999Y-81888000D01*
X134602843Y-81888000D01*
X134612000Y-81853826D01*
X134612000Y-81722174D01*
X134602843Y-81688000D01*
X135161999Y-81688000D01*
X135162000Y-81687999D01*
X135162000Y-80918302D01*
X135161999Y-80918299D01*
X135150396Y-80859963D01*
X135123893Y-80820299D01*
X135900000Y-80820299D01*
X135900000Y-81189999D01*
X135900001Y-81190000D01*
X136649999Y-81190000D01*
X136650000Y-81189999D01*
X136650000Y-80640001D01*
X136649999Y-80640000D01*
X136080299Y-80640000D01*
X136021963Y-80651603D01*
X135955810Y-80695806D01*
X135955806Y-80695810D01*
X135911603Y-80761963D01*
X135900000Y-80820299D01*
X135123893Y-80820299D01*
X135106193Y-80793810D01*
X135106189Y-80793806D01*
X135040036Y-80749603D01*
X134981700Y-80738000D01*
X134212001Y-80738000D01*
X134212000Y-80738001D01*
X134212000Y-81297157D01*
X134177826Y-81288000D01*
X134046174Y-81288000D01*
X134012000Y-81297157D01*
X134012000Y-80738001D01*
X134011999Y-80738000D01*
X133242299Y-80738000D01*
X133183963Y-80749603D01*
X133117810Y-80793806D01*
X133117806Y-80793810D01*
X133073603Y-80859963D01*
X133062000Y-80918299D01*
X132788500Y-80918299D01*
X132788500Y-80399500D01*
X132807407Y-80341309D01*
X132856907Y-80305345D01*
X132887500Y-80300500D01*
X163276500Y-80300500D01*
X163334691Y-80319407D01*
G37*
G04 #@! TD.AperFunction*
D23*
X132588000Y-80100000D02*
X163576000Y-80100000D01*
X163576000Y-131580000D02*
X132588000Y-131580000D01*
X163576000Y-80100000D02*
X163576000Y-131580000D01*
X132588000Y-131580000D02*
X132588000Y-80100000D01*
M02*
