G04 #@! TF.GenerationSoftware,KiCad,Pcbnew,8.0.4-8.0.4-0~ubuntu24.04.1*
G04 #@! TF.CreationDate,2024-08-17T13:37:00+02:00*
G04 #@! TF.ProjectId,ESP32-C3-WROOM_flexypin,45535033-322d-4433-932d-57524f4f4d5f,rev?*
G04 #@! TF.SameCoordinates,Original*
G04 #@! TF.FileFunction,Soldermask,Top*
G04 #@! TF.FilePolarity,Negative*
%FSLAX46Y46*%
G04 Gerber Fmt 4.6, Leading zero omitted, Abs format (unit mm)*
G04 Created by KiCad (PCBNEW 8.0.4-8.0.4-0~ubuntu24.04.1) date 2024-08-17 13:37:00*
%MOMM*%
%LPD*%
G01*
G04 APERTURE LIST*
%ADD10C,0.000000*%
%ADD11R,1.700000X1.700000*%
%ADD12O,1.700000X1.700000*%
%ADD13O,2.000000X0.950000*%
%ADD14R,1.300000X0.900000*%
%ADD15C,0.650000*%
%ADD16R,0.600000X1.240000*%
%ADD17R,0.300000X1.240000*%
%ADD18O,1.000000X2.100000*%
%ADD19O,1.000000X1.800000*%
G04 #@! TA.AperFunction,Profile*
%ADD20C,0.100000*%
G04 #@! TD*
G04 APERTURE END LIST*
D10*
G36*
X148106217Y-105246953D02*
G01*
X148110875Y-105247198D01*
X148115532Y-105247635D01*
X148120187Y-105248280D01*
X148128756Y-105249306D01*
X148137329Y-105250519D01*
X148145890Y-105251934D01*
X148154424Y-105253562D01*
X148162914Y-105255417D01*
X148171347Y-105257512D01*
X148179706Y-105259859D01*
X148187975Y-105262472D01*
X148196139Y-105265364D01*
X148204184Y-105268547D01*
X148212092Y-105272035D01*
X148219849Y-105275841D01*
X148227439Y-105279977D01*
X148234847Y-105284456D01*
X148242057Y-105289292D01*
X148249053Y-105294497D01*
X148258727Y-105303023D01*
X148263506Y-105307382D01*
X148268181Y-105311849D01*
X148270465Y-105314134D01*
X148272704Y-105316458D01*
X148274893Y-105318826D01*
X148277025Y-105321242D01*
X148279095Y-105323709D01*
X148281096Y-105326232D01*
X148283023Y-105328816D01*
X148284868Y-105331463D01*
X148284923Y-105331814D01*
X148284959Y-105332148D01*
X148284977Y-105332468D01*
X148284976Y-105332774D01*
X148284968Y-105332922D01*
X148284955Y-105333067D01*
X148284938Y-105333210D01*
X148284915Y-105333350D01*
X148284887Y-105333487D01*
X148284854Y-105333622D01*
X148284816Y-105333754D01*
X148284773Y-105333885D01*
X148284724Y-105334013D01*
X148284670Y-105334140D01*
X148284610Y-105334265D01*
X148284545Y-105334388D01*
X148284475Y-105334511D01*
X148284398Y-105334632D01*
X148284316Y-105334751D01*
X148284229Y-105334870D01*
X148284135Y-105334988D01*
X148284036Y-105335106D01*
X148283819Y-105335339D01*
X148283579Y-105335572D01*
X148283313Y-105335805D01*
X148272127Y-105341754D01*
X148261068Y-105347956D01*
X148250137Y-105354400D01*
X148239340Y-105361074D01*
X148228679Y-105367967D01*
X148218157Y-105375068D01*
X148207778Y-105382366D01*
X148197545Y-105389849D01*
X148191517Y-105394316D01*
X148185564Y-105398872D01*
X148173868Y-105408241D01*
X148162442Y-105417929D01*
X148151270Y-105427911D01*
X148140336Y-105438161D01*
X148129626Y-105448654D01*
X148119122Y-105459362D01*
X148108810Y-105470262D01*
X148108473Y-105470545D01*
X148108140Y-105470855D01*
X148107811Y-105471191D01*
X148107484Y-105471549D01*
X148106837Y-105472318D01*
X148106195Y-105473138D01*
X148104901Y-105474830D01*
X148104240Y-105475653D01*
X148103563Y-105476429D01*
X148103216Y-105476790D01*
X148102864Y-105477131D01*
X148102505Y-105477447D01*
X148102139Y-105477736D01*
X148101764Y-105477994D01*
X148101382Y-105478218D01*
X148100990Y-105478406D01*
X148100588Y-105478553D01*
X148100175Y-105478658D01*
X148099752Y-105478717D01*
X148099317Y-105478727D01*
X148098869Y-105478684D01*
X148098409Y-105478586D01*
X148097935Y-105478430D01*
X148097446Y-105478212D01*
X148096942Y-105477930D01*
X148087690Y-105467651D01*
X148078223Y-105457576D01*
X148068544Y-105447709D01*
X148058657Y-105438057D01*
X148048567Y-105428622D01*
X148038277Y-105419410D01*
X148027792Y-105410425D01*
X148017115Y-105401672D01*
X148006250Y-105393156D01*
X147995202Y-105384881D01*
X147983974Y-105376851D01*
X147972570Y-105369072D01*
X147960995Y-105361548D01*
X147949251Y-105354283D01*
X147937345Y-105347283D01*
X147925278Y-105340551D01*
X147924956Y-105340290D01*
X147924610Y-105340039D01*
X147924243Y-105339798D01*
X147923857Y-105339566D01*
X147923037Y-105339121D01*
X147922171Y-105338694D01*
X147920375Y-105337856D01*
X147919486Y-105337424D01*
X147918628Y-105336972D01*
X147918217Y-105336734D01*
X147917822Y-105336488D01*
X147917444Y-105336231D01*
X147917086Y-105335962D01*
X147916750Y-105335681D01*
X147916440Y-105335386D01*
X147916157Y-105335076D01*
X147915905Y-105334749D01*
X147915684Y-105334404D01*
X147915499Y-105334041D01*
X147915350Y-105333657D01*
X147915242Y-105333252D01*
X147915175Y-105332824D01*
X147915153Y-105332372D01*
X147915179Y-105331895D01*
X147915253Y-105331391D01*
X147916097Y-105330133D01*
X147916977Y-105328895D01*
X147917889Y-105327676D01*
X147918831Y-105326472D01*
X147919800Y-105325284D01*
X147920791Y-105324110D01*
X147922829Y-105321796D01*
X147924919Y-105319518D01*
X147927034Y-105317265D01*
X147931235Y-105312785D01*
X147937073Y-105306992D01*
X147943161Y-105301508D01*
X147949484Y-105296326D01*
X147956026Y-105291442D01*
X147962772Y-105286850D01*
X147969706Y-105282546D01*
X147976813Y-105278524D01*
X147984078Y-105274780D01*
X147991486Y-105271308D01*
X147999022Y-105268102D01*
X148006669Y-105265159D01*
X148014413Y-105262473D01*
X148022238Y-105260038D01*
X148030130Y-105257850D01*
X148038073Y-105255904D01*
X148046051Y-105254194D01*
X148064423Y-105250839D01*
X148073671Y-105249319D01*
X148082949Y-105248071D01*
X148087596Y-105247587D01*
X148092248Y-105247218D01*
X148096903Y-105246979D01*
X148101559Y-105246885D01*
X148106217Y-105246953D01*
G37*
G36*
X148127695Y-105101900D02*
G01*
X148151861Y-105104683D01*
X148164028Y-105106488D01*
X148176235Y-105108598D01*
X148188467Y-105111037D01*
X148200713Y-105113825D01*
X148212959Y-105116986D01*
X148225193Y-105120542D01*
X148237402Y-105124515D01*
X148249572Y-105128927D01*
X148261690Y-105133801D01*
X148273745Y-105139160D01*
X148285722Y-105145024D01*
X148297609Y-105151417D01*
X148305986Y-105156313D01*
X148314255Y-105161509D01*
X148322411Y-105167003D01*
X148330451Y-105172792D01*
X148338367Y-105178873D01*
X148346157Y-105185244D01*
X148353813Y-105191903D01*
X148361332Y-105198846D01*
X148368708Y-105206070D01*
X148375937Y-105213575D01*
X148383012Y-105221356D01*
X148389930Y-105229412D01*
X148396684Y-105237739D01*
X148403271Y-105246336D01*
X148409684Y-105255199D01*
X148415919Y-105264326D01*
X148443640Y-105259692D01*
X148471284Y-105256774D01*
X148498772Y-105255550D01*
X148526023Y-105255998D01*
X148552957Y-105258094D01*
X148579494Y-105261817D01*
X148605552Y-105267144D01*
X148631052Y-105274053D01*
X148655913Y-105282521D01*
X148680056Y-105292526D01*
X148703398Y-105304046D01*
X148725861Y-105317057D01*
X148747364Y-105331538D01*
X148767826Y-105347466D01*
X148787167Y-105364819D01*
X148805306Y-105383574D01*
X148820972Y-105402356D01*
X148835185Y-105422276D01*
X148847910Y-105443270D01*
X148859112Y-105465272D01*
X148868757Y-105488218D01*
X148876808Y-105512044D01*
X148883232Y-105536685D01*
X148887993Y-105562077D01*
X148891057Y-105588155D01*
X148892387Y-105614855D01*
X148891951Y-105642112D01*
X148889711Y-105669862D01*
X148885634Y-105698040D01*
X148879684Y-105726581D01*
X148871827Y-105755422D01*
X148862027Y-105784498D01*
X148933159Y-105795906D01*
X149002012Y-105808684D01*
X149035477Y-105815712D01*
X149068243Y-105823232D01*
X149100266Y-105831294D01*
X149131504Y-105839949D01*
X149161913Y-105849245D01*
X149191450Y-105859233D01*
X149220072Y-105869962D01*
X149247736Y-105881483D01*
X149274398Y-105893846D01*
X149300015Y-105907099D01*
X149324545Y-105921294D01*
X149347943Y-105936479D01*
X149361412Y-105946173D01*
X149374457Y-105956443D01*
X149387033Y-105967277D01*
X149399093Y-105978662D01*
X149410589Y-105990585D01*
X149421475Y-106003034D01*
X149431704Y-106015996D01*
X149441230Y-106029457D01*
X149450006Y-106043406D01*
X149457985Y-106057828D01*
X149465121Y-106072712D01*
X149471366Y-106088044D01*
X149476675Y-106103811D01*
X149481000Y-106120002D01*
X149484294Y-106136603D01*
X149486512Y-106153600D01*
X149487668Y-106170837D01*
X149487818Y-106188169D01*
X149486976Y-106205602D01*
X149485153Y-106223143D01*
X149482364Y-106240798D01*
X149478620Y-106258573D01*
X149473936Y-106276476D01*
X149468324Y-106294513D01*
X149461797Y-106312690D01*
X149454368Y-106331014D01*
X149446050Y-106349491D01*
X149436856Y-106368128D01*
X149426799Y-106386931D01*
X149415892Y-106405907D01*
X149404148Y-106425063D01*
X149391580Y-106444405D01*
X149390920Y-106445380D01*
X149390246Y-106446346D01*
X149389559Y-106447302D01*
X149388858Y-106448249D01*
X149388145Y-106449185D01*
X149387418Y-106450112D01*
X149386678Y-106451029D01*
X149385926Y-106451935D01*
X149364979Y-106475875D01*
X149343761Y-106498323D01*
X149322291Y-106519289D01*
X149300591Y-106538783D01*
X149278682Y-106556818D01*
X149256584Y-106573404D01*
X149234317Y-106588551D01*
X149211903Y-106602271D01*
X149189362Y-106614575D01*
X149166714Y-106625473D01*
X149143981Y-106634976D01*
X149121183Y-106643096D01*
X149098341Y-106649843D01*
X149075475Y-106655228D01*
X149052606Y-106659262D01*
X149029755Y-106661956D01*
X149007041Y-106663354D01*
X148984578Y-106663528D01*
X148962376Y-106662534D01*
X148940444Y-106660428D01*
X148918794Y-106657264D01*
X148897434Y-106653098D01*
X148876375Y-106647986D01*
X148855627Y-106641982D01*
X148835201Y-106635142D01*
X148815106Y-106627521D01*
X148795352Y-106619174D01*
X148775950Y-106610158D01*
X148756909Y-106600526D01*
X148738240Y-106590335D01*
X148719953Y-106579640D01*
X148702058Y-106568495D01*
X148693828Y-106563137D01*
X148685668Y-106557672D01*
X148677575Y-106552108D01*
X148669547Y-106546453D01*
X148661581Y-106540715D01*
X148653676Y-106534902D01*
X148638035Y-106523083D01*
X148645333Y-106556526D01*
X148651222Y-106589138D01*
X148655716Y-106620913D01*
X148658832Y-106651842D01*
X148660585Y-106681916D01*
X148660989Y-106711127D01*
X148660061Y-106739468D01*
X148657816Y-106766929D01*
X148654268Y-106793503D01*
X148649434Y-106819181D01*
X148643329Y-106843955D01*
X148635968Y-106867817D01*
X148627366Y-106890759D01*
X148617539Y-106912772D01*
X148606503Y-106933847D01*
X148594271Y-106953978D01*
X148582897Y-106970299D01*
X148570682Y-106985724D01*
X148557677Y-107000237D01*
X148543930Y-107013825D01*
X148529492Y-107026474D01*
X148514412Y-107038169D01*
X148498738Y-107048897D01*
X148482521Y-107058644D01*
X148465810Y-107067395D01*
X148448653Y-107075136D01*
X148431102Y-107081854D01*
X148413204Y-107087534D01*
X148395010Y-107092162D01*
X148376569Y-107095724D01*
X148357930Y-107098207D01*
X148339142Y-107099595D01*
X148323932Y-107099927D01*
X148308693Y-107099581D01*
X148293438Y-107098565D01*
X148278179Y-107096889D01*
X148262928Y-107094561D01*
X148247697Y-107091591D01*
X148232498Y-107087988D01*
X148217343Y-107083760D01*
X148202243Y-107078917D01*
X148187212Y-107073468D01*
X148172261Y-107067421D01*
X148157402Y-107060787D01*
X148142647Y-107053573D01*
X148128007Y-107045790D01*
X148113496Y-107037445D01*
X148099125Y-107028548D01*
X148084765Y-107037443D01*
X148070265Y-107045787D01*
X148055637Y-107053570D01*
X148040894Y-107060783D01*
X148026048Y-107067417D01*
X148011110Y-107073464D01*
X147996093Y-107078914D01*
X147981008Y-107083757D01*
X147965867Y-107087986D01*
X147950683Y-107091590D01*
X147935468Y-107094561D01*
X147920233Y-107096889D01*
X147904990Y-107098566D01*
X147889752Y-107099582D01*
X147874530Y-107099928D01*
X147859337Y-107099595D01*
X147840570Y-107098205D01*
X147821953Y-107095717D01*
X147803534Y-107092148D01*
X147785364Y-107087511D01*
X147767491Y-107081820D01*
X147749965Y-107075090D01*
X147732837Y-107067336D01*
X147716155Y-107058571D01*
X147699968Y-107048810D01*
X147684328Y-107038067D01*
X147669282Y-107026357D01*
X147654881Y-107013695D01*
X147641175Y-107000093D01*
X147628212Y-106985567D01*
X147616042Y-106970132D01*
X147604715Y-106953800D01*
X147592548Y-106933672D01*
X147581574Y-106912602D01*
X147571808Y-106890598D01*
X147563266Y-106867669D01*
X147555962Y-106843821D01*
X147549911Y-106819065D01*
X147545129Y-106793407D01*
X147541632Y-106766856D01*
X147539433Y-106739419D01*
X147538548Y-106711106D01*
X147538554Y-106710772D01*
X147709765Y-106710772D01*
X147710156Y-106727360D01*
X147711121Y-106743227D01*
X147714662Y-106772788D01*
X147720167Y-106799446D01*
X147723587Y-106811684D01*
X147727417Y-106823192D01*
X147731628Y-106833970D01*
X147736193Y-106844017D01*
X147741085Y-106853331D01*
X147746276Y-106861911D01*
X147752005Y-106870268D01*
X147757957Y-106878038D01*
X147764138Y-106885230D01*
X147770549Y-106891856D01*
X147777195Y-106897925D01*
X147784080Y-106903448D01*
X147791206Y-106908436D01*
X147798579Y-106912900D01*
X147806201Y-106916849D01*
X147814075Y-106920295D01*
X147822207Y-106923247D01*
X147830599Y-106925717D01*
X147839254Y-106927715D01*
X147848178Y-106929251D01*
X147857372Y-106930336D01*
X147866842Y-106930980D01*
X147876598Y-106931142D01*
X147886637Y-106930763D01*
X147896936Y-106929830D01*
X147907476Y-106928328D01*
X147918235Y-106926242D01*
X147929192Y-106923559D01*
X147940326Y-106920264D01*
X147951617Y-106916342D01*
X147963042Y-106911781D01*
X147974582Y-106906564D01*
X147986215Y-106900679D01*
X147997920Y-106894111D01*
X148009676Y-106886845D01*
X148021462Y-106878867D01*
X148033258Y-106870163D01*
X148045042Y-106860719D01*
X148047924Y-106859383D01*
X148050851Y-106858159D01*
X148053820Y-106857045D01*
X148056827Y-106856045D01*
X148059870Y-106855158D01*
X148062946Y-106854385D01*
X148066050Y-106853729D01*
X148069180Y-106853189D01*
X148070934Y-106852280D01*
X148072707Y-106851413D01*
X148074498Y-106850588D01*
X148076307Y-106849806D01*
X148078132Y-106849067D01*
X148079974Y-106848371D01*
X148081831Y-106847718D01*
X148083702Y-106847109D01*
X148085587Y-106846543D01*
X148087485Y-106846022D01*
X148089395Y-106845545D01*
X148091316Y-106845112D01*
X148093248Y-106844725D01*
X148095190Y-106844382D01*
X148097141Y-106844084D01*
X148099100Y-106843832D01*
X148101061Y-106844084D01*
X148103013Y-106844381D01*
X148104957Y-106844723D01*
X148106890Y-106845111D01*
X148108813Y-106845543D01*
X148110725Y-106846020D01*
X148112625Y-106846541D01*
X148114511Y-106847107D01*
X148116384Y-106847716D01*
X148118242Y-106848369D01*
X148120085Y-106849065D01*
X148121912Y-106849804D01*
X148123723Y-106850587D01*
X148125515Y-106851412D01*
X148127290Y-106852279D01*
X148129045Y-106853189D01*
X148132175Y-106853729D01*
X148135280Y-106854385D01*
X148138355Y-106855158D01*
X148141398Y-106856045D01*
X148144406Y-106857045D01*
X148147375Y-106858159D01*
X148150302Y-106859383D01*
X148153184Y-106860719D01*
X148164962Y-106870159D01*
X148176756Y-106878860D01*
X148188544Y-106886835D01*
X148200304Y-106894100D01*
X148212016Y-106900669D01*
X148223659Y-106906554D01*
X148235211Y-106911772D01*
X148246653Y-106916335D01*
X148257962Y-106920257D01*
X148269118Y-106923554D01*
X148280100Y-106926239D01*
X148290887Y-106928326D01*
X148301457Y-106929830D01*
X148311791Y-106930764D01*
X148321866Y-106931142D01*
X148331662Y-106930980D01*
X148341174Y-106930334D01*
X148350413Y-106929245D01*
X148359382Y-106927703D01*
X148368084Y-106925698D01*
X148376524Y-106923219D01*
X148384703Y-106920257D01*
X148388696Y-106918591D01*
X148392626Y-106916800D01*
X148396492Y-106914883D01*
X148400295Y-106912839D01*
X148404036Y-106910667D01*
X148407715Y-106908364D01*
X148411332Y-106905930D01*
X148414888Y-106903363D01*
X148418384Y-106900663D01*
X148421818Y-106897827D01*
X148425193Y-106894855D01*
X148428509Y-106891746D01*
X148431765Y-106888497D01*
X148434963Y-106885109D01*
X148441183Y-106877905D01*
X148447174Y-106870125D01*
X148452938Y-106861758D01*
X148457095Y-106855034D01*
X148461077Y-106847858D01*
X148464870Y-106840230D01*
X148468461Y-106832149D01*
X148471835Y-106823617D01*
X148474978Y-106814634D01*
X148477877Y-106805200D01*
X148480516Y-106795314D01*
X148482884Y-106784979D01*
X148484964Y-106774193D01*
X148486744Y-106762957D01*
X148488209Y-106751272D01*
X148489346Y-106739137D01*
X148490139Y-106726554D01*
X148490576Y-106713521D01*
X148490642Y-106700040D01*
X148489965Y-106678522D01*
X148488285Y-106655923D01*
X148485559Y-106632249D01*
X148481744Y-106607505D01*
X148476797Y-106581696D01*
X148470675Y-106554828D01*
X148463335Y-106526907D01*
X148454735Y-106497936D01*
X148444830Y-106467922D01*
X148433579Y-106436871D01*
X148420939Y-106404786D01*
X148406866Y-106371674D01*
X148391317Y-106337540D01*
X148374250Y-106302389D01*
X148355622Y-106266227D01*
X148335390Y-106229058D01*
X148308204Y-106235389D01*
X148280547Y-106241289D01*
X148252341Y-106246637D01*
X148223508Y-106251313D01*
X148193969Y-106255193D01*
X148163647Y-106258158D01*
X148132463Y-106260086D01*
X148100341Y-106260854D01*
X148099960Y-106260803D01*
X148099771Y-106260829D01*
X148099582Y-106260855D01*
X148083401Y-106260623D01*
X148067465Y-106260086D01*
X148036288Y-106258158D01*
X148005973Y-106255192D01*
X147976442Y-106251311D01*
X147947616Y-106246635D01*
X147919416Y-106241287D01*
X147891766Y-106235387D01*
X147864585Y-106229058D01*
X147847750Y-106259855D01*
X147832036Y-106289951D01*
X147817416Y-106319347D01*
X147803864Y-106348042D01*
X147791351Y-106376033D01*
X147779850Y-106403320D01*
X147769334Y-106429902D01*
X147759776Y-106455778D01*
X147751147Y-106480946D01*
X147743421Y-106505405D01*
X147736570Y-106529155D01*
X147730567Y-106552193D01*
X147725384Y-106574520D01*
X147720993Y-106596133D01*
X147717369Y-106617032D01*
X147714482Y-106637216D01*
X147712305Y-106656682D01*
X147710812Y-106675431D01*
X147709974Y-106693462D01*
X147709765Y-106710772D01*
X147538554Y-106710772D01*
X147538993Y-106681923D01*
X147540782Y-106651880D01*
X147543931Y-106620984D01*
X147548455Y-106589243D01*
X147554368Y-106556666D01*
X147561687Y-106523261D01*
X147546110Y-106535030D01*
X147538239Y-106540821D01*
X147530310Y-106546537D01*
X147522319Y-106552171D01*
X147514263Y-106557714D01*
X147506138Y-106563158D01*
X147497942Y-106568495D01*
X147480047Y-106579639D01*
X147461760Y-106590335D01*
X147443091Y-106600526D01*
X147424051Y-106610157D01*
X147404649Y-106619174D01*
X147384895Y-106627521D01*
X147364800Y-106635141D01*
X147344373Y-106641982D01*
X147323626Y-106647986D01*
X147302567Y-106653098D01*
X147281207Y-106657264D01*
X147259556Y-106660428D01*
X147237624Y-106662534D01*
X147215422Y-106663528D01*
X147192959Y-106663354D01*
X147170245Y-106661956D01*
X147147394Y-106659262D01*
X147124526Y-106655228D01*
X147101660Y-106649843D01*
X147078817Y-106643096D01*
X147056019Y-106634976D01*
X147033286Y-106625473D01*
X147010639Y-106614574D01*
X146988098Y-106602271D01*
X146965684Y-106588551D01*
X146943417Y-106573403D01*
X146921319Y-106556818D01*
X146899409Y-106538783D01*
X146877709Y-106519288D01*
X146856240Y-106498323D01*
X146835021Y-106475875D01*
X146814074Y-106451935D01*
X146813322Y-106451029D01*
X146812582Y-106450112D01*
X146811856Y-106449185D01*
X146811142Y-106448249D01*
X146810442Y-106447302D01*
X146809755Y-106446346D01*
X146809081Y-106445380D01*
X146808420Y-106444404D01*
X146795852Y-106425063D01*
X146784108Y-106405907D01*
X146773201Y-106386931D01*
X146763144Y-106368127D01*
X146753951Y-106349490D01*
X146745633Y-106331013D01*
X146738204Y-106312689D01*
X146731676Y-106294512D01*
X146726064Y-106276476D01*
X146721380Y-106258573D01*
X146717637Y-106240797D01*
X146714847Y-106223142D01*
X146713025Y-106205602D01*
X146712182Y-106188169D01*
X146712280Y-106176835D01*
X146881031Y-106176835D01*
X146881037Y-106184345D01*
X146881521Y-106192385D01*
X146882514Y-106200959D01*
X146884051Y-106210068D01*
X146886164Y-106219716D01*
X146888886Y-106229904D01*
X146892249Y-106240636D01*
X146896288Y-106251914D01*
X146901033Y-106263740D01*
X146906519Y-106276116D01*
X146912778Y-106289047D01*
X146919843Y-106302533D01*
X146927747Y-106316578D01*
X146936523Y-106331184D01*
X146946203Y-106346354D01*
X146962820Y-106365195D01*
X146979181Y-106382491D01*
X146995291Y-106398300D01*
X147011158Y-106412676D01*
X147026789Y-106425677D01*
X147042192Y-106437357D01*
X147057373Y-106447772D01*
X147072338Y-106456979D01*
X147087097Y-106465034D01*
X147101654Y-106471993D01*
X147116018Y-106477910D01*
X147130195Y-106482843D01*
X147144193Y-106486848D01*
X147158018Y-106489979D01*
X147171678Y-106492294D01*
X147185180Y-106493848D01*
X147198787Y-106494677D01*
X147212440Y-106494763D01*
X147226137Y-106494120D01*
X147239874Y-106492765D01*
X147253648Y-106490712D01*
X147267457Y-106487976D01*
X147281298Y-106484573D01*
X147295168Y-106480519D01*
X147309063Y-106475828D01*
X147322982Y-106470516D01*
X147336920Y-106464598D01*
X147350876Y-106458089D01*
X147364846Y-106451005D01*
X147378828Y-106443360D01*
X147392818Y-106435171D01*
X147406814Y-106426453D01*
X147427619Y-106412561D01*
X147447948Y-106397937D01*
X147467805Y-106382658D01*
X147487196Y-106366803D01*
X147506127Y-106350448D01*
X147524603Y-106333673D01*
X147542631Y-106316555D01*
X147560215Y-106299171D01*
X147594075Y-106263921D01*
X147626230Y-106228546D01*
X147656723Y-106193669D01*
X147685600Y-106159914D01*
X147685554Y-106159888D01*
X148514375Y-106159888D01*
X148543254Y-106193645D01*
X148573749Y-106228525D01*
X148605906Y-106263903D01*
X148639769Y-106299157D01*
X148657355Y-106316542D01*
X148675384Y-106333663D01*
X148693863Y-106350440D01*
X148712796Y-106366796D01*
X148732189Y-106382654D01*
X148752048Y-106397934D01*
X148772379Y-106412560D01*
X148793186Y-106426453D01*
X148807182Y-106435171D01*
X148821172Y-106443360D01*
X148835154Y-106451005D01*
X148849124Y-106458089D01*
X148863080Y-106464598D01*
X148877019Y-106470516D01*
X148890937Y-106475828D01*
X148904833Y-106480519D01*
X148918702Y-106484574D01*
X148932543Y-106487976D01*
X148946352Y-106490712D01*
X148960127Y-106492765D01*
X148973863Y-106494120D01*
X148987560Y-106494763D01*
X149001213Y-106494677D01*
X149014820Y-106493848D01*
X149028322Y-106492294D01*
X149041982Y-106489979D01*
X149055807Y-106486848D01*
X149069805Y-106482844D01*
X149083982Y-106477910D01*
X149098346Y-106471993D01*
X149112903Y-106465034D01*
X149127662Y-106456980D01*
X149142627Y-106447772D01*
X149157808Y-106437357D01*
X149173211Y-106425677D01*
X149188842Y-106412677D01*
X149204709Y-106398300D01*
X149220819Y-106382491D01*
X149237180Y-106365195D01*
X149253797Y-106346354D01*
X149263477Y-106331184D01*
X149272253Y-106316578D01*
X149280157Y-106302533D01*
X149287222Y-106289047D01*
X149293481Y-106276117D01*
X149298967Y-106263740D01*
X149303713Y-106251914D01*
X149307751Y-106240636D01*
X149311115Y-106229905D01*
X149313836Y-106219716D01*
X149315949Y-106210069D01*
X149317486Y-106200959D01*
X149318480Y-106192386D01*
X149318963Y-106184345D01*
X149318969Y-106176835D01*
X149318531Y-106169853D01*
X149317709Y-106163125D01*
X149316555Y-106156615D01*
X149315044Y-106150300D01*
X149313152Y-106144158D01*
X149310858Y-106138165D01*
X149308136Y-106132298D01*
X149304964Y-106126535D01*
X149301319Y-106120853D01*
X149297177Y-106115228D01*
X149292514Y-106109637D01*
X149287308Y-106104058D01*
X149281534Y-106098467D01*
X149275170Y-106092842D01*
X149268192Y-106087160D01*
X149260577Y-106081397D01*
X149252301Y-106075530D01*
X149235212Y-106064712D01*
X149215952Y-106054234D01*
X149194622Y-106044094D01*
X149171321Y-106034291D01*
X149146147Y-106024825D01*
X149119199Y-106015695D01*
X149060381Y-105998437D01*
X148995658Y-105982510D01*
X148925824Y-105967906D01*
X148851671Y-105954619D01*
X148773992Y-105942641D01*
X148759507Y-105961001D01*
X148744703Y-105978614D01*
X148729598Y-105995504D01*
X148714211Y-106011692D01*
X148698561Y-106027204D01*
X148682666Y-106042063D01*
X148666546Y-106056291D01*
X148650218Y-106069914D01*
X148633702Y-106082953D01*
X148617015Y-106095434D01*
X148600178Y-106107378D01*
X148583208Y-106118811D01*
X148566124Y-106129754D01*
X148548945Y-106140233D01*
X148531689Y-106150270D01*
X148514375Y-106159888D01*
X147685554Y-106159888D01*
X147668284Y-106150295D01*
X147651025Y-106140258D01*
X147633841Y-106129780D01*
X147616753Y-106118837D01*
X147599777Y-106107406D01*
X147582934Y-106095462D01*
X147566242Y-106082982D01*
X147549720Y-106069943D01*
X147533386Y-106056321D01*
X147517260Y-106042093D01*
X147501359Y-106027234D01*
X147485704Y-106011722D01*
X147470312Y-105995533D01*
X147455203Y-105978643D01*
X147440395Y-105961028D01*
X147425907Y-105942666D01*
X147348245Y-105954644D01*
X147274108Y-105967929D01*
X147238609Y-105975064D01*
X147204289Y-105982529D01*
X147171246Y-105990325D01*
X147139580Y-105998453D01*
X147109390Y-106006913D01*
X147080775Y-106015707D01*
X147053833Y-106024835D01*
X147028664Y-106034299D01*
X147005367Y-106044100D01*
X146984042Y-106054238D01*
X146964786Y-106064714D01*
X146947699Y-106075530D01*
X146939423Y-106081396D01*
X146931808Y-106087159D01*
X146924830Y-106092842D01*
X146918466Y-106098467D01*
X146912693Y-106104058D01*
X146907486Y-106109637D01*
X146902824Y-106115227D01*
X146898681Y-106120852D01*
X146895036Y-106126535D01*
X146891864Y-106132298D01*
X146889143Y-106138164D01*
X146886848Y-106144157D01*
X146884957Y-106150300D01*
X146883446Y-106156614D01*
X146882291Y-106163124D01*
X146881470Y-106169853D01*
X146881031Y-106176835D01*
X146712280Y-106176835D01*
X146712332Y-106170837D01*
X146713488Y-106153600D01*
X146714460Y-106145053D01*
X146715706Y-106136603D01*
X146717221Y-106128252D01*
X146719000Y-106120002D01*
X146721037Y-106111855D01*
X146723325Y-106103812D01*
X146725860Y-106095874D01*
X146728634Y-106088044D01*
X146734879Y-106072712D01*
X146742015Y-106057828D01*
X146749994Y-106043406D01*
X146758770Y-106029457D01*
X146768296Y-106015996D01*
X146778526Y-106003034D01*
X146789412Y-105990586D01*
X146800908Y-105978662D01*
X146812967Y-105967277D01*
X146825543Y-105956443D01*
X146838589Y-105946173D01*
X146852057Y-105936479D01*
X146875453Y-105921295D01*
X146899981Y-105907102D01*
X146925596Y-105893851D01*
X146952255Y-105881490D01*
X146975227Y-105871924D01*
X147587270Y-105871924D01*
X147601394Y-105887429D01*
X147615825Y-105902183D01*
X147630562Y-105916228D01*
X147645606Y-105929604D01*
X147660957Y-105942351D01*
X147676613Y-105954509D01*
X147692575Y-105966118D01*
X147708843Y-105977219D01*
X147725416Y-105987852D01*
X147742294Y-105998057D01*
X147759477Y-106007874D01*
X147776965Y-106017344D01*
X147812853Y-106035404D01*
X147849955Y-106052558D01*
X147879823Y-106060730D01*
X147909789Y-106068207D01*
X147940001Y-106074874D01*
X147970608Y-106080618D01*
X148001759Y-106085323D01*
X148033602Y-106088875D01*
X148049830Y-106090183D01*
X148066287Y-106091159D01*
X148082991Y-106091791D01*
X148099962Y-106092062D01*
X148116931Y-106091791D01*
X148133635Y-106091159D01*
X148150091Y-106090183D01*
X148166319Y-106088875D01*
X148182337Y-106087250D01*
X148198163Y-106085323D01*
X148229316Y-106080618D01*
X148259924Y-106074874D01*
X148290137Y-106068207D01*
X148320102Y-106060730D01*
X148349969Y-106052558D01*
X148387073Y-106035404D01*
X148405169Y-106026508D01*
X148422961Y-106017345D01*
X148440449Y-106007874D01*
X148457632Y-105998057D01*
X148474510Y-105987852D01*
X148491083Y-105977219D01*
X148507351Y-105966118D01*
X148523313Y-105954509D01*
X148538969Y-105942351D01*
X148554319Y-105929604D01*
X148569363Y-105916228D01*
X148584100Y-105902183D01*
X148598530Y-105887429D01*
X148612654Y-105871924D01*
X148583368Y-105852727D01*
X148554045Y-105834103D01*
X148524673Y-105816144D01*
X148495244Y-105798942D01*
X148465747Y-105782588D01*
X148436171Y-105767176D01*
X148406507Y-105752797D01*
X148376744Y-105739542D01*
X148364853Y-105750962D01*
X148352360Y-105762076D01*
X148339244Y-105772829D01*
X148325481Y-105783165D01*
X148311046Y-105793031D01*
X148295918Y-105802371D01*
X148280071Y-105811129D01*
X148263483Y-105819251D01*
X148246131Y-105826683D01*
X148227990Y-105833368D01*
X148209038Y-105839252D01*
X148189251Y-105844280D01*
X148168605Y-105848398D01*
X148147077Y-105851549D01*
X148124643Y-105853679D01*
X148101280Y-105854733D01*
X148100392Y-105854611D01*
X148099948Y-105854546D01*
X148099505Y-105854479D01*
X148099068Y-105854546D01*
X148098631Y-105854611D01*
X148098194Y-105854673D01*
X148097756Y-105854733D01*
X148074255Y-105853677D01*
X148051720Y-105851538D01*
X148030125Y-105848373D01*
X148009443Y-105844238D01*
X147989650Y-105839190D01*
X147970717Y-105833285D01*
X147952621Y-105826581D01*
X147935334Y-105819133D01*
X147918830Y-105810998D01*
X147903084Y-105802234D01*
X147888069Y-105792897D01*
X147873759Y-105783043D01*
X147860129Y-105772728D01*
X147847152Y-105762011D01*
X147834802Y-105750947D01*
X147823053Y-105739593D01*
X147793304Y-105752845D01*
X147763655Y-105767221D01*
X147734095Y-105782628D01*
X147704613Y-105798975D01*
X147675200Y-105816170D01*
X147645845Y-105834121D01*
X147616539Y-105852736D01*
X147587270Y-105871924D01*
X146975227Y-105871924D01*
X146979916Y-105869971D01*
X147008535Y-105859244D01*
X147038069Y-105849258D01*
X147068475Y-105839964D01*
X147099709Y-105831312D01*
X147131729Y-105823251D01*
X147197952Y-105808706D01*
X147266799Y-105795930D01*
X147337923Y-105784523D01*
X147328120Y-105755446D01*
X147320261Y-105726603D01*
X147314310Y-105698060D01*
X147310232Y-105669880D01*
X147307992Y-105642129D01*
X147307670Y-105622029D01*
X147471019Y-105622029D01*
X147471608Y-105637982D01*
X147473447Y-105654609D01*
X147476597Y-105671923D01*
X147481121Y-105689939D01*
X147487083Y-105708671D01*
X147494545Y-105728132D01*
X147532960Y-105703115D01*
X147568822Y-105680843D01*
X148044661Y-105680843D01*
X148056809Y-105682539D01*
X148063110Y-105683316D01*
X148069649Y-105684024D01*
X148076491Y-105684646D01*
X148083700Y-105685167D01*
X148091342Y-105685570D01*
X148099480Y-105685839D01*
X148107465Y-105685570D01*
X148114977Y-105685165D01*
X148122077Y-105684639D01*
X148128830Y-105684009D01*
X148135297Y-105683294D01*
X148141542Y-105682508D01*
X148153615Y-105680793D01*
X148139761Y-105678790D01*
X148125914Y-105676701D01*
X148119075Y-105675718D01*
X148112334Y-105674826D01*
X148105724Y-105674062D01*
X148099278Y-105673465D01*
X148092772Y-105674067D01*
X148086115Y-105674835D01*
X148079338Y-105675731D01*
X148072468Y-105676719D01*
X148058572Y-105678820D01*
X148044661Y-105680843D01*
X147568822Y-105680843D01*
X147571838Y-105678970D01*
X147611222Y-105655823D01*
X147651154Y-105633797D01*
X147691678Y-105613016D01*
X147732835Y-105593605D01*
X147774668Y-105575688D01*
X147795852Y-105567329D01*
X147817221Y-105559390D01*
X147831404Y-105554507D01*
X147845876Y-105549933D01*
X147860596Y-105545641D01*
X147875522Y-105541602D01*
X147890614Y-105537790D01*
X147905829Y-105534178D01*
X147936469Y-105527442D01*
X147927726Y-105520164D01*
X147918893Y-105513108D01*
X147909990Y-105506281D01*
X147901036Y-105499693D01*
X147892050Y-105493351D01*
X147883052Y-105487263D01*
X147874061Y-105481438D01*
X147865095Y-105475885D01*
X147856176Y-105470611D01*
X147847321Y-105465626D01*
X147838550Y-105460936D01*
X147829882Y-105456551D01*
X147821337Y-105452478D01*
X147812935Y-105448727D01*
X147804693Y-105445305D01*
X147796632Y-105442221D01*
X147786296Y-105438646D01*
X147775978Y-105435481D01*
X147765687Y-105432719D01*
X147755431Y-105430353D01*
X147745221Y-105428377D01*
X147735065Y-105426783D01*
X147724972Y-105425565D01*
X147714952Y-105424714D01*
X147705013Y-105424225D01*
X147695166Y-105424090D01*
X147685418Y-105424302D01*
X147675780Y-105424854D01*
X147666260Y-105425740D01*
X147656868Y-105426951D01*
X147647612Y-105428482D01*
X147638503Y-105430324D01*
X147620757Y-105434917D01*
X147603705Y-105440674D01*
X147587420Y-105447538D01*
X147571974Y-105455454D01*
X147557441Y-105464365D01*
X147550540Y-105469177D01*
X147543894Y-105474215D01*
X147537514Y-105479475D01*
X147531407Y-105484948D01*
X147525584Y-105490628D01*
X147520053Y-105496508D01*
X147511596Y-105506486D01*
X147503761Y-105516999D01*
X147496612Y-105528060D01*
X147490211Y-105539685D01*
X147484620Y-105551886D01*
X147479903Y-105564678D01*
X147476122Y-105578074D01*
X147473339Y-105592089D01*
X147471617Y-105606736D01*
X147471019Y-105622029D01*
X147307670Y-105622029D01*
X147307555Y-105614870D01*
X147308886Y-105588168D01*
X147311949Y-105562089D01*
X147316711Y-105536695D01*
X147323136Y-105512052D01*
X147331188Y-105488225D01*
X147340834Y-105465277D01*
X147352037Y-105443273D01*
X147364763Y-105422279D01*
X147378977Y-105402357D01*
X147394643Y-105383574D01*
X147412790Y-105364811D01*
X147432138Y-105347452D01*
X147452608Y-105331519D01*
X147474119Y-105317033D01*
X147496590Y-105304019D01*
X147519942Y-105292497D01*
X147544094Y-105282492D01*
X147568965Y-105274024D01*
X147570245Y-105273677D01*
X147999608Y-105360547D01*
X148007121Y-105365856D01*
X148016748Y-105372935D01*
X148026309Y-105380251D01*
X148035796Y-105387809D01*
X148045200Y-105395609D01*
X148054511Y-105403653D01*
X148063720Y-105411945D01*
X148072818Y-105420485D01*
X148081796Y-105429277D01*
X148090644Y-105438322D01*
X148099353Y-105447622D01*
X148108146Y-105438279D01*
X148117080Y-105429195D01*
X148126145Y-105420368D01*
X148135332Y-105411795D01*
X148144631Y-105403475D01*
X148154033Y-105395405D01*
X148157556Y-105392503D01*
X148403292Y-105442221D01*
X148395216Y-105445310D01*
X148386953Y-105448736D01*
X148378522Y-105452491D01*
X148369943Y-105456566D01*
X148361237Y-105460954D01*
X148352423Y-105465646D01*
X148343521Y-105470632D01*
X148334550Y-105475905D01*
X148325532Y-105481457D01*
X148316485Y-105487277D01*
X148307429Y-105493360D01*
X148298385Y-105499694D01*
X148289372Y-105506274D01*
X148280411Y-105513088D01*
X148271520Y-105520130D01*
X148262720Y-105527391D01*
X148293581Y-105534125D01*
X148308907Y-105537739D01*
X148324104Y-105541555D01*
X148339128Y-105545600D01*
X148353937Y-105549903D01*
X148368485Y-105554490D01*
X148382729Y-105559390D01*
X148404097Y-105567330D01*
X148425280Y-105575690D01*
X148446284Y-105584455D01*
X148467112Y-105593610D01*
X148508267Y-105613024D01*
X148548789Y-105633808D01*
X148588720Y-105655838D01*
X148628105Y-105678989D01*
X148666985Y-105703137D01*
X148705405Y-105728157D01*
X148708470Y-105720575D01*
X148711328Y-105713092D01*
X148713978Y-105705709D01*
X148716422Y-105698426D01*
X148718660Y-105691246D01*
X148720691Y-105684167D01*
X148722516Y-105677193D01*
X148724136Y-105670322D01*
X148725550Y-105663556D01*
X148726759Y-105656896D01*
X148727764Y-105650342D01*
X148728563Y-105643896D01*
X148729158Y-105637559D01*
X148729550Y-105631330D01*
X148729737Y-105625212D01*
X148729721Y-105619204D01*
X148729722Y-105619204D01*
X148729312Y-105609813D01*
X148728470Y-105600668D01*
X148727210Y-105591767D01*
X148725549Y-105583105D01*
X148723502Y-105574679D01*
X148721084Y-105566485D01*
X148718310Y-105558519D01*
X148715197Y-105550778D01*
X148711759Y-105543259D01*
X148708011Y-105535957D01*
X148703970Y-105528869D01*
X148699651Y-105521991D01*
X148695068Y-105515319D01*
X148690238Y-105508851D01*
X148685177Y-105502581D01*
X148679898Y-105496508D01*
X148668543Y-105484948D01*
X148656056Y-105474215D01*
X148642509Y-105464365D01*
X148627976Y-105455454D01*
X148612530Y-105447538D01*
X148596244Y-105440674D01*
X148579191Y-105434917D01*
X148561445Y-105430324D01*
X148543079Y-105426951D01*
X148524166Y-105424854D01*
X148504779Y-105424090D01*
X148484992Y-105424714D01*
X148464878Y-105426783D01*
X148444510Y-105430353D01*
X148423961Y-105435481D01*
X148403305Y-105442221D01*
X148157558Y-105392501D01*
X148157556Y-105392503D01*
X147999608Y-105360547D01*
X147999604Y-105360544D01*
X147840099Y-105328273D01*
X147948513Y-105328273D01*
X147958336Y-105333966D01*
X147968149Y-105339884D01*
X147977944Y-105346030D01*
X147987710Y-105352406D01*
X147997439Y-105359014D01*
X147999604Y-105360544D01*
X148157558Y-105392501D01*
X148163528Y-105387583D01*
X148173106Y-105380006D01*
X148182758Y-105372673D01*
X148192473Y-105365581D01*
X148202243Y-105358728D01*
X148212057Y-105352111D01*
X148231779Y-105339580D01*
X148251564Y-105327969D01*
X148247197Y-105323656D01*
X148242793Y-105319486D01*
X148238337Y-105315477D01*
X148233816Y-105311647D01*
X148231528Y-105309805D01*
X148229218Y-105308014D01*
X148226885Y-105306277D01*
X148224528Y-105304597D01*
X148222145Y-105302974D01*
X148219735Y-105301413D01*
X148217295Y-105299914D01*
X148214823Y-105298480D01*
X148208996Y-105295354D01*
X148202973Y-105292425D01*
X148196758Y-105289687D01*
X148190354Y-105287136D01*
X148183761Y-105284766D01*
X148176984Y-105282575D01*
X148170025Y-105280556D01*
X148162886Y-105278705D01*
X148155569Y-105277016D01*
X148148078Y-105275487D01*
X148140415Y-105274111D01*
X148132583Y-105272884D01*
X148116419Y-105270858D01*
X148099607Y-105269372D01*
X148082874Y-105271198D01*
X148074741Y-105272282D01*
X148066768Y-105273488D01*
X148058958Y-105274822D01*
X148051315Y-105276288D01*
X148043842Y-105277893D01*
X148036541Y-105279641D01*
X148029417Y-105281539D01*
X148022471Y-105283592D01*
X148015709Y-105285805D01*
X148009132Y-105288184D01*
X148002744Y-105290734D01*
X147996548Y-105293462D01*
X147990548Y-105296371D01*
X147984746Y-105299469D01*
X147982303Y-105300878D01*
X147979892Y-105302351D01*
X147977512Y-105303883D01*
X147975159Y-105305474D01*
X147972833Y-105307120D01*
X147970533Y-105308820D01*
X147968255Y-105310572D01*
X147965999Y-105312372D01*
X147961544Y-105316112D01*
X147957153Y-105320020D01*
X147952814Y-105324080D01*
X147948513Y-105328273D01*
X147840099Y-105328273D01*
X147570248Y-105273676D01*
X147570245Y-105273677D01*
X146712182Y-105100072D01*
X147570248Y-105273676D01*
X147594475Y-105267117D01*
X147620543Y-105261793D01*
X147647090Y-105258074D01*
X147674035Y-105255983D01*
X147701297Y-105255543D01*
X147728796Y-105256776D01*
X147756451Y-105259705D01*
X147784183Y-105264351D01*
X147790434Y-105255249D01*
X147796863Y-105246415D01*
X147803462Y-105237852D01*
X147810227Y-105229562D01*
X147817152Y-105221548D01*
X147824231Y-105213811D01*
X147831459Y-105206355D01*
X147838830Y-105199181D01*
X147846338Y-105192291D01*
X147853977Y-105185689D01*
X147861743Y-105179376D01*
X147869629Y-105173354D01*
X147877630Y-105167626D01*
X147885740Y-105162194D01*
X147893953Y-105157061D01*
X147902264Y-105152229D01*
X147914044Y-105145920D01*
X147925894Y-105140132D01*
X147937802Y-105134838D01*
X147949754Y-105130016D01*
X147961737Y-105125642D01*
X147973738Y-105121691D01*
X147985744Y-105118140D01*
X147997741Y-105114965D01*
X148009717Y-105112142D01*
X148021659Y-105109647D01*
X148033553Y-105107456D01*
X148045386Y-105105545D01*
X148068818Y-105102467D01*
X148091848Y-105100224D01*
X148093364Y-105100663D01*
X148094871Y-105101131D01*
X148096369Y-105101627D01*
X148097858Y-105102151D01*
X148099339Y-105101589D01*
X148100830Y-105101055D01*
X148102331Y-105100549D01*
X148103841Y-105100072D01*
X148127695Y-105101900D01*
G37*
G36*
X148115724Y-105652087D02*
G01*
X148129986Y-105653453D01*
X148144219Y-105655111D01*
X148158426Y-105657012D01*
X148186770Y-105661344D01*
X148215041Y-105666056D01*
X148216068Y-105666355D01*
X148217130Y-105666600D01*
X148218217Y-105666802D01*
X148219324Y-105666973D01*
X148223813Y-105667590D01*
X148224917Y-105667787D01*
X148226000Y-105668025D01*
X148227056Y-105668316D01*
X148228077Y-105668672D01*
X148228572Y-105668878D01*
X148229057Y-105669104D01*
X148229529Y-105669353D01*
X148229989Y-105669625D01*
X148230435Y-105669923D01*
X148230866Y-105670247D01*
X148231282Y-105670599D01*
X148231682Y-105670981D01*
X148231683Y-105670981D01*
X148231753Y-105671265D01*
X148231814Y-105671548D01*
X148231866Y-105671831D01*
X148231905Y-105672113D01*
X148231931Y-105672392D01*
X148231942Y-105672669D01*
X148231936Y-105672943D01*
X148231913Y-105673213D01*
X148231870Y-105673478D01*
X148231841Y-105673609D01*
X148231806Y-105673739D01*
X148231766Y-105673867D01*
X148231720Y-105673994D01*
X148231668Y-105674119D01*
X148231610Y-105674242D01*
X148231545Y-105674364D01*
X148231474Y-105674484D01*
X148231396Y-105674603D01*
X148231311Y-105674719D01*
X148231219Y-105674833D01*
X148231120Y-105674946D01*
X148231013Y-105675056D01*
X148230898Y-105675164D01*
X148228172Y-105676916D01*
X148225407Y-105678605D01*
X148222604Y-105680233D01*
X148219765Y-105681800D01*
X148213992Y-105684760D01*
X148208103Y-105687499D01*
X148202117Y-105690030D01*
X148196052Y-105692364D01*
X148189925Y-105694517D01*
X148183754Y-105696499D01*
X148175014Y-105698850D01*
X148166210Y-105700933D01*
X148157348Y-105702750D01*
X148148436Y-105704301D01*
X148139482Y-105705588D01*
X148130493Y-105706611D01*
X148121477Y-105707372D01*
X148112443Y-105707872D01*
X148103396Y-105708111D01*
X148094346Y-105708092D01*
X148085300Y-105707814D01*
X148076265Y-105707279D01*
X148067250Y-105706488D01*
X148058262Y-105705443D01*
X148049308Y-105704143D01*
X148040397Y-105702591D01*
X148035930Y-105701789D01*
X148031485Y-105700886D01*
X148027063Y-105699885D01*
X148022667Y-105698786D01*
X148018298Y-105697590D01*
X148013958Y-105696297D01*
X148009648Y-105694909D01*
X148005369Y-105693426D01*
X148001125Y-105691850D01*
X147996915Y-105690180D01*
X147992743Y-105688419D01*
X147988609Y-105686566D01*
X147984515Y-105684623D01*
X147980463Y-105682591D01*
X147976455Y-105680470D01*
X147972492Y-105678261D01*
X147972138Y-105678140D01*
X147971789Y-105677995D01*
X147971444Y-105677827D01*
X147971107Y-105677636D01*
X147970778Y-105677425D01*
X147970458Y-105677196D01*
X147970150Y-105676948D01*
X147969854Y-105676685D01*
X147969572Y-105676407D01*
X147969305Y-105676115D01*
X147969056Y-105675812D01*
X147968824Y-105675498D01*
X147968612Y-105675176D01*
X147968421Y-105674846D01*
X147968252Y-105674510D01*
X147968108Y-105674169D01*
X147967988Y-105673825D01*
X147967895Y-105673480D01*
X147967831Y-105673134D01*
X147967796Y-105672789D01*
X147967792Y-105672447D01*
X147967820Y-105672108D01*
X147967882Y-105671776D01*
X147967979Y-105671450D01*
X147968113Y-105671132D01*
X147968285Y-105670824D01*
X147968497Y-105670528D01*
X147968749Y-105670244D01*
X147969044Y-105669974D01*
X147969382Y-105669719D01*
X147969766Y-105669482D01*
X147970196Y-105669263D01*
X147977297Y-105667589D01*
X147984439Y-105666079D01*
X147991613Y-105664702D01*
X147998810Y-105663429D01*
X148027672Y-105658770D01*
X148046048Y-105656253D01*
X148064458Y-105653873D01*
X148073680Y-105652854D01*
X148082915Y-105652014D01*
X148092165Y-105651400D01*
X148101431Y-105651062D01*
X148115724Y-105652087D01*
G37*
D11*
X162052000Y-81788000D03*
D12*
X162052000Y-84328000D03*
X162052000Y-86868000D03*
X162052000Y-89408000D03*
X162052000Y-91948000D03*
X162052000Y-94488000D03*
X162052000Y-97028000D03*
X162052000Y-99568000D03*
X162052000Y-102108000D03*
G36*
G01*
X140200000Y-101800000D02*
X141800000Y-101800000D01*
G75*
G02*
X142000000Y-102000000I0J-200000D01*
G01*
X142000000Y-102400000D01*
G75*
G02*
X141800000Y-102600000I-200000J0D01*
G01*
X140200000Y-102600000D01*
G75*
G02*
X140000000Y-102400000I0J200000D01*
G01*
X140000000Y-102000000D01*
G75*
G02*
X140200000Y-101800000I200000J0D01*
G01*
G37*
G36*
G01*
X140200000Y-106000000D02*
X141800000Y-106000000D01*
G75*
G02*
X142000000Y-106200000I0J-200000D01*
G01*
X142000000Y-106600000D01*
G75*
G02*
X141800000Y-106800000I-200000J0D01*
G01*
X140200000Y-106800000D01*
G75*
G02*
X140000000Y-106600000I0J200000D01*
G01*
X140000000Y-106200000D01*
G75*
G02*
X140200000Y-106000000I200000J0D01*
G01*
G37*
G36*
G01*
X156380000Y-100815000D02*
X156380000Y-101185000D01*
G75*
G02*
X156245000Y-101320000I-135000J0D01*
G01*
X155975000Y-101320000D01*
G75*
G02*
X155840000Y-101185000I0J135000D01*
G01*
X155840000Y-100815000D01*
G75*
G02*
X155975000Y-100680000I135000J0D01*
G01*
X156245000Y-100680000D01*
G75*
G02*
X156380000Y-100815000I0J-135000D01*
G01*
G37*
G36*
G01*
X155360000Y-100815000D02*
X155360000Y-101185000D01*
G75*
G02*
X155225000Y-101320000I-135000J0D01*
G01*
X154955000Y-101320000D01*
G75*
G02*
X154820000Y-101185000I0J135000D01*
G01*
X154820000Y-100815000D01*
G75*
G02*
X154955000Y-100680000I135000J0D01*
G01*
X155225000Y-100680000D01*
G75*
G02*
X155360000Y-100815000I0J-135000D01*
G01*
G37*
G36*
G01*
X152662500Y-97550000D02*
X152662500Y-97250000D01*
G75*
G02*
X152812500Y-97100000I150000J0D01*
G01*
X153837500Y-97100000D01*
G75*
G02*
X153987500Y-97250000I0J-150000D01*
G01*
X153987500Y-97550000D01*
G75*
G02*
X153837500Y-97700000I-150000J0D01*
G01*
X152812500Y-97700000D01*
G75*
G02*
X152662500Y-97550000I0J150000D01*
G01*
G37*
G36*
G01*
X152662500Y-98500000D02*
X152662500Y-98200000D01*
G75*
G02*
X152812500Y-98050000I150000J0D01*
G01*
X153837500Y-98050000D01*
G75*
G02*
X153987500Y-98200000I0J-150000D01*
G01*
X153987500Y-98500000D01*
G75*
G02*
X153837500Y-98650000I-150000J0D01*
G01*
X152812500Y-98650000D01*
G75*
G02*
X152662500Y-98500000I0J150000D01*
G01*
G37*
G36*
G01*
X152662500Y-99450000D02*
X152662500Y-99150000D01*
G75*
G02*
X152812500Y-99000000I150000J0D01*
G01*
X153837500Y-99000000D01*
G75*
G02*
X153987500Y-99150000I0J-150000D01*
G01*
X153987500Y-99450000D01*
G75*
G02*
X153837500Y-99600000I-150000J0D01*
G01*
X152812500Y-99600000D01*
G75*
G02*
X152662500Y-99450000I0J150000D01*
G01*
G37*
G36*
G01*
X154937500Y-99450000D02*
X154937500Y-99150000D01*
G75*
G02*
X155087500Y-99000000I150000J0D01*
G01*
X156112500Y-99000000D01*
G75*
G02*
X156262500Y-99150000I0J-150000D01*
G01*
X156262500Y-99450000D01*
G75*
G02*
X156112500Y-99600000I-150000J0D01*
G01*
X155087500Y-99600000D01*
G75*
G02*
X154937500Y-99450000I0J150000D01*
G01*
G37*
G36*
G01*
X154937500Y-97550000D02*
X154937500Y-97250000D01*
G75*
G02*
X155087500Y-97100000I150000J0D01*
G01*
X156112500Y-97100000D01*
G75*
G02*
X156262500Y-97250000I0J-150000D01*
G01*
X156262500Y-97550000D01*
G75*
G02*
X156112500Y-97700000I-150000J0D01*
G01*
X155087500Y-97700000D01*
G75*
G02*
X154937500Y-97550000I0J150000D01*
G01*
G37*
D11*
X134112000Y-81788000D03*
D12*
X134112000Y-84328000D03*
X134112000Y-86868000D03*
X134112000Y-89408000D03*
X134112000Y-91948000D03*
X134112000Y-94488000D03*
X134112000Y-97028000D03*
X134112000Y-99568000D03*
X134112000Y-102108000D03*
G36*
G01*
X146580000Y-100115000D02*
X146580000Y-100485000D01*
G75*
G02*
X146445000Y-100620000I-135000J0D01*
G01*
X146175000Y-100620000D01*
G75*
G02*
X146040000Y-100485000I0J135000D01*
G01*
X146040000Y-100115000D01*
G75*
G02*
X146175000Y-99980000I135000J0D01*
G01*
X146445000Y-99980000D01*
G75*
G02*
X146580000Y-100115000I0J-135000D01*
G01*
G37*
G36*
G01*
X145560000Y-100115000D02*
X145560000Y-100485000D01*
G75*
G02*
X145425000Y-100620000I-135000J0D01*
G01*
X145155000Y-100620000D01*
G75*
G02*
X145020000Y-100485000I0J135000D01*
G01*
X145020000Y-100115000D01*
G75*
G02*
X145155000Y-99980000I135000J0D01*
G01*
X145425000Y-99980000D01*
G75*
G02*
X145560000Y-100115000I0J-135000D01*
G01*
G37*
D13*
X138600000Y-81275000D03*
X138600000Y-84275000D03*
X138600000Y-85775000D03*
X138600000Y-87275000D03*
X138600000Y-88775000D03*
X138600000Y-90275000D03*
X138600000Y-91775000D03*
X138600000Y-93275000D03*
D14*
X136750000Y-81275000D03*
X136750000Y-82775000D03*
D13*
X138600000Y-82775000D03*
D14*
X136750000Y-84275000D03*
X136750000Y-85775000D03*
X136750000Y-87275000D03*
X136750000Y-88775000D03*
X136750000Y-90275000D03*
X136750000Y-91775000D03*
X136750000Y-93275000D03*
D15*
X145192000Y-103095000D03*
X150972000Y-103095000D03*
D16*
X144882000Y-101975000D03*
X145682000Y-101975000D03*
D17*
X146832000Y-101975000D03*
X147832000Y-101975000D03*
X148332000Y-101975000D03*
X149332000Y-101975000D03*
D16*
X150482000Y-101975000D03*
X151282000Y-101975000D03*
X151282000Y-101975000D03*
X150482000Y-101975000D03*
D17*
X149832000Y-101975000D03*
X148832000Y-101975000D03*
X147332000Y-101975000D03*
X146332000Y-101975000D03*
D16*
X145682000Y-101975000D03*
X144882000Y-101975000D03*
D18*
X143762000Y-102575000D03*
D19*
X143762000Y-106775000D03*
D18*
X152402000Y-102575000D03*
D19*
X152402000Y-106775000D03*
G36*
G01*
X155260000Y-95930000D02*
X155260000Y-96270000D01*
G75*
G02*
X155120000Y-96410000I-140000J0D01*
G01*
X154840000Y-96410000D01*
G75*
G02*
X154700000Y-96270000I0J140000D01*
G01*
X154700000Y-95930000D01*
G75*
G02*
X154840000Y-95790000I140000J0D01*
G01*
X155120000Y-95790000D01*
G75*
G02*
X155260000Y-95930000I0J-140000D01*
G01*
G37*
G36*
G01*
X154300000Y-95930000D02*
X154300000Y-96270000D01*
G75*
G02*
X154160000Y-96410000I-140000J0D01*
G01*
X153880000Y-96410000D01*
G75*
G02*
X153740000Y-96270000I0J140000D01*
G01*
X153740000Y-95930000D01*
G75*
G02*
X153880000Y-95790000I140000J0D01*
G01*
X154160000Y-95790000D01*
G75*
G02*
X154300000Y-95930000I0J-140000D01*
G01*
G37*
G36*
G01*
X149985000Y-100580000D02*
X149615000Y-100580000D01*
G75*
G02*
X149480000Y-100445000I0J135000D01*
G01*
X149480000Y-100175000D01*
G75*
G02*
X149615000Y-100040000I135000J0D01*
G01*
X149985000Y-100040000D01*
G75*
G02*
X150120000Y-100175000I0J-135000D01*
G01*
X150120000Y-100445000D01*
G75*
G02*
X149985000Y-100580000I-135000J0D01*
G01*
G37*
G36*
G01*
X149985000Y-99560000D02*
X149615000Y-99560000D01*
G75*
G02*
X149480000Y-99425000I0J135000D01*
G01*
X149480000Y-99155000D01*
G75*
G02*
X149615000Y-99020000I135000J0D01*
G01*
X149985000Y-99020000D01*
G75*
G02*
X150120000Y-99155000I0J-135000D01*
G01*
X150120000Y-99425000D01*
G75*
G02*
X149985000Y-99560000I-135000J0D01*
G01*
G37*
G36*
G01*
X157270000Y-98640000D02*
X156930000Y-98640000D01*
G75*
G02*
X156790000Y-98500000I0J140000D01*
G01*
X156790000Y-98220000D01*
G75*
G02*
X156930000Y-98080000I140000J0D01*
G01*
X157270000Y-98080000D01*
G75*
G02*
X157410000Y-98220000I0J-140000D01*
G01*
X157410000Y-98500000D01*
G75*
G02*
X157270000Y-98640000I-140000J0D01*
G01*
G37*
G36*
G01*
X157270000Y-97680000D02*
X156930000Y-97680000D01*
G75*
G02*
X156790000Y-97540000I0J140000D01*
G01*
X156790000Y-97260000D01*
G75*
G02*
X156930000Y-97120000I140000J0D01*
G01*
X157270000Y-97120000D01*
G75*
G02*
X157410000Y-97260000I0J-140000D01*
G01*
X157410000Y-97540000D01*
G75*
G02*
X157270000Y-97680000I-140000J0D01*
G01*
G37*
D13*
X157550000Y-93275000D03*
X157550000Y-91775000D03*
X157550000Y-90275000D03*
X157550000Y-85775000D03*
X157550000Y-84275000D03*
X157550000Y-82775000D03*
X157550000Y-81275000D03*
D14*
X159400000Y-93275000D03*
X159400000Y-91775000D03*
X159400000Y-90275000D03*
X159400000Y-88775000D03*
D13*
X157550000Y-88775000D03*
D14*
X159400000Y-87275000D03*
D13*
X157550000Y-87275000D03*
D14*
X159400000Y-85775000D03*
X159400000Y-84275000D03*
X159400000Y-82775000D03*
X159400000Y-81275000D03*
G36*
G01*
X151287500Y-97050000D02*
X151512500Y-97050000D01*
G75*
G02*
X151625000Y-97162500I0J-112500D01*
G01*
X151625000Y-97537500D01*
G75*
G02*
X151512500Y-97650000I-112500J0D01*
G01*
X151287500Y-97650000D01*
G75*
G02*
X151175000Y-97537500I0J112500D01*
G01*
X151175000Y-97162500D01*
G75*
G02*
X151287500Y-97050000I112500J0D01*
G01*
G37*
G36*
G01*
X151287500Y-99150000D02*
X151512500Y-99150000D01*
G75*
G02*
X151625000Y-99262500I0J-112500D01*
G01*
X151625000Y-99637500D01*
G75*
G02*
X151512500Y-99750000I-112500J0D01*
G01*
X151287500Y-99750000D01*
G75*
G02*
X151175000Y-99637500I0J112500D01*
G01*
X151175000Y-99262500D01*
G75*
G02*
X151287500Y-99150000I112500J0D01*
G01*
G37*
G36*
G01*
X154300000Y-101800000D02*
X155900000Y-101800000D01*
G75*
G02*
X156100000Y-102000000I0J-200000D01*
G01*
X156100000Y-102400000D01*
G75*
G02*
X155900000Y-102600000I-200000J0D01*
G01*
X154300000Y-102600000D01*
G75*
G02*
X154100000Y-102400000I0J200000D01*
G01*
X154100000Y-102000000D01*
G75*
G02*
X154300000Y-101800000I200000J0D01*
G01*
G37*
G36*
G01*
X154300000Y-106000000D02*
X155900000Y-106000000D01*
G75*
G02*
X156100000Y-106200000I0J-200000D01*
G01*
X156100000Y-106600000D01*
G75*
G02*
X155900000Y-106800000I-200000J0D01*
G01*
X154300000Y-106800000D01*
G75*
G02*
X154100000Y-106600000I0J200000D01*
G01*
X154100000Y-106200000D01*
G75*
G02*
X154300000Y-106000000I200000J0D01*
G01*
G37*
D20*
X132588000Y-80200000D02*
X163576000Y-80200000D01*
X163576000Y-108800000D02*
X132588000Y-108800000D01*
X163576000Y-80200000D02*
X163576000Y-108800000D01*
X132588000Y-108800000D02*
X132588000Y-80200000D01*
M02*
