G04 #@! TF.GenerationSoftware,KiCad,Pcbnew,8.0.4-8.0.4-0~ubuntu24.04.1*
G04 #@! TF.CreationDate,2024-08-17T13:37:00+02:00*
G04 #@! TF.ProjectId,ESP32-C3-WROOM_flexypin,45535033-322d-4433-932d-57524f4f4d5f,rev?*
G04 #@! TF.SameCoordinates,Original*
G04 #@! TF.FileFunction,Soldermask,Bot*
G04 #@! TF.FilePolarity,Negative*
%FSLAX46Y46*%
G04 Gerber Fmt 4.6, Leading zero omitted, Abs format (unit mm)*
G04 Created by KiCad (PCBNEW 8.0.4-8.0.4-0~ubuntu24.04.1) date 2024-08-17 13:37:00*
%MOMM*%
%LPD*%
G01*
G04 APERTURE LIST*
%ADD10R,1.700000X1.700000*%
%ADD11O,1.700000X1.700000*%
%ADD12O,2.000000X0.950000*%
%ADD13R,1.300000X0.900000*%
%ADD14C,0.650000*%
%ADD15O,1.000000X2.100000*%
%ADD16O,1.000000X1.800000*%
G04 #@! TA.AperFunction,Profile*
%ADD17C,0.100000*%
G04 #@! TD*
G04 APERTURE END LIST*
D10*
X162052000Y-81788000D03*
D11*
X162052000Y-84328000D03*
X162052000Y-86868000D03*
X162052000Y-89408000D03*
X162052000Y-91948000D03*
X162052000Y-94488000D03*
X162052000Y-97028000D03*
X162052000Y-99568000D03*
X162052000Y-102108000D03*
D10*
X134112000Y-81788000D03*
D11*
X134112000Y-84328000D03*
X134112000Y-86868000D03*
X134112000Y-89408000D03*
X134112000Y-91948000D03*
X134112000Y-94488000D03*
X134112000Y-97028000D03*
X134112000Y-99568000D03*
X134112000Y-102108000D03*
D12*
X138600000Y-81275000D03*
X138600000Y-84275000D03*
X138600000Y-85775000D03*
X138600000Y-87275000D03*
X138600000Y-88775000D03*
X138600000Y-90275000D03*
X138600000Y-91775000D03*
X138600000Y-93275000D03*
D13*
X136750000Y-81275000D03*
X136750000Y-82775000D03*
D12*
X138600000Y-82775000D03*
D13*
X136750000Y-84275000D03*
X136750000Y-85775000D03*
X136750000Y-87275000D03*
X136750000Y-88775000D03*
X136750000Y-90275000D03*
X136750000Y-91775000D03*
X136750000Y-93275000D03*
D14*
X145192000Y-103095000D03*
X150972000Y-103095000D03*
D15*
X143762000Y-102575000D03*
D16*
X143762000Y-106775000D03*
D15*
X152402000Y-102575000D03*
D16*
X152402000Y-106775000D03*
D12*
X157550000Y-93275000D03*
X157550000Y-91775000D03*
X157550000Y-90275000D03*
X157550000Y-85775000D03*
X157550000Y-84275000D03*
X157550000Y-82775000D03*
X157550000Y-81275000D03*
D13*
X159400000Y-93275000D03*
X159400000Y-91775000D03*
X159400000Y-90275000D03*
X159400000Y-88775000D03*
D12*
X157550000Y-88775000D03*
D13*
X159400000Y-87275000D03*
D12*
X157550000Y-87275000D03*
D13*
X159400000Y-85775000D03*
X159400000Y-84275000D03*
X159400000Y-82775000D03*
X159400000Y-81275000D03*
D17*
X132588000Y-80200000D02*
X163576000Y-80200000D01*
X163576000Y-108800000D02*
X132588000Y-108800000D01*
X163576000Y-80200000D02*
X163576000Y-108800000D01*
X132588000Y-108800000D02*
X132588000Y-80200000D01*
M02*
