G04 #@! TF.GenerationSoftware,KiCad,Pcbnew,8.0.4-8.0.4-0~ubuntu24.04.1*
G04 #@! TF.CreationDate,2024-08-29T21:10:08+02:00*
G04 #@! TF.ProjectId,ESP32-C3-WROOM_flexypin,45535033-322d-4433-932d-57524f4f4d5f,rev?*
G04 #@! TF.SameCoordinates,Original*
G04 #@! TF.FileFunction,Paste,Top*
G04 #@! TF.FilePolarity,Positive*
%FSLAX46Y46*%
G04 Gerber Fmt 4.6, Leading zero omitted, Abs format (unit mm)*
G04 Created by KiCad (PCBNEW 8.0.4-8.0.4-0~ubuntu24.04.1) date 2024-08-29 21:10:08*
%MOMM*%
%LPD*%
G01*
G04 APERTURE LIST*
%ADD10R,0.600000X1.240000*%
%ADD11R,0.300000X1.240000*%
G04 #@! TA.AperFunction,Profile*
%ADD12C,0.100000*%
G04 #@! TD*
G04 APERTURE END LIST*
G36*
G01*
X139565000Y-95970000D02*
X139935000Y-95970000D01*
G75*
G02*
X140070000Y-96105000I0J-135000D01*
G01*
X140070000Y-96375000D01*
G75*
G02*
X139935000Y-96510000I-135000J0D01*
G01*
X139565000Y-96510000D01*
G75*
G02*
X139430000Y-96375000I0J135000D01*
G01*
X139430000Y-96105000D01*
G75*
G02*
X139565000Y-95970000I135000J0D01*
G01*
G37*
G36*
G01*
X139565000Y-96990000D02*
X139935000Y-96990000D01*
G75*
G02*
X140070000Y-97125000I0J-135000D01*
G01*
X140070000Y-97395000D01*
G75*
G02*
X139935000Y-97530000I-135000J0D01*
G01*
X139565000Y-97530000D01*
G75*
G02*
X139430000Y-97395000I0J135000D01*
G01*
X139430000Y-97125000D01*
G75*
G02*
X139565000Y-96990000I135000J0D01*
G01*
G37*
G36*
G01*
X141172500Y-97530000D02*
X140827500Y-97530000D01*
G75*
G02*
X140680000Y-97382500I0J147500D01*
G01*
X140680000Y-97087500D01*
G75*
G02*
X140827500Y-96940000I147500J0D01*
G01*
X141172500Y-96940000D01*
G75*
G02*
X141320000Y-97087500I0J-147500D01*
G01*
X141320000Y-97382500D01*
G75*
G02*
X141172500Y-97530000I-147500J0D01*
G01*
G37*
G36*
G01*
X141172500Y-96560000D02*
X140827500Y-96560000D01*
G75*
G02*
X140680000Y-96412500I0J147500D01*
G01*
X140680000Y-96117500D01*
G75*
G02*
X140827500Y-95970000I147500J0D01*
G01*
X141172500Y-95970000D01*
G75*
G02*
X141320000Y-96117500I0J-147500D01*
G01*
X141320000Y-96412500D01*
G75*
G02*
X141172500Y-96560000I-147500J0D01*
G01*
G37*
G36*
G01*
X140200000Y-101800000D02*
X141800000Y-101800000D01*
G75*
G02*
X142000000Y-102000000I0J-200000D01*
G01*
X142000000Y-102400000D01*
G75*
G02*
X141800000Y-102600000I-200000J0D01*
G01*
X140200000Y-102600000D01*
G75*
G02*
X140000000Y-102400000I0J200000D01*
G01*
X140000000Y-102000000D01*
G75*
G02*
X140200000Y-101800000I200000J0D01*
G01*
G37*
G36*
G01*
X140200000Y-106000000D02*
X141800000Y-106000000D01*
G75*
G02*
X142000000Y-106200000I0J-200000D01*
G01*
X142000000Y-106600000D01*
G75*
G02*
X141800000Y-106800000I-200000J0D01*
G01*
X140200000Y-106800000D01*
G75*
G02*
X140000000Y-106600000I0J200000D01*
G01*
X140000000Y-106200000D01*
G75*
G02*
X140200000Y-106000000I200000J0D01*
G01*
G37*
G36*
G01*
X156380000Y-100815000D02*
X156380000Y-101185000D01*
G75*
G02*
X156245000Y-101320000I-135000J0D01*
G01*
X155975000Y-101320000D01*
G75*
G02*
X155840000Y-101185000I0J135000D01*
G01*
X155840000Y-100815000D01*
G75*
G02*
X155975000Y-100680000I135000J0D01*
G01*
X156245000Y-100680000D01*
G75*
G02*
X156380000Y-100815000I0J-135000D01*
G01*
G37*
G36*
G01*
X155360000Y-100815000D02*
X155360000Y-101185000D01*
G75*
G02*
X155225000Y-101320000I-135000J0D01*
G01*
X154955000Y-101320000D01*
G75*
G02*
X154820000Y-101185000I0J135000D01*
G01*
X154820000Y-100815000D01*
G75*
G02*
X154955000Y-100680000I135000J0D01*
G01*
X155225000Y-100680000D01*
G75*
G02*
X155360000Y-100815000I0J-135000D01*
G01*
G37*
G36*
G01*
X152662500Y-97550000D02*
X152662500Y-97250000D01*
G75*
G02*
X152812500Y-97100000I150000J0D01*
G01*
X153837500Y-97100000D01*
G75*
G02*
X153987500Y-97250000I0J-150000D01*
G01*
X153987500Y-97550000D01*
G75*
G02*
X153837500Y-97700000I-150000J0D01*
G01*
X152812500Y-97700000D01*
G75*
G02*
X152662500Y-97550000I0J150000D01*
G01*
G37*
G36*
G01*
X152662500Y-98500000D02*
X152662500Y-98200000D01*
G75*
G02*
X152812500Y-98050000I150000J0D01*
G01*
X153837500Y-98050000D01*
G75*
G02*
X153987500Y-98200000I0J-150000D01*
G01*
X153987500Y-98500000D01*
G75*
G02*
X153837500Y-98650000I-150000J0D01*
G01*
X152812500Y-98650000D01*
G75*
G02*
X152662500Y-98500000I0J150000D01*
G01*
G37*
G36*
G01*
X152662500Y-99450000D02*
X152662500Y-99150000D01*
G75*
G02*
X152812500Y-99000000I150000J0D01*
G01*
X153837500Y-99000000D01*
G75*
G02*
X153987500Y-99150000I0J-150000D01*
G01*
X153987500Y-99450000D01*
G75*
G02*
X153837500Y-99600000I-150000J0D01*
G01*
X152812500Y-99600000D01*
G75*
G02*
X152662500Y-99450000I0J150000D01*
G01*
G37*
G36*
G01*
X154937500Y-99450000D02*
X154937500Y-99150000D01*
G75*
G02*
X155087500Y-99000000I150000J0D01*
G01*
X156112500Y-99000000D01*
G75*
G02*
X156262500Y-99150000I0J-150000D01*
G01*
X156262500Y-99450000D01*
G75*
G02*
X156112500Y-99600000I-150000J0D01*
G01*
X155087500Y-99600000D01*
G75*
G02*
X154937500Y-99450000I0J150000D01*
G01*
G37*
G36*
G01*
X154937500Y-97550000D02*
X154937500Y-97250000D01*
G75*
G02*
X155087500Y-97100000I150000J0D01*
G01*
X156112500Y-97100000D01*
G75*
G02*
X156262500Y-97250000I0J-150000D01*
G01*
X156262500Y-97550000D01*
G75*
G02*
X156112500Y-97700000I-150000J0D01*
G01*
X155087500Y-97700000D01*
G75*
G02*
X154937500Y-97550000I0J150000D01*
G01*
G37*
G36*
G01*
X146280000Y-100065000D02*
X146280000Y-100435000D01*
G75*
G02*
X146145000Y-100570000I-135000J0D01*
G01*
X145875000Y-100570000D01*
G75*
G02*
X145740000Y-100435000I0J135000D01*
G01*
X145740000Y-100065000D01*
G75*
G02*
X145875000Y-99930000I135000J0D01*
G01*
X146145000Y-99930000D01*
G75*
G02*
X146280000Y-100065000I0J-135000D01*
G01*
G37*
G36*
G01*
X145260000Y-100065000D02*
X145260000Y-100435000D01*
G75*
G02*
X145125000Y-100570000I-135000J0D01*
G01*
X144855000Y-100570000D01*
G75*
G02*
X144720000Y-100435000I0J135000D01*
G01*
X144720000Y-100065000D01*
G75*
G02*
X144855000Y-99930000I135000J0D01*
G01*
X145125000Y-99930000D01*
G75*
G02*
X145260000Y-100065000I0J-135000D01*
G01*
G37*
D10*
X144882000Y-101975000D03*
X145682000Y-101975000D03*
D11*
X146832000Y-101975000D03*
X147832000Y-101975000D03*
X148332000Y-101975000D03*
X149332000Y-101975000D03*
D10*
X150482000Y-101975000D03*
X151282000Y-101975000D03*
X151282000Y-101975000D03*
X150482000Y-101975000D03*
D11*
X149832000Y-101975000D03*
X148832000Y-101975000D03*
X147332000Y-101975000D03*
X146332000Y-101975000D03*
D10*
X145682000Y-101975000D03*
X144882000Y-101975000D03*
G36*
G01*
X155260000Y-95930000D02*
X155260000Y-96270000D01*
G75*
G02*
X155120000Y-96410000I-140000J0D01*
G01*
X154840000Y-96410000D01*
G75*
G02*
X154700000Y-96270000I0J140000D01*
G01*
X154700000Y-95930000D01*
G75*
G02*
X154840000Y-95790000I140000J0D01*
G01*
X155120000Y-95790000D01*
G75*
G02*
X155260000Y-95930000I0J-140000D01*
G01*
G37*
G36*
G01*
X154300000Y-95930000D02*
X154300000Y-96270000D01*
G75*
G02*
X154160000Y-96410000I-140000J0D01*
G01*
X153880000Y-96410000D01*
G75*
G02*
X153740000Y-96270000I0J140000D01*
G01*
X153740000Y-95930000D01*
G75*
G02*
X153880000Y-95790000I140000J0D01*
G01*
X154160000Y-95790000D01*
G75*
G02*
X154300000Y-95930000I0J-140000D01*
G01*
G37*
G36*
G01*
X149985000Y-100580000D02*
X149615000Y-100580000D01*
G75*
G02*
X149480000Y-100445000I0J135000D01*
G01*
X149480000Y-100175000D01*
G75*
G02*
X149615000Y-100040000I135000J0D01*
G01*
X149985000Y-100040000D01*
G75*
G02*
X150120000Y-100175000I0J-135000D01*
G01*
X150120000Y-100445000D01*
G75*
G02*
X149985000Y-100580000I-135000J0D01*
G01*
G37*
G36*
G01*
X149985000Y-99560000D02*
X149615000Y-99560000D01*
G75*
G02*
X149480000Y-99425000I0J135000D01*
G01*
X149480000Y-99155000D01*
G75*
G02*
X149615000Y-99020000I135000J0D01*
G01*
X149985000Y-99020000D01*
G75*
G02*
X150120000Y-99155000I0J-135000D01*
G01*
X150120000Y-99425000D01*
G75*
G02*
X149985000Y-99560000I-135000J0D01*
G01*
G37*
G36*
G01*
X157270000Y-98640000D02*
X156930000Y-98640000D01*
G75*
G02*
X156790000Y-98500000I0J140000D01*
G01*
X156790000Y-98220000D01*
G75*
G02*
X156930000Y-98080000I140000J0D01*
G01*
X157270000Y-98080000D01*
G75*
G02*
X157410000Y-98220000I0J-140000D01*
G01*
X157410000Y-98500000D01*
G75*
G02*
X157270000Y-98640000I-140000J0D01*
G01*
G37*
G36*
G01*
X157270000Y-97680000D02*
X156930000Y-97680000D01*
G75*
G02*
X156790000Y-97540000I0J140000D01*
G01*
X156790000Y-97260000D01*
G75*
G02*
X156930000Y-97120000I140000J0D01*
G01*
X157270000Y-97120000D01*
G75*
G02*
X157410000Y-97260000I0J-140000D01*
G01*
X157410000Y-97540000D01*
G75*
G02*
X157270000Y-97680000I-140000J0D01*
G01*
G37*
G36*
G01*
X151287500Y-97050000D02*
X151512500Y-97050000D01*
G75*
G02*
X151625000Y-97162500I0J-112500D01*
G01*
X151625000Y-97537500D01*
G75*
G02*
X151512500Y-97650000I-112500J0D01*
G01*
X151287500Y-97650000D01*
G75*
G02*
X151175000Y-97537500I0J112500D01*
G01*
X151175000Y-97162500D01*
G75*
G02*
X151287500Y-97050000I112500J0D01*
G01*
G37*
G36*
G01*
X151287500Y-99150000D02*
X151512500Y-99150000D01*
G75*
G02*
X151625000Y-99262500I0J-112500D01*
G01*
X151625000Y-99637500D01*
G75*
G02*
X151512500Y-99750000I-112500J0D01*
G01*
X151287500Y-99750000D01*
G75*
G02*
X151175000Y-99637500I0J112500D01*
G01*
X151175000Y-99262500D01*
G75*
G02*
X151287500Y-99150000I112500J0D01*
G01*
G37*
G36*
G01*
X154300000Y-101800000D02*
X155900000Y-101800000D01*
G75*
G02*
X156100000Y-102000000I0J-200000D01*
G01*
X156100000Y-102400000D01*
G75*
G02*
X155900000Y-102600000I-200000J0D01*
G01*
X154300000Y-102600000D01*
G75*
G02*
X154100000Y-102400000I0J200000D01*
G01*
X154100000Y-102000000D01*
G75*
G02*
X154300000Y-101800000I200000J0D01*
G01*
G37*
G36*
G01*
X154300000Y-106000000D02*
X155900000Y-106000000D01*
G75*
G02*
X156100000Y-106200000I0J-200000D01*
G01*
X156100000Y-106600000D01*
G75*
G02*
X155900000Y-106800000I-200000J0D01*
G01*
X154300000Y-106800000D01*
G75*
G02*
X154100000Y-106600000I0J200000D01*
G01*
X154100000Y-106200000D01*
G75*
G02*
X154300000Y-106000000I200000J0D01*
G01*
G37*
D12*
X132588000Y-80200000D02*
X163576000Y-80200000D01*
X163576000Y-108800000D02*
X132588000Y-108800000D01*
X163576000Y-80200000D02*
X163576000Y-108800000D01*
X132588000Y-108800000D02*
X132588000Y-80200000D01*
M02*
