%TF.GenerationSoftware,KiCad,Pcbnew,8.0.4-8.0.4-0~ubuntu24.04.1*%
%TF.CreationDate,2024-08-17T13:37:02+02:00*%
%TF.ProjectId,ESP32-C3-WROOM_flexypin,45535033-322d-4433-932d-57524f4f4d5f,rev?*%
%TF.SameCoordinates,Original*%
%TF.FileFunction,Drillmap*%
%TF.FilePolarity,Positive*%
%FSLAX45Y45*%
G04 Gerber Fmt 4.5, Leading zero omitted, Abs format (unit mm)*
G04 Created by KiCad (PCBNEW 8.0.4-8.0.4-0~ubuntu24.04.1) date 2024-08-17 13:37:02*
%MOMM*%
%LPD*%
G01*
G04 APERTURE LIST*
%ADD10C,0.100000*%
%ADD11C,0.200000*%
G04 APERTURE END LIST*
D10*
X13258800Y-8020000D02*
X16357600Y-8020000D01*
X16357600Y-10880000D02*
X13258800Y-10880000D01*
X16357600Y-8020000D02*
X16357600Y-10880000D01*
X13258800Y-10880000D02*
X13258800Y-8020000D01*
D11*
D10*
X14085000Y-10085000D02*
X14115000Y-10115000D01*
X14115000Y-10085000D02*
X14085000Y-10115000D01*
X14737286Y-10005000D02*
X14767286Y-10035000D01*
X14767286Y-10005000D02*
X14737286Y-10035000D01*
X14768727Y-10287356D02*
X14798727Y-10317356D01*
X14798727Y-10287356D02*
X14768727Y-10317356D01*
X15665000Y-10025000D02*
X15695000Y-10055000D01*
X15695000Y-10025000D02*
X15665000Y-10055000D01*
X15785000Y-9725000D02*
X15815000Y-9755000D01*
X15815000Y-9725000D02*
X15785000Y-9755000D01*
X13735000Y-8127500D02*
G75*
G02*
X13675000Y-8127500I-30000J0D01*
G01*
X13675000Y-8127500D02*
G75*
G02*
X13735000Y-8127500I30000J0D01*
G01*
X13735000Y-8277500D02*
G75*
G02*
X13675000Y-8277500I-30000J0D01*
G01*
X13675000Y-8277500D02*
G75*
G02*
X13735000Y-8277500I30000J0D01*
G01*
X13735000Y-8427500D02*
G75*
G02*
X13675000Y-8427500I-30000J0D01*
G01*
X13675000Y-8427500D02*
G75*
G02*
X13735000Y-8427500I30000J0D01*
G01*
X13735000Y-8577500D02*
G75*
G02*
X13675000Y-8577500I-30000J0D01*
G01*
X13675000Y-8577500D02*
G75*
G02*
X13735000Y-8577500I30000J0D01*
G01*
X13735000Y-8727500D02*
G75*
G02*
X13675000Y-8727500I-30000J0D01*
G01*
X13675000Y-8727500D02*
G75*
G02*
X13735000Y-8727500I30000J0D01*
G01*
X13735000Y-8877500D02*
G75*
G02*
X13675000Y-8877500I-30000J0D01*
G01*
X13675000Y-8877500D02*
G75*
G02*
X13735000Y-8877500I30000J0D01*
G01*
X13735000Y-9027500D02*
G75*
G02*
X13675000Y-9027500I-30000J0D01*
G01*
X13675000Y-9027500D02*
G75*
G02*
X13735000Y-9027500I30000J0D01*
G01*
X13735000Y-9177500D02*
G75*
G02*
X13675000Y-9177500I-30000J0D01*
G01*
X13675000Y-9177500D02*
G75*
G02*
X13735000Y-9177500I30000J0D01*
G01*
X13735000Y-9327500D02*
G75*
G02*
X13675000Y-9327500I-30000J0D01*
G01*
X13675000Y-9327500D02*
G75*
G02*
X13735000Y-9327500I30000J0D01*
G01*
X14406200Y-10257500D02*
G75*
G02*
X14346200Y-10257500I-30000J0D01*
G01*
X14346200Y-10257500D02*
G75*
G02*
X14406200Y-10257500I30000J0D01*
G01*
X14346200Y-10202500D02*
X14346200Y-10312500D01*
X14406200Y-10312500D02*
G75*
G02*
X14346200Y-10312500I-30000J0D01*
G01*
X14406200Y-10312500D02*
X14406200Y-10202500D01*
X14406200Y-10202500D02*
G75*
G03*
X14346200Y-10202500I-30000J0D01*
G01*
X14406200Y-10677500D02*
G75*
G02*
X14346200Y-10677500I-30000J0D01*
G01*
X14346200Y-10677500D02*
G75*
G02*
X14406200Y-10677500I30000J0D01*
G01*
X14346200Y-10637500D02*
X14346200Y-10717500D01*
X14406200Y-10717500D02*
G75*
G02*
X14346200Y-10717500I-30000J0D01*
G01*
X14406200Y-10717500D02*
X14406200Y-10637500D01*
X14406200Y-10637500D02*
G75*
G03*
X14346200Y-10637500I-30000J0D01*
G01*
X15270200Y-10257500D02*
G75*
G02*
X15210200Y-10257500I-30000J0D01*
G01*
X15210200Y-10257500D02*
G75*
G02*
X15270200Y-10257500I30000J0D01*
G01*
X15210200Y-10202500D02*
X15210200Y-10312500D01*
X15270200Y-10312500D02*
G75*
G02*
X15210200Y-10312500I-30000J0D01*
G01*
X15270200Y-10312500D02*
X15270200Y-10202500D01*
X15270200Y-10202500D02*
G75*
G03*
X15210200Y-10202500I-30000J0D01*
G01*
X15270200Y-10677500D02*
G75*
G02*
X15210200Y-10677500I-30000J0D01*
G01*
X15210200Y-10677500D02*
G75*
G02*
X15270200Y-10677500I30000J0D01*
G01*
X15210200Y-10637500D02*
X15210200Y-10717500D01*
X15270200Y-10717500D02*
G75*
G02*
X15210200Y-10717500I-30000J0D01*
G01*
X15270200Y-10717500D02*
X15270200Y-10637500D01*
X15270200Y-10637500D02*
G75*
G03*
X15210200Y-10637500I-30000J0D01*
G01*
X15940000Y-8127500D02*
G75*
G02*
X15880000Y-8127500I-30000J0D01*
G01*
X15880000Y-8127500D02*
G75*
G02*
X15940000Y-8127500I30000J0D01*
G01*
X15940000Y-8277500D02*
G75*
G02*
X15880000Y-8277500I-30000J0D01*
G01*
X15880000Y-8277500D02*
G75*
G02*
X15940000Y-8277500I30000J0D01*
G01*
X15940000Y-8427500D02*
G75*
G02*
X15880000Y-8427500I-30000J0D01*
G01*
X15880000Y-8427500D02*
G75*
G02*
X15940000Y-8427500I30000J0D01*
G01*
X15940000Y-8577500D02*
G75*
G02*
X15880000Y-8577500I-30000J0D01*
G01*
X15880000Y-8577500D02*
G75*
G02*
X15940000Y-8577500I30000J0D01*
G01*
X15940000Y-8727500D02*
G75*
G02*
X15880000Y-8727500I-30000J0D01*
G01*
X15880000Y-8727500D02*
G75*
G02*
X15940000Y-8727500I30000J0D01*
G01*
X15940000Y-8877500D02*
G75*
G02*
X15880000Y-8877500I-30000J0D01*
G01*
X15880000Y-8877500D02*
G75*
G02*
X15940000Y-8877500I30000J0D01*
G01*
X15940000Y-9027500D02*
G75*
G02*
X15880000Y-9027500I-30000J0D01*
G01*
X15880000Y-9027500D02*
G75*
G02*
X15940000Y-9027500I30000J0D01*
G01*
X15940000Y-9177500D02*
G75*
G02*
X15880000Y-9177500I-30000J0D01*
G01*
X15880000Y-9177500D02*
G75*
G02*
X15940000Y-9177500I30000J0D01*
G01*
X15940000Y-9327500D02*
G75*
G02*
X15880000Y-9327500I-30000J0D01*
G01*
X15880000Y-9327500D02*
G75*
G02*
X15940000Y-9327500I30000J0D01*
G01*
X13860000Y-8095000D02*
X13860000Y-8160000D01*
X13827500Y-8127500D02*
X13892500Y-8127500D01*
X13807500Y-8160000D02*
X13912500Y-8160000D01*
X13912500Y-8095000D02*
G75*
G02*
X13912500Y-8160000I0J-32500D01*
G01*
X13912500Y-8095000D02*
X13807500Y-8095000D01*
X13807500Y-8095000D02*
G75*
G03*
X13807500Y-8160000I0J-32500D01*
G01*
X13860000Y-8245000D02*
X13860000Y-8310000D01*
X13827500Y-8277500D02*
X13892500Y-8277500D01*
X13807500Y-8310000D02*
X13912500Y-8310000D01*
X13912500Y-8245000D02*
G75*
G02*
X13912500Y-8310000I0J-32500D01*
G01*
X13912500Y-8245000D02*
X13807500Y-8245000D01*
X13807500Y-8245000D02*
G75*
G03*
X13807500Y-8310000I0J-32500D01*
G01*
X13860000Y-8395000D02*
X13860000Y-8460000D01*
X13827500Y-8427500D02*
X13892500Y-8427500D01*
X13807500Y-8460000D02*
X13912500Y-8460000D01*
X13912500Y-8395000D02*
G75*
G02*
X13912500Y-8460000I0J-32500D01*
G01*
X13912500Y-8395000D02*
X13807500Y-8395000D01*
X13807500Y-8395000D02*
G75*
G03*
X13807500Y-8460000I0J-32500D01*
G01*
X13860000Y-8545000D02*
X13860000Y-8610000D01*
X13827500Y-8577500D02*
X13892500Y-8577500D01*
X13807500Y-8610000D02*
X13912500Y-8610000D01*
X13912500Y-8545000D02*
G75*
G02*
X13912500Y-8610000I0J-32500D01*
G01*
X13912500Y-8545000D02*
X13807500Y-8545000D01*
X13807500Y-8545000D02*
G75*
G03*
X13807500Y-8610000I0J-32500D01*
G01*
X13860000Y-8695000D02*
X13860000Y-8760000D01*
X13827500Y-8727500D02*
X13892500Y-8727500D01*
X13807500Y-8760000D02*
X13912500Y-8760000D01*
X13912500Y-8695000D02*
G75*
G02*
X13912500Y-8760000I0J-32500D01*
G01*
X13912500Y-8695000D02*
X13807500Y-8695000D01*
X13807500Y-8695000D02*
G75*
G03*
X13807500Y-8760000I0J-32500D01*
G01*
X13860000Y-8845000D02*
X13860000Y-8910000D01*
X13827500Y-8877500D02*
X13892500Y-8877500D01*
X13807500Y-8910000D02*
X13912500Y-8910000D01*
X13912500Y-8845000D02*
G75*
G02*
X13912500Y-8910000I0J-32500D01*
G01*
X13912500Y-8845000D02*
X13807500Y-8845000D01*
X13807500Y-8845000D02*
G75*
G03*
X13807500Y-8910000I0J-32500D01*
G01*
X13860000Y-8995000D02*
X13860000Y-9060000D01*
X13827500Y-9027500D02*
X13892500Y-9027500D01*
X13807500Y-9060000D02*
X13912500Y-9060000D01*
X13912500Y-8995000D02*
G75*
G02*
X13912500Y-9060000I0J-32500D01*
G01*
X13912500Y-8995000D02*
X13807500Y-8995000D01*
X13807500Y-8995000D02*
G75*
G03*
X13807500Y-9060000I0J-32500D01*
G01*
X13860000Y-9145000D02*
X13860000Y-9210000D01*
X13827500Y-9177500D02*
X13892500Y-9177500D01*
X13807500Y-9210000D02*
X13912500Y-9210000D01*
X13912500Y-9145000D02*
G75*
G02*
X13912500Y-9210000I0J-32500D01*
G01*
X13912500Y-9145000D02*
X13807500Y-9145000D01*
X13807500Y-9145000D02*
G75*
G03*
X13807500Y-9210000I0J-32500D01*
G01*
X13860000Y-9295000D02*
X13860000Y-9360000D01*
X13827500Y-9327500D02*
X13892500Y-9327500D01*
X13807500Y-9360000D02*
X13912500Y-9360000D01*
X13912500Y-9295000D02*
G75*
G02*
X13912500Y-9360000I0J-32500D01*
G01*
X13912500Y-9295000D02*
X13807500Y-9295000D01*
X13807500Y-9295000D02*
G75*
G03*
X13807500Y-9360000I0J-32500D01*
G01*
X15755000Y-8095000D02*
X15755000Y-8160000D01*
X15722500Y-8127500D02*
X15787500Y-8127500D01*
X15807500Y-8095000D02*
X15702500Y-8095000D01*
X15702500Y-8160000D02*
G75*
G02*
X15702500Y-8095000I0J32500D01*
G01*
X15702500Y-8160000D02*
X15807500Y-8160000D01*
X15807500Y-8160000D02*
G75*
G03*
X15807500Y-8095000I0J32500D01*
G01*
X15755000Y-8245000D02*
X15755000Y-8310000D01*
X15722500Y-8277500D02*
X15787500Y-8277500D01*
X15807500Y-8245000D02*
X15702500Y-8245000D01*
X15702500Y-8310000D02*
G75*
G02*
X15702500Y-8245000I0J32500D01*
G01*
X15702500Y-8310000D02*
X15807500Y-8310000D01*
X15807500Y-8310000D02*
G75*
G03*
X15807500Y-8245000I0J32500D01*
G01*
X15755000Y-8395000D02*
X15755000Y-8460000D01*
X15722500Y-8427500D02*
X15787500Y-8427500D01*
X15807500Y-8395000D02*
X15702500Y-8395000D01*
X15702500Y-8460000D02*
G75*
G02*
X15702500Y-8395000I0J32500D01*
G01*
X15702500Y-8460000D02*
X15807500Y-8460000D01*
X15807500Y-8460000D02*
G75*
G03*
X15807500Y-8395000I0J32500D01*
G01*
X15755000Y-8545000D02*
X15755000Y-8610000D01*
X15722500Y-8577500D02*
X15787500Y-8577500D01*
X15807500Y-8545000D02*
X15702500Y-8545000D01*
X15702500Y-8610000D02*
G75*
G02*
X15702500Y-8545000I0J32500D01*
G01*
X15702500Y-8610000D02*
X15807500Y-8610000D01*
X15807500Y-8610000D02*
G75*
G03*
X15807500Y-8545000I0J32500D01*
G01*
X15755000Y-8695000D02*
X15755000Y-8760000D01*
X15722500Y-8727500D02*
X15787500Y-8727500D01*
X15807500Y-8695000D02*
X15702500Y-8695000D01*
X15702500Y-8760000D02*
G75*
G02*
X15702500Y-8695000I0J32500D01*
G01*
X15702500Y-8760000D02*
X15807500Y-8760000D01*
X15807500Y-8760000D02*
G75*
G03*
X15807500Y-8695000I0J32500D01*
G01*
X15755000Y-8845000D02*
X15755000Y-8910000D01*
X15722500Y-8877500D02*
X15787500Y-8877500D01*
X15807500Y-8845000D02*
X15702500Y-8845000D01*
X15702500Y-8910000D02*
G75*
G02*
X15702500Y-8845000I0J32500D01*
G01*
X15702500Y-8910000D02*
X15807500Y-8910000D01*
X15807500Y-8910000D02*
G75*
G03*
X15807500Y-8845000I0J32500D01*
G01*
X15755000Y-8995000D02*
X15755000Y-9060000D01*
X15722500Y-9027500D02*
X15787500Y-9027500D01*
X15807500Y-8995000D02*
X15702500Y-8995000D01*
X15702500Y-9060000D02*
G75*
G02*
X15702500Y-8995000I0J32500D01*
G01*
X15702500Y-9060000D02*
X15807500Y-9060000D01*
X15807500Y-9060000D02*
G75*
G03*
X15807500Y-8995000I0J32500D01*
G01*
X15755000Y-9145000D02*
X15755000Y-9210000D01*
X15722500Y-9177500D02*
X15787500Y-9177500D01*
X15807500Y-9145000D02*
X15702500Y-9145000D01*
X15702500Y-9210000D02*
G75*
G02*
X15702500Y-9145000I0J32500D01*
G01*
X15702500Y-9210000D02*
X15807500Y-9210000D01*
X15807500Y-9210000D02*
G75*
G03*
X15807500Y-9145000I0J32500D01*
G01*
X15755000Y-9295000D02*
X15755000Y-9360000D01*
X15722500Y-9327500D02*
X15787500Y-9327500D01*
X15807500Y-9295000D02*
X15702500Y-9295000D01*
X15702500Y-9360000D02*
G75*
G02*
X15702500Y-9295000I0J32500D01*
G01*
X15702500Y-9360000D02*
X15807500Y-9360000D01*
X15807500Y-9360000D02*
G75*
G03*
X15807500Y-9295000I0J32500D01*
G01*
X13446556Y-8214156D02*
X13446556Y-8143444D01*
X13375844Y-8143444D01*
X13375844Y-8214156D01*
X13446556Y-8214156D01*
X13446556Y-8468156D02*
X13446556Y-8397444D01*
X13375844Y-8397444D01*
X13375844Y-8468156D01*
X13446556Y-8468156D01*
X13446556Y-8722156D02*
X13446556Y-8651444D01*
X13375844Y-8651444D01*
X13375844Y-8722156D01*
X13446556Y-8722156D01*
X13446556Y-8976156D02*
X13446556Y-8905444D01*
X13375844Y-8905444D01*
X13375844Y-8976156D01*
X13446556Y-8976156D01*
X13446556Y-9230156D02*
X13446556Y-9159444D01*
X13375844Y-9159444D01*
X13375844Y-9230156D01*
X13446556Y-9230156D01*
X13446556Y-9484156D02*
X13446556Y-9413444D01*
X13375844Y-9413444D01*
X13375844Y-9484156D01*
X13446556Y-9484156D01*
X13446556Y-9738156D02*
X13446556Y-9667444D01*
X13375844Y-9667444D01*
X13375844Y-9738156D01*
X13446556Y-9738156D01*
X13446556Y-9992156D02*
X13446556Y-9921444D01*
X13375844Y-9921444D01*
X13375844Y-9992156D01*
X13446556Y-9992156D01*
X13446556Y-10246156D02*
X13446556Y-10175444D01*
X13375844Y-10175444D01*
X13375844Y-10246156D01*
X13446556Y-10246156D01*
X16240556Y-8214156D02*
X16240556Y-8143444D01*
X16169844Y-8143444D01*
X16169844Y-8214156D01*
X16240556Y-8214156D01*
X16240556Y-8468156D02*
X16240556Y-8397444D01*
X16169844Y-8397444D01*
X16169844Y-8468156D01*
X16240556Y-8468156D01*
X16240556Y-8722156D02*
X16240556Y-8651444D01*
X16169844Y-8651444D01*
X16169844Y-8722156D01*
X16240556Y-8722156D01*
X16240556Y-8976156D02*
X16240556Y-8905444D01*
X16169844Y-8905444D01*
X16169844Y-8976156D01*
X16240556Y-8976156D01*
X16240556Y-9230156D02*
X16240556Y-9159444D01*
X16169844Y-9159444D01*
X16169844Y-9230156D01*
X16240556Y-9230156D01*
X16240556Y-9484156D02*
X16240556Y-9413444D01*
X16169844Y-9413444D01*
X16169844Y-9484156D01*
X16240556Y-9484156D01*
X16240556Y-9738156D02*
X16240556Y-9667444D01*
X16169844Y-9667444D01*
X16169844Y-9738156D01*
X16240556Y-9738156D01*
X16240556Y-9992156D02*
X16240556Y-9921444D01*
X16169844Y-9921444D01*
X16169844Y-9992156D01*
X16240556Y-9992156D01*
X16240556Y-10246156D02*
X16240556Y-10175444D01*
X16169844Y-10175444D01*
X16169844Y-10246156D01*
X16240556Y-10246156D01*
D11*
X13514577Y-11196484D02*
X13514577Y-10996484D01*
X13514577Y-10996484D02*
X13562196Y-10996484D01*
X13562196Y-10996484D02*
X13590767Y-11006008D01*
X13590767Y-11006008D02*
X13609815Y-11025055D01*
X13609815Y-11025055D02*
X13619339Y-11044103D01*
X13619339Y-11044103D02*
X13628862Y-11082198D01*
X13628862Y-11082198D02*
X13628862Y-11110770D01*
X13628862Y-11110770D02*
X13619339Y-11148865D01*
X13619339Y-11148865D02*
X13609815Y-11167912D01*
X13609815Y-11167912D02*
X13590767Y-11186960D01*
X13590767Y-11186960D02*
X13562196Y-11196484D01*
X13562196Y-11196484D02*
X13514577Y-11196484D01*
X13714577Y-11196484D02*
X13714577Y-11063150D01*
X13714577Y-11101246D02*
X13724101Y-11082198D01*
X13724101Y-11082198D02*
X13733624Y-11072674D01*
X13733624Y-11072674D02*
X13752672Y-11063150D01*
X13752672Y-11063150D02*
X13771720Y-11063150D01*
X13838386Y-11196484D02*
X13838386Y-11063150D01*
X13838386Y-10996484D02*
X13828862Y-11006008D01*
X13828862Y-11006008D02*
X13838386Y-11015531D01*
X13838386Y-11015531D02*
X13847910Y-11006008D01*
X13847910Y-11006008D02*
X13838386Y-10996484D01*
X13838386Y-10996484D02*
X13838386Y-11015531D01*
X13962196Y-11196484D02*
X13943148Y-11186960D01*
X13943148Y-11186960D02*
X13933624Y-11167912D01*
X13933624Y-11167912D02*
X13933624Y-10996484D01*
X14066958Y-11196484D02*
X14047910Y-11186960D01*
X14047910Y-11186960D02*
X14038386Y-11167912D01*
X14038386Y-11167912D02*
X14038386Y-10996484D01*
X14295529Y-11196484D02*
X14295529Y-10996484D01*
X14295529Y-10996484D02*
X14362196Y-11139341D01*
X14362196Y-11139341D02*
X14428862Y-10996484D01*
X14428862Y-10996484D02*
X14428862Y-11196484D01*
X14609815Y-11196484D02*
X14609815Y-11091722D01*
X14609815Y-11091722D02*
X14600291Y-11072674D01*
X14600291Y-11072674D02*
X14581243Y-11063150D01*
X14581243Y-11063150D02*
X14543148Y-11063150D01*
X14543148Y-11063150D02*
X14524101Y-11072674D01*
X14609815Y-11186960D02*
X14590767Y-11196484D01*
X14590767Y-11196484D02*
X14543148Y-11196484D01*
X14543148Y-11196484D02*
X14524101Y-11186960D01*
X14524101Y-11186960D02*
X14514577Y-11167912D01*
X14514577Y-11167912D02*
X14514577Y-11148865D01*
X14514577Y-11148865D02*
X14524101Y-11129817D01*
X14524101Y-11129817D02*
X14543148Y-11120293D01*
X14543148Y-11120293D02*
X14590767Y-11120293D01*
X14590767Y-11120293D02*
X14609815Y-11110770D01*
X14705053Y-11063150D02*
X14705053Y-11263150D01*
X14705053Y-11072674D02*
X14724101Y-11063150D01*
X14724101Y-11063150D02*
X14762196Y-11063150D01*
X14762196Y-11063150D02*
X14781243Y-11072674D01*
X14781243Y-11072674D02*
X14790767Y-11082198D01*
X14790767Y-11082198D02*
X14800291Y-11101246D01*
X14800291Y-11101246D02*
X14800291Y-11158389D01*
X14800291Y-11158389D02*
X14790767Y-11177436D01*
X14790767Y-11177436D02*
X14781243Y-11186960D01*
X14781243Y-11186960D02*
X14762196Y-11196484D01*
X14762196Y-11196484D02*
X14724101Y-11196484D01*
X14724101Y-11196484D02*
X14705053Y-11186960D01*
X14886005Y-11177436D02*
X14895529Y-11186960D01*
X14895529Y-11186960D02*
X14886005Y-11196484D01*
X14886005Y-11196484D02*
X14876482Y-11186960D01*
X14876482Y-11186960D02*
X14886005Y-11177436D01*
X14886005Y-11177436D02*
X14886005Y-11196484D01*
X14886005Y-11072674D02*
X14895529Y-11082198D01*
X14895529Y-11082198D02*
X14886005Y-11091722D01*
X14886005Y-11091722D02*
X14876482Y-11082198D01*
X14876482Y-11082198D02*
X14886005Y-11072674D01*
X14886005Y-11072674D02*
X14886005Y-11091722D01*
D10*
X13223800Y-11510000D02*
X13253800Y-11540000D01*
X13253800Y-11510000D02*
X13223800Y-11540000D01*
D11*
X13552672Y-11416484D02*
X13571720Y-11416484D01*
X13571720Y-11416484D02*
X13590767Y-11426008D01*
X13590767Y-11426008D02*
X13600291Y-11435531D01*
X13600291Y-11435531D02*
X13609815Y-11454579D01*
X13609815Y-11454579D02*
X13619339Y-11492674D01*
X13619339Y-11492674D02*
X13619339Y-11540293D01*
X13619339Y-11540293D02*
X13609815Y-11578388D01*
X13609815Y-11578388D02*
X13600291Y-11597436D01*
X13600291Y-11597436D02*
X13590767Y-11606960D01*
X13590767Y-11606960D02*
X13571720Y-11616484D01*
X13571720Y-11616484D02*
X13552672Y-11616484D01*
X13552672Y-11616484D02*
X13533624Y-11606960D01*
X13533624Y-11606960D02*
X13524101Y-11597436D01*
X13524101Y-11597436D02*
X13514577Y-11578388D01*
X13514577Y-11578388D02*
X13505053Y-11540293D01*
X13505053Y-11540293D02*
X13505053Y-11492674D01*
X13505053Y-11492674D02*
X13514577Y-11454579D01*
X13514577Y-11454579D02*
X13524101Y-11435531D01*
X13524101Y-11435531D02*
X13533624Y-11426008D01*
X13533624Y-11426008D02*
X13552672Y-11416484D01*
X13705053Y-11597436D02*
X13714577Y-11606960D01*
X13714577Y-11606960D02*
X13705053Y-11616484D01*
X13705053Y-11616484D02*
X13695529Y-11606960D01*
X13695529Y-11606960D02*
X13705053Y-11597436D01*
X13705053Y-11597436D02*
X13705053Y-11616484D01*
X13781243Y-11416484D02*
X13905053Y-11416484D01*
X13905053Y-11416484D02*
X13838386Y-11492674D01*
X13838386Y-11492674D02*
X13866958Y-11492674D01*
X13866958Y-11492674D02*
X13886005Y-11502198D01*
X13886005Y-11502198D02*
X13895529Y-11511722D01*
X13895529Y-11511722D02*
X13905053Y-11530769D01*
X13905053Y-11530769D02*
X13905053Y-11578388D01*
X13905053Y-11578388D02*
X13895529Y-11597436D01*
X13895529Y-11597436D02*
X13886005Y-11606960D01*
X13886005Y-11606960D02*
X13866958Y-11616484D01*
X13866958Y-11616484D02*
X13809815Y-11616484D01*
X13809815Y-11616484D02*
X13790767Y-11606960D01*
X13790767Y-11606960D02*
X13781243Y-11597436D01*
X14028862Y-11416484D02*
X14047910Y-11416484D01*
X14047910Y-11416484D02*
X14066958Y-11426008D01*
X14066958Y-11426008D02*
X14076482Y-11435531D01*
X14076482Y-11435531D02*
X14086005Y-11454579D01*
X14086005Y-11454579D02*
X14095529Y-11492674D01*
X14095529Y-11492674D02*
X14095529Y-11540293D01*
X14095529Y-11540293D02*
X14086005Y-11578388D01*
X14086005Y-11578388D02*
X14076482Y-11597436D01*
X14076482Y-11597436D02*
X14066958Y-11606960D01*
X14066958Y-11606960D02*
X14047910Y-11616484D01*
X14047910Y-11616484D02*
X14028862Y-11616484D01*
X14028862Y-11616484D02*
X14009815Y-11606960D01*
X14009815Y-11606960D02*
X14000291Y-11597436D01*
X14000291Y-11597436D02*
X13990767Y-11578388D01*
X13990767Y-11578388D02*
X13981243Y-11540293D01*
X13981243Y-11540293D02*
X13981243Y-11492674D01*
X13981243Y-11492674D02*
X13990767Y-11454579D01*
X13990767Y-11454579D02*
X14000291Y-11435531D01*
X14000291Y-11435531D02*
X14009815Y-11426008D01*
X14009815Y-11426008D02*
X14028862Y-11416484D01*
X14219339Y-11416484D02*
X14238386Y-11416484D01*
X14238386Y-11416484D02*
X14257434Y-11426008D01*
X14257434Y-11426008D02*
X14266958Y-11435531D01*
X14266958Y-11435531D02*
X14276482Y-11454579D01*
X14276482Y-11454579D02*
X14286005Y-11492674D01*
X14286005Y-11492674D02*
X14286005Y-11540293D01*
X14286005Y-11540293D02*
X14276482Y-11578388D01*
X14276482Y-11578388D02*
X14266958Y-11597436D01*
X14266958Y-11597436D02*
X14257434Y-11606960D01*
X14257434Y-11606960D02*
X14238386Y-11616484D01*
X14238386Y-11616484D02*
X14219339Y-11616484D01*
X14219339Y-11616484D02*
X14200291Y-11606960D01*
X14200291Y-11606960D02*
X14190767Y-11597436D01*
X14190767Y-11597436D02*
X14181243Y-11578388D01*
X14181243Y-11578388D02*
X14171720Y-11540293D01*
X14171720Y-11540293D02*
X14171720Y-11492674D01*
X14171720Y-11492674D02*
X14181243Y-11454579D01*
X14181243Y-11454579D02*
X14190767Y-11435531D01*
X14190767Y-11435531D02*
X14200291Y-11426008D01*
X14200291Y-11426008D02*
X14219339Y-11416484D01*
X14371720Y-11616484D02*
X14371720Y-11483150D01*
X14371720Y-11502198D02*
X14381243Y-11492674D01*
X14381243Y-11492674D02*
X14400291Y-11483150D01*
X14400291Y-11483150D02*
X14428863Y-11483150D01*
X14428863Y-11483150D02*
X14447910Y-11492674D01*
X14447910Y-11492674D02*
X14457434Y-11511722D01*
X14457434Y-11511722D02*
X14457434Y-11616484D01*
X14457434Y-11511722D02*
X14466958Y-11492674D01*
X14466958Y-11492674D02*
X14486005Y-11483150D01*
X14486005Y-11483150D02*
X14514577Y-11483150D01*
X14514577Y-11483150D02*
X14533624Y-11492674D01*
X14533624Y-11492674D02*
X14543148Y-11511722D01*
X14543148Y-11511722D02*
X14543148Y-11616484D01*
X14638386Y-11616484D02*
X14638386Y-11483150D01*
X14638386Y-11502198D02*
X14647910Y-11492674D01*
X14647910Y-11492674D02*
X14666958Y-11483150D01*
X14666958Y-11483150D02*
X14695529Y-11483150D01*
X14695529Y-11483150D02*
X14714577Y-11492674D01*
X14714577Y-11492674D02*
X14724101Y-11511722D01*
X14724101Y-11511722D02*
X14724101Y-11616484D01*
X14724101Y-11511722D02*
X14733624Y-11492674D01*
X14733624Y-11492674D02*
X14752672Y-11483150D01*
X14752672Y-11483150D02*
X14781243Y-11483150D01*
X14781243Y-11483150D02*
X14800291Y-11492674D01*
X14800291Y-11492674D02*
X14809815Y-11511722D01*
X14809815Y-11511722D02*
X14809815Y-11616484D01*
X15200291Y-11406960D02*
X15028863Y-11664103D01*
X15457434Y-11416484D02*
X15476482Y-11416484D01*
X15476482Y-11416484D02*
X15495529Y-11426008D01*
X15495529Y-11426008D02*
X15505053Y-11435531D01*
X15505053Y-11435531D02*
X15514577Y-11454579D01*
X15514577Y-11454579D02*
X15524101Y-11492674D01*
X15524101Y-11492674D02*
X15524101Y-11540293D01*
X15524101Y-11540293D02*
X15514577Y-11578388D01*
X15514577Y-11578388D02*
X15505053Y-11597436D01*
X15505053Y-11597436D02*
X15495529Y-11606960D01*
X15495529Y-11606960D02*
X15476482Y-11616484D01*
X15476482Y-11616484D02*
X15457434Y-11616484D01*
X15457434Y-11616484D02*
X15438386Y-11606960D01*
X15438386Y-11606960D02*
X15428863Y-11597436D01*
X15428863Y-11597436D02*
X15419339Y-11578388D01*
X15419339Y-11578388D02*
X15409815Y-11540293D01*
X15409815Y-11540293D02*
X15409815Y-11492674D01*
X15409815Y-11492674D02*
X15419339Y-11454579D01*
X15419339Y-11454579D02*
X15428863Y-11435531D01*
X15428863Y-11435531D02*
X15438386Y-11426008D01*
X15438386Y-11426008D02*
X15457434Y-11416484D01*
X15609815Y-11597436D02*
X15619339Y-11606960D01*
X15619339Y-11606960D02*
X15609815Y-11616484D01*
X15609815Y-11616484D02*
X15600291Y-11606960D01*
X15600291Y-11606960D02*
X15609815Y-11597436D01*
X15609815Y-11597436D02*
X15609815Y-11616484D01*
X15743148Y-11416484D02*
X15762196Y-11416484D01*
X15762196Y-11416484D02*
X15781244Y-11426008D01*
X15781244Y-11426008D02*
X15790767Y-11435531D01*
X15790767Y-11435531D02*
X15800291Y-11454579D01*
X15800291Y-11454579D02*
X15809815Y-11492674D01*
X15809815Y-11492674D02*
X15809815Y-11540293D01*
X15809815Y-11540293D02*
X15800291Y-11578388D01*
X15800291Y-11578388D02*
X15790767Y-11597436D01*
X15790767Y-11597436D02*
X15781244Y-11606960D01*
X15781244Y-11606960D02*
X15762196Y-11616484D01*
X15762196Y-11616484D02*
X15743148Y-11616484D01*
X15743148Y-11616484D02*
X15724101Y-11606960D01*
X15724101Y-11606960D02*
X15714577Y-11597436D01*
X15714577Y-11597436D02*
X15705053Y-11578388D01*
X15705053Y-11578388D02*
X15695529Y-11540293D01*
X15695529Y-11540293D02*
X15695529Y-11492674D01*
X15695529Y-11492674D02*
X15705053Y-11454579D01*
X15705053Y-11454579D02*
X15714577Y-11435531D01*
X15714577Y-11435531D02*
X15724101Y-11426008D01*
X15724101Y-11426008D02*
X15743148Y-11416484D01*
X16000291Y-11616484D02*
X15886006Y-11616484D01*
X15943148Y-11616484D02*
X15943148Y-11416484D01*
X15943148Y-11416484D02*
X15924101Y-11445055D01*
X15924101Y-11445055D02*
X15905053Y-11464103D01*
X15905053Y-11464103D02*
X15886006Y-11473627D01*
X16190767Y-11616484D02*
X16076482Y-11616484D01*
X16133625Y-11616484D02*
X16133625Y-11416484D01*
X16133625Y-11416484D02*
X16114577Y-11445055D01*
X16114577Y-11445055D02*
X16095529Y-11464103D01*
X16095529Y-11464103D02*
X16076482Y-11473627D01*
X16305053Y-11502198D02*
X16286006Y-11492674D01*
X16286006Y-11492674D02*
X16276482Y-11483150D01*
X16276482Y-11483150D02*
X16266958Y-11464103D01*
X16266958Y-11464103D02*
X16266958Y-11454579D01*
X16266958Y-11454579D02*
X16276482Y-11435531D01*
X16276482Y-11435531D02*
X16286006Y-11426008D01*
X16286006Y-11426008D02*
X16305053Y-11416484D01*
X16305053Y-11416484D02*
X16343148Y-11416484D01*
X16343148Y-11416484D02*
X16362196Y-11426008D01*
X16362196Y-11426008D02*
X16371720Y-11435531D01*
X16371720Y-11435531D02*
X16381244Y-11454579D01*
X16381244Y-11454579D02*
X16381244Y-11464103D01*
X16381244Y-11464103D02*
X16371720Y-11483150D01*
X16371720Y-11483150D02*
X16362196Y-11492674D01*
X16362196Y-11492674D02*
X16343148Y-11502198D01*
X16343148Y-11502198D02*
X16305053Y-11502198D01*
X16305053Y-11502198D02*
X16286006Y-11511722D01*
X16286006Y-11511722D02*
X16276482Y-11521246D01*
X16276482Y-11521246D02*
X16266958Y-11540293D01*
X16266958Y-11540293D02*
X16266958Y-11578388D01*
X16266958Y-11578388D02*
X16276482Y-11597436D01*
X16276482Y-11597436D02*
X16286006Y-11606960D01*
X16286006Y-11606960D02*
X16305053Y-11616484D01*
X16305053Y-11616484D02*
X16343148Y-11616484D01*
X16343148Y-11616484D02*
X16362196Y-11606960D01*
X16362196Y-11606960D02*
X16371720Y-11597436D01*
X16371720Y-11597436D02*
X16381244Y-11578388D01*
X16381244Y-11578388D02*
X16381244Y-11540293D01*
X16381244Y-11540293D02*
X16371720Y-11521246D01*
X16371720Y-11521246D02*
X16362196Y-11511722D01*
X16362196Y-11511722D02*
X16343148Y-11502198D01*
X16457434Y-11416484D02*
X16457434Y-11454579D01*
X16533625Y-11416484D02*
X16533625Y-11454579D01*
X16828863Y-11692674D02*
X16819339Y-11683150D01*
X16819339Y-11683150D02*
X16800291Y-11654579D01*
X16800291Y-11654579D02*
X16790768Y-11635531D01*
X16790768Y-11635531D02*
X16781244Y-11606960D01*
X16781244Y-11606960D02*
X16771720Y-11559341D01*
X16771720Y-11559341D02*
X16771720Y-11521246D01*
X16771720Y-11521246D02*
X16781244Y-11473627D01*
X16781244Y-11473627D02*
X16790768Y-11445055D01*
X16790768Y-11445055D02*
X16800291Y-11426008D01*
X16800291Y-11426008D02*
X16819339Y-11397436D01*
X16819339Y-11397436D02*
X16828863Y-11387912D01*
X17000291Y-11416484D02*
X16905053Y-11416484D01*
X16905053Y-11416484D02*
X16895530Y-11511722D01*
X16895530Y-11511722D02*
X16905053Y-11502198D01*
X16905053Y-11502198D02*
X16924101Y-11492674D01*
X16924101Y-11492674D02*
X16971720Y-11492674D01*
X16971720Y-11492674D02*
X16990768Y-11502198D01*
X16990768Y-11502198D02*
X17000291Y-11511722D01*
X17000291Y-11511722D02*
X17009815Y-11530769D01*
X17009815Y-11530769D02*
X17009815Y-11578388D01*
X17009815Y-11578388D02*
X17000291Y-11597436D01*
X17000291Y-11597436D02*
X16990768Y-11606960D01*
X16990768Y-11606960D02*
X16971720Y-11616484D01*
X16971720Y-11616484D02*
X16924101Y-11616484D01*
X16924101Y-11616484D02*
X16905053Y-11606960D01*
X16905053Y-11606960D02*
X16895530Y-11597436D01*
X17247911Y-11616484D02*
X17247911Y-11416484D01*
X17333625Y-11616484D02*
X17333625Y-11511722D01*
X17333625Y-11511722D02*
X17324101Y-11492674D01*
X17324101Y-11492674D02*
X17305053Y-11483150D01*
X17305053Y-11483150D02*
X17276482Y-11483150D01*
X17276482Y-11483150D02*
X17257434Y-11492674D01*
X17257434Y-11492674D02*
X17247911Y-11502198D01*
X17457434Y-11616484D02*
X17438387Y-11606960D01*
X17438387Y-11606960D02*
X17428863Y-11597436D01*
X17428863Y-11597436D02*
X17419339Y-11578388D01*
X17419339Y-11578388D02*
X17419339Y-11521246D01*
X17419339Y-11521246D02*
X17428863Y-11502198D01*
X17428863Y-11502198D02*
X17438387Y-11492674D01*
X17438387Y-11492674D02*
X17457434Y-11483150D01*
X17457434Y-11483150D02*
X17486006Y-11483150D01*
X17486006Y-11483150D02*
X17505053Y-11492674D01*
X17505053Y-11492674D02*
X17514577Y-11502198D01*
X17514577Y-11502198D02*
X17524101Y-11521246D01*
X17524101Y-11521246D02*
X17524101Y-11578388D01*
X17524101Y-11578388D02*
X17514577Y-11597436D01*
X17514577Y-11597436D02*
X17505053Y-11606960D01*
X17505053Y-11606960D02*
X17486006Y-11616484D01*
X17486006Y-11616484D02*
X17457434Y-11616484D01*
X17638387Y-11616484D02*
X17619339Y-11606960D01*
X17619339Y-11606960D02*
X17609815Y-11587912D01*
X17609815Y-11587912D02*
X17609815Y-11416484D01*
X17790768Y-11606960D02*
X17771720Y-11616484D01*
X17771720Y-11616484D02*
X17733625Y-11616484D01*
X17733625Y-11616484D02*
X17714577Y-11606960D01*
X17714577Y-11606960D02*
X17705053Y-11587912D01*
X17705053Y-11587912D02*
X17705053Y-11511722D01*
X17705053Y-11511722D02*
X17714577Y-11492674D01*
X17714577Y-11492674D02*
X17733625Y-11483150D01*
X17733625Y-11483150D02*
X17771720Y-11483150D01*
X17771720Y-11483150D02*
X17790768Y-11492674D01*
X17790768Y-11492674D02*
X17800292Y-11511722D01*
X17800292Y-11511722D02*
X17800292Y-11530769D01*
X17800292Y-11530769D02*
X17705053Y-11549817D01*
X17876482Y-11606960D02*
X17895530Y-11616484D01*
X17895530Y-11616484D02*
X17933625Y-11616484D01*
X17933625Y-11616484D02*
X17952673Y-11606960D01*
X17952673Y-11606960D02*
X17962196Y-11587912D01*
X17962196Y-11587912D02*
X17962196Y-11578388D01*
X17962196Y-11578388D02*
X17952673Y-11559341D01*
X17952673Y-11559341D02*
X17933625Y-11549817D01*
X17933625Y-11549817D02*
X17905053Y-11549817D01*
X17905053Y-11549817D02*
X17886006Y-11540293D01*
X17886006Y-11540293D02*
X17876482Y-11521246D01*
X17876482Y-11521246D02*
X17876482Y-11511722D01*
X17876482Y-11511722D02*
X17886006Y-11492674D01*
X17886006Y-11492674D02*
X17905053Y-11483150D01*
X17905053Y-11483150D02*
X17933625Y-11483150D01*
X17933625Y-11483150D02*
X17952673Y-11492674D01*
X18028863Y-11692674D02*
X18038387Y-11683150D01*
X18038387Y-11683150D02*
X18057434Y-11654579D01*
X18057434Y-11654579D02*
X18066958Y-11635531D01*
X18066958Y-11635531D02*
X18076482Y-11606960D01*
X18076482Y-11606960D02*
X18086006Y-11559341D01*
X18086006Y-11559341D02*
X18086006Y-11521246D01*
X18086006Y-11521246D02*
X18076482Y-11473627D01*
X18076482Y-11473627D02*
X18066958Y-11445055D01*
X18066958Y-11445055D02*
X18057434Y-11426008D01*
X18057434Y-11426008D02*
X18038387Y-11397436D01*
X18038387Y-11397436D02*
X18028863Y-11387912D01*
D10*
X13253800Y-11789000D02*
G75*
G02*
X13193800Y-11789000I-30000J0D01*
G01*
X13193800Y-11789000D02*
G75*
G02*
X13253800Y-11789000I30000J0D01*
G01*
D11*
X13552672Y-11680484D02*
X13571720Y-11680484D01*
X13571720Y-11680484D02*
X13590767Y-11690008D01*
X13590767Y-11690008D02*
X13600291Y-11699531D01*
X13600291Y-11699531D02*
X13609815Y-11718579D01*
X13609815Y-11718579D02*
X13619339Y-11756674D01*
X13619339Y-11756674D02*
X13619339Y-11804293D01*
X13619339Y-11804293D02*
X13609815Y-11842388D01*
X13609815Y-11842388D02*
X13600291Y-11861436D01*
X13600291Y-11861436D02*
X13590767Y-11870960D01*
X13590767Y-11870960D02*
X13571720Y-11880484D01*
X13571720Y-11880484D02*
X13552672Y-11880484D01*
X13552672Y-11880484D02*
X13533624Y-11870960D01*
X13533624Y-11870960D02*
X13524101Y-11861436D01*
X13524101Y-11861436D02*
X13514577Y-11842388D01*
X13514577Y-11842388D02*
X13505053Y-11804293D01*
X13505053Y-11804293D02*
X13505053Y-11756674D01*
X13505053Y-11756674D02*
X13514577Y-11718579D01*
X13514577Y-11718579D02*
X13524101Y-11699531D01*
X13524101Y-11699531D02*
X13533624Y-11690008D01*
X13533624Y-11690008D02*
X13552672Y-11680484D01*
X13705053Y-11861436D02*
X13714577Y-11870960D01*
X13714577Y-11870960D02*
X13705053Y-11880484D01*
X13705053Y-11880484D02*
X13695529Y-11870960D01*
X13695529Y-11870960D02*
X13705053Y-11861436D01*
X13705053Y-11861436D02*
X13705053Y-11880484D01*
X13886005Y-11680484D02*
X13847910Y-11680484D01*
X13847910Y-11680484D02*
X13828862Y-11690008D01*
X13828862Y-11690008D02*
X13819339Y-11699531D01*
X13819339Y-11699531D02*
X13800291Y-11728103D01*
X13800291Y-11728103D02*
X13790767Y-11766198D01*
X13790767Y-11766198D02*
X13790767Y-11842388D01*
X13790767Y-11842388D02*
X13800291Y-11861436D01*
X13800291Y-11861436D02*
X13809815Y-11870960D01*
X13809815Y-11870960D02*
X13828862Y-11880484D01*
X13828862Y-11880484D02*
X13866958Y-11880484D01*
X13866958Y-11880484D02*
X13886005Y-11870960D01*
X13886005Y-11870960D02*
X13895529Y-11861436D01*
X13895529Y-11861436D02*
X13905053Y-11842388D01*
X13905053Y-11842388D02*
X13905053Y-11794769D01*
X13905053Y-11794769D02*
X13895529Y-11775722D01*
X13895529Y-11775722D02*
X13886005Y-11766198D01*
X13886005Y-11766198D02*
X13866958Y-11756674D01*
X13866958Y-11756674D02*
X13828862Y-11756674D01*
X13828862Y-11756674D02*
X13809815Y-11766198D01*
X13809815Y-11766198D02*
X13800291Y-11775722D01*
X13800291Y-11775722D02*
X13790767Y-11794769D01*
X14028862Y-11680484D02*
X14047910Y-11680484D01*
X14047910Y-11680484D02*
X14066958Y-11690008D01*
X14066958Y-11690008D02*
X14076482Y-11699531D01*
X14076482Y-11699531D02*
X14086005Y-11718579D01*
X14086005Y-11718579D02*
X14095529Y-11756674D01*
X14095529Y-11756674D02*
X14095529Y-11804293D01*
X14095529Y-11804293D02*
X14086005Y-11842388D01*
X14086005Y-11842388D02*
X14076482Y-11861436D01*
X14076482Y-11861436D02*
X14066958Y-11870960D01*
X14066958Y-11870960D02*
X14047910Y-11880484D01*
X14047910Y-11880484D02*
X14028862Y-11880484D01*
X14028862Y-11880484D02*
X14009815Y-11870960D01*
X14009815Y-11870960D02*
X14000291Y-11861436D01*
X14000291Y-11861436D02*
X13990767Y-11842388D01*
X13990767Y-11842388D02*
X13981243Y-11804293D01*
X13981243Y-11804293D02*
X13981243Y-11756674D01*
X13981243Y-11756674D02*
X13990767Y-11718579D01*
X13990767Y-11718579D02*
X14000291Y-11699531D01*
X14000291Y-11699531D02*
X14009815Y-11690008D01*
X14009815Y-11690008D02*
X14028862Y-11680484D01*
X14219339Y-11680484D02*
X14238386Y-11680484D01*
X14238386Y-11680484D02*
X14257434Y-11690008D01*
X14257434Y-11690008D02*
X14266958Y-11699531D01*
X14266958Y-11699531D02*
X14276482Y-11718579D01*
X14276482Y-11718579D02*
X14286005Y-11756674D01*
X14286005Y-11756674D02*
X14286005Y-11804293D01*
X14286005Y-11804293D02*
X14276482Y-11842388D01*
X14276482Y-11842388D02*
X14266958Y-11861436D01*
X14266958Y-11861436D02*
X14257434Y-11870960D01*
X14257434Y-11870960D02*
X14238386Y-11880484D01*
X14238386Y-11880484D02*
X14219339Y-11880484D01*
X14219339Y-11880484D02*
X14200291Y-11870960D01*
X14200291Y-11870960D02*
X14190767Y-11861436D01*
X14190767Y-11861436D02*
X14181243Y-11842388D01*
X14181243Y-11842388D02*
X14171720Y-11804293D01*
X14171720Y-11804293D02*
X14171720Y-11756674D01*
X14171720Y-11756674D02*
X14181243Y-11718579D01*
X14181243Y-11718579D02*
X14190767Y-11699531D01*
X14190767Y-11699531D02*
X14200291Y-11690008D01*
X14200291Y-11690008D02*
X14219339Y-11680484D01*
X14371720Y-11880484D02*
X14371720Y-11747150D01*
X14371720Y-11766198D02*
X14381243Y-11756674D01*
X14381243Y-11756674D02*
X14400291Y-11747150D01*
X14400291Y-11747150D02*
X14428863Y-11747150D01*
X14428863Y-11747150D02*
X14447910Y-11756674D01*
X14447910Y-11756674D02*
X14457434Y-11775722D01*
X14457434Y-11775722D02*
X14457434Y-11880484D01*
X14457434Y-11775722D02*
X14466958Y-11756674D01*
X14466958Y-11756674D02*
X14486005Y-11747150D01*
X14486005Y-11747150D02*
X14514577Y-11747150D01*
X14514577Y-11747150D02*
X14533624Y-11756674D01*
X14533624Y-11756674D02*
X14543148Y-11775722D01*
X14543148Y-11775722D02*
X14543148Y-11880484D01*
X14638386Y-11880484D02*
X14638386Y-11747150D01*
X14638386Y-11766198D02*
X14647910Y-11756674D01*
X14647910Y-11756674D02*
X14666958Y-11747150D01*
X14666958Y-11747150D02*
X14695529Y-11747150D01*
X14695529Y-11747150D02*
X14714577Y-11756674D01*
X14714577Y-11756674D02*
X14724101Y-11775722D01*
X14724101Y-11775722D02*
X14724101Y-11880484D01*
X14724101Y-11775722D02*
X14733624Y-11756674D01*
X14733624Y-11756674D02*
X14752672Y-11747150D01*
X14752672Y-11747150D02*
X14781243Y-11747150D01*
X14781243Y-11747150D02*
X14800291Y-11756674D01*
X14800291Y-11756674D02*
X14809815Y-11775722D01*
X14809815Y-11775722D02*
X14809815Y-11880484D01*
X15200291Y-11670960D02*
X15028863Y-11928103D01*
X15457434Y-11680484D02*
X15476482Y-11680484D01*
X15476482Y-11680484D02*
X15495529Y-11690008D01*
X15495529Y-11690008D02*
X15505053Y-11699531D01*
X15505053Y-11699531D02*
X15514577Y-11718579D01*
X15514577Y-11718579D02*
X15524101Y-11756674D01*
X15524101Y-11756674D02*
X15524101Y-11804293D01*
X15524101Y-11804293D02*
X15514577Y-11842388D01*
X15514577Y-11842388D02*
X15505053Y-11861436D01*
X15505053Y-11861436D02*
X15495529Y-11870960D01*
X15495529Y-11870960D02*
X15476482Y-11880484D01*
X15476482Y-11880484D02*
X15457434Y-11880484D01*
X15457434Y-11880484D02*
X15438386Y-11870960D01*
X15438386Y-11870960D02*
X15428863Y-11861436D01*
X15428863Y-11861436D02*
X15419339Y-11842388D01*
X15419339Y-11842388D02*
X15409815Y-11804293D01*
X15409815Y-11804293D02*
X15409815Y-11756674D01*
X15409815Y-11756674D02*
X15419339Y-11718579D01*
X15419339Y-11718579D02*
X15428863Y-11699531D01*
X15428863Y-11699531D02*
X15438386Y-11690008D01*
X15438386Y-11690008D02*
X15457434Y-11680484D01*
X15609815Y-11861436D02*
X15619339Y-11870960D01*
X15619339Y-11870960D02*
X15609815Y-11880484D01*
X15609815Y-11880484D02*
X15600291Y-11870960D01*
X15600291Y-11870960D02*
X15609815Y-11861436D01*
X15609815Y-11861436D02*
X15609815Y-11880484D01*
X15743148Y-11680484D02*
X15762196Y-11680484D01*
X15762196Y-11680484D02*
X15781244Y-11690008D01*
X15781244Y-11690008D02*
X15790767Y-11699531D01*
X15790767Y-11699531D02*
X15800291Y-11718579D01*
X15800291Y-11718579D02*
X15809815Y-11756674D01*
X15809815Y-11756674D02*
X15809815Y-11804293D01*
X15809815Y-11804293D02*
X15800291Y-11842388D01*
X15800291Y-11842388D02*
X15790767Y-11861436D01*
X15790767Y-11861436D02*
X15781244Y-11870960D01*
X15781244Y-11870960D02*
X15762196Y-11880484D01*
X15762196Y-11880484D02*
X15743148Y-11880484D01*
X15743148Y-11880484D02*
X15724101Y-11870960D01*
X15724101Y-11870960D02*
X15714577Y-11861436D01*
X15714577Y-11861436D02*
X15705053Y-11842388D01*
X15705053Y-11842388D02*
X15695529Y-11804293D01*
X15695529Y-11804293D02*
X15695529Y-11756674D01*
X15695529Y-11756674D02*
X15705053Y-11718579D01*
X15705053Y-11718579D02*
X15714577Y-11699531D01*
X15714577Y-11699531D02*
X15724101Y-11690008D01*
X15724101Y-11690008D02*
X15743148Y-11680484D01*
X15886006Y-11699531D02*
X15895529Y-11690008D01*
X15895529Y-11690008D02*
X15914577Y-11680484D01*
X15914577Y-11680484D02*
X15962196Y-11680484D01*
X15962196Y-11680484D02*
X15981244Y-11690008D01*
X15981244Y-11690008D02*
X15990767Y-11699531D01*
X15990767Y-11699531D02*
X16000291Y-11718579D01*
X16000291Y-11718579D02*
X16000291Y-11737627D01*
X16000291Y-11737627D02*
X15990767Y-11766198D01*
X15990767Y-11766198D02*
X15876482Y-11880484D01*
X15876482Y-11880484D02*
X16000291Y-11880484D01*
X16066958Y-11680484D02*
X16190767Y-11680484D01*
X16190767Y-11680484D02*
X16124101Y-11756674D01*
X16124101Y-11756674D02*
X16152672Y-11756674D01*
X16152672Y-11756674D02*
X16171720Y-11766198D01*
X16171720Y-11766198D02*
X16181244Y-11775722D01*
X16181244Y-11775722D02*
X16190767Y-11794769D01*
X16190767Y-11794769D02*
X16190767Y-11842388D01*
X16190767Y-11842388D02*
X16181244Y-11861436D01*
X16181244Y-11861436D02*
X16171720Y-11870960D01*
X16171720Y-11870960D02*
X16152672Y-11880484D01*
X16152672Y-11880484D02*
X16095529Y-11880484D01*
X16095529Y-11880484D02*
X16076482Y-11870960D01*
X16076482Y-11870960D02*
X16066958Y-11861436D01*
X16362196Y-11680484D02*
X16324101Y-11680484D01*
X16324101Y-11680484D02*
X16305053Y-11690008D01*
X16305053Y-11690008D02*
X16295529Y-11699531D01*
X16295529Y-11699531D02*
X16276482Y-11728103D01*
X16276482Y-11728103D02*
X16266958Y-11766198D01*
X16266958Y-11766198D02*
X16266958Y-11842388D01*
X16266958Y-11842388D02*
X16276482Y-11861436D01*
X16276482Y-11861436D02*
X16286006Y-11870960D01*
X16286006Y-11870960D02*
X16305053Y-11880484D01*
X16305053Y-11880484D02*
X16343148Y-11880484D01*
X16343148Y-11880484D02*
X16362196Y-11870960D01*
X16362196Y-11870960D02*
X16371720Y-11861436D01*
X16371720Y-11861436D02*
X16381244Y-11842388D01*
X16381244Y-11842388D02*
X16381244Y-11794769D01*
X16381244Y-11794769D02*
X16371720Y-11775722D01*
X16371720Y-11775722D02*
X16362196Y-11766198D01*
X16362196Y-11766198D02*
X16343148Y-11756674D01*
X16343148Y-11756674D02*
X16305053Y-11756674D01*
X16305053Y-11756674D02*
X16286006Y-11766198D01*
X16286006Y-11766198D02*
X16276482Y-11775722D01*
X16276482Y-11775722D02*
X16266958Y-11794769D01*
X16457434Y-11680484D02*
X16457434Y-11718579D01*
X16533625Y-11680484D02*
X16533625Y-11718579D01*
X16828863Y-11956674D02*
X16819339Y-11947150D01*
X16819339Y-11947150D02*
X16800291Y-11918579D01*
X16800291Y-11918579D02*
X16790768Y-11899531D01*
X16790768Y-11899531D02*
X16781244Y-11870960D01*
X16781244Y-11870960D02*
X16771720Y-11823341D01*
X16771720Y-11823341D02*
X16771720Y-11785246D01*
X16771720Y-11785246D02*
X16781244Y-11737627D01*
X16781244Y-11737627D02*
X16790768Y-11709055D01*
X16790768Y-11709055D02*
X16800291Y-11690008D01*
X16800291Y-11690008D02*
X16819339Y-11661436D01*
X16819339Y-11661436D02*
X16828863Y-11651912D01*
X17009815Y-11880484D02*
X16895530Y-11880484D01*
X16952672Y-11880484D02*
X16952672Y-11680484D01*
X16952672Y-11680484D02*
X16933625Y-11709055D01*
X16933625Y-11709055D02*
X16914577Y-11728103D01*
X16914577Y-11728103D02*
X16895530Y-11737627D01*
X17124101Y-11766198D02*
X17105053Y-11756674D01*
X17105053Y-11756674D02*
X17095530Y-11747150D01*
X17095530Y-11747150D02*
X17086006Y-11728103D01*
X17086006Y-11728103D02*
X17086006Y-11718579D01*
X17086006Y-11718579D02*
X17095530Y-11699531D01*
X17095530Y-11699531D02*
X17105053Y-11690008D01*
X17105053Y-11690008D02*
X17124101Y-11680484D01*
X17124101Y-11680484D02*
X17162196Y-11680484D01*
X17162196Y-11680484D02*
X17181244Y-11690008D01*
X17181244Y-11690008D02*
X17190768Y-11699531D01*
X17190768Y-11699531D02*
X17200291Y-11718579D01*
X17200291Y-11718579D02*
X17200291Y-11728103D01*
X17200291Y-11728103D02*
X17190768Y-11747150D01*
X17190768Y-11747150D02*
X17181244Y-11756674D01*
X17181244Y-11756674D02*
X17162196Y-11766198D01*
X17162196Y-11766198D02*
X17124101Y-11766198D01*
X17124101Y-11766198D02*
X17105053Y-11775722D01*
X17105053Y-11775722D02*
X17095530Y-11785246D01*
X17095530Y-11785246D02*
X17086006Y-11804293D01*
X17086006Y-11804293D02*
X17086006Y-11842388D01*
X17086006Y-11842388D02*
X17095530Y-11861436D01*
X17095530Y-11861436D02*
X17105053Y-11870960D01*
X17105053Y-11870960D02*
X17124101Y-11880484D01*
X17124101Y-11880484D02*
X17162196Y-11880484D01*
X17162196Y-11880484D02*
X17181244Y-11870960D01*
X17181244Y-11870960D02*
X17190768Y-11861436D01*
X17190768Y-11861436D02*
X17200291Y-11842388D01*
X17200291Y-11842388D02*
X17200291Y-11804293D01*
X17200291Y-11804293D02*
X17190768Y-11785246D01*
X17190768Y-11785246D02*
X17181244Y-11775722D01*
X17181244Y-11775722D02*
X17162196Y-11766198D01*
X17438387Y-11880484D02*
X17438387Y-11680484D01*
X17524101Y-11880484D02*
X17524101Y-11775722D01*
X17524101Y-11775722D02*
X17514577Y-11756674D01*
X17514577Y-11756674D02*
X17495530Y-11747150D01*
X17495530Y-11747150D02*
X17466958Y-11747150D01*
X17466958Y-11747150D02*
X17447911Y-11756674D01*
X17447911Y-11756674D02*
X17438387Y-11766198D01*
X17647911Y-11880484D02*
X17628863Y-11870960D01*
X17628863Y-11870960D02*
X17619339Y-11861436D01*
X17619339Y-11861436D02*
X17609815Y-11842388D01*
X17609815Y-11842388D02*
X17609815Y-11785246D01*
X17609815Y-11785246D02*
X17619339Y-11766198D01*
X17619339Y-11766198D02*
X17628863Y-11756674D01*
X17628863Y-11756674D02*
X17647911Y-11747150D01*
X17647911Y-11747150D02*
X17676482Y-11747150D01*
X17676482Y-11747150D02*
X17695530Y-11756674D01*
X17695530Y-11756674D02*
X17705053Y-11766198D01*
X17705053Y-11766198D02*
X17714577Y-11785246D01*
X17714577Y-11785246D02*
X17714577Y-11842388D01*
X17714577Y-11842388D02*
X17705053Y-11861436D01*
X17705053Y-11861436D02*
X17695530Y-11870960D01*
X17695530Y-11870960D02*
X17676482Y-11880484D01*
X17676482Y-11880484D02*
X17647911Y-11880484D01*
X17828863Y-11880484D02*
X17809815Y-11870960D01*
X17809815Y-11870960D02*
X17800292Y-11851912D01*
X17800292Y-11851912D02*
X17800292Y-11680484D01*
X17981244Y-11870960D02*
X17962196Y-11880484D01*
X17962196Y-11880484D02*
X17924101Y-11880484D01*
X17924101Y-11880484D02*
X17905053Y-11870960D01*
X17905053Y-11870960D02*
X17895530Y-11851912D01*
X17895530Y-11851912D02*
X17895530Y-11775722D01*
X17895530Y-11775722D02*
X17905053Y-11756674D01*
X17905053Y-11756674D02*
X17924101Y-11747150D01*
X17924101Y-11747150D02*
X17962196Y-11747150D01*
X17962196Y-11747150D02*
X17981244Y-11756674D01*
X17981244Y-11756674D02*
X17990768Y-11775722D01*
X17990768Y-11775722D02*
X17990768Y-11794769D01*
X17990768Y-11794769D02*
X17895530Y-11813817D01*
X18066958Y-11870960D02*
X18086006Y-11880484D01*
X18086006Y-11880484D02*
X18124101Y-11880484D01*
X18124101Y-11880484D02*
X18143149Y-11870960D01*
X18143149Y-11870960D02*
X18152673Y-11851912D01*
X18152673Y-11851912D02*
X18152673Y-11842388D01*
X18152673Y-11842388D02*
X18143149Y-11823341D01*
X18143149Y-11823341D02*
X18124101Y-11813817D01*
X18124101Y-11813817D02*
X18095530Y-11813817D01*
X18095530Y-11813817D02*
X18076482Y-11804293D01*
X18076482Y-11804293D02*
X18066958Y-11785246D01*
X18066958Y-11785246D02*
X18066958Y-11775722D01*
X18066958Y-11775722D02*
X18076482Y-11756674D01*
X18076482Y-11756674D02*
X18095530Y-11747150D01*
X18095530Y-11747150D02*
X18124101Y-11747150D01*
X18124101Y-11747150D02*
X18143149Y-11756674D01*
X18390768Y-11804293D02*
X18543149Y-11804293D01*
X18466958Y-11880484D02*
X18466958Y-11728103D01*
X18876482Y-11747150D02*
X18876482Y-11880484D01*
X18828863Y-11670960D02*
X18781244Y-11813817D01*
X18781244Y-11813817D02*
X18905054Y-11813817D01*
X19124101Y-11870960D02*
X19143149Y-11880484D01*
X19143149Y-11880484D02*
X19181244Y-11880484D01*
X19181244Y-11880484D02*
X19200292Y-11870960D01*
X19200292Y-11870960D02*
X19209816Y-11851912D01*
X19209816Y-11851912D02*
X19209816Y-11842388D01*
X19209816Y-11842388D02*
X19200292Y-11823341D01*
X19200292Y-11823341D02*
X19181244Y-11813817D01*
X19181244Y-11813817D02*
X19152673Y-11813817D01*
X19152673Y-11813817D02*
X19133625Y-11804293D01*
X19133625Y-11804293D02*
X19124101Y-11785246D01*
X19124101Y-11785246D02*
X19124101Y-11775722D01*
X19124101Y-11775722D02*
X19133625Y-11756674D01*
X19133625Y-11756674D02*
X19152673Y-11747150D01*
X19152673Y-11747150D02*
X19181244Y-11747150D01*
X19181244Y-11747150D02*
X19200292Y-11756674D01*
X19324101Y-11880484D02*
X19305054Y-11870960D01*
X19305054Y-11870960D02*
X19295530Y-11851912D01*
X19295530Y-11851912D02*
X19295530Y-11680484D01*
X19428863Y-11880484D02*
X19409816Y-11870960D01*
X19409816Y-11870960D02*
X19400292Y-11861436D01*
X19400292Y-11861436D02*
X19390768Y-11842388D01*
X19390768Y-11842388D02*
X19390768Y-11785246D01*
X19390768Y-11785246D02*
X19400292Y-11766198D01*
X19400292Y-11766198D02*
X19409816Y-11756674D01*
X19409816Y-11756674D02*
X19428863Y-11747150D01*
X19428863Y-11747150D02*
X19457435Y-11747150D01*
X19457435Y-11747150D02*
X19476482Y-11756674D01*
X19476482Y-11756674D02*
X19486006Y-11766198D01*
X19486006Y-11766198D02*
X19495530Y-11785246D01*
X19495530Y-11785246D02*
X19495530Y-11842388D01*
X19495530Y-11842388D02*
X19486006Y-11861436D01*
X19486006Y-11861436D02*
X19476482Y-11870960D01*
X19476482Y-11870960D02*
X19457435Y-11880484D01*
X19457435Y-11880484D02*
X19428863Y-11880484D01*
X19552673Y-11747150D02*
X19628863Y-11747150D01*
X19581244Y-11680484D02*
X19581244Y-11851912D01*
X19581244Y-11851912D02*
X19590768Y-11870960D01*
X19590768Y-11870960D02*
X19609816Y-11880484D01*
X19609816Y-11880484D02*
X19628863Y-11880484D01*
X19686006Y-11870960D02*
X19705054Y-11880484D01*
X19705054Y-11880484D02*
X19743149Y-11880484D01*
X19743149Y-11880484D02*
X19762197Y-11870960D01*
X19762197Y-11870960D02*
X19771720Y-11851912D01*
X19771720Y-11851912D02*
X19771720Y-11842388D01*
X19771720Y-11842388D02*
X19762197Y-11823341D01*
X19762197Y-11823341D02*
X19743149Y-11813817D01*
X19743149Y-11813817D02*
X19714577Y-11813817D01*
X19714577Y-11813817D02*
X19695530Y-11804293D01*
X19695530Y-11804293D02*
X19686006Y-11785246D01*
X19686006Y-11785246D02*
X19686006Y-11775722D01*
X19686006Y-11775722D02*
X19695530Y-11756674D01*
X19695530Y-11756674D02*
X19714577Y-11747150D01*
X19714577Y-11747150D02*
X19743149Y-11747150D01*
X19743149Y-11747150D02*
X19762197Y-11756674D01*
X19838387Y-11956674D02*
X19847911Y-11947150D01*
X19847911Y-11947150D02*
X19866958Y-11918579D01*
X19866958Y-11918579D02*
X19876482Y-11899531D01*
X19876482Y-11899531D02*
X19886006Y-11870960D01*
X19886006Y-11870960D02*
X19895530Y-11823341D01*
X19895530Y-11823341D02*
X19895530Y-11785246D01*
X19895530Y-11785246D02*
X19886006Y-11737627D01*
X19886006Y-11737627D02*
X19876482Y-11709055D01*
X19876482Y-11709055D02*
X19866958Y-11690008D01*
X19866958Y-11690008D02*
X19847911Y-11661436D01*
X19847911Y-11661436D02*
X19838387Y-11651912D01*
D10*
X13221300Y-12020500D02*
X13221300Y-12085500D01*
X13188800Y-12053000D02*
X13253800Y-12053000D01*
D11*
X13552672Y-11944484D02*
X13571720Y-11944484D01*
X13571720Y-11944484D02*
X13590767Y-11954008D01*
X13590767Y-11954008D02*
X13600291Y-11963531D01*
X13600291Y-11963531D02*
X13609815Y-11982579D01*
X13609815Y-11982579D02*
X13619339Y-12020674D01*
X13619339Y-12020674D02*
X13619339Y-12068293D01*
X13619339Y-12068293D02*
X13609815Y-12106388D01*
X13609815Y-12106388D02*
X13600291Y-12125436D01*
X13600291Y-12125436D02*
X13590767Y-12134960D01*
X13590767Y-12134960D02*
X13571720Y-12144484D01*
X13571720Y-12144484D02*
X13552672Y-12144484D01*
X13552672Y-12144484D02*
X13533624Y-12134960D01*
X13533624Y-12134960D02*
X13524101Y-12125436D01*
X13524101Y-12125436D02*
X13514577Y-12106388D01*
X13514577Y-12106388D02*
X13505053Y-12068293D01*
X13505053Y-12068293D02*
X13505053Y-12020674D01*
X13505053Y-12020674D02*
X13514577Y-11982579D01*
X13514577Y-11982579D02*
X13524101Y-11963531D01*
X13524101Y-11963531D02*
X13533624Y-11954008D01*
X13533624Y-11954008D02*
X13552672Y-11944484D01*
X13705053Y-12125436D02*
X13714577Y-12134960D01*
X13714577Y-12134960D02*
X13705053Y-12144484D01*
X13705053Y-12144484D02*
X13695529Y-12134960D01*
X13695529Y-12134960D02*
X13705053Y-12125436D01*
X13705053Y-12125436D02*
X13705053Y-12144484D01*
X13886005Y-11944484D02*
X13847910Y-11944484D01*
X13847910Y-11944484D02*
X13828862Y-11954008D01*
X13828862Y-11954008D02*
X13819339Y-11963531D01*
X13819339Y-11963531D02*
X13800291Y-11992103D01*
X13800291Y-11992103D02*
X13790767Y-12030198D01*
X13790767Y-12030198D02*
X13790767Y-12106388D01*
X13790767Y-12106388D02*
X13800291Y-12125436D01*
X13800291Y-12125436D02*
X13809815Y-12134960D01*
X13809815Y-12134960D02*
X13828862Y-12144484D01*
X13828862Y-12144484D02*
X13866958Y-12144484D01*
X13866958Y-12144484D02*
X13886005Y-12134960D01*
X13886005Y-12134960D02*
X13895529Y-12125436D01*
X13895529Y-12125436D02*
X13905053Y-12106388D01*
X13905053Y-12106388D02*
X13905053Y-12058769D01*
X13905053Y-12058769D02*
X13895529Y-12039722D01*
X13895529Y-12039722D02*
X13886005Y-12030198D01*
X13886005Y-12030198D02*
X13866958Y-12020674D01*
X13866958Y-12020674D02*
X13828862Y-12020674D01*
X13828862Y-12020674D02*
X13809815Y-12030198D01*
X13809815Y-12030198D02*
X13800291Y-12039722D01*
X13800291Y-12039722D02*
X13790767Y-12058769D01*
X14086005Y-11944484D02*
X13990767Y-11944484D01*
X13990767Y-11944484D02*
X13981243Y-12039722D01*
X13981243Y-12039722D02*
X13990767Y-12030198D01*
X13990767Y-12030198D02*
X14009815Y-12020674D01*
X14009815Y-12020674D02*
X14057434Y-12020674D01*
X14057434Y-12020674D02*
X14076482Y-12030198D01*
X14076482Y-12030198D02*
X14086005Y-12039722D01*
X14086005Y-12039722D02*
X14095529Y-12058769D01*
X14095529Y-12058769D02*
X14095529Y-12106388D01*
X14095529Y-12106388D02*
X14086005Y-12125436D01*
X14086005Y-12125436D02*
X14076482Y-12134960D01*
X14076482Y-12134960D02*
X14057434Y-12144484D01*
X14057434Y-12144484D02*
X14009815Y-12144484D01*
X14009815Y-12144484D02*
X13990767Y-12134960D01*
X13990767Y-12134960D02*
X13981243Y-12125436D01*
X14219339Y-11944484D02*
X14238386Y-11944484D01*
X14238386Y-11944484D02*
X14257434Y-11954008D01*
X14257434Y-11954008D02*
X14266958Y-11963531D01*
X14266958Y-11963531D02*
X14276482Y-11982579D01*
X14276482Y-11982579D02*
X14286005Y-12020674D01*
X14286005Y-12020674D02*
X14286005Y-12068293D01*
X14286005Y-12068293D02*
X14276482Y-12106388D01*
X14276482Y-12106388D02*
X14266958Y-12125436D01*
X14266958Y-12125436D02*
X14257434Y-12134960D01*
X14257434Y-12134960D02*
X14238386Y-12144484D01*
X14238386Y-12144484D02*
X14219339Y-12144484D01*
X14219339Y-12144484D02*
X14200291Y-12134960D01*
X14200291Y-12134960D02*
X14190767Y-12125436D01*
X14190767Y-12125436D02*
X14181243Y-12106388D01*
X14181243Y-12106388D02*
X14171720Y-12068293D01*
X14171720Y-12068293D02*
X14171720Y-12020674D01*
X14171720Y-12020674D02*
X14181243Y-11982579D01*
X14181243Y-11982579D02*
X14190767Y-11963531D01*
X14190767Y-11963531D02*
X14200291Y-11954008D01*
X14200291Y-11954008D02*
X14219339Y-11944484D01*
X14371720Y-12144484D02*
X14371720Y-12011150D01*
X14371720Y-12030198D02*
X14381243Y-12020674D01*
X14381243Y-12020674D02*
X14400291Y-12011150D01*
X14400291Y-12011150D02*
X14428863Y-12011150D01*
X14428863Y-12011150D02*
X14447910Y-12020674D01*
X14447910Y-12020674D02*
X14457434Y-12039722D01*
X14457434Y-12039722D02*
X14457434Y-12144484D01*
X14457434Y-12039722D02*
X14466958Y-12020674D01*
X14466958Y-12020674D02*
X14486005Y-12011150D01*
X14486005Y-12011150D02*
X14514577Y-12011150D01*
X14514577Y-12011150D02*
X14533624Y-12020674D01*
X14533624Y-12020674D02*
X14543148Y-12039722D01*
X14543148Y-12039722D02*
X14543148Y-12144484D01*
X14638386Y-12144484D02*
X14638386Y-12011150D01*
X14638386Y-12030198D02*
X14647910Y-12020674D01*
X14647910Y-12020674D02*
X14666958Y-12011150D01*
X14666958Y-12011150D02*
X14695529Y-12011150D01*
X14695529Y-12011150D02*
X14714577Y-12020674D01*
X14714577Y-12020674D02*
X14724101Y-12039722D01*
X14724101Y-12039722D02*
X14724101Y-12144484D01*
X14724101Y-12039722D02*
X14733624Y-12020674D01*
X14733624Y-12020674D02*
X14752672Y-12011150D01*
X14752672Y-12011150D02*
X14781243Y-12011150D01*
X14781243Y-12011150D02*
X14800291Y-12020674D01*
X14800291Y-12020674D02*
X14809815Y-12039722D01*
X14809815Y-12039722D02*
X14809815Y-12144484D01*
X15200291Y-11934960D02*
X15028863Y-12192103D01*
X15457434Y-11944484D02*
X15476482Y-11944484D01*
X15476482Y-11944484D02*
X15495529Y-11954008D01*
X15495529Y-11954008D02*
X15505053Y-11963531D01*
X15505053Y-11963531D02*
X15514577Y-11982579D01*
X15514577Y-11982579D02*
X15524101Y-12020674D01*
X15524101Y-12020674D02*
X15524101Y-12068293D01*
X15524101Y-12068293D02*
X15514577Y-12106388D01*
X15514577Y-12106388D02*
X15505053Y-12125436D01*
X15505053Y-12125436D02*
X15495529Y-12134960D01*
X15495529Y-12134960D02*
X15476482Y-12144484D01*
X15476482Y-12144484D02*
X15457434Y-12144484D01*
X15457434Y-12144484D02*
X15438386Y-12134960D01*
X15438386Y-12134960D02*
X15428863Y-12125436D01*
X15428863Y-12125436D02*
X15419339Y-12106388D01*
X15419339Y-12106388D02*
X15409815Y-12068293D01*
X15409815Y-12068293D02*
X15409815Y-12020674D01*
X15409815Y-12020674D02*
X15419339Y-11982579D01*
X15419339Y-11982579D02*
X15428863Y-11963531D01*
X15428863Y-11963531D02*
X15438386Y-11954008D01*
X15438386Y-11954008D02*
X15457434Y-11944484D01*
X15609815Y-12125436D02*
X15619339Y-12134960D01*
X15619339Y-12134960D02*
X15609815Y-12144484D01*
X15609815Y-12144484D02*
X15600291Y-12134960D01*
X15600291Y-12134960D02*
X15609815Y-12125436D01*
X15609815Y-12125436D02*
X15609815Y-12144484D01*
X15743148Y-11944484D02*
X15762196Y-11944484D01*
X15762196Y-11944484D02*
X15781244Y-11954008D01*
X15781244Y-11954008D02*
X15790767Y-11963531D01*
X15790767Y-11963531D02*
X15800291Y-11982579D01*
X15800291Y-11982579D02*
X15809815Y-12020674D01*
X15809815Y-12020674D02*
X15809815Y-12068293D01*
X15809815Y-12068293D02*
X15800291Y-12106388D01*
X15800291Y-12106388D02*
X15790767Y-12125436D01*
X15790767Y-12125436D02*
X15781244Y-12134960D01*
X15781244Y-12134960D02*
X15762196Y-12144484D01*
X15762196Y-12144484D02*
X15743148Y-12144484D01*
X15743148Y-12144484D02*
X15724101Y-12134960D01*
X15724101Y-12134960D02*
X15714577Y-12125436D01*
X15714577Y-12125436D02*
X15705053Y-12106388D01*
X15705053Y-12106388D02*
X15695529Y-12068293D01*
X15695529Y-12068293D02*
X15695529Y-12020674D01*
X15695529Y-12020674D02*
X15705053Y-11982579D01*
X15705053Y-11982579D02*
X15714577Y-11963531D01*
X15714577Y-11963531D02*
X15724101Y-11954008D01*
X15724101Y-11954008D02*
X15743148Y-11944484D01*
X15886006Y-11963531D02*
X15895529Y-11954008D01*
X15895529Y-11954008D02*
X15914577Y-11944484D01*
X15914577Y-11944484D02*
X15962196Y-11944484D01*
X15962196Y-11944484D02*
X15981244Y-11954008D01*
X15981244Y-11954008D02*
X15990767Y-11963531D01*
X15990767Y-11963531D02*
X16000291Y-11982579D01*
X16000291Y-11982579D02*
X16000291Y-12001627D01*
X16000291Y-12001627D02*
X15990767Y-12030198D01*
X15990767Y-12030198D02*
X15876482Y-12144484D01*
X15876482Y-12144484D02*
X16000291Y-12144484D01*
X16181244Y-11944484D02*
X16086006Y-11944484D01*
X16086006Y-11944484D02*
X16076482Y-12039722D01*
X16076482Y-12039722D02*
X16086006Y-12030198D01*
X16086006Y-12030198D02*
X16105053Y-12020674D01*
X16105053Y-12020674D02*
X16152672Y-12020674D01*
X16152672Y-12020674D02*
X16171720Y-12030198D01*
X16171720Y-12030198D02*
X16181244Y-12039722D01*
X16181244Y-12039722D02*
X16190767Y-12058769D01*
X16190767Y-12058769D02*
X16190767Y-12106388D01*
X16190767Y-12106388D02*
X16181244Y-12125436D01*
X16181244Y-12125436D02*
X16171720Y-12134960D01*
X16171720Y-12134960D02*
X16152672Y-12144484D01*
X16152672Y-12144484D02*
X16105053Y-12144484D01*
X16105053Y-12144484D02*
X16086006Y-12134960D01*
X16086006Y-12134960D02*
X16076482Y-12125436D01*
X16362196Y-11944484D02*
X16324101Y-11944484D01*
X16324101Y-11944484D02*
X16305053Y-11954008D01*
X16305053Y-11954008D02*
X16295529Y-11963531D01*
X16295529Y-11963531D02*
X16276482Y-11992103D01*
X16276482Y-11992103D02*
X16266958Y-12030198D01*
X16266958Y-12030198D02*
X16266958Y-12106388D01*
X16266958Y-12106388D02*
X16276482Y-12125436D01*
X16276482Y-12125436D02*
X16286006Y-12134960D01*
X16286006Y-12134960D02*
X16305053Y-12144484D01*
X16305053Y-12144484D02*
X16343148Y-12144484D01*
X16343148Y-12144484D02*
X16362196Y-12134960D01*
X16362196Y-12134960D02*
X16371720Y-12125436D01*
X16371720Y-12125436D02*
X16381244Y-12106388D01*
X16381244Y-12106388D02*
X16381244Y-12058769D01*
X16381244Y-12058769D02*
X16371720Y-12039722D01*
X16371720Y-12039722D02*
X16362196Y-12030198D01*
X16362196Y-12030198D02*
X16343148Y-12020674D01*
X16343148Y-12020674D02*
X16305053Y-12020674D01*
X16305053Y-12020674D02*
X16286006Y-12030198D01*
X16286006Y-12030198D02*
X16276482Y-12039722D01*
X16276482Y-12039722D02*
X16266958Y-12058769D01*
X16457434Y-11944484D02*
X16457434Y-11982579D01*
X16533625Y-11944484D02*
X16533625Y-11982579D01*
X16828863Y-12220674D02*
X16819339Y-12211150D01*
X16819339Y-12211150D02*
X16800291Y-12182579D01*
X16800291Y-12182579D02*
X16790768Y-12163531D01*
X16790768Y-12163531D02*
X16781244Y-12134960D01*
X16781244Y-12134960D02*
X16771720Y-12087341D01*
X16771720Y-12087341D02*
X16771720Y-12049246D01*
X16771720Y-12049246D02*
X16781244Y-12001627D01*
X16781244Y-12001627D02*
X16790768Y-11973055D01*
X16790768Y-11973055D02*
X16800291Y-11954008D01*
X16800291Y-11954008D02*
X16819339Y-11925436D01*
X16819339Y-11925436D02*
X16828863Y-11915912D01*
X16943149Y-11944484D02*
X16962196Y-11944484D01*
X16962196Y-11944484D02*
X16981244Y-11954008D01*
X16981244Y-11954008D02*
X16990768Y-11963531D01*
X16990768Y-11963531D02*
X17000291Y-11982579D01*
X17000291Y-11982579D02*
X17009815Y-12020674D01*
X17009815Y-12020674D02*
X17009815Y-12068293D01*
X17009815Y-12068293D02*
X17000291Y-12106388D01*
X17000291Y-12106388D02*
X16990768Y-12125436D01*
X16990768Y-12125436D02*
X16981244Y-12134960D01*
X16981244Y-12134960D02*
X16962196Y-12144484D01*
X16962196Y-12144484D02*
X16943149Y-12144484D01*
X16943149Y-12144484D02*
X16924101Y-12134960D01*
X16924101Y-12134960D02*
X16914577Y-12125436D01*
X16914577Y-12125436D02*
X16905053Y-12106388D01*
X16905053Y-12106388D02*
X16895530Y-12068293D01*
X16895530Y-12068293D02*
X16895530Y-12020674D01*
X16895530Y-12020674D02*
X16905053Y-11982579D01*
X16905053Y-11982579D02*
X16914577Y-11963531D01*
X16914577Y-11963531D02*
X16924101Y-11954008D01*
X16924101Y-11954008D02*
X16943149Y-11944484D01*
X17247911Y-12144484D02*
X17247911Y-11944484D01*
X17333625Y-12144484D02*
X17333625Y-12039722D01*
X17333625Y-12039722D02*
X17324101Y-12020674D01*
X17324101Y-12020674D02*
X17305053Y-12011150D01*
X17305053Y-12011150D02*
X17276482Y-12011150D01*
X17276482Y-12011150D02*
X17257434Y-12020674D01*
X17257434Y-12020674D02*
X17247911Y-12030198D01*
X17457434Y-12144484D02*
X17438387Y-12134960D01*
X17438387Y-12134960D02*
X17428863Y-12125436D01*
X17428863Y-12125436D02*
X17419339Y-12106388D01*
X17419339Y-12106388D02*
X17419339Y-12049246D01*
X17419339Y-12049246D02*
X17428863Y-12030198D01*
X17428863Y-12030198D02*
X17438387Y-12020674D01*
X17438387Y-12020674D02*
X17457434Y-12011150D01*
X17457434Y-12011150D02*
X17486006Y-12011150D01*
X17486006Y-12011150D02*
X17505053Y-12020674D01*
X17505053Y-12020674D02*
X17514577Y-12030198D01*
X17514577Y-12030198D02*
X17524101Y-12049246D01*
X17524101Y-12049246D02*
X17524101Y-12106388D01*
X17524101Y-12106388D02*
X17514577Y-12125436D01*
X17514577Y-12125436D02*
X17505053Y-12134960D01*
X17505053Y-12134960D02*
X17486006Y-12144484D01*
X17486006Y-12144484D02*
X17457434Y-12144484D01*
X17638387Y-12144484D02*
X17619339Y-12134960D01*
X17619339Y-12134960D02*
X17609815Y-12115912D01*
X17609815Y-12115912D02*
X17609815Y-11944484D01*
X17790768Y-12134960D02*
X17771720Y-12144484D01*
X17771720Y-12144484D02*
X17733625Y-12144484D01*
X17733625Y-12144484D02*
X17714577Y-12134960D01*
X17714577Y-12134960D02*
X17705053Y-12115912D01*
X17705053Y-12115912D02*
X17705053Y-12039722D01*
X17705053Y-12039722D02*
X17714577Y-12020674D01*
X17714577Y-12020674D02*
X17733625Y-12011150D01*
X17733625Y-12011150D02*
X17771720Y-12011150D01*
X17771720Y-12011150D02*
X17790768Y-12020674D01*
X17790768Y-12020674D02*
X17800292Y-12039722D01*
X17800292Y-12039722D02*
X17800292Y-12058769D01*
X17800292Y-12058769D02*
X17705053Y-12077817D01*
X17876482Y-12134960D02*
X17895530Y-12144484D01*
X17895530Y-12144484D02*
X17933625Y-12144484D01*
X17933625Y-12144484D02*
X17952673Y-12134960D01*
X17952673Y-12134960D02*
X17962196Y-12115912D01*
X17962196Y-12115912D02*
X17962196Y-12106388D01*
X17962196Y-12106388D02*
X17952673Y-12087341D01*
X17952673Y-12087341D02*
X17933625Y-12077817D01*
X17933625Y-12077817D02*
X17905053Y-12077817D01*
X17905053Y-12077817D02*
X17886006Y-12068293D01*
X17886006Y-12068293D02*
X17876482Y-12049246D01*
X17876482Y-12049246D02*
X17876482Y-12039722D01*
X17876482Y-12039722D02*
X17886006Y-12020674D01*
X17886006Y-12020674D02*
X17905053Y-12011150D01*
X17905053Y-12011150D02*
X17933625Y-12011150D01*
X17933625Y-12011150D02*
X17952673Y-12020674D01*
X18200292Y-12068293D02*
X18352673Y-12068293D01*
X18276482Y-12144484D02*
X18276482Y-11992103D01*
X18705054Y-12144484D02*
X18590768Y-12144484D01*
X18647911Y-12144484D02*
X18647911Y-11944484D01*
X18647911Y-11944484D02*
X18628863Y-11973055D01*
X18628863Y-11973055D02*
X18609815Y-11992103D01*
X18609815Y-11992103D02*
X18590768Y-12001627D01*
X18819339Y-12030198D02*
X18800292Y-12020674D01*
X18800292Y-12020674D02*
X18790768Y-12011150D01*
X18790768Y-12011150D02*
X18781244Y-11992103D01*
X18781244Y-11992103D02*
X18781244Y-11982579D01*
X18781244Y-11982579D02*
X18790768Y-11963531D01*
X18790768Y-11963531D02*
X18800292Y-11954008D01*
X18800292Y-11954008D02*
X18819339Y-11944484D01*
X18819339Y-11944484D02*
X18857435Y-11944484D01*
X18857435Y-11944484D02*
X18876482Y-11954008D01*
X18876482Y-11954008D02*
X18886006Y-11963531D01*
X18886006Y-11963531D02*
X18895530Y-11982579D01*
X18895530Y-11982579D02*
X18895530Y-11992103D01*
X18895530Y-11992103D02*
X18886006Y-12011150D01*
X18886006Y-12011150D02*
X18876482Y-12020674D01*
X18876482Y-12020674D02*
X18857435Y-12030198D01*
X18857435Y-12030198D02*
X18819339Y-12030198D01*
X18819339Y-12030198D02*
X18800292Y-12039722D01*
X18800292Y-12039722D02*
X18790768Y-12049246D01*
X18790768Y-12049246D02*
X18781244Y-12068293D01*
X18781244Y-12068293D02*
X18781244Y-12106388D01*
X18781244Y-12106388D02*
X18790768Y-12125436D01*
X18790768Y-12125436D02*
X18800292Y-12134960D01*
X18800292Y-12134960D02*
X18819339Y-12144484D01*
X18819339Y-12144484D02*
X18857435Y-12144484D01*
X18857435Y-12144484D02*
X18876482Y-12134960D01*
X18876482Y-12134960D02*
X18886006Y-12125436D01*
X18886006Y-12125436D02*
X18895530Y-12106388D01*
X18895530Y-12106388D02*
X18895530Y-12068293D01*
X18895530Y-12068293D02*
X18886006Y-12049246D01*
X18886006Y-12049246D02*
X18876482Y-12039722D01*
X18876482Y-12039722D02*
X18857435Y-12030198D01*
X19124101Y-12134960D02*
X19143149Y-12144484D01*
X19143149Y-12144484D02*
X19181244Y-12144484D01*
X19181244Y-12144484D02*
X19200292Y-12134960D01*
X19200292Y-12134960D02*
X19209816Y-12115912D01*
X19209816Y-12115912D02*
X19209816Y-12106388D01*
X19209816Y-12106388D02*
X19200292Y-12087341D01*
X19200292Y-12087341D02*
X19181244Y-12077817D01*
X19181244Y-12077817D02*
X19152673Y-12077817D01*
X19152673Y-12077817D02*
X19133625Y-12068293D01*
X19133625Y-12068293D02*
X19124101Y-12049246D01*
X19124101Y-12049246D02*
X19124101Y-12039722D01*
X19124101Y-12039722D02*
X19133625Y-12020674D01*
X19133625Y-12020674D02*
X19152673Y-12011150D01*
X19152673Y-12011150D02*
X19181244Y-12011150D01*
X19181244Y-12011150D02*
X19200292Y-12020674D01*
X19324101Y-12144484D02*
X19305054Y-12134960D01*
X19305054Y-12134960D02*
X19295530Y-12115912D01*
X19295530Y-12115912D02*
X19295530Y-11944484D01*
X19428863Y-12144484D02*
X19409816Y-12134960D01*
X19409816Y-12134960D02*
X19400292Y-12125436D01*
X19400292Y-12125436D02*
X19390768Y-12106388D01*
X19390768Y-12106388D02*
X19390768Y-12049246D01*
X19390768Y-12049246D02*
X19400292Y-12030198D01*
X19400292Y-12030198D02*
X19409816Y-12020674D01*
X19409816Y-12020674D02*
X19428863Y-12011150D01*
X19428863Y-12011150D02*
X19457435Y-12011150D01*
X19457435Y-12011150D02*
X19476482Y-12020674D01*
X19476482Y-12020674D02*
X19486006Y-12030198D01*
X19486006Y-12030198D02*
X19495530Y-12049246D01*
X19495530Y-12049246D02*
X19495530Y-12106388D01*
X19495530Y-12106388D02*
X19486006Y-12125436D01*
X19486006Y-12125436D02*
X19476482Y-12134960D01*
X19476482Y-12134960D02*
X19457435Y-12144484D01*
X19457435Y-12144484D02*
X19428863Y-12144484D01*
X19552673Y-12011150D02*
X19628863Y-12011150D01*
X19581244Y-11944484D02*
X19581244Y-12115912D01*
X19581244Y-12115912D02*
X19590768Y-12134960D01*
X19590768Y-12134960D02*
X19609816Y-12144484D01*
X19609816Y-12144484D02*
X19628863Y-12144484D01*
X19686006Y-12134960D02*
X19705054Y-12144484D01*
X19705054Y-12144484D02*
X19743149Y-12144484D01*
X19743149Y-12144484D02*
X19762197Y-12134960D01*
X19762197Y-12134960D02*
X19771720Y-12115912D01*
X19771720Y-12115912D02*
X19771720Y-12106388D01*
X19771720Y-12106388D02*
X19762197Y-12087341D01*
X19762197Y-12087341D02*
X19743149Y-12077817D01*
X19743149Y-12077817D02*
X19714577Y-12077817D01*
X19714577Y-12077817D02*
X19695530Y-12068293D01*
X19695530Y-12068293D02*
X19686006Y-12049246D01*
X19686006Y-12049246D02*
X19686006Y-12039722D01*
X19686006Y-12039722D02*
X19695530Y-12020674D01*
X19695530Y-12020674D02*
X19714577Y-12011150D01*
X19714577Y-12011150D02*
X19743149Y-12011150D01*
X19743149Y-12011150D02*
X19762197Y-12020674D01*
X19838387Y-12220674D02*
X19847911Y-12211150D01*
X19847911Y-12211150D02*
X19866958Y-12182579D01*
X19866958Y-12182579D02*
X19876482Y-12163531D01*
X19876482Y-12163531D02*
X19886006Y-12134960D01*
X19886006Y-12134960D02*
X19895530Y-12087341D01*
X19895530Y-12087341D02*
X19895530Y-12049246D01*
X19895530Y-12049246D02*
X19886006Y-12001627D01*
X19886006Y-12001627D02*
X19876482Y-11973055D01*
X19876482Y-11973055D02*
X19866958Y-11954008D01*
X19866958Y-11954008D02*
X19847911Y-11925436D01*
X19847911Y-11925436D02*
X19838387Y-11915912D01*
D10*
X13239156Y-12352356D02*
X13239156Y-12281644D01*
X13168444Y-12281644D01*
X13168444Y-12352356D01*
X13239156Y-12352356D01*
D11*
X13619339Y-12408484D02*
X13505053Y-12408484D01*
X13562196Y-12408484D02*
X13562196Y-12208484D01*
X13562196Y-12208484D02*
X13543148Y-12237055D01*
X13543148Y-12237055D02*
X13524101Y-12256103D01*
X13524101Y-12256103D02*
X13505053Y-12265627D01*
X13705053Y-12389436D02*
X13714577Y-12398960D01*
X13714577Y-12398960D02*
X13705053Y-12408484D01*
X13705053Y-12408484D02*
X13695529Y-12398960D01*
X13695529Y-12398960D02*
X13705053Y-12389436D01*
X13705053Y-12389436D02*
X13705053Y-12408484D01*
X13838386Y-12208484D02*
X13857434Y-12208484D01*
X13857434Y-12208484D02*
X13876482Y-12218008D01*
X13876482Y-12218008D02*
X13886005Y-12227531D01*
X13886005Y-12227531D02*
X13895529Y-12246579D01*
X13895529Y-12246579D02*
X13905053Y-12284674D01*
X13905053Y-12284674D02*
X13905053Y-12332293D01*
X13905053Y-12332293D02*
X13895529Y-12370388D01*
X13895529Y-12370388D02*
X13886005Y-12389436D01*
X13886005Y-12389436D02*
X13876482Y-12398960D01*
X13876482Y-12398960D02*
X13857434Y-12408484D01*
X13857434Y-12408484D02*
X13838386Y-12408484D01*
X13838386Y-12408484D02*
X13819339Y-12398960D01*
X13819339Y-12398960D02*
X13809815Y-12389436D01*
X13809815Y-12389436D02*
X13800291Y-12370388D01*
X13800291Y-12370388D02*
X13790767Y-12332293D01*
X13790767Y-12332293D02*
X13790767Y-12284674D01*
X13790767Y-12284674D02*
X13800291Y-12246579D01*
X13800291Y-12246579D02*
X13809815Y-12227531D01*
X13809815Y-12227531D02*
X13819339Y-12218008D01*
X13819339Y-12218008D02*
X13838386Y-12208484D01*
X14028862Y-12208484D02*
X14047910Y-12208484D01*
X14047910Y-12208484D02*
X14066958Y-12218008D01*
X14066958Y-12218008D02*
X14076482Y-12227531D01*
X14076482Y-12227531D02*
X14086005Y-12246579D01*
X14086005Y-12246579D02*
X14095529Y-12284674D01*
X14095529Y-12284674D02*
X14095529Y-12332293D01*
X14095529Y-12332293D02*
X14086005Y-12370388D01*
X14086005Y-12370388D02*
X14076482Y-12389436D01*
X14076482Y-12389436D02*
X14066958Y-12398960D01*
X14066958Y-12398960D02*
X14047910Y-12408484D01*
X14047910Y-12408484D02*
X14028862Y-12408484D01*
X14028862Y-12408484D02*
X14009815Y-12398960D01*
X14009815Y-12398960D02*
X14000291Y-12389436D01*
X14000291Y-12389436D02*
X13990767Y-12370388D01*
X13990767Y-12370388D02*
X13981243Y-12332293D01*
X13981243Y-12332293D02*
X13981243Y-12284674D01*
X13981243Y-12284674D02*
X13990767Y-12246579D01*
X13990767Y-12246579D02*
X14000291Y-12227531D01*
X14000291Y-12227531D02*
X14009815Y-12218008D01*
X14009815Y-12218008D02*
X14028862Y-12208484D01*
X14219339Y-12208484D02*
X14238386Y-12208484D01*
X14238386Y-12208484D02*
X14257434Y-12218008D01*
X14257434Y-12218008D02*
X14266958Y-12227531D01*
X14266958Y-12227531D02*
X14276482Y-12246579D01*
X14276482Y-12246579D02*
X14286005Y-12284674D01*
X14286005Y-12284674D02*
X14286005Y-12332293D01*
X14286005Y-12332293D02*
X14276482Y-12370388D01*
X14276482Y-12370388D02*
X14266958Y-12389436D01*
X14266958Y-12389436D02*
X14257434Y-12398960D01*
X14257434Y-12398960D02*
X14238386Y-12408484D01*
X14238386Y-12408484D02*
X14219339Y-12408484D01*
X14219339Y-12408484D02*
X14200291Y-12398960D01*
X14200291Y-12398960D02*
X14190767Y-12389436D01*
X14190767Y-12389436D02*
X14181243Y-12370388D01*
X14181243Y-12370388D02*
X14171720Y-12332293D01*
X14171720Y-12332293D02*
X14171720Y-12284674D01*
X14171720Y-12284674D02*
X14181243Y-12246579D01*
X14181243Y-12246579D02*
X14190767Y-12227531D01*
X14190767Y-12227531D02*
X14200291Y-12218008D01*
X14200291Y-12218008D02*
X14219339Y-12208484D01*
X14371720Y-12408484D02*
X14371720Y-12275150D01*
X14371720Y-12294198D02*
X14381243Y-12284674D01*
X14381243Y-12284674D02*
X14400291Y-12275150D01*
X14400291Y-12275150D02*
X14428863Y-12275150D01*
X14428863Y-12275150D02*
X14447910Y-12284674D01*
X14447910Y-12284674D02*
X14457434Y-12303722D01*
X14457434Y-12303722D02*
X14457434Y-12408484D01*
X14457434Y-12303722D02*
X14466958Y-12284674D01*
X14466958Y-12284674D02*
X14486005Y-12275150D01*
X14486005Y-12275150D02*
X14514577Y-12275150D01*
X14514577Y-12275150D02*
X14533624Y-12284674D01*
X14533624Y-12284674D02*
X14543148Y-12303722D01*
X14543148Y-12303722D02*
X14543148Y-12408484D01*
X14638386Y-12408484D02*
X14638386Y-12275150D01*
X14638386Y-12294198D02*
X14647910Y-12284674D01*
X14647910Y-12284674D02*
X14666958Y-12275150D01*
X14666958Y-12275150D02*
X14695529Y-12275150D01*
X14695529Y-12275150D02*
X14714577Y-12284674D01*
X14714577Y-12284674D02*
X14724101Y-12303722D01*
X14724101Y-12303722D02*
X14724101Y-12408484D01*
X14724101Y-12303722D02*
X14733624Y-12284674D01*
X14733624Y-12284674D02*
X14752672Y-12275150D01*
X14752672Y-12275150D02*
X14781243Y-12275150D01*
X14781243Y-12275150D02*
X14800291Y-12284674D01*
X14800291Y-12284674D02*
X14809815Y-12303722D01*
X14809815Y-12303722D02*
X14809815Y-12408484D01*
X15200291Y-12198960D02*
X15028863Y-12456103D01*
X15457434Y-12208484D02*
X15476482Y-12208484D01*
X15476482Y-12208484D02*
X15495529Y-12218008D01*
X15495529Y-12218008D02*
X15505053Y-12227531D01*
X15505053Y-12227531D02*
X15514577Y-12246579D01*
X15514577Y-12246579D02*
X15524101Y-12284674D01*
X15524101Y-12284674D02*
X15524101Y-12332293D01*
X15524101Y-12332293D02*
X15514577Y-12370388D01*
X15514577Y-12370388D02*
X15505053Y-12389436D01*
X15505053Y-12389436D02*
X15495529Y-12398960D01*
X15495529Y-12398960D02*
X15476482Y-12408484D01*
X15476482Y-12408484D02*
X15457434Y-12408484D01*
X15457434Y-12408484D02*
X15438386Y-12398960D01*
X15438386Y-12398960D02*
X15428863Y-12389436D01*
X15428863Y-12389436D02*
X15419339Y-12370388D01*
X15419339Y-12370388D02*
X15409815Y-12332293D01*
X15409815Y-12332293D02*
X15409815Y-12284674D01*
X15409815Y-12284674D02*
X15419339Y-12246579D01*
X15419339Y-12246579D02*
X15428863Y-12227531D01*
X15428863Y-12227531D02*
X15438386Y-12218008D01*
X15438386Y-12218008D02*
X15457434Y-12208484D01*
X15609815Y-12389436D02*
X15619339Y-12398960D01*
X15619339Y-12398960D02*
X15609815Y-12408484D01*
X15609815Y-12408484D02*
X15600291Y-12398960D01*
X15600291Y-12398960D02*
X15609815Y-12389436D01*
X15609815Y-12389436D02*
X15609815Y-12408484D01*
X15743148Y-12208484D02*
X15762196Y-12208484D01*
X15762196Y-12208484D02*
X15781244Y-12218008D01*
X15781244Y-12218008D02*
X15790767Y-12227531D01*
X15790767Y-12227531D02*
X15800291Y-12246579D01*
X15800291Y-12246579D02*
X15809815Y-12284674D01*
X15809815Y-12284674D02*
X15809815Y-12332293D01*
X15809815Y-12332293D02*
X15800291Y-12370388D01*
X15800291Y-12370388D02*
X15790767Y-12389436D01*
X15790767Y-12389436D02*
X15781244Y-12398960D01*
X15781244Y-12398960D02*
X15762196Y-12408484D01*
X15762196Y-12408484D02*
X15743148Y-12408484D01*
X15743148Y-12408484D02*
X15724101Y-12398960D01*
X15724101Y-12398960D02*
X15714577Y-12389436D01*
X15714577Y-12389436D02*
X15705053Y-12370388D01*
X15705053Y-12370388D02*
X15695529Y-12332293D01*
X15695529Y-12332293D02*
X15695529Y-12284674D01*
X15695529Y-12284674D02*
X15705053Y-12246579D01*
X15705053Y-12246579D02*
X15714577Y-12227531D01*
X15714577Y-12227531D02*
X15724101Y-12218008D01*
X15724101Y-12218008D02*
X15743148Y-12208484D01*
X15876482Y-12208484D02*
X16000291Y-12208484D01*
X16000291Y-12208484D02*
X15933625Y-12284674D01*
X15933625Y-12284674D02*
X15962196Y-12284674D01*
X15962196Y-12284674D02*
X15981244Y-12294198D01*
X15981244Y-12294198D02*
X15990767Y-12303722D01*
X15990767Y-12303722D02*
X16000291Y-12322769D01*
X16000291Y-12322769D02*
X16000291Y-12370388D01*
X16000291Y-12370388D02*
X15990767Y-12389436D01*
X15990767Y-12389436D02*
X15981244Y-12398960D01*
X15981244Y-12398960D02*
X15962196Y-12408484D01*
X15962196Y-12408484D02*
X15905053Y-12408484D01*
X15905053Y-12408484D02*
X15886006Y-12398960D01*
X15886006Y-12398960D02*
X15876482Y-12389436D01*
X16095529Y-12408484D02*
X16133625Y-12408484D01*
X16133625Y-12408484D02*
X16152672Y-12398960D01*
X16152672Y-12398960D02*
X16162196Y-12389436D01*
X16162196Y-12389436D02*
X16181244Y-12360865D01*
X16181244Y-12360865D02*
X16190767Y-12322769D01*
X16190767Y-12322769D02*
X16190767Y-12246579D01*
X16190767Y-12246579D02*
X16181244Y-12227531D01*
X16181244Y-12227531D02*
X16171720Y-12218008D01*
X16171720Y-12218008D02*
X16152672Y-12208484D01*
X16152672Y-12208484D02*
X16114577Y-12208484D01*
X16114577Y-12208484D02*
X16095529Y-12218008D01*
X16095529Y-12218008D02*
X16086006Y-12227531D01*
X16086006Y-12227531D02*
X16076482Y-12246579D01*
X16076482Y-12246579D02*
X16076482Y-12294198D01*
X16076482Y-12294198D02*
X16086006Y-12313246D01*
X16086006Y-12313246D02*
X16095529Y-12322769D01*
X16095529Y-12322769D02*
X16114577Y-12332293D01*
X16114577Y-12332293D02*
X16152672Y-12332293D01*
X16152672Y-12332293D02*
X16171720Y-12322769D01*
X16171720Y-12322769D02*
X16181244Y-12313246D01*
X16181244Y-12313246D02*
X16190767Y-12294198D01*
X16362196Y-12275150D02*
X16362196Y-12408484D01*
X16314577Y-12198960D02*
X16266958Y-12341817D01*
X16266958Y-12341817D02*
X16390767Y-12341817D01*
X16457434Y-12208484D02*
X16457434Y-12246579D01*
X16533625Y-12208484D02*
X16533625Y-12246579D01*
X16828863Y-12484674D02*
X16819339Y-12475150D01*
X16819339Y-12475150D02*
X16800291Y-12446579D01*
X16800291Y-12446579D02*
X16790768Y-12427531D01*
X16790768Y-12427531D02*
X16781244Y-12398960D01*
X16781244Y-12398960D02*
X16771720Y-12351341D01*
X16771720Y-12351341D02*
X16771720Y-12313246D01*
X16771720Y-12313246D02*
X16781244Y-12265627D01*
X16781244Y-12265627D02*
X16790768Y-12237055D01*
X16790768Y-12237055D02*
X16800291Y-12218008D01*
X16800291Y-12218008D02*
X16819339Y-12189436D01*
X16819339Y-12189436D02*
X16828863Y-12179912D01*
X17009815Y-12408484D02*
X16895530Y-12408484D01*
X16952672Y-12408484D02*
X16952672Y-12208484D01*
X16952672Y-12208484D02*
X16933625Y-12237055D01*
X16933625Y-12237055D02*
X16914577Y-12256103D01*
X16914577Y-12256103D02*
X16895530Y-12265627D01*
X17124101Y-12294198D02*
X17105053Y-12284674D01*
X17105053Y-12284674D02*
X17095530Y-12275150D01*
X17095530Y-12275150D02*
X17086006Y-12256103D01*
X17086006Y-12256103D02*
X17086006Y-12246579D01*
X17086006Y-12246579D02*
X17095530Y-12227531D01*
X17095530Y-12227531D02*
X17105053Y-12218008D01*
X17105053Y-12218008D02*
X17124101Y-12208484D01*
X17124101Y-12208484D02*
X17162196Y-12208484D01*
X17162196Y-12208484D02*
X17181244Y-12218008D01*
X17181244Y-12218008D02*
X17190768Y-12227531D01*
X17190768Y-12227531D02*
X17200291Y-12246579D01*
X17200291Y-12246579D02*
X17200291Y-12256103D01*
X17200291Y-12256103D02*
X17190768Y-12275150D01*
X17190768Y-12275150D02*
X17181244Y-12284674D01*
X17181244Y-12284674D02*
X17162196Y-12294198D01*
X17162196Y-12294198D02*
X17124101Y-12294198D01*
X17124101Y-12294198D02*
X17105053Y-12303722D01*
X17105053Y-12303722D02*
X17095530Y-12313246D01*
X17095530Y-12313246D02*
X17086006Y-12332293D01*
X17086006Y-12332293D02*
X17086006Y-12370388D01*
X17086006Y-12370388D02*
X17095530Y-12389436D01*
X17095530Y-12389436D02*
X17105053Y-12398960D01*
X17105053Y-12398960D02*
X17124101Y-12408484D01*
X17124101Y-12408484D02*
X17162196Y-12408484D01*
X17162196Y-12408484D02*
X17181244Y-12398960D01*
X17181244Y-12398960D02*
X17190768Y-12389436D01*
X17190768Y-12389436D02*
X17200291Y-12370388D01*
X17200291Y-12370388D02*
X17200291Y-12332293D01*
X17200291Y-12332293D02*
X17190768Y-12313246D01*
X17190768Y-12313246D02*
X17181244Y-12303722D01*
X17181244Y-12303722D02*
X17162196Y-12294198D01*
X17438387Y-12408484D02*
X17438387Y-12208484D01*
X17524101Y-12408484D02*
X17524101Y-12303722D01*
X17524101Y-12303722D02*
X17514577Y-12284674D01*
X17514577Y-12284674D02*
X17495530Y-12275150D01*
X17495530Y-12275150D02*
X17466958Y-12275150D01*
X17466958Y-12275150D02*
X17447911Y-12284674D01*
X17447911Y-12284674D02*
X17438387Y-12294198D01*
X17647911Y-12408484D02*
X17628863Y-12398960D01*
X17628863Y-12398960D02*
X17619339Y-12389436D01*
X17619339Y-12389436D02*
X17609815Y-12370388D01*
X17609815Y-12370388D02*
X17609815Y-12313246D01*
X17609815Y-12313246D02*
X17619339Y-12294198D01*
X17619339Y-12294198D02*
X17628863Y-12284674D01*
X17628863Y-12284674D02*
X17647911Y-12275150D01*
X17647911Y-12275150D02*
X17676482Y-12275150D01*
X17676482Y-12275150D02*
X17695530Y-12284674D01*
X17695530Y-12284674D02*
X17705053Y-12294198D01*
X17705053Y-12294198D02*
X17714577Y-12313246D01*
X17714577Y-12313246D02*
X17714577Y-12370388D01*
X17714577Y-12370388D02*
X17705053Y-12389436D01*
X17705053Y-12389436D02*
X17695530Y-12398960D01*
X17695530Y-12398960D02*
X17676482Y-12408484D01*
X17676482Y-12408484D02*
X17647911Y-12408484D01*
X17828863Y-12408484D02*
X17809815Y-12398960D01*
X17809815Y-12398960D02*
X17800292Y-12379912D01*
X17800292Y-12379912D02*
X17800292Y-12208484D01*
X17981244Y-12398960D02*
X17962196Y-12408484D01*
X17962196Y-12408484D02*
X17924101Y-12408484D01*
X17924101Y-12408484D02*
X17905053Y-12398960D01*
X17905053Y-12398960D02*
X17895530Y-12379912D01*
X17895530Y-12379912D02*
X17895530Y-12303722D01*
X17895530Y-12303722D02*
X17905053Y-12284674D01*
X17905053Y-12284674D02*
X17924101Y-12275150D01*
X17924101Y-12275150D02*
X17962196Y-12275150D01*
X17962196Y-12275150D02*
X17981244Y-12284674D01*
X17981244Y-12284674D02*
X17990768Y-12303722D01*
X17990768Y-12303722D02*
X17990768Y-12322769D01*
X17990768Y-12322769D02*
X17895530Y-12341817D01*
X18066958Y-12398960D02*
X18086006Y-12408484D01*
X18086006Y-12408484D02*
X18124101Y-12408484D01*
X18124101Y-12408484D02*
X18143149Y-12398960D01*
X18143149Y-12398960D02*
X18152673Y-12379912D01*
X18152673Y-12379912D02*
X18152673Y-12370388D01*
X18152673Y-12370388D02*
X18143149Y-12351341D01*
X18143149Y-12351341D02*
X18124101Y-12341817D01*
X18124101Y-12341817D02*
X18095530Y-12341817D01*
X18095530Y-12341817D02*
X18076482Y-12332293D01*
X18076482Y-12332293D02*
X18066958Y-12313246D01*
X18066958Y-12313246D02*
X18066958Y-12303722D01*
X18066958Y-12303722D02*
X18076482Y-12284674D01*
X18076482Y-12284674D02*
X18095530Y-12275150D01*
X18095530Y-12275150D02*
X18124101Y-12275150D01*
X18124101Y-12275150D02*
X18143149Y-12284674D01*
X18219339Y-12484674D02*
X18228863Y-12475150D01*
X18228863Y-12475150D02*
X18247911Y-12446579D01*
X18247911Y-12446579D02*
X18257434Y-12427531D01*
X18257434Y-12427531D02*
X18266958Y-12398960D01*
X18266958Y-12398960D02*
X18276482Y-12351341D01*
X18276482Y-12351341D02*
X18276482Y-12313246D01*
X18276482Y-12313246D02*
X18266958Y-12265627D01*
X18266958Y-12265627D02*
X18257434Y-12237055D01*
X18257434Y-12237055D02*
X18247911Y-12218008D01*
X18247911Y-12218008D02*
X18228863Y-12189436D01*
X18228863Y-12189436D02*
X18219339Y-12179912D01*
M02*
