G04 #@! TF.GenerationSoftware,KiCad,Pcbnew,8.0.4-8.0.4-0~ubuntu24.04.1*
G04 #@! TF.CreationDate,2024-08-17T13:37:00+02:00*
G04 #@! TF.ProjectId,ESP32-C3-WROOM_flexypin,45535033-322d-4433-932d-57524f4f4d5f,rev?*
G04 #@! TF.SameCoordinates,Original*
G04 #@! TF.FileFunction,Legend,Top*
G04 #@! TF.FilePolarity,Positive*
%FSLAX46Y46*%
G04 Gerber Fmt 4.6, Leading zero omitted, Abs format (unit mm)*
G04 Created by KiCad (PCBNEW 8.0.4-8.0.4-0~ubuntu24.04.1) date 2024-08-17 13:37:00*
%MOMM*%
%LPD*%
G01*
G04 APERTURE LIST*
%ADD10C,0.300000*%
%ADD11C,0.500000*%
%ADD12C,0.000000*%
%ADD13C,0.200000*%
%ADD14C,0.120000*%
%ADD15C,0.250000*%
G04 #@! TA.AperFunction,Profile*
%ADD16C,0.100000*%
G04 #@! TD*
G04 APERTURE END LIST*
D10*
X153613938Y-93305642D02*
X142638375Y-93305642D01*
X142638375Y-85423288D01*
X153613938Y-85423288D01*
X153613938Y-93305642D01*
D11*
X149199776Y-81600000D02*
X149199776Y-83253648D01*
D12*
G36*
X149824344Y-85940418D02*
G01*
X149843679Y-85941113D01*
X149862411Y-85942271D01*
X149880539Y-85943892D01*
X149898063Y-85945976D01*
X149914984Y-85948523D01*
X149931301Y-85951533D01*
X149947015Y-85955006D01*
X149962125Y-85958942D01*
X149976632Y-85963341D01*
X149990535Y-85968204D01*
X150003834Y-85973529D01*
X150016530Y-85979317D01*
X150028622Y-85985568D01*
X150040110Y-85992282D01*
X150050995Y-85999460D01*
X150056269Y-86003159D01*
X150061376Y-86006980D01*
X150066316Y-86010924D01*
X150071088Y-86014989D01*
X150075692Y-86019176D01*
X150080129Y-86023485D01*
X150084399Y-86027916D01*
X150088502Y-86032469D01*
X150092436Y-86037143D01*
X150096204Y-86041940D01*
X150099804Y-86046859D01*
X150103237Y-86051899D01*
X150106502Y-86057062D01*
X150109600Y-86062346D01*
X150112530Y-86067752D01*
X150115293Y-86073281D01*
X150117888Y-86078931D01*
X150120316Y-86084703D01*
X150122577Y-86090597D01*
X150124670Y-86096613D01*
X150128354Y-86109010D01*
X150131368Y-86121896D01*
X150133712Y-86135269D01*
X150135387Y-86149130D01*
X150136392Y-86163479D01*
X150136727Y-86178315D01*
X150136582Y-86187990D01*
X150136148Y-86197433D01*
X150135425Y-86206645D01*
X150134412Y-86215624D01*
X150133110Y-86224373D01*
X150131518Y-86232889D01*
X150129638Y-86241174D01*
X150127467Y-86249228D01*
X150125008Y-86257049D01*
X150122259Y-86264640D01*
X150119220Y-86271998D01*
X150115892Y-86279125D01*
X150112275Y-86286020D01*
X150108368Y-86292683D01*
X150104172Y-86299114D01*
X150099686Y-86305314D01*
X150094935Y-86311184D01*
X150089945Y-86316889D01*
X150084716Y-86322428D01*
X150079246Y-86327802D01*
X150073537Y-86333011D01*
X150067589Y-86338054D01*
X150061400Y-86342932D01*
X150054972Y-86347645D01*
X150048304Y-86352193D01*
X150041396Y-86356575D01*
X150034248Y-86360792D01*
X150026861Y-86364843D01*
X150019233Y-86368729D01*
X150011366Y-86372450D01*
X150003259Y-86376006D01*
X149994911Y-86379396D01*
X150000254Y-86386143D01*
X150005695Y-86393154D01*
X150011235Y-86400430D01*
X150016874Y-86407971D01*
X150028449Y-86423844D01*
X150040421Y-86440774D01*
X150046753Y-86449589D01*
X150053053Y-86458568D01*
X150059321Y-86467713D01*
X150065556Y-86477023D01*
X150071758Y-86486499D01*
X150077927Y-86496139D01*
X150084062Y-86505945D01*
X150090164Y-86515916D01*
X150102730Y-86536160D01*
X150115032Y-86556665D01*
X150127072Y-86577433D01*
X150138848Y-86598466D01*
X150150222Y-86619566D01*
X150161067Y-86640535D01*
X150171385Y-86661371D01*
X150181175Y-86682077D01*
X150020310Y-86682077D01*
X150006351Y-86656744D01*
X149991996Y-86631543D01*
X149977245Y-86606475D01*
X149962097Y-86581537D01*
X149947282Y-86556467D01*
X149932464Y-86532058D01*
X149917645Y-86508310D01*
X149902825Y-86485223D01*
X149895450Y-86474043D01*
X149888142Y-86463260D01*
X149880899Y-86452875D01*
X149873722Y-86442886D01*
X149866611Y-86433294D01*
X149859566Y-86424099D01*
X149852586Y-86415301D01*
X149845673Y-86406900D01*
X149844621Y-86406917D01*
X149843566Y-86406968D01*
X149842508Y-86407054D01*
X149841446Y-86407174D01*
X149840382Y-86407329D01*
X149839315Y-86407518D01*
X149838245Y-86407741D01*
X149837174Y-86407998D01*
X149740914Y-86407998D01*
X149740914Y-86682107D01*
X149595909Y-86682084D01*
X149595909Y-86292619D01*
X149740898Y-86292619D01*
X149799111Y-86292619D01*
X149814639Y-86292471D01*
X149829472Y-86292025D01*
X149843610Y-86291283D01*
X149857054Y-86290244D01*
X149869803Y-86288909D01*
X149881858Y-86287276D01*
X149893218Y-86285347D01*
X149903885Y-86283120D01*
X149909090Y-86281739D01*
X149914121Y-86280243D01*
X149918978Y-86278630D01*
X149923662Y-86276902D01*
X149928172Y-86275058D01*
X149932509Y-86273099D01*
X149936671Y-86271023D01*
X149940661Y-86268832D01*
X149944476Y-86266526D01*
X149948118Y-86264104D01*
X149951587Y-86261566D01*
X149954881Y-86258912D01*
X149958002Y-86256142D01*
X149960950Y-86253257D01*
X149963724Y-86250257D01*
X149966324Y-86247140D01*
X149968888Y-86243891D01*
X149971286Y-86240494D01*
X149973519Y-86236947D01*
X149975587Y-86233251D01*
X149977489Y-86229407D01*
X149979225Y-86225414D01*
X149980797Y-86221271D01*
X149982203Y-86216980D01*
X149983443Y-86212540D01*
X149984518Y-86207951D01*
X149985428Y-86203214D01*
X149986172Y-86198327D01*
X149986751Y-86193292D01*
X149987165Y-86188108D01*
X149987413Y-86182775D01*
X149987496Y-86177293D01*
X149987413Y-86172072D01*
X149987165Y-86166991D01*
X149986751Y-86162051D01*
X149986172Y-86157251D01*
X149985428Y-86152592D01*
X149984518Y-86148074D01*
X149983443Y-86143696D01*
X149982203Y-86139458D01*
X149980797Y-86135361D01*
X149979225Y-86131404D01*
X149977489Y-86127588D01*
X149975587Y-86123912D01*
X149973519Y-86120376D01*
X149971286Y-86116981D01*
X149968888Y-86113726D01*
X149966324Y-86110612D01*
X149963732Y-86107496D01*
X149960983Y-86104495D01*
X149958077Y-86101610D01*
X149955013Y-86098840D01*
X149951793Y-86096187D01*
X149948415Y-86093649D01*
X149944881Y-86091226D01*
X149941189Y-86088920D01*
X149937340Y-86086729D01*
X149933335Y-86084654D01*
X149929172Y-86082694D01*
X149924853Y-86080850D01*
X149920376Y-86079122D01*
X149915743Y-86077510D01*
X149910953Y-86076013D01*
X149906006Y-86074632D01*
X149896001Y-86072151D01*
X149885565Y-86070001D01*
X149874700Y-86068182D01*
X149863405Y-86066695D01*
X149851681Y-86065537D01*
X149839526Y-86064711D01*
X149826941Y-86064215D01*
X149813927Y-86064050D01*
X149808190Y-86064083D01*
X149802619Y-86064181D01*
X149797212Y-86064346D01*
X149791971Y-86064575D01*
X149786896Y-86064871D01*
X149781985Y-86065231D01*
X149777240Y-86065657D01*
X149772659Y-86066148D01*
X149755727Y-86067223D01*
X149740906Y-86068246D01*
X149740898Y-86292619D01*
X149595909Y-86292619D01*
X149595909Y-85960305D01*
X149608692Y-85957758D01*
X149621640Y-85955410D01*
X149634753Y-85953261D01*
X149648032Y-85951309D01*
X149661477Y-85949557D01*
X149675087Y-85948003D01*
X149688863Y-85946647D01*
X149702805Y-85945489D01*
X149730188Y-85943170D01*
X149743383Y-85942259D01*
X149756249Y-85941513D01*
X149768784Y-85940933D01*
X149780988Y-85940519D01*
X149792862Y-85940270D01*
X149804405Y-85940187D01*
X149824344Y-85940418D01*
G37*
G36*
X147834634Y-85931837D02*
G01*
X147844726Y-85932147D01*
X147854578Y-85932664D01*
X147864190Y-85933387D01*
X147873562Y-85934317D01*
X147882694Y-85935454D01*
X147891587Y-85936798D01*
X147900239Y-85938348D01*
X147908652Y-85940105D01*
X147916825Y-85942069D01*
X147924758Y-85944239D01*
X147932451Y-85946616D01*
X147939904Y-85949200D01*
X147947117Y-85951991D01*
X147954090Y-85954988D01*
X147960823Y-85958192D01*
X147967459Y-85961574D01*
X147973872Y-85965104D01*
X147980061Y-85968784D01*
X147986026Y-85972612D01*
X147991768Y-85976589D01*
X147997287Y-85980714D01*
X148002582Y-85984989D01*
X148007654Y-85989413D01*
X148012503Y-85993985D01*
X148017128Y-85998706D01*
X148021530Y-86003576D01*
X148025709Y-86008595D01*
X148029665Y-86013763D01*
X148033397Y-86019080D01*
X148036906Y-86024546D01*
X148040192Y-86030160D01*
X148043267Y-86035899D01*
X148046144Y-86041737D01*
X148048822Y-86047673D01*
X148051302Y-86053709D01*
X148053584Y-86059844D01*
X148055668Y-86066079D01*
X148057553Y-86072412D01*
X148059240Y-86078844D01*
X148060728Y-86085376D01*
X148062018Y-86092007D01*
X148063109Y-86098737D01*
X148064002Y-86105566D01*
X148064697Y-86112494D01*
X148065193Y-86119521D01*
X148065491Y-86126648D01*
X148065590Y-86133874D01*
X148065487Y-86139802D01*
X148065177Y-86145680D01*
X148064660Y-86151508D01*
X148063936Y-86157287D01*
X148063006Y-86163017D01*
X148061869Y-86168697D01*
X148060526Y-86174327D01*
X148058975Y-86179908D01*
X148057218Y-86185439D01*
X148055255Y-86190921D01*
X148053084Y-86196353D01*
X148050707Y-86201736D01*
X148048123Y-86207069D01*
X148045333Y-86212353D01*
X148042335Y-86217587D01*
X148039131Y-86222772D01*
X148035758Y-86227726D01*
X148032252Y-86232530D01*
X148028614Y-86237186D01*
X148024844Y-86241692D01*
X148020941Y-86246049D01*
X148016906Y-86250258D01*
X148012739Y-86254317D01*
X148008439Y-86258228D01*
X148004008Y-86261989D01*
X147999444Y-86265602D01*
X147994748Y-86269065D01*
X147989919Y-86272380D01*
X147984959Y-86275546D01*
X147979866Y-86278563D01*
X147974641Y-86281431D01*
X147969284Y-86284150D01*
X147974009Y-86285917D01*
X147978660Y-86287774D01*
X147983237Y-86289722D01*
X147987739Y-86291761D01*
X147992167Y-86293890D01*
X147996521Y-86296111D01*
X148000800Y-86298422D01*
X148005005Y-86300824D01*
X148009136Y-86303317D01*
X148013192Y-86305901D01*
X148017174Y-86308576D01*
X148021081Y-86311342D01*
X148024914Y-86314198D01*
X148028672Y-86317145D01*
X148032356Y-86320183D01*
X148035965Y-86323312D01*
X148039615Y-86326528D01*
X148043158Y-86329826D01*
X148046593Y-86333207D01*
X148049921Y-86336671D01*
X148053142Y-86340218D01*
X148056255Y-86343848D01*
X148059260Y-86347560D01*
X148062159Y-86351355D01*
X148064950Y-86355232D01*
X148067633Y-86359193D01*
X148070209Y-86363236D01*
X148072677Y-86367361D01*
X148075038Y-86371570D01*
X148077291Y-86375861D01*
X148079437Y-86380234D01*
X148081474Y-86384691D01*
X148083397Y-86389234D01*
X148085195Y-86393868D01*
X148086869Y-86398593D01*
X148088420Y-86403409D01*
X148089846Y-86408316D01*
X148091148Y-86413314D01*
X148092327Y-86418403D01*
X148093381Y-86423583D01*
X148094312Y-86428854D01*
X148095118Y-86434217D01*
X148095800Y-86439670D01*
X148096359Y-86445214D01*
X148096793Y-86450849D01*
X148097103Y-86456576D01*
X148097289Y-86462393D01*
X148097351Y-86468301D01*
X148097231Y-86476454D01*
X148096872Y-86484508D01*
X148096272Y-86492462D01*
X148095433Y-86500317D01*
X148094354Y-86508073D01*
X148093035Y-86515730D01*
X148091476Y-86523287D01*
X148089678Y-86530745D01*
X148087640Y-86538103D01*
X148085362Y-86545363D01*
X148082844Y-86552523D01*
X148080086Y-86559583D01*
X148077089Y-86566544D01*
X148073852Y-86573406D01*
X148070375Y-86580168D01*
X148066658Y-86586831D01*
X148062693Y-86593226D01*
X148058472Y-86599448D01*
X148053995Y-86605496D01*
X148049262Y-86611370D01*
X148044272Y-86617071D01*
X148039026Y-86622598D01*
X148033523Y-86627952D01*
X148027765Y-86633132D01*
X148021749Y-86638139D01*
X148015478Y-86642972D01*
X148008950Y-86647631D01*
X148002166Y-86652116D01*
X147995126Y-86656428D01*
X147987829Y-86660566D01*
X147980275Y-86664530D01*
X147972466Y-86668321D01*
X147964516Y-86671909D01*
X147956277Y-86675265D01*
X147947748Y-86678390D01*
X147938930Y-86681284D01*
X147929823Y-86683946D01*
X147920426Y-86686377D01*
X147910740Y-86688576D01*
X147900764Y-86690544D01*
X147890498Y-86692281D01*
X147879944Y-86693786D01*
X147869100Y-86695059D01*
X147857966Y-86696101D01*
X147846544Y-86696911D01*
X147834832Y-86697490D01*
X147822830Y-86697838D01*
X147810539Y-86697953D01*
X147810509Y-86697961D01*
X147800436Y-86697846D01*
X147790331Y-86697499D01*
X147780194Y-86696921D01*
X147770024Y-86696112D01*
X147759822Y-86695071D01*
X147749587Y-86693799D01*
X147739320Y-86692296D01*
X147729019Y-86690561D01*
X147719063Y-86688933D01*
X147709305Y-86687204D01*
X147699747Y-86685373D01*
X147690388Y-86683440D01*
X147681228Y-86681405D01*
X147672266Y-86679267D01*
X147663503Y-86677027D01*
X147654938Y-86674684D01*
X147646984Y-86672325D01*
X147639525Y-86669997D01*
X147632564Y-86667701D01*
X147626098Y-86665437D01*
X147620128Y-86663204D01*
X147614654Y-86661002D01*
X147609676Y-86658832D01*
X147605194Y-86656694D01*
X147632714Y-86541337D01*
X147639080Y-86544033D01*
X147646009Y-86546828D01*
X147653500Y-86549721D01*
X147661554Y-86552714D01*
X147670170Y-86555805D01*
X147679349Y-86558996D01*
X147689090Y-86562286D01*
X147699394Y-86565675D01*
X147704896Y-86567342D01*
X147710555Y-86568902D01*
X147716371Y-86570353D01*
X147722344Y-86571698D01*
X147728474Y-86572934D01*
X147734762Y-86574063D01*
X147741207Y-86575085D01*
X147747809Y-86575999D01*
X147761484Y-86577504D01*
X147775788Y-86578579D01*
X147790721Y-86579224D01*
X147806282Y-86579438D01*
X147818965Y-86579224D01*
X147831086Y-86578579D01*
X147842645Y-86577504D01*
X147853643Y-86575999D01*
X147858931Y-86575085D01*
X147864078Y-86574063D01*
X147869086Y-86572934D01*
X147873952Y-86571698D01*
X147878678Y-86570353D01*
X147883264Y-86568902D01*
X147887709Y-86567342D01*
X147892014Y-86565675D01*
X147896172Y-86563909D01*
X147900182Y-86562052D01*
X147904043Y-86560104D01*
X147907755Y-86558065D01*
X147911318Y-86555935D01*
X147914733Y-86553715D01*
X147917999Y-86551403D01*
X147921116Y-86549001D01*
X147924084Y-86546508D01*
X147926904Y-86543924D01*
X147929575Y-86541249D01*
X147932097Y-86538484D01*
X147934470Y-86535627D01*
X147936694Y-86532680D01*
X147938770Y-86529642D01*
X147940697Y-86526513D01*
X147942619Y-86523177D01*
X147944417Y-86519783D01*
X147946091Y-86516331D01*
X147947641Y-86512820D01*
X147949067Y-86509252D01*
X147950368Y-86505626D01*
X147951546Y-86501943D01*
X147952600Y-86498201D01*
X147953529Y-86494401D01*
X147954335Y-86490543D01*
X147955017Y-86486627D01*
X147955575Y-86482654D01*
X147956008Y-86478622D01*
X147956318Y-86474533D01*
X147956504Y-86470385D01*
X147956566Y-86466180D01*
X147956475Y-86460703D01*
X147956202Y-86455382D01*
X147955748Y-86450219D01*
X147955111Y-86445213D01*
X147954293Y-86440364D01*
X147953293Y-86435672D01*
X147952111Y-86431138D01*
X147950747Y-86426760D01*
X147949201Y-86422539D01*
X147947473Y-86418476D01*
X147945564Y-86414570D01*
X147943473Y-86410820D01*
X147941199Y-86407228D01*
X147938744Y-86403793D01*
X147936107Y-86400515D01*
X147933289Y-86397393D01*
X147930317Y-86394277D01*
X147927221Y-86391276D01*
X147924001Y-86388391D01*
X147920657Y-86385622D01*
X147917189Y-86382968D01*
X147913597Y-86380430D01*
X147909881Y-86378008D01*
X147906040Y-86375701D01*
X147902076Y-86373510D01*
X147897987Y-86371435D01*
X147893775Y-86369476D01*
X147889438Y-86367632D01*
X147884977Y-86365904D01*
X147880392Y-86364291D01*
X147875683Y-86362794D01*
X147870850Y-86361413D01*
X147861177Y-86358932D01*
X147851206Y-86356783D01*
X147840938Y-86354964D01*
X147830372Y-86353476D01*
X147819509Y-86352319D01*
X147808348Y-86351492D01*
X147796889Y-86350997D01*
X147785134Y-86350831D01*
X147735390Y-86350831D01*
X147735390Y-86239709D01*
X147795723Y-86239709D01*
X147803876Y-86239576D01*
X147811929Y-86239178D01*
X147819883Y-86238515D01*
X147827738Y-86237585D01*
X147835493Y-86236390D01*
X147843149Y-86234929D01*
X147850705Y-86233203D01*
X147858162Y-86231210D01*
X147861953Y-86229977D01*
X147865653Y-86228653D01*
X147869262Y-86227237D01*
X147872781Y-86225730D01*
X147876208Y-86224131D01*
X147879544Y-86222441D01*
X147882789Y-86220660D01*
X147885944Y-86218787D01*
X147889007Y-86216823D01*
X147891979Y-86214768D01*
X147894861Y-86212621D01*
X147897652Y-86210383D01*
X147900352Y-86208054D01*
X147902960Y-86205633D01*
X147905479Y-86203121D01*
X147907906Y-86200517D01*
X147910213Y-86197674D01*
X147912371Y-86194699D01*
X147914381Y-86191591D01*
X147916241Y-86188351D01*
X147917953Y-86184978D01*
X147919516Y-86181473D01*
X147920930Y-86177835D01*
X147922195Y-86174065D01*
X147923311Y-86170162D01*
X147924278Y-86166128D01*
X147925096Y-86161960D01*
X147925766Y-86157661D01*
X147926287Y-86153229D01*
X147926659Y-86148664D01*
X147926882Y-86143968D01*
X147926956Y-86139138D01*
X147926894Y-86135219D01*
X147926709Y-86131398D01*
X147926399Y-86127677D01*
X147925965Y-86124055D01*
X147925407Y-86120533D01*
X147924725Y-86117110D01*
X147923920Y-86113786D01*
X147922990Y-86110562D01*
X147921936Y-86107437D01*
X147920759Y-86104411D01*
X147919457Y-86101485D01*
X147918031Y-86098657D01*
X147916481Y-86095930D01*
X147914807Y-86093301D01*
X147913009Y-86090772D01*
X147911087Y-86088342D01*
X147909198Y-86085870D01*
X147907233Y-86083480D01*
X147905195Y-86081174D01*
X147903082Y-86078949D01*
X147900895Y-86076808D01*
X147898633Y-86074749D01*
X147896297Y-86072773D01*
X147893887Y-86070879D01*
X147891402Y-86069068D01*
X147888843Y-86067340D01*
X147886209Y-86065695D01*
X147883501Y-86064132D01*
X147880719Y-86062652D01*
X147877862Y-86061255D01*
X147874931Y-86059941D01*
X147871926Y-86058709D01*
X147868871Y-86057559D01*
X147865791Y-86056483D01*
X147862686Y-86055481D01*
X147859557Y-86054554D01*
X147856403Y-86053700D01*
X147853224Y-86052921D01*
X147850021Y-86052216D01*
X147846792Y-86051585D01*
X147843539Y-86051029D01*
X147840261Y-86050547D01*
X147836958Y-86050138D01*
X147833630Y-86049804D01*
X147830277Y-86049545D01*
X147826899Y-86049359D01*
X147823496Y-86049248D01*
X147820069Y-86049211D01*
X147808329Y-86049442D01*
X147802583Y-86049731D01*
X147796919Y-86050136D01*
X147791338Y-86050657D01*
X147785839Y-86051294D01*
X147780423Y-86052046D01*
X147775089Y-86052914D01*
X147769839Y-86053898D01*
X147764670Y-86054997D01*
X147759585Y-86056213D01*
X147754582Y-86057544D01*
X147749662Y-86058991D01*
X147744824Y-86060554D01*
X147740069Y-86062233D01*
X147735398Y-86064027D01*
X147726252Y-86067551D01*
X147717339Y-86071240D01*
X147708657Y-86075093D01*
X147700207Y-86079111D01*
X147691989Y-86083294D01*
X147684002Y-86087642D01*
X147676247Y-86092155D01*
X147668724Y-86096833D01*
X147618981Y-85995233D01*
X147627001Y-85990190D01*
X147635716Y-85985113D01*
X147645126Y-85980004D01*
X147655230Y-85974862D01*
X147666028Y-85969687D01*
X147677521Y-85964480D01*
X147689709Y-85959239D01*
X147702591Y-85953965D01*
X147709391Y-85951273D01*
X147716299Y-85948754D01*
X147723314Y-85946409D01*
X147730437Y-85944238D01*
X147737668Y-85942240D01*
X147745006Y-85940417D01*
X147752452Y-85938767D01*
X147760005Y-85937290D01*
X147767666Y-85935988D01*
X147775434Y-85934859D01*
X147783310Y-85933904D01*
X147791294Y-85933123D01*
X147799385Y-85932515D01*
X147807583Y-85932081D01*
X147815889Y-85931820D01*
X147824303Y-85931733D01*
X147834634Y-85931837D01*
G37*
D11*
X146099884Y-83253648D02*
X144549942Y-83253648D01*
D12*
G36*
X148485726Y-86431260D02*
G01*
X148193627Y-86431260D01*
X148193627Y-86305322D01*
X148485726Y-86305322D01*
X148485726Y-86431260D01*
G37*
D11*
X144549942Y-83253648D02*
X144549942Y-81600000D01*
X150749718Y-85216844D02*
X150749718Y-81600003D01*
X150749718Y-81600000D02*
X149199776Y-81600000D01*
X143000000Y-81600000D02*
X143000000Y-83882173D01*
X147649826Y-83253648D02*
X147649826Y-81600000D01*
D12*
G36*
X151449766Y-85931895D02*
G01*
X151461991Y-85932404D01*
X151474075Y-85933251D01*
X151486018Y-85934438D01*
X151497821Y-85935963D01*
X151509484Y-85937828D01*
X151521006Y-85940031D01*
X151532387Y-85942574D01*
X151543628Y-85945455D01*
X151554728Y-85948675D01*
X151565688Y-85952235D01*
X151576507Y-85956133D01*
X151587185Y-85960370D01*
X151597723Y-85964946D01*
X151608121Y-85969860D01*
X151618378Y-85975114D01*
X151628564Y-85980703D01*
X151638485Y-85986622D01*
X151648143Y-85992872D01*
X151657535Y-85999453D01*
X151666663Y-86006365D01*
X151675527Y-86013607D01*
X151684126Y-86021180D01*
X151692460Y-86029084D01*
X151700530Y-86037319D01*
X151708336Y-86045885D01*
X151715876Y-86054782D01*
X151723152Y-86064009D01*
X151730164Y-86073567D01*
X151736911Y-86083456D01*
X151743393Y-86093676D01*
X151749611Y-86104226D01*
X151755506Y-86114972D01*
X151761021Y-86126040D01*
X151766156Y-86137430D01*
X151770910Y-86149142D01*
X151775284Y-86161176D01*
X151779277Y-86173533D01*
X151782891Y-86186213D01*
X151786123Y-86199214D01*
X151788976Y-86212538D01*
X151791448Y-86226185D01*
X151793540Y-86240154D01*
X151795252Y-86254445D01*
X151796583Y-86269059D01*
X151797534Y-86283995D01*
X151798104Y-86299254D01*
X151798294Y-86314836D01*
X151798104Y-86330294D01*
X151797534Y-86345446D01*
X151796583Y-86360292D01*
X151795252Y-86374832D01*
X151793540Y-86389066D01*
X151791448Y-86402993D01*
X151788976Y-86416615D01*
X151786123Y-86429931D01*
X151782891Y-86442941D01*
X151779277Y-86455645D01*
X151775284Y-86468043D01*
X151770910Y-86480135D01*
X151766156Y-86491921D01*
X151761021Y-86503402D01*
X151755506Y-86514576D01*
X151749611Y-86525445D01*
X151743526Y-86535868D01*
X151737177Y-86545969D01*
X151730563Y-86555747D01*
X151723684Y-86565202D01*
X151716541Y-86574335D01*
X151709133Y-86583145D01*
X151701461Y-86591632D01*
X151693524Y-86599797D01*
X151685322Y-86607640D01*
X151676855Y-86615160D01*
X151668124Y-86622357D01*
X151659128Y-86629232D01*
X151649868Y-86635784D01*
X151640343Y-86642013D01*
X151630553Y-86647920D01*
X151620499Y-86653505D01*
X151610234Y-86658758D01*
X151599811Y-86663673D01*
X151589232Y-86668249D01*
X151578496Y-86672486D01*
X151567603Y-86676384D01*
X151556552Y-86679943D01*
X151545345Y-86683164D01*
X151533981Y-86686045D01*
X151522459Y-86688587D01*
X151510780Y-86690791D01*
X151498945Y-86692655D01*
X151486952Y-86694181D01*
X151474802Y-86695367D01*
X151462494Y-86696215D01*
X151450030Y-86696723D01*
X151437409Y-86696893D01*
X151437409Y-86696901D01*
X151425168Y-86696731D01*
X151413052Y-86696223D01*
X151401059Y-86695375D01*
X151389190Y-86694188D01*
X151377446Y-86692663D01*
X151365825Y-86690798D01*
X151354328Y-86688595D01*
X151342955Y-86686053D01*
X151331706Y-86683171D01*
X151320581Y-86679951D01*
X151309579Y-86676392D01*
X151298702Y-86672494D01*
X151287949Y-86668257D01*
X151277319Y-86663681D01*
X151266813Y-86658766D01*
X151256432Y-86653512D01*
X151246373Y-86647928D01*
X151236571Y-86642021D01*
X151227026Y-86635791D01*
X151217736Y-86629239D01*
X151208703Y-86622365D01*
X151199927Y-86615167D01*
X151191407Y-86607648D01*
X151183143Y-86599805D01*
X151175135Y-86591640D01*
X151167384Y-86583153D01*
X151159889Y-86574342D01*
X151152651Y-86565210D01*
X151145668Y-86555754D01*
X151138942Y-86545976D01*
X151132473Y-86535876D01*
X151126259Y-86525453D01*
X151120364Y-86514585D01*
X151114849Y-86503412D01*
X151109714Y-86491932D01*
X151104960Y-86480146D01*
X151100586Y-86468054D01*
X151096593Y-86455656D01*
X151092980Y-86442952D01*
X151089747Y-86429941D01*
X151086894Y-86416625D01*
X151084422Y-86403003D01*
X151082330Y-86389075D01*
X151080619Y-86374840D01*
X151079287Y-86360300D01*
X151078337Y-86345454D01*
X151077766Y-86330302D01*
X151077576Y-86314843D01*
X151077576Y-86314836D01*
X151226799Y-86314836D01*
X151226898Y-86324415D01*
X151227196Y-86333837D01*
X151227692Y-86343101D01*
X151228387Y-86352209D01*
X151229280Y-86361160D01*
X151230371Y-86369953D01*
X151231661Y-86378590D01*
X151233150Y-86387069D01*
X151234836Y-86395391D01*
X151236722Y-86403556D01*
X151238805Y-86411564D01*
X151241087Y-86419414D01*
X151243567Y-86427107D01*
X151246245Y-86434643D01*
X151249122Y-86442022D01*
X151252197Y-86449243D01*
X151255455Y-86456288D01*
X151258877Y-86463134D01*
X151262465Y-86469782D01*
X151266219Y-86476231D01*
X151270138Y-86482482D01*
X151274223Y-86488534D01*
X151278473Y-86494388D01*
X151282889Y-86500043D01*
X151287470Y-86505500D01*
X151292216Y-86510758D01*
X151297128Y-86515818D01*
X151302205Y-86520680D01*
X151307447Y-86525343D01*
X151312855Y-86529807D01*
X151318427Y-86534073D01*
X151324166Y-86538141D01*
X151330190Y-86541986D01*
X151336354Y-86545584D01*
X151342659Y-86548933D01*
X151349105Y-86552034D01*
X151355691Y-86554887D01*
X151362418Y-86557491D01*
X151369285Y-86559848D01*
X151376292Y-86561957D01*
X151383440Y-86563817D01*
X151390729Y-86565429D01*
X151398158Y-86566794D01*
X151405727Y-86567910D01*
X151413437Y-86568778D01*
X151421287Y-86569398D01*
X151429278Y-86569770D01*
X151437409Y-86569894D01*
X151437409Y-86569902D01*
X151445666Y-86569778D01*
X151453765Y-86569406D01*
X151461707Y-86568786D01*
X151469492Y-86567917D01*
X151477120Y-86566801D01*
X151484591Y-86565437D01*
X151491904Y-86563825D01*
X151499060Y-86561964D01*
X151506059Y-86559856D01*
X151512900Y-86557499D01*
X151519585Y-86554894D01*
X151526113Y-86552041D01*
X151532483Y-86548940D01*
X151538696Y-86545591D01*
X151544752Y-86541994D01*
X151550652Y-86538148D01*
X151556517Y-86534079D01*
X151562210Y-86529812D01*
X151567728Y-86525347D01*
X151573073Y-86520683D01*
X151578245Y-86515821D01*
X151583243Y-86510761D01*
X151588068Y-86505502D01*
X151592719Y-86500045D01*
X151597197Y-86494390D01*
X151601501Y-86488536D01*
X151605632Y-86482484D01*
X151609588Y-86476234D01*
X151613372Y-86469786D01*
X151616982Y-86463139D01*
X151620418Y-86456294D01*
X151623680Y-86449250D01*
X151626755Y-86442028D01*
X151629632Y-86434649D01*
X151632311Y-86427112D01*
X151634791Y-86419418D01*
X151637073Y-86411568D01*
X151639156Y-86403560D01*
X151641041Y-86395396D01*
X151642728Y-86387074D01*
X151644216Y-86378595D01*
X151645506Y-86369959D01*
X151646598Y-86361166D01*
X151647491Y-86352216D01*
X151648185Y-86343108D01*
X151648682Y-86333844D01*
X151648979Y-86324422D01*
X151649079Y-86314843D01*
X151648979Y-86305136D01*
X151648682Y-86295593D01*
X151648185Y-86286217D01*
X151647491Y-86277005D01*
X151646598Y-86267959D01*
X151645506Y-86259079D01*
X151644216Y-86250363D01*
X151642728Y-86241814D01*
X151641041Y-86233430D01*
X151639156Y-86225211D01*
X151637073Y-86217158D01*
X151634791Y-86209271D01*
X151632311Y-86201549D01*
X151629632Y-86193992D01*
X151626755Y-86186601D01*
X151623680Y-86179376D01*
X151620419Y-86172331D01*
X151616984Y-86165485D01*
X151613375Y-86158837D01*
X151609593Y-86152388D01*
X151605636Y-86146137D01*
X151601506Y-86140085D01*
X151597203Y-86134231D01*
X151592725Y-86128576D01*
X151588074Y-86123119D01*
X151583249Y-86117860D01*
X151578250Y-86112800D01*
X151573078Y-86107939D01*
X151567732Y-86103276D01*
X151562212Y-86098812D01*
X151556519Y-86094546D01*
X151550652Y-86090478D01*
X151544752Y-86086633D01*
X151538696Y-86083035D01*
X151532482Y-86079686D01*
X151526111Y-86076585D01*
X151519583Y-86073732D01*
X151512898Y-86071127D01*
X151506056Y-86068771D01*
X151499057Y-86066662D01*
X151491901Y-86064802D01*
X151484587Y-86063189D01*
X151477117Y-86061825D01*
X151469489Y-86060709D01*
X151461705Y-86059841D01*
X151453763Y-86059221D01*
X151445664Y-86058849D01*
X151437409Y-86058725D01*
X151429276Y-86058853D01*
X151421285Y-86059237D01*
X151413433Y-86059878D01*
X151405723Y-86060775D01*
X151398153Y-86061928D01*
X151390724Y-86063337D01*
X151383435Y-86065003D01*
X151376287Y-86066925D01*
X151369279Y-86069104D01*
X151362412Y-86071539D01*
X151355686Y-86074230D01*
X151349101Y-86077177D01*
X151342656Y-86080381D01*
X151336352Y-86083841D01*
X151330188Y-86087558D01*
X151324166Y-86091531D01*
X151318427Y-86095600D01*
X151312855Y-86099867D01*
X151307447Y-86104332D01*
X151302205Y-86108996D01*
X151297128Y-86113858D01*
X151292216Y-86118919D01*
X151287470Y-86124177D01*
X151282889Y-86129634D01*
X151278473Y-86135289D01*
X151274223Y-86141143D01*
X151270138Y-86147195D01*
X151266219Y-86153445D01*
X151262465Y-86159893D01*
X151258877Y-86166540D01*
X151255455Y-86173385D01*
X151252197Y-86180429D01*
X151249122Y-86187651D01*
X151246245Y-86195031D01*
X151243567Y-86202567D01*
X151241087Y-86210261D01*
X151238805Y-86218111D01*
X151236722Y-86226119D01*
X151234836Y-86234284D01*
X151233150Y-86242605D01*
X151231661Y-86251084D01*
X151230371Y-86259720D01*
X151229280Y-86268513D01*
X151228387Y-86277464D01*
X151227692Y-86286571D01*
X151227196Y-86295835D01*
X151226898Y-86305257D01*
X151226799Y-86314836D01*
X151077576Y-86314836D01*
X151078022Y-86291658D01*
X151079361Y-86269201D01*
X151080366Y-86258246D01*
X151081593Y-86247472D01*
X151083044Y-86236881D01*
X151084718Y-86226471D01*
X151086615Y-86216244D01*
X151088736Y-86206198D01*
X151091080Y-86196334D01*
X151093647Y-86186652D01*
X151096437Y-86177152D01*
X151099451Y-86167834D01*
X151102688Y-86158698D01*
X151106148Y-86149743D01*
X151109807Y-86140838D01*
X151113639Y-86132114D01*
X151117645Y-86123573D01*
X151121824Y-86115214D01*
X151126176Y-86107036D01*
X151130703Y-86099041D01*
X151135403Y-86091227D01*
X151140276Y-86083596D01*
X151145323Y-86076146D01*
X151150544Y-86068878D01*
X151155938Y-86061792D01*
X151161507Y-86054889D01*
X151167248Y-86048167D01*
X151173164Y-86041627D01*
X151179253Y-86035268D01*
X151185517Y-86029092D01*
X151191920Y-86023102D01*
X151198432Y-86017301D01*
X151205050Y-86011691D01*
X151211776Y-86006271D01*
X151218610Y-86001041D01*
X151225551Y-85996002D01*
X151232600Y-85991152D01*
X151239756Y-85986492D01*
X151247019Y-85982023D01*
X151254390Y-85977744D01*
X151261869Y-85973655D01*
X151269455Y-85969756D01*
X151277148Y-85966048D01*
X151284949Y-85962529D01*
X151292857Y-85959201D01*
X151300873Y-85956064D01*
X151308971Y-85953116D01*
X151317128Y-85950359D01*
X151325342Y-85947792D01*
X151333615Y-85945415D01*
X151341945Y-85943228D01*
X151350333Y-85941232D01*
X151358779Y-85939425D01*
X151367283Y-85937809D01*
X151375845Y-85936383D01*
X151384465Y-85935148D01*
X151393143Y-85934102D01*
X151401879Y-85933247D01*
X151410672Y-85932581D01*
X151419524Y-85932106D01*
X151428433Y-85931821D01*
X151437401Y-85931726D01*
X151449766Y-85931895D01*
G37*
D11*
X147649826Y-81600000D02*
X146099884Y-81600000D01*
D12*
G36*
X146850075Y-86431260D02*
G01*
X146557976Y-86431260D01*
X146557976Y-86305322D01*
X146850075Y-86305322D01*
X146850075Y-86431260D01*
G37*
G36*
X150616858Y-85931895D02*
G01*
X150629082Y-85932404D01*
X150641166Y-85933251D01*
X150653110Y-85934438D01*
X150664913Y-85935963D01*
X150676575Y-85937828D01*
X150688097Y-85940031D01*
X150699478Y-85942574D01*
X150710719Y-85945455D01*
X150721819Y-85948675D01*
X150732779Y-85952235D01*
X150743598Y-85956133D01*
X150754277Y-85960370D01*
X150764815Y-85964946D01*
X150775212Y-85969860D01*
X150785469Y-85975114D01*
X150795655Y-85980703D01*
X150805577Y-85986622D01*
X150815234Y-85992872D01*
X150824627Y-85999453D01*
X150833755Y-86006365D01*
X150842618Y-86013607D01*
X150851217Y-86021180D01*
X150859552Y-86029084D01*
X150867622Y-86037319D01*
X150875427Y-86045885D01*
X150882968Y-86054782D01*
X150890244Y-86064009D01*
X150897255Y-86073567D01*
X150904002Y-86083456D01*
X150910485Y-86093676D01*
X150916702Y-86104226D01*
X150922598Y-86114972D01*
X150928113Y-86126040D01*
X150933247Y-86137430D01*
X150938001Y-86149142D01*
X150942375Y-86161176D01*
X150946369Y-86173533D01*
X150949982Y-86186213D01*
X150953215Y-86199214D01*
X150956067Y-86212538D01*
X150958540Y-86226185D01*
X150960631Y-86240154D01*
X150962343Y-86254445D01*
X150963674Y-86269059D01*
X150964625Y-86283995D01*
X150965195Y-86299254D01*
X150965386Y-86314836D01*
X150965195Y-86330294D01*
X150964625Y-86345446D01*
X150963674Y-86360292D01*
X150962343Y-86374832D01*
X150960631Y-86389066D01*
X150958540Y-86402993D01*
X150956067Y-86416615D01*
X150953215Y-86429931D01*
X150949982Y-86442941D01*
X150946369Y-86455645D01*
X150942375Y-86468043D01*
X150938001Y-86480135D01*
X150933247Y-86491921D01*
X150928113Y-86503402D01*
X150922598Y-86514576D01*
X150916702Y-86525445D01*
X150910618Y-86535868D01*
X150904268Y-86545969D01*
X150897654Y-86555747D01*
X150890776Y-86565202D01*
X150883633Y-86574335D01*
X150876225Y-86583145D01*
X150868552Y-86591632D01*
X150860615Y-86599797D01*
X150852413Y-86607640D01*
X150843947Y-86615160D01*
X150835216Y-86622357D01*
X150826220Y-86629232D01*
X150816959Y-86635784D01*
X150807434Y-86642013D01*
X150797645Y-86647920D01*
X150787590Y-86653505D01*
X150777325Y-86658758D01*
X150766903Y-86663673D01*
X150756324Y-86668249D01*
X150745587Y-86672486D01*
X150734694Y-86676384D01*
X150723644Y-86679943D01*
X150712436Y-86683164D01*
X150701072Y-86686045D01*
X150689550Y-86688587D01*
X150677872Y-86690791D01*
X150666036Y-86692655D01*
X150654043Y-86694181D01*
X150641893Y-86695367D01*
X150629586Y-86696215D01*
X150617121Y-86696723D01*
X150604500Y-86696893D01*
X150604500Y-86696901D01*
X150592258Y-86696731D01*
X150580141Y-86696223D01*
X150568147Y-86695375D01*
X150556277Y-86694188D01*
X150544532Y-86692663D01*
X150532911Y-86690798D01*
X150521414Y-86688595D01*
X150510040Y-86686053D01*
X150498791Y-86683171D01*
X150487667Y-86679951D01*
X150476666Y-86676392D01*
X150465789Y-86672494D01*
X150455036Y-86668257D01*
X150444408Y-86663681D01*
X150433903Y-86658766D01*
X150423523Y-86653512D01*
X150413465Y-86647928D01*
X150403663Y-86642021D01*
X150394117Y-86635791D01*
X150384828Y-86629239D01*
X150375795Y-86622365D01*
X150367018Y-86615167D01*
X150358498Y-86607648D01*
X150350234Y-86599805D01*
X150342227Y-86591640D01*
X150334476Y-86583153D01*
X150326981Y-86574342D01*
X150319742Y-86565210D01*
X150312760Y-86555754D01*
X150306034Y-86545976D01*
X150299564Y-86535876D01*
X150293350Y-86525453D01*
X150287455Y-86514585D01*
X150281940Y-86503412D01*
X150276806Y-86491932D01*
X150272052Y-86480146D01*
X150267678Y-86468054D01*
X150263684Y-86455656D01*
X150260071Y-86442952D01*
X150256838Y-86429941D01*
X150253986Y-86416625D01*
X150251513Y-86403003D01*
X150249421Y-86389075D01*
X150247710Y-86374840D01*
X150246379Y-86360300D01*
X150245428Y-86345454D01*
X150244857Y-86330302D01*
X150244667Y-86314843D01*
X150244667Y-86314836D01*
X150393891Y-86314836D01*
X150393990Y-86324415D01*
X150394288Y-86333837D01*
X150394784Y-86343101D01*
X150395478Y-86352209D01*
X150396371Y-86361160D01*
X150397463Y-86369953D01*
X150398753Y-86378590D01*
X150400241Y-86387069D01*
X150401928Y-86395391D01*
X150403813Y-86403556D01*
X150405896Y-86411564D01*
X150408178Y-86419414D01*
X150410658Y-86427107D01*
X150413337Y-86434643D01*
X150416214Y-86442022D01*
X150419289Y-86449243D01*
X150422546Y-86456288D01*
X150425969Y-86463134D01*
X150429557Y-86469782D01*
X150433310Y-86476231D01*
X150437230Y-86482482D01*
X150441314Y-86488534D01*
X150445564Y-86494388D01*
X150449980Y-86500043D01*
X150454561Y-86505500D01*
X150459307Y-86510758D01*
X150464219Y-86515818D01*
X150469296Y-86520680D01*
X150474538Y-86525343D01*
X150479946Y-86529807D01*
X150485519Y-86534073D01*
X150491257Y-86538141D01*
X150497280Y-86541986D01*
X150503443Y-86545584D01*
X150509747Y-86548933D01*
X150516192Y-86552034D01*
X150522778Y-86554887D01*
X150529504Y-86557491D01*
X150536371Y-86559848D01*
X150543378Y-86561957D01*
X150550526Y-86563817D01*
X150557815Y-86565429D01*
X150565244Y-86566794D01*
X150572814Y-86567910D01*
X150580525Y-86568778D01*
X150588376Y-86569398D01*
X150596368Y-86569770D01*
X150604500Y-86569894D01*
X150604500Y-86569902D01*
X150612756Y-86569778D01*
X150620854Y-86569406D01*
X150628796Y-86568786D01*
X150636581Y-86567917D01*
X150644208Y-86566801D01*
X150651679Y-86565437D01*
X150658992Y-86563825D01*
X150666148Y-86561964D01*
X150673148Y-86559856D01*
X150679990Y-86557499D01*
X150686675Y-86554894D01*
X150693203Y-86552041D01*
X150699574Y-86548940D01*
X150705787Y-86545591D01*
X150711844Y-86541994D01*
X150717743Y-86538148D01*
X150723609Y-86534079D01*
X150729301Y-86529812D01*
X150734820Y-86525347D01*
X150740165Y-86520683D01*
X150745337Y-86515821D01*
X150750335Y-86510761D01*
X150755159Y-86505502D01*
X150759811Y-86500045D01*
X150764288Y-86494390D01*
X150768592Y-86488536D01*
X150772723Y-86482484D01*
X150776680Y-86476234D01*
X150780463Y-86469786D01*
X150784073Y-86463139D01*
X150787509Y-86456294D01*
X150790772Y-86449250D01*
X150793847Y-86442028D01*
X150796724Y-86434649D01*
X150799402Y-86427112D01*
X150801882Y-86419418D01*
X150804164Y-86411568D01*
X150806248Y-86403560D01*
X150808133Y-86395396D01*
X150809819Y-86387074D01*
X150811308Y-86378595D01*
X150812598Y-86369959D01*
X150813689Y-86361166D01*
X150814582Y-86352216D01*
X150815277Y-86343108D01*
X150815773Y-86333844D01*
X150816071Y-86324422D01*
X150816170Y-86314843D01*
X150816071Y-86305136D01*
X150815773Y-86295593D01*
X150815277Y-86286217D01*
X150814582Y-86277005D01*
X150813689Y-86267959D01*
X150812598Y-86259079D01*
X150811308Y-86250363D01*
X150809819Y-86241814D01*
X150808133Y-86233430D01*
X150806248Y-86225211D01*
X150804164Y-86217158D01*
X150801882Y-86209271D01*
X150799402Y-86201549D01*
X150796724Y-86193992D01*
X150793847Y-86186601D01*
X150790772Y-86179376D01*
X150787510Y-86172331D01*
X150784075Y-86165485D01*
X150780467Y-86158837D01*
X150776684Y-86152388D01*
X150772728Y-86146137D01*
X150768598Y-86140085D01*
X150764294Y-86134231D01*
X150759816Y-86128576D01*
X150755165Y-86123119D01*
X150750340Y-86117860D01*
X150745341Y-86112800D01*
X150740169Y-86107939D01*
X150734823Y-86103276D01*
X150729303Y-86098812D01*
X150723610Y-86094546D01*
X150717743Y-86090478D01*
X150711844Y-86086633D01*
X150705787Y-86083035D01*
X150699574Y-86079686D01*
X150693203Y-86076585D01*
X150686675Y-86073732D01*
X150679990Y-86071127D01*
X150673148Y-86068771D01*
X150666148Y-86066662D01*
X150658992Y-86064802D01*
X150651679Y-86063189D01*
X150644208Y-86061825D01*
X150636581Y-86060709D01*
X150628796Y-86059841D01*
X150620854Y-86059221D01*
X150612756Y-86058849D01*
X150604500Y-86058725D01*
X150596368Y-86058853D01*
X150588376Y-86059237D01*
X150580525Y-86059878D01*
X150572814Y-86060775D01*
X150565244Y-86061928D01*
X150557815Y-86063337D01*
X150550526Y-86065003D01*
X150543378Y-86066925D01*
X150536371Y-86069104D01*
X150529504Y-86071539D01*
X150522778Y-86074230D01*
X150516192Y-86077177D01*
X150509747Y-86080381D01*
X150503443Y-86083841D01*
X150497280Y-86087558D01*
X150491257Y-86091531D01*
X150485519Y-86095600D01*
X150479946Y-86099867D01*
X150474538Y-86104332D01*
X150469296Y-86108996D01*
X150464219Y-86113858D01*
X150459307Y-86118919D01*
X150454561Y-86124177D01*
X150449980Y-86129634D01*
X150445564Y-86135289D01*
X150441314Y-86141143D01*
X150437230Y-86147195D01*
X150433310Y-86153445D01*
X150429557Y-86159893D01*
X150425969Y-86166540D01*
X150422546Y-86173385D01*
X150419289Y-86180429D01*
X150416214Y-86187651D01*
X150413337Y-86195031D01*
X150410658Y-86202567D01*
X150408178Y-86210261D01*
X150405896Y-86218111D01*
X150403813Y-86226119D01*
X150401928Y-86234284D01*
X150400241Y-86242605D01*
X150398753Y-86251084D01*
X150397463Y-86259720D01*
X150396371Y-86268513D01*
X150395478Y-86277464D01*
X150394784Y-86286571D01*
X150394288Y-86295835D01*
X150393990Y-86305257D01*
X150393891Y-86314836D01*
X150244667Y-86314836D01*
X150245114Y-86291658D01*
X150246453Y-86269201D01*
X150247457Y-86258246D01*
X150248685Y-86247472D01*
X150250135Y-86236881D01*
X150251809Y-86226471D01*
X150253707Y-86216244D01*
X150255827Y-86206198D01*
X150258171Y-86196334D01*
X150260738Y-86186652D01*
X150263528Y-86177152D01*
X150266542Y-86167834D01*
X150269779Y-86158698D01*
X150273239Y-86149743D01*
X150276898Y-86140838D01*
X150280731Y-86132114D01*
X150284737Y-86123573D01*
X150288916Y-86115214D01*
X150293269Y-86107036D01*
X150297796Y-86099041D01*
X150302496Y-86091227D01*
X150307370Y-86083596D01*
X150312418Y-86076146D01*
X150317639Y-86068878D01*
X150323033Y-86061792D01*
X150328601Y-86054889D01*
X150334343Y-86048167D01*
X150340258Y-86041627D01*
X150346346Y-86035268D01*
X150352608Y-86029092D01*
X150359012Y-86023102D01*
X150365523Y-86017301D01*
X150372142Y-86011691D01*
X150378868Y-86006271D01*
X150385701Y-86001041D01*
X150392643Y-85996002D01*
X150399691Y-85991152D01*
X150406847Y-85986492D01*
X150414111Y-85982023D01*
X150421482Y-85977744D01*
X150428960Y-85973655D01*
X150436546Y-85969756D01*
X150444239Y-85966048D01*
X150452040Y-85962529D01*
X150459949Y-85959201D01*
X150467964Y-85956064D01*
X150476063Y-85953116D01*
X150484219Y-85950359D01*
X150492434Y-85947792D01*
X150500706Y-85945415D01*
X150509036Y-85943228D01*
X150517424Y-85941232D01*
X150525870Y-85939425D01*
X150534374Y-85937809D01*
X150542936Y-85936383D01*
X150551556Y-85935148D01*
X150560234Y-85934102D01*
X150568970Y-85933247D01*
X150577764Y-85932581D01*
X150586615Y-85932106D01*
X150595525Y-85931821D01*
X150604492Y-85931726D01*
X150616858Y-85931895D01*
G37*
D11*
X144549942Y-81600000D02*
X143000000Y-81600000D01*
D10*
X154126160Y-93822809D02*
X142126160Y-93822809D01*
X142126160Y-80822809D01*
X154126160Y-80822809D01*
X154126160Y-93822809D01*
D12*
G36*
X148700827Y-85994568D02*
G01*
X148709028Y-86041268D01*
X148717759Y-86088761D01*
X148727020Y-86137048D01*
X148736613Y-86185401D01*
X148746338Y-86233092D01*
X148756194Y-86280120D01*
X148766182Y-86326486D01*
X148776767Y-86371002D01*
X148787349Y-86413534D01*
X148797930Y-86454083D01*
X148808510Y-86492646D01*
X148818036Y-86465791D01*
X148827561Y-86438143D01*
X148837085Y-86409701D01*
X148846611Y-86380464D01*
X148866455Y-86320135D01*
X148885773Y-86259813D01*
X148904295Y-86199228D01*
X148921753Y-86140222D01*
X148953507Y-86029100D01*
X149076271Y-86029100D01*
X149121781Y-86180444D01*
X149134083Y-86221191D01*
X149146650Y-86261937D01*
X149159481Y-86302684D01*
X149172577Y-86343431D01*
X149185674Y-86382918D01*
X149198505Y-86420952D01*
X149211071Y-86457531D01*
X149223374Y-86492654D01*
X149233361Y-86454556D01*
X149243218Y-86414338D01*
X149252942Y-86372004D01*
X149262535Y-86327554D01*
X149272457Y-86281184D01*
X149282115Y-86234154D01*
X149291509Y-86186464D01*
X149300636Y-86138116D01*
X149309965Y-86089764D01*
X149318896Y-86042073D01*
X149327429Y-85995044D01*
X149335564Y-85948678D01*
X149484787Y-85948678D01*
X149468650Y-86025673D01*
X149451981Y-86102136D01*
X149443912Y-86140172D01*
X149435579Y-86178074D01*
X149426980Y-86215843D01*
X149418114Y-86253480D01*
X149409451Y-86290918D01*
X149400389Y-86328091D01*
X149390929Y-86364999D01*
X149381073Y-86401643D01*
X149371414Y-86437958D01*
X149361491Y-86473876D01*
X149351304Y-86509397D01*
X149340851Y-86544519D01*
X149330665Y-86579309D01*
X149320214Y-86613836D01*
X149309499Y-86648099D01*
X149298523Y-86682100D01*
X149163056Y-86682100D01*
X149136597Y-86610398D01*
X149110138Y-86537111D01*
X149084740Y-86461174D01*
X149059342Y-86383653D01*
X149009598Y-86224900D01*
X148984992Y-86304803D01*
X148959854Y-86383653D01*
X148947618Y-86422616D01*
X148935249Y-86461180D01*
X148922746Y-86499345D01*
X148910111Y-86537111D01*
X148897346Y-86573952D01*
X148884448Y-86610398D01*
X148871417Y-86646447D01*
X148858254Y-86682100D01*
X148722794Y-86682084D01*
X148711744Y-86648549D01*
X148700831Y-86614617D01*
X148690052Y-86580288D01*
X148679405Y-86545564D01*
X148659294Y-86474125D01*
X148639183Y-86401628D01*
X148620397Y-86328076D01*
X148602143Y-86253465D01*
X148568276Y-86102121D01*
X148552666Y-86025655D01*
X148537583Y-85948663D01*
X148693154Y-85948663D01*
X148700827Y-85994568D01*
G37*
D11*
X150749718Y-81600000D02*
X152299660Y-81600000D01*
X152299660Y-85216844D02*
X152299660Y-81600000D01*
D12*
G36*
X146222973Y-85931975D02*
G01*
X146237790Y-85932633D01*
X146252078Y-85933728D01*
X146265837Y-85935262D01*
X146279066Y-85937234D01*
X146291766Y-85939645D01*
X146303937Y-85942493D01*
X146315579Y-85945780D01*
X146326691Y-85949505D01*
X146337274Y-85953668D01*
X146347327Y-85958269D01*
X146356852Y-85963309D01*
X146365847Y-85968786D01*
X146374313Y-85974702D01*
X146382249Y-85981056D01*
X146389656Y-85987848D01*
X146396706Y-85994888D01*
X146403300Y-86002251D01*
X146409440Y-86009936D01*
X146415125Y-86017944D01*
X146420355Y-86026274D01*
X146425130Y-86034927D01*
X146429451Y-86043902D01*
X146433316Y-86053200D01*
X146436727Y-86062820D01*
X146439683Y-86072763D01*
X146442184Y-86083028D01*
X146444231Y-86093616D01*
X146445822Y-86104526D01*
X146446959Y-86115759D01*
X146447641Y-86127314D01*
X146447869Y-86139192D01*
X146447765Y-86145790D01*
X146447455Y-86152355D01*
X146446938Y-86158887D01*
X146446215Y-86165386D01*
X146445285Y-86171852D01*
X146444148Y-86178285D01*
X146442804Y-86184684D01*
X146441254Y-86191051D01*
X146439497Y-86197384D01*
X146437533Y-86203685D01*
X146435363Y-86209952D01*
X146432985Y-86216186D01*
X146430402Y-86222387D01*
X146427611Y-86228556D01*
X146424614Y-86234691D01*
X146421410Y-86240793D01*
X146414564Y-86252634D01*
X146407255Y-86264343D01*
X146399483Y-86275919D01*
X146391248Y-86287363D01*
X146382550Y-86298675D01*
X146373389Y-86309853D01*
X146363764Y-86320899D01*
X146353676Y-86331811D01*
X146333433Y-86352844D01*
X146312927Y-86373613D01*
X146292159Y-86394118D01*
X146271126Y-86414361D01*
X146259223Y-86425867D01*
X146246789Y-86438169D01*
X146233825Y-86451266D01*
X146220329Y-86465158D01*
X146213548Y-86472285D01*
X146206966Y-86479380D01*
X146200582Y-86486441D01*
X146194397Y-86493469D01*
X146188411Y-86500464D01*
X146182624Y-86507426D01*
X146177036Y-86514354D01*
X146171646Y-86521249D01*
X146169199Y-86524523D01*
X146166884Y-86527731D01*
X146164702Y-86530873D01*
X146162651Y-86533949D01*
X146160733Y-86536959D01*
X146158948Y-86539902D01*
X146157294Y-86542780D01*
X146155773Y-86545591D01*
X146154385Y-86548336D01*
X146153128Y-86551014D01*
X146152004Y-86553627D01*
X146151013Y-86556174D01*
X146150153Y-86558654D01*
X146149426Y-86561068D01*
X146148831Y-86563416D01*
X146148369Y-86565698D01*
X146470101Y-86565698D01*
X146470101Y-86682115D01*
X145996002Y-86682084D01*
X145995745Y-86679626D01*
X145995522Y-86677002D01*
X145995333Y-86674210D01*
X145995178Y-86671252D01*
X145995058Y-86668126D01*
X145994972Y-86664833D01*
X145994921Y-86661374D01*
X145994904Y-86657747D01*
X145994904Y-86633409D01*
X145995015Y-86625000D01*
X145995350Y-86616706D01*
X145995909Y-86608529D01*
X145996690Y-86600467D01*
X145997695Y-86592521D01*
X145998923Y-86584691D01*
X146000375Y-86576977D01*
X146002050Y-86569378D01*
X146003948Y-86561895D01*
X146006069Y-86554529D01*
X146008413Y-86547277D01*
X146010981Y-86540142D01*
X146013772Y-86533122D01*
X146016786Y-86526218D01*
X146020023Y-86519430D01*
X146023483Y-86512758D01*
X146030842Y-86499660D01*
X146038631Y-86486828D01*
X146046850Y-86474260D01*
X146055498Y-86461957D01*
X146064577Y-86449919D01*
X146074085Y-86438145D01*
X146084023Y-86426636D01*
X146094391Y-86415391D01*
X146116085Y-86393300D01*
X146137779Y-86371474D01*
X146159474Y-86349912D01*
X146181168Y-86328614D01*
X146198164Y-86312475D01*
X146214235Y-86296867D01*
X146229383Y-86281787D01*
X146243607Y-86267236D01*
X146250569Y-86259845D01*
X146257168Y-86252486D01*
X146263403Y-86245160D01*
X146269274Y-86237867D01*
X146274781Y-86230606D01*
X146279924Y-86223379D01*
X146284702Y-86216184D01*
X146289116Y-86209024D01*
X146291166Y-86205435D01*
X146293083Y-86201814D01*
X146294869Y-86198159D01*
X146296522Y-86194471D01*
X146298043Y-86190751D01*
X146299431Y-86186997D01*
X146300688Y-86183210D01*
X146301812Y-86179390D01*
X146302804Y-86175537D01*
X146303664Y-86171652D01*
X146304392Y-86167733D01*
X146304987Y-86163781D01*
X146305450Y-86159797D01*
X146305781Y-86155779D01*
X146305980Y-86151729D01*
X146306046Y-86147645D01*
X146305930Y-86141155D01*
X146305583Y-86134912D01*
X146305004Y-86128917D01*
X146304193Y-86123171D01*
X146303151Y-86117672D01*
X146301878Y-86112422D01*
X146300373Y-86107419D01*
X146298637Y-86102665D01*
X146296669Y-86098159D01*
X146294469Y-86093901D01*
X146292039Y-86089891D01*
X146289376Y-86086129D01*
X146286483Y-86082616D01*
X146283358Y-86079350D01*
X146280001Y-86076333D01*
X146276413Y-86073564D01*
X146272656Y-86070874D01*
X146268791Y-86068357D01*
X146264818Y-86066015D01*
X146260738Y-86063845D01*
X146256550Y-86061849D01*
X146252254Y-86060027D01*
X146247851Y-86058378D01*
X146243341Y-86056902D01*
X146238722Y-86055600D01*
X146233997Y-86054472D01*
X146229164Y-86053517D01*
X146224223Y-86052736D01*
X146219174Y-86052128D01*
X146214019Y-86051694D01*
X146208755Y-86051434D01*
X146203385Y-86051347D01*
X146198514Y-86051401D01*
X146193694Y-86051562D01*
X146188923Y-86051831D01*
X146184201Y-86052207D01*
X146179530Y-86052691D01*
X146174908Y-86053282D01*
X146170335Y-86053981D01*
X146165813Y-86054787D01*
X146161340Y-86055701D01*
X146156916Y-86056722D01*
X146152542Y-86057851D01*
X146148218Y-86059088D01*
X146143943Y-86060432D01*
X146139718Y-86061884D01*
X146135543Y-86063443D01*
X146131417Y-86065110D01*
X146123626Y-86068618D01*
X146116134Y-86072257D01*
X146108941Y-86076029D01*
X146102045Y-86079932D01*
X146095448Y-86083966D01*
X146089149Y-86088133D01*
X146083149Y-86092433D01*
X146077446Y-86096864D01*
X146067123Y-86105330D01*
X146062558Y-86109166D01*
X146058391Y-86112738D01*
X146054620Y-86116045D01*
X146051247Y-86119089D01*
X146048271Y-86121868D01*
X146045693Y-86124383D01*
X145976906Y-86028070D01*
X145983653Y-86021787D01*
X145990665Y-86015636D01*
X145997941Y-86009617D01*
X146005481Y-86003729D01*
X146013286Y-85997974D01*
X146021355Y-85992350D01*
X146029687Y-85986859D01*
X146038284Y-85981500D01*
X146047379Y-85976074D01*
X146056672Y-85970913D01*
X146066164Y-85966017D01*
X146075855Y-85961387D01*
X146085745Y-85957022D01*
X146095834Y-85952923D01*
X146106121Y-85949088D01*
X146116608Y-85945520D01*
X146127520Y-85942293D01*
X146138566Y-85939497D01*
X146149745Y-85937131D01*
X146161056Y-85935196D01*
X146172500Y-85933691D01*
X146184076Y-85932616D01*
X146195785Y-85931971D01*
X146207627Y-85931756D01*
X146222973Y-85931975D01*
G37*
G36*
X144986186Y-85940414D02*
G01*
X145005521Y-85941096D01*
X145024253Y-85942233D01*
X145042381Y-85943825D01*
X145059905Y-85945871D01*
X145076826Y-85948372D01*
X145093144Y-85951328D01*
X145108857Y-85954739D01*
X145123968Y-85958604D01*
X145138474Y-85962925D01*
X145152377Y-85967700D01*
X145165676Y-85972930D01*
X145178372Y-85978615D01*
X145190464Y-85984755D01*
X145201953Y-85991349D01*
X145212837Y-85998399D01*
X145218111Y-86002104D01*
X145223217Y-86005941D01*
X145228156Y-86009910D01*
X145232927Y-86014011D01*
X145237531Y-86018245D01*
X145241968Y-86022610D01*
X145246237Y-86027108D01*
X145250338Y-86031739D01*
X145254273Y-86036501D01*
X145258039Y-86041396D01*
X145261639Y-86046423D01*
X145265071Y-86051583D01*
X145268335Y-86056874D01*
X145271432Y-86062298D01*
X145274362Y-86067854D01*
X145277125Y-86073543D01*
X145279720Y-86079364D01*
X145282147Y-86085317D01*
X145284407Y-86091402D01*
X145286500Y-86097619D01*
X145290183Y-86110451D01*
X145293196Y-86123813D01*
X145295540Y-86137703D01*
X145297214Y-86152123D01*
X145298219Y-86167072D01*
X145298554Y-86182550D01*
X145298401Y-86193273D01*
X145297942Y-86203749D01*
X145297177Y-86213976D01*
X145296106Y-86223956D01*
X145294729Y-86233687D01*
X145293047Y-86243171D01*
X145291058Y-86252406D01*
X145288763Y-86261394D01*
X145286163Y-86270133D01*
X145283256Y-86278625D01*
X145280044Y-86286868D01*
X145276525Y-86294863D01*
X145272701Y-86302611D01*
X145268570Y-86310110D01*
X145264134Y-86317362D01*
X145259392Y-86324365D01*
X145254352Y-86331000D01*
X145249023Y-86337411D01*
X145243404Y-86343600D01*
X145237497Y-86349565D01*
X145231299Y-86355307D01*
X145224813Y-86360825D01*
X145218037Y-86366121D01*
X145210972Y-86371193D01*
X145203618Y-86376042D01*
X145195974Y-86380668D01*
X145188041Y-86385070D01*
X145179818Y-86389250D01*
X145171307Y-86393206D01*
X145162506Y-86396938D01*
X145153415Y-86400448D01*
X145144036Y-86403733D01*
X145134515Y-86406681D01*
X145124738Y-86409438D01*
X145114704Y-86412005D01*
X145104415Y-86414382D01*
X145093869Y-86416569D01*
X145083066Y-86418565D01*
X145072008Y-86420372D01*
X145060693Y-86421988D01*
X145037294Y-86424649D01*
X145012870Y-86426551D01*
X144987421Y-86427691D01*
X144960945Y-86428071D01*
X144898506Y-86428071D01*
X144898506Y-86682069D01*
X144753525Y-86682084D01*
X144753525Y-86304261D01*
X144898514Y-86304261D01*
X144958847Y-86304261D01*
X144973894Y-86304096D01*
X144988346Y-86303600D01*
X145002203Y-86302774D01*
X145015465Y-86301617D01*
X145028132Y-86300129D01*
X145040204Y-86298310D01*
X145051680Y-86296160D01*
X145062561Y-86293679D01*
X145067898Y-86292294D01*
X145073060Y-86290785D01*
X145078050Y-86289152D01*
X145082866Y-86287395D01*
X145087508Y-86285514D01*
X145091977Y-86283509D01*
X145096273Y-86281380D01*
X145100394Y-86279127D01*
X145104343Y-86276750D01*
X145108118Y-86274249D01*
X145111719Y-86271625D01*
X145115146Y-86268875D01*
X145118401Y-86266002D01*
X145121481Y-86263005D01*
X145124388Y-86259884D01*
X145127121Y-86256639D01*
X145129811Y-86253245D01*
X145132327Y-86249677D01*
X145134670Y-86245935D01*
X145136840Y-86242020D01*
X145138836Y-86237932D01*
X145140658Y-86233669D01*
X145142307Y-86229233D01*
X145143783Y-86224624D01*
X145145085Y-86219841D01*
X145146213Y-86214884D01*
X145147168Y-86209753D01*
X145147949Y-86204449D01*
X145148557Y-86198972D01*
X145148991Y-86193320D01*
X145149251Y-86187495D01*
X145149338Y-86181497D01*
X145149251Y-86175759D01*
X145148991Y-86170186D01*
X145148557Y-86164778D01*
X145147949Y-86159536D01*
X145147168Y-86154459D01*
X145146213Y-86149547D01*
X145145085Y-86144801D01*
X145143783Y-86140220D01*
X145142307Y-86135804D01*
X145140658Y-86131554D01*
X145138836Y-86127470D01*
X145136840Y-86123550D01*
X145134670Y-86119797D01*
X145132327Y-86116209D01*
X145129811Y-86112786D01*
X145127121Y-86109529D01*
X145124271Y-86106416D01*
X145121281Y-86103428D01*
X145118151Y-86100564D01*
X145114880Y-86097823D01*
X145111469Y-86095206D01*
X145107918Y-86092713D01*
X145104226Y-86090345D01*
X145100393Y-86088100D01*
X145096421Y-86085979D01*
X145092308Y-86083982D01*
X145088055Y-86082108D01*
X145083661Y-86080359D01*
X145079127Y-86078734D01*
X145074452Y-86077232D01*
X145069637Y-86075855D01*
X145064682Y-86074601D01*
X145054710Y-86072121D01*
X145044375Y-86069971D01*
X145033675Y-86068152D01*
X145022613Y-86066664D01*
X145011186Y-86065507D01*
X144999396Y-86064680D01*
X144987242Y-86064185D01*
X144974724Y-86064019D01*
X144969199Y-86064052D01*
X144963740Y-86064151D01*
X144958349Y-86064315D01*
X144953025Y-86064545D01*
X144947768Y-86064840D01*
X144942577Y-86065201D01*
X144937453Y-86065627D01*
X144932396Y-86066118D01*
X144913875Y-86067192D01*
X144898529Y-86068216D01*
X144898514Y-86304261D01*
X144753525Y-86304261D01*
X144753525Y-85960305D01*
X144766341Y-85957758D01*
X144779387Y-85955410D01*
X144792666Y-85953261D01*
X144806175Y-85951309D01*
X144819917Y-85949557D01*
X144833890Y-85948003D01*
X144848096Y-85946647D01*
X144862534Y-85945489D01*
X144890847Y-85943170D01*
X144917569Y-85941513D01*
X144930335Y-85940933D01*
X144942703Y-85940519D01*
X144954674Y-85940270D01*
X144966248Y-85940187D01*
X144986186Y-85940414D01*
G37*
D11*
X146099884Y-81600000D02*
X146099884Y-83253648D01*
D12*
G36*
X147330335Y-85931891D02*
G01*
X147344935Y-85932387D01*
X147359040Y-85933213D01*
X147372648Y-85934370D01*
X147385762Y-85935858D01*
X147398379Y-85937677D01*
X147410501Y-85939827D01*
X147422127Y-85942308D01*
X147433240Y-85944987D01*
X147443824Y-85947732D01*
X147453878Y-85950543D01*
X147463402Y-85953420D01*
X147472397Y-85956362D01*
X147480863Y-85959371D01*
X147488800Y-85962445D01*
X147496208Y-85965585D01*
X147503334Y-85968695D01*
X147509898Y-85971672D01*
X147515900Y-85974517D01*
X147521340Y-85977229D01*
X147526217Y-85979810D01*
X147530532Y-85982258D01*
X147534285Y-85984573D01*
X147537476Y-85986757D01*
X147495148Y-86104234D01*
X147487010Y-86099819D01*
X147478477Y-86095569D01*
X147469546Y-86091485D01*
X147460220Y-86087566D01*
X147450496Y-86083812D01*
X147440376Y-86080223D01*
X147429859Y-86076799D01*
X147418945Y-86073541D01*
X147413340Y-86071874D01*
X147407635Y-86070314D01*
X147401831Y-86068863D01*
X147395927Y-86067518D01*
X147383823Y-86065153D01*
X147371321Y-86063217D01*
X147358422Y-86061712D01*
X147345127Y-86060637D01*
X147331434Y-86059992D01*
X147317345Y-86059778D01*
X147309845Y-86059885D01*
X147302427Y-86060207D01*
X147295092Y-86060745D01*
X147287841Y-86061497D01*
X147280671Y-86062464D01*
X147273585Y-86063647D01*
X147266582Y-86065044D01*
X147259661Y-86066656D01*
X147252823Y-86068484D01*
X147246068Y-86070526D01*
X147239395Y-86072784D01*
X147232806Y-86075256D01*
X147226299Y-86077944D01*
X147219875Y-86080846D01*
X147213534Y-86083964D01*
X147207276Y-86087297D01*
X147201265Y-86090720D01*
X147195402Y-86094375D01*
X147189689Y-86098261D01*
X147184124Y-86102378D01*
X147178708Y-86106728D01*
X147173441Y-86111309D01*
X147168323Y-86116121D01*
X147163353Y-86121165D01*
X147158532Y-86126440D01*
X147153860Y-86131946D01*
X147149337Y-86137685D01*
X147144962Y-86143654D01*
X147140737Y-86149855D01*
X147136660Y-86156288D01*
X147132732Y-86162952D01*
X147128952Y-86169847D01*
X147125364Y-86176978D01*
X147122008Y-86184349D01*
X147118883Y-86191959D01*
X147115989Y-86199810D01*
X147113327Y-86207901D01*
X147110896Y-86216231D01*
X147108697Y-86224801D01*
X147106729Y-86233611D01*
X147104992Y-86242661D01*
X147103487Y-86251951D01*
X147102214Y-86261480D01*
X147101172Y-86271249D01*
X147100362Y-86281258D01*
X147099783Y-86291507D01*
X147099435Y-86301995D01*
X147099320Y-86312722D01*
X147099667Y-86330994D01*
X147100709Y-86348770D01*
X147102445Y-86366050D01*
X147103574Y-86374504D01*
X147104877Y-86382835D01*
X147106353Y-86391041D01*
X147108003Y-86399124D01*
X147109827Y-86407082D01*
X147111824Y-86414917D01*
X147113995Y-86422627D01*
X147116340Y-86430214D01*
X147118859Y-86437677D01*
X147121552Y-86445016D01*
X147124561Y-86452069D01*
X147127768Y-86458940D01*
X147131174Y-86465630D01*
X147134778Y-86472137D01*
X147138581Y-86478463D01*
X147142583Y-86484606D01*
X147146783Y-86490568D01*
X147151181Y-86496348D01*
X147155779Y-86501945D01*
X147160574Y-86507361D01*
X147165569Y-86512595D01*
X147170762Y-86517647D01*
X147176153Y-86522517D01*
X147181743Y-86527205D01*
X147187532Y-86531711D01*
X147193520Y-86536035D01*
X147199846Y-86540008D01*
X147206386Y-86543725D01*
X147213142Y-86547185D01*
X147220112Y-86550389D01*
X147227297Y-86553336D01*
X147234697Y-86556027D01*
X147242312Y-86558462D01*
X147250141Y-86560641D01*
X147258186Y-86562563D01*
X147266446Y-86564228D01*
X147274920Y-86565638D01*
X147283610Y-86566791D01*
X147292514Y-86567688D01*
X147301634Y-86568329D01*
X147310969Y-86568713D01*
X147320519Y-86568841D01*
X147338312Y-86568626D01*
X147355179Y-86567981D01*
X147371119Y-86566906D01*
X147386134Y-86565401D01*
X147400223Y-86563466D01*
X147413386Y-86561100D01*
X147425624Y-86558304D01*
X147436936Y-86555078D01*
X147447517Y-86551636D01*
X147457571Y-86548195D01*
X147467095Y-86544755D01*
X147476091Y-86541315D01*
X147484557Y-86537876D01*
X147492495Y-86534437D01*
X147499903Y-86530998D01*
X147506783Y-86527559D01*
X147547005Y-86645036D01*
X147543044Y-86647281D01*
X147538836Y-86649517D01*
X147534379Y-86651745D01*
X147529674Y-86653965D01*
X147524722Y-86656177D01*
X147519521Y-86658381D01*
X147508375Y-86662763D01*
X147496238Y-86667112D01*
X147483108Y-86671429D01*
X147468987Y-86675713D01*
X147453873Y-86679963D01*
X147438165Y-86683931D01*
X147421729Y-86687369D01*
X147404565Y-86690279D01*
X147386673Y-86692660D01*
X147368053Y-86694512D01*
X147348705Y-86695835D01*
X147328628Y-86696628D01*
X147307823Y-86696893D01*
X147307808Y-86696901D01*
X147293781Y-86696727D01*
X147280011Y-86696206D01*
X147266497Y-86695338D01*
X147253239Y-86694123D01*
X147240237Y-86692560D01*
X147227491Y-86690650D01*
X147215002Y-86688393D01*
X147202769Y-86685788D01*
X147190793Y-86682837D01*
X147179073Y-86679538D01*
X147167609Y-86675892D01*
X147156402Y-86671898D01*
X147145451Y-86667557D01*
X147134756Y-86662869D01*
X147124318Y-86657834D01*
X147114136Y-86652452D01*
X147104231Y-86646734D01*
X147094624Y-86640695D01*
X147085314Y-86634333D01*
X147076302Y-86627648D01*
X147067587Y-86620641D01*
X147059170Y-86613311D01*
X147051051Y-86605660D01*
X147043229Y-86597685D01*
X147035705Y-86589388D01*
X147028479Y-86580769D01*
X147021550Y-86571827D01*
X147014919Y-86562562D01*
X147008585Y-86552975D01*
X147002550Y-86543066D01*
X146996812Y-86532834D01*
X146991371Y-86522279D01*
X146986245Y-86511424D01*
X146981450Y-86500287D01*
X146976986Y-86488870D01*
X146972852Y-86477171D01*
X146969049Y-86465190D01*
X146965577Y-86452929D01*
X146962435Y-86440386D01*
X146959624Y-86427562D01*
X146957144Y-86414457D01*
X146954995Y-86401070D01*
X146953177Y-86387402D01*
X146951689Y-86373453D01*
X146950531Y-86359222D01*
X146949705Y-86344711D01*
X146949209Y-86329918D01*
X146949043Y-86314843D01*
X146949473Y-86292404D01*
X146950763Y-86270592D01*
X146951730Y-86259922D01*
X146952913Y-86249409D01*
X146954310Y-86239053D01*
X146955922Y-86228853D01*
X146957750Y-86218812D01*
X146959792Y-86208927D01*
X146962049Y-86199199D01*
X146964522Y-86189628D01*
X146967210Y-86180215D01*
X146970112Y-86170958D01*
X146973230Y-86161859D01*
X146976563Y-86152917D01*
X146980217Y-86144012D01*
X146984037Y-86135288D01*
X146988023Y-86126747D01*
X146992174Y-86118387D01*
X146996490Y-86110210D01*
X147000972Y-86102214D01*
X147005619Y-86094401D01*
X147010431Y-86086769D01*
X147015409Y-86079320D01*
X147020553Y-86072052D01*
X147025861Y-86064966D01*
X147031336Y-86058062D01*
X147036975Y-86051340D01*
X147042780Y-86044800D01*
X147048750Y-86038442D01*
X147054886Y-86032266D01*
X147061171Y-86026143D01*
X147067587Y-86020210D01*
X147074136Y-86014467D01*
X147080817Y-86008914D01*
X147087630Y-86003552D01*
X147094576Y-85998380D01*
X147101653Y-85993398D01*
X147108863Y-85988607D01*
X147116205Y-85984005D01*
X147123679Y-85979594D01*
X147131286Y-85975374D01*
X147139025Y-85971343D01*
X147146896Y-85967503D01*
X147154899Y-85963853D01*
X147163035Y-85960393D01*
X147171303Y-85957124D01*
X147179680Y-85954049D01*
X147188139Y-85951172D01*
X147196681Y-85948494D01*
X147205305Y-85946013D01*
X147214012Y-85943732D01*
X147222801Y-85941648D01*
X147231673Y-85939763D01*
X147240627Y-85938076D01*
X147249665Y-85936588D01*
X147258784Y-85935298D01*
X147267987Y-85934207D01*
X147277272Y-85933313D01*
X147286639Y-85932619D01*
X147296090Y-85932123D01*
X147305623Y-85931825D01*
X147315239Y-85931726D01*
X147330335Y-85931891D01*
G37*
G36*
X144398443Y-85931982D02*
G01*
X144415326Y-85932726D01*
X144431648Y-85933967D01*
X144447407Y-85935704D01*
X144462604Y-85937936D01*
X144477239Y-85940665D01*
X144491311Y-85943890D01*
X144504822Y-85947610D01*
X144518001Y-85951628D01*
X144530551Y-85955745D01*
X144542473Y-85959962D01*
X144553767Y-85964278D01*
X144564433Y-85968694D01*
X144574470Y-85973209D01*
X144583879Y-85977824D01*
X144592659Y-85982538D01*
X144549271Y-86096841D01*
X144541465Y-86092692D01*
X144533395Y-86088707D01*
X144525061Y-86084887D01*
X144516462Y-86081232D01*
X144507598Y-86077742D01*
X144498471Y-86074417D01*
X144489079Y-86071257D01*
X144479424Y-86068261D01*
X144474479Y-86066723D01*
X144469435Y-86065284D01*
X144464292Y-86063944D01*
X144459049Y-86062704D01*
X144453707Y-86061563D01*
X144448266Y-86060521D01*
X144442726Y-86059578D01*
X144437087Y-86058734D01*
X144425511Y-86057345D01*
X144413539Y-86056352D01*
X144401170Y-86055757D01*
X144388405Y-86055558D01*
X144380853Y-86055633D01*
X144373541Y-86055856D01*
X144366468Y-86056228D01*
X144359635Y-86056749D01*
X144353041Y-86057418D01*
X144346687Y-86058237D01*
X144340573Y-86059204D01*
X144334698Y-86060320D01*
X144329063Y-86061585D01*
X144323667Y-86062999D01*
X144318511Y-86064562D01*
X144313595Y-86066273D01*
X144308918Y-86068134D01*
X144304481Y-86070143D01*
X144300284Y-86072302D01*
X144296326Y-86074609D01*
X144294503Y-86075822D01*
X144292738Y-86077078D01*
X144291031Y-86078377D01*
X144289381Y-86079720D01*
X144287790Y-86081106D01*
X144286256Y-86082536D01*
X144284781Y-86084009D01*
X144283363Y-86085525D01*
X144282003Y-86087085D01*
X144280700Y-86088688D01*
X144279456Y-86090335D01*
X144278270Y-86092025D01*
X144277141Y-86093759D01*
X144276070Y-86095536D01*
X144275057Y-86097356D01*
X144274102Y-86099220D01*
X144273205Y-86101127D01*
X144272366Y-86103077D01*
X144271585Y-86105071D01*
X144270861Y-86107108D01*
X144270195Y-86109189D01*
X144269588Y-86111313D01*
X144269038Y-86113481D01*
X144268546Y-86115692D01*
X144267735Y-86120244D01*
X144267156Y-86124970D01*
X144266809Y-86129869D01*
X144266693Y-86134942D01*
X144266764Y-86138605D01*
X144266974Y-86142184D01*
X144267326Y-86145681D01*
X144267818Y-86149096D01*
X144268450Y-86152428D01*
X144269223Y-86155677D01*
X144270137Y-86158843D01*
X144271191Y-86161927D01*
X144272385Y-86164929D01*
X144273721Y-86167848D01*
X144275196Y-86170684D01*
X144276813Y-86173437D01*
X144278570Y-86176108D01*
X144280467Y-86178697D01*
X144282505Y-86181202D01*
X144284683Y-86183625D01*
X144286982Y-86185991D01*
X144289379Y-86188323D01*
X144291876Y-86190621D01*
X144294472Y-86192887D01*
X144297168Y-86195119D01*
X144299962Y-86197318D01*
X144302856Y-86199485D01*
X144305849Y-86201617D01*
X144308942Y-86203717D01*
X144312133Y-86205784D01*
X144315424Y-86207818D01*
X144318814Y-86209819D01*
X144322303Y-86211787D01*
X144325892Y-86213721D01*
X144329580Y-86215623D01*
X144333367Y-86217492D01*
X144341155Y-86220934D01*
X144349175Y-86224375D01*
X144357426Y-86227815D01*
X144365909Y-86231255D01*
X144383568Y-86238134D01*
X144402153Y-86245012D01*
X144420029Y-86251659D01*
X144437145Y-86258373D01*
X144453500Y-86265152D01*
X144469094Y-86271998D01*
X144483928Y-86278909D01*
X144498001Y-86285887D01*
X144511314Y-86292932D01*
X144523865Y-86300042D01*
X144529988Y-86303672D01*
X144535921Y-86307418D01*
X144541664Y-86311280D01*
X144547217Y-86315257D01*
X144552579Y-86319350D01*
X144557751Y-86323559D01*
X144562733Y-86327884D01*
X144567524Y-86332324D01*
X144572125Y-86336880D01*
X144576536Y-86341552D01*
X144580757Y-86346340D01*
X144584788Y-86351243D01*
X144588628Y-86356261D01*
X144592278Y-86361395D01*
X144595737Y-86366645D01*
X144599007Y-86372010D01*
X144602211Y-86377414D01*
X144605208Y-86383040D01*
X144607999Y-86388889D01*
X144610583Y-86394962D01*
X144612960Y-86401258D01*
X144615130Y-86407777D01*
X144617094Y-86414519D01*
X144618851Y-86421485D01*
X144620401Y-86428674D01*
X144621745Y-86436087D01*
X144622882Y-86443723D01*
X144623812Y-86451582D01*
X144624535Y-86459665D01*
X144625052Y-86467971D01*
X144625362Y-86476500D01*
X144625466Y-86485254D01*
X144625342Y-86493513D01*
X144624970Y-86501624D01*
X144624349Y-86509587D01*
X144623481Y-86517400D01*
X144622365Y-86525065D01*
X144621001Y-86532581D01*
X144619389Y-86539948D01*
X144617528Y-86547166D01*
X144615420Y-86554236D01*
X144613063Y-86561157D01*
X144610458Y-86567929D01*
X144607605Y-86574552D01*
X144604504Y-86581026D01*
X144601155Y-86587352D01*
X144597558Y-86593529D01*
X144593712Y-86599557D01*
X144589618Y-86605423D01*
X144585277Y-86611115D01*
X144580688Y-86616634D01*
X144575850Y-86621979D01*
X144570765Y-86627150D01*
X144565432Y-86632148D01*
X144559851Y-86636973D01*
X144554022Y-86641624D01*
X144547945Y-86646101D01*
X144541620Y-86650405D01*
X144535047Y-86654534D01*
X144528225Y-86658491D01*
X144521156Y-86662273D01*
X144513839Y-86665882D01*
X144506273Y-86669317D01*
X144498459Y-86672578D01*
X144490534Y-86675526D01*
X144482370Y-86678283D01*
X144473965Y-86680850D01*
X144465321Y-86683227D01*
X144456437Y-86685414D01*
X144447314Y-86687410D01*
X144437950Y-86689216D01*
X144428347Y-86690832D01*
X144418504Y-86692258D01*
X144408421Y-86693494D01*
X144398098Y-86694540D01*
X144387536Y-86695395D01*
X144376734Y-86696060D01*
X144365691Y-86696536D01*
X144354410Y-86696821D01*
X144342888Y-86696916D01*
X144342896Y-86696901D01*
X144319893Y-86696603D01*
X144297982Y-86695710D01*
X144277163Y-86694222D01*
X144257435Y-86692139D01*
X144238799Y-86689460D01*
X144221254Y-86686186D01*
X144204801Y-86682316D01*
X144189438Y-86677850D01*
X144175364Y-86672889D01*
X144162250Y-86668061D01*
X144150095Y-86663365D01*
X144138899Y-86658801D01*
X144128663Y-86654370D01*
X144119385Y-86650071D01*
X144111067Y-86645904D01*
X144103707Y-86641870D01*
X144146034Y-86526513D01*
X144153740Y-86530712D01*
X144162040Y-86534846D01*
X144170937Y-86538914D01*
X144180430Y-86542917D01*
X144190518Y-86546853D01*
X144201202Y-86550724D01*
X144212482Y-86554529D01*
X144224358Y-86558267D01*
X144230526Y-86560061D01*
X144236859Y-86561740D01*
X144243358Y-86563303D01*
X144250022Y-86564750D01*
X144263847Y-86567297D01*
X144278333Y-86569380D01*
X144293480Y-86571000D01*
X144309288Y-86572158D01*
X144325758Y-86572852D01*
X144342888Y-86573083D01*
X144351974Y-86572992D01*
X144360713Y-86572719D01*
X144369105Y-86572265D01*
X144377150Y-86571628D01*
X144384848Y-86570810D01*
X144392198Y-86569810D01*
X144399201Y-86568628D01*
X144405857Y-86567264D01*
X144412166Y-86565718D01*
X144418127Y-86563990D01*
X144423742Y-86562081D01*
X144429008Y-86559990D01*
X144433928Y-86557717D01*
X144438500Y-86555262D01*
X144442725Y-86552625D01*
X144446602Y-86549806D01*
X144450190Y-86546701D01*
X144453546Y-86543473D01*
X144456672Y-86540120D01*
X144459565Y-86536644D01*
X144462227Y-86533043D01*
X144464658Y-86529318D01*
X144466858Y-86525470D01*
X144468826Y-86521497D01*
X144470562Y-86517400D01*
X144472067Y-86513179D01*
X144473340Y-86508834D01*
X144474382Y-86504365D01*
X144475193Y-86499772D01*
X144475772Y-86495054D01*
X144476119Y-86490212D01*
X144476235Y-86485246D01*
X144476164Y-86481322D01*
X144475954Y-86477489D01*
X144475602Y-86473747D01*
X144475110Y-86470097D01*
X144474478Y-86466537D01*
X144473705Y-86463069D01*
X144472791Y-86459691D01*
X144471737Y-86456405D01*
X144470542Y-86453210D01*
X144469207Y-86450105D01*
X144467731Y-86447092D01*
X144466115Y-86444170D01*
X144464358Y-86441338D01*
X144462461Y-86438597D01*
X144460423Y-86435948D01*
X144458245Y-86433389D01*
X144456058Y-86430759D01*
X144453732Y-86428162D01*
X144451264Y-86425599D01*
X144448656Y-86423068D01*
X144445907Y-86420570D01*
X144443017Y-86418106D01*
X144439987Y-86415675D01*
X144436816Y-86413277D01*
X144433505Y-86410912D01*
X144430053Y-86408580D01*
X144426460Y-86406282D01*
X144422727Y-86404017D01*
X144418853Y-86401785D01*
X144414838Y-86399586D01*
X144410683Y-86397420D01*
X144406388Y-86395288D01*
X144397375Y-86391039D01*
X144387800Y-86386758D01*
X144377663Y-86382442D01*
X144366964Y-86378093D01*
X144355703Y-86373710D01*
X144343880Y-86369294D01*
X144331496Y-86364844D01*
X144318550Y-86360360D01*
X144305916Y-86355515D01*
X144293415Y-86350504D01*
X144281046Y-86345328D01*
X144268809Y-86339988D01*
X144256704Y-86334482D01*
X144244732Y-86328811D01*
X144232892Y-86322974D01*
X144221184Y-86316972D01*
X144215561Y-86313740D01*
X144210071Y-86310392D01*
X144204713Y-86306928D01*
X144199487Y-86303348D01*
X144194394Y-86299652D01*
X144189433Y-86295841D01*
X144184605Y-86291913D01*
X144179909Y-86287870D01*
X144175345Y-86283710D01*
X144170914Y-86279435D01*
X144166615Y-86275044D01*
X144162448Y-86270538D01*
X144158413Y-86265915D01*
X144154511Y-86261176D01*
X144150741Y-86256322D01*
X144147103Y-86251352D01*
X144143642Y-86246224D01*
X144140405Y-86240898D01*
X144137391Y-86235374D01*
X144134600Y-86229652D01*
X144132032Y-86223732D01*
X144129688Y-86217613D01*
X144127567Y-86211295D01*
X144125669Y-86204780D01*
X144123994Y-86198066D01*
X144122543Y-86191154D01*
X144121314Y-86184043D01*
X144120309Y-86176735D01*
X144119528Y-86169228D01*
X144118969Y-86161522D01*
X144118634Y-86153619D01*
X144118523Y-86145517D01*
X144118647Y-86137256D01*
X144119019Y-86129143D01*
X144119639Y-86121180D01*
X144120507Y-86113366D01*
X144121623Y-86105701D01*
X144122988Y-86098184D01*
X144124600Y-86090817D01*
X144126460Y-86083598D01*
X144128569Y-86076529D01*
X144130925Y-86069608D01*
X144133530Y-86062837D01*
X144136383Y-86056214D01*
X144139484Y-86049740D01*
X144142833Y-86043416D01*
X144146431Y-86037240D01*
X144150276Y-86031213D01*
X144154477Y-86025347D01*
X144158876Y-86019655D01*
X144163473Y-86014137D01*
X144168268Y-86008791D01*
X144173262Y-86003620D01*
X144178454Y-85998622D01*
X144183845Y-85993797D01*
X144189434Y-85989146D01*
X144195222Y-85984669D01*
X144201208Y-85980366D01*
X144207393Y-85976236D01*
X144213776Y-85972280D01*
X144220358Y-85968497D01*
X144227138Y-85964888D01*
X144234117Y-85961453D01*
X144241295Y-85958192D01*
X144248786Y-85954988D01*
X144256443Y-85951991D01*
X144264265Y-85949200D01*
X144272253Y-85946616D01*
X144280405Y-85944239D01*
X144288724Y-85942069D01*
X144297207Y-85940105D01*
X144305856Y-85938348D01*
X144314670Y-85936798D01*
X144323650Y-85935454D01*
X144332794Y-85934317D01*
X144342104Y-85933387D01*
X144351580Y-85932664D01*
X144361220Y-85932147D01*
X144371026Y-85931837D01*
X144380997Y-85931733D01*
X144398443Y-85931982D01*
G37*
G36*
X144002114Y-86070375D02*
G01*
X143667679Y-86070375D01*
X143667679Y-86238649D01*
X143965073Y-86238649D01*
X143965073Y-86358239D01*
X143667679Y-86358239D01*
X143667679Y-86560380D01*
X144027512Y-86560380D01*
X144027512Y-86682092D01*
X143522690Y-86682084D01*
X143522690Y-85948663D01*
X144002114Y-85948663D01*
X144002114Y-86070375D01*
G37*
D11*
X149199776Y-83253648D02*
X147649826Y-83253648D01*
D12*
G36*
X145602067Y-85931837D02*
G01*
X145612159Y-85932147D01*
X145622011Y-85932664D01*
X145631623Y-85933387D01*
X145640995Y-85934317D01*
X145650128Y-85935454D01*
X145659020Y-85936798D01*
X145667673Y-85938348D01*
X145676086Y-85940105D01*
X145684260Y-85942069D01*
X145692193Y-85944239D01*
X145699887Y-85946616D01*
X145707341Y-85949200D01*
X145714555Y-85951991D01*
X145721529Y-85954988D01*
X145728264Y-85958192D01*
X145734900Y-85961574D01*
X145741312Y-85965104D01*
X145747501Y-85968784D01*
X145753467Y-85972612D01*
X145759209Y-85976589D01*
X145764728Y-85980714D01*
X145770023Y-85984989D01*
X145775095Y-85989413D01*
X145779944Y-85993985D01*
X145784569Y-85998706D01*
X145788971Y-86003576D01*
X145793150Y-86008595D01*
X145797105Y-86013763D01*
X145800838Y-86019080D01*
X145804347Y-86024546D01*
X145807633Y-86030160D01*
X145810708Y-86035899D01*
X145813585Y-86041737D01*
X145816263Y-86047673D01*
X145818743Y-86053709D01*
X145821025Y-86059844D01*
X145823109Y-86066079D01*
X145824994Y-86072412D01*
X145826680Y-86078844D01*
X145828169Y-86085376D01*
X145829459Y-86092007D01*
X145830550Y-86098737D01*
X145831443Y-86105566D01*
X145832138Y-86112494D01*
X145832634Y-86119521D01*
X145832932Y-86126648D01*
X145833031Y-86133874D01*
X145832928Y-86139802D01*
X145832617Y-86145680D01*
X145832101Y-86151508D01*
X145831377Y-86157287D01*
X145830447Y-86163017D01*
X145829310Y-86168697D01*
X145827967Y-86174327D01*
X145826416Y-86179908D01*
X145824659Y-86185439D01*
X145822695Y-86190921D01*
X145820525Y-86196353D01*
X145818148Y-86201736D01*
X145815564Y-86207069D01*
X145812773Y-86212353D01*
X145809776Y-86217587D01*
X145806572Y-86222772D01*
X145803199Y-86227726D01*
X145799693Y-86232530D01*
X145796055Y-86237186D01*
X145792284Y-86241692D01*
X145788382Y-86246049D01*
X145784347Y-86250258D01*
X145780179Y-86254317D01*
X145775880Y-86258228D01*
X145771448Y-86261989D01*
X145766884Y-86265602D01*
X145762188Y-86269065D01*
X145757360Y-86272380D01*
X145752400Y-86275546D01*
X145747307Y-86278563D01*
X145742082Y-86281431D01*
X145736725Y-86284150D01*
X145741450Y-86285917D01*
X145746101Y-86287774D01*
X145750677Y-86289722D01*
X145755179Y-86291761D01*
X145759606Y-86293890D01*
X145763959Y-86296111D01*
X145768238Y-86298422D01*
X145772442Y-86300824D01*
X145776572Y-86303317D01*
X145780627Y-86305901D01*
X145784609Y-86308576D01*
X145788515Y-86311342D01*
X145792348Y-86314198D01*
X145796106Y-86317145D01*
X145799789Y-86320183D01*
X145803398Y-86323312D01*
X145807048Y-86326528D01*
X145810591Y-86329826D01*
X145814026Y-86333207D01*
X145817354Y-86336671D01*
X145820575Y-86340218D01*
X145823688Y-86343848D01*
X145826694Y-86347560D01*
X145829592Y-86351355D01*
X145832383Y-86355232D01*
X145835066Y-86359193D01*
X145837642Y-86363236D01*
X145840110Y-86367361D01*
X145842471Y-86371570D01*
X145844724Y-86375861D01*
X145846870Y-86380234D01*
X145848908Y-86384691D01*
X145850830Y-86389234D01*
X145852628Y-86393868D01*
X145854302Y-86398593D01*
X145855853Y-86403409D01*
X145857279Y-86408316D01*
X145858581Y-86413314D01*
X145859760Y-86418403D01*
X145860814Y-86423583D01*
X145861745Y-86428854D01*
X145862551Y-86434217D01*
X145863233Y-86439670D01*
X145863792Y-86445214D01*
X145864226Y-86450849D01*
X145864536Y-86456576D01*
X145864722Y-86462393D01*
X145864784Y-86468301D01*
X145864665Y-86476454D01*
X145864305Y-86484508D01*
X145863705Y-86492462D01*
X145862866Y-86500317D01*
X145861787Y-86508073D01*
X145860468Y-86515730D01*
X145858910Y-86523287D01*
X145857111Y-86530745D01*
X145855073Y-86538103D01*
X145852795Y-86545363D01*
X145850277Y-86552523D01*
X145847520Y-86559583D01*
X145844522Y-86566544D01*
X145841285Y-86573406D01*
X145837808Y-86580168D01*
X145834091Y-86586831D01*
X145830127Y-86593226D01*
X145825906Y-86599448D01*
X145821428Y-86605496D01*
X145816695Y-86611370D01*
X145811705Y-86617071D01*
X145806459Y-86622598D01*
X145800956Y-86627952D01*
X145795198Y-86633132D01*
X145789183Y-86638139D01*
X145782911Y-86642972D01*
X145776383Y-86647631D01*
X145769599Y-86652116D01*
X145762559Y-86656428D01*
X145755262Y-86660566D01*
X145747709Y-86664530D01*
X145739899Y-86668321D01*
X145731949Y-86671909D01*
X145723710Y-86675265D01*
X145715182Y-86678390D01*
X145706364Y-86681284D01*
X145697256Y-86683946D01*
X145687859Y-86686377D01*
X145678173Y-86688576D01*
X145668197Y-86690544D01*
X145657932Y-86692281D01*
X145647377Y-86693786D01*
X145636533Y-86695059D01*
X145625400Y-86696101D01*
X145613977Y-86696911D01*
X145602265Y-86697490D01*
X145590263Y-86697838D01*
X145577973Y-86697953D01*
X145577965Y-86697961D01*
X145567892Y-86697846D01*
X145557787Y-86697499D01*
X145547650Y-86696921D01*
X145537481Y-86696112D01*
X145527278Y-86695071D01*
X145517043Y-86693799D01*
X145506776Y-86692296D01*
X145496475Y-86690561D01*
X145486519Y-86688933D01*
X145476761Y-86687204D01*
X145467203Y-86685373D01*
X145457844Y-86683440D01*
X145448684Y-86681405D01*
X145439722Y-86679267D01*
X145430959Y-86677027D01*
X145422394Y-86674684D01*
X145414440Y-86672325D01*
X145406982Y-86669997D01*
X145400020Y-86667701D01*
X145393554Y-86665437D01*
X145387584Y-86663204D01*
X145382110Y-86661002D01*
X145377132Y-86658832D01*
X145372650Y-86656694D01*
X145400170Y-86541337D01*
X145406536Y-86544033D01*
X145413465Y-86546828D01*
X145420956Y-86549721D01*
X145429010Y-86552714D01*
X145437626Y-86555805D01*
X145446805Y-86558996D01*
X145456546Y-86562286D01*
X145466850Y-86565675D01*
X145472352Y-86567342D01*
X145478011Y-86568902D01*
X145483827Y-86570353D01*
X145489800Y-86571698D01*
X145495931Y-86572934D01*
X145502218Y-86574063D01*
X145508663Y-86575085D01*
X145515265Y-86575999D01*
X145528940Y-86577504D01*
X145543244Y-86578579D01*
X145558177Y-86579224D01*
X145573738Y-86579438D01*
X145586420Y-86579224D01*
X145598540Y-86578579D01*
X145610098Y-86577504D01*
X145621094Y-86575999D01*
X145626381Y-86575085D01*
X145631527Y-86574063D01*
X145636533Y-86572934D01*
X145641399Y-86571698D01*
X145646123Y-86570353D01*
X145650708Y-86568902D01*
X145655151Y-86567342D01*
X145659455Y-86565675D01*
X145663613Y-86563909D01*
X145667623Y-86562052D01*
X145671484Y-86560104D01*
X145675196Y-86558065D01*
X145678759Y-86555935D01*
X145682174Y-86553715D01*
X145685440Y-86551403D01*
X145688557Y-86549001D01*
X145691525Y-86546508D01*
X145694345Y-86543924D01*
X145697015Y-86541249D01*
X145699537Y-86538484D01*
X145701911Y-86535627D01*
X145704135Y-86532680D01*
X145706211Y-86529642D01*
X145708138Y-86526513D01*
X145710060Y-86523177D01*
X145711858Y-86519783D01*
X145713532Y-86516331D01*
X145715082Y-86512820D01*
X145716507Y-86509252D01*
X145717809Y-86505626D01*
X145718987Y-86501943D01*
X145720041Y-86498201D01*
X145720970Y-86494401D01*
X145721776Y-86490543D01*
X145722458Y-86486627D01*
X145723015Y-86482654D01*
X145723449Y-86478622D01*
X145723759Y-86474533D01*
X145723945Y-86470385D01*
X145724007Y-86466180D01*
X145723916Y-86460703D01*
X145723643Y-86455382D01*
X145723188Y-86450219D01*
X145722552Y-86445213D01*
X145721734Y-86440364D01*
X145720733Y-86435672D01*
X145719551Y-86431138D01*
X145718188Y-86426760D01*
X145716642Y-86422539D01*
X145714914Y-86418476D01*
X145713005Y-86414570D01*
X145710913Y-86410820D01*
X145708640Y-86407228D01*
X145706185Y-86403793D01*
X145703548Y-86400515D01*
X145700730Y-86397393D01*
X145697758Y-86394277D01*
X145694662Y-86391276D01*
X145691442Y-86388391D01*
X145688098Y-86385622D01*
X145684630Y-86382968D01*
X145681038Y-86380430D01*
X145677322Y-86378008D01*
X145673481Y-86375701D01*
X145669517Y-86373510D01*
X145665428Y-86371435D01*
X145661215Y-86369476D01*
X145656879Y-86367632D01*
X145652418Y-86365904D01*
X145647833Y-86364291D01*
X145643124Y-86362794D01*
X145638291Y-86361413D01*
X145628617Y-86358932D01*
X145618647Y-86356783D01*
X145608379Y-86354964D01*
X145597813Y-86353476D01*
X145586950Y-86352319D01*
X145575789Y-86351492D01*
X145564330Y-86350997D01*
X145552574Y-86350831D01*
X145502831Y-86350831D01*
X145502831Y-86239709D01*
X145563164Y-86239709D01*
X145571317Y-86239576D01*
X145579370Y-86239178D01*
X145587324Y-86238515D01*
X145595179Y-86237585D01*
X145602934Y-86236390D01*
X145610590Y-86234929D01*
X145618146Y-86233203D01*
X145625603Y-86231210D01*
X145629394Y-86229977D01*
X145633094Y-86228653D01*
X145636703Y-86227237D01*
X145640221Y-86225730D01*
X145643649Y-86224131D01*
X145646985Y-86222441D01*
X145650230Y-86220660D01*
X145653384Y-86218787D01*
X145656448Y-86216823D01*
X145659420Y-86214768D01*
X145662302Y-86212621D01*
X145665093Y-86210383D01*
X145667792Y-86208054D01*
X145670401Y-86205633D01*
X145672919Y-86203121D01*
X145675347Y-86200517D01*
X145677654Y-86197674D01*
X145679812Y-86194699D01*
X145681822Y-86191591D01*
X145683682Y-86188351D01*
X145685394Y-86184978D01*
X145686957Y-86181473D01*
X145688370Y-86177835D01*
X145689635Y-86174065D01*
X145690752Y-86170162D01*
X145691719Y-86166128D01*
X145692537Y-86161960D01*
X145693207Y-86157661D01*
X145693728Y-86153229D01*
X145694100Y-86148664D01*
X145694323Y-86143968D01*
X145694397Y-86139138D01*
X145694335Y-86135219D01*
X145694149Y-86131398D01*
X145693839Y-86127677D01*
X145693406Y-86124055D01*
X145692848Y-86120533D01*
X145692166Y-86117110D01*
X145691361Y-86113786D01*
X145690431Y-86110562D01*
X145689377Y-86107437D01*
X145688199Y-86104411D01*
X145686898Y-86101485D01*
X145685472Y-86098657D01*
X145683922Y-86095930D01*
X145682248Y-86093301D01*
X145680450Y-86090772D01*
X145678528Y-86088342D01*
X145676638Y-86085870D01*
X145674674Y-86083480D01*
X145672636Y-86081174D01*
X145670523Y-86078949D01*
X145668336Y-86076808D01*
X145666074Y-86074749D01*
X145663738Y-86072773D01*
X145661328Y-86070879D01*
X145658843Y-86069068D01*
X145656284Y-86067340D01*
X145653650Y-86065695D01*
X145650942Y-86064132D01*
X145648160Y-86062652D01*
X145645303Y-86061255D01*
X145642372Y-86059941D01*
X145639366Y-86058709D01*
X145636311Y-86057559D01*
X145633232Y-86056483D01*
X145630127Y-86055481D01*
X145626998Y-86054554D01*
X145623844Y-86053700D01*
X145620665Y-86052921D01*
X145617462Y-86052216D01*
X145614233Y-86051585D01*
X145610980Y-86051029D01*
X145607702Y-86050547D01*
X145604399Y-86050138D01*
X145601071Y-86049804D01*
X145597718Y-86049545D01*
X145594340Y-86049359D01*
X145590937Y-86049248D01*
X145587509Y-86049211D01*
X145575767Y-86049442D01*
X145570020Y-86049731D01*
X145564356Y-86050136D01*
X145558775Y-86050657D01*
X145553276Y-86051294D01*
X145547861Y-86052046D01*
X145542527Y-86052914D01*
X145537277Y-86053898D01*
X145532109Y-86054997D01*
X145527024Y-86056213D01*
X145522022Y-86057544D01*
X145517102Y-86058991D01*
X145512265Y-86060554D01*
X145507510Y-86062233D01*
X145502838Y-86064027D01*
X145493693Y-86067551D01*
X145484780Y-86071240D01*
X145476098Y-86075093D01*
X145467648Y-86079111D01*
X145459429Y-86083294D01*
X145451443Y-86087642D01*
X145443688Y-86092155D01*
X145436165Y-86096833D01*
X145386421Y-85995233D01*
X145394442Y-85990190D01*
X145403157Y-85985113D01*
X145412566Y-85980004D01*
X145422671Y-85974862D01*
X145433469Y-85969687D01*
X145444962Y-85964480D01*
X145457150Y-85959239D01*
X145470032Y-85953965D01*
X145476832Y-85951273D01*
X145483739Y-85948754D01*
X145490754Y-85946409D01*
X145497877Y-85944238D01*
X145505107Y-85942240D01*
X145512444Y-85940417D01*
X145519890Y-85938767D01*
X145527442Y-85937290D01*
X145535102Y-85935988D01*
X145542870Y-85934859D01*
X145550745Y-85933904D01*
X145558728Y-85933123D01*
X145566819Y-85932515D01*
X145575017Y-85932081D01*
X145583323Y-85931820D01*
X145591736Y-85931733D01*
X145602067Y-85931837D01*
G37*
G36*
X152120343Y-85958701D02*
G01*
X152126096Y-85969235D01*
X152138001Y-85991791D01*
X152150438Y-86016331D01*
X152163407Y-86042856D01*
X152176768Y-86070901D01*
X152190393Y-86100003D01*
X152204282Y-86130165D01*
X152218437Y-86161386D01*
X152233187Y-86193203D01*
X152247807Y-86225152D01*
X152262295Y-86257233D01*
X152276650Y-86289445D01*
X152303903Y-86351621D01*
X152328507Y-86409036D01*
X152353640Y-86351621D01*
X152380364Y-86289445D01*
X152408940Y-86225152D01*
X152437515Y-86161386D01*
X152466354Y-86100003D01*
X152493607Y-86042856D01*
X152506971Y-86016331D01*
X152519539Y-85991791D01*
X152531312Y-85969235D01*
X152542290Y-85948663D01*
X152672463Y-85948663D01*
X152677623Y-85986695D01*
X152682517Y-86026712D01*
X152687147Y-86068714D01*
X152691513Y-86112703D01*
X152695628Y-86158146D01*
X152699468Y-86204514D01*
X152703035Y-86251807D01*
X152706330Y-86300027D01*
X152709900Y-86348710D01*
X152713207Y-86397393D01*
X152716252Y-86446077D01*
X152719032Y-86494760D01*
X152724830Y-86590273D01*
X152729614Y-86682084D01*
X152588860Y-86682084D01*
X152585411Y-86599536D01*
X152581459Y-86514871D01*
X152579730Y-86471880D01*
X152577736Y-86428622D01*
X152575479Y-86385096D01*
X152572960Y-86341302D01*
X152570657Y-86297118D01*
X152567949Y-86253462D01*
X152564835Y-86210334D01*
X152561318Y-86167733D01*
X152546233Y-86202131D01*
X152528511Y-86241815D01*
X152508667Y-86285733D01*
X152487244Y-86332834D01*
X152444916Y-86428087D01*
X152406815Y-86515924D01*
X152390411Y-86554020D01*
X152383399Y-86570689D01*
X152377182Y-86585771D01*
X152273468Y-86585771D01*
X152259443Y-86554020D01*
X152242775Y-86515924D01*
X152234046Y-86494958D01*
X152224786Y-86473330D01*
X152214995Y-86451039D01*
X152204674Y-86428087D01*
X152162346Y-86332834D01*
X152141706Y-86285736D01*
X152122124Y-86241815D01*
X152104396Y-86202131D01*
X152089318Y-86167733D01*
X152085747Y-86210334D01*
X152082440Y-86253462D01*
X152079395Y-86297118D01*
X152076615Y-86341302D01*
X152074096Y-86385088D01*
X152071839Y-86428613D01*
X152069845Y-86471874D01*
X152068115Y-86514871D01*
X152061714Y-86682084D01*
X151921066Y-86682084D01*
X151925541Y-86590273D01*
X151930565Y-86494760D01*
X151943268Y-86300027D01*
X151950937Y-86204514D01*
X151959145Y-86112703D01*
X151963524Y-86068714D01*
X151968158Y-86026712D01*
X151973048Y-85986695D01*
X151978195Y-85948663D01*
X152114723Y-85948663D01*
X152120343Y-85958701D01*
G37*
D13*
X154579761Y-108273338D02*
X154263094Y-107820957D01*
X154036904Y-108273338D02*
X154036904Y-107323338D01*
X154036904Y-107323338D02*
X154398809Y-107323338D01*
X154398809Y-107323338D02*
X154489285Y-107368576D01*
X154489285Y-107368576D02*
X154534523Y-107413814D01*
X154534523Y-107413814D02*
X154579761Y-107504290D01*
X154579761Y-107504290D02*
X154579761Y-107640004D01*
X154579761Y-107640004D02*
X154534523Y-107730480D01*
X154534523Y-107730480D02*
X154489285Y-107775719D01*
X154489285Y-107775719D02*
X154398809Y-107820957D01*
X154398809Y-107820957D02*
X154036904Y-107820957D01*
X154941666Y-108228100D02*
X155077380Y-108273338D01*
X155077380Y-108273338D02*
X155303571Y-108273338D01*
X155303571Y-108273338D02*
X155394047Y-108228100D01*
X155394047Y-108228100D02*
X155439285Y-108182861D01*
X155439285Y-108182861D02*
X155484523Y-108092385D01*
X155484523Y-108092385D02*
X155484523Y-108001909D01*
X155484523Y-108001909D02*
X155439285Y-107911433D01*
X155439285Y-107911433D02*
X155394047Y-107866195D01*
X155394047Y-107866195D02*
X155303571Y-107820957D01*
X155303571Y-107820957D02*
X155122618Y-107775719D01*
X155122618Y-107775719D02*
X155032142Y-107730480D01*
X155032142Y-107730480D02*
X154986904Y-107685242D01*
X154986904Y-107685242D02*
X154941666Y-107594766D01*
X154941666Y-107594766D02*
X154941666Y-107504290D01*
X154941666Y-107504290D02*
X154986904Y-107413814D01*
X154986904Y-107413814D02*
X155032142Y-107368576D01*
X155032142Y-107368576D02*
X155122618Y-107323338D01*
X155122618Y-107323338D02*
X155348809Y-107323338D01*
X155348809Y-107323338D02*
X155484523Y-107368576D01*
X155755952Y-107323338D02*
X156298809Y-107323338D01*
X156027380Y-108273338D02*
X156027380Y-107323338D01*
X139710714Y-107775719D02*
X139846428Y-107820957D01*
X139846428Y-107820957D02*
X139891666Y-107866195D01*
X139891666Y-107866195D02*
X139936904Y-107956671D01*
X139936904Y-107956671D02*
X139936904Y-108092385D01*
X139936904Y-108092385D02*
X139891666Y-108182861D01*
X139891666Y-108182861D02*
X139846428Y-108228100D01*
X139846428Y-108228100D02*
X139755952Y-108273338D01*
X139755952Y-108273338D02*
X139394047Y-108273338D01*
X139394047Y-108273338D02*
X139394047Y-107323338D01*
X139394047Y-107323338D02*
X139710714Y-107323338D01*
X139710714Y-107323338D02*
X139801190Y-107368576D01*
X139801190Y-107368576D02*
X139846428Y-107413814D01*
X139846428Y-107413814D02*
X139891666Y-107504290D01*
X139891666Y-107504290D02*
X139891666Y-107594766D01*
X139891666Y-107594766D02*
X139846428Y-107685242D01*
X139846428Y-107685242D02*
X139801190Y-107730480D01*
X139801190Y-107730480D02*
X139710714Y-107775719D01*
X139710714Y-107775719D02*
X139394047Y-107775719D01*
X140524999Y-107323338D02*
X140705952Y-107323338D01*
X140705952Y-107323338D02*
X140796428Y-107368576D01*
X140796428Y-107368576D02*
X140886904Y-107459052D01*
X140886904Y-107459052D02*
X140932142Y-107640004D01*
X140932142Y-107640004D02*
X140932142Y-107956671D01*
X140932142Y-107956671D02*
X140886904Y-108137623D01*
X140886904Y-108137623D02*
X140796428Y-108228100D01*
X140796428Y-108228100D02*
X140705952Y-108273338D01*
X140705952Y-108273338D02*
X140524999Y-108273338D01*
X140524999Y-108273338D02*
X140434523Y-108228100D01*
X140434523Y-108228100D02*
X140344047Y-108137623D01*
X140344047Y-108137623D02*
X140298809Y-107956671D01*
X140298809Y-107956671D02*
X140298809Y-107640004D01*
X140298809Y-107640004D02*
X140344047Y-107459052D01*
X140344047Y-107459052D02*
X140434523Y-107368576D01*
X140434523Y-107368576D02*
X140524999Y-107323338D01*
X141520237Y-107323338D02*
X141701190Y-107323338D01*
X141701190Y-107323338D02*
X141791666Y-107368576D01*
X141791666Y-107368576D02*
X141882142Y-107459052D01*
X141882142Y-107459052D02*
X141927380Y-107640004D01*
X141927380Y-107640004D02*
X141927380Y-107956671D01*
X141927380Y-107956671D02*
X141882142Y-108137623D01*
X141882142Y-108137623D02*
X141791666Y-108228100D01*
X141791666Y-108228100D02*
X141701190Y-108273338D01*
X141701190Y-108273338D02*
X141520237Y-108273338D01*
X141520237Y-108273338D02*
X141429761Y-108228100D01*
X141429761Y-108228100D02*
X141339285Y-108137623D01*
X141339285Y-108137623D02*
X141294047Y-107956671D01*
X141294047Y-107956671D02*
X141294047Y-107640004D01*
X141294047Y-107640004D02*
X141339285Y-107459052D01*
X141339285Y-107459052D02*
X141429761Y-107368576D01*
X141429761Y-107368576D02*
X141520237Y-107323338D01*
X142198809Y-107323338D02*
X142741666Y-107323338D01*
X142470237Y-108273338D02*
X142470237Y-107323338D01*
X136067292Y-94961300D02*
X136655387Y-94961300D01*
X136655387Y-94961300D02*
X136338720Y-95323204D01*
X136338720Y-95323204D02*
X136474435Y-95323204D01*
X136474435Y-95323204D02*
X136564911Y-95368442D01*
X136564911Y-95368442D02*
X136610149Y-95413681D01*
X136610149Y-95413681D02*
X136655387Y-95504157D01*
X136655387Y-95504157D02*
X136655387Y-95730347D01*
X136655387Y-95730347D02*
X136610149Y-95820823D01*
X136610149Y-95820823D02*
X136564911Y-95866062D01*
X136564911Y-95866062D02*
X136474435Y-95911300D01*
X136474435Y-95911300D02*
X136203006Y-95911300D01*
X136203006Y-95911300D02*
X136112530Y-95866062D01*
X136112530Y-95866062D02*
X136067292Y-95820823D01*
X137062530Y-95820823D02*
X137107768Y-95866062D01*
X137107768Y-95866062D02*
X137062530Y-95911300D01*
X137062530Y-95911300D02*
X137017292Y-95866062D01*
X137017292Y-95866062D02*
X137062530Y-95820823D01*
X137062530Y-95820823D02*
X137062530Y-95911300D01*
X137424435Y-94961300D02*
X138012530Y-94961300D01*
X138012530Y-94961300D02*
X137695863Y-95323204D01*
X137695863Y-95323204D02*
X137831578Y-95323204D01*
X137831578Y-95323204D02*
X137922054Y-95368442D01*
X137922054Y-95368442D02*
X137967292Y-95413681D01*
X137967292Y-95413681D02*
X138012530Y-95504157D01*
X138012530Y-95504157D02*
X138012530Y-95730347D01*
X138012530Y-95730347D02*
X137967292Y-95820823D01*
X137967292Y-95820823D02*
X137922054Y-95866062D01*
X137922054Y-95866062D02*
X137831578Y-95911300D01*
X137831578Y-95911300D02*
X137560149Y-95911300D01*
X137560149Y-95911300D02*
X137469673Y-95866062D01*
X137469673Y-95866062D02*
X137424435Y-95820823D01*
X138283959Y-94961300D02*
X138600625Y-95911300D01*
X138600625Y-95911300D02*
X138917292Y-94961300D01*
X136157768Y-96943128D02*
X136474435Y-96943128D01*
X136610149Y-97440747D02*
X136157768Y-97440747D01*
X136157768Y-97440747D02*
X136157768Y-96490747D01*
X136157768Y-96490747D02*
X136610149Y-96490747D01*
X137017292Y-97440747D02*
X137017292Y-96490747D01*
X137017292Y-96490747D02*
X137560149Y-97440747D01*
X137560149Y-97440747D02*
X137560149Y-96490747D01*
X136157768Y-98970194D02*
X136157768Y-98020194D01*
X136791101Y-98020194D02*
X136972054Y-98020194D01*
X136972054Y-98020194D02*
X137062530Y-98065432D01*
X137062530Y-98065432D02*
X137153006Y-98155908D01*
X137153006Y-98155908D02*
X137198244Y-98336860D01*
X137198244Y-98336860D02*
X137198244Y-98653527D01*
X137198244Y-98653527D02*
X137153006Y-98834479D01*
X137153006Y-98834479D02*
X137062530Y-98924956D01*
X137062530Y-98924956D02*
X136972054Y-98970194D01*
X136972054Y-98970194D02*
X136791101Y-98970194D01*
X136791101Y-98970194D02*
X136700625Y-98924956D01*
X136700625Y-98924956D02*
X136610149Y-98834479D01*
X136610149Y-98834479D02*
X136564911Y-98653527D01*
X136564911Y-98653527D02*
X136564911Y-98336860D01*
X136564911Y-98336860D02*
X136610149Y-98155908D01*
X136610149Y-98155908D02*
X136700625Y-98065432D01*
X136700625Y-98065432D02*
X136791101Y-98020194D01*
X138012530Y-98336860D02*
X138012530Y-98970194D01*
X137786339Y-97974956D02*
X137560149Y-98653527D01*
X137560149Y-98653527D02*
X138148244Y-98653527D01*
X136157768Y-100499641D02*
X136157768Y-99549641D01*
X136791101Y-99549641D02*
X136972054Y-99549641D01*
X136972054Y-99549641D02*
X137062530Y-99594879D01*
X137062530Y-99594879D02*
X137153006Y-99685355D01*
X137153006Y-99685355D02*
X137198244Y-99866307D01*
X137198244Y-99866307D02*
X137198244Y-100182974D01*
X137198244Y-100182974D02*
X137153006Y-100363926D01*
X137153006Y-100363926D02*
X137062530Y-100454403D01*
X137062530Y-100454403D02*
X136972054Y-100499641D01*
X136972054Y-100499641D02*
X136791101Y-100499641D01*
X136791101Y-100499641D02*
X136700625Y-100454403D01*
X136700625Y-100454403D02*
X136610149Y-100363926D01*
X136610149Y-100363926D02*
X136564911Y-100182974D01*
X136564911Y-100182974D02*
X136564911Y-99866307D01*
X136564911Y-99866307D02*
X136610149Y-99685355D01*
X136610149Y-99685355D02*
X136700625Y-99594879D01*
X136700625Y-99594879D02*
X136791101Y-99549641D01*
X138057768Y-99549641D02*
X137605387Y-99549641D01*
X137605387Y-99549641D02*
X137560149Y-100002022D01*
X137560149Y-100002022D02*
X137605387Y-99956783D01*
X137605387Y-99956783D02*
X137695863Y-99911545D01*
X137695863Y-99911545D02*
X137922054Y-99911545D01*
X137922054Y-99911545D02*
X138012530Y-99956783D01*
X138012530Y-99956783D02*
X138057768Y-100002022D01*
X138057768Y-100002022D02*
X138103006Y-100092498D01*
X138103006Y-100092498D02*
X138103006Y-100318688D01*
X138103006Y-100318688D02*
X138057768Y-100409164D01*
X138057768Y-100409164D02*
X138012530Y-100454403D01*
X138012530Y-100454403D02*
X137922054Y-100499641D01*
X137922054Y-100499641D02*
X137695863Y-100499641D01*
X137695863Y-100499641D02*
X137605387Y-100454403D01*
X137605387Y-100454403D02*
X137560149Y-100409164D01*
X136157768Y-102029088D02*
X136157768Y-101079088D01*
X136791101Y-101079088D02*
X136972054Y-101079088D01*
X136972054Y-101079088D02*
X137062530Y-101124326D01*
X137062530Y-101124326D02*
X137153006Y-101214802D01*
X137153006Y-101214802D02*
X137198244Y-101395754D01*
X137198244Y-101395754D02*
X137198244Y-101712421D01*
X137198244Y-101712421D02*
X137153006Y-101893373D01*
X137153006Y-101893373D02*
X137062530Y-101983850D01*
X137062530Y-101983850D02*
X136972054Y-102029088D01*
X136972054Y-102029088D02*
X136791101Y-102029088D01*
X136791101Y-102029088D02*
X136700625Y-101983850D01*
X136700625Y-101983850D02*
X136610149Y-101893373D01*
X136610149Y-101893373D02*
X136564911Y-101712421D01*
X136564911Y-101712421D02*
X136564911Y-101395754D01*
X136564911Y-101395754D02*
X136610149Y-101214802D01*
X136610149Y-101214802D02*
X136700625Y-101124326D01*
X136700625Y-101124326D02*
X136791101Y-101079088D01*
X138012530Y-101079088D02*
X137831577Y-101079088D01*
X137831577Y-101079088D02*
X137741101Y-101124326D01*
X137741101Y-101124326D02*
X137695863Y-101169564D01*
X137695863Y-101169564D02*
X137605387Y-101305278D01*
X137605387Y-101305278D02*
X137560149Y-101486230D01*
X137560149Y-101486230D02*
X137560149Y-101848135D01*
X137560149Y-101848135D02*
X137605387Y-101938611D01*
X137605387Y-101938611D02*
X137650625Y-101983850D01*
X137650625Y-101983850D02*
X137741101Y-102029088D01*
X137741101Y-102029088D02*
X137922054Y-102029088D01*
X137922054Y-102029088D02*
X138012530Y-101983850D01*
X138012530Y-101983850D02*
X138057768Y-101938611D01*
X138057768Y-101938611D02*
X138103006Y-101848135D01*
X138103006Y-101848135D02*
X138103006Y-101621945D01*
X138103006Y-101621945D02*
X138057768Y-101531469D01*
X138057768Y-101531469D02*
X138012530Y-101486230D01*
X138012530Y-101486230D02*
X137922054Y-101440992D01*
X137922054Y-101440992D02*
X137741101Y-101440992D01*
X137741101Y-101440992D02*
X137650625Y-101486230D01*
X137650625Y-101486230D02*
X137605387Y-101531469D01*
X137605387Y-101531469D02*
X137560149Y-101621945D01*
X136157768Y-103558535D02*
X136157768Y-102608535D01*
X136791101Y-102608535D02*
X136972054Y-102608535D01*
X136972054Y-102608535D02*
X137062530Y-102653773D01*
X137062530Y-102653773D02*
X137153006Y-102744249D01*
X137153006Y-102744249D02*
X137198244Y-102925201D01*
X137198244Y-102925201D02*
X137198244Y-103241868D01*
X137198244Y-103241868D02*
X137153006Y-103422820D01*
X137153006Y-103422820D02*
X137062530Y-103513297D01*
X137062530Y-103513297D02*
X136972054Y-103558535D01*
X136972054Y-103558535D02*
X136791101Y-103558535D01*
X136791101Y-103558535D02*
X136700625Y-103513297D01*
X136700625Y-103513297D02*
X136610149Y-103422820D01*
X136610149Y-103422820D02*
X136564911Y-103241868D01*
X136564911Y-103241868D02*
X136564911Y-102925201D01*
X136564911Y-102925201D02*
X136610149Y-102744249D01*
X136610149Y-102744249D02*
X136700625Y-102653773D01*
X136700625Y-102653773D02*
X136791101Y-102608535D01*
X137514911Y-102608535D02*
X138148244Y-102608535D01*
X138148244Y-102608535D02*
X137741101Y-103558535D01*
X136157768Y-105087982D02*
X136157768Y-104137982D01*
X136791101Y-104137982D02*
X136972054Y-104137982D01*
X136972054Y-104137982D02*
X137062530Y-104183220D01*
X137062530Y-104183220D02*
X137153006Y-104273696D01*
X137153006Y-104273696D02*
X137198244Y-104454648D01*
X137198244Y-104454648D02*
X137198244Y-104771315D01*
X137198244Y-104771315D02*
X137153006Y-104952267D01*
X137153006Y-104952267D02*
X137062530Y-105042744D01*
X137062530Y-105042744D02*
X136972054Y-105087982D01*
X136972054Y-105087982D02*
X136791101Y-105087982D01*
X136791101Y-105087982D02*
X136700625Y-105042744D01*
X136700625Y-105042744D02*
X136610149Y-104952267D01*
X136610149Y-104952267D02*
X136564911Y-104771315D01*
X136564911Y-104771315D02*
X136564911Y-104454648D01*
X136564911Y-104454648D02*
X136610149Y-104273696D01*
X136610149Y-104273696D02*
X136700625Y-104183220D01*
X136700625Y-104183220D02*
X136791101Y-104137982D01*
X137741101Y-104545124D02*
X137650625Y-104499886D01*
X137650625Y-104499886D02*
X137605387Y-104454648D01*
X137605387Y-104454648D02*
X137560149Y-104364172D01*
X137560149Y-104364172D02*
X137560149Y-104318934D01*
X137560149Y-104318934D02*
X137605387Y-104228458D01*
X137605387Y-104228458D02*
X137650625Y-104183220D01*
X137650625Y-104183220D02*
X137741101Y-104137982D01*
X137741101Y-104137982D02*
X137922054Y-104137982D01*
X137922054Y-104137982D02*
X138012530Y-104183220D01*
X138012530Y-104183220D02*
X138057768Y-104228458D01*
X138057768Y-104228458D02*
X138103006Y-104318934D01*
X138103006Y-104318934D02*
X138103006Y-104364172D01*
X138103006Y-104364172D02*
X138057768Y-104454648D01*
X138057768Y-104454648D02*
X138012530Y-104499886D01*
X138012530Y-104499886D02*
X137922054Y-104545124D01*
X137922054Y-104545124D02*
X137741101Y-104545124D01*
X137741101Y-104545124D02*
X137650625Y-104590363D01*
X137650625Y-104590363D02*
X137605387Y-104635601D01*
X137605387Y-104635601D02*
X137560149Y-104726077D01*
X137560149Y-104726077D02*
X137560149Y-104907029D01*
X137560149Y-104907029D02*
X137605387Y-104997505D01*
X137605387Y-104997505D02*
X137650625Y-105042744D01*
X137650625Y-105042744D02*
X137741101Y-105087982D01*
X137741101Y-105087982D02*
X137922054Y-105087982D01*
X137922054Y-105087982D02*
X138012530Y-105042744D01*
X138012530Y-105042744D02*
X138057768Y-104997505D01*
X138057768Y-104997505D02*
X138103006Y-104907029D01*
X138103006Y-104907029D02*
X138103006Y-104726077D01*
X138103006Y-104726077D02*
X138057768Y-104635601D01*
X138057768Y-104635601D02*
X138012530Y-104590363D01*
X138012530Y-104590363D02*
X137922054Y-104545124D01*
X136157768Y-106617429D02*
X136157768Y-105667429D01*
X136791101Y-105667429D02*
X136972054Y-105667429D01*
X136972054Y-105667429D02*
X137062530Y-105712667D01*
X137062530Y-105712667D02*
X137153006Y-105803143D01*
X137153006Y-105803143D02*
X137198244Y-105984095D01*
X137198244Y-105984095D02*
X137198244Y-106300762D01*
X137198244Y-106300762D02*
X137153006Y-106481714D01*
X137153006Y-106481714D02*
X137062530Y-106572191D01*
X137062530Y-106572191D02*
X136972054Y-106617429D01*
X136972054Y-106617429D02*
X136791101Y-106617429D01*
X136791101Y-106617429D02*
X136700625Y-106572191D01*
X136700625Y-106572191D02*
X136610149Y-106481714D01*
X136610149Y-106481714D02*
X136564911Y-106300762D01*
X136564911Y-106300762D02*
X136564911Y-105984095D01*
X136564911Y-105984095D02*
X136610149Y-105803143D01*
X136610149Y-105803143D02*
X136700625Y-105712667D01*
X136700625Y-105712667D02*
X136791101Y-105667429D01*
X137650625Y-106617429D02*
X137831577Y-106617429D01*
X137831577Y-106617429D02*
X137922054Y-106572191D01*
X137922054Y-106572191D02*
X137967292Y-106526952D01*
X137967292Y-106526952D02*
X138057768Y-106391238D01*
X138057768Y-106391238D02*
X138103006Y-106210286D01*
X138103006Y-106210286D02*
X138103006Y-105848381D01*
X138103006Y-105848381D02*
X138057768Y-105757905D01*
X138057768Y-105757905D02*
X138012530Y-105712667D01*
X138012530Y-105712667D02*
X137922054Y-105667429D01*
X137922054Y-105667429D02*
X137741101Y-105667429D01*
X137741101Y-105667429D02*
X137650625Y-105712667D01*
X137650625Y-105712667D02*
X137605387Y-105757905D01*
X137605387Y-105757905D02*
X137560149Y-105848381D01*
X137560149Y-105848381D02*
X137560149Y-106074571D01*
X137560149Y-106074571D02*
X137605387Y-106165048D01*
X137605387Y-106165048D02*
X137650625Y-106210286D01*
X137650625Y-106210286D02*
X137741101Y-106255524D01*
X137741101Y-106255524D02*
X137922054Y-106255524D01*
X137922054Y-106255524D02*
X138012530Y-106210286D01*
X138012530Y-106210286D02*
X138057768Y-106165048D01*
X138057768Y-106165048D02*
X138103006Y-106074571D01*
X136655387Y-107242114D02*
X136564911Y-107196876D01*
X136564911Y-107196876D02*
X136429197Y-107196876D01*
X136429197Y-107196876D02*
X136293482Y-107242114D01*
X136293482Y-107242114D02*
X136203006Y-107332590D01*
X136203006Y-107332590D02*
X136157768Y-107423066D01*
X136157768Y-107423066D02*
X136112530Y-107604018D01*
X136112530Y-107604018D02*
X136112530Y-107739733D01*
X136112530Y-107739733D02*
X136157768Y-107920685D01*
X136157768Y-107920685D02*
X136203006Y-108011161D01*
X136203006Y-108011161D02*
X136293482Y-108101638D01*
X136293482Y-108101638D02*
X136429197Y-108146876D01*
X136429197Y-108146876D02*
X136519673Y-108146876D01*
X136519673Y-108146876D02*
X136655387Y-108101638D01*
X136655387Y-108101638D02*
X136700625Y-108056399D01*
X136700625Y-108056399D02*
X136700625Y-107739733D01*
X136700625Y-107739733D02*
X136519673Y-107739733D01*
X137107768Y-108146876D02*
X137107768Y-107196876D01*
X137107768Y-107196876D02*
X137650625Y-108146876D01*
X137650625Y-108146876D02*
X137650625Y-107196876D01*
X138103006Y-108146876D02*
X138103006Y-107196876D01*
X138103006Y-107196876D02*
X138329196Y-107196876D01*
X138329196Y-107196876D02*
X138464911Y-107242114D01*
X138464911Y-107242114D02*
X138555387Y-107332590D01*
X138555387Y-107332590D02*
X138600625Y-107423066D01*
X138600625Y-107423066D02*
X138645863Y-107604018D01*
X138645863Y-107604018D02*
X138645863Y-107739733D01*
X138645863Y-107739733D02*
X138600625Y-107920685D01*
X138600625Y-107920685D02*
X138555387Y-108011161D01*
X138555387Y-108011161D02*
X138464911Y-108101638D01*
X138464911Y-108101638D02*
X138329196Y-108146876D01*
X138329196Y-108146876D02*
X138103006Y-108146876D01*
X158042231Y-95636300D02*
X158042231Y-94686300D01*
X158675564Y-94686300D02*
X158856517Y-94686300D01*
X158856517Y-94686300D02*
X158946993Y-94731538D01*
X158946993Y-94731538D02*
X159037469Y-94822014D01*
X159037469Y-94822014D02*
X159082707Y-95002966D01*
X159082707Y-95002966D02*
X159082707Y-95319633D01*
X159082707Y-95319633D02*
X159037469Y-95500585D01*
X159037469Y-95500585D02*
X158946993Y-95591062D01*
X158946993Y-95591062D02*
X158856517Y-95636300D01*
X158856517Y-95636300D02*
X158675564Y-95636300D01*
X158675564Y-95636300D02*
X158585088Y-95591062D01*
X158585088Y-95591062D02*
X158494612Y-95500585D01*
X158494612Y-95500585D02*
X158449374Y-95319633D01*
X158449374Y-95319633D02*
X158449374Y-95002966D01*
X158449374Y-95002966D02*
X158494612Y-94822014D01*
X158494612Y-94822014D02*
X158585088Y-94731538D01*
X158585088Y-94731538D02*
X158675564Y-94686300D01*
X159670802Y-94686300D02*
X159761279Y-94686300D01*
X159761279Y-94686300D02*
X159851755Y-94731538D01*
X159851755Y-94731538D02*
X159896993Y-94776776D01*
X159896993Y-94776776D02*
X159942231Y-94867252D01*
X159942231Y-94867252D02*
X159987469Y-95048204D01*
X159987469Y-95048204D02*
X159987469Y-95274395D01*
X159987469Y-95274395D02*
X159942231Y-95455347D01*
X159942231Y-95455347D02*
X159896993Y-95545823D01*
X159896993Y-95545823D02*
X159851755Y-95591062D01*
X159851755Y-95591062D02*
X159761279Y-95636300D01*
X159761279Y-95636300D02*
X159670802Y-95636300D01*
X159670802Y-95636300D02*
X159580326Y-95591062D01*
X159580326Y-95591062D02*
X159535088Y-95545823D01*
X159535088Y-95545823D02*
X159489850Y-95455347D01*
X159489850Y-95455347D02*
X159444612Y-95274395D01*
X159444612Y-95274395D02*
X159444612Y-95048204D01*
X159444612Y-95048204D02*
X159489850Y-94867252D01*
X159489850Y-94867252D02*
X159535088Y-94776776D01*
X159535088Y-94776776D02*
X159580326Y-94731538D01*
X159580326Y-94731538D02*
X159670802Y-94686300D01*
X158042231Y-97165747D02*
X158042231Y-96215747D01*
X158675564Y-96215747D02*
X158856517Y-96215747D01*
X158856517Y-96215747D02*
X158946993Y-96260985D01*
X158946993Y-96260985D02*
X159037469Y-96351461D01*
X159037469Y-96351461D02*
X159082707Y-96532413D01*
X159082707Y-96532413D02*
X159082707Y-96849080D01*
X159082707Y-96849080D02*
X159037469Y-97030032D01*
X159037469Y-97030032D02*
X158946993Y-97120509D01*
X158946993Y-97120509D02*
X158856517Y-97165747D01*
X158856517Y-97165747D02*
X158675564Y-97165747D01*
X158675564Y-97165747D02*
X158585088Y-97120509D01*
X158585088Y-97120509D02*
X158494612Y-97030032D01*
X158494612Y-97030032D02*
X158449374Y-96849080D01*
X158449374Y-96849080D02*
X158449374Y-96532413D01*
X158449374Y-96532413D02*
X158494612Y-96351461D01*
X158494612Y-96351461D02*
X158585088Y-96260985D01*
X158585088Y-96260985D02*
X158675564Y-96215747D01*
X159987469Y-97165747D02*
X159444612Y-97165747D01*
X159716040Y-97165747D02*
X159716040Y-96215747D01*
X159716040Y-96215747D02*
X159625564Y-96351461D01*
X159625564Y-96351461D02*
X159535088Y-96441937D01*
X159535088Y-96441937D02*
X159444612Y-96487175D01*
X158042231Y-98695194D02*
X158042231Y-97745194D01*
X158675564Y-97745194D02*
X158856517Y-97745194D01*
X158856517Y-97745194D02*
X158946993Y-97790432D01*
X158946993Y-97790432D02*
X159037469Y-97880908D01*
X159037469Y-97880908D02*
X159082707Y-98061860D01*
X159082707Y-98061860D02*
X159082707Y-98378527D01*
X159082707Y-98378527D02*
X159037469Y-98559479D01*
X159037469Y-98559479D02*
X158946993Y-98649956D01*
X158946993Y-98649956D02*
X158856517Y-98695194D01*
X158856517Y-98695194D02*
X158675564Y-98695194D01*
X158675564Y-98695194D02*
X158585088Y-98649956D01*
X158585088Y-98649956D02*
X158494612Y-98559479D01*
X158494612Y-98559479D02*
X158449374Y-98378527D01*
X158449374Y-98378527D02*
X158449374Y-98061860D01*
X158449374Y-98061860D02*
X158494612Y-97880908D01*
X158494612Y-97880908D02*
X158585088Y-97790432D01*
X158585088Y-97790432D02*
X158675564Y-97745194D01*
X159444612Y-97835670D02*
X159489850Y-97790432D01*
X159489850Y-97790432D02*
X159580326Y-97745194D01*
X159580326Y-97745194D02*
X159806517Y-97745194D01*
X159806517Y-97745194D02*
X159896993Y-97790432D01*
X159896993Y-97790432D02*
X159942231Y-97835670D01*
X159942231Y-97835670D02*
X159987469Y-97926146D01*
X159987469Y-97926146D02*
X159987469Y-98016622D01*
X159987469Y-98016622D02*
X159942231Y-98152336D01*
X159942231Y-98152336D02*
X159399374Y-98695194D01*
X159399374Y-98695194D02*
X159987469Y-98695194D01*
X158042231Y-100224641D02*
X158042231Y-99274641D01*
X158675564Y-99274641D02*
X158856517Y-99274641D01*
X158856517Y-99274641D02*
X158946993Y-99319879D01*
X158946993Y-99319879D02*
X159037469Y-99410355D01*
X159037469Y-99410355D02*
X159082707Y-99591307D01*
X159082707Y-99591307D02*
X159082707Y-99907974D01*
X159082707Y-99907974D02*
X159037469Y-100088926D01*
X159037469Y-100088926D02*
X158946993Y-100179403D01*
X158946993Y-100179403D02*
X158856517Y-100224641D01*
X158856517Y-100224641D02*
X158675564Y-100224641D01*
X158675564Y-100224641D02*
X158585088Y-100179403D01*
X158585088Y-100179403D02*
X158494612Y-100088926D01*
X158494612Y-100088926D02*
X158449374Y-99907974D01*
X158449374Y-99907974D02*
X158449374Y-99591307D01*
X158449374Y-99591307D02*
X158494612Y-99410355D01*
X158494612Y-99410355D02*
X158585088Y-99319879D01*
X158585088Y-99319879D02*
X158675564Y-99274641D01*
X159399374Y-99274641D02*
X159987469Y-99274641D01*
X159987469Y-99274641D02*
X159670802Y-99636545D01*
X159670802Y-99636545D02*
X159806517Y-99636545D01*
X159806517Y-99636545D02*
X159896993Y-99681783D01*
X159896993Y-99681783D02*
X159942231Y-99727022D01*
X159942231Y-99727022D02*
X159987469Y-99817498D01*
X159987469Y-99817498D02*
X159987469Y-100043688D01*
X159987469Y-100043688D02*
X159942231Y-100134164D01*
X159942231Y-100134164D02*
X159896993Y-100179403D01*
X159896993Y-100179403D02*
X159806517Y-100224641D01*
X159806517Y-100224641D02*
X159535088Y-100224641D01*
X159535088Y-100224641D02*
X159444612Y-100179403D01*
X159444612Y-100179403D02*
X159399374Y-100134164D01*
X157137469Y-101754088D02*
X157137469Y-100804088D01*
X157770802Y-100804088D02*
X157951755Y-100804088D01*
X157951755Y-100804088D02*
X158042231Y-100849326D01*
X158042231Y-100849326D02*
X158132707Y-100939802D01*
X158132707Y-100939802D02*
X158177945Y-101120754D01*
X158177945Y-101120754D02*
X158177945Y-101437421D01*
X158177945Y-101437421D02*
X158132707Y-101618373D01*
X158132707Y-101618373D02*
X158042231Y-101708850D01*
X158042231Y-101708850D02*
X157951755Y-101754088D01*
X157951755Y-101754088D02*
X157770802Y-101754088D01*
X157770802Y-101754088D02*
X157680326Y-101708850D01*
X157680326Y-101708850D02*
X157589850Y-101618373D01*
X157589850Y-101618373D02*
X157544612Y-101437421D01*
X157544612Y-101437421D02*
X157544612Y-101120754D01*
X157544612Y-101120754D02*
X157589850Y-100939802D01*
X157589850Y-100939802D02*
X157680326Y-100849326D01*
X157680326Y-100849326D02*
X157770802Y-100804088D01*
X159082707Y-101754088D02*
X158539850Y-101754088D01*
X158811278Y-101754088D02*
X158811278Y-100804088D01*
X158811278Y-100804088D02*
X158720802Y-100939802D01*
X158720802Y-100939802D02*
X158630326Y-101030278D01*
X158630326Y-101030278D02*
X158539850Y-101075516D01*
X159535088Y-101754088D02*
X159716040Y-101754088D01*
X159716040Y-101754088D02*
X159806517Y-101708850D01*
X159806517Y-101708850D02*
X159851755Y-101663611D01*
X159851755Y-101663611D02*
X159942231Y-101527897D01*
X159942231Y-101527897D02*
X159987469Y-101346945D01*
X159987469Y-101346945D02*
X159987469Y-100985040D01*
X159987469Y-100985040D02*
X159942231Y-100894564D01*
X159942231Y-100894564D02*
X159896993Y-100849326D01*
X159896993Y-100849326D02*
X159806517Y-100804088D01*
X159806517Y-100804088D02*
X159625564Y-100804088D01*
X159625564Y-100804088D02*
X159535088Y-100849326D01*
X159535088Y-100849326D02*
X159489850Y-100894564D01*
X159489850Y-100894564D02*
X159444612Y-100985040D01*
X159444612Y-100985040D02*
X159444612Y-101211230D01*
X159444612Y-101211230D02*
X159489850Y-101301707D01*
X159489850Y-101301707D02*
X159535088Y-101346945D01*
X159535088Y-101346945D02*
X159625564Y-101392183D01*
X159625564Y-101392183D02*
X159806517Y-101392183D01*
X159806517Y-101392183D02*
X159896993Y-101346945D01*
X159896993Y-101346945D02*
X159942231Y-101301707D01*
X159942231Y-101301707D02*
X159987469Y-101211230D01*
X157137469Y-103283535D02*
X157137469Y-102333535D01*
X157770802Y-102333535D02*
X157951755Y-102333535D01*
X157951755Y-102333535D02*
X158042231Y-102378773D01*
X158042231Y-102378773D02*
X158132707Y-102469249D01*
X158132707Y-102469249D02*
X158177945Y-102650201D01*
X158177945Y-102650201D02*
X158177945Y-102966868D01*
X158177945Y-102966868D02*
X158132707Y-103147820D01*
X158132707Y-103147820D02*
X158042231Y-103238297D01*
X158042231Y-103238297D02*
X157951755Y-103283535D01*
X157951755Y-103283535D02*
X157770802Y-103283535D01*
X157770802Y-103283535D02*
X157680326Y-103238297D01*
X157680326Y-103238297D02*
X157589850Y-103147820D01*
X157589850Y-103147820D02*
X157544612Y-102966868D01*
X157544612Y-102966868D02*
X157544612Y-102650201D01*
X157544612Y-102650201D02*
X157589850Y-102469249D01*
X157589850Y-102469249D02*
X157680326Y-102378773D01*
X157680326Y-102378773D02*
X157770802Y-102333535D01*
X159082707Y-103283535D02*
X158539850Y-103283535D01*
X158811278Y-103283535D02*
X158811278Y-102333535D01*
X158811278Y-102333535D02*
X158720802Y-102469249D01*
X158720802Y-102469249D02*
X158630326Y-102559725D01*
X158630326Y-102559725D02*
X158539850Y-102604963D01*
X159625564Y-102740677D02*
X159535088Y-102695439D01*
X159535088Y-102695439D02*
X159489850Y-102650201D01*
X159489850Y-102650201D02*
X159444612Y-102559725D01*
X159444612Y-102559725D02*
X159444612Y-102514487D01*
X159444612Y-102514487D02*
X159489850Y-102424011D01*
X159489850Y-102424011D02*
X159535088Y-102378773D01*
X159535088Y-102378773D02*
X159625564Y-102333535D01*
X159625564Y-102333535D02*
X159806517Y-102333535D01*
X159806517Y-102333535D02*
X159896993Y-102378773D01*
X159896993Y-102378773D02*
X159942231Y-102424011D01*
X159942231Y-102424011D02*
X159987469Y-102514487D01*
X159987469Y-102514487D02*
X159987469Y-102559725D01*
X159987469Y-102559725D02*
X159942231Y-102650201D01*
X159942231Y-102650201D02*
X159896993Y-102695439D01*
X159896993Y-102695439D02*
X159806517Y-102740677D01*
X159806517Y-102740677D02*
X159625564Y-102740677D01*
X159625564Y-102740677D02*
X159535088Y-102785916D01*
X159535088Y-102785916D02*
X159489850Y-102831154D01*
X159489850Y-102831154D02*
X159444612Y-102921630D01*
X159444612Y-102921630D02*
X159444612Y-103102582D01*
X159444612Y-103102582D02*
X159489850Y-103193058D01*
X159489850Y-103193058D02*
X159535088Y-103238297D01*
X159535088Y-103238297D02*
X159625564Y-103283535D01*
X159625564Y-103283535D02*
X159806517Y-103283535D01*
X159806517Y-103283535D02*
X159896993Y-103238297D01*
X159896993Y-103238297D02*
X159942231Y-103193058D01*
X159942231Y-103193058D02*
X159987469Y-103102582D01*
X159987469Y-103102582D02*
X159987469Y-102921630D01*
X159987469Y-102921630D02*
X159942231Y-102831154D01*
X159942231Y-102831154D02*
X159896993Y-102785916D01*
X159896993Y-102785916D02*
X159806517Y-102740677D01*
X157680326Y-103862982D02*
X158223183Y-103862982D01*
X157951754Y-104812982D02*
X157951754Y-103862982D01*
X158449374Y-103862982D02*
X159082707Y-104812982D01*
X159082707Y-103862982D02*
X158449374Y-104812982D01*
X159444612Y-104812982D02*
X159444612Y-103862982D01*
X159444612Y-103862982D02*
X159670802Y-103862982D01*
X159670802Y-103862982D02*
X159806517Y-103908220D01*
X159806517Y-103908220D02*
X159896993Y-103998696D01*
X159896993Y-103998696D02*
X159942231Y-104089172D01*
X159942231Y-104089172D02*
X159987469Y-104270124D01*
X159987469Y-104270124D02*
X159987469Y-104405839D01*
X159987469Y-104405839D02*
X159942231Y-104586791D01*
X159942231Y-104586791D02*
X159896993Y-104677267D01*
X159896993Y-104677267D02*
X159806517Y-104767744D01*
X159806517Y-104767744D02*
X159670802Y-104812982D01*
X159670802Y-104812982D02*
X159444612Y-104812982D01*
X158132707Y-106342429D02*
X157816040Y-105890048D01*
X157589850Y-106342429D02*
X157589850Y-105392429D01*
X157589850Y-105392429D02*
X157951755Y-105392429D01*
X157951755Y-105392429D02*
X158042231Y-105437667D01*
X158042231Y-105437667D02*
X158087469Y-105482905D01*
X158087469Y-105482905D02*
X158132707Y-105573381D01*
X158132707Y-105573381D02*
X158132707Y-105709095D01*
X158132707Y-105709095D02*
X158087469Y-105799571D01*
X158087469Y-105799571D02*
X158042231Y-105844810D01*
X158042231Y-105844810D02*
X157951755Y-105890048D01*
X157951755Y-105890048D02*
X157589850Y-105890048D01*
X158449374Y-105392429D02*
X159082707Y-106342429D01*
X159082707Y-105392429D02*
X158449374Y-106342429D01*
X159444612Y-106342429D02*
X159444612Y-105392429D01*
X159444612Y-105392429D02*
X159670802Y-105392429D01*
X159670802Y-105392429D02*
X159806517Y-105437667D01*
X159806517Y-105437667D02*
X159896993Y-105528143D01*
X159896993Y-105528143D02*
X159942231Y-105618619D01*
X159942231Y-105618619D02*
X159987469Y-105799571D01*
X159987469Y-105799571D02*
X159987469Y-105935286D01*
X159987469Y-105935286D02*
X159942231Y-106116238D01*
X159942231Y-106116238D02*
X159896993Y-106206714D01*
X159896993Y-106206714D02*
X159806517Y-106297191D01*
X159806517Y-106297191D02*
X159670802Y-106342429D01*
X159670802Y-106342429D02*
X159444612Y-106342429D01*
X157137469Y-107871876D02*
X157137469Y-106921876D01*
X157770802Y-106921876D02*
X157951755Y-106921876D01*
X157951755Y-106921876D02*
X158042231Y-106967114D01*
X158042231Y-106967114D02*
X158132707Y-107057590D01*
X158132707Y-107057590D02*
X158177945Y-107238542D01*
X158177945Y-107238542D02*
X158177945Y-107555209D01*
X158177945Y-107555209D02*
X158132707Y-107736161D01*
X158132707Y-107736161D02*
X158042231Y-107826638D01*
X158042231Y-107826638D02*
X157951755Y-107871876D01*
X157951755Y-107871876D02*
X157770802Y-107871876D01*
X157770802Y-107871876D02*
X157680326Y-107826638D01*
X157680326Y-107826638D02*
X157589850Y-107736161D01*
X157589850Y-107736161D02*
X157544612Y-107555209D01*
X157544612Y-107555209D02*
X157544612Y-107238542D01*
X157544612Y-107238542D02*
X157589850Y-107057590D01*
X157589850Y-107057590D02*
X157680326Y-106967114D01*
X157680326Y-106967114D02*
X157770802Y-106921876D01*
X159082707Y-107871876D02*
X158539850Y-107871876D01*
X158811278Y-107871876D02*
X158811278Y-106921876D01*
X158811278Y-106921876D02*
X158720802Y-107057590D01*
X158720802Y-107057590D02*
X158630326Y-107148066D01*
X158630326Y-107148066D02*
X158539850Y-107193304D01*
X159670802Y-106921876D02*
X159761279Y-106921876D01*
X159761279Y-106921876D02*
X159851755Y-106967114D01*
X159851755Y-106967114D02*
X159896993Y-107012352D01*
X159896993Y-107012352D02*
X159942231Y-107102828D01*
X159942231Y-107102828D02*
X159987469Y-107283780D01*
X159987469Y-107283780D02*
X159987469Y-107509971D01*
X159987469Y-107509971D02*
X159942231Y-107690923D01*
X159942231Y-107690923D02*
X159896993Y-107781399D01*
X159896993Y-107781399D02*
X159851755Y-107826638D01*
X159851755Y-107826638D02*
X159761279Y-107871876D01*
X159761279Y-107871876D02*
X159670802Y-107871876D01*
X159670802Y-107871876D02*
X159580326Y-107826638D01*
X159580326Y-107826638D02*
X159535088Y-107781399D01*
X159535088Y-107781399D02*
X159489850Y-107690923D01*
X159489850Y-107690923D02*
X159444612Y-107509971D01*
X159444612Y-107509971D02*
X159444612Y-107283780D01*
X159444612Y-107283780D02*
X159489850Y-107102828D01*
X159489850Y-107102828D02*
X159535088Y-107012352D01*
X159535088Y-107012352D02*
X159580326Y-106967114D01*
X159580326Y-106967114D02*
X159670802Y-106921876D01*
D14*
X160722000Y-80458000D02*
X162052000Y-80458000D01*
X160722000Y-81788000D02*
X160722000Y-80458000D01*
X160722000Y-83058000D02*
X160722000Y-103438000D01*
X160722000Y-83058000D02*
X163382000Y-83058000D01*
X160722000Y-103438000D02*
X163382000Y-103438000D01*
X163382000Y-83058000D02*
X163382000Y-103438000D01*
X142270000Y-102230000D02*
X142570000Y-102230000D01*
X142570000Y-102230000D02*
X142570000Y-106370000D01*
X142570000Y-106370000D02*
X142270000Y-106370000D01*
X155753641Y-100620000D02*
X155446359Y-100620000D01*
X155753641Y-101380000D02*
X155446359Y-101380000D01*
X154462500Y-96790000D02*
X153662500Y-96790000D01*
X154462500Y-96790000D02*
X155262500Y-96790000D01*
X154462500Y-99910000D02*
X153662500Y-99910000D01*
X154462500Y-99910000D02*
X155262500Y-99910000D01*
D15*
X153287500Y-96650000D02*
G75*
G02*
X153037500Y-96650000I-125000J0D01*
G01*
X153037500Y-96650000D02*
G75*
G02*
X153287500Y-96650000I125000J0D01*
G01*
D14*
X132782000Y-80458000D02*
X134112000Y-80458000D01*
X132782000Y-81788000D02*
X132782000Y-80458000D01*
X132782000Y-83058000D02*
X132782000Y-103438000D01*
X132782000Y-83058000D02*
X135442000Y-83058000D01*
X132782000Y-103438000D02*
X135442000Y-103438000D01*
X135442000Y-83058000D02*
X135442000Y-103438000D01*
X145953641Y-99920000D02*
X145646359Y-99920000D01*
X145953641Y-100680000D02*
X145646359Y-100680000D01*
X143502000Y-103850000D02*
X143502000Y-105770000D01*
X152662000Y-105770000D02*
X152662000Y-103850000D01*
X154607836Y-95740000D02*
X154392164Y-95740000D01*
X154607836Y-96460000D02*
X154392164Y-96460000D01*
X149420000Y-99953641D02*
X149420000Y-99646359D01*
X150180000Y-99953641D02*
X150180000Y-99646359D01*
X156740000Y-97987836D02*
X156740000Y-97772164D01*
X157460000Y-97987836D02*
X157460000Y-97772164D01*
X152250000Y-96790000D02*
X150550000Y-96790000D01*
X153530000Y-102230000D02*
X153830000Y-102230000D01*
X153530000Y-106370000D02*
X153530000Y-102230000D01*
X153830000Y-106370000D02*
X153530000Y-106370000D01*
D16*
X132588000Y-80200000D02*
X163576000Y-80200000D01*
X163576000Y-108800000D02*
X132588000Y-108800000D01*
X163576000Y-80200000D02*
X163576000Y-108800000D01*
X132588000Y-108800000D02*
X132588000Y-80200000D01*
M02*
