G04 #@! TF.GenerationSoftware,KiCad,Pcbnew,8.0.4-8.0.4-0~ubuntu24.04.1*
G04 #@! TF.CreationDate,2024-08-17T13:37:00+02:00*
G04 #@! TF.ProjectId,ESP32-C3-WROOM_flexypin,45535033-322d-4433-932d-57524f4f4d5f,rev?*
G04 #@! TF.SameCoordinates,Original*
G04 #@! TF.FileFunction,Copper,L1,Top*
G04 #@! TF.FilePolarity,Positive*
%FSLAX46Y46*%
G04 Gerber Fmt 4.6, Leading zero omitted, Abs format (unit mm)*
G04 Created by KiCad (PCBNEW 8.0.4-8.0.4-0~ubuntu24.04.1) date 2024-08-17 13:37:00*
%MOMM*%
%LPD*%
G01*
G04 APERTURE LIST*
G04 #@! TA.AperFunction,ComponentPad*
%ADD10R,1.700000X1.700000*%
G04 #@! TD*
G04 #@! TA.AperFunction,ComponentPad*
%ADD11O,1.700000X1.700000*%
G04 #@! TD*
G04 #@! TA.AperFunction,ComponentPad*
%ADD12O,2.000000X0.950000*%
G04 #@! TD*
G04 #@! TA.AperFunction,ComponentPad*
%ADD13R,1.300000X0.900000*%
G04 #@! TD*
G04 #@! TA.AperFunction,SMDPad,CuDef*
%ADD14R,0.600000X1.240000*%
G04 #@! TD*
G04 #@! TA.AperFunction,SMDPad,CuDef*
%ADD15R,0.300000X1.240000*%
G04 #@! TD*
G04 #@! TA.AperFunction,ComponentPad*
%ADD16O,1.000000X2.100000*%
G04 #@! TD*
G04 #@! TA.AperFunction,ComponentPad*
%ADD17O,1.000000X1.800000*%
G04 #@! TD*
G04 #@! TA.AperFunction,ViaPad*
%ADD18C,0.700000*%
G04 #@! TD*
G04 #@! TA.AperFunction,Conductor*
%ADD19C,0.200000*%
G04 #@! TD*
G04 #@! TA.AperFunction,Conductor*
%ADD20C,0.300000*%
G04 #@! TD*
G04 #@! TA.AperFunction,Conductor*
%ADD21C,0.500000*%
G04 #@! TD*
G04 #@! TA.AperFunction,Profile*
%ADD22C,0.100000*%
G04 #@! TD*
G04 APERTURE END LIST*
D10*
X162052000Y-81788000D03*
D11*
X162052000Y-84328000D03*
X162052000Y-86868000D03*
X162052000Y-89408000D03*
X162052000Y-91948000D03*
X162052000Y-94488000D03*
X162052000Y-97028000D03*
X162052000Y-99568000D03*
X162052000Y-102108000D03*
G04 #@! TA.AperFunction,SMDPad,CuDef*
G36*
G01*
X140200000Y-101800000D02*
X141800000Y-101800000D01*
G75*
G02*
X142000000Y-102000000I0J-200000D01*
G01*
X142000000Y-102400000D01*
G75*
G02*
X141800000Y-102600000I-200000J0D01*
G01*
X140200000Y-102600000D01*
G75*
G02*
X140000000Y-102400000I0J200000D01*
G01*
X140000000Y-102000000D01*
G75*
G02*
X140200000Y-101800000I200000J0D01*
G01*
G37*
G04 #@! TD.AperFunction*
G04 #@! TA.AperFunction,SMDPad,CuDef*
G36*
G01*
X140200000Y-106000000D02*
X141800000Y-106000000D01*
G75*
G02*
X142000000Y-106200000I0J-200000D01*
G01*
X142000000Y-106600000D01*
G75*
G02*
X141800000Y-106800000I-200000J0D01*
G01*
X140200000Y-106800000D01*
G75*
G02*
X140000000Y-106600000I0J200000D01*
G01*
X140000000Y-106200000D01*
G75*
G02*
X140200000Y-106000000I200000J0D01*
G01*
G37*
G04 #@! TD.AperFunction*
G04 #@! TA.AperFunction,SMDPad,CuDef*
G36*
G01*
X156380000Y-100815000D02*
X156380000Y-101185000D01*
G75*
G02*
X156245000Y-101320000I-135000J0D01*
G01*
X155975000Y-101320000D01*
G75*
G02*
X155840000Y-101185000I0J135000D01*
G01*
X155840000Y-100815000D01*
G75*
G02*
X155975000Y-100680000I135000J0D01*
G01*
X156245000Y-100680000D01*
G75*
G02*
X156380000Y-100815000I0J-135000D01*
G01*
G37*
G04 #@! TD.AperFunction*
G04 #@! TA.AperFunction,SMDPad,CuDef*
G36*
G01*
X155360000Y-100815000D02*
X155360000Y-101185000D01*
G75*
G02*
X155225000Y-101320000I-135000J0D01*
G01*
X154955000Y-101320000D01*
G75*
G02*
X154820000Y-101185000I0J135000D01*
G01*
X154820000Y-100815000D01*
G75*
G02*
X154955000Y-100680000I135000J0D01*
G01*
X155225000Y-100680000D01*
G75*
G02*
X155360000Y-100815000I0J-135000D01*
G01*
G37*
G04 #@! TD.AperFunction*
G04 #@! TA.AperFunction,SMDPad,CuDef*
G36*
G01*
X152662500Y-97550000D02*
X152662500Y-97250000D01*
G75*
G02*
X152812500Y-97100000I150000J0D01*
G01*
X153837500Y-97100000D01*
G75*
G02*
X153987500Y-97250000I0J-150000D01*
G01*
X153987500Y-97550000D01*
G75*
G02*
X153837500Y-97700000I-150000J0D01*
G01*
X152812500Y-97700000D01*
G75*
G02*
X152662500Y-97550000I0J150000D01*
G01*
G37*
G04 #@! TD.AperFunction*
G04 #@! TA.AperFunction,SMDPad,CuDef*
G36*
G01*
X152662500Y-98500000D02*
X152662500Y-98200000D01*
G75*
G02*
X152812500Y-98050000I150000J0D01*
G01*
X153837500Y-98050000D01*
G75*
G02*
X153987500Y-98200000I0J-150000D01*
G01*
X153987500Y-98500000D01*
G75*
G02*
X153837500Y-98650000I-150000J0D01*
G01*
X152812500Y-98650000D01*
G75*
G02*
X152662500Y-98500000I0J150000D01*
G01*
G37*
G04 #@! TD.AperFunction*
G04 #@! TA.AperFunction,SMDPad,CuDef*
G36*
G01*
X152662500Y-99450000D02*
X152662500Y-99150000D01*
G75*
G02*
X152812500Y-99000000I150000J0D01*
G01*
X153837500Y-99000000D01*
G75*
G02*
X153987500Y-99150000I0J-150000D01*
G01*
X153987500Y-99450000D01*
G75*
G02*
X153837500Y-99600000I-150000J0D01*
G01*
X152812500Y-99600000D01*
G75*
G02*
X152662500Y-99450000I0J150000D01*
G01*
G37*
G04 #@! TD.AperFunction*
G04 #@! TA.AperFunction,SMDPad,CuDef*
G36*
G01*
X154937500Y-99450000D02*
X154937500Y-99150000D01*
G75*
G02*
X155087500Y-99000000I150000J0D01*
G01*
X156112500Y-99000000D01*
G75*
G02*
X156262500Y-99150000I0J-150000D01*
G01*
X156262500Y-99450000D01*
G75*
G02*
X156112500Y-99600000I-150000J0D01*
G01*
X155087500Y-99600000D01*
G75*
G02*
X154937500Y-99450000I0J150000D01*
G01*
G37*
G04 #@! TD.AperFunction*
G04 #@! TA.AperFunction,SMDPad,CuDef*
G36*
G01*
X154937500Y-97550000D02*
X154937500Y-97250000D01*
G75*
G02*
X155087500Y-97100000I150000J0D01*
G01*
X156112500Y-97100000D01*
G75*
G02*
X156262500Y-97250000I0J-150000D01*
G01*
X156262500Y-97550000D01*
G75*
G02*
X156112500Y-97700000I-150000J0D01*
G01*
X155087500Y-97700000D01*
G75*
G02*
X154937500Y-97550000I0J150000D01*
G01*
G37*
G04 #@! TD.AperFunction*
D10*
X134112000Y-81788000D03*
D11*
X134112000Y-84328000D03*
X134112000Y-86868000D03*
X134112000Y-89408000D03*
X134112000Y-91948000D03*
X134112000Y-94488000D03*
X134112000Y-97028000D03*
X134112000Y-99568000D03*
X134112000Y-102108000D03*
G04 #@! TA.AperFunction,SMDPad,CuDef*
G36*
G01*
X146580000Y-100115000D02*
X146580000Y-100485000D01*
G75*
G02*
X146445000Y-100620000I-135000J0D01*
G01*
X146175000Y-100620000D01*
G75*
G02*
X146040000Y-100485000I0J135000D01*
G01*
X146040000Y-100115000D01*
G75*
G02*
X146175000Y-99980000I135000J0D01*
G01*
X146445000Y-99980000D01*
G75*
G02*
X146580000Y-100115000I0J-135000D01*
G01*
G37*
G04 #@! TD.AperFunction*
G04 #@! TA.AperFunction,SMDPad,CuDef*
G36*
G01*
X145560000Y-100115000D02*
X145560000Y-100485000D01*
G75*
G02*
X145425000Y-100620000I-135000J0D01*
G01*
X145155000Y-100620000D01*
G75*
G02*
X145020000Y-100485000I0J135000D01*
G01*
X145020000Y-100115000D01*
G75*
G02*
X145155000Y-99980000I135000J0D01*
G01*
X145425000Y-99980000D01*
G75*
G02*
X145560000Y-100115000I0J-135000D01*
G01*
G37*
G04 #@! TD.AperFunction*
D12*
X138600000Y-81275000D03*
X138600000Y-84275000D03*
X138600000Y-85775000D03*
X138600000Y-87275000D03*
X138600000Y-88775000D03*
X138600000Y-90275000D03*
X138600000Y-91775000D03*
X138600000Y-93275000D03*
D13*
X136750000Y-81275000D03*
X136750000Y-82775000D03*
D12*
X138600000Y-82775000D03*
D13*
X136750000Y-84275000D03*
X136750000Y-85775000D03*
X136750000Y-87275000D03*
X136750000Y-88775000D03*
X136750000Y-90275000D03*
X136750000Y-91775000D03*
X136750000Y-93275000D03*
D14*
X144882000Y-101975000D03*
X145682000Y-101975000D03*
D15*
X146832000Y-101975000D03*
X147832000Y-101975000D03*
X148332000Y-101975000D03*
X149332000Y-101975000D03*
D14*
X150482000Y-101975000D03*
X151282000Y-101975000D03*
X151282000Y-101975000D03*
X150482000Y-101975000D03*
D15*
X149832000Y-101975000D03*
X148832000Y-101975000D03*
X147332000Y-101975000D03*
X146332000Y-101975000D03*
D14*
X145682000Y-101975000D03*
X144882000Y-101975000D03*
D16*
X143762000Y-102575000D03*
D17*
X143762000Y-106775000D03*
D16*
X152402000Y-102575000D03*
D17*
X152402000Y-106775000D03*
G04 #@! TA.AperFunction,SMDPad,CuDef*
G36*
G01*
X155260000Y-95930000D02*
X155260000Y-96270000D01*
G75*
G02*
X155120000Y-96410000I-140000J0D01*
G01*
X154840000Y-96410000D01*
G75*
G02*
X154700000Y-96270000I0J140000D01*
G01*
X154700000Y-95930000D01*
G75*
G02*
X154840000Y-95790000I140000J0D01*
G01*
X155120000Y-95790000D01*
G75*
G02*
X155260000Y-95930000I0J-140000D01*
G01*
G37*
G04 #@! TD.AperFunction*
G04 #@! TA.AperFunction,SMDPad,CuDef*
G36*
G01*
X154300000Y-95930000D02*
X154300000Y-96270000D01*
G75*
G02*
X154160000Y-96410000I-140000J0D01*
G01*
X153880000Y-96410000D01*
G75*
G02*
X153740000Y-96270000I0J140000D01*
G01*
X153740000Y-95930000D01*
G75*
G02*
X153880000Y-95790000I140000J0D01*
G01*
X154160000Y-95790000D01*
G75*
G02*
X154300000Y-95930000I0J-140000D01*
G01*
G37*
G04 #@! TD.AperFunction*
G04 #@! TA.AperFunction,SMDPad,CuDef*
G36*
G01*
X149985000Y-100580000D02*
X149615000Y-100580000D01*
G75*
G02*
X149480000Y-100445000I0J135000D01*
G01*
X149480000Y-100175000D01*
G75*
G02*
X149615000Y-100040000I135000J0D01*
G01*
X149985000Y-100040000D01*
G75*
G02*
X150120000Y-100175000I0J-135000D01*
G01*
X150120000Y-100445000D01*
G75*
G02*
X149985000Y-100580000I-135000J0D01*
G01*
G37*
G04 #@! TD.AperFunction*
G04 #@! TA.AperFunction,SMDPad,CuDef*
G36*
G01*
X149985000Y-99560000D02*
X149615000Y-99560000D01*
G75*
G02*
X149480000Y-99425000I0J135000D01*
G01*
X149480000Y-99155000D01*
G75*
G02*
X149615000Y-99020000I135000J0D01*
G01*
X149985000Y-99020000D01*
G75*
G02*
X150120000Y-99155000I0J-135000D01*
G01*
X150120000Y-99425000D01*
G75*
G02*
X149985000Y-99560000I-135000J0D01*
G01*
G37*
G04 #@! TD.AperFunction*
G04 #@! TA.AperFunction,SMDPad,CuDef*
G36*
G01*
X157270000Y-98640000D02*
X156930000Y-98640000D01*
G75*
G02*
X156790000Y-98500000I0J140000D01*
G01*
X156790000Y-98220000D01*
G75*
G02*
X156930000Y-98080000I140000J0D01*
G01*
X157270000Y-98080000D01*
G75*
G02*
X157410000Y-98220000I0J-140000D01*
G01*
X157410000Y-98500000D01*
G75*
G02*
X157270000Y-98640000I-140000J0D01*
G01*
G37*
G04 #@! TD.AperFunction*
G04 #@! TA.AperFunction,SMDPad,CuDef*
G36*
G01*
X157270000Y-97680000D02*
X156930000Y-97680000D01*
G75*
G02*
X156790000Y-97540000I0J140000D01*
G01*
X156790000Y-97260000D01*
G75*
G02*
X156930000Y-97120000I140000J0D01*
G01*
X157270000Y-97120000D01*
G75*
G02*
X157410000Y-97260000I0J-140000D01*
G01*
X157410000Y-97540000D01*
G75*
G02*
X157270000Y-97680000I-140000J0D01*
G01*
G37*
G04 #@! TD.AperFunction*
D12*
X157550000Y-93275000D03*
X157550000Y-91775000D03*
X157550000Y-90275000D03*
X157550000Y-85775000D03*
X157550000Y-84275000D03*
X157550000Y-82775000D03*
X157550000Y-81275000D03*
D13*
X159400000Y-93275000D03*
X159400000Y-91775000D03*
X159400000Y-90275000D03*
X159400000Y-88775000D03*
D12*
X157550000Y-88775000D03*
D13*
X159400000Y-87275000D03*
D12*
X157550000Y-87275000D03*
D13*
X159400000Y-85775000D03*
X159400000Y-84275000D03*
X159400000Y-82775000D03*
X159400000Y-81275000D03*
G04 #@! TA.AperFunction,SMDPad,CuDef*
G36*
G01*
X151287500Y-97050000D02*
X151512500Y-97050000D01*
G75*
G02*
X151625000Y-97162500I0J-112500D01*
G01*
X151625000Y-97537500D01*
G75*
G02*
X151512500Y-97650000I-112500J0D01*
G01*
X151287500Y-97650000D01*
G75*
G02*
X151175000Y-97537500I0J112500D01*
G01*
X151175000Y-97162500D01*
G75*
G02*
X151287500Y-97050000I112500J0D01*
G01*
G37*
G04 #@! TD.AperFunction*
G04 #@! TA.AperFunction,SMDPad,CuDef*
G36*
G01*
X151287500Y-99150000D02*
X151512500Y-99150000D01*
G75*
G02*
X151625000Y-99262500I0J-112500D01*
G01*
X151625000Y-99637500D01*
G75*
G02*
X151512500Y-99750000I-112500J0D01*
G01*
X151287500Y-99750000D01*
G75*
G02*
X151175000Y-99637500I0J112500D01*
G01*
X151175000Y-99262500D01*
G75*
G02*
X151287500Y-99150000I112500J0D01*
G01*
G37*
G04 #@! TD.AperFunction*
G04 #@! TA.AperFunction,SMDPad,CuDef*
G36*
G01*
X154300000Y-101800000D02*
X155900000Y-101800000D01*
G75*
G02*
X156100000Y-102000000I0J-200000D01*
G01*
X156100000Y-102400000D01*
G75*
G02*
X155900000Y-102600000I-200000J0D01*
G01*
X154300000Y-102600000D01*
G75*
G02*
X154100000Y-102400000I0J200000D01*
G01*
X154100000Y-102000000D01*
G75*
G02*
X154300000Y-101800000I200000J0D01*
G01*
G37*
G04 #@! TD.AperFunction*
G04 #@! TA.AperFunction,SMDPad,CuDef*
G36*
G01*
X154300000Y-106000000D02*
X155900000Y-106000000D01*
G75*
G02*
X156100000Y-106200000I0J-200000D01*
G01*
X156100000Y-106600000D01*
G75*
G02*
X155900000Y-106800000I-200000J0D01*
G01*
X154300000Y-106800000D01*
G75*
G02*
X154100000Y-106600000I0J200000D01*
G01*
X154100000Y-106200000D01*
G75*
G02*
X154300000Y-106000000I200000J0D01*
G01*
G37*
G04 #@! TD.AperFunction*
D18*
X156800000Y-100400000D03*
X158000000Y-97400000D03*
X141000000Y-101000000D03*
X147837268Y-103023558D03*
X147522860Y-100200000D03*
D19*
X160280000Y-84280000D02*
X162052000Y-86052000D01*
X159110000Y-84280000D02*
X160280000Y-84280000D01*
X162052000Y-86052000D02*
X162052000Y-86868000D01*
X135261511Y-86283495D02*
X135765006Y-85780000D01*
X135261511Y-88258489D02*
X135261511Y-86283495D01*
X134112000Y-89408000D02*
X135261511Y-88258489D01*
X135765006Y-85780000D02*
X137040000Y-85780000D01*
X135261511Y-84519244D02*
X135500755Y-84280000D01*
X134112000Y-86868000D02*
X135261511Y-85718489D01*
X135261511Y-85718489D02*
X135261511Y-84519244D01*
X135500755Y-84280000D02*
X137040000Y-84280000D01*
X159110000Y-81280000D02*
X160380000Y-81280000D01*
X160380000Y-81280000D02*
X160888000Y-81788000D01*
X160888000Y-81788000D02*
X162052000Y-81788000D01*
X134112000Y-91948000D02*
X135261511Y-90798489D01*
X135261511Y-90798489D02*
X135261511Y-88931856D01*
X135661030Y-88532337D02*
X135661030Y-87438970D01*
X135820000Y-87280000D02*
X137040000Y-87280000D01*
X135661030Y-87438970D02*
X135820000Y-87280000D01*
X135261511Y-88931856D02*
X135661030Y-88532337D01*
X135978373Y-88780000D02*
X137040000Y-88780000D01*
X135261511Y-91363495D02*
X135661031Y-90963975D01*
X135661031Y-90963975D02*
X135661031Y-89097342D01*
X135661031Y-89097342D02*
X135978373Y-88780000D01*
X135261511Y-93338489D02*
X135261511Y-91363495D01*
X134112000Y-94488000D02*
X135261511Y-93338489D01*
X160380000Y-85780000D02*
X160900000Y-86300000D01*
X159110000Y-85780000D02*
X160380000Y-85780000D01*
X160900000Y-86300000D02*
X160900000Y-88256000D01*
X160900000Y-88256000D02*
X162052000Y-89408000D01*
X159110000Y-99166000D02*
X162052000Y-102108000D01*
X159110000Y-93280000D02*
X159110000Y-99166000D01*
X161828000Y-84328000D02*
X162052000Y-84328000D01*
X160280000Y-82780000D02*
X161828000Y-84328000D01*
X159110000Y-82780000D02*
X160280000Y-82780000D01*
X160280000Y-91780000D02*
X160502969Y-92002969D01*
X160502969Y-92002969D02*
X160502969Y-98018969D01*
X159110000Y-91780000D02*
X160280000Y-91780000D01*
X160502969Y-98018969D02*
X162052000Y-99568000D01*
D20*
X153325000Y-97075000D02*
X153325000Y-97400000D01*
X154020000Y-96380000D02*
X153325000Y-97075000D01*
X154020000Y-96100000D02*
X154020000Y-96380000D01*
D19*
X152300000Y-98937499D02*
X152662501Y-99300000D01*
X153325000Y-97400000D02*
X151450000Y-97400000D01*
X152662501Y-99300000D02*
X153325000Y-99300000D01*
X151450000Y-97400000D02*
X151400000Y-97350000D01*
X152300000Y-97400000D02*
X152300000Y-98937499D01*
X137040000Y-99180000D02*
X137040000Y-93280000D01*
X134112000Y-102108000D02*
X137040000Y-99180000D01*
X156200000Y-101000000D02*
X156110000Y-101000000D01*
X156800000Y-100400000D02*
X156200000Y-101000000D01*
D20*
X157100000Y-97400000D02*
X158000000Y-97400000D01*
X155600000Y-97400000D02*
X157100000Y-97400000D01*
D19*
X135660000Y-82780000D02*
X137040000Y-82780000D01*
X142600000Y-103200000D02*
X142600000Y-85400000D01*
X155100000Y-102500000D02*
X153200000Y-104400000D01*
X143800000Y-104400000D02*
X142600000Y-103200000D01*
X134112000Y-84328000D02*
X135660000Y-82780000D01*
X142600000Y-85400000D02*
X139975000Y-82775000D01*
X153200000Y-104400000D02*
X143800000Y-104400000D01*
X155100000Y-102200000D02*
X155100000Y-101010000D01*
X155100000Y-101310000D02*
X155090000Y-101300000D01*
X139975000Y-82775000D02*
X137050000Y-82775000D01*
X141000000Y-101000000D02*
X141000000Y-102200000D01*
X147832000Y-102845000D02*
X147832000Y-101975000D01*
D21*
X147622860Y-100100000D02*
X147622860Y-96868992D01*
X147622860Y-96868992D02*
X157216852Y-87275000D01*
D19*
X148832000Y-102845000D02*
X148832000Y-101975000D01*
D21*
X157550000Y-87275000D02*
X157000000Y-87275000D01*
D19*
X147837268Y-103023558D02*
X147913710Y-103100000D01*
X147913710Y-103100000D02*
X148577000Y-103100000D01*
X160902489Y-88823495D02*
X160902489Y-90798489D01*
X148577000Y-103100000D02*
X148832000Y-102845000D01*
X160500480Y-87500480D02*
X160500480Y-88421486D01*
X160500480Y-88421486D02*
X160902489Y-88823495D01*
X159110000Y-87280000D02*
X160280000Y-87280000D01*
X147837268Y-102850268D02*
X147832000Y-102845000D01*
X161948000Y-91948000D02*
X162052000Y-91948000D01*
X147837268Y-103023558D02*
X147837268Y-102850268D01*
X160902489Y-90798489D02*
X162052000Y-91948000D01*
X160280000Y-87280000D02*
X160500480Y-87500480D01*
X160502969Y-89002969D02*
X160502970Y-90963976D01*
X159110000Y-88780000D02*
X160280000Y-88780000D01*
X147332000Y-101105000D02*
X147332000Y-101975000D01*
D21*
X148322860Y-100923356D02*
X148322860Y-97158942D01*
D19*
X148322860Y-101095860D02*
X148332000Y-101105000D01*
X160502970Y-90963976D02*
X160902489Y-91363495D01*
X148322860Y-100923356D02*
X147513644Y-100923356D01*
X160902489Y-91363495D02*
X160902489Y-93338489D01*
X148322860Y-100923356D02*
X148322860Y-101095860D01*
D21*
X148322860Y-97158942D02*
X156706802Y-88775000D01*
X156706802Y-88775000D02*
X157125000Y-88775000D01*
D19*
X160280000Y-88780000D02*
X160502969Y-89002969D01*
X160902489Y-93338489D02*
X162052000Y-94488000D01*
X147513644Y-100923356D02*
X147332000Y-101105000D01*
X148332000Y-101105000D02*
X148332000Y-101975000D01*
X149832000Y-101975000D02*
X149832000Y-100342000D01*
X149832000Y-100342000D02*
X149800000Y-100310000D01*
X146832000Y-100822000D02*
X146310000Y-100300000D01*
X146832000Y-101975000D02*
X146832000Y-100822000D01*
X150297000Y-102160000D02*
X150297000Y-102880000D01*
X149177000Y-104000000D02*
X146987000Y-104000000D01*
X145882000Y-102175000D02*
X145682000Y-101975000D01*
X150482000Y-101975000D02*
X150297000Y-102160000D01*
X146987000Y-104000000D02*
X145882000Y-102895000D01*
X150482000Y-100368000D02*
X151400000Y-99450000D01*
X145882000Y-102895000D02*
X145882000Y-102175000D01*
X150297000Y-102880000D02*
X149177000Y-104000000D01*
X150482000Y-101975000D02*
X150482000Y-100368000D01*
G04 #@! TA.AperFunction,Conductor*
G36*
X163334691Y-80419407D02*
G01*
X163370655Y-80468907D01*
X163375500Y-80499500D01*
X163375500Y-108500500D01*
X163356593Y-108558691D01*
X163307093Y-108594655D01*
X163276500Y-108599500D01*
X132887500Y-108599500D01*
X132829309Y-108580593D01*
X132793345Y-108531093D01*
X132788500Y-108500500D01*
X132788500Y-106500001D01*
X139800001Y-106500001D01*
X139800001Y-106631485D01*
X139814833Y-106725141D01*
X139814836Y-106725151D01*
X139872358Y-106838043D01*
X139961956Y-106927641D01*
X140074848Y-106985163D01*
X140074852Y-106985164D01*
X140168515Y-106999999D01*
X140899998Y-106999999D01*
X140900000Y-106999998D01*
X140900000Y-106500001D01*
X141100000Y-106500001D01*
X141100000Y-106999998D01*
X141100001Y-106999999D01*
X141831483Y-106999999D01*
X141831485Y-106999998D01*
X141925141Y-106985166D01*
X141925151Y-106985163D01*
X142038043Y-106927641D01*
X142127641Y-106838043D01*
X142185163Y-106725151D01*
X142185164Y-106725147D01*
X142200000Y-106631484D01*
X142200000Y-106500001D01*
X142199999Y-106500000D01*
X141100001Y-106500000D01*
X141100000Y-106500001D01*
X140900000Y-106500001D01*
X140899999Y-106500000D01*
X139800002Y-106500000D01*
X139800001Y-106500001D01*
X132788500Y-106500001D01*
X132788500Y-106306055D01*
X143062000Y-106306055D01*
X143062000Y-106674999D01*
X143062001Y-106675000D01*
X143462000Y-106675000D01*
X143462000Y-106875000D01*
X143062001Y-106875000D01*
X143062000Y-106875001D01*
X143062000Y-107243944D01*
X143088901Y-107379183D01*
X143141666Y-107506571D01*
X143218271Y-107621220D01*
X143315779Y-107718728D01*
X143430428Y-107795333D01*
X143557817Y-107848098D01*
X143662000Y-107868822D01*
X143662000Y-107458788D01*
X143722504Y-107475000D01*
X143801496Y-107475000D01*
X143862000Y-107458788D01*
X143862000Y-107868821D01*
X143966181Y-107848098D01*
X143966183Y-107848098D01*
X144093571Y-107795333D01*
X144208220Y-107718728D01*
X144305728Y-107621220D01*
X144382333Y-107506571D01*
X144435098Y-107379183D01*
X144461999Y-107243944D01*
X144462000Y-107243942D01*
X144462000Y-106875001D01*
X144461999Y-106875000D01*
X144062000Y-106875000D01*
X144062000Y-106675000D01*
X144461999Y-106675000D01*
X144462000Y-106674999D01*
X144462000Y-106306057D01*
X144461999Y-106306055D01*
X151702000Y-106306055D01*
X151702000Y-106674999D01*
X151702001Y-106675000D01*
X152102000Y-106675000D01*
X152102000Y-106875000D01*
X151702001Y-106875000D01*
X151702000Y-106875001D01*
X151702000Y-107243944D01*
X151728901Y-107379183D01*
X151781666Y-107506571D01*
X151858271Y-107621220D01*
X151955779Y-107718728D01*
X152070428Y-107795333D01*
X152197817Y-107848098D01*
X152302000Y-107868822D01*
X152302000Y-107458788D01*
X152362504Y-107475000D01*
X152441496Y-107475000D01*
X152502000Y-107458788D01*
X152502000Y-107868821D01*
X152606181Y-107848098D01*
X152606183Y-107848098D01*
X152733571Y-107795333D01*
X152848220Y-107718728D01*
X152945728Y-107621220D01*
X153022333Y-107506571D01*
X153075098Y-107379183D01*
X153101999Y-107243944D01*
X153102000Y-107243942D01*
X153102000Y-106875001D01*
X153101999Y-106875000D01*
X152702000Y-106875000D01*
X152702000Y-106675000D01*
X153101999Y-106675000D01*
X153102000Y-106674999D01*
X153102000Y-106500001D01*
X153900001Y-106500001D01*
X153900001Y-106631485D01*
X153914833Y-106725141D01*
X153914836Y-106725151D01*
X153972358Y-106838043D01*
X154061956Y-106927641D01*
X154174848Y-106985163D01*
X154174852Y-106985164D01*
X154268515Y-106999999D01*
X154999998Y-106999999D01*
X155000000Y-106999998D01*
X155000000Y-106500001D01*
X155200000Y-106500001D01*
X155200000Y-106999998D01*
X155200001Y-106999999D01*
X155931483Y-106999999D01*
X155931485Y-106999998D01*
X156025141Y-106985166D01*
X156025151Y-106985163D01*
X156138043Y-106927641D01*
X156227641Y-106838043D01*
X156285163Y-106725151D01*
X156285164Y-106725147D01*
X156300000Y-106631484D01*
X156300000Y-106500001D01*
X156299999Y-106500000D01*
X155200001Y-106500000D01*
X155200000Y-106500001D01*
X155000000Y-106500001D01*
X154999999Y-106500000D01*
X153900002Y-106500000D01*
X153900001Y-106500001D01*
X153102000Y-106500001D01*
X153102000Y-106306057D01*
X153101999Y-106306055D01*
X153075098Y-106170816D01*
X153074145Y-106168515D01*
X153900000Y-106168515D01*
X153900000Y-106299999D01*
X153900001Y-106300000D01*
X154999999Y-106300000D01*
X155000000Y-106299999D01*
X155000000Y-105800001D01*
X155200000Y-105800001D01*
X155200000Y-106299999D01*
X155200001Y-106300000D01*
X156299998Y-106300000D01*
X156299999Y-106299999D01*
X156299999Y-106168516D01*
X156299998Y-106168514D01*
X156285166Y-106074858D01*
X156285163Y-106074848D01*
X156227641Y-105961956D01*
X156138043Y-105872358D01*
X156025151Y-105814836D01*
X156025147Y-105814835D01*
X155931484Y-105800000D01*
X155200001Y-105800000D01*
X155200000Y-105800001D01*
X155000000Y-105800001D01*
X154999999Y-105800000D01*
X154268516Y-105800000D01*
X154268514Y-105800001D01*
X154174858Y-105814833D01*
X154174848Y-105814836D01*
X154061956Y-105872358D01*
X153972358Y-105961956D01*
X153914836Y-106074848D01*
X153914835Y-106074852D01*
X153900000Y-106168515D01*
X153074145Y-106168515D01*
X153022333Y-106043428D01*
X152945728Y-105928779D01*
X152848220Y-105831271D01*
X152733571Y-105754666D01*
X152606182Y-105701901D01*
X152502000Y-105681177D01*
X152502000Y-106091211D01*
X152441496Y-106075000D01*
X152362504Y-106075000D01*
X152302000Y-106091211D01*
X152302000Y-105681177D01*
X152197817Y-105701901D01*
X152070428Y-105754666D01*
X151955779Y-105831271D01*
X151858271Y-105928779D01*
X151781666Y-106043428D01*
X151728901Y-106170816D01*
X151702000Y-106306055D01*
X144461999Y-106306055D01*
X144435098Y-106170816D01*
X144382333Y-106043428D01*
X144305728Y-105928779D01*
X144208220Y-105831271D01*
X144093571Y-105754666D01*
X143966182Y-105701901D01*
X143862000Y-105681177D01*
X143862000Y-106091211D01*
X143801496Y-106075000D01*
X143722504Y-106075000D01*
X143662000Y-106091211D01*
X143662000Y-105681177D01*
X143557817Y-105701901D01*
X143430428Y-105754666D01*
X143315779Y-105831271D01*
X143218271Y-105928779D01*
X143141666Y-106043428D01*
X143088901Y-106170816D01*
X143062000Y-106306055D01*
X132788500Y-106306055D01*
X132788500Y-106168515D01*
X139800000Y-106168515D01*
X139800000Y-106299999D01*
X139800001Y-106300000D01*
X140899999Y-106300000D01*
X140900000Y-106299999D01*
X140900000Y-105800001D01*
X141100000Y-105800001D01*
X141100000Y-106299999D01*
X141100001Y-106300000D01*
X142199998Y-106300000D01*
X142199999Y-106299999D01*
X142199999Y-106168516D01*
X142199998Y-106168514D01*
X142185166Y-106074858D01*
X142185163Y-106074848D01*
X142127641Y-105961956D01*
X142038043Y-105872358D01*
X141925151Y-105814836D01*
X141925147Y-105814835D01*
X141831484Y-105800000D01*
X141100001Y-105800000D01*
X141100000Y-105800001D01*
X140900000Y-105800001D01*
X140899999Y-105800000D01*
X140168516Y-105800000D01*
X140168514Y-105800001D01*
X140074858Y-105814833D01*
X140074848Y-105814836D01*
X139961956Y-105872358D01*
X139872358Y-105961956D01*
X139814836Y-106074848D01*
X139814835Y-106074852D01*
X139800000Y-106168515D01*
X132788500Y-106168515D01*
X132788500Y-102007999D01*
X133066767Y-102007999D01*
X133066768Y-102008000D01*
X133621157Y-102008000D01*
X133612000Y-102042174D01*
X133612000Y-102173826D01*
X133621157Y-102208000D01*
X133066767Y-102208000D01*
X133077190Y-102313831D01*
X133077191Y-102313836D01*
X133137232Y-102511762D01*
X133137234Y-102511767D01*
X133234724Y-102694160D01*
X133234731Y-102694170D01*
X133365940Y-102854050D01*
X133365949Y-102854059D01*
X133525829Y-102985268D01*
X133525839Y-102985275D01*
X133708232Y-103082765D01*
X133708237Y-103082767D01*
X133906166Y-103142808D01*
X134011998Y-103153231D01*
X134012000Y-103153230D01*
X134012000Y-102598842D01*
X134046174Y-102608000D01*
X134177826Y-102608000D01*
X134212000Y-102598842D01*
X134212000Y-103153230D01*
X134212001Y-103153231D01*
X134317833Y-103142808D01*
X134515762Y-103082767D01*
X134515767Y-103082765D01*
X134698160Y-102985275D01*
X134698170Y-102985268D01*
X134858050Y-102854059D01*
X134858059Y-102854050D01*
X134989268Y-102694170D01*
X134989275Y-102694160D01*
X135086765Y-102511767D01*
X135086767Y-102511762D01*
X135146808Y-102313836D01*
X135146809Y-102313831D01*
X135157232Y-102208000D01*
X134602843Y-102208000D01*
X134612000Y-102173826D01*
X134612000Y-102042174D01*
X134602843Y-102008000D01*
X135157232Y-102008000D01*
X135157232Y-102007999D01*
X135146809Y-101902168D01*
X135146808Y-101902163D01*
X135086767Y-101704237D01*
X135086765Y-101704232D01*
X134989275Y-101521839D01*
X134989268Y-101521829D01*
X134858059Y-101361949D01*
X134858050Y-101361940D01*
X134698170Y-101230731D01*
X134698160Y-101230724D01*
X134515767Y-101133234D01*
X134515762Y-101133232D01*
X134317836Y-101073191D01*
X134317831Y-101073190D01*
X134212000Y-101062767D01*
X134212000Y-101617157D01*
X134177826Y-101608000D01*
X134046174Y-101608000D01*
X134012000Y-101617157D01*
X134012000Y-101062767D01*
X134011999Y-101062767D01*
X133906168Y-101073190D01*
X133906163Y-101073191D01*
X133708237Y-101133232D01*
X133708232Y-101133234D01*
X133525839Y-101230724D01*
X133525829Y-101230731D01*
X133365949Y-101361940D01*
X133365940Y-101361949D01*
X133234731Y-101521829D01*
X133234724Y-101521839D01*
X133137234Y-101704232D01*
X133137232Y-101704237D01*
X133077191Y-101902163D01*
X133077190Y-101902168D01*
X133066767Y-102007999D01*
X132788500Y-102007999D01*
X132788500Y-99567996D01*
X133056417Y-99567996D01*
X133056417Y-99568003D01*
X133076698Y-99773929D01*
X133076699Y-99773934D01*
X133136768Y-99971954D01*
X133234316Y-100154452D01*
X133317892Y-100256290D01*
X133365590Y-100314410D01*
X133365595Y-100314414D01*
X133525547Y-100445683D01*
X133525548Y-100445683D01*
X133525550Y-100445685D01*
X133708046Y-100543232D01*
X133834332Y-100581540D01*
X133906065Y-100603300D01*
X133906070Y-100603301D01*
X134111997Y-100623583D01*
X134112000Y-100623583D01*
X134112003Y-100623583D01*
X134317929Y-100603301D01*
X134317934Y-100603300D01*
X134353138Y-100592621D01*
X134515954Y-100543232D01*
X134698450Y-100445685D01*
X134858410Y-100314410D01*
X134989685Y-100154450D01*
X135087232Y-99971954D01*
X135147300Y-99773934D01*
X135147301Y-99773929D01*
X135167583Y-99568003D01*
X135167583Y-99567996D01*
X135147301Y-99362070D01*
X135147300Y-99362065D01*
X135123008Y-99281985D01*
X135087232Y-99164046D01*
X134989685Y-98981550D01*
X134971909Y-98959890D01*
X134858414Y-98821595D01*
X134858410Y-98821590D01*
X134807369Y-98779702D01*
X134698452Y-98690316D01*
X134515954Y-98592768D01*
X134317934Y-98532699D01*
X134317929Y-98532698D01*
X134112003Y-98512417D01*
X134111997Y-98512417D01*
X133906070Y-98532698D01*
X133906065Y-98532699D01*
X133708045Y-98592768D01*
X133525547Y-98690316D01*
X133365595Y-98821585D01*
X133365585Y-98821595D01*
X133234316Y-98981547D01*
X133136768Y-99164045D01*
X133076699Y-99362065D01*
X133076698Y-99362070D01*
X133056417Y-99567996D01*
X132788500Y-99567996D01*
X132788500Y-97027996D01*
X133056417Y-97027996D01*
X133056417Y-97028003D01*
X133076698Y-97233929D01*
X133076699Y-97233934D01*
X133136768Y-97431954D01*
X133234316Y-97614452D01*
X133320772Y-97719799D01*
X133365590Y-97774410D01*
X133387777Y-97792618D01*
X133525547Y-97905683D01*
X133525548Y-97905683D01*
X133525550Y-97905685D01*
X133708046Y-98003232D01*
X133845997Y-98045078D01*
X133906065Y-98063300D01*
X133906070Y-98063301D01*
X134111997Y-98083583D01*
X134112000Y-98083583D01*
X134112003Y-98083583D01*
X134317929Y-98063301D01*
X134317934Y-98063300D01*
X134333655Y-98058531D01*
X134515954Y-98003232D01*
X134698450Y-97905685D01*
X134858410Y-97774410D01*
X134989685Y-97614450D01*
X135087232Y-97431954D01*
X135147300Y-97233934D01*
X135147301Y-97233929D01*
X135167583Y-97028003D01*
X135167583Y-97027996D01*
X135147301Y-96822070D01*
X135147300Y-96822065D01*
X135108786Y-96695101D01*
X135087232Y-96624046D01*
X134989685Y-96441550D01*
X134858410Y-96281590D01*
X134758992Y-96200000D01*
X134698452Y-96150316D01*
X134515954Y-96052768D01*
X134317934Y-95992699D01*
X134317929Y-95992698D01*
X134112003Y-95972417D01*
X134111997Y-95972417D01*
X133906070Y-95992698D01*
X133906065Y-95992699D01*
X133708045Y-96052768D01*
X133525547Y-96150316D01*
X133365595Y-96281585D01*
X133365585Y-96281595D01*
X133234316Y-96441547D01*
X133136768Y-96624045D01*
X133076699Y-96822065D01*
X133076698Y-96822070D01*
X133056417Y-97027996D01*
X132788500Y-97027996D01*
X132788500Y-84327996D01*
X133056417Y-84327996D01*
X133056417Y-84328003D01*
X133076698Y-84533929D01*
X133076699Y-84533934D01*
X133136768Y-84731954D01*
X133234316Y-84914452D01*
X133263900Y-84950500D01*
X133365590Y-85074410D01*
X133365595Y-85074414D01*
X133525547Y-85205683D01*
X133525548Y-85205683D01*
X133525550Y-85205685D01*
X133708046Y-85303232D01*
X133823104Y-85338134D01*
X133906065Y-85363300D01*
X133906070Y-85363301D01*
X134111997Y-85383583D01*
X134112000Y-85383583D01*
X134112003Y-85383583D01*
X134317929Y-85363301D01*
X134317934Y-85363300D01*
X134515954Y-85303232D01*
X134698450Y-85205685D01*
X134799206Y-85122996D01*
X134856183Y-85100697D01*
X134915386Y-85116146D01*
X134954201Y-85163442D01*
X134961011Y-85199525D01*
X134961011Y-85553010D01*
X134942104Y-85611201D01*
X134932014Y-85623014D01*
X134663215Y-85891812D01*
X134608699Y-85919589D01*
X134548267Y-85910018D01*
X134546544Y-85909118D01*
X134515959Y-85892770D01*
X134515954Y-85892768D01*
X134317934Y-85832699D01*
X134317929Y-85832698D01*
X134112003Y-85812417D01*
X134111997Y-85812417D01*
X133906070Y-85832698D01*
X133906065Y-85832699D01*
X133708045Y-85892768D01*
X133525547Y-85990316D01*
X133365595Y-86121585D01*
X133365585Y-86121595D01*
X133234316Y-86281547D01*
X133136768Y-86464045D01*
X133076699Y-86662065D01*
X133076698Y-86662070D01*
X133056417Y-86867996D01*
X133056417Y-86868003D01*
X133076698Y-87073929D01*
X133076699Y-87073934D01*
X133136768Y-87271954D01*
X133234316Y-87454452D01*
X133349633Y-87594966D01*
X133365590Y-87614410D01*
X133365595Y-87614414D01*
X133525547Y-87745683D01*
X133525548Y-87745683D01*
X133525550Y-87745685D01*
X133708046Y-87843232D01*
X133808230Y-87873622D01*
X133906065Y-87903300D01*
X133906070Y-87903301D01*
X134111997Y-87923583D01*
X134112000Y-87923583D01*
X134112003Y-87923583D01*
X134317929Y-87903301D01*
X134317934Y-87903300D01*
X134515954Y-87843232D01*
X134698450Y-87745685D01*
X134799206Y-87662996D01*
X134856183Y-87640697D01*
X134915386Y-87656146D01*
X134954201Y-87703442D01*
X134961011Y-87739525D01*
X134961011Y-88093010D01*
X134942104Y-88151201D01*
X134932014Y-88163014D01*
X134663215Y-88431812D01*
X134608699Y-88459589D01*
X134548267Y-88450018D01*
X134546544Y-88449118D01*
X134515959Y-88432770D01*
X134515954Y-88432768D01*
X134317934Y-88372699D01*
X134317929Y-88372698D01*
X134112003Y-88352417D01*
X134111997Y-88352417D01*
X133906070Y-88372698D01*
X133906065Y-88372699D01*
X133708045Y-88432768D01*
X133525547Y-88530316D01*
X133365595Y-88661585D01*
X133365585Y-88661595D01*
X133234316Y-88821547D01*
X133136768Y-89004045D01*
X133076699Y-89202065D01*
X133076698Y-89202070D01*
X133056417Y-89407996D01*
X133056417Y-89408003D01*
X133076698Y-89613929D01*
X133076699Y-89613934D01*
X133136768Y-89811954D01*
X133234316Y-89994452D01*
X133365585Y-90154404D01*
X133365590Y-90154410D01*
X133365595Y-90154414D01*
X133525547Y-90285683D01*
X133525548Y-90285683D01*
X133525550Y-90285685D01*
X133708046Y-90383232D01*
X133845997Y-90425078D01*
X133906065Y-90443300D01*
X133906070Y-90443301D01*
X134111997Y-90463583D01*
X134112000Y-90463583D01*
X134112003Y-90463583D01*
X134317929Y-90443301D01*
X134317934Y-90443300D01*
X134515954Y-90383232D01*
X134698450Y-90285685D01*
X134799206Y-90202996D01*
X134856183Y-90180697D01*
X134915386Y-90196146D01*
X134954201Y-90243442D01*
X134961011Y-90279525D01*
X134961011Y-90633010D01*
X134942104Y-90691201D01*
X134932014Y-90703014D01*
X134663215Y-90971812D01*
X134608699Y-90999589D01*
X134548267Y-90990018D01*
X134546544Y-90989118D01*
X134515959Y-90972770D01*
X134515954Y-90972768D01*
X134317934Y-90912699D01*
X134317929Y-90912698D01*
X134112003Y-90892417D01*
X134111997Y-90892417D01*
X133906070Y-90912698D01*
X133906065Y-90912699D01*
X133708045Y-90972768D01*
X133525547Y-91070316D01*
X133365595Y-91201585D01*
X133365585Y-91201595D01*
X133234316Y-91361547D01*
X133136768Y-91544045D01*
X133076699Y-91742065D01*
X133076698Y-91742070D01*
X133056417Y-91947996D01*
X133056417Y-91948003D01*
X133076698Y-92153929D01*
X133076699Y-92153934D01*
X133136768Y-92351954D01*
X133234316Y-92534452D01*
X133364289Y-92692825D01*
X133365590Y-92694410D01*
X133365595Y-92694414D01*
X133525547Y-92825683D01*
X133525548Y-92825683D01*
X133525550Y-92825685D01*
X133708046Y-92923232D01*
X133845997Y-92965078D01*
X133906065Y-92983300D01*
X133906070Y-92983301D01*
X134111997Y-93003583D01*
X134112000Y-93003583D01*
X134112003Y-93003583D01*
X134317929Y-92983301D01*
X134317934Y-92983300D01*
X134515954Y-92923232D01*
X134698450Y-92825685D01*
X134799206Y-92742996D01*
X134856183Y-92720697D01*
X134915386Y-92736146D01*
X134954201Y-92783442D01*
X134961011Y-92819525D01*
X134961011Y-93173010D01*
X134942104Y-93231201D01*
X134932014Y-93243014D01*
X134663215Y-93511812D01*
X134608699Y-93539589D01*
X134548267Y-93530018D01*
X134546544Y-93529118D01*
X134515959Y-93512770D01*
X134515954Y-93512768D01*
X134317934Y-93452699D01*
X134317929Y-93452698D01*
X134112003Y-93432417D01*
X134111997Y-93432417D01*
X133906070Y-93452698D01*
X133906065Y-93452699D01*
X133708045Y-93512768D01*
X133525547Y-93610316D01*
X133365595Y-93741585D01*
X133365585Y-93741595D01*
X133234316Y-93901547D01*
X133136768Y-94084045D01*
X133076699Y-94282065D01*
X133076698Y-94282070D01*
X133056417Y-94487996D01*
X133056417Y-94488003D01*
X133076698Y-94693929D01*
X133076699Y-94693934D01*
X133136768Y-94891954D01*
X133234316Y-95074452D01*
X133365585Y-95234404D01*
X133365590Y-95234410D01*
X133365595Y-95234414D01*
X133525547Y-95365683D01*
X133525548Y-95365683D01*
X133525550Y-95365685D01*
X133708046Y-95463232D01*
X133845997Y-95505078D01*
X133906065Y-95523300D01*
X133906070Y-95523301D01*
X134111997Y-95543583D01*
X134112000Y-95543583D01*
X134112003Y-95543583D01*
X134317929Y-95523301D01*
X134317934Y-95523300D01*
X134515954Y-95463232D01*
X134698450Y-95365685D01*
X134858410Y-95234410D01*
X134989685Y-95074450D01*
X135087232Y-94891954D01*
X135147300Y-94693934D01*
X135147301Y-94693929D01*
X135167583Y-94488003D01*
X135167583Y-94487996D01*
X135147301Y-94282070D01*
X135147300Y-94282065D01*
X135129078Y-94221997D01*
X135087232Y-94084046D01*
X135070880Y-94053453D01*
X135060123Y-93993223D01*
X135086824Y-93938171D01*
X135088128Y-93936841D01*
X135501971Y-93523000D01*
X135531395Y-93472036D01*
X135541532Y-93454478D01*
X135562011Y-93378051D01*
X135562011Y-93375001D01*
X135900000Y-93375001D01*
X135900000Y-93744700D01*
X135911603Y-93803036D01*
X135955806Y-93869189D01*
X135955810Y-93869193D01*
X136021963Y-93913396D01*
X136080299Y-93924999D01*
X136080303Y-93925000D01*
X136649999Y-93925000D01*
X136650000Y-93924999D01*
X136650000Y-93375001D01*
X136649999Y-93375000D01*
X135900001Y-93375000D01*
X135900000Y-93375001D01*
X135562011Y-93375001D01*
X135562011Y-92805299D01*
X135900000Y-92805299D01*
X135900000Y-93174999D01*
X135900001Y-93175000D01*
X136649999Y-93175000D01*
X136650000Y-93174999D01*
X136650000Y-92625001D01*
X136649999Y-92625000D01*
X136080299Y-92625000D01*
X136021963Y-92636603D01*
X135955810Y-92680806D01*
X135955806Y-92680810D01*
X135911603Y-92746963D01*
X135900000Y-92805299D01*
X135562011Y-92805299D01*
X135562011Y-91528973D01*
X135580918Y-91470782D01*
X135591001Y-91458975D01*
X135730498Y-91319478D01*
X135785013Y-91291703D01*
X135845445Y-91301274D01*
X135888710Y-91344539D01*
X135899500Y-91389484D01*
X135899500Y-92244746D01*
X135899501Y-92244758D01*
X135911132Y-92303227D01*
X135911134Y-92303233D01*
X135955445Y-92369548D01*
X135955448Y-92369552D01*
X136021769Y-92413867D01*
X136065849Y-92422635D01*
X136080241Y-92425498D01*
X136080246Y-92425498D01*
X136080252Y-92425500D01*
X136080253Y-92425500D01*
X137419747Y-92425500D01*
X137419748Y-92425500D01*
X137478231Y-92413867D01*
X137544552Y-92369552D01*
X137552637Y-92357451D01*
X137600683Y-92319572D01*
X137661821Y-92317168D01*
X137689953Y-92330136D01*
X137755031Y-92373620D01*
X137877964Y-92424540D01*
X137881790Y-92425301D01*
X137894867Y-92427903D01*
X137948250Y-92457800D01*
X137973865Y-92513365D01*
X137961927Y-92573375D01*
X137916997Y-92614907D01*
X137894867Y-92622097D01*
X137877970Y-92625458D01*
X137877962Y-92625460D01*
X137755032Y-92676378D01*
X137689538Y-92720140D01*
X137630649Y-92736748D01*
X137573246Y-92715570D01*
X137552221Y-92692825D01*
X137544192Y-92680809D01*
X137544189Y-92680806D01*
X137478036Y-92636603D01*
X137419700Y-92625000D01*
X136850001Y-92625000D01*
X136850000Y-92625001D01*
X136850000Y-93050735D01*
X136809940Y-93090795D01*
X136770444Y-93159204D01*
X136750000Y-93235504D01*
X136750000Y-93314496D01*
X136770444Y-93390796D01*
X136809940Y-93459205D01*
X136850000Y-93499265D01*
X136850000Y-93924999D01*
X136850001Y-93925000D01*
X137419697Y-93925000D01*
X137419700Y-93924999D01*
X137478036Y-93913396D01*
X137544189Y-93869193D01*
X137544192Y-93869190D01*
X137552220Y-93857176D01*
X137600269Y-93819295D01*
X137661407Y-93816891D01*
X137689537Y-93829858D01*
X137755031Y-93873620D01*
X137755032Y-93873620D01*
X137755033Y-93873621D01*
X137816497Y-93899080D01*
X137877964Y-93924540D01*
X138008469Y-93950500D01*
X138008470Y-93950500D01*
X139191530Y-93950500D01*
X139191531Y-93950500D01*
X139322036Y-93924540D01*
X139444969Y-93873620D01*
X139555606Y-93799695D01*
X139649695Y-93705606D01*
X139723620Y-93594969D01*
X139774540Y-93472036D01*
X139800500Y-93341531D01*
X139800500Y-93208469D01*
X139774540Y-93077964D01*
X139743731Y-93003583D01*
X139723621Y-92955033D01*
X139702372Y-92923232D01*
X139649695Y-92844394D01*
X139555606Y-92750305D01*
X139550604Y-92746963D01*
X139444966Y-92676378D01*
X139322037Y-92625460D01*
X139315770Y-92624213D01*
X139305132Y-92622097D01*
X139251750Y-92592201D01*
X139226134Y-92536635D01*
X139238071Y-92476626D01*
X139283001Y-92435094D01*
X139305130Y-92427902D01*
X139322036Y-92424540D01*
X139444969Y-92373620D01*
X139555606Y-92299695D01*
X139649695Y-92205606D01*
X139723620Y-92094969D01*
X139774540Y-91972036D01*
X139800500Y-91841531D01*
X139800500Y-91708469D01*
X139774540Y-91577964D01*
X139723620Y-91455031D01*
X139649695Y-91344394D01*
X139555606Y-91250305D01*
X139444969Y-91176380D01*
X139444968Y-91176379D01*
X139444966Y-91176378D01*
X139322037Y-91125460D01*
X139315770Y-91124213D01*
X139305132Y-91122097D01*
X139251750Y-91092201D01*
X139226134Y-91036635D01*
X139238071Y-90976626D01*
X139283001Y-90935094D01*
X139305130Y-90927902D01*
X139322036Y-90924540D01*
X139444969Y-90873620D01*
X139555606Y-90799695D01*
X139649695Y-90705606D01*
X139723620Y-90594969D01*
X139774540Y-90472036D01*
X139800500Y-90341531D01*
X139800500Y-90208469D01*
X139774540Y-90077964D01*
X139723620Y-89955031D01*
X139649695Y-89844394D01*
X139555606Y-89750305D01*
X139444969Y-89676380D01*
X139444968Y-89676379D01*
X139444966Y-89676378D01*
X139322037Y-89625460D01*
X139315770Y-89624213D01*
X139305132Y-89622097D01*
X139251750Y-89592201D01*
X139226134Y-89536635D01*
X139238071Y-89476626D01*
X139283001Y-89435094D01*
X139305130Y-89427902D01*
X139322036Y-89424540D01*
X139444969Y-89373620D01*
X139555606Y-89299695D01*
X139649695Y-89205606D01*
X139723620Y-89094969D01*
X139774540Y-88972036D01*
X139800500Y-88841531D01*
X139800500Y-88708469D01*
X139774540Y-88577964D01*
X139723620Y-88455031D01*
X139649695Y-88344394D01*
X139555606Y-88250305D01*
X139444969Y-88176380D01*
X139444968Y-88176379D01*
X139444966Y-88176378D01*
X139322037Y-88125460D01*
X139315770Y-88124213D01*
X139305132Y-88122097D01*
X139251750Y-88092201D01*
X139226134Y-88036635D01*
X139238071Y-87976626D01*
X139283001Y-87935094D01*
X139305130Y-87927902D01*
X139322036Y-87924540D01*
X139444969Y-87873620D01*
X139555606Y-87799695D01*
X139649695Y-87705606D01*
X139723620Y-87594969D01*
X139774540Y-87472036D01*
X139800500Y-87341531D01*
X139800500Y-87208469D01*
X139774540Y-87077964D01*
X139742238Y-86999979D01*
X139723621Y-86955033D01*
X139717587Y-86946003D01*
X139649695Y-86844394D01*
X139555606Y-86750305D01*
X139550318Y-86746772D01*
X139444966Y-86676378D01*
X139322037Y-86625460D01*
X139315770Y-86624213D01*
X139305132Y-86622097D01*
X139251750Y-86592201D01*
X139226134Y-86536635D01*
X139238071Y-86476626D01*
X139283001Y-86435094D01*
X139305130Y-86427902D01*
X139322036Y-86424540D01*
X139444969Y-86373620D01*
X139555606Y-86299695D01*
X139649695Y-86205606D01*
X139723620Y-86094969D01*
X139774540Y-85972036D01*
X139800500Y-85841531D01*
X139800500Y-85708469D01*
X139774540Y-85577964D01*
X139742238Y-85499979D01*
X139723621Y-85455033D01*
X139719049Y-85448191D01*
X139649695Y-85344394D01*
X139555606Y-85250305D01*
X139550318Y-85246772D01*
X139444966Y-85176378D01*
X139322037Y-85125460D01*
X139315770Y-85124213D01*
X139305132Y-85122097D01*
X139251750Y-85092201D01*
X139226134Y-85036635D01*
X139238071Y-84976626D01*
X139283001Y-84935094D01*
X139305130Y-84927902D01*
X139322036Y-84924540D01*
X139444969Y-84873620D01*
X139555606Y-84799695D01*
X139649695Y-84705606D01*
X139723620Y-84594969D01*
X139774540Y-84472036D01*
X139800500Y-84341531D01*
X139800500Y-84208469D01*
X139774540Y-84077964D01*
X139742238Y-83999979D01*
X139723621Y-83955033D01*
X139702916Y-83924046D01*
X139649695Y-83844394D01*
X139555606Y-83750305D01*
X139550318Y-83746772D01*
X139444966Y-83676378D01*
X139322037Y-83625460D01*
X139315770Y-83624213D01*
X139305132Y-83622097D01*
X139251750Y-83592201D01*
X139226134Y-83536635D01*
X139238071Y-83476626D01*
X139283001Y-83435094D01*
X139305130Y-83427902D01*
X139322036Y-83424540D01*
X139444969Y-83373620D01*
X139555606Y-83299695D01*
X139649695Y-83205606D01*
X139650449Y-83204478D01*
X139707231Y-83119499D01*
X139755280Y-83081619D01*
X139789546Y-83075500D01*
X139809521Y-83075500D01*
X139867712Y-83094407D01*
X139879525Y-83104496D01*
X142270504Y-85495475D01*
X142298281Y-85549992D01*
X142299500Y-85565479D01*
X142299500Y-101694101D01*
X142280593Y-101752292D01*
X142231093Y-101788256D01*
X142169907Y-101788256D01*
X142130496Y-101764105D01*
X142128051Y-101761660D01*
X142128050Y-101761658D01*
X142038342Y-101671950D01*
X141925304Y-101614354D01*
X141925305Y-101614354D01*
X141831522Y-101599500D01*
X141831519Y-101599500D01*
X141414655Y-101599500D01*
X141356464Y-101580593D01*
X141320500Y-101531093D01*
X141320500Y-101469907D01*
X141354388Y-101421958D01*
X141392621Y-101392621D01*
X141480861Y-101277625D01*
X141536330Y-101143709D01*
X141555250Y-101000000D01*
X141552967Y-100982663D01*
X141536330Y-100856291D01*
X141480861Y-100722375D01*
X141392621Y-100607379D01*
X141277625Y-100519139D01*
X141277621Y-100519137D01*
X141143709Y-100463670D01*
X141143708Y-100463669D01*
X141000000Y-100444750D01*
X140856291Y-100463669D01*
X140856290Y-100463670D01*
X140722378Y-100519137D01*
X140722374Y-100519139D01*
X140607381Y-100607377D01*
X140607377Y-100607381D01*
X140519139Y-100722374D01*
X140519137Y-100722378D01*
X140463670Y-100856290D01*
X140463669Y-100856291D01*
X140444750Y-100999999D01*
X140444750Y-101000000D01*
X140463669Y-101143708D01*
X140463670Y-101143709D01*
X140518864Y-101276963D01*
X140519139Y-101277625D01*
X140607379Y-101392621D01*
X140645612Y-101421958D01*
X140680267Y-101472383D01*
X140678665Y-101533547D01*
X140641418Y-101582089D01*
X140585344Y-101599500D01*
X140168479Y-101599500D01*
X140168476Y-101599501D01*
X140074700Y-101614352D01*
X140074695Y-101614354D01*
X139961659Y-101671949D01*
X139871949Y-101761659D01*
X139814354Y-101874695D01*
X139799500Y-101968477D01*
X139799500Y-102431520D01*
X139799501Y-102431523D01*
X139814352Y-102525299D01*
X139814354Y-102525304D01*
X139871950Y-102638342D01*
X139961658Y-102728050D01*
X140074696Y-102785646D01*
X140168481Y-102800500D01*
X141831518Y-102800499D01*
X141831521Y-102800499D01*
X141831522Y-102800498D01*
X141878411Y-102793072D01*
X141925299Y-102785647D01*
X141925299Y-102785646D01*
X141925304Y-102785646D01*
X142038342Y-102728050D01*
X142128050Y-102638342D01*
X142128051Y-102638339D01*
X142130496Y-102635895D01*
X142185013Y-102608118D01*
X142245445Y-102617689D01*
X142288710Y-102660954D01*
X142299500Y-102705899D01*
X142299500Y-103239564D01*
X142319978Y-103315988D01*
X142340544Y-103351608D01*
X142340546Y-103351611D01*
X142356946Y-103380019D01*
X142359540Y-103384511D01*
X143559540Y-104584511D01*
X143559539Y-104584511D01*
X143615489Y-104640460D01*
X143684007Y-104680019D01*
X143684011Y-104680021D01*
X143760435Y-104700499D01*
X143760437Y-104700500D01*
X143760438Y-104700500D01*
X153239563Y-104700500D01*
X153239563Y-104700499D01*
X153315989Y-104680021D01*
X153384511Y-104640460D01*
X153440460Y-104584511D01*
X155195475Y-102829494D01*
X155249992Y-102801718D01*
X155265479Y-102800499D01*
X155931521Y-102800499D01*
X155931522Y-102800498D01*
X155978411Y-102793072D01*
X156025299Y-102785647D01*
X156025299Y-102785646D01*
X156025304Y-102785646D01*
X156138342Y-102728050D01*
X156228050Y-102638342D01*
X156285646Y-102525304D01*
X156300500Y-102431519D01*
X156300499Y-101968482D01*
X156289981Y-101902066D01*
X156285647Y-101874700D01*
X156285646Y-101874698D01*
X156285646Y-101874696D01*
X156228050Y-101761658D01*
X156155893Y-101689501D01*
X156128118Y-101634987D01*
X156137689Y-101574555D01*
X156180954Y-101531290D01*
X156225899Y-101520500D01*
X156284314Y-101520500D01*
X156284316Y-101520500D01*
X156333173Y-101514068D01*
X156440404Y-101464065D01*
X156524065Y-101380404D01*
X156574068Y-101273173D01*
X156580500Y-101224316D01*
X156580500Y-101085477D01*
X156599407Y-101027286D01*
X156609491Y-101015478D01*
X156650356Y-100974613D01*
X156704870Y-100946837D01*
X156733275Y-100946465D01*
X156800000Y-100955250D01*
X156943709Y-100936330D01*
X157077625Y-100880861D01*
X157192621Y-100792621D01*
X157280861Y-100677625D01*
X157336330Y-100543709D01*
X157355250Y-100400000D01*
X157336330Y-100256291D01*
X157280861Y-100122375D01*
X157192621Y-100007379D01*
X157077625Y-99919139D01*
X157077621Y-99919137D01*
X156943709Y-99863670D01*
X156943708Y-99863669D01*
X156800000Y-99844750D01*
X156656291Y-99863669D01*
X156656290Y-99863670D01*
X156522378Y-99919137D01*
X156522374Y-99919139D01*
X156407381Y-100007377D01*
X156407377Y-100007381D01*
X156319139Y-100122374D01*
X156319137Y-100122378D01*
X156263670Y-100256290D01*
X156263669Y-100256291D01*
X156245616Y-100393422D01*
X156219275Y-100448647D01*
X156165504Y-100477842D01*
X156147463Y-100479500D01*
X155935684Y-100479500D01*
X155919398Y-100481644D01*
X155886825Y-100485932D01*
X155886824Y-100485932D01*
X155779598Y-100535933D01*
X155695933Y-100619598D01*
X155689724Y-100632915D01*
X155647995Y-100677663D01*
X155587934Y-100689337D01*
X155532482Y-100663478D01*
X155510276Y-100632915D01*
X155504066Y-100619598D01*
X155504065Y-100619597D01*
X155504065Y-100619596D01*
X155420404Y-100535935D01*
X155420402Y-100535934D01*
X155420401Y-100535933D01*
X155313175Y-100485932D01*
X155280601Y-100481644D01*
X155264316Y-100479500D01*
X154915684Y-100479500D01*
X154899398Y-100481644D01*
X154866825Y-100485932D01*
X154866824Y-100485932D01*
X154759598Y-100535933D01*
X154675933Y-100619598D01*
X154625932Y-100726824D01*
X154625932Y-100726825D01*
X154619500Y-100775685D01*
X154619500Y-101224314D01*
X154625932Y-101273174D01*
X154625932Y-101273175D01*
X154675933Y-101380401D01*
X154675934Y-101380402D01*
X154675935Y-101380404D01*
X154726029Y-101430498D01*
X154753805Y-101485013D01*
X154744234Y-101545445D01*
X154700969Y-101588710D01*
X154656024Y-101599500D01*
X154268479Y-101599500D01*
X154268476Y-101599501D01*
X154174700Y-101614352D01*
X154174695Y-101614354D01*
X154061659Y-101671949D01*
X153971949Y-101761659D01*
X153914354Y-101874695D01*
X153899500Y-101968477D01*
X153899500Y-102431520D01*
X153899501Y-102431523D01*
X153914352Y-102525299D01*
X153914354Y-102525304D01*
X153971950Y-102638342D01*
X154061658Y-102728050D01*
X154174696Y-102785646D01*
X154174700Y-102785646D01*
X154182104Y-102788053D01*
X154181077Y-102791213D01*
X154222604Y-102812348D01*
X154250408Y-102866851D01*
X154240865Y-102927288D01*
X154222638Y-102952389D01*
X153104525Y-104070504D01*
X153050008Y-104098281D01*
X153034521Y-104099500D01*
X149741479Y-104099500D01*
X149683288Y-104080593D01*
X149647324Y-104031093D01*
X149647324Y-103969907D01*
X149671475Y-103930497D01*
X150289260Y-103312710D01*
X150343777Y-103284932D01*
X150404209Y-103294503D01*
X150445000Y-103333212D01*
X150495661Y-103420958D01*
X150511485Y-103448365D01*
X150618635Y-103555515D01*
X150618637Y-103555516D01*
X150618639Y-103555518D01*
X150749861Y-103631279D01*
X150749859Y-103631279D01*
X150749863Y-103631280D01*
X150749865Y-103631281D01*
X150896234Y-103670500D01*
X150896236Y-103670500D01*
X151047764Y-103670500D01*
X151047766Y-103670500D01*
X151194135Y-103631281D01*
X151194137Y-103631279D01*
X151194139Y-103631279D01*
X151325360Y-103555518D01*
X151325360Y-103555517D01*
X151325365Y-103555515D01*
X151432515Y-103448365D01*
X151508281Y-103317135D01*
X151523636Y-103259826D01*
X151556958Y-103208514D01*
X151614079Y-103186587D01*
X151673180Y-103202422D01*
X151711686Y-103249971D01*
X151716360Y-103266136D01*
X151728901Y-103329183D01*
X151781666Y-103456571D01*
X151858271Y-103571220D01*
X151955779Y-103668728D01*
X152070428Y-103745333D01*
X152197817Y-103798098D01*
X152302000Y-103818822D01*
X152302000Y-103408788D01*
X152362504Y-103425000D01*
X152441496Y-103425000D01*
X152502000Y-103408788D01*
X152502000Y-103818821D01*
X152606181Y-103798098D01*
X152606183Y-103798098D01*
X152733571Y-103745333D01*
X152848220Y-103668728D01*
X152945728Y-103571220D01*
X153022333Y-103456571D01*
X153075098Y-103329183D01*
X153101999Y-103193944D01*
X153102000Y-103193942D01*
X153102000Y-102675001D01*
X153101999Y-102675000D01*
X152702000Y-102675000D01*
X152702000Y-102475000D01*
X153101999Y-102475000D01*
X153102000Y-102474999D01*
X153102000Y-101956057D01*
X153101999Y-101956055D01*
X153075098Y-101820816D01*
X153022333Y-101693428D01*
X152945728Y-101578779D01*
X152848220Y-101481271D01*
X152733571Y-101404666D01*
X152606182Y-101351901D01*
X152502000Y-101331177D01*
X152502000Y-101741211D01*
X152441496Y-101725000D01*
X152362504Y-101725000D01*
X152302000Y-101741211D01*
X152302000Y-101331177D01*
X152197817Y-101351901D01*
X152070428Y-101404666D01*
X151955779Y-101481271D01*
X151951004Y-101486047D01*
X151896487Y-101513824D01*
X151836055Y-101504253D01*
X151792790Y-101460988D01*
X151782000Y-101416043D01*
X151782000Y-101335302D01*
X151781999Y-101335299D01*
X151770396Y-101276963D01*
X151726193Y-101210810D01*
X151726189Y-101210806D01*
X151660036Y-101166603D01*
X151601700Y-101155000D01*
X151382001Y-101155000D01*
X151382000Y-101155001D01*
X151382000Y-101976000D01*
X151363093Y-102034191D01*
X151313593Y-102070155D01*
X151283000Y-102075000D01*
X151081500Y-102075000D01*
X151023309Y-102056093D01*
X150987345Y-102006593D01*
X150982500Y-101976000D01*
X150982500Y-101974000D01*
X151001407Y-101915809D01*
X151050907Y-101879845D01*
X151081500Y-101875000D01*
X151181999Y-101875000D01*
X151182000Y-101874999D01*
X151182000Y-101155001D01*
X151181999Y-101155000D01*
X150962297Y-101155000D01*
X150902593Y-101166876D01*
X150863969Y-101166876D01*
X150862189Y-101166522D01*
X150808804Y-101136628D01*
X150783187Y-101081064D01*
X150782500Y-101069424D01*
X150782500Y-100533478D01*
X150801407Y-100475287D01*
X150811490Y-100463480D01*
X151295475Y-99979494D01*
X151349992Y-99951718D01*
X151365479Y-99950499D01*
X151549175Y-99950499D01*
X151549178Y-99950499D01*
X151594760Y-99944499D01*
X151594761Y-99944499D01*
X151649149Y-99919137D01*
X151694799Y-99897850D01*
X151772850Y-99819799D01*
X151819499Y-99719760D01*
X151825500Y-99674179D01*
X151825499Y-99225822D01*
X151819499Y-99180240D01*
X151819499Y-99180238D01*
X151772851Y-99080203D01*
X151772850Y-99080202D01*
X151772850Y-99080201D01*
X151694799Y-99002150D01*
X151594760Y-98955501D01*
X151549179Y-98949500D01*
X151549177Y-98949500D01*
X151250826Y-98949500D01*
X151250814Y-98949501D01*
X151205240Y-98955500D01*
X151205238Y-98955500D01*
X151105203Y-99002148D01*
X151027150Y-99080201D01*
X150980501Y-99180240D01*
X150980501Y-99180241D01*
X150974500Y-99225822D01*
X150974500Y-99409520D01*
X150955593Y-99467711D01*
X150945504Y-99479524D01*
X150421717Y-100003310D01*
X150367200Y-100031087D01*
X150306768Y-100021516D01*
X150270744Y-99985492D01*
X150269033Y-99986691D01*
X150264067Y-99979599D01*
X150264065Y-99979597D01*
X150264065Y-99979596D01*
X150180404Y-99895935D01*
X150180402Y-99895934D01*
X150180401Y-99895933D01*
X150166490Y-99889446D01*
X150121743Y-99847717D01*
X150110070Y-99787655D01*
X150135930Y-99732203D01*
X150166497Y-99709997D01*
X150180110Y-99703649D01*
X150263650Y-99620109D01*
X150313574Y-99513047D01*
X150313576Y-99513040D01*
X150320000Y-99464253D01*
X150320000Y-99390001D01*
X150319999Y-99390000D01*
X149280002Y-99390000D01*
X149280001Y-99390001D01*
X149280001Y-99464260D01*
X149286422Y-99513041D01*
X149336349Y-99620109D01*
X149419888Y-99703648D01*
X149433504Y-99709997D01*
X149478253Y-99751725D01*
X149489929Y-99811785D01*
X149464073Y-99867239D01*
X149433510Y-99889446D01*
X149419597Y-99895934D01*
X149335933Y-99979598D01*
X149285932Y-100086824D01*
X149285932Y-100086825D01*
X149279500Y-100135685D01*
X149279500Y-100484314D01*
X149285932Y-100533174D01*
X149285932Y-100533175D01*
X149335933Y-100640401D01*
X149335934Y-100640402D01*
X149335935Y-100640404D01*
X149419596Y-100724065D01*
X149474341Y-100749593D01*
X149519087Y-100791319D01*
X149531500Y-100839316D01*
X149531500Y-101055500D01*
X149512593Y-101113691D01*
X149463093Y-101149655D01*
X149432500Y-101154500D01*
X149162248Y-101154500D01*
X149101314Y-101166621D01*
X149062686Y-101166621D01*
X149001751Y-101154500D01*
X149001748Y-101154500D01*
X148856336Y-101154500D01*
X148798145Y-101135593D01*
X148762181Y-101086093D01*
X148760709Y-101029878D01*
X148773360Y-100982665D01*
X148773360Y-99115746D01*
X149280000Y-99115746D01*
X149280000Y-99189999D01*
X149280001Y-99190000D01*
X149699999Y-99190000D01*
X149700000Y-99189999D01*
X149700000Y-98820001D01*
X149900000Y-98820001D01*
X149900000Y-99189999D01*
X149900001Y-99190000D01*
X150319998Y-99190000D01*
X150319999Y-99189999D01*
X150319999Y-99115749D01*
X150319998Y-99115739D01*
X150313577Y-99066958D01*
X150263650Y-98959890D01*
X150180109Y-98876349D01*
X150073047Y-98826425D01*
X150073040Y-98826423D01*
X150024254Y-98820000D01*
X149900001Y-98820000D01*
X149900000Y-98820001D01*
X149700000Y-98820001D01*
X149699999Y-98820000D01*
X149575748Y-98820000D01*
X149575738Y-98820001D01*
X149526959Y-98826422D01*
X149419890Y-98876349D01*
X149336349Y-98959890D01*
X149286425Y-99066952D01*
X149286423Y-99066959D01*
X149280000Y-99115746D01*
X148773360Y-99115746D01*
X148773360Y-97386552D01*
X148792267Y-97328361D01*
X148802350Y-97316554D01*
X148993082Y-97125822D01*
X150974500Y-97125822D01*
X150974500Y-97574173D01*
X150974501Y-97574185D01*
X150980500Y-97619759D01*
X150980500Y-97619761D01*
X151027148Y-97719796D01*
X151027149Y-97719797D01*
X151027150Y-97719799D01*
X151105201Y-97797850D01*
X151205240Y-97844499D01*
X151250821Y-97850500D01*
X151549178Y-97850499D01*
X151594760Y-97844499D01*
X151594761Y-97844499D01*
X151667969Y-97810361D01*
X151694799Y-97797850D01*
X151763154Y-97729494D01*
X151817669Y-97701719D01*
X151833156Y-97700500D01*
X151900500Y-97700500D01*
X151958691Y-97719407D01*
X151994655Y-97768907D01*
X151999500Y-97799500D01*
X151999500Y-98977063D01*
X152019978Y-99053487D01*
X152028762Y-99068701D01*
X152035402Y-99080201D01*
X152059540Y-99122010D01*
X152059542Y-99122012D01*
X152422040Y-99484511D01*
X152422041Y-99484511D01*
X152446984Y-99509454D01*
X152468207Y-99544653D01*
X152468551Y-99544486D01*
X152470454Y-99548380D01*
X152471564Y-99550220D01*
X152471924Y-99551387D01*
X152471927Y-99551393D01*
X152523302Y-99656483D01*
X152606017Y-99739198D01*
X152631642Y-99751725D01*
X152711104Y-99790572D01*
X152711105Y-99790572D01*
X152711107Y-99790573D01*
X152779240Y-99800500D01*
X152779243Y-99800500D01*
X153870757Y-99800500D01*
X153870760Y-99800500D01*
X153938893Y-99790573D01*
X154043983Y-99739198D01*
X154126698Y-99656483D01*
X154178073Y-99551393D01*
X154188000Y-99483260D01*
X154188000Y-99116740D01*
X154737000Y-99116740D01*
X154737000Y-99483260D01*
X154741339Y-99513040D01*
X154746927Y-99551395D01*
X154780520Y-99620109D01*
X154798302Y-99656483D01*
X154881017Y-99739198D01*
X154906642Y-99751725D01*
X154986104Y-99790572D01*
X154986105Y-99790572D01*
X154986107Y-99790573D01*
X155054240Y-99800500D01*
X155054243Y-99800500D01*
X156145757Y-99800500D01*
X156145760Y-99800500D01*
X156213893Y-99790573D01*
X156318983Y-99739198D01*
X156401698Y-99656483D01*
X156453073Y-99551393D01*
X156463000Y-99483260D01*
X156463000Y-99116740D01*
X156453073Y-99048607D01*
X156437136Y-99016008D01*
X156420291Y-98981550D01*
X156401698Y-98943517D01*
X156318983Y-98860802D01*
X156318981Y-98860801D01*
X156213895Y-98809427D01*
X156186639Y-98805456D01*
X156145760Y-98799500D01*
X155054240Y-98799500D01*
X155020173Y-98804463D01*
X154986104Y-98809427D01*
X154881018Y-98860801D01*
X154798301Y-98943518D01*
X154746927Y-99048604D01*
X154742324Y-99080201D01*
X154737000Y-99116740D01*
X154188000Y-99116740D01*
X154178073Y-99048607D01*
X154162136Y-99016008D01*
X154145291Y-98981550D01*
X154126698Y-98943517D01*
X154077829Y-98894648D01*
X154050054Y-98840134D01*
X154059625Y-98779702D01*
X154077831Y-98754643D01*
X154126286Y-98706187D01*
X154177587Y-98601248D01*
X154187500Y-98533215D01*
X154187500Y-98460001D01*
X156590000Y-98460001D01*
X156590000Y-98539838D01*
X156596519Y-98589354D01*
X156596521Y-98589361D01*
X156647190Y-98698021D01*
X156731978Y-98782809D01*
X156840638Y-98833478D01*
X156840645Y-98833480D01*
X156890161Y-98840000D01*
X156999999Y-98840000D01*
X157000000Y-98839999D01*
X157000000Y-98460001D01*
X157200000Y-98460001D01*
X157200000Y-98839999D01*
X157200001Y-98840000D01*
X157309838Y-98840000D01*
X157359354Y-98833480D01*
X157359361Y-98833478D01*
X157468021Y-98782809D01*
X157552809Y-98698021D01*
X157603478Y-98589361D01*
X157603480Y-98589354D01*
X157610000Y-98539838D01*
X157610000Y-98460001D01*
X157609999Y-98460000D01*
X157200001Y-98460000D01*
X157200000Y-98460001D01*
X157000000Y-98460001D01*
X156999999Y-98460000D01*
X156590001Y-98460000D01*
X156590000Y-98460001D01*
X154187500Y-98460001D01*
X154187500Y-98450001D01*
X154187499Y-98450000D01*
X153324000Y-98450000D01*
X153265809Y-98431093D01*
X153229845Y-98381593D01*
X153225000Y-98351000D01*
X153225000Y-98349000D01*
X153243907Y-98290809D01*
X153293407Y-98254845D01*
X153324000Y-98250000D01*
X154187498Y-98250000D01*
X154187499Y-98249999D01*
X154187499Y-98166786D01*
X154187498Y-98166783D01*
X154177587Y-98098749D01*
X154126285Y-97993811D01*
X154077831Y-97945357D01*
X154050054Y-97890840D01*
X154059625Y-97830408D01*
X154077828Y-97805352D01*
X154126698Y-97756483D01*
X154178073Y-97651393D01*
X154188000Y-97583260D01*
X154188000Y-97216740D01*
X154737000Y-97216740D01*
X154737000Y-97583260D01*
X154741545Y-97614452D01*
X154746927Y-97651395D01*
X154780367Y-97719796D01*
X154798302Y-97756483D01*
X154881017Y-97839198D01*
X154904132Y-97850498D01*
X154986104Y-97890572D01*
X154986105Y-97890572D01*
X154986107Y-97890573D01*
X155054240Y-97900500D01*
X155054243Y-97900500D01*
X156145757Y-97900500D01*
X156145760Y-97900500D01*
X156213893Y-97890573D01*
X156318983Y-97839198D01*
X156378686Y-97779494D01*
X156433201Y-97751719D01*
X156448688Y-97750500D01*
X156617952Y-97750500D01*
X156676143Y-97769407D01*
X156687956Y-97779496D01*
X156718810Y-97810350D01*
X156746587Y-97864867D01*
X156737016Y-97925299D01*
X156718810Y-97950357D01*
X156647192Y-98021975D01*
X156647190Y-98021978D01*
X156596521Y-98130638D01*
X156596519Y-98130645D01*
X156590000Y-98180161D01*
X156590000Y-98259999D01*
X156590001Y-98260000D01*
X157609999Y-98260000D01*
X157610000Y-98259999D01*
X157610000Y-98180161D01*
X157603480Y-98130645D01*
X157603478Y-98130638D01*
X157552809Y-98021978D01*
X157481189Y-97950358D01*
X157453412Y-97895841D01*
X157462983Y-97835409D01*
X157481179Y-97810361D01*
X157481190Y-97810350D01*
X157484609Y-97806930D01*
X157539120Y-97779146D01*
X157599553Y-97788709D01*
X157614884Y-97798379D01*
X157722375Y-97880861D01*
X157856291Y-97936330D01*
X158000000Y-97955250D01*
X158143709Y-97936330D01*
X158277625Y-97880861D01*
X158392621Y-97792621D01*
X158480861Y-97677625D01*
X158536330Y-97543709D01*
X158555250Y-97400000D01*
X158536330Y-97256291D01*
X158480861Y-97122375D01*
X158392621Y-97007379D01*
X158277625Y-96919139D01*
X158277621Y-96919137D01*
X158143709Y-96863670D01*
X158143708Y-96863669D01*
X158000000Y-96844750D01*
X157856291Y-96863669D01*
X157856290Y-96863670D01*
X157722378Y-96919137D01*
X157722370Y-96919142D01*
X157614888Y-97001616D01*
X157557212Y-97022040D01*
X157498547Y-97004662D01*
X157484622Y-96993082D01*
X157468316Y-96976776D01*
X157468314Y-96976775D01*
X157468313Y-96976774D01*
X157359489Y-96926029D01*
X157359488Y-96926028D01*
X157342958Y-96923852D01*
X157309901Y-96919500D01*
X157309899Y-96919500D01*
X156890103Y-96919500D01*
X156890092Y-96919501D01*
X156840513Y-96926027D01*
X156840511Y-96926027D01*
X156731686Y-96976774D01*
X156731683Y-96976776D01*
X156687955Y-97020504D01*
X156633438Y-97048281D01*
X156617952Y-97049500D01*
X156448688Y-97049500D01*
X156390497Y-97030593D01*
X156378690Y-97020509D01*
X156318983Y-96960802D01*
X156318981Y-96960801D01*
X156213895Y-96909427D01*
X156186639Y-96905456D01*
X156145760Y-96899500D01*
X155054240Y-96899500D01*
X155020173Y-96904463D01*
X154986104Y-96909427D01*
X154881018Y-96960801D01*
X154798301Y-97043518D01*
X154746927Y-97148604D01*
X154746927Y-97148607D01*
X154737000Y-97216740D01*
X154188000Y-97216740D01*
X154178073Y-97148607D01*
X154126698Y-97043517D01*
X154059432Y-96976251D01*
X154031657Y-96921737D01*
X154041228Y-96861305D01*
X154059431Y-96836249D01*
X154300469Y-96595212D01*
X154300472Y-96595206D01*
X154303660Y-96591053D01*
X154340361Y-96561596D01*
X154358316Y-96553224D01*
X154430352Y-96481187D01*
X154484867Y-96453412D01*
X154545299Y-96462983D01*
X154570358Y-96481189D01*
X154641978Y-96552809D01*
X154750638Y-96603478D01*
X154750645Y-96603480D01*
X154800161Y-96610000D01*
X154879999Y-96610000D01*
X154880000Y-96609999D01*
X154880000Y-96200001D01*
X155080000Y-96200001D01*
X155080000Y-96609999D01*
X155080001Y-96610000D01*
X155159838Y-96610000D01*
X155209354Y-96603480D01*
X155209361Y-96603478D01*
X155318021Y-96552809D01*
X155402809Y-96468021D01*
X155453478Y-96359361D01*
X155453480Y-96359354D01*
X155460000Y-96309838D01*
X155460000Y-96200001D01*
X155459999Y-96200000D01*
X155080001Y-96200000D01*
X155080000Y-96200001D01*
X154880000Y-96200001D01*
X154880000Y-95590001D01*
X155080000Y-95590001D01*
X155080000Y-95999999D01*
X155080001Y-96000000D01*
X155459999Y-96000000D01*
X155460000Y-95999999D01*
X155460000Y-95890161D01*
X155453480Y-95840645D01*
X155453478Y-95840638D01*
X155402809Y-95731978D01*
X155318021Y-95647190D01*
X155209361Y-95596521D01*
X155209354Y-95596519D01*
X155159839Y-95590000D01*
X155080001Y-95590000D01*
X155080000Y-95590001D01*
X154880000Y-95590001D01*
X154879999Y-95590000D01*
X154800161Y-95590000D01*
X154750645Y-95596519D01*
X154750638Y-95596521D01*
X154641978Y-95647190D01*
X154570358Y-95718811D01*
X154515841Y-95746588D01*
X154455409Y-95737017D01*
X154430353Y-95718813D01*
X154358316Y-95646776D01*
X154358314Y-95646775D01*
X154358313Y-95646774D01*
X154249489Y-95596029D01*
X154249488Y-95596028D01*
X154232958Y-95593852D01*
X154199901Y-95589500D01*
X154199899Y-95589500D01*
X153840104Y-95589500D01*
X153840092Y-95589501D01*
X153790513Y-95596027D01*
X153790511Y-95596027D01*
X153681686Y-95646774D01*
X153596774Y-95731686D01*
X153546029Y-95840510D01*
X153546028Y-95840511D01*
X153539500Y-95890100D01*
X153539500Y-96309894D01*
X153539501Y-96309901D01*
X153539519Y-96310035D01*
X153539512Y-96310070D01*
X153539713Y-96313128D01*
X153538935Y-96313178D01*
X153528361Y-96370194D01*
X153511368Y-96392947D01*
X153044526Y-96859791D01*
X153043774Y-96860772D01*
X153043045Y-96861272D01*
X153039942Y-96864376D01*
X153039366Y-96863800D01*
X152993348Y-96895425D01*
X152965236Y-96899500D01*
X152779240Y-96899500D01*
X152745173Y-96904463D01*
X152711104Y-96909427D01*
X152606018Y-96960801D01*
X152523301Y-97043518D01*
X152523077Y-97043978D01*
X152522680Y-97044387D01*
X152518535Y-97050194D01*
X152517664Y-97049572D01*
X152480535Y-97087953D01*
X152434135Y-97099500D01*
X151891550Y-97099500D01*
X151833359Y-97080593D01*
X151801826Y-97042339D01*
X151772851Y-96980203D01*
X151772850Y-96980202D01*
X151772850Y-96980201D01*
X151694799Y-96902150D01*
X151594760Y-96855501D01*
X151549179Y-96849500D01*
X151549177Y-96849500D01*
X151250826Y-96849500D01*
X151250814Y-96849501D01*
X151205240Y-96855500D01*
X151205238Y-96855500D01*
X151105203Y-96902148D01*
X151027150Y-96980201D01*
X150980501Y-97080240D01*
X150980501Y-97080241D01*
X150974500Y-97125822D01*
X148993082Y-97125822D01*
X156260069Y-89858834D01*
X156314584Y-89831059D01*
X156375016Y-89840630D01*
X156418281Y-89883895D01*
X156427852Y-89944327D01*
X156421536Y-89966724D01*
X156375460Y-90077965D01*
X156349500Y-90208468D01*
X156349500Y-90341531D01*
X156375460Y-90472037D01*
X156426378Y-90594966D01*
X156479198Y-90674018D01*
X156500305Y-90705606D01*
X156594394Y-90799695D01*
X156705031Y-90873620D01*
X156705032Y-90873620D01*
X156705033Y-90873621D01*
X156750411Y-90892417D01*
X156827964Y-90924540D01*
X156829598Y-90924865D01*
X156844867Y-90927903D01*
X156898250Y-90957800D01*
X156923865Y-91013365D01*
X156911927Y-91073375D01*
X156866997Y-91114907D01*
X156844867Y-91122097D01*
X156827970Y-91125458D01*
X156827962Y-91125460D01*
X156705033Y-91176378D01*
X156594397Y-91250302D01*
X156500302Y-91344397D01*
X156426378Y-91455033D01*
X156375460Y-91577962D01*
X156349500Y-91708468D01*
X156349500Y-91841531D01*
X156375460Y-91972037D01*
X156426378Y-92094966D01*
X156465775Y-92153929D01*
X156500305Y-92205606D01*
X156594394Y-92299695D01*
X156705031Y-92373620D01*
X156705032Y-92373620D01*
X156705033Y-92373621D01*
X156766497Y-92399080D01*
X156827964Y-92424540D01*
X156831790Y-92425301D01*
X156844867Y-92427903D01*
X156898250Y-92457800D01*
X156923865Y-92513365D01*
X156911927Y-92573375D01*
X156866997Y-92614907D01*
X156844867Y-92622097D01*
X156827970Y-92625458D01*
X156827962Y-92625460D01*
X156705033Y-92676378D01*
X156594397Y-92750302D01*
X156500302Y-92844397D01*
X156426378Y-92955033D01*
X156375460Y-93077962D01*
X156353473Y-93188497D01*
X156349500Y-93208469D01*
X156349500Y-93341531D01*
X156371967Y-93454478D01*
X156375460Y-93472035D01*
X156426378Y-93594966D01*
X156426379Y-93594968D01*
X156426380Y-93594969D01*
X156500305Y-93705606D01*
X156594394Y-93799695D01*
X156705031Y-93873620D01*
X156705032Y-93873620D01*
X156705033Y-93873621D01*
X156766497Y-93899080D01*
X156827964Y-93924540D01*
X156958469Y-93950500D01*
X156958470Y-93950500D01*
X158141530Y-93950500D01*
X158141531Y-93950500D01*
X158272036Y-93924540D01*
X158349554Y-93892431D01*
X158394965Y-93873622D01*
X158394966Y-93873621D01*
X158394969Y-93873620D01*
X158460048Y-93830135D01*
X158518931Y-93813528D01*
X158576335Y-93834705D01*
X158597360Y-93857448D01*
X158605205Y-93869189D01*
X158605448Y-93869552D01*
X158671769Y-93913867D01*
X158729816Y-93925413D01*
X158783198Y-93955309D01*
X158808814Y-94010874D01*
X158809500Y-94022510D01*
X158809500Y-99205564D01*
X158829977Y-99281985D01*
X158829977Y-99281986D01*
X158829979Y-99281989D01*
X158860014Y-99334012D01*
X158860015Y-99334013D01*
X158869539Y-99350510D01*
X161075812Y-101556783D01*
X161103589Y-101611300D01*
X161094018Y-101671732D01*
X161093120Y-101673453D01*
X161076769Y-101704044D01*
X161076766Y-101704052D01*
X161016699Y-101902065D01*
X161016698Y-101902070D01*
X160996417Y-102107996D01*
X160996417Y-102108003D01*
X161016698Y-102313929D01*
X161016699Y-102313934D01*
X161076768Y-102511954D01*
X161174316Y-102694452D01*
X161305302Y-102854059D01*
X161305590Y-102854410D01*
X161328078Y-102872865D01*
X161465547Y-102985683D01*
X161465548Y-102985683D01*
X161465550Y-102985685D01*
X161648046Y-103083232D01*
X161785997Y-103125078D01*
X161846065Y-103143300D01*
X161846070Y-103143301D01*
X162051997Y-103163583D01*
X162052000Y-103163583D01*
X162052003Y-103163583D01*
X162257929Y-103143301D01*
X162257934Y-103143300D01*
X162259556Y-103142808D01*
X162455954Y-103083232D01*
X162638450Y-102985685D01*
X162798410Y-102854410D01*
X162929685Y-102694450D01*
X163027232Y-102511954D01*
X163087300Y-102313934D01*
X163087301Y-102313929D01*
X163107583Y-102108003D01*
X163107583Y-102107996D01*
X163087301Y-101902070D01*
X163087300Y-101902065D01*
X163056640Y-101800993D01*
X163027232Y-101704046D01*
X162929685Y-101521550D01*
X162928823Y-101520500D01*
X162798414Y-101361595D01*
X162798410Y-101361590D01*
X162766317Y-101335252D01*
X162638452Y-101230316D01*
X162455954Y-101132768D01*
X162257934Y-101072699D01*
X162257929Y-101072698D01*
X162052003Y-101052417D01*
X162051997Y-101052417D01*
X161846070Y-101072698D01*
X161846065Y-101072699D01*
X161648052Y-101132766D01*
X161648049Y-101132766D01*
X161648046Y-101132768D01*
X161648044Y-101132768D01*
X161648044Y-101132769D01*
X161617453Y-101149120D01*
X161557220Y-101159874D01*
X161502169Y-101133171D01*
X161500783Y-101131812D01*
X159439496Y-99070525D01*
X159411719Y-99016008D01*
X159410500Y-99000521D01*
X159410500Y-94024500D01*
X159429407Y-93966309D01*
X159478907Y-93930345D01*
X159509500Y-93925500D01*
X160069747Y-93925500D01*
X160069748Y-93925500D01*
X160069749Y-93925499D01*
X160069755Y-93925499D01*
X160084153Y-93922635D01*
X160144914Y-93929825D01*
X160189845Y-93971357D01*
X160202469Y-94019732D01*
X160202469Y-98058533D01*
X160222947Y-98134957D01*
X160222949Y-98134961D01*
X160262507Y-98203477D01*
X160262509Y-98203480D01*
X160678903Y-98619874D01*
X161075812Y-99016783D01*
X161103589Y-99071300D01*
X161094018Y-99131732D01*
X161093120Y-99133453D01*
X161076769Y-99164044D01*
X161076766Y-99164052D01*
X161016699Y-99362065D01*
X161016698Y-99362070D01*
X160996417Y-99567996D01*
X160996417Y-99568003D01*
X161016698Y-99773929D01*
X161016699Y-99773934D01*
X161076768Y-99971954D01*
X161174316Y-100154452D01*
X161257892Y-100256290D01*
X161305590Y-100314410D01*
X161305595Y-100314414D01*
X161465547Y-100445683D01*
X161465548Y-100445683D01*
X161465550Y-100445685D01*
X161648046Y-100543232D01*
X161774332Y-100581540D01*
X161846065Y-100603300D01*
X161846070Y-100603301D01*
X162051997Y-100623583D01*
X162052000Y-100623583D01*
X162052003Y-100623583D01*
X162257929Y-100603301D01*
X162257934Y-100603300D01*
X162293138Y-100592621D01*
X162455954Y-100543232D01*
X162638450Y-100445685D01*
X162798410Y-100314410D01*
X162929685Y-100154450D01*
X163027232Y-99971954D01*
X163087300Y-99773934D01*
X163087301Y-99773929D01*
X163107583Y-99568003D01*
X163107583Y-99567996D01*
X163087301Y-99362070D01*
X163087300Y-99362065D01*
X163063008Y-99281985D01*
X163027232Y-99164046D01*
X162929685Y-98981550D01*
X162911909Y-98959890D01*
X162798414Y-98821595D01*
X162798410Y-98821590D01*
X162747369Y-98779702D01*
X162638452Y-98690316D01*
X162455954Y-98592768D01*
X162257934Y-98532699D01*
X162257929Y-98532698D01*
X162052003Y-98512417D01*
X162051997Y-98512417D01*
X161846070Y-98532698D01*
X161846065Y-98532699D01*
X161648052Y-98592766D01*
X161648049Y-98592766D01*
X161648046Y-98592768D01*
X161648044Y-98592768D01*
X161648044Y-98592769D01*
X161617453Y-98609120D01*
X161557220Y-98619874D01*
X161502169Y-98593171D01*
X161500783Y-98591812D01*
X160832465Y-97923494D01*
X160804688Y-97868977D01*
X160803469Y-97853490D01*
X160803469Y-97084158D01*
X160822209Y-97026478D01*
X160821013Y-97025415D01*
X160981802Y-97025415D01*
X160982562Y-97025967D01*
X161000992Y-97074454D01*
X161016698Y-97233929D01*
X161016699Y-97233934D01*
X161076768Y-97431954D01*
X161174316Y-97614452D01*
X161260772Y-97719799D01*
X161305590Y-97774410D01*
X161327777Y-97792618D01*
X161465547Y-97905683D01*
X161465548Y-97905683D01*
X161465550Y-97905685D01*
X161648046Y-98003232D01*
X161785997Y-98045078D01*
X161846065Y-98063300D01*
X161846070Y-98063301D01*
X162051997Y-98083583D01*
X162052000Y-98083583D01*
X162052003Y-98083583D01*
X162257929Y-98063301D01*
X162257934Y-98063300D01*
X162273655Y-98058531D01*
X162455954Y-98003232D01*
X162638450Y-97905685D01*
X162798410Y-97774410D01*
X162929685Y-97614450D01*
X163027232Y-97431954D01*
X163087300Y-97233934D01*
X163087301Y-97233929D01*
X163107583Y-97028003D01*
X163107583Y-97027996D01*
X163087301Y-96822070D01*
X163087300Y-96822065D01*
X163048786Y-96695101D01*
X163027232Y-96624046D01*
X162929685Y-96441550D01*
X162798410Y-96281590D01*
X162698992Y-96200000D01*
X162638452Y-96150316D01*
X162455954Y-96052768D01*
X162257934Y-95992699D01*
X162257929Y-95992698D01*
X162052003Y-95972417D01*
X162051997Y-95972417D01*
X161846070Y-95992698D01*
X161846065Y-95992699D01*
X161648045Y-96052768D01*
X161465547Y-96150316D01*
X161305595Y-96281585D01*
X161305585Y-96281595D01*
X161174316Y-96441547D01*
X161076768Y-96624045D01*
X161016699Y-96822065D01*
X161016698Y-96822070D01*
X161000992Y-96981545D01*
X160981802Y-97025415D01*
X160821013Y-97025415D01*
X160817058Y-97021901D01*
X160803469Y-96971841D01*
X160803469Y-94544158D01*
X160822209Y-94486478D01*
X160817058Y-94481901D01*
X160803469Y-94431841D01*
X160803469Y-93903448D01*
X160822376Y-93845257D01*
X160871876Y-93809293D01*
X160933062Y-93809293D01*
X160972473Y-93833444D01*
X161075812Y-93936783D01*
X161103589Y-93991300D01*
X161094018Y-94051732D01*
X161093120Y-94053453D01*
X161076769Y-94084044D01*
X161076766Y-94084052D01*
X161016699Y-94282065D01*
X161016698Y-94282070D01*
X161000992Y-94441545D01*
X160981802Y-94485415D01*
X160982562Y-94485967D01*
X161000992Y-94534454D01*
X161016698Y-94693929D01*
X161016699Y-94693934D01*
X161076768Y-94891954D01*
X161174316Y-95074452D01*
X161305585Y-95234404D01*
X161305590Y-95234410D01*
X161305595Y-95234414D01*
X161465547Y-95365683D01*
X161465548Y-95365683D01*
X161465550Y-95365685D01*
X161648046Y-95463232D01*
X161785997Y-95505078D01*
X161846065Y-95523300D01*
X161846070Y-95523301D01*
X162051997Y-95543583D01*
X162052000Y-95543583D01*
X162052003Y-95543583D01*
X162257929Y-95523301D01*
X162257934Y-95523300D01*
X162455954Y-95463232D01*
X162638450Y-95365685D01*
X162798410Y-95234410D01*
X162929685Y-95074450D01*
X163027232Y-94891954D01*
X163087300Y-94693934D01*
X163087301Y-94693929D01*
X163107583Y-94488003D01*
X163107583Y-94487996D01*
X163087301Y-94282070D01*
X163087300Y-94282065D01*
X163069078Y-94221997D01*
X163027232Y-94084046D01*
X162929685Y-93901550D01*
X162906765Y-93873622D01*
X162798414Y-93741595D01*
X162798410Y-93741590D01*
X162754563Y-93705606D01*
X162638452Y-93610316D01*
X162455954Y-93512768D01*
X162257934Y-93452699D01*
X162257929Y-93452698D01*
X162052003Y-93432417D01*
X162051997Y-93432417D01*
X161846070Y-93452698D01*
X161846065Y-93452699D01*
X161648052Y-93512766D01*
X161648049Y-93512766D01*
X161648046Y-93512768D01*
X161648044Y-93512768D01*
X161648044Y-93512769D01*
X161617453Y-93529120D01*
X161557220Y-93539874D01*
X161502169Y-93513171D01*
X161500783Y-93511812D01*
X161231985Y-93243014D01*
X161204208Y-93188497D01*
X161202989Y-93173010D01*
X161202989Y-92819525D01*
X161221896Y-92761334D01*
X161271396Y-92725370D01*
X161332582Y-92725370D01*
X161364793Y-92742996D01*
X161373695Y-92750302D01*
X161465547Y-92825683D01*
X161465548Y-92825683D01*
X161465550Y-92825685D01*
X161648046Y-92923232D01*
X161785997Y-92965078D01*
X161846065Y-92983300D01*
X161846070Y-92983301D01*
X162051997Y-93003583D01*
X162052000Y-93003583D01*
X162052003Y-93003583D01*
X162257929Y-92983301D01*
X162257934Y-92983300D01*
X162455954Y-92923232D01*
X162638450Y-92825685D01*
X162798410Y-92694410D01*
X162929685Y-92534450D01*
X163027232Y-92351954D01*
X163087300Y-92153934D01*
X163087301Y-92153929D01*
X163107583Y-91948003D01*
X163107583Y-91947996D01*
X163087301Y-91742070D01*
X163087300Y-91742065D01*
X163067568Y-91677018D01*
X163027232Y-91544046D01*
X162929685Y-91361550D01*
X162895159Y-91319480D01*
X162798414Y-91201595D01*
X162798410Y-91201590D01*
X162787391Y-91192547D01*
X162638452Y-91070316D01*
X162455954Y-90972768D01*
X162257934Y-90912699D01*
X162257929Y-90912698D01*
X162052003Y-90892417D01*
X162051997Y-90892417D01*
X161846070Y-90912698D01*
X161846065Y-90912699D01*
X161648052Y-90972766D01*
X161648049Y-90972766D01*
X161648046Y-90972768D01*
X161648044Y-90972768D01*
X161648044Y-90972769D01*
X161617453Y-90989120D01*
X161557220Y-90999874D01*
X161502169Y-90973171D01*
X161500783Y-90971812D01*
X161231985Y-90703014D01*
X161204208Y-90648497D01*
X161202989Y-90633010D01*
X161202989Y-90279525D01*
X161221896Y-90221334D01*
X161271396Y-90185370D01*
X161332582Y-90185370D01*
X161364793Y-90202996D01*
X161371463Y-90208470D01*
X161465547Y-90285683D01*
X161465548Y-90285683D01*
X161465550Y-90285685D01*
X161648046Y-90383232D01*
X161785997Y-90425078D01*
X161846065Y-90443300D01*
X161846070Y-90443301D01*
X162051997Y-90463583D01*
X162052000Y-90463583D01*
X162052003Y-90463583D01*
X162257929Y-90443301D01*
X162257934Y-90443300D01*
X162455954Y-90383232D01*
X162638450Y-90285685D01*
X162798410Y-90154410D01*
X162929685Y-89994450D01*
X163027232Y-89811954D01*
X163087300Y-89613934D01*
X163087301Y-89613929D01*
X163107583Y-89408003D01*
X163107583Y-89407996D01*
X163087301Y-89202070D01*
X163087300Y-89202065D01*
X163054812Y-89094966D01*
X163027232Y-89004046D01*
X162929685Y-88821550D01*
X162798410Y-88661590D01*
X162696511Y-88577964D01*
X162638452Y-88530316D01*
X162455954Y-88432768D01*
X162257934Y-88372699D01*
X162257929Y-88372698D01*
X162052003Y-88352417D01*
X162051997Y-88352417D01*
X161846070Y-88372698D01*
X161846065Y-88372699D01*
X161648052Y-88432766D01*
X161648049Y-88432766D01*
X161648046Y-88432768D01*
X161648044Y-88432768D01*
X161648044Y-88432769D01*
X161617453Y-88449120D01*
X161557220Y-88459874D01*
X161502169Y-88433171D01*
X161500783Y-88431812D01*
X161229496Y-88160525D01*
X161201719Y-88106008D01*
X161200500Y-88090521D01*
X161200500Y-87737482D01*
X161219407Y-87679291D01*
X161268907Y-87643327D01*
X161330093Y-87643327D01*
X161362303Y-87660952D01*
X161414076Y-87703442D01*
X161465547Y-87745683D01*
X161465548Y-87745683D01*
X161465550Y-87745685D01*
X161648046Y-87843232D01*
X161748230Y-87873622D01*
X161846065Y-87903300D01*
X161846070Y-87903301D01*
X162051997Y-87923583D01*
X162052000Y-87923583D01*
X162052003Y-87923583D01*
X162257929Y-87903301D01*
X162257934Y-87903300D01*
X162455954Y-87843232D01*
X162638450Y-87745685D01*
X162798410Y-87614410D01*
X162929685Y-87454450D01*
X163027232Y-87271954D01*
X163087300Y-87073934D01*
X163087301Y-87073929D01*
X163107583Y-86868003D01*
X163107583Y-86867996D01*
X163087301Y-86662070D01*
X163087300Y-86662065D01*
X163049251Y-86536635D01*
X163027232Y-86464046D01*
X162929685Y-86281550D01*
X162908238Y-86255417D01*
X162798414Y-86121595D01*
X162798413Y-86121594D01*
X162798410Y-86121590D01*
X162765972Y-86094969D01*
X162638452Y-85990316D01*
X162455954Y-85892768D01*
X162281288Y-85839784D01*
X162240022Y-85815051D01*
X161977558Y-85552587D01*
X161949781Y-85498070D01*
X161959352Y-85437638D01*
X162002617Y-85394373D01*
X162047562Y-85383583D01*
X162052003Y-85383583D01*
X162257929Y-85363301D01*
X162257934Y-85363300D01*
X162455954Y-85303232D01*
X162638450Y-85205685D01*
X162798410Y-85074410D01*
X162929685Y-84914450D01*
X163027232Y-84731954D01*
X163087300Y-84533934D01*
X163087301Y-84533929D01*
X163107583Y-84328003D01*
X163107583Y-84327996D01*
X163087301Y-84122070D01*
X163087300Y-84122065D01*
X163058614Y-84027499D01*
X163027232Y-83924046D01*
X162929685Y-83741550D01*
X162920557Y-83730428D01*
X162798414Y-83581595D01*
X162798410Y-83581590D01*
X162743632Y-83536635D01*
X162638452Y-83450316D01*
X162455954Y-83352768D01*
X162257934Y-83292699D01*
X162257929Y-83292698D01*
X162052003Y-83272417D01*
X162051997Y-83272417D01*
X161846070Y-83292698D01*
X161846065Y-83292699D01*
X161648045Y-83352768D01*
X161648040Y-83352770D01*
X161471481Y-83447144D01*
X161411249Y-83457900D01*
X161356198Y-83431199D01*
X161354809Y-83429838D01*
X160464510Y-82539539D01*
X160455854Y-82534542D01*
X160455855Y-82534542D01*
X160455851Y-82534540D01*
X160395989Y-82499979D01*
X160395987Y-82499978D01*
X160395985Y-82499977D01*
X160323876Y-82480655D01*
X160272562Y-82447331D01*
X160250636Y-82390209D01*
X160250500Y-82385029D01*
X160250500Y-82305253D01*
X160250498Y-82305241D01*
X160239570Y-82250305D01*
X160238867Y-82246769D01*
X160194552Y-82180448D01*
X160159321Y-82156907D01*
X160128233Y-82136134D01*
X160128231Y-82136133D01*
X160128228Y-82136132D01*
X160128227Y-82136132D01*
X160069758Y-82124501D01*
X160069748Y-82124500D01*
X158730252Y-82124500D01*
X158730251Y-82124500D01*
X158730241Y-82124501D01*
X158671772Y-82136132D01*
X158671766Y-82136134D01*
X158605451Y-82180445D01*
X158605447Y-82180449D01*
X158597362Y-82192550D01*
X158549311Y-82230428D01*
X158488173Y-82232830D01*
X158460046Y-82219863D01*
X158394966Y-82176378D01*
X158272037Y-82125460D01*
X158265770Y-82124213D01*
X158255132Y-82122097D01*
X158201750Y-82092201D01*
X158176134Y-82036635D01*
X158188071Y-81976626D01*
X158233001Y-81935094D01*
X158255130Y-81927902D01*
X158272036Y-81924540D01*
X158349554Y-81892431D01*
X158394965Y-81873622D01*
X158394966Y-81873621D01*
X158394969Y-81873620D01*
X158460048Y-81830135D01*
X158518931Y-81813528D01*
X158576335Y-81834705D01*
X158597360Y-81857448D01*
X158605448Y-81869552D01*
X158671769Y-81913867D01*
X158716231Y-81922711D01*
X158730241Y-81925498D01*
X158730246Y-81925498D01*
X158730252Y-81925500D01*
X158730253Y-81925500D01*
X160069747Y-81925500D01*
X160069748Y-81925500D01*
X160128231Y-81913867D01*
X160194552Y-81869552D01*
X160238867Y-81803231D01*
X160242451Y-81785211D01*
X160272346Y-81731830D01*
X160327911Y-81706213D01*
X160387921Y-81718150D01*
X160409552Y-81734523D01*
X160647540Y-81972511D01*
X160647539Y-81972511D01*
X160703489Y-82028460D01*
X160772007Y-82068019D01*
X160772011Y-82068021D01*
X160848435Y-82088499D01*
X160848437Y-82088500D01*
X160848438Y-82088500D01*
X160902500Y-82088500D01*
X160960691Y-82107407D01*
X160996655Y-82156907D01*
X161001500Y-82187500D01*
X161001500Y-82657746D01*
X161001501Y-82657758D01*
X161013132Y-82716227D01*
X161013133Y-82716231D01*
X161057448Y-82782552D01*
X161123769Y-82826867D01*
X161168231Y-82835711D01*
X161182241Y-82838498D01*
X161182246Y-82838498D01*
X161182252Y-82838500D01*
X161182253Y-82838500D01*
X162921747Y-82838500D01*
X162921748Y-82838500D01*
X162980231Y-82826867D01*
X163046552Y-82782552D01*
X163090867Y-82716231D01*
X163102500Y-82657748D01*
X163102500Y-80918252D01*
X163090867Y-80859769D01*
X163046552Y-80793448D01*
X162981981Y-80750302D01*
X162980233Y-80749134D01*
X162980231Y-80749133D01*
X162980228Y-80749132D01*
X162980227Y-80749132D01*
X162921758Y-80737501D01*
X162921748Y-80737500D01*
X161182252Y-80737500D01*
X161182251Y-80737500D01*
X161182241Y-80737501D01*
X161123772Y-80749132D01*
X161123766Y-80749134D01*
X161057451Y-80793445D01*
X161057445Y-80793451D01*
X161013134Y-80859766D01*
X161013132Y-80859772D01*
X161001501Y-80918241D01*
X161001500Y-80918253D01*
X161001500Y-81237521D01*
X160982593Y-81295712D01*
X160933093Y-81331676D01*
X160871907Y-81331676D01*
X160832497Y-81307525D01*
X160564511Y-81039540D01*
X160560980Y-81037501D01*
X160560978Y-81037500D01*
X160495989Y-80999979D01*
X160495987Y-80999978D01*
X160495985Y-80999977D01*
X160419564Y-80979500D01*
X160419562Y-80979500D01*
X160349500Y-80979500D01*
X160291309Y-80960593D01*
X160255345Y-80911093D01*
X160250500Y-80880500D01*
X160250500Y-80805253D01*
X160250498Y-80805241D01*
X160239570Y-80750305D01*
X160238867Y-80746769D01*
X160194552Y-80680448D01*
X160188461Y-80676378D01*
X160128233Y-80636134D01*
X160128231Y-80636133D01*
X160128228Y-80636132D01*
X160128227Y-80636132D01*
X160069758Y-80624501D01*
X160069748Y-80624500D01*
X158730252Y-80624500D01*
X158730251Y-80624500D01*
X158730241Y-80624501D01*
X158671772Y-80636132D01*
X158671766Y-80636134D01*
X158605451Y-80680445D01*
X158605447Y-80680449D01*
X158597362Y-80692550D01*
X158549311Y-80730428D01*
X158488173Y-80732830D01*
X158460046Y-80719863D01*
X158394966Y-80676378D01*
X158272037Y-80625460D01*
X158141531Y-80599500D01*
X156958469Y-80599500D01*
X156958468Y-80599500D01*
X156827962Y-80625460D01*
X156705033Y-80676378D01*
X156594397Y-80750302D01*
X156500302Y-80844397D01*
X156426378Y-80955033D01*
X156375460Y-81077962D01*
X156349500Y-81208468D01*
X156349500Y-81341531D01*
X156375460Y-81472037D01*
X156426378Y-81594966D01*
X156426379Y-81594968D01*
X156426380Y-81594969D01*
X156500305Y-81705606D01*
X156594394Y-81799695D01*
X156705031Y-81873620D01*
X156705032Y-81873620D01*
X156705033Y-81873621D01*
X156766497Y-81899080D01*
X156827964Y-81924540D01*
X156831790Y-81925301D01*
X156844867Y-81927903D01*
X156898250Y-81957800D01*
X156923865Y-82013365D01*
X156911927Y-82073375D01*
X156866997Y-82114907D01*
X156844867Y-82122097D01*
X156827970Y-82125458D01*
X156827962Y-82125460D01*
X156705033Y-82176378D01*
X156594397Y-82250302D01*
X156500302Y-82344397D01*
X156426378Y-82455033D01*
X156375460Y-82577962D01*
X156349500Y-82708468D01*
X156349500Y-82841531D01*
X156375460Y-82972037D01*
X156426378Y-83094966D01*
X156480169Y-83175471D01*
X156500305Y-83205606D01*
X156594394Y-83299695D01*
X156705031Y-83373620D01*
X156705032Y-83373620D01*
X156705033Y-83373621D01*
X156766497Y-83399080D01*
X156827964Y-83424540D01*
X156831790Y-83425301D01*
X156844867Y-83427903D01*
X156898250Y-83457800D01*
X156923865Y-83513365D01*
X156911927Y-83573375D01*
X156866997Y-83614907D01*
X156844867Y-83622097D01*
X156827970Y-83625458D01*
X156827962Y-83625460D01*
X156705033Y-83676378D01*
X156594397Y-83750302D01*
X156500302Y-83844397D01*
X156426378Y-83955033D01*
X156375460Y-84077962D01*
X156349500Y-84208468D01*
X156349500Y-84341531D01*
X156375460Y-84472037D01*
X156426378Y-84594966D01*
X156482861Y-84679500D01*
X156500305Y-84705606D01*
X156594394Y-84799695D01*
X156705031Y-84873620D01*
X156705032Y-84873620D01*
X156705033Y-84873621D01*
X156766497Y-84899080D01*
X156827964Y-84924540D01*
X156831790Y-84925301D01*
X156844867Y-84927903D01*
X156898250Y-84957800D01*
X156923865Y-85013365D01*
X156911927Y-85073375D01*
X156866997Y-85114907D01*
X156844867Y-85122097D01*
X156827970Y-85125458D01*
X156827962Y-85125460D01*
X156705033Y-85176378D01*
X156594397Y-85250302D01*
X156500302Y-85344397D01*
X156426378Y-85455033D01*
X156375460Y-85577962D01*
X156349500Y-85708468D01*
X156349500Y-85841531D01*
X156375460Y-85972037D01*
X156426378Y-86094966D01*
X156498283Y-86202581D01*
X156500305Y-86205606D01*
X156594394Y-86299695D01*
X156705031Y-86373620D01*
X156705032Y-86373620D01*
X156705033Y-86373621D01*
X156757794Y-86395475D01*
X156827964Y-86424540D01*
X156831790Y-86425301D01*
X156844867Y-86427903D01*
X156898250Y-86457800D01*
X156923865Y-86513365D01*
X156911927Y-86573375D01*
X156866997Y-86614907D01*
X156844867Y-86622097D01*
X156827970Y-86625458D01*
X156827962Y-86625460D01*
X156705033Y-86676378D01*
X156594397Y-86750302D01*
X156500302Y-86844397D01*
X156426378Y-86955033D01*
X156375460Y-87077962D01*
X156349500Y-87208468D01*
X156349500Y-87341534D01*
X156366338Y-87426184D01*
X156359146Y-87486946D01*
X156339244Y-87515502D01*
X147262368Y-96592381D01*
X147262367Y-96592382D01*
X147203062Y-96695101D01*
X147203061Y-96695104D01*
X147196572Y-96719316D01*
X147196573Y-96719317D01*
X147172360Y-96809683D01*
X147172360Y-99726236D01*
X147153453Y-99784427D01*
X147133629Y-99804777D01*
X147130241Y-99807376D01*
X147041999Y-99922374D01*
X147041997Y-99922378D01*
X146986530Y-100056290D01*
X146986529Y-100056291D01*
X146977653Y-100123717D01*
X146951312Y-100178942D01*
X146897541Y-100208137D01*
X146836879Y-100200151D01*
X146792497Y-100158033D01*
X146780500Y-100110795D01*
X146780500Y-100075685D01*
X146777947Y-100056291D01*
X146774068Y-100026827D01*
X146771591Y-100021516D01*
X146724066Y-99919598D01*
X146724065Y-99919597D01*
X146724065Y-99919596D01*
X146640404Y-99835935D01*
X146640402Y-99835934D01*
X146640401Y-99835933D01*
X146533175Y-99785932D01*
X146500601Y-99781644D01*
X146484316Y-99779500D01*
X146135684Y-99779500D01*
X146119398Y-99781644D01*
X146086825Y-99785932D01*
X146086824Y-99785932D01*
X145979598Y-99835933D01*
X145895934Y-99919597D01*
X145889446Y-99933510D01*
X145847715Y-99978256D01*
X145787654Y-99989929D01*
X145732202Y-99964068D01*
X145709997Y-99933504D01*
X145703648Y-99919888D01*
X145620109Y-99836349D01*
X145513047Y-99786425D01*
X145513040Y-99786423D01*
X145464254Y-99780000D01*
X145390001Y-99780000D01*
X145390000Y-99780001D01*
X145390000Y-100819998D01*
X145390001Y-100819999D01*
X145464251Y-100819999D01*
X145464260Y-100819998D01*
X145513041Y-100813577D01*
X145620109Y-100763650D01*
X145703649Y-100680110D01*
X145709997Y-100666497D01*
X145751723Y-100621747D01*
X145811784Y-100610069D01*
X145867238Y-100635925D01*
X145889446Y-100666490D01*
X145895933Y-100680401D01*
X145895934Y-100680402D01*
X145895935Y-100680404D01*
X145979596Y-100764065D01*
X145979597Y-100764065D01*
X145979598Y-100764066D01*
X146086824Y-100814067D01*
X146086825Y-100814067D01*
X146086827Y-100814068D01*
X146135684Y-100820500D01*
X146364521Y-100820500D01*
X146422712Y-100839407D01*
X146434525Y-100849496D01*
X146502504Y-100917475D01*
X146530281Y-100971992D01*
X146531500Y-100987479D01*
X146531500Y-101055500D01*
X146512593Y-101113691D01*
X146463093Y-101149655D01*
X146432500Y-101154500D01*
X146162248Y-101154500D01*
X146101314Y-101166621D01*
X146062686Y-101166621D01*
X146001751Y-101154500D01*
X146001748Y-101154500D01*
X145362252Y-101154500D01*
X145362248Y-101154500D01*
X145300032Y-101166876D01*
X145261404Y-101166876D01*
X145201700Y-101155000D01*
X144982001Y-101155000D01*
X144982000Y-101155001D01*
X144982000Y-101976000D01*
X144963093Y-102034191D01*
X144913593Y-102070155D01*
X144883000Y-102075000D01*
X144438000Y-102075000D01*
X144379809Y-102056093D01*
X144343845Y-102006593D01*
X144339000Y-101976000D01*
X144339000Y-101974000D01*
X144357907Y-101915809D01*
X144407407Y-101879845D01*
X144438000Y-101875000D01*
X144781999Y-101875000D01*
X144782000Y-101874999D01*
X144782000Y-101155001D01*
X144781999Y-101155000D01*
X144562299Y-101155000D01*
X144503963Y-101166603D01*
X144437810Y-101210806D01*
X144437806Y-101210810D01*
X144393603Y-101276963D01*
X144382000Y-101335299D01*
X144382000Y-101416043D01*
X144363093Y-101474234D01*
X144313593Y-101510198D01*
X144252407Y-101510198D01*
X144212996Y-101486047D01*
X144208220Y-101481271D01*
X144093571Y-101404666D01*
X143966182Y-101351901D01*
X143862000Y-101331177D01*
X143862000Y-101741211D01*
X143801496Y-101725000D01*
X143722504Y-101725000D01*
X143662000Y-101741211D01*
X143662000Y-101331177D01*
X143557817Y-101351901D01*
X143430428Y-101404666D01*
X143315779Y-101481271D01*
X143218271Y-101578779D01*
X143141666Y-101693428D01*
X143090964Y-101815837D01*
X143051228Y-101862363D01*
X142991733Y-101876647D01*
X142935205Y-101853233D01*
X142903235Y-101801064D01*
X142900500Y-101777952D01*
X142900500Y-100400001D01*
X144820001Y-100400001D01*
X144820001Y-100524260D01*
X144826422Y-100573041D01*
X144876349Y-100680109D01*
X144959890Y-100763650D01*
X145066952Y-100813574D01*
X145066959Y-100813576D01*
X145115745Y-100819999D01*
X145189999Y-100819998D01*
X145190000Y-100819998D01*
X145190000Y-100400001D01*
X145189999Y-100400000D01*
X144820002Y-100400000D01*
X144820001Y-100400001D01*
X142900500Y-100400001D01*
X142900500Y-100075746D01*
X144820000Y-100075746D01*
X144820000Y-100199999D01*
X144820001Y-100200000D01*
X145189999Y-100200000D01*
X145190000Y-100199999D01*
X145190000Y-99779999D01*
X145115749Y-99780000D01*
X145115738Y-99780001D01*
X145066959Y-99786422D01*
X144959890Y-99836349D01*
X144876349Y-99919890D01*
X144826425Y-100026952D01*
X144826423Y-100026959D01*
X144820000Y-100075746D01*
X142900500Y-100075746D01*
X142900500Y-85360439D01*
X142900499Y-85360435D01*
X142896201Y-85344393D01*
X142896201Y-85344394D01*
X142880022Y-85284012D01*
X142880020Y-85284009D01*
X142880020Y-85284007D01*
X142840463Y-85215493D01*
X142840461Y-85215491D01*
X142840460Y-85215489D01*
X140159511Y-82534540D01*
X140159508Y-82534538D01*
X140090992Y-82494980D01*
X140090988Y-82494978D01*
X140014564Y-82474500D01*
X140014562Y-82474500D01*
X139789546Y-82474500D01*
X139731355Y-82455593D01*
X139707231Y-82430501D01*
X139649700Y-82344400D01*
X139649697Y-82344397D01*
X139649695Y-82344394D01*
X139555606Y-82250305D01*
X139550318Y-82246772D01*
X139444966Y-82176378D01*
X139322037Y-82125460D01*
X139315770Y-82124213D01*
X139305132Y-82122097D01*
X139251750Y-82092201D01*
X139226134Y-82036635D01*
X139238071Y-81976626D01*
X139283001Y-81935094D01*
X139305130Y-81927902D01*
X139322036Y-81924540D01*
X139444969Y-81873620D01*
X139555606Y-81799695D01*
X139649695Y-81705606D01*
X139723620Y-81594969D01*
X139774540Y-81472036D01*
X139800500Y-81341531D01*
X139800500Y-81208469D01*
X139774540Y-81077964D01*
X139723620Y-80955031D01*
X139649695Y-80844394D01*
X139555606Y-80750305D01*
X139553853Y-80749134D01*
X139444966Y-80676378D01*
X139322037Y-80625460D01*
X139191531Y-80599500D01*
X138008469Y-80599500D01*
X138008468Y-80599500D01*
X137877962Y-80625460D01*
X137755032Y-80676378D01*
X137689953Y-80719863D01*
X137631064Y-80736471D01*
X137573661Y-80715293D01*
X137552638Y-80692550D01*
X137544552Y-80680448D01*
X137538461Y-80676378D01*
X137478233Y-80636134D01*
X137478231Y-80636133D01*
X137478228Y-80636132D01*
X137478227Y-80636132D01*
X137419758Y-80624501D01*
X137419748Y-80624500D01*
X136080252Y-80624500D01*
X136080251Y-80624500D01*
X136080241Y-80624501D01*
X136021772Y-80636132D01*
X136021766Y-80636134D01*
X135955451Y-80680445D01*
X135955445Y-80680451D01*
X135911134Y-80746766D01*
X135911132Y-80746772D01*
X135899501Y-80805241D01*
X135899500Y-80805253D01*
X135899500Y-81744746D01*
X135899501Y-81744758D01*
X135911132Y-81803227D01*
X135911134Y-81803233D01*
X135947360Y-81857448D01*
X135955448Y-81869552D01*
X136021769Y-81913867D01*
X136066231Y-81922711D01*
X136080241Y-81925498D01*
X136080246Y-81925498D01*
X136080252Y-81925500D01*
X136080253Y-81925500D01*
X137419747Y-81925500D01*
X137419748Y-81925500D01*
X137478231Y-81913867D01*
X137544552Y-81869552D01*
X137552637Y-81857451D01*
X137600683Y-81819572D01*
X137661821Y-81817168D01*
X137689953Y-81830136D01*
X137755031Y-81873620D01*
X137877964Y-81924540D01*
X137881790Y-81925301D01*
X137894867Y-81927903D01*
X137948250Y-81957800D01*
X137973865Y-82013365D01*
X137961927Y-82073375D01*
X137916997Y-82114907D01*
X137894867Y-82122097D01*
X137877970Y-82125458D01*
X137877962Y-82125460D01*
X137755032Y-82176378D01*
X137689953Y-82219863D01*
X137631064Y-82236471D01*
X137573661Y-82215293D01*
X137552638Y-82192550D01*
X137544552Y-82180448D01*
X137509321Y-82156907D01*
X137478233Y-82136134D01*
X137478231Y-82136133D01*
X137478228Y-82136132D01*
X137478227Y-82136132D01*
X137419758Y-82124501D01*
X137419748Y-82124500D01*
X136080252Y-82124500D01*
X136080251Y-82124500D01*
X136080241Y-82124501D01*
X136021772Y-82136132D01*
X136021766Y-82136134D01*
X135955451Y-82180445D01*
X135955445Y-82180451D01*
X135911134Y-82246766D01*
X135911132Y-82246772D01*
X135899501Y-82305241D01*
X135899500Y-82305253D01*
X135899500Y-82380500D01*
X135880593Y-82438691D01*
X135831093Y-82474655D01*
X135800500Y-82479500D01*
X135699562Y-82479500D01*
X135620438Y-82479500D01*
X135573661Y-82492033D01*
X135544007Y-82499979D01*
X135475493Y-82539536D01*
X135475488Y-82539540D01*
X135331503Y-82683525D01*
X135276987Y-82711302D01*
X135216555Y-82701730D01*
X135173290Y-82658466D01*
X135162500Y-82613521D01*
X135162500Y-80918253D01*
X135162498Y-80918241D01*
X135159711Y-80904231D01*
X135150867Y-80859769D01*
X135106552Y-80793448D01*
X135041981Y-80750302D01*
X135040233Y-80749134D01*
X135040231Y-80749133D01*
X135040228Y-80749132D01*
X135040227Y-80749132D01*
X134981758Y-80737501D01*
X134981748Y-80737500D01*
X133242252Y-80737500D01*
X133242251Y-80737500D01*
X133242241Y-80737501D01*
X133183772Y-80749132D01*
X133183766Y-80749134D01*
X133117451Y-80793445D01*
X133117445Y-80793451D01*
X133073134Y-80859766D01*
X133073132Y-80859772D01*
X133061501Y-80918241D01*
X133061500Y-80918253D01*
X133061500Y-82657746D01*
X133061501Y-82657758D01*
X133073132Y-82716227D01*
X133073133Y-82716231D01*
X133117448Y-82782552D01*
X133183769Y-82826867D01*
X133228231Y-82835711D01*
X133242241Y-82838498D01*
X133242246Y-82838498D01*
X133242252Y-82838500D01*
X133242253Y-82838500D01*
X134937521Y-82838500D01*
X134995712Y-82857407D01*
X135031676Y-82906907D01*
X135031676Y-82968093D01*
X135007524Y-83007504D01*
X134663214Y-83351812D01*
X134608698Y-83379589D01*
X134548266Y-83370018D01*
X134546583Y-83369139D01*
X134515954Y-83352768D01*
X134317934Y-83292699D01*
X134317929Y-83292698D01*
X134112003Y-83272417D01*
X134111997Y-83272417D01*
X133906070Y-83292698D01*
X133906065Y-83292699D01*
X133708045Y-83352768D01*
X133525547Y-83450316D01*
X133365595Y-83581585D01*
X133365585Y-83581595D01*
X133234316Y-83741547D01*
X133136768Y-83924045D01*
X133076699Y-84122065D01*
X133076698Y-84122070D01*
X133056417Y-84327996D01*
X132788500Y-84327996D01*
X132788500Y-80499500D01*
X132807407Y-80441309D01*
X132856907Y-80405345D01*
X132887500Y-80400500D01*
X163276500Y-80400500D01*
X163334691Y-80419407D01*
G37*
G04 #@! TD.AperFunction*
D22*
X132588000Y-80200000D02*
X163576000Y-80200000D01*
X163576000Y-108800000D02*
X132588000Y-108800000D01*
X163576000Y-80200000D02*
X163576000Y-108800000D01*
X132588000Y-108800000D02*
X132588000Y-80200000D01*
M02*
