M48
; DRILL file {KiCad 8.0.4-8.0.4-0~ubuntu24.04.1} date 2024-08-17T13:37:03+0200
; FORMAT={-:-/ absolute / inch / decimal}
; #@! TF.CreationDate,2024-08-17T13:37:03+02:00
; #@! TF.GenerationSoftware,Kicad,Pcbnew,8.0.4-8.0.4-0~ubuntu24.04.1
; #@! TF.FileFunction,Plated,1,2,PTH
FMAT,2
INCH
; #@! TA.AperFunction,Plated,PTH,ViaDrill
T1C0.0118
; #@! TA.AperFunction,Plated,PTH,ComponentDrill
T2C0.0236
; #@! TA.AperFunction,Plated,PTH,ComponentDrill
T3C0.0256
; #@! TA.AperFunction,Plated,PTH,ComponentDrill
T4C0.0394
%
G90
G05
T1
X5.5512Y-3.9764
X5.808Y-3.9449
X5.8204Y-4.056
X6.1732Y-3.9528
X6.2205Y-3.8346
T2
X5.3957Y-3.1998
X5.3957Y-3.2589
X5.3957Y-3.3179
X5.3957Y-3.377
X5.3957Y-3.436
X5.3957Y-3.4951
X5.3957Y-3.5541
X5.3957Y-3.6132
X5.3957Y-3.6722
X6.2638Y-3.1998
X6.2638Y-3.2589
X6.2638Y-3.3179
X6.2638Y-3.377
X6.2638Y-3.436
X6.2638Y-3.4951
X6.2638Y-3.5541
X6.2638Y-3.6132
X6.2638Y-3.6722
T4
X5.28Y-3.22
X5.28Y-3.32
X5.28Y-3.42
X5.28Y-3.52
X5.28Y-3.62
X5.28Y-3.72
X5.28Y-3.82
X5.28Y-3.92
X5.28Y-4.02
X6.38Y-3.22
X6.38Y-3.32
X6.38Y-3.42
X6.38Y-3.52
X6.38Y-3.62
X6.38Y-3.72
X6.38Y-3.82
X6.38Y-3.92
X6.38Y-4.02
T2
G00X5.6599Y-4.0167
M15
G01X5.6599Y-4.06
M16
G05
G00X5.6599Y-4.188
M15
G01X5.6599Y-4.2195
M16
G05
G00X6.0001Y-4.0167
M15
G01X6.0001Y-4.06
M16
G05
G00X6.0001Y-4.188
M15
G01X6.0001Y-4.2195
M16
G05
T3
G00X5.436Y-3.1998
M15
G01X5.4774Y-3.1998
M16
G05
G00X5.436Y-3.2589
M15
G01X5.4774Y-3.2589
M16
G05
G00X5.436Y-3.3179
M15
G01X5.4774Y-3.3179
M16
G05
G00X5.436Y-3.377
M15
G01X5.4774Y-3.377
M16
G05
G00X5.436Y-3.436
M15
G01X5.4774Y-3.436
M16
G05
G00X5.436Y-3.4951
M15
G01X5.4774Y-3.4951
M16
G05
G00X5.436Y-3.5541
M15
G01X5.4774Y-3.5541
M16
G05
G00X5.436Y-3.6132
M15
G01X5.4774Y-3.6132
M16
G05
G00X5.436Y-3.6722
M15
G01X5.4774Y-3.6722
M16
G05
G00X6.2234Y-3.1998
M15
G01X6.1821Y-3.1998
M16
G05
G00X6.2234Y-3.2589
M15
G01X6.1821Y-3.2589
M16
G05
G00X6.2234Y-3.3179
M15
G01X6.1821Y-3.3179
M16
G05
G00X6.2234Y-3.377
M15
G01X6.1821Y-3.377
M16
G05
G00X6.2234Y-3.436
M15
G01X6.1821Y-3.436
M16
G05
G00X6.2234Y-3.4951
M15
G01X6.1821Y-3.4951
M16
G05
G00X6.2234Y-3.5541
M15
G01X6.1821Y-3.5541
M16
G05
G00X6.2234Y-3.6132
M15
G01X6.1821Y-3.6132
M16
G05
G00X6.2234Y-3.6722
M15
G01X6.1821Y-3.6722
M16
G05
M30
